<svg width="68" height="68" viewBox="0 0 68 68" fill="none" xmlns="http://www.w3.org/2000/svg">
<path d="M0 6C0 2.68629 2.68629 0 6 0H62C65.3137 0 68 2.68629 68 6V62C68 65.3137 65.3137 68 62 68H6C2.68629 68 0 65.3137 0 62V6Z" fill="#5F88C7"/>
<path d="M34 30.75C28.07 30.75 23.25 25.93 23.25 20C23.25 14.07 28.07 9.25 34 9.25C39.93 9.25 44.75 14.07 44.75 20C44.75 25.93 39.93 30.75 34 30.75ZM34 10.75C28.9 10.75 24.75 14.9 24.75 20C24.75 25.1 28.9 29.25 34 29.25C39.1 29.25 43.25 25.1 43.25 20C43.25 14.9 39.1 10.75 34 10.75Z" fill="white"/>
<path d="M31.17 23.58C30.98 23.58 30.79 23.51 30.64 23.36C30.35 23.07 30.35 22.59 30.64 22.3L36.3 16.64C36.59 16.35 37.07 16.35 37.36 16.64C37.65 16.93 37.65 17.41 37.36 17.7L31.7 23.36C31.56 23.51 31.36 23.58 31.17 23.58Z" fill="white"/>
<path d="M36.83 23.58C36.64 23.58 36.45 23.51 36.3 23.36L30.64 17.7C30.35 17.41 30.35 16.93 30.64 16.64C30.93 16.35 31.41 16.35 31.7 16.64L37.36 22.3C37.65 22.59 37.65 23.07 37.36 23.36C37.21 23.51 37.02 23.58 36.83 23.58Z" fill="white"/>
<path d="M23.2061 49.7598H24.915C24.8604 50.4115 24.6781 50.9925 24.3682 51.5029C24.0583 52.0088 23.623 52.4076 23.0625 52.6992C22.502 52.9909 21.8206 53.1367 21.0186 53.1367C20.4033 53.1367 19.8496 53.0273 19.3574 52.8086C18.8652 52.5853 18.4437 52.2708 18.0928 51.8652C17.7419 51.4551 17.473 50.9606 17.2861 50.3818C17.1038 49.8031 17.0127 49.1559 17.0127 48.4404V47.6133C17.0127 46.8978 17.1061 46.2507 17.293 45.6719C17.4844 45.0931 17.7578 44.5986 18.1133 44.1885C18.4688 43.7738 18.8949 43.457 19.3916 43.2383C19.8929 43.0195 20.4557 42.9102 21.0801 42.9102C21.873 42.9102 22.543 43.056 23.0898 43.3477C23.6367 43.6393 24.0605 44.0426 24.3613 44.5576C24.6667 45.0726 24.8535 45.6628 24.9219 46.3281H23.2129C23.1673 45.8997 23.0671 45.5329 22.9121 45.2275C22.7617 44.9222 22.5384 44.6898 22.2422 44.5303C21.946 44.3662 21.5586 44.2842 21.0801 44.2842C20.6882 44.2842 20.3464 44.3571 20.0547 44.5029C19.763 44.6488 19.5192 44.863 19.3232 45.1455C19.1273 45.4281 18.9792 45.7767 18.8789 46.1914C18.7832 46.6016 18.7354 47.071 18.7354 47.5996V48.4404C18.7354 48.9417 18.7786 49.3975 18.8652 49.8076C18.9564 50.2132 19.0931 50.5618 19.2754 50.8535C19.4622 51.1452 19.6992 51.3708 19.9863 51.5303C20.2734 51.6898 20.6175 51.7695 21.0186 51.7695C21.5062 51.7695 21.9004 51.6921 22.2012 51.5371C22.5065 51.3822 22.7367 51.1566 22.8916 50.8604C23.0511 50.5596 23.1559 50.1927 23.2061 49.7598ZM28.0732 42.5V53H26.4189V42.5H28.0732ZM29.5635 49.3838V49.2266C29.5635 48.6934 29.641 48.1989 29.7959 47.7432C29.9508 47.2829 30.1742 46.8841 30.4658 46.5469C30.762 46.2051 31.1221 45.9408 31.5459 45.7539C31.9743 45.5625 32.4574 45.4668 32.9951 45.4668C33.5374 45.4668 34.0205 45.5625 34.4443 45.7539C34.8727 45.9408 35.235 46.2051 35.5312 46.5469C35.8275 46.8841 36.0531 47.2829 36.208 47.7432C36.363 48.1989 36.4404 48.6934 36.4404 49.2266V49.3838C36.4404 49.917 36.363 50.4115 36.208 50.8672C36.0531 51.3229 35.8275 51.7217 35.5312 52.0635C35.235 52.4007 34.875 52.665 34.4512 52.8564C34.0273 53.0433 33.5465 53.1367 33.0088 53.1367C32.4665 53.1367 31.9811 53.0433 31.5527 52.8564C31.1289 52.665 30.7689 52.4007 30.4727 52.0635C30.1764 51.7217 29.9508 51.3229 29.7959 50.8672C29.641 50.4115 29.5635 49.917 29.5635 49.3838ZM31.2109 49.2266V49.3838C31.2109 49.7165 31.2451 50.0309 31.3135 50.3271C31.3818 50.6234 31.4889 50.8831 31.6348 51.1064C31.7806 51.3298 31.9674 51.5052 32.1953 51.6328C32.4232 51.7604 32.6943 51.8242 33.0088 51.8242C33.3141 51.8242 33.5785 51.7604 33.8018 51.6328C34.0296 51.5052 34.2165 51.3298 34.3623 51.1064C34.5081 50.8831 34.6152 50.6234 34.6836 50.3271C34.7565 50.0309 34.793 49.7165 34.793 49.3838V49.2266C34.793 48.8984 34.7565 48.5885 34.6836 48.2969C34.6152 48.0007 34.5059 47.7386 34.3555 47.5107C34.2096 47.2829 34.0228 47.1051 33.7949 46.9775C33.5716 46.8454 33.305 46.7793 32.9951 46.7793C32.6852 46.7793 32.4163 46.8454 32.1885 46.9775C31.9652 47.1051 31.7806 47.2829 31.6348 47.5107C31.4889 47.7386 31.3818 48.0007 31.3135 48.2969C31.2451 48.5885 31.2109 48.8984 31.2109 49.2266ZM41.9707 50.9971C41.9707 50.833 41.9297 50.6849 41.8477 50.5527C41.7656 50.416 41.6084 50.293 41.376 50.1836C41.1481 50.0742 40.8109 49.974 40.3643 49.8828C39.9723 49.7962 39.6123 49.6937 39.2842 49.5752C38.9606 49.4521 38.6826 49.304 38.4502 49.1309C38.2178 48.9577 38.0378 48.7526 37.9102 48.5156C37.7826 48.2786 37.7188 48.0052 37.7188 47.6953C37.7188 47.3945 37.7848 47.1097 37.917 46.8408C38.0492 46.5719 38.2383 46.335 38.4844 46.1299C38.7305 45.9248 39.029 45.763 39.3799 45.6445C39.7354 45.526 40.1318 45.4668 40.5693 45.4668C41.1891 45.4668 41.7201 45.5716 42.1621 45.7812C42.6087 45.9863 42.9505 46.2666 43.1875 46.6221C43.4245 46.973 43.543 47.3695 43.543 47.8115H41.8955C41.8955 47.6156 41.8454 47.4333 41.7451 47.2646C41.6494 47.0915 41.5036 46.9525 41.3076 46.8477C41.1117 46.7383 40.8656 46.6836 40.5693 46.6836C40.2868 46.6836 40.0521 46.7292 39.8652 46.8203C39.6829 46.9069 39.5462 47.0208 39.4551 47.1621C39.3685 47.3034 39.3252 47.4583 39.3252 47.627C39.3252 47.75 39.348 47.8617 39.3936 47.9619C39.4437 48.0576 39.5257 48.1465 39.6396 48.2285C39.7536 48.306 39.9085 48.3789 40.1045 48.4473C40.305 48.5156 40.5557 48.5817 40.8564 48.6455C41.4215 48.764 41.9069 48.9167 42.3125 49.1035C42.7227 49.2858 43.0371 49.5228 43.2559 49.8145C43.4746 50.1016 43.584 50.4661 43.584 50.9082C43.584 51.2363 43.5133 51.5371 43.3721 51.8105C43.2354 52.0794 43.0348 52.3141 42.7705 52.5146C42.5062 52.7106 42.1895 52.8633 41.8203 52.9727C41.4557 53.082 41.0456 53.1367 40.5898 53.1367C39.9199 53.1367 39.3525 53.0182 38.8877 52.7812C38.4229 52.5397 38.0697 52.2321 37.8281 51.8584C37.5911 51.4801 37.4727 51.0882 37.4727 50.6826H39.0654C39.0837 50.988 39.168 51.2318 39.3184 51.4141C39.4733 51.5918 39.6647 51.7217 39.8926 51.8037C40.125 51.8812 40.3643 51.9199 40.6104 51.9199C40.9066 51.9199 41.1549 51.8812 41.3555 51.8037C41.556 51.7217 41.7087 51.6123 41.8135 51.4756C41.9183 51.3343 41.9707 51.1748 41.9707 50.9971ZM48.2871 53.1367C47.7402 53.1367 47.2458 53.0479 46.8037 52.8701C46.3662 52.6878 45.9925 52.4349 45.6826 52.1113C45.3773 51.7878 45.1426 51.4072 44.9785 50.9697C44.8145 50.5322 44.7324 50.0605 44.7324 49.5547V49.2812C44.7324 48.7025 44.8167 48.1784 44.9854 47.709C45.154 47.2396 45.3887 46.8385 45.6895 46.5059C45.9902 46.1686 46.3457 45.9111 46.7559 45.7334C47.166 45.5557 47.6104 45.4668 48.0889 45.4668C48.6175 45.4668 49.0801 45.5557 49.4766 45.7334C49.873 45.9111 50.2012 46.1618 50.4609 46.4854C50.7253 46.8044 50.9212 47.1849 51.0488 47.627C51.181 48.069 51.2471 48.5566 51.2471 49.0898V49.7939H45.5322V48.6113H49.6201V48.4814C49.611 48.1852 49.5518 47.9072 49.4424 47.6475C49.3376 47.3877 49.1758 47.1781 48.957 47.0186C48.7383 46.859 48.4466 46.7793 48.082 46.7793C47.8086 46.7793 47.5648 46.8385 47.3506 46.957C47.141 47.071 46.9655 47.2373 46.8242 47.4561C46.6829 47.6748 46.5736 47.9391 46.4961 48.249C46.4232 48.5544 46.3867 48.8984 46.3867 49.2812V49.5547C46.3867 49.8783 46.43 50.179 46.5166 50.457C46.6077 50.7305 46.7399 50.9697 46.9131 51.1748C47.0863 51.3799 47.2959 51.5417 47.542 51.6602C47.7881 51.7741 48.0684 51.8311 48.3828 51.8311C48.7793 51.8311 49.1325 51.7513 49.4424 51.5918C49.7523 51.4323 50.0212 51.2067 50.249 50.915L51.1172 51.7559C50.9577 51.9883 50.7503 52.2116 50.4951 52.4258C50.2399 52.6354 49.9277 52.8063 49.5586 52.9385C49.194 53.0706 48.7702 53.1367 48.2871 53.1367Z" fill="white"/>
</svg>
