<svg width="65" height="64" viewBox="0 0 65 64" fill="none" xmlns="http://www.w3.org/2000/svg">
<g clip-path="url(#clip0_1112_12566)">
<path d="M58.2665 38.3998H57.9741C58.0558 38.4022 58.133 38.4375 58.1881 38.4978C58.2433 38.5582 58.2715 38.6382 58.2665 38.7198V47.9998C58.3116 49.1252 57.4419 50.0768 56.3171 50.1332H3.68262C2.55775 50.0769 1.68812 49.1252 1.73312 47.9998V3.19978C1.688 2.07441 2.55775 1.12266 3.68262 1.06641H56.3171C57.442 1.12266 58.3116 2.07441 58.2665 3.19978V38.3998Z" fill="white"/>
<path d="M63.6 38.3998H63.3076C63.3892 38.4022 63.4665 38.4375 63.5216 38.4978C63.5767 38.5582 63.605 38.6382 63.6 38.7198V47.9998C63.6451 49.1252 62.7754 50.0768 61.6506 50.1332H9.016C7.89112 50.0769 7.0215 49.1252 7.06662 47.9998V3.19978C7.0215 2.07441 7.89125 1.12266 9.016 1.06641H61.6505C62.7754 1.12266 63.645 2.07441 63.5999 3.19978L63.6 38.3998Z" fill="#93B2F4" fill-opacity="0.8"/>
<path d="M60.3999 38.3998H60.113C60.1939 38.4029 60.2701 38.4388 60.3241 38.499C60.3781 38.5593 60.4055 38.6389 60.3999 38.7198V47.9998C60.4541 49.1147 59.6014 50.0658 58.4872 50.1332H6.84573C5.7316 50.0658 4.87898 49.1147 4.9331 47.9998V3.19978C4.87898 2.08491 5.7316 1.13378 6.84573 1.06641H58.4871C59.6012 1.13378 60.454 2.08491 60.3997 3.19978L60.3999 38.3998Z" fill="url(#paint0_linear_1112_12566)" fill-opacity="0.8"/>
<path d="M60.3999 47.3279H60.113C60.2755 47.3279 60.3999 47.361 60.3999 47.4044V49.6235C60.3999 49.904 59.5391 50.1336 58.4872 50.1336H6.84573C5.79386 50.1336 4.93311 49.904 4.93311 49.6235V38.9105C4.93311 38.6299 5.79386 38.4004 6.84573 38.4004H58.4871C59.539 38.4004 60.3997 38.6299 60.3997 38.9105L60.3999 47.3279Z" fill="#DBE0EE" fill-opacity="0.98"/>
<path d="M42.2664 19.2003C43.4447 19.2003 44.3998 18.2452 44.3998 17.067C44.3998 15.8887 43.4447 14.9336 42.2664 14.9336C41.0882 14.9336 40.1331 15.8887 40.1331 17.067C40.1331 18.2452 41.0882 19.2003 42.2664 19.2003Z" fill="#BDC3C7"/>
<path d="M42.2664 32.0011C43.4447 32.0011 44.3998 31.046 44.3998 29.8678C44.3998 28.6895 43.4447 27.7344 42.2664 27.7344C41.0882 27.7344 40.1331 28.6895 40.1331 29.8678C40.1331 31.046 41.0882 32.0011 42.2664 32.0011Z" fill="#BDC3C7"/>
<path d="M50.7999 25.6007C51.9781 25.6007 52.9333 24.6456 52.9333 23.4674C52.9333 22.2891 51.9781 21.334 50.7999 21.334C49.6216 21.334 48.6665 22.2891 48.6665 23.4674C48.6665 24.6456 49.6216 25.6007 50.7999 25.6007Z" fill="#BDC3C7"/>
<path d="M36.4516 50.1328C36.4516 50.1328 35.1898 52.6928 37.7132 56.5328C38.6966 58.0249 39.7611 59.4619 40.9019 60.8373C41.2186 61.2164 41.2881 61.7443 41.0804 62.1924C40.8728 62.6407 40.4253 62.9289 39.9314 62.9328H25.4016C24.9076 62.9291 24.4602 62.6407 24.2526 62.1924C24.0449 61.7442 24.1144 61.2164 24.4311 60.8373C25.5719 59.4619 26.6366 58.0249 27.6198 56.5328C30.1432 52.6928 28.8814 50.1328 28.8814 50.1328H36.4516Z" fill="#DBE0EE" fill-opacity="0.98"/>
<path d="M18.6931 20.9062V28.373L13.3599 31.573V24.1062L18.6931 20.9062Z" fill="#93B2F4" fill-opacity="0.8"/>
<path d="M18.6932 20.907L13.36 24.107L8.02661 20.907L13.36 17.707L18.6932 20.907Z" fill="#DBE0EE" fill-opacity="0.98"/>
<path d="M13.36 24.1062V31.573L8.02661 28.373V20.9062L13.36 24.1062Z" fill="#DBE0EE" fill-opacity="0.98"/>
<path d="M29.36 20.9062V28.373L24.0266 31.573V24.1062L29.36 20.9062Z" fill="#93B2F4" fill-opacity="0.8"/>
<path d="M24.0265 24.1062V31.573L18.6931 28.373V20.9062L24.0265 24.1062Z" fill="#DBE0EE" fill-opacity="0.98"/>
<path d="M29.3599 20.9051L24.0265 24.1051L18.6931 20.9051L24.0265 17.7051L29.3599 20.9051Z" fill="#DBE0EE" fill-opacity="0.98"/>
<path d="M24.0265 10.2391L18.6931 13.4391L13.3599 10.2391L18.6931 7.03906L24.0265 10.2391Z" fill="#DBE0EE" fill-opacity="0.98"/>
<path d="M24.0265 10.2402V17.7069L18.6931 20.9069V13.4402L24.0265 10.2402Z" fill="#93B2F4" fill-opacity="0.8"/>
<path d="M18.6931 13.4402V20.9069L13.3599 17.7069V10.2402L18.6931 13.4402Z" fill="#DBE0EE" fill-opacity="0.98"/>
<path d="M42.2664 19.2003C43.4447 19.2003 44.3998 18.2452 44.3998 17.067C44.3998 15.8887 43.4447 14.9336 42.2664 14.9336C41.0882 14.9336 40.1331 15.8887 40.1331 17.067C40.1331 18.2452 41.0882 19.2003 42.2664 19.2003Z" fill="#93B2F4" fill-opacity="0.8"/>
<path d="M42.2664 32.0011C43.4447 32.0011 44.3998 31.046 44.3998 29.8678C44.3998 28.6895 43.4447 27.7344 42.2664 27.7344C41.0882 27.7344 40.1331 28.6895 40.1331 29.8678C40.1331 31.046 41.0882 32.0011 42.2664 32.0011Z" fill="#93B2F4" fill-opacity="0.8"/>
<path d="M50.7999 25.6007C51.9781 25.6007 52.9333 24.6456 52.9333 23.4674C52.9333 22.2891 51.9781 21.334 50.7999 21.334C49.6216 21.334 48.6665 22.2891 48.6665 23.4674C48.6665 24.6456 49.6216 25.6007 50.7999 25.6007Z" fill="#93B2F4" fill-opacity="0.8"/>
<path d="M39.9317 63.9997H25.4014C24.4941 63.9959 23.6704 63.4688 23.2871 62.6464C22.9037 61.824 23.0297 60.8543 23.6102 60.157C24.7259 58.812 25.7668 57.4067 26.7279 55.9472C28.8571 52.7075 27.9347 50.6248 27.9248 50.6044C27.7618 50.2738 27.7812 49.8825 27.9758 49.5695C28.1704 49.2565 28.5129 49.0663 28.8816 49.0664H36.4513C36.8172 49.0664 37.1576 49.2539 37.3531 49.5632C37.5486 49.8724 37.5718 50.2604 37.4148 50.5909C37.3648 50.7034 36.5044 52.7513 38.6049 55.9472C39.566 57.4068 40.6071 58.8123 41.7232 60.157C42.3036 60.8544 42.4292 61.8242 42.0458 62.6465C41.6626 63.4688 40.8389 63.9959 39.9317 63.9997ZM30.2228 51.1997C30.3634 53.3123 29.7577 55.4073 28.5113 57.1189C27.5068 58.6443 26.4188 60.113 25.2524 61.5184C25.1948 61.5815 25.1829 61.674 25.2227 61.7497C25.2511 61.8229 25.3229 61.8698 25.4013 61.8663H39.9314C40.0098 61.8698 40.0818 61.8228 40.1101 61.7497C40.1498 61.674 40.1381 61.5818 40.0809 61.5184C38.9142 60.1132 37.826 58.6444 36.8215 57.1189C35.5752 55.4073 34.9696 53.3123 35.1102 51.1997H30.2228Z" fill="#3575FF"/>
<path d="M55.0665 18.1332H44.3998C43.8107 18.1332 43.3333 17.6556 43.3333 17.0666C43.3333 16.4776 43.8108 16 44.3998 16H55.0665C55.6556 16 56.133 16.4776 56.133 17.0666C56.133 17.6556 55.6556 18.1332 55.0665 18.1332Z" fill="#3575FF"/>
<path d="M40.1331 18.1332H37.9997C37.4106 18.1332 36.9331 17.6556 36.9331 17.0666C36.9331 16.4776 37.4106 16 37.9997 16H40.1331C40.7222 16 41.1997 16.4776 41.1997 17.0666C41.1997 17.6556 40.7222 18.1332 40.1331 18.1332Z" fill="#3575FF"/>
<path d="M42.2659 20.2672C40.4987 20.2672 39.0659 18.8344 39.0659 17.0672C39.0659 15.2999 40.4985 13.8672 42.2659 13.8672C44.0333 13.8672 45.4659 15.2999 45.4659 17.0672C45.4639 18.8337 44.0324 20.2653 42.2659 20.2672ZM42.2659 16.0006C41.6768 16.0006 41.1993 16.4782 41.1993 17.0672C41.1993 17.6562 41.6768 18.1338 42.2659 18.1338C42.855 18.1338 43.3325 17.6562 43.3325 17.0672C43.3318 16.4784 42.8547 16.0013 42.2659 16.0006Z" fill="#3575FF"/>
<path d="M55.0665 30.934H44.3998C43.8107 30.934 43.3333 30.4564 43.3333 29.8674C43.3333 29.2783 43.8108 28.8008 44.3998 28.8008H55.0665C55.6556 28.8008 56.133 29.2784 56.133 29.8674C56.133 30.4564 55.6556 30.934 55.0665 30.934Z" fill="#3575FF"/>
<path d="M40.1331 30.934H37.9997C37.4106 30.934 36.9331 30.4564 36.9331 29.8674C36.9331 29.2783 37.4106 28.8008 37.9997 28.8008H40.1331C40.7222 28.8008 41.1997 29.2784 41.1997 29.8674C41.1999 30.4564 40.7222 30.934 40.1331 30.934Z" fill="#3575FF"/>
<path d="M42.2659 33.066C40.4987 33.066 39.0659 31.6333 39.0659 29.866C39.0659 28.0986 40.4985 26.666 42.2659 26.666C44.0333 26.666 45.4659 28.0988 45.4659 29.866C45.4639 31.6325 44.0324 33.0641 42.2659 33.066ZM42.2659 28.7994C41.6768 28.7994 41.1993 29.277 41.1993 29.866C41.1993 30.4551 41.6768 30.9326 42.2659 30.9326C42.855 30.9326 43.3325 30.455 43.3325 29.866C43.3318 29.2773 42.8547 28.8001 42.2659 28.7994Z" fill="#3575FF"/>
<path d="M48.6666 24.5336H38C37.4108 24.5336 36.9333 24.056 36.9333 23.467C36.9333 22.8779 37.4108 22.4004 38 22.4004H48.6666C49.2557 22.4004 49.7332 22.878 49.7332 23.467C49.7332 24.056 49.2557 24.5336 48.6666 24.5336Z" fill="#3575FF"/>
<path d="M55.0665 24.5336H52.9331C52.344 24.5336 51.8665 24.056 51.8665 23.467C51.8665 22.8779 52.344 22.4004 52.9331 22.4004H55.0665C55.6556 22.4004 56.1331 22.878 56.1331 23.467C56.1331 24.056 55.6556 24.5336 55.0665 24.5336Z" fill="#3575FF"/>
<path d="M50.8004 26.6657C49.5061 26.6657 48.3392 25.8861 47.844 24.6904C47.3487 23.4946 47.6225 22.1182 48.5376 21.203C49.4527 20.2877 50.8292 20.014 52.025 20.5094C53.2207 21.0046 54.0004 22.1715 54.0004 23.4657C53.9984 25.2322 52.5669 26.6639 50.8004 26.6657ZM50.8004 22.3991C50.2112 22.3991 49.7337 22.8767 49.7337 23.4657C49.7337 24.0549 50.2114 24.5324 50.8004 24.5324C51.3895 24.5324 51.867 24.0547 51.867 23.4657C51.8662 22.877 51.3891 22.3999 50.8004 22.3991Z" fill="#3575FF"/>
<path d="M13.4665 32.5335C13.2732 32.5337 13.0834 32.481 12.9175 32.3814L7.58416 29.1814C7.26291 28.9887 7.06641 28.6414 7.06641 28.2668V20.8002C7.06641 20.4255 7.26291 20.0783 7.58416 19.8855L12.9175 16.6855C13.2553 16.4824 13.6777 16.4824 14.0154 16.6855L19.3488 19.8855C19.67 20.0783 19.8665 20.4255 19.8665 20.8002V28.2668C19.8665 28.6414 19.67 28.9887 19.3488 29.1814L14.0154 32.3814C13.8497 32.481 13.6599 32.5335 13.4665 32.5335ZM9.19991 27.6627L13.4665 30.2232L17.7332 27.6628V21.4044L13.4665 18.8439L9.19991 21.4043V27.6627Z" fill="#3575FF"/>
<path d="M13.4664 32.5325C12.8773 32.5325 12.3998 32.0549 12.3998 31.4659V24.6034L7.58418 21.7138C7.25743 21.5176 7.06018 21.1621 7.06656 20.781C7.07306 20.4 7.28231 20.0514 7.61556 19.8664C7.94881 19.6815 8.35531 19.6884 8.68206 19.8845L14.0154 23.0845C14.3367 23.2773 14.5332 23.6245 14.5332 23.9991V31.4658C14.5331 32.0549 14.0556 32.5325 13.4664 32.5325Z" fill="#3575FF"/>
<path d="M13.4677 25.0659C12.9881 25.0664 12.5671 24.7467 12.4388 24.2845C12.3106 23.8224 12.5065 23.3314 12.9177 23.0847L18.2511 19.8847C18.7562 19.5815 19.4115 19.7452 19.7146 20.2503C20.0177 20.7554 19.8541 21.4107 19.349 21.7138L14.0156 24.9138C13.8502 25.0134 13.6607 25.066 13.4677 25.0659Z" fill="#3575FF"/>
<path d="M24.133 32.5335C23.9397 32.5337 23.7499 32.481 23.584 32.3814L18.2507 29.1814C17.9294 28.9887 17.7329 28.6414 17.7329 28.2668V20.8002C17.7329 20.4255 17.9294 20.0783 18.2507 19.8855L23.584 16.6855C23.9218 16.4824 24.3442 16.4824 24.6819 16.6855L30.0153 19.8855C30.3365 20.0783 30.533 20.4255 30.533 20.8002V28.2668C30.533 28.6414 30.3365 28.9887 30.0153 29.1814L24.6819 32.3814C24.5163 32.481 24.3265 32.5335 24.133 32.5335ZM19.8664 27.6627L24.133 30.2232L28.3997 27.6628V21.4044L24.133 18.844L19.8664 21.4043V27.6627Z" fill="#3575FF"/>
<path d="M24.133 32.5325C23.5439 32.5325 23.0664 32.0549 23.0664 31.4659V24.6034L18.2508 21.7138C17.7457 21.4107 17.582 20.7554 17.8852 20.2503C18.1883 19.7452 18.8435 19.5815 19.3487 19.8847L24.682 23.0847C25.0033 23.2774 25.1998 23.6247 25.1998 23.9993V31.4659C25.1998 32.0549 24.7222 32.5325 24.133 32.5325Z" fill="#3575FF"/>
<path d="M24.1342 25.0658C23.6546 25.0663 23.2336 24.7465 23.1054 24.2844C22.9771 23.8223 23.173 23.3313 23.5842 23.0845L28.9176 19.8845C29.2444 19.6884 29.6509 19.6815 29.9841 19.8664C30.3174 20.0513 30.5266 20.3999 30.5331 20.781C30.5396 21.162 30.3422 21.5176 30.0155 21.7138L24.6821 24.9138C24.5167 25.0133 24.3272 25.0659 24.1342 25.0658Z" fill="#3575FF"/>
<path d="M18.7998 21.8674C18.6064 21.8675 18.4167 21.8149 18.2508 21.7153L12.9174 18.5153C12.5962 18.3225 12.3997 17.9753 12.3997 17.6007V10.1342C12.3997 9.75953 12.5962 9.41228 12.9174 9.21953L18.2508 6.01953C18.5885 5.81641 19.0109 5.81641 19.3487 6.01953L24.682 9.21953C25.0033 9.41228 25.1998 9.75953 25.1998 10.1342V17.6008C25.1998 17.9754 25.0033 18.3227 24.682 18.5154L19.3487 21.7154C19.1829 21.8149 18.9932 21.8675 18.7998 21.8674ZM14.533 16.9967L18.7997 19.557L23.0663 16.9967V10.7383L18.7997 8.17778L14.533 10.7383V16.9967Z" fill="#3575FF"/>
<path d="M18.7999 21.8665C18.2108 21.8665 17.7333 21.3889 17.7333 20.7999V13.9374L12.9175 11.0478C12.4124 10.7446 12.2488 10.0894 12.5519 9.58427C12.855 9.07915 13.5103 8.91552 14.0154 9.21865L19.3488 12.4186C19.67 12.6114 19.8665 12.9586 19.8665 13.3333V20.7999C19.8665 21.389 19.3889 21.8665 18.7999 21.8665Z" fill="#3575FF"/>
<path d="M18.801 14.3999C18.3214 14.4004 17.9004 14.0806 17.7721 13.6185C17.6439 13.1564 17.8397 12.6654 18.251 12.4186L23.5844 9.21865C24.0895 8.91552 24.7447 9.07915 25.0479 9.58427C25.351 10.0894 25.1874 10.7446 24.6822 11.0478L19.3489 14.2478C19.1835 14.3474 18.9941 14.4 18.801 14.3999Z" fill="#3575FF"/>
<path d="M63.5999 39.4666H1.73313C1.144 39.4666 0.666504 38.9891 0.666504 38.4V34.1334C0.666504 33.5442 1.14413 33.0667 1.73313 33.0667C2.32213 33.0667 2.79975 33.5442 2.79975 34.1334V37.3334H62.5331V3.2C62.5324 2.61125 62.0553 2.13412 61.4665 2.13337H3.8665C3.27775 2.13412 2.80063 2.61125 2.79988 3.2V25.6C2.79988 26.1891 2.32225 26.6666 1.73325 26.6666C1.14425 26.6666 0.666504 26.1891 0.666504 25.6V3.2C0.668379 1.4335 2.1 0.001875 3.8665 0H61.4665C63.233 0.001875 64.6646 1.4335 64.6665 3.2V38.4C64.6665 38.9891 64.189 39.4666 63.5999 39.4666Z" fill="#3575FF"/>
<path d="M61.4665 51.2006H3.8665C2.1 51.1987 0.668379 49.7671 0.666504 48.0006V38.4006C0.666504 37.8115 1.14413 37.334 1.73313 37.334H63.281C64.0459 37.3347 64.6656 37.9546 64.6664 38.7194V48.0006C64.6646 49.7671 63.233 51.1987 61.4665 51.2006ZM2.79988 39.4672V48.0006C2.80063 48.5894 3.27775 49.0665 3.8665 49.0672H61.4665C62.0553 49.0665 62.5324 48.5894 62.5331 48.0006V39.4672H2.79988Z" fill="#3575FF"/>
<path d="M1.73313 30.934C2.32221 30.934 2.79975 30.4565 2.79975 29.8674C2.79975 29.2783 2.32221 28.8008 1.73313 28.8008C1.14405 28.8008 0.666504 29.2783 0.666504 29.8674C0.666504 30.4565 1.14405 30.934 1.73313 30.934Z" fill="#428DFF"/>
</g>
<defs>
<linearGradient id="paint0_linear_1112_12566" x1="7.12614" y1="0.0564824" x2="51.3157" y2="56.5296" gradientUnits="userSpaceOnUse">
<stop stop-color="#D4E1F4"/>
<stop offset="0.1717" stop-color="#D4E1F4"/>
<stop offset="0.2" stop-color="#D4E1F4"/>
<stop offset="0.2001" stop-color="#DAE4F4"/>
<stop offset="0.2007" stop-color="#EBEBF4"/>
<stop offset="0.2014" stop-color="#F6F1F4"/>
<stop offset="0.2023" stop-color="#FDF4F4"/>
<stop offset="0.205" stop-color="#FFF5F4"/>
<stop offset="0.2522" stop-color="#FFF5F4"/>
<stop offset="0.26" stop-color="#D4E1F4"/>
<stop offset="0.3974" stop-color="#D4E1F4"/>
<stop offset="0.42" stop-color="#D4E1F4"/>
<stop offset="0.4201" stop-color="#DAE4F4"/>
<stop offset="0.4207" stop-color="#EBEBF4"/>
<stop offset="0.4214" stop-color="#F6F1F4"/>
<stop offset="0.4223" stop-color="#FDF4F4"/>
<stop offset="0.425" stop-color="#FFF5F4"/>
<stop offset="0.4894" stop-color="#FFF5F4"/>
<stop offset="0.5" stop-color="#F9F2F4"/>
<stop offset="0.5001" stop-color="#E8EBF4"/>
<stop offset="0.5003" stop-color="#DDE5F4"/>
<stop offset="0.5005" stop-color="#D6E2F4"/>
<stop offset="0.501" stop-color="#D4E1F4"/>
<stop offset="0.7062" stop-color="#D4E1F4"/>
<stop offset="0.74" stop-color="#D4E1F4"/>
<stop offset="0.741" stop-color="#FFF5F4"/>
<stop offset="0.8346" stop-color="#FFF5F4"/>
<stop offset="0.85" stop-color="#FFF5F4"/>
<stop offset="0.851" stop-color="#D4E1F4"/>
</linearGradient>
<clipPath id="clip0_1112_12566">
<rect width="65" height="64" fill="white"/>
</clipPath>
</defs>
</svg>
