<svg width="65" height="64" viewBox="0 0 65 64" fill="none" xmlns="http://www.w3.org/2000/svg">
<g clip-path="url(#clip0_21015_62761)">
<path d="M56.8666 13.8672V52.0112L52.3439 56.5339H6.73324C5.31875 56.5339 3.96219 55.972 2.962 54.9718C1.96181 53.9716 1.3999 52.615 1.3999 51.2005V13.8672H56.8666Z" fill="#E8EDFC"/>
<path d="M53.6665 13.8672V52.0112L49.1438 56.5339H52.3438L56.8665 52.0112V13.8672H53.6665Z" fill="#CAD9FC"/>
<path d="M56.8666 6.39974V13.8664H1.3999V6.39974C1.3999 3.45422 3.78772 1.06641 6.73324 1.06641H51.5332C52.9477 1.06641 54.3043 1.62831 55.3045 2.6285C56.3047 3.6287 56.8666 4.98525 56.8666 6.39974Z" fill="#A4C2F7"/>
<path d="M51.5333 1.06641H48.3333C49.7477 1.06641 51.1043 1.62831 52.1045 2.6285C53.1047 3.6287 53.6666 4.98525 53.6666 6.39974V13.8664H56.8666V6.39974C56.8666 4.98525 56.3047 3.6287 55.3045 2.6285C54.3043 1.62831 52.9477 1.06641 51.5333 1.06641Z" fill="#7FACFA"/>
<path d="M7.79984 9.60065C8.97804 9.60065 9.93317 8.64553 9.93317 7.46732C9.93317 6.28911 8.97804 5.33398 7.79984 5.33398C6.62163 5.33398 5.6665 6.28911 5.6665 7.46732C5.6665 8.64553 6.62163 9.60065 7.79984 9.60065Z" fill="#E8EDFC"/>
<path d="M16.3333 9.60065C17.5115 9.60065 18.4666 8.64553 18.4666 7.46732C18.4666 6.28911 17.5115 5.33398 16.3333 5.33398C15.1551 5.33398 14.2 6.28911 14.2 7.46732C14.2 8.64553 15.1551 9.60065 16.3333 9.60065Z" fill="#E8EDFC"/>
<path d="M24.8665 9.60065C26.0447 9.60065 26.9998 8.64553 26.9998 7.46732C26.9998 6.28911 26.0447 5.33398 24.8665 5.33398C23.6883 5.33398 22.7332 6.28911 22.7332 7.46732C22.7332 8.64553 23.6883 9.60065 24.8665 9.60065Z" fill="#E8EDFC"/>
<path d="M50.4665 9.60065C51.6447 9.60065 52.5998 8.64553 52.5998 7.46732C52.5998 6.28911 51.6447 5.33398 50.4665 5.33398H41.9331C40.7549 5.33398 39.7998 6.28911 39.7998 7.46732C39.7998 8.64553 40.7549 9.60065 41.9331 9.60065H50.4665Z" fill="#CAD9FC"/>
<path d="M52.5999 35.1995C52.5986 35.7339 52.5702 36.268 52.5146 36.7995C52.4504 37.2633 52.0913 37.631 51.6292 37.7062L49.0906 38.1222C48.7339 39.753 48.0871 41.3066 47.1812 42.7088L48.6852 44.8102C48.8417 45.0175 48.9107 45.2779 48.8772 45.5355C48.8681 45.7335 48.7972 45.9237 48.6746 46.0795C48.3356 46.492 47.976 46.8872 47.5972 47.2635C47.2132 47.6475 46.8186 47.9995 46.4132 48.3408C46.2575 48.4635 46.0673 48.5343 45.8692 48.5435C45.6117 48.5756 45.3518 48.5068 45.1439 48.3515L43.0426 46.8475C41.6403 47.7534 40.0868 48.4001 38.4559 48.7568L38.0399 51.2955C37.9693 51.76 37.5993 52.1214 37.1332 52.1808C36.0696 52.2946 34.9969 52.2946 33.9332 52.1808C33.4672 52.1214 33.0971 51.76 33.0266 51.2955L32.6106 48.7568C30.9797 48.4001 29.4262 47.7534 28.0239 46.8475L25.9226 48.3515C25.5443 48.631 25.0268 48.6267 24.6532 48.3408C24.2479 47.9995 23.8532 47.6475 23.4692 47.2635C23.0905 46.8872 22.7309 46.492 22.3919 46.0795C22.1061 45.706 22.1017 45.1884 22.3812 44.8102L23.8852 42.7088C22.9793 41.3066 22.3326 39.753 21.9759 38.1222L19.4372 37.7062C18.9751 37.631 18.6161 37.2633 18.5519 36.7995C18.4381 35.7359 18.4381 34.6631 18.5519 33.5995C18.6114 33.1335 18.9727 32.7634 19.4372 32.6928L21.9759 32.2768C22.3326 30.646 22.9793 29.0924 23.8852 27.6902L22.3812 25.5888C22.1017 25.2106 22.1061 24.693 22.3919 24.3195C22.7282 23.9046 23.0879 23.5093 23.4692 23.1355C23.8455 22.7567 24.2407 22.3971 24.6532 22.0582C25.0268 21.7723 25.5443 21.768 25.9226 22.0475L28.0239 23.5515C29.4262 22.6456 30.9797 21.9989 32.6106 21.6422L33.0266 19.1035C33.0971 18.639 33.4672 18.2776 33.9332 18.2182C34.9969 18.1044 36.0696 18.1044 37.1332 18.2182C37.5993 18.2776 37.9693 18.639 38.0399 19.1035L38.4559 21.6422C40.0868 21.9989 41.6403 22.6456 43.0426 23.5515L45.1439 22.0475C45.5222 21.768 46.0397 21.7723 46.4132 22.0582C46.8258 22.3971 47.2209 22.7567 47.5972 23.1355C47.9786 23.5093 48.3383 23.9046 48.6746 24.3195C48.9604 24.693 48.9648 25.2106 48.6852 25.5888L47.1812 27.6902C48.0871 29.0924 48.7339 30.646 49.0906 32.2768L51.6292 32.6928C52.0937 32.7634 52.4551 33.1335 52.5146 33.5995C52.5702 34.131 52.5986 34.6651 52.5999 35.1995Z" fill="#E8EDFC"/>
<path d="M62.3278 61.9941C61.7287 62.5949 60.915 62.9326 60.0665 62.9326C59.218 62.9326 58.4043 62.5949 57.8052 61.9941L50.8078 54.9968C49.633 53.7359 49.6676 51.7711 50.8862 50.5525C52.1048 49.3339 54.0696 49.2992 55.3305 50.4741L62.3278 57.4714C63.5756 58.7208 63.5756 60.7447 62.3278 61.9941Z" fill="#E8EDFC"/>
<path d="M62.3279 57.4725L55.3305 50.4752C54.3086 49.4479 52.7201 49.2446 51.4724 49.9813C51.7124 50.1165 51.9337 50.2825 52.1305 50.4752L59.1279 57.4725C60.3757 58.7219 60.3757 60.7458 59.1279 61.9952C58.9309 62.1903 58.7084 62.3579 58.4665 62.4933C59.854 63.2994 61.6242 62.9508 62.6024 61.6789C63.5806 60.4069 63.4631 58.6066 62.3279 57.4725Z" fill="#CAD9FC"/>
<path d="M52.8878 49.5458C51.2642 49.6333 49.9673 50.9302 49.8798 52.5538L45.8691 48.5432C46.0672 48.534 46.2574 48.4631 46.4131 48.3405C46.8185 47.9992 47.2131 47.6472 47.5971 47.2632C47.9759 46.8869 48.3355 46.4917 48.6745 46.0792C48.7971 45.9234 48.868 45.7332 48.8771 45.5352L52.8878 49.5458Z" fill="#A4C2F7"/>
<path d="M35.5333 44.7996C40.8353 44.7996 45.1334 40.5015 45.1334 35.1996C45.1334 29.8977 40.8353 25.5996 35.5333 25.5996C30.2314 25.5996 25.9333 29.8977 25.9333 35.1996C25.9333 40.5015 30.2314 44.7996 35.5333 44.7996Z" fill="#A4C2F7"/>
<path d="M44.0568 47.5726L45.1438 48.3513C45.5221 48.6308 46.0396 48.6265 46.4131 48.3406C46.8184 47.9993 47.2131 47.6473 47.5971 47.2633C47.9759 46.887 48.3355 46.4918 48.6744 46.0793C48.9603 45.7058 48.9646 45.1882 48.6851 44.81L47.1811 42.7086C47.195 42.6862 47.2067 42.6628 47.2206 42.6404C48.0002 41.4167 48.5816 40.0775 48.9432 38.6724C48.9923 38.4878 49.0499 38.3086 49.0904 38.122L51.6291 37.706C52.0912 37.6308 52.4503 37.2631 52.5144 36.7993C52.6282 35.7357 52.6282 34.6629 52.5144 33.5993C52.455 33.1333 52.0936 32.7632 51.6291 32.6926L49.0904 32.2766C49.0499 32.09 48.9923 31.9097 48.9432 31.7262C48.5818 30.3207 48.0004 28.9811 47.2206 27.7572C47.2067 27.7358 47.195 27.7113 47.1811 27.69L48.6851 25.5886C48.9646 25.2104 48.9603 24.6928 48.6744 24.3193C48.3382 23.9044 47.9785 23.5091 47.5971 23.1353C47.2208 22.7565 46.8256 22.397 46.4131 22.058C46.0396 21.7721 45.5221 21.7678 45.1438 22.0473L44.0568 22.8249L37.6035 21.6953L38.5326 22.7993C43.2311 25.1455 46.1998 29.946 46.1998 35.1977C46.1998 40.4495 43.2311 45.25 38.5326 47.5961L38.652 48.7118L44.0568 47.5726Z" fill="#CAD9FC"/>
<path d="M6.73324 56.5331H9.93324C6.98772 56.5331 4.5999 54.1453 4.5999 51.1997V6.39974C4.5999 3.45422 6.98772 1.06641 9.93324 1.06641H6.73324C3.78772 1.06641 1.3999 3.45422 1.3999 6.39974V51.1997C1.3999 52.6142 1.96181 53.9708 2.962 54.971C3.96219 55.9712 5.31875 56.5331 6.73324 56.5331Z" fill="white"/>
<path d="M0.333252 42.666H2.46659V51.1993H0.333252V42.666Z" fill="white"/>
<path d="M1.39992 48.0005C1.98902 48.0005 2.46659 47.523 2.46659 46.9339C2.46659 46.3448 1.98902 45.8672 1.39992 45.8672C0.810815 45.8672 0.333252 46.3448 0.333252 46.9339C0.333252 47.523 0.810815 48.0005 1.39992 48.0005Z" fill="#428DFF"/>
<path d="M6.73325 57.6H51.9002L57.0501 62.7499C58.7242 64.3668 61.3853 64.3437 63.0311 62.6979C64.6769 61.0521 64.7001 58.391 63.0831 56.7168L57.9333 51.5669V6.4C57.9297 2.86684 55.0664 0.00352787 51.5333 0H6.73325C3.20009 0.00352787 0.33678 2.86684 0.333252 6.4V42.6667C0.333252 43.2558 0.810815 43.7333 1.39992 43.7333C1.98902 43.7333 2.46659 43.2558 2.46659 42.6667V14.9333H55.7999V49.4933C55.115 48.9326 54.2716 48.6006 53.3882 48.544L49.8991 45.0549C49.8512 44.7457 49.7329 44.4516 49.5535 44.1952L48.4602 42.6667C49.1151 41.5367 49.619 40.3256 49.9589 39.0645L51.7989 38.7627C52.7392 38.6101 53.4644 37.8527 53.5759 36.9067C53.6975 35.7675 53.6975 34.6186 53.5759 33.4795C53.4612 32.5397 52.738 31.7896 51.8031 31.6405L49.9599 31.3376C49.6199 30.0757 49.1157 28.864 48.4602 27.7333L49.5514 26.2101C50.1099 25.4387 50.0894 24.3906 49.5013 23.6416C49.1419 23.2001 48.7584 22.7788 48.3525 22.3797C47.943 21.9671 47.513 21.5755 47.0639 21.2064C46.3183 20.6323 45.2834 20.6188 44.5231 21.1733L42.9999 22.2731C41.8699 21.6181 40.6589 21.1143 39.3978 20.7744L39.0959 18.9344C38.9454 17.993 38.1869 17.2668 37.2399 17.1573C36.1008 17.0357 34.9519 17.0357 33.8127 17.1573C32.873 17.2721 32.1228 17.9952 31.9738 18.9301L31.6709 20.7733C30.409 21.1134 29.1972 21.6176 28.0666 22.2731L26.5434 21.1819C25.772 20.6234 24.7239 20.6439 23.9749 21.232C23.5578 21.5733 23.1333 21.9605 22.7237 22.3712C22.3084 22.7774 21.9167 23.2069 21.5503 23.6576C20.9699 24.4042 20.9525 25.4445 21.5077 26.2101L22.6063 27.7333C21.9514 28.8633 21.4475 30.0744 21.1077 31.3355L19.2677 31.6373C18.3263 31.7878 17.6001 32.5463 17.4906 33.4933C17.3683 34.6335 17.3683 35.7835 17.4906 36.9237C17.6065 37.8619 18.3289 38.6103 19.2623 38.7595L21.1055 39.0624C21.4459 40.3243 21.9505 41.5361 22.6063 42.6667L21.5237 44.1781C20.959 44.9508 20.9759 46.0044 21.5653 46.7584C21.9066 47.1755 22.2938 47.6 22.7141 48.0203C23.0799 48.3861 23.4778 48.7488 24.0026 49.1936C24.7482 49.7677 25.7831 49.7812 26.5434 49.2267L28.0666 48.1269C29.1966 48.7819 30.4076 49.2857 31.6687 49.6256L31.9706 51.4656C32.1211 52.407 32.8796 53.1332 33.8266 53.2427C34.9658 53.3643 36.1146 53.3643 37.2538 53.2427C38.1935 53.1279 38.9437 52.4048 39.0927 51.4699L39.3957 49.6267C40.6575 49.2866 41.8693 48.7824 42.9999 48.1269L44.5231 49.2181C44.7808 49.395 45.0744 49.5127 45.3829 49.5627L48.8293 53.0133C48.8863 53.916 49.2326 54.7763 49.817 55.4667H6.73325C4.37684 55.4667 2.46659 53.5564 2.46659 51.2C2.46659 50.6109 1.98902 50.1333 1.39992 50.1333C0.810815 50.1333 0.333252 50.6109 0.333252 51.2C0.33678 54.7332 3.20009 57.5965 6.73325 57.6ZM2.46659 12.8V6.4C2.46659 4.04359 4.37684 2.13333 6.73325 2.13333H51.5333C53.8897 2.13333 55.7999 4.04359 55.7999 6.4V12.8H2.46659ZM56.1071 52.7563L56.1199 52.7701L61.5749 58.2251C62.4077 59.0581 62.4077 60.4085 61.5749 61.2416C60.7309 62.0478 59.4022 62.0478 58.5583 61.2416L53.1034 55.7867L53.0906 55.7739L51.5599 54.2443C51.0209 53.7052 50.8104 52.9196 51.0077 52.1832C51.205 51.4469 51.7801 50.8717 52.5165 50.6744C53.2528 50.4771 54.0385 50.6876 54.5775 51.2267L56.1071 52.7563ZM50.0517 49.7184C49.8039 49.9754 49.589 50.262 49.4117 50.5717L47.5759 48.7467C47.8543 48.4981 48.1146 48.2581 48.3503 48.0235C48.6085 47.7653 48.8314 47.4997 49.065 47.2363L50.9157 49.0869C50.6006 49.2577 50.31 49.4701 50.0517 49.7184ZM43.6634 45.9851C43.3088 45.7301 42.8347 45.717 42.4666 45.952C41.172 46.7893 39.7372 47.3866 38.2309 47.7152C37.8043 47.809 37.478 48.1535 37.4074 48.5845L37.0266 51.12C36.0473 51.2245 35.0597 51.2245 34.0805 51.12L33.6634 48.5813C33.5928 48.1503 33.2665 47.8058 32.8399 47.712C31.3323 47.3848 29.896 46.7887 28.5999 45.952C28.2322 45.714 27.7563 45.725 27.3999 45.9797L25.337 47.5264C24.9551 47.2064 24.5829 46.8725 24.2191 46.5088C23.8746 46.1682 23.5495 45.8085 23.2453 45.4315L24.7503 43.3301C25.0046 42.9751 25.0169 42.501 24.7813 42.1333C23.944 40.8387 23.3467 39.4039 23.0181 37.8976C22.9242 37.471 22.5798 37.1447 22.1487 37.0741L19.6133 36.6933C19.5609 36.1973 19.5342 35.6988 19.5333 35.2C19.5338 34.7144 19.5594 34.2291 19.6101 33.7461L22.1487 33.3291C22.5798 33.2585 22.9242 32.9322 23.0181 32.5056C23.3463 30.9982 23.9436 29.5622 24.7813 28.2667C25.0193 27.8989 25.0083 27.423 24.7535 27.0667L23.2175 24.992C23.5333 24.6074 23.8701 24.2406 24.2266 23.8933C24.5672 23.5488 24.9269 23.2237 25.3039 22.9195L27.4053 24.4245C27.7616 24.6793 28.2375 24.6903 28.6053 24.4523C29.8998 23.615 31.3347 23.0177 32.841 22.6891C33.2676 22.5952 33.5938 22.2508 33.6645 21.8197L34.0431 19.2843C35.0224 19.1797 36.01 19.1797 36.9893 19.2843L37.4063 21.8229C37.4769 22.254 37.8032 22.5984 38.2298 22.6923C39.736 23.0185 41.1711 23.6132 42.4666 24.448C42.8343 24.686 43.3102 24.675 43.6666 24.4203L45.7413 22.8843C46.1299 23.2046 46.5023 23.5442 46.857 23.9019C47.199 24.237 47.5196 24.5933 47.817 24.9685L46.3119 27.0699C46.0589 27.4257 46.0484 27.8999 46.2853 28.2667C47.1226 29.5613 47.7198 30.9961 48.0485 32.5024C48.1423 32.929 48.4867 33.2553 48.9178 33.3259L51.4533 33.7045C51.5057 34.2013 51.5324 34.7005 51.5333 35.2C51.5327 35.6856 51.5071 36.1709 51.4565 36.6539L48.9178 37.0709C48.4867 37.1415 48.1423 37.4678 48.0485 37.8944C47.7202 39.4018 47.1229 40.8378 46.2853 42.1333C46.0472 42.5011 46.0582 42.977 46.313 43.3333L47.849 45.408C47.5546 45.7685 47.2154 46.1397 46.8421 46.5141C46.4687 46.8885 46.1082 47.2075 45.7647 47.488L43.6634 45.9851Z" fill="#428DFF"/>
<path d="M7.79985 4.26758C6.03254 4.26758 4.59985 5.70027 4.59985 7.46758C4.59985 9.23489 6.03254 10.6676 7.79985 10.6676C9.56716 10.6676 10.9999 9.23489 10.9999 7.46758C10.9999 5.70027 9.56716 4.26758 7.79985 4.26758ZM7.79985 8.53425C7.21075 8.53425 6.73319 8.05668 6.73319 7.46758C6.73319 6.87847 7.21075 6.40091 7.79985 6.40091C8.38896 6.40091 8.86652 6.87847 8.86652 7.46758C8.86652 8.05668 8.38896 8.53425 7.79985 8.53425Z" fill="#428DFF"/>
<path d="M16.3333 4.26758C14.566 4.26758 13.1333 5.70027 13.1333 7.46758C13.1333 9.23489 14.566 10.6676 16.3333 10.6676C18.1006 10.6676 19.5333 9.23489 19.5333 7.46758C19.5333 5.70027 18.1006 4.26758 16.3333 4.26758ZM16.3333 8.53425C15.7442 8.53425 15.2666 8.05668 15.2666 7.46758C15.2666 6.87847 15.7442 6.40091 16.3333 6.40091C16.9224 6.40091 17.4 6.87847 17.4 7.46758C17.4 8.05668 16.9224 8.53425 16.3333 8.53425Z" fill="#428DFF"/>
<path d="M24.8665 4.26758C23.0992 4.26758 21.6665 5.70027 21.6665 7.46758C21.6665 9.23489 23.0992 10.6676 24.8665 10.6676C26.6338 10.6676 28.0665 9.23489 28.0665 7.46758C28.0665 5.70027 26.6338 4.26758 24.8665 4.26758ZM24.8665 8.53425C24.2774 8.53425 23.7998 8.05668 23.7998 7.46758C23.7998 6.87847 24.2774 6.40091 24.8665 6.40091C25.4556 6.40091 25.9332 6.87847 25.9332 7.46758C25.9332 8.05668 25.4556 8.53425 24.8665 8.53425Z" fill="#428DFF"/>
<path d="M50.4665 4.26758H41.9332C40.1658 4.26758 38.7332 5.70027 38.7332 7.46758C38.7332 9.23489 40.1658 10.6676 41.9332 10.6676H50.4665C52.2338 10.6676 53.6665 9.23489 53.6665 7.46758C53.6665 5.70027 52.2338 4.26758 50.4665 4.26758ZM50.4665 8.53425H41.9332C41.3441 8.53425 40.8665 8.05668 40.8665 7.46758C40.8665 6.87847 41.3441 6.40091 41.9332 6.40091H50.4665C51.0556 6.40091 51.5332 6.87847 51.5332 7.46758C51.5332 8.05668 51.0556 8.53425 50.4665 8.53425Z" fill="#428DFF"/>
<path d="M13.1333 52.2664V18.1331C13.1333 17.544 12.6558 17.0664 12.0667 17.0664C11.4776 17.0664 11 17.544 11 18.1331V52.2664C11 52.8555 11.4776 53.3331 12.0667 53.3331C12.6558 53.3331 13.1333 52.8555 13.1333 52.2664Z" fill="#428DFF"/>
<path d="M5.66652 20.2661H7.79985C8.38896 20.2661 8.86652 19.7886 8.86652 19.1995C8.86652 18.6104 8.38896 18.1328 7.79985 18.1328H5.66652C5.07742 18.1328 4.59985 18.6104 4.59985 19.1995C4.59985 19.7886 5.07742 20.2661 5.66652 20.2661Z" fill="#428DFF"/>
<path d="M16.3333 20.2661H21.6666C22.2557 20.2661 22.7333 19.7886 22.7333 19.1995C22.7333 18.6104 22.2557 18.1328 21.6666 18.1328H16.3333C15.7442 18.1328 15.2666 18.6104 15.2666 19.1995C15.2666 19.7886 15.7442 20.2661 16.3333 20.2661Z" fill="#428DFF"/>
<path d="M5.66652 25.6001H7.79985C8.38896 25.6001 8.86652 25.1226 8.86652 24.5335C8.86652 23.9444 8.38896 23.4668 7.79985 23.4668H5.66652C5.07742 23.4668 4.59985 23.9444 4.59985 24.5335C4.59985 25.1226 5.07742 25.6001 5.66652 25.6001Z" fill="#428DFF"/>
<path d="M16.3333 25.6001H17.3999C17.989 25.6001 18.4666 25.1226 18.4666 24.5335C18.4666 23.9444 17.989 23.4668 17.3999 23.4668H16.3333C15.7442 23.4668 15.2666 23.9444 15.2666 24.5335C15.2666 25.1226 15.7442 25.6001 16.3333 25.6001Z" fill="#428DFF"/>
<path d="M5.66652 30.9341H7.79985C8.38896 30.9341 8.86652 30.4566 8.86652 29.8674C8.86652 29.2783 8.38896 28.8008 7.79985 28.8008H5.66652C5.07742 28.8008 4.59985 29.2783 4.59985 29.8674C4.59985 30.4566 5.07742 30.9341 5.66652 30.9341Z" fill="#428DFF"/>
<path d="M16.3333 30.9341H17.3999C17.989 30.9341 18.4666 30.4566 18.4666 29.8674C18.4666 29.2783 17.989 28.8008 17.3999 28.8008H16.3333C15.7442 28.8008 15.2666 29.2783 15.2666 29.8674C15.2666 30.4566 15.7442 30.9341 16.3333 30.9341Z" fill="#428DFF"/>
<path d="M5.66652 36.2661H7.79985C8.38896 36.2661 8.86652 35.7886 8.86652 35.1995C8.86652 34.6104 8.38896 34.1328 7.79985 34.1328H5.66652C5.07742 34.1328 4.59985 34.6104 4.59985 35.1995C4.59985 35.7886 5.07742 36.2661 5.66652 36.2661Z" fill="#428DFF"/>
<path d="M5.66652 41.6001H7.79985C8.38896 41.6001 8.86652 41.1226 8.86652 40.5335C8.86652 39.9444 8.38896 39.4668 7.79985 39.4668H5.66652C5.07742 39.4668 4.59985 39.9444 4.59985 40.5335C4.59985 41.1226 5.07742 41.6001 5.66652 41.6001Z" fill="#428DFF"/>
<path d="M16.3333 41.6001H17.3999C17.989 41.6001 18.4666 41.1226 18.4666 40.5335C18.4666 39.9444 17.989 39.4668 17.3999 39.4668H16.3333C15.7442 39.4668 15.2666 39.9444 15.2666 40.5335C15.2666 41.1226 15.7442 41.6001 16.3333 41.6001Z" fill="#428DFF"/>
<path d="M5.66652 46.9341H7.79985C8.38896 46.9341 8.86652 46.4566 8.86652 45.8674C8.86652 45.2783 8.38896 44.8008 7.79985 44.8008H5.66652C5.07742 44.8008 4.59985 45.2783 4.59985 45.8674C4.59985 46.4566 5.07742 46.9341 5.66652 46.9341Z" fill="#428DFF"/>
<path d="M16.3333 46.9341H18.4666C19.0557 46.9341 19.5333 46.4566 19.5333 45.8674C19.5333 45.2783 19.0557 44.8008 18.4666 44.8008H16.3333C15.7442 44.8008 15.2666 45.2783 15.2666 45.8674C15.2666 46.4566 15.7442 46.9341 16.3333 46.9341Z" fill="#428DFF"/>
<path d="M5.66652 52.2661H7.79985C8.38896 52.2661 8.86652 51.7886 8.86652 51.1995C8.86652 50.6104 8.38896 50.1328 7.79985 50.1328H5.66652C5.07742 50.1328 4.59985 50.6104 4.59985 51.1995C4.59985 51.7886 5.07742 52.2661 5.66652 52.2661Z" fill="#428DFF"/>
<path d="M16.3333 52.2661H20.5999C21.189 52.2661 21.6666 51.7886 21.6666 51.1995C21.6666 50.6104 21.189 50.1328 20.5999 50.1328H16.3333C15.7442 50.1328 15.2666 50.6104 15.2666 51.1995C15.2666 51.7886 15.7442 52.2661 16.3333 52.2661Z" fill="#428DFF"/>
<path d="M35.5334 24.5332C29.6423 24.5332 24.8667 29.3088 24.8667 35.1999C24.8667 41.0909 29.6423 45.8665 35.5334 45.8665C41.4244 45.8665 46.2 41.0909 46.2 35.1999C46.1936 29.3115 41.4217 24.5397 35.5334 24.5332ZM35.5334 43.7332C30.8205 43.7332 27 39.9127 27 35.1999C27 30.487 30.8205 26.6665 35.5334 26.6665C40.2462 26.6665 44.0667 30.487 44.0667 35.1999C44.0614 39.9105 40.244 43.7279 35.5334 43.7332Z" fill="#428DFF"/>
<path d="M34.1541 32.3123C33.7376 31.8959 33.0624 31.8959 32.6458 32.3123L30.5125 34.4456C30.0961 34.8622 30.0961 35.5374 30.5125 35.9539L32.6458 38.0872C33.0644 38.4915 33.7297 38.4857 34.1411 38.0742C34.5526 37.6628 34.5583 36.9975 34.1541 36.579L32.7749 35.1998L34.1541 33.8206C34.5705 33.404 34.5705 32.7288 34.1541 32.3123Z" fill="#428DFF"/>
<path d="M38.4206 32.3131C38.0021 31.9089 37.3368 31.9146 36.9253 32.3261C36.5139 32.7375 36.5081 33.4028 36.9123 33.8214L38.2915 35.2006L36.9123 36.5798C36.6351 36.8476 36.5238 37.2442 36.6215 37.6171C36.7191 37.99 37.0103 38.2813 37.3833 38.3789C37.7562 38.4765 38.1528 38.3653 38.4206 38.088L40.5539 35.9547C40.9703 35.5382 40.9703 34.863 40.5539 34.4464L38.4206 32.3131Z" fill="#428DFF"/>
</g>
<defs>
<clipPath id="clip0_21015_62761">
<rect width="64" height="64" fill="white" transform="translate(0.333252)"/>
</clipPath>
</defs>
</svg>
