<svg width="16" height="16" viewBox="0 0 16 16" fill="none" xmlns="http://www.w3.org/2000/svg">
<rect width="16" height="16" rx="8" fill="#039855"/>
<g clip-path="url(#clip0_576_1550)">
<path d="M12.1673 7.61677V8.00011C12.1668 8.89862 11.8759 9.77289 11.3379 10.4925C10.7999 11.2122 10.0437 11.7386 9.18205 11.9934C8.32041 12.2482 7.39951 12.2176 6.55668 11.9062C5.71385 11.5948 4.99426 11.0193 4.50522 10.2656C4.01618 9.51179 3.7839 8.62013 3.84302 7.72357C3.90214 6.82701 4.24949 5.97358 4.83327 5.29055C5.41705 4.60753 6.20598 4.13152 7.0824 3.9335C7.95882 3.73549 8.87576 3.82608 9.69649 4.19177M12.1673 4.66677L8.00065 8.83761L6.75065 7.58761" stroke="white" stroke-linecap="round" stroke-linejoin="round"/>
</g>
<defs>
<clipPath id="clip0_576_1550">
<rect width="10" height="10" fill="white" transform="translate(3 3)"/>
</clipPath>
</defs>
</svg>
