<svg width="65" height="64" viewBox="0 0 65 64" fill="none" xmlns="http://www.w3.org/2000/svg">
<g clip-path="url(#clip0_19187_88411)">
<path d="M62.6933 16.2991L50.7999 21.3018V19.2005C50.7999 19.2005 50.7999 14.9338 32.6666 14.9338C14.5333 14.9338 14.5333 19.2005 14.5333 19.2005V21.3018L2.63995 16.2991C2.0916 16.067 1.73535 15.5293 1.73535 14.9338C1.73535 14.3383 2.0916 13.8006 2.63995 13.5685L32.0906 1.18448C32.4579 1.02445 32.8753 1.02445 33.2426 1.18448L62.6933 13.5685C63.2416 13.8006 63.5979 14.3383 63.5979 14.9338C63.5979 15.5293 63.2416 16.067 62.6933 16.2991Z" fill="#7DA9F5"/>
<path d="M50.7999 19.2003V29.8669C50.7964 31.0437 49.8433 31.9967 48.6665 32.0003H16.6665C15.4898 31.9967 14.5367 31.0437 14.5332 29.8669V19.2003C14.5332 19.2003 14.5332 14.9336 32.6665 14.9336C50.7999 14.9336 50.7999 19.2003 50.7999 19.2003Z" fill="#A2C0F3"/>
<path d="M32.6669 14.9336C32.1165 14.9336 31.5842 14.9336 31.0669 14.9453C47.6002 15.1896 47.6002 19.2003 47.6002 19.2003V29.8669C47.5967 31.0437 46.6436 31.9967 45.4669 32.0003H48.6669C49.8436 31.9967 50.7967 31.0437 50.8002 29.8669V19.2003C50.8002 19.2003 50.8002 14.9336 32.6669 14.9336Z" fill="#7DA9F5"/>
<path d="M4.93363 29.8682C6.11183 29.8682 7.06696 28.9131 7.06696 27.7349C7.06696 26.5567 6.11183 25.6016 4.93363 25.6016C3.75542 25.6016 2.80029 26.5567 2.80029 27.7349C2.80029 28.9131 3.75542 29.8682 4.93363 29.8682Z" fill="#E7ECFA"/>
<path d="M49.7867 37.334C42.3521 37.334 35.6854 43.542 32.6667 46.8486C29.6481 43.542 22.9814 37.334 15.5467 37.334C7.93073 37.334 1.7334 43.0727 1.7334 50.134C1.7334 57.1953 7.93073 62.934 15.5467 62.934C22.9814 62.934 29.6481 56.726 32.6667 53.4193C35.6854 56.726 42.3521 62.934 49.7867 62.934C57.4027 62.934 63.6001 57.1953 63.6001 50.134C63.6001 43.0727 57.4027 37.334 49.7867 37.334ZM15.5467 58.6673C10.2774 58.6673 6.00007 54.838 6.00007 50.134C6.00007 45.43 10.2774 41.6007 15.5467 41.6007C21.5947 41.6007 27.5041 47.4673 29.8827 50.134C27.5041 52.8007 21.5947 58.6673 15.5467 58.6673ZM49.7867 58.6673C43.7387 58.6673 37.8294 52.8007 35.4507 50.134C37.8294 47.4673 43.7387 41.6007 49.7867 41.6007C55.0561 41.6007 59.3334 45.43 59.3334 50.134C59.3334 54.838 55.0561 58.6673 49.7867 58.6673Z" fill="#E7ECFA"/>
<path d="M49.7867 37.334C49.2629 37.3367 48.7397 37.3694 48.2197 37.4321C55.0667 38.1873 60.4 43.5857 60.4 50.134C60.4 56.6823 55.0667 62.0807 48.2197 62.8359C48.7397 62.8986 49.2629 62.9313 49.7867 62.934C57.4027 62.934 63.6 57.1953 63.6 50.134C63.6 43.0727 57.4027 37.334 49.7867 37.334Z" fill="#C8D7F9"/>
<path d="M32.6666 46.8438C31.6938 47.8784 30.9269 48.9003 29.8794 50.1333L32.6666 46.8438Z" fill="#E7ECFA"/>
<path d="M35.4537 50.1348C34.4809 51.1694 33.715 52.1913 32.6665 53.4244L35.4537 50.1348Z" fill="#E7ECFA"/>
<path d="M15.5467 62.934C16.0705 62.9313 16.5937 62.8986 17.1137 62.8359C10.2667 62.0807 4.9334 56.6823 4.9334 50.134C4.9334 43.5857 10.2667 38.1873 17.1137 37.4321C16.5937 37.3694 16.0705 37.3367 15.5467 37.334C7.93073 37.334 1.7334 43.0727 1.7334 50.134C1.7334 57.1953 7.93073 62.934 15.5467 62.934Z" fill="white"/>
<path d="M4.93361 25.6016C3.94772 25.5961 3.08645 26.2668 2.85036 27.224C2.61428 28.1813 3.06487 29.1756 3.94027 29.6291C4.81567 30.0826 5.88782 29.8772 6.53361 29.1323C5.82245 28.3364 5.82245 27.1334 6.53361 26.3376C6.13245 25.8716 5.54851 25.603 4.93361 25.6016Z" fill="white"/>
<path d="M5.83995 17.0674C4.63461 16.5554 4.63461 13.3128 5.83995 12.8008L2.63995 13.5688C2.0916 13.8009 1.73535 14.3386 1.73535 14.9341C1.73535 15.5296 2.0916 16.0673 2.63995 16.2994L5.83995 17.0674Z" fill="white"/>
<path d="M2.229 12.5879L10.0967 9.27696L10.9245 11.2439L3.05674 14.5548L2.229 12.5879Z" fill="white"/>
<path d="M6.59203 12.9829C6.00293 12.9859 5.52298 12.5107 5.52003 11.9216C5.51709 11.3325 5.99226 10.8526 6.58137 10.8496H6.59203C7.18114 10.8496 7.6587 11.3272 7.6587 11.9163C7.6587 12.5054 7.18114 12.9829 6.59203 12.9829Z" fill="#3F89F9"/>
<path d="M63.1094 12.5875L33.6619 0.205599C33.0281 -0.065929 32.3107 -0.065929 31.6769 0.205599H31.6705L10.0907 9.2808C9.56373 9.51879 9.32232 10.1334 9.54647 10.6664C9.77063 11.1995 10.3787 11.4568 10.9174 11.2467L32.5046 2.1704H32.5099C32.6115 2.12369 32.7284 2.12369 32.8299 2.1704L62.2785 14.5512C62.4315 14.6167 62.5307 14.7672 62.5307 14.9336C62.5307 15.1 62.4315 15.2505 62.2785 15.316L51.8667 19.6968V19.2008C51.8667 17.9496 50.4801 13.8675 32.6667 13.8675C14.8534 13.8675 13.4667 17.9496 13.4667 19.2008V19.6968L5.37394 16.2931L5.31954 16.2707L3.05394 15.3171C2.89942 15.2526 2.79879 15.1016 2.79879 14.9341C2.79879 14.7667 2.89942 14.6157 3.05394 14.5512C3.41151 14.4066 3.66318 14.0803 3.71214 13.6977C3.76111 13.3152 3.59974 12.936 3.29012 12.706C2.98049 12.476 2.57084 12.4311 2.21874 12.5885C1.27706 12.9883 0.665527 13.9122 0.665527 14.9352C0.665527 15.9582 1.27706 16.8821 2.21874 17.2819L3.86674 17.9741V24.7304C2.39736 25.2499 1.51594 26.7524 1.77949 28.2885C2.04304 29.8246 3.37489 30.9474 4.93341 30.9474C6.49192 30.9474 7.82377 29.8246 8.08732 28.2885C8.35087 26.7524 7.46946 25.2499 6.00007 24.7304V18.8712L13.4667 22.0115V29.8675C13.4667 31.6348 14.8994 33.0675 16.6667 33.0675H48.6667C50.4341 33.0675 51.8667 31.6348 51.8667 29.8675V22.0115L63.1126 17.2808C64.0543 16.8811 64.6658 15.9571 64.6658 14.9341C64.6658 13.9111 64.0543 12.9872 63.1126 12.5875H63.1094ZM4.93341 28.8008C4.3443 28.8008 3.86674 28.3232 3.86674 27.7341C3.86674 27.145 4.3443 26.6675 4.93341 26.6675C5.52251 26.6675 6.00007 27.145 6.00007 27.7341C6.00007 28.3232 5.52251 28.8008 4.93341 28.8008ZM49.7334 29.8675C49.7334 30.4566 49.2558 30.9341 48.6667 30.9341H16.6667C16.0776 30.9341 15.6001 30.4566 15.6001 29.8675V19.3011C15.7419 18.9811 17.4763 16.0008 32.6667 16.0008C47.8571 16.0008 49.5915 18.9779 49.7334 19.3011V29.8675Z" fill="#3F89F9"/>
<path d="M49.7918 36.2676C42.6089 36.2676 36.2388 41.5785 32.6665 45.2862C29.0942 41.5785 22.723 36.2676 15.5412 36.2676C7.33957 36.2676 0.666504 42.4884 0.666504 50.1342C0.666504 57.7801 7.33957 64.0009 15.5412 64.0009C22.7241 64.0009 29.0942 58.69 32.6665 54.9822C36.2388 58.69 42.61 64.0009 49.7918 64.0009C57.9934 64.0009 64.6665 57.7801 64.6665 50.1342C64.6665 42.4884 57.9934 36.2676 49.7918 36.2676ZM49.7918 61.8676C43.3044 61.8676 37.3822 56.8318 34.0873 53.3812C34.2334 53.2052 34.3934 53.0153 34.5321 52.8478C34.8521 52.4628 35.1561 52.0916 35.4686 51.7257C38.2612 54.6761 43.9028 59.7342 49.7918 59.7342C55.6404 59.7342 60.3998 55.4281 60.3998 50.1342C60.3998 44.8404 55.6404 40.5342 49.7918 40.5342C43.2852 40.5342 37.0718 46.7145 34.6793 49.4014C34.0297 50.0926 33.4729 50.7732 32.883 51.4932C32.563 51.8793 32.2377 52.2825 31.874 52.7113C28.7412 56.1342 22.4638 61.8676 15.5412 61.8676C8.51504 61.8676 2.79984 56.6036 2.79984 50.1342C2.79984 43.6649 8.51504 38.4009 15.5412 38.4009C22.0137 38.4009 27.923 43.4142 31.2212 46.8628C30.8393 47.3033 30.4681 47.7449 30.0926 48.2046C30.0126 48.3038 29.9177 48.418 29.8356 48.515C27.0334 45.5582 21.41 40.5342 15.5412 40.5342C9.69264 40.5342 4.93317 44.8404 4.93317 50.1342C4.93317 55.4281 9.69264 59.7342 15.5412 59.7342C22.066 59.7342 28.2985 53.5166 30.6761 50.8425L30.6825 50.8318L30.691 50.8244C31.0718 50.3785 31.4153 49.9582 31.7449 49.5561C32.3102 48.866 32.8446 48.2121 33.4441 47.5764V47.5678C36.5822 44.1428 42.8649 38.4009 49.7918 38.4009C56.818 38.4009 62.5332 43.6649 62.5332 50.1342C62.5332 56.6036 56.818 61.8676 49.7918 61.8676ZM36.898 50.1342C39.427 47.4345 44.6238 42.6676 49.7918 42.6676C54.4649 42.6676 58.2665 46.018 58.2665 50.1342C58.2665 54.2505 54.4649 57.6009 49.7918 57.6009C44.6238 57.6009 39.427 52.834 36.898 50.1342ZM28.435 50.1342C25.906 52.834 20.7092 57.6009 15.5412 57.6009C10.8681 57.6009 7.0665 54.2505 7.0665 50.1342C7.0665 46.018 10.8681 42.6676 15.5412 42.6676C20.7092 42.6676 25.906 47.4345 28.435 50.1342Z" fill="#3F89F9"/>
</g>
<defs>
<clipPath id="clip0_19187_88411">
<rect width="64" height="64" fill="white" transform="translate(0.666504)"/>
</clipPath>
</defs>
</svg>
