<svg width="65" height="64" viewBox="0 0 65 64" fill="none" xmlns="http://www.w3.org/2000/svg">
<g id="chat 1" clip-path="url(#clip0_21015_63246)">
<g id="Page-1">
<g id="061---tip-alert">
<g id="color_copy">
<path id="Shape" d="M58.9998 17.0655V45.8655C58.9998 48.2219 57.0896 50.1322 54.7332 50.1322H44.0665C43.3955 50.1343 42.7642 50.45 42.3598 50.9855L33.9758 62.1642C33.5691 62.6509 32.9675 62.9321 32.3332 62.9321C31.6989 62.9321 31.0973 62.6509 30.6905 62.1642L22.3065 50.9855C21.9022 50.45 21.2708 50.1343 20.5998 50.1322H9.93317C7.57676 50.1322 5.6665 48.2219 5.6665 45.8655V17.0655C5.6665 14.7091 7.57676 12.7988 9.93317 12.7988H17.7412C16.6416 17.9096 18.2824 23.2242 22.0718 26.8255C24.588 29.2906 25.9836 32.6794 25.9332 36.2015V42.6655C25.9332 44.4328 27.3659 45.8655 29.1332 45.8655H35.5332C37.3005 45.8655 38.7332 44.4328 38.7332 42.6655V36.0202C38.6812 32.5823 40.056 29.2766 42.5305 26.8895C45.5541 24.0752 47.27 20.1295 47.2665 15.9988C47.2672 14.923 47.1527 13.8503 46.9252 12.7988H54.7332C57.0896 12.7988 58.9998 14.7091 58.9998 17.0655Z" fill="#CAD9FC"/>
<g id="Group">
<path id="Shape_2" d="M18.8718 26.8255C21.388 29.2906 22.7836 32.6794 22.7332 36.2015V42.6655C22.7332 44.4328 24.1659 45.8655 25.9332 45.8655H29.1332C27.3659 45.8655 25.9332 44.4328 25.9332 42.6655V36.2015C25.9836 32.6794 24.588 29.2906 22.0718 26.8255C18.2824 23.2242 16.6416 17.9096 17.7412 12.7988H14.5412C13.4416 17.9096 15.0824 23.2242 18.8718 26.8255Z" fill="#A4C2F7"/>
<path id="Shape_3" d="M54.7332 12.7988H51.5332C53.8896 12.7988 55.7999 14.7091 55.7999 17.0655V45.8655C55.7999 48.2219 53.8896 50.1322 51.5332 50.1322H54.7332C57.0896 50.1322 58.9999 48.2219 58.9999 45.8655V17.0655C58.9999 14.7091 57.0896 12.7988 54.7332 12.7988Z" fill="#A4C2F7"/>
<path id="Shape_4" d="M39.1598 50.9861L30.7758 62.1648C30.763 62.1808 30.746 62.1904 30.7332 62.2053C31.1444 62.6743 31.7402 62.9398 32.3638 62.932C32.9875 62.9242 33.5765 62.6439 33.9758 62.1648L42.3598 50.9861C42.7641 50.4507 43.3955 50.135 44.0665 50.1328H40.8665C40.1955 50.135 39.5641 50.4507 39.1598 50.9861Z" fill="#A4C2F7"/>
</g>
<path id="Shape_5" d="M47.2665 15.9988C47.27 20.1295 45.5541 24.0753 42.5305 26.8895C40.0559 29.2766 38.6811 32.5823 38.7331 36.0202V38.3988H25.9331V36.2015C25.9835 32.6794 24.5879 29.2906 22.0718 26.8255C18.2824 23.2242 16.6415 17.9096 17.7411 12.7988C19.364 5.33892 26.3523 0.304326 33.9422 1.12694C41.5322 1.94955 47.2795 8.36444 47.2665 15.9988Z" fill="url(#paint0_linear_21015_63246)"/>
<path id="Shape_6" d="M46.9253 12.7982C45.3586 5.68131 38.8866 0.732642 31.608 1.08615C31.3082 1.10002 31.0128 1.13415 30.7173 1.16509C36.525 1.77492 41.4417 5.71975 43.2959 11.2572C45.15 16.7946 43.6001 22.9048 39.3306 26.8888C36.8561 29.2759 35.4813 32.5816 35.5333 36.0195V38.3982H38.7333V36.0195C38.6813 32.5816 40.0561 29.2759 42.5306 26.8888C45.5542 24.0746 47.2701 20.1288 47.2666 15.9982C47.2673 14.9224 47.1529 13.8496 46.9253 12.7982Z" fill="#CAD9FC"/>
<path id="Shape_7" d="M38.7331 38.3984V42.6651C38.7331 44.4324 37.3004 45.8651 35.5331 45.8651H29.1331C27.3658 45.8651 25.9331 44.4324 25.9331 42.6651V38.3984H38.7331Z" fill="white"/>
<path id="Shape_8" d="M35.5333 38.3984V42.6651C35.5333 44.4324 34.1006 45.8651 32.3333 45.8651H35.5333C37.3006 45.8651 38.7333 44.4324 38.7333 42.6651V38.3984H35.5333Z" fill="#E8EDFC"/>
<path id="Shape_9" d="M22.7333 13.866C22.6645 13.8661 22.5959 13.8593 22.5285 13.8458C21.9513 13.7329 21.5743 13.1742 21.6858 12.5967C22.6725 7.5183 27.4565 5.4959 27.6591 5.4127C28.0114 5.26732 28.4146 5.32094 28.7166 5.55336C29.0187 5.78578 29.1738 6.16169 29.1236 6.53949C29.0733 6.91729 28.8253 7.23959 28.473 7.38497C28.4325 7.40097 24.5423 9.0735 23.7797 13.002C23.6826 13.5034 23.2439 13.8656 22.7333 13.866Z" fill="#7FACFA"/>
</g>
<g id="color">
<path id="Shape_10" d="M13.1332 12.7988H9.93317C7.57676 12.7988 5.6665 14.7091 5.6665 17.0655V45.8655C5.6665 48.2219 7.57676 50.1322 9.93317 50.1322H13.1332C10.7768 50.1322 8.8665 48.2219 8.8665 45.8655V17.0655C8.8665 14.7091 10.7768 12.7988 13.1332 12.7988Z" fill="white"/>
</g>
<g id="Icons">
<path id="Rectangle-path" d="M4.59985 37.332H6.73319V45.8654H4.59985V37.332Z" fill="white"/>
<g id="Group_2">
<path id="Shape_11" d="M5.68774 42.6665C5.09863 42.6695 4.61868 42.1943 4.61574 41.6052C4.61279 41.0161 5.08797 40.5361 5.67707 40.5332H5.68774C6.27684 40.5332 6.7544 41.0108 6.7544 41.5999C6.7544 42.189 6.27684 42.6665 5.68774 42.6665Z" fill="#428DFF"/>
<path id="Shape_12" d="M9.93319 51.1991H20.5999C20.935 51.2018 21.25 51.3593 21.4532 51.6258L29.8713 62.8471C30.4865 63.5846 31.4 64.0075 32.3604 63.9992C33.3207 63.9909 34.2268 63.5525 34.8292 62.8045L43.2132 51.6258C43.4167 51.3597 43.7315 51.2022 44.0665 51.1991H54.7332C57.6772 51.1956 60.063 48.8099 60.0665 45.8658V17.0658C60.063 14.1217 57.6772 11.736 54.7332 11.7325H47.7444C45.7581 4.52051 39.0336 -0.347671 31.562 0.0172573C24.6661 0.363552 18.7647 5.08185 16.9092 11.7325H9.93319C6.98913 11.736 4.60338 14.1217 4.59985 17.0658V37.3325C4.59985 37.9216 5.07742 38.3991 5.66652 38.3991C6.25562 38.3991 6.73319 37.9216 6.73319 37.3325V17.0658C6.73319 15.2985 8.16588 13.8658 9.93319 13.8658H16.49C16.4601 14.0887 16.4185 14.3085 16.3993 14.5346C15.9446 19.4178 17.7653 24.2381 21.3348 27.6013C23.6377 29.8643 24.9139 32.9713 24.8665 36.1997V42.6658C24.8738 44.6054 26.1885 46.2961 28.0665 46.781V47.9991C28.0665 48.5882 28.5441 49.0658 29.1332 49.0658C29.7223 49.0658 30.1999 48.5882 30.1999 47.9991V46.9325H34.4665V47.9991C34.4665 48.5882 34.9441 49.0658 35.5332 49.0658C36.1223 49.0658 36.5999 48.5882 36.5999 47.9991V46.781C38.4779 46.2961 39.7926 44.6054 39.7999 42.6658V36.0205C39.7534 32.8774 41.0066 29.8545 43.2633 27.6663C46.5116 24.6581 48.3505 20.4263 48.3332 15.9991C48.3279 15.2853 48.2755 14.5727 48.1764 13.8658H54.7332C56.5005 13.8658 57.9332 15.2985 57.9332 17.0658V45.8658C57.9332 47.6331 56.5005 49.0658 54.7332 49.0658H44.0665C43.0604 49.0706 42.114 49.5438 41.5065 50.3458L33.1567 61.4829C32.7227 61.9391 32.0013 61.9582 31.5439 61.5255L23.1599 50.3458C22.5527 49.5434 21.6061 49.0701 20.5999 49.0658H9.93319C8.16588 49.0658 6.73319 47.6331 6.73319 45.8658C6.73319 45.2767 6.25562 44.7991 5.66652 44.7991C5.07742 44.7991 4.59985 45.2767 4.59985 45.8658C4.60338 48.8099 6.98913 51.1956 9.93319 51.1991ZM37.6665 42.6658C37.6665 43.844 36.7114 44.7991 35.5332 44.7991H29.1332C27.955 44.7991 26.9999 43.844 26.9999 42.6658V39.4658H37.6665V42.6658ZM41.8063 26.1079C39.1193 28.7004 37.6214 32.287 37.6665 36.0205V37.3325H26.9999V36.1997C27.0463 32.385 25.5288 28.7178 22.8004 26.0514C18.6717 22.1429 17.347 16.1102 19.4584 10.8316C21.5698 5.55288 26.6894 2.09777 32.3746 2.11469C38.0599 2.1316 43.1588 5.61709 45.2387 10.9082C47.3187 16.1994 45.9581 22.2241 41.8063 26.1079Z" fill="#428DFF"/>
<path id="Shape_13" d="M30.2 29.8652C29.6109 29.8652 29.1333 30.3428 29.1333 30.9319V34.1319C29.1333 34.721 29.6109 35.1986 30.2 35.1986C30.7891 35.1986 31.2666 34.721 31.2666 34.1319V30.9319C31.2666 30.3428 30.7891 29.8652 30.2 29.8652Z" fill="#428DFF"/>
<path id="Shape_14" d="M30.2 23.4648C29.6109 23.4648 29.1333 23.9424 29.1333 24.5315V25.5982C29.1333 26.1873 29.6109 26.6648 30.2 26.6648C30.7891 26.6648 31.2666 26.1873 31.2666 25.5982V24.5315C31.2666 23.9424 30.7891 23.4648 30.2 23.4648Z" fill="#428DFF"/>
<path id="Shape_15" d="M34.4666 29.8652C33.8775 29.8652 33.3999 30.3428 33.3999 30.9319V34.1319C33.3999 34.721 33.8775 35.1986 34.4666 35.1986C35.0557 35.1986 35.5332 34.721 35.5332 34.1319V30.9319C35.5332 30.3428 35.0557 29.8652 34.4666 29.8652Z" fill="#428DFF"/>
<path id="Shape_16" d="M34.4666 23.4648C33.8775 23.4648 33.3999 23.9424 33.3999 24.5315V25.5982C33.3999 26.1873 33.8775 26.6648 34.4666 26.6648C35.0557 26.6648 35.5332 26.1873 35.5332 25.5982V24.5315C35.5332 23.9424 35.0557 23.4648 34.4666 23.4648Z" fill="#428DFF"/>
<path id="Shape_17" d="M15.2666 7.46676C15.7197 7.46697 16.1235 7.18087 16.2736 6.7533C16.4236 6.32573 16.2871 5.85002 15.9332 5.56702L10.5999 1.30036C10.1398 0.932168 9.46835 1.00667 9.10016 1.46676C8.73197 1.92685 8.80647 2.5983 9.26656 2.96649L14.5999 7.23316C14.7891 7.38448 15.0243 7.46687 15.2666 7.46676Z" fill="#428DFF"/>
<path id="Shape_18" d="M50.0664 7.23316L55.3998 2.96649C55.8599 2.5983 55.9344 1.92685 55.5662 1.46676C55.198 1.00667 54.5265 0.932168 54.0664 1.30036L48.7331 5.56702C48.4355 5.8052 48.2875 6.18407 48.345 6.56091C48.4024 6.93775 48.6566 7.25531 49.0116 7.39398C49.3667 7.53264 49.7688 7.47134 50.0664 7.23316Z" fill="#428DFF"/>
<path id="Shape_19" d="M9.10001 37.9984C9.27677 38.2194 9.53412 38.3611 9.8154 38.3923C10.0967 38.4235 10.3788 38.3417 10.5997 38.1648L15.9331 33.8981C16.3932 33.5299 16.4677 32.8585 16.0995 32.3984C15.7313 31.9383 15.0598 31.8638 14.5997 32.232L9.26641 36.4987C9.0454 36.6754 8.90368 36.9328 8.87248 37.2141C8.84127 37.4953 8.92312 37.7775 9.10001 37.9984Z" fill="#428DFF"/>
<path id="Shape_20" d="M48.5668 32.3985C48.3899 32.6194 48.3081 32.9016 48.3393 33.1828C48.3705 33.4641 48.5122 33.7215 48.7332 33.8982L54.0665 38.1649C54.5266 38.5331 55.1981 38.4586 55.5663 37.9985C55.9345 37.5384 55.86 36.8669 55.3999 36.4988L50.0665 32.2321C49.8456 32.0552 49.5635 31.9733 49.2822 32.0046C49.0009 32.0358 48.7436 32.1775 48.5668 32.3985Z" fill="#428DFF"/>
<path id="Shape_21" d="M13.1331 17.0664H9.93312C9.34402 17.0664 8.86646 17.544 8.86646 18.1331C8.86646 18.7222 9.34402 19.1997 9.93312 19.1997H13.1331C13.7222 19.1997 14.1998 18.7222 14.1998 18.1331C14.1998 17.544 13.7222 17.0664 13.1331 17.0664Z" fill="#428DFF"/>
<path id="Shape_22" d="M54.7332 19.1997C55.3223 19.1997 55.7999 18.7222 55.7999 18.1331C55.7999 17.544 55.3223 17.0664 54.7332 17.0664H51.5332C50.9441 17.0664 50.4666 17.544 50.4666 18.1331C50.4666 18.7222 50.9441 19.1997 51.5332 19.1997H54.7332Z" fill="#428DFF"/>
</g>
</g>
</g>
</g>
</g>
<defs>
<linearGradient id="paint0_linear_21015_63246" x1="145.696" y1="381.436" x2="1700.69" y2="1527.75" gradientUnits="userSpaceOnUse">
<stop stop-color="#D3DFF2"/>
<stop offset="0.172" stop-color="#D3DFF2"/>
<stop offset="0.2" stop-color="#DAE2F2"/>
<stop offset="0.201" stop-color="#F6EFF2"/>
<stop offset="0.202" stop-color="#FDF2F2"/>
<stop offset="0.205" stop-color="#FFF3F2"/>
<stop offset="0.252" stop-color="#FFF3F2"/>
<stop offset="0.26" stop-color="#D3DFF2"/>
<stop offset="0.397" stop-color="#D3DFF2"/>
<stop offset="0.42" stop-color="#DAE2F2"/>
<stop offset="0.421" stop-color="#F6EFF2"/>
<stop offset="0.422" stop-color="#FDF2F2"/>
<stop offset="0.425" stop-color="#FFF3F2"/>
<stop offset="0.489" stop-color="#FFF3F2"/>
<stop offset="0.5" stop-color="#D5E0F2"/>
<stop offset="0.501" stop-color="#D3DFF2"/>
<stop offset="0.706" stop-color="#D3DFF2"/>
<stop offset="0.74" stop-color="#D3DFF2"/>
<stop offset="0.741" stop-color="#FFF3F2"/>
<stop offset="0.835" stop-color="#FFF3F2"/>
<stop offset="0.85" stop-color="#FFF3F2"/>
<stop offset="0.851" stop-color="#D3DFF2"/>
</linearGradient>
<clipPath id="clip0_21015_63246">
<rect width="64" height="64" fill="white" transform="translate(0.333252)"/>
</clipPath>
</defs>
</svg>
