<svg width="65" height="64" viewBox="0 0 65 64" fill="none" xmlns="http://www.w3.org/2000/svg">
<g id="plans (1) 1" clip-path="url(#clip0_21015_63474)">
<g id="Page-1">
<g id="012---Tape-Measuring-Plans">
<path id="Shape" d="M63.5998 13.3323V58.1323C63.5998 58.7214 63.1223 59.199 62.5332 59.199H9.50915C5.39379 59.262 1.96219 56.0658 1.73315 51.9563V51.7323C1.73315 47.6086 5.0761 44.2656 9.19982 44.2656C13.3235 44.2656 16.6665 47.6086 16.6665 51.7323V12.2656H62.5332C63.1223 12.2656 63.5998 12.7432 63.5998 13.3323Z" fill="#CAD9FC"/>
<path id="Shape_2" d="M16.6665 12.2655V51.7322C16.6665 47.6084 13.3235 44.2655 9.19982 44.2655C5.0761 44.2655 1.73315 47.6084 1.73315 51.7322V12.2655C1.73315 8.14177 5.0761 4.79883 9.19982 4.79883C13.3235 4.79883 16.6665 8.14177 16.6665 12.2655Z" fill="#E8EDFC"/>
<path id="Shape_3" d="M9.19985 4.79883C8.66173 4.7996 8.12528 4.85861 7.59985 4.97483C11.0262 5.72362 13.4681 8.75827 13.4665 12.2655V45.6074C15.473 47.0007 16.6687 49.2893 16.6665 51.7322L16.6665 12.2655C16.6665 8.14177 13.3236 4.79883 9.19985 4.79883Z" fill="#CAD9FC"/>
<path id="Shape_4" d="M59.3332 35.7325C59.3273 42.7993 53.6 48.5266 46.5332 48.5325H33.7332V35.7325C33.7531 28.6715 39.4722 22.9524 46.5332 22.9325C46.729 22.929 46.9248 22.9361 47.1198 22.9539C53.9507 23.2673 59.3289 28.8944 59.3332 35.7325Z" fill="#E8EDFC"/>
<path id="Shape_5" d="M21.9998 40H33.7331V48.5333H20.9331V41.0667C20.9331 40.4776 21.4107 40 21.9998 40Z" fill="#E8EDFC"/>
<path id="Rectangle-path" d="M30.5332 40H33.7332V48.5333H30.5332V40Z" fill="#CAD9FC"/>
<path id="Oval" d="M46.5331 43.199C50.6568 43.199 53.9997 39.856 53.9997 35.7323C53.9997 31.6086 50.6568 28.2656 46.5331 28.2656C42.4093 28.2656 39.0664 31.6086 39.0664 35.7323C39.0664 39.856 42.4093 43.199 46.5331 43.199Z" fill="#E8EDFC"/>
<path id="Oval_2" d="M46.5332 37.8663C47.7114 37.8663 48.6666 36.9112 48.6666 35.7329C48.6666 34.5547 47.7114 33.5996 46.5332 33.5996C45.355 33.5996 44.3999 34.5547 44.3999 35.7329C44.3999 36.9112 45.355 37.8663 46.5332 37.8663Z" fill="#CAD9FC"/>
<path id="Shape_6" d="M47.1199 21.8767V22.9541C46.9249 22.9363 46.729 22.9292 46.5332 22.9327C43.1044 22.9273 39.819 24.3084 37.4239 26.7621L36.8159 26.1541C36.1324 25.483 35.7874 24.54 35.8763 23.5864C35.9653 22.6327 36.4788 21.7698 37.2746 21.2367C39.1045 20.0473 41.1359 19.2015 43.2692 18.7407C44.2129 18.5415 45.196 18.7797 45.9438 19.3887C46.6916 19.9978 47.1239 20.9123 47.1199 21.8767Z" fill="white"/>
<path id="Shape_7" d="M59.3332 35.7324V46.3991C59.3297 47.5758 58.3766 48.5289 57.1999 48.5324H46.5332C53.6 48.5265 59.3273 42.7992 59.3332 35.7324Z" fill="#CAD9FC"/>
<path id="Shape_8" d="M9.50915 59.1988H12.7092C8.50591 59.2692 5.03338 55.9348 4.93315 51.7322V12.2655C4.93436 8.75926 7.37503 5.72616 10.7998 4.97483C10.2743 4.85943 9.7379 4.80042 9.19982 4.79883C5.0761 4.79883 1.73315 8.14177 1.73315 12.2655V51.7322C1.83338 55.9348 5.30591 59.2692 9.50915 59.1988Z" fill="white"/>
<path id="Rectangle-path_2" d="M0.666504 12.2656H2.79984V20.799H0.666504V12.2656Z" fill="white"/>
<g id="Group">
<path id="Shape_9" d="M1.75439 17.6001C1.16528 17.6031 0.685332 17.1279 0.682387 16.5388C0.679441 15.9497 1.15462 15.4697 1.74372 15.4668H1.75439C2.34349 15.4668 2.82105 15.9444 2.82105 16.5335C2.82105 17.1226 2.34349 17.6001 1.75439 17.6001Z" fill="#428DFF"/>
<path id="Shape_10" d="M62.5332 11.1996H17.6596C17.0723 6.75241 13.1421 3.51919 8.6651 3.80021C4.18813 4.08123 0.693073 7.78054 0.666504 12.2662C0.666504 12.8553 1.14407 13.3329 1.73317 13.3329C2.32227 13.3329 2.79984 12.8553 2.79984 12.2662C2.79984 8.73161 5.66522 5.86624 9.19984 5.86624C12.7345 5.86624 15.5998 8.73161 15.5998 12.2662V46.0945C14.0284 44.3101 11.7836 43.2623 9.40664 43.2036C7.02963 43.1448 4.73591 44.0805 3.07824 45.7852C2.97904 45.8865 2.89264 45.9985 2.79984 46.1052V20.7996C2.79984 20.2105 2.32227 19.7329 1.73317 19.7329C1.14407 19.7329 0.666504 20.2105 0.666504 20.7996V51.7329H0.675037C0.675037 51.8172 0.667571 51.9004 0.675037 51.9846C0.92885 56.6645 4.82265 60.3148 9.50917 60.2662H62.5332C63.7114 60.2662 64.6665 59.3111 64.6665 58.1329V13.3329C64.6665 12.1547 63.7114 11.1996 62.5332 11.1996ZM62.5332 58.1329H9.50917C5.97161 58.1908 3.01507 55.4543 2.79984 51.9228C2.76592 49.6363 3.95441 47.5054 5.91762 46.3327C7.88083 45.1601 10.3205 45.1239 12.3176 46.2378C14.3147 47.3517 15.5659 49.4464 15.5998 51.7329C15.5998 52.322 16.0774 52.7996 16.6665 52.7996C17.2556 52.7996 17.7332 52.322 17.7332 51.7329V13.3329H62.5332V58.1329Z" fill="#428DFF"/>
<path id="Shape_11" d="M5.99977 14.3992C6.58888 14.3992 7.06644 13.9217 7.06644 13.3326V12.2659C7.06644 11.6768 6.58888 11.1992 5.99977 11.1992C5.41067 11.1992 4.93311 11.6768 4.93311 12.2659V13.3326C4.93311 13.9217 5.41067 14.3992 5.99977 14.3992Z" fill="#428DFF"/>
<path id="Shape_12" d="M4.93311 33.5999C4.93311 34.189 5.41067 34.6665 5.99977 34.6665C6.58888 34.6665 7.06644 34.189 7.06644 33.5999V17.5999C7.06644 17.0108 6.58888 16.5332 5.99977 16.5332C5.41067 16.5332 4.93311 17.0108 4.93311 17.5999V33.5999Z" fill="#428DFF"/>
<path id="Shape_13" d="M20.9331 52.7998C21.5222 52.7998 21.9998 52.3223 21.9998 51.7332V49.5998H57.1998C58.9671 49.5998 60.3998 48.1672 60.3998 46.3998V35.7332C60.3897 28.7196 55.1492 22.8156 48.1865 21.9732V21.8772C48.1902 20.5773 47.6012 19.3466 46.5865 18.5342C45.5956 17.7311 44.2928 17.4232 43.0473 17.698C40.7864 18.1853 38.6337 19.0818 36.6953 20.3433C35.6355 21.035 34.9472 22.1706 34.8243 23.4302C34.7 24.6603 35.1161 25.8836 35.9646 26.7828C33.8358 29.2791 32.6665 32.4524 32.6665 35.7332V38.9332H21.9998C20.8216 38.9332 19.8665 39.8883 19.8665 41.0665V51.7332C19.8665 52.3223 20.344 52.7998 20.9331 52.7998ZM58.2665 46.3998C58.2665 46.9889 57.7889 47.4665 57.1998 47.4665H53.8931C55.6595 46.354 57.154 44.8596 58.2665 43.0932V46.3998ZM37.8558 22.131C39.5777 21.0111 41.4901 20.2158 43.4985 19.7844C44.114 19.6494 44.7575 19.8021 45.2467 20.1993C45.7572 20.6074 46.054 21.2258 46.0531 21.8793V21.8932C42.8883 21.9989 39.8563 23.1906 37.4665 25.2681C37.076 24.823 36.8871 24.2361 36.9449 23.6468C37.0033 23.0297 37.3383 22.4723 37.8558 22.131ZM34.7998 39.9998V35.7332C34.799 32.6629 36.0063 29.7157 38.1609 27.5284C38.1609 27.5284 38.1726 27.522 38.1779 27.5166C38.1833 27.5113 38.1886 27.4974 38.1961 27.4889C41.9349 23.7026 47.7537 22.9064 52.3722 25.5492C56.9908 28.192 59.2526 33.6119 57.8828 38.7538C56.5129 43.8956 51.8543 47.4718 46.5331 47.4665L34.7998 47.4665V39.9998ZM21.9998 41.0665H32.6665V47.4665H30.5331V45.3332C30.5331 44.7441 30.0556 44.2665 29.4665 44.2665C28.8774 44.2665 28.3998 44.7441 28.3998 45.3332V47.4665H26.2665V45.3332C26.2665 44.7441 25.7889 44.2665 25.1998 44.2665C24.6107 44.2665 24.1331 44.7441 24.1331 45.3332V47.4665H21.9998V41.0665Z" fill="#428DFF"/>
<path id="Shape_14" d="M55.0664 35.7326C55.0664 31.0197 51.2459 27.1992 46.5331 27.1992C41.8203 27.1992 37.9998 31.0197 37.9998 35.7326C37.9998 40.4454 41.8203 44.2659 46.5331 44.2659C51.2437 44.2606 55.0611 40.4432 55.0664 35.7326ZM40.1331 35.7326C40.1331 32.1979 42.9985 29.3326 46.5331 29.3326C50.0677 29.3326 52.9331 32.1979 52.9331 35.7326C52.9331 39.2672 50.0677 42.1326 46.5331 42.1326C42.9999 42.129 40.1366 39.2657 40.1331 35.7326Z" fill="#428DFF"/>
<path id="Shape_15" d="M49.7333 35.7332C49.7333 33.9659 48.3006 32.5332 46.5333 32.5332C44.7659 32.5332 43.3333 33.9659 43.3333 35.7332C43.3333 37.5005 44.7659 38.9332 46.5333 38.9332C48.3006 38.9332 49.7333 37.5005 49.7333 35.7332ZM45.4666 35.7332C45.4666 35.1441 45.9441 34.6665 46.5333 34.6665C47.1224 34.6665 47.5999 35.1441 47.5999 35.7332C47.5999 36.3223 47.1224 36.7999 46.5333 36.7999C45.9441 36.7999 45.4666 36.3223 45.4666 35.7332Z" fill="#428DFF"/>
<path id="Shape_16" d="M59.3331 50.666C58.744 50.666 58.2664 51.1436 58.2664 51.7327V53.866H56.1331C55.544 53.866 55.0664 54.3436 55.0664 54.9327C55.0664 55.5218 55.544 55.9993 56.1331 55.9993H59.3331C59.9222 55.9993 60.3997 55.5218 60.3997 54.9327V51.7327C60.3997 51.1436 59.9222 50.666 59.3331 50.666Z" fill="#428DFF"/>
<path id="Shape_17" d="M56.1331 17.6001H58.2664V19.7335C58.2664 20.3226 58.744 20.8001 59.3331 20.8001C59.9222 20.8001 60.3997 20.3226 60.3997 19.7335V16.5335C60.3997 15.9444 59.9222 15.4668 59.3331 15.4668H56.1331C55.544 15.4668 55.0664 15.9444 55.0664 16.5335C55.0664 17.1226 55.544 17.6001 56.1331 17.6001Z" fill="#428DFF"/>
</g>
</g>
</g>
</g>
<defs>
<clipPath id="clip0_21015_63474">
<rect width="64" height="64" fill="white" transform="translate(0.666504)"/>
</clipPath>
</defs>
</svg>
