<svg width="65" height="64" viewBox="0 0 65 64" fill="none" xmlns="http://www.w3.org/2000/svg">
<g id="fi_3000796" clip-path="url(#clip0_21015_62550)">
<g id="Page-1">
<g id="018---Quiz-App">
<g id="Colour">
<path id="Shape" d="M6.73324 1.06641V45.8664C3.78772 45.8664 1.3999 43.4786 1.3999 40.5331V6.39974C1.3999 3.45422 3.78772 1.06641 6.73324 1.06641Z" fill="#E8EDFC"/>
<path id="Shape_2" d="M63.2665 6.39974V40.5331C63.2665 43.4786 60.8787 45.8664 57.9332 45.8664H52.5999V1.06641H57.9332C59.3477 1.06641 60.7042 1.62831 61.7044 2.6285C62.7046 3.6287 63.2665 4.98525 63.2665 6.39974Z" fill="#E8EDFC"/>
<path id="Shape_3" d="M57.9332 1.06641H54.7332C56.1476 1.06641 57.5042 1.62831 58.5044 2.6285C59.5046 3.6287 60.0665 4.98525 60.0665 6.39974V40.5331C60.0665 43.4786 57.6787 45.8664 54.7332 45.8664H57.9332C60.8787 45.8664 63.2665 43.4786 63.2665 40.5331V6.39974C63.2665 4.98525 62.7046 3.6287 61.7044 2.6285C60.7042 1.62831 59.3476 1.06641 57.9332 1.06641Z" fill="#CAD9FC"/>
<path id="Rectangle-path" d="M6.73315 1.06641H52.5998V45.8664H6.73315V1.06641Z" fill="#E8EDFC"/>
<path id="Rectangle-path_2" d="M49.3999 1.06641H52.5999V45.8664H49.3999V1.06641Z" fill="#CAD9FC"/>
<path id="Rectangle-path_3" d="M60.0665 21.3326C60.0665 20.1543 59.1113 19.1992 57.9331 19.1992C56.7549 19.1992 55.7998 20.1543 55.7998 21.3326V25.5992C55.7998 26.7774 56.7549 27.7326 57.9331 27.7326C59.1113 27.7326 60.0665 26.7774 60.0665 25.5992V21.3326Z" fill="#A4C2F7"/>
<path id="Oval" d="M30.1999 28.8007C36.68 28.8007 41.9332 23.5475 41.9332 17.0673C41.9332 10.5872 36.68 5.33398 30.1999 5.33398C23.7197 5.33398 18.4666 10.5872 18.4666 17.0673C18.4666 23.5475 23.7197 28.8007 30.1999 28.8007Z" fill="#E8EDFC"/>
<path id="Shape_4" d="M30.1999 5.33399C29.6644 5.33822 29.1298 5.37885 28.5999 5.45559C34.4058 6.24831 38.7339 11.2075 38.7339 17.0673C38.7339 22.9271 34.4058 27.8863 28.5999 28.6791C32.9424 29.2806 37.2578 27.41 39.7875 23.8295C42.3173 20.2491 42.6389 15.5567 40.6213 11.6645C38.6037 7.77243 34.5838 5.33053 30.1999 5.33399Z" fill="#CAD9FC"/>
<g id="Group">
<path id="Oval_2" d="M25.9334 15.9991C27.1116 15.9991 28.0667 15.044 28.0667 13.8658C28.0667 12.6875 27.1116 11.7324 25.9334 11.7324C24.7552 11.7324 23.8 12.6875 23.8 13.8658C23.8 15.044 24.7552 15.9991 25.9334 15.9991Z" fill="#A4C2F7"/>
<path id="Oval_3" d="M34.4666 15.9991C35.6448 15.9991 36.5999 15.044 36.5999 13.8658C36.5999 12.6875 35.6448 11.7324 34.4666 11.7324C33.2884 11.7324 32.3333 12.6875 32.3333 13.8658C32.3333 15.044 33.2884 15.9991 34.4666 15.9991Z" fill="#A4C2F7"/>
<path id="Rectangle-path_4" d="M24.3333 32H14.7333C13.2606 32 12.0667 33.1939 12.0667 34.6667C12.0667 36.1394 13.2606 37.3333 14.7333 37.3333H24.3333C25.8061 37.3333 27 36.1394 27 34.6667C27 33.1939 25.8061 32 24.3333 32Z" fill="#A4C2F7"/>
</g>
<path id="Shape_5" d="M24.3333 32H21.1333C22.6061 32 23.8 33.1939 23.8 34.6667C23.8 36.1394 22.6061 37.3333 21.1333 37.3333H24.3333C25.8061 37.3333 27 36.1394 27 34.6667C27 33.1939 25.8061 32 24.3333 32Z" fill="#7FACFA"/>
<path id="Shape_6" d="M40.8666 37.3333H44.5999C46.0727 37.3333 47.2666 36.1394 47.2666 34.6667C47.2666 33.1939 46.0727 32 44.5999 32H34.9999C33.5272 32 32.3333 33.1939 32.3333 34.6667C32.3333 36.1394 33.5272 37.3333 34.9999 37.3333H36.5999" fill="#A4C2F7"/>
<path id="Shape_7" d="M44.5999 32H41.3999C42.8727 32 44.0666 33.1939 44.0666 34.6667C44.0666 36.1394 42.8727 37.3333 41.3999 37.3333H44.5999C46.0727 37.3333 47.2666 36.1394 47.2666 34.6667C47.2666 33.1939 46.0727 32 44.5999 32Z" fill="#7FACFA"/>
<path id="Shape_8" d="M49.3998 44.7992V60.5966C49.4001 61.2162 49.1541 61.8105 48.7159 62.2487C48.2778 62.6868 47.6834 62.9328 47.0638 62.9326H37.8691C37.2492 62.934 36.6542 62.6883 36.2158 62.2499C35.7774 61.8115 35.5317 61.2165 35.5331 60.5966C35.5331 59.349 35.0952 58.141 34.2958 57.1832L32.7491 55.3272C31.2338 53.5118 31.0949 50.9153 32.4078 48.9486L36.5998 42.6659V37.3326C36.6033 36.1558 37.5564 35.2027 38.7331 35.1992C39.9077 35.2079 40.8578 36.158 40.8665 37.3326V42.6659C40.8752 41.4913 41.8252 40.5413 42.9998 40.5326C44.1766 40.5361 45.1296 41.4891 45.1331 42.6659V44.7992C45.1419 43.6246 46.0919 42.6746 47.2665 42.6659C48.4432 42.6694 49.3963 43.6225 49.3998 44.7992Z" fill="#E8EDFC"/>
<path id="Shape_9" d="M47.2667 42.666C46.7007 42.663 46.1578 42.8902 45.7627 43.2954C45.7275 43.3295 45.7008 43.3711 45.6677 43.402C46.0097 43.7873 46.199 44.2843 46.2 44.7994V60.5967C46.2003 61.2163 45.9543 61.8107 45.5161 62.2488C45.078 62.687 44.4836 62.933 43.864 62.9327H47.064C47.6836 62.933 48.278 62.687 48.7161 62.2488C49.1543 61.8107 49.4003 61.2163 49.4 60.5967V44.7994C49.3965 43.6226 48.4434 42.6696 47.2667 42.666Z" fill="#CAD9FC"/>
</g>
<g id="Colour_copy">
<path id="Shape_10" d="M4.5999 40.5331V6.39974C4.5999 3.45422 6.98772 1.06641 9.93324 1.06641H6.73324C3.78772 1.06641 1.3999 3.45422 1.3999 6.39974V40.5331C1.3999 43.4786 3.78772 45.8664 6.73324 45.8664H9.93324C6.98772 45.8664 4.5999 43.4786 4.5999 40.5331Z" fill="white"/>
</g>
<g id="outline">
<path id="Rectangle-path_5" d="M0.333252 32H2.46659V40.5333H0.333252V32Z" fill="white"/>
<g id="Group_2">
<path id="Oval_4" d="M1.39992 37.3326C1.98902 37.3326 2.46659 36.855 2.46659 36.2659C2.46659 35.6768 1.98902 35.1992 1.39992 35.1992C0.810815 35.1992 0.333252 35.6768 0.333252 36.2659C0.333252 36.855 0.810815 37.3326 1.39992 37.3326Z" fill="#428DFF"/>
<path id="Shape_11" d="M57.9333 0H6.73325C3.20009 0.00352787 0.33678 2.86684 0.333252 6.4V32C0.333252 32.5891 0.810815 33.0667 1.39992 33.0667C1.98902 33.0667 2.46659 32.5891 2.46659 32V6.4C2.47385 4.46036 3.78852 2.7697 5.66659 2.2848V44.6485C3.78852 44.1636 2.47385 42.473 2.46659 40.5333C2.46659 39.9442 1.98902 39.4667 1.39992 39.4667C0.810815 39.4667 0.333252 39.9442 0.333252 40.5333C0.33678 44.0665 3.20009 46.9298 6.73325 46.9333H32.4741L31.5215 48.3616C29.962 50.7231 30.1273 53.8261 31.929 56.0085L33.4767 57.8667C34.1159 58.6331 34.4661 59.5994 34.4666 60.5973C34.4683 62.4754 35.9901 63.9977 37.8682 64H47.065C48.9431 63.9977 50.4648 62.4754 50.4666 60.5973V46.9333H57.9333C61.4664 46.9298 64.3297 44.0665 64.3333 40.5333V6.4C64.3297 2.86684 61.4664 0.00352787 57.9333 0ZM41.737 36.2667C41.2918 34.9887 40.0866 34.1323 38.7333 34.1323C37.3799 34.1323 36.1748 34.9887 35.7295 36.2667H34.9999C34.1163 36.2667 33.3999 35.5503 33.3999 34.6667C33.3999 33.783 34.1163 33.0667 34.9999 33.0667H44.5999C45.4836 33.0667 46.1999 33.783 46.1999 34.6667C46.1999 35.5503 45.4836 36.2667 44.5999 36.2667H41.737ZM48.3333 60.5973C48.3327 61.2977 47.7654 61.8655 47.065 61.8667H37.8682C37.1678 61.8655 36.6005 61.2977 36.5999 60.5973C36.599 59.1003 36.0741 57.6508 35.1162 56.5003L33.5685 54.6432C32.3672 53.1881 32.2569 51.1192 33.2965 49.5445L35.5333 46.1867V49.0667C35.5333 49.6558 36.0108 50.1333 36.5999 50.1333C37.189 50.1333 37.6666 49.6558 37.6666 49.0667V37.3333C37.6666 36.7442 38.1441 36.2667 38.7333 36.2667C39.3224 36.2667 39.7999 36.7442 39.7999 37.3333V48C39.7999 48.5891 40.2775 49.0667 40.8666 49.0667C41.4557 49.0667 41.9333 48.5891 41.9333 48V42.6667C41.9333 42.0776 42.4108 41.6 42.9999 41.6C43.589 41.6 44.0666 42.0776 44.0666 42.6667V48C44.0666 48.5891 44.5442 49.0667 45.1333 49.0667C45.7224 49.0667 46.1999 48.5891 46.1999 48V44.8C46.1999 44.2109 46.6775 43.7333 47.2666 43.7333C47.8557 43.7333 48.3333 44.2109 48.3333 44.8V60.5973ZM50.4666 44.8C50.4702 43.7366 49.9436 42.7414 49.0624 42.1462C48.1812 41.551 47.0613 41.4342 46.0762 41.8347C45.8555 40.9704 45.2783 40.2404 44.4883 39.8263C43.6983 39.4122 42.7696 39.3528 41.9333 39.6629V38.4H44.5999C45.59 38.3988 46.5396 38.0066 47.2421 37.3088C48.3117 36.241 48.632 34.6336 48.0534 33.2374C47.4747 31.8411 46.1113 30.9315 44.5999 30.9333H34.9999C34.0098 30.9346 33.0602 31.3268 32.3578 32.0245C31.2881 33.0923 30.9678 34.6997 31.5465 36.096C32.1251 37.4922 33.4885 38.4018 34.9999 38.4H35.5333V42.3467L33.8959 44.8H7.79992V2.13333H51.5333V44.8H50.4666ZM62.1999 40.5333C62.1999 42.8898 60.2897 44.8 57.9333 44.8H53.6666V2.13333H57.9333C60.2897 2.13333 62.1999 4.04359 62.1999 6.4V40.5333Z" fill="#428DFF"/>
<path id="Shape_12" d="M57.9332 18.1328C56.1658 18.1328 54.7332 19.5655 54.7332 21.3328V25.5995C54.7332 27.3668 56.1658 28.7995 57.9332 28.7995C59.7005 28.7995 61.1332 27.3668 61.1332 25.5995V21.3328C61.1332 19.5655 59.7005 18.1328 57.9332 18.1328ZM58.9998 25.5995C58.9998 26.1886 58.5223 26.6661 57.9332 26.6661C57.3441 26.6661 56.8665 26.1886 56.8665 25.5995V21.3328C56.8665 20.7437 57.3441 20.2661 57.9332 20.2661C58.5223 20.2661 58.9998 20.7437 58.9998 21.3328V25.5995Z" fill="#428DFF"/>
<path id="Shape_13" d="M30.1999 4.26758C23.1307 4.26758 17.3999 9.99833 17.3999 17.0676C17.3999 24.1368 23.1307 29.8676 30.1999 29.8676C37.2691 29.8676 42.9999 24.1368 42.9999 17.0676C42.9923 10.0015 37.266 4.27522 30.1999 4.26758ZM30.1999 27.7342C24.3089 27.7342 19.5332 22.9586 19.5332 17.0676C19.5332 11.1765 24.3089 6.40091 30.1999 6.40091C36.0909 6.40091 40.8666 11.1765 40.8666 17.0676C40.8601 22.9559 36.0883 27.7278 30.1999 27.7342Z" fill="#428DFF"/>
<path id="Shape_14" d="M29.1332 13.866C29.1332 12.0987 27.7005 10.666 25.9332 10.666C24.1658 10.666 22.7332 12.0987 22.7332 13.866C22.7332 15.6333 24.1658 17.066 25.9332 17.066C27.7005 17.066 29.1332 15.6333 29.1332 13.866ZM24.8665 13.866C24.8665 13.2769 25.3441 12.7993 25.9332 12.7993C26.5223 12.7993 26.9998 13.2769 26.9998 13.866C26.9998 14.4551 26.5223 14.9327 25.9332 14.9327C25.3441 14.9327 24.8665 14.4551 24.8665 13.866Z" fill="#428DFF"/>
<path id="Shape_15" d="M34.4666 10.666C32.6993 10.666 31.2666 12.0987 31.2666 13.866C31.2666 15.6333 32.6993 17.066 34.4666 17.066C36.2339 17.066 37.6666 15.6333 37.6666 13.866C37.6666 12.0987 36.2339 10.666 34.4666 10.666ZM34.4666 14.9327C33.8775 14.9327 33.3999 14.4551 33.3999 13.866C33.3999 13.2769 33.8775 12.7993 34.4666 12.7993C35.0557 12.7993 35.5333 13.2769 35.5333 13.866C35.5333 14.4551 35.0557 14.9327 34.4666 14.9327Z" fill="#428DFF"/>
<path id="Shape_16" d="M35.8704 19.2549C35.3117 19.0693 34.7082 19.3715 34.5222 19.9301C34.5136 19.9546 33.6582 22.4005 30.2 22.4005C26.7995 22.4005 25.911 20.0208 25.8779 19.9301C25.7575 19.5681 25.4531 19.2978 25.0793 19.2211C24.7056 19.1443 24.3193 19.2728 24.066 19.5581C23.8127 19.8434 23.7308 20.2422 23.8512 20.6042C23.9067 20.7653 25.2219 24.5338 30.2 24.5338C35.1782 24.5338 36.4934 20.7653 36.5446 20.6042C36.731 20.0455 36.4292 19.4414 35.8704 19.2549Z" fill="#428DFF"/>
<path id="Shape_17" d="M24.3333 30.9336H14.7333C12.6715 30.9336 11 32.6051 11 34.6669C11 36.7288 12.6715 38.4003 14.7333 38.4003H24.3333C26.3952 38.4003 28.0667 36.7288 28.0667 34.6669C28.0667 32.6051 26.3952 30.9336 24.3333 30.9336ZM24.3333 36.2669H14.7333C13.8497 36.2669 13.1333 35.5506 13.1333 34.6669C13.1333 33.7833 13.8497 33.0669 14.7333 33.0669H24.3333C25.217 33.0669 25.9333 33.7833 25.9333 34.6669C25.9333 35.5506 25.217 36.2669 24.3333 36.2669Z" fill="#428DFF"/>
</g>
</g>
</g>
</g>
</g>
<defs>
<clipPath id="clip0_21015_62550">
<rect width="64" height="64" fill="white" transform="translate(0.333252)"/>
</clipPath>
</defs>
</svg>
