<svg width="65" height="64" viewBox="0 0 65 64" fill="none" xmlns="http://www.w3.org/2000/svg">
<g id="clipboard 1" clip-path="url(#clip0_21015_63048)">
<g id="Page-1">
<g id="016---Whistle-and-Clipboard">
<path id="Path" fill-rule="evenodd" clip-rule="evenodd" d="M45.4665 16.0008V33.0674H36.9332C32.6633 33.0706 28.5987 34.9001 25.7653 38.0944C22.9319 41.2886 21.6002 45.5424 22.1065 49.7821C22.9403 56.6257 28.3389 62.0155 35.1838 62.8381C35.7648 62.9017 36.3487 62.9338 36.9332 62.9341H4.93315C3.16584 62.9341 1.73315 61.5014 1.73315 59.7341V16.0008C1.73315 14.2335 3.16584 12.8008 4.93315 12.8008H42.2665C44.0338 12.8008 45.4665 14.2335 45.4665 16.0008Z" fill="#A4C2F7"/>
<path id="Path_2" fill-rule="evenodd" clip-rule="evenodd" d="M29.4665 35.0718C31.7333 33.7526 34.3104 33.0605 36.9332 33.0664L33.7332 33.0665C29.4633 33.0696 25.3988 34.8991 22.5653 38.0934C19.7319 41.2876 18.4002 45.5414 18.9065 49.7811C19.7403 56.6247 25.1389 62.0146 31.9838 62.8372C32.5648 62.9007 33.1488 62.9328 33.7332 62.9332H36.9332C36.3488 62.9328 35.7648 62.9007 35.1838 62.8372C28.7922 62.0846 23.6016 57.3217 22.3036 51.0181C21.0056 44.7145 23.8921 38.2884 29.4665 35.0718Z" fill="#CAD9FC"/>
<path id="Path_3" fill-rule="evenodd" clip-rule="evenodd" d="M42.2664 12.8008H39.0664C40.8337 12.8008 42.2664 14.2335 42.2664 16.0008V33.0674H45.4664V16.0008C45.4664 14.2335 44.0337 12.8008 42.2664 12.8008Z" fill="#7FACFA"/>
<path id="Path_4" fill-rule="evenodd" clip-rule="evenodd" d="M41.1998 17.0664V33.0664H36.9331C30.8599 33.0561 25.3873 36.7303 23.0974 42.3553C20.8076 47.9803 22.1581 54.4321 26.5118 58.6664H5.99976V17.0664H41.1998Z" fill="#E8EDFC"/>
<path id="Path_5" fill-rule="evenodd" clip-rule="evenodd" d="M26.2666 35.0718C21.0859 38.0557 18.1887 43.8458 18.9066 49.7811C19.3031 53.1633 20.8599 56.3034 23.3119 58.6664H26.5119C24.0599 56.3034 22.5031 53.1633 22.1066 49.7811C21.6003 45.5414 22.932 41.2876 25.7654 38.0933C28.5989 34.8991 32.6634 33.0695 36.9333 33.0664L33.7333 33.0664C31.1105 33.0604 28.5334 33.7526 26.2666 35.0718Z" fill="#CAD9FC"/>
<path id="Rectangle" fill-rule="evenodd" clip-rule="evenodd" d="M37.9998 17.0664H41.1998V33.0664H37.9998V17.0664Z" fill="#CAD9FC"/>
<path id="Path_6" fill-rule="evenodd" clip-rule="evenodd" d="M63.5998 35.1997V43.7331C63.5963 44.9098 62.6432 45.8629 61.4665 45.8664H53.9785C52.8133 45.8693 51.8694 46.8132 51.8665 47.9784V47.9997C51.8665 51.9603 50.2931 55.7587 47.4926 58.5592C44.692 61.3597 40.8937 62.9331 36.9331 62.9331C36.3487 62.9327 35.7647 62.9007 35.1838 62.8371C28.3476 61.9966 22.9581 56.6159 22.1065 49.7811C21.6002 45.5413 22.9318 41.2876 25.7653 38.0933C28.5987 34.8991 32.6633 33.0695 36.9331 33.0664H61.4665C62.6432 33.0699 63.5963 34.023 63.5998 35.1997Z" fill="#E8EDFC"/>
<path id="Path_7" fill-rule="evenodd" clip-rule="evenodd" d="M48.6666 47.9792V48.0005C48.6658 55.6281 42.9169 62.0291 35.3333 62.8464C35.8666 62.8997 36.4074 62.9339 36.9333 62.9339C45.1807 62.9339 51.8666 56.248 51.8666 48.0005V47.9792C51.8695 46.814 52.8134 45.8701 53.9786 45.8672H50.7786C49.6134 45.8701 48.6695 46.814 48.6666 47.9792Z" fill="#CAD9FC"/>
<path id="Path_8" fill-rule="evenodd" clip-rule="evenodd" d="M61.4666 33.0664H58.2666C59.4434 33.0699 60.3964 34.023 60.3999 35.1997V43.7331C60.3964 44.9098 59.4434 45.8629 58.2666 45.8664H61.4666C62.6434 45.8629 63.5964 44.9098 63.5999 43.7331V35.1997C63.5964 34.023 62.6434 33.0699 61.4666 33.0664Z" fill="#CAD9FC"/>
<path id="Rectangle_2" fill-rule="evenodd" clip-rule="evenodd" d="M52.9331 33.0664H58.2664V40.5331H52.9331V33.0664Z" fill="#CAD9FC"/>
<path id="Path_9" fill-rule="evenodd" clip-rule="evenodd" d="M32.6665 10.1331V15.9997C32.6665 17.1779 31.7114 18.1331 30.5332 18.1331H16.6665C15.4883 18.1331 14.5332 17.1779 14.5332 15.9997V10.1331C14.5408 8.65932 15.7368 7.46815 17.2105 7.46641C17.9166 7.46584 18.5935 7.18437 19.0918 6.68409C19.59 6.18381 19.8688 5.50583 19.8665 4.79974C19.8665 2.73788 21.538 1.06641 23.5999 1.06641C25.6617 1.06641 27.3332 2.73788 27.3332 4.79974C27.3408 6.27349 28.5368 7.46467 30.0105 7.46641C30.7166 7.46697 31.3935 7.74844 31.8918 8.24873C32.39 8.74901 32.6688 9.42698 32.6665 10.1331Z" fill="#E8EDFC"/>
<path id="Path_10" fill-rule="evenodd" clip-rule="evenodd" d="M31.8878 8.24507C31.3893 7.74787 30.7145 7.46797 30.0104 7.46641C28.5367 7.46467 27.3407 6.27349 27.3331 4.79974C27.3331 2.73788 25.6616 1.06641 23.5998 1.06641C23.0452 1.0692 22.4983 1.19679 21.9998 1.43974C23.3 2.05389 24.1304 3.36178 24.1331 4.79974C24.1407 6.27349 25.3367 7.46467 26.8104 7.46641C27.5165 7.46697 28.1934 7.74844 28.6917 8.24873C29.1899 8.74901 29.4687 9.42698 29.4664 10.1331V15.9997C29.4664 17.1779 28.5113 18.1331 27.3331 18.1331H30.5331C31.7113 18.1331 32.6664 17.1779 32.6664 15.9997V10.1331C32.6677 9.42535 32.3876 8.74614 31.8878 8.24507Z" fill="#CAD9FC"/>
<path id="Oval" d="M13.9999 28.8001C15.4727 28.8001 16.6666 27.6062 16.6666 26.1335C16.6666 24.6607 15.4727 23.4668 13.9999 23.4668C12.5272 23.4668 11.3333 24.6607 11.3333 26.1335C11.3333 27.6062 12.5272 28.8001 13.9999 28.8001Z" fill="#A4C2F7"/>
<path id="Oval_2" d="M23.5998 28.8001C25.0725 28.8001 26.2664 27.6062 26.2664 26.1335C26.2664 24.6607 25.0725 23.4668 23.5998 23.4668C22.127 23.4668 20.9331 24.6607 20.9331 26.1335C20.9331 27.6062 22.127 28.8001 23.5998 28.8001Z" fill="#A4C2F7"/>
<path id="Oval_3" d="M33.1999 28.8001C34.6726 28.8001 35.8665 27.6062 35.8665 26.1335C35.8665 24.6607 34.6726 23.4668 33.1999 23.4668C31.7271 23.4668 30.5332 24.6607 30.5332 26.1335C30.5332 27.6062 31.7271 28.8001 33.1999 28.8001Z" fill="#A4C2F7"/>
<path id="Path_11" fill-rule="evenodd" clip-rule="evenodd" d="M4.93315 62.9341H8.13315C6.36584 62.9341 4.93315 61.5014 4.93315 59.7341V16.0008C4.93315 14.2335 6.36584 12.8008 8.13315 12.8008H4.93315C3.16584 12.8008 1.73315 14.2335 1.73315 16.0008V59.7341C1.73315 61.5014 3.16584 62.9341 4.93315 62.9341Z" fill="white"/>
<path id="Rectangle_3" fill-rule="evenodd" clip-rule="evenodd" d="M0.666504 16H2.79984V24.5333H0.666504V16Z" fill="white"/>
<g id="Group">
<path id="Oval_4" d="M1.73317 21.3326C2.32227 21.3326 2.79984 20.855 2.79984 20.2659C2.79984 19.6768 2.32227 19.1992 1.73317 19.1992C1.14407 19.1992 0.666504 19.6768 0.666504 20.2659C0.666504 20.855 1.14407 21.3326 1.73317 21.3326Z" fill="#428DFF"/>
<path id="Path_12" fill-rule="evenodd" clip-rule="evenodd" d="M4.93317 64.0001H24.8905C25.4796 64.0001 25.9572 63.5226 25.9572 62.9335C25.9572 62.3444 25.4796 61.8668 24.8905 61.8668H4.93317C3.75496 61.8668 2.79984 60.9117 2.79984 59.7335V24.5335C2.79984 23.9444 2.32227 23.4668 1.73317 23.4668C1.14407 23.4668 0.666504 23.9444 0.666504 24.5335V59.7335C0.666504 62.0899 2.57676 64.0001 4.93317 64.0001Z" fill="#428DFF"/>
<path id="Shape" d="M1.73317 17.0667C2.32227 17.0667 2.79984 16.5891 2.79984 16C2.79984 14.8218 3.75496 13.8667 4.93317 13.8667H13.4665V16C13.4665 17.7673 14.8992 19.2 16.6665 19.2H30.5332C32.3005 19.2 33.7332 17.7673 33.7332 16V13.8667H42.2665C43.4447 13.8667 44.3998 14.8218 44.3998 16V28.8C44.3998 29.3891 44.8774 29.8667 45.4665 29.8667C46.0556 29.8667 46.5332 29.3891 46.5332 28.8V16C46.5332 13.6436 44.6229 11.7333 42.2665 11.7333H33.7332V10.1333C33.7352 9.14517 33.3445 8.1967 32.6472 7.49656C31.9498 6.79642 31.0029 6.40198 30.0148 6.4C29.1284 6.40062 28.4075 5.68631 28.3998 4.8C28.3998 2.14903 26.2508 0 23.5998 0C20.9489 0 18.7998 2.14903 18.7998 4.8C18.7997 5.22478 18.6318 5.6323 18.3326 5.93387C18.0341 6.23289 17.6288 6.40063 17.2062 6.4C15.1458 6.40584 13.4759 8.07287 13.4665 10.1333V11.7333H4.93317C2.57676 11.7333 0.666504 13.6436 0.666504 16C0.666504 16.5891 1.14407 17.0667 1.73317 17.0667ZM15.5998 10.1333C15.6075 9.24702 16.3284 8.53271 17.2148 8.53333C18.2029 8.53136 19.1498 8.13691 19.8472 7.43678C20.5445 6.73664 20.9352 5.78816 20.9332 4.8C20.9332 3.32724 22.1271 2.13333 23.5998 2.13333C25.0726 2.13333 26.2665 3.32724 26.2665 4.8C26.2759 6.86047 27.9458 8.52749 30.0062 8.53333C30.4288 8.5327 30.8341 8.70045 31.1326 8.99947C31.4318 9.30103 31.5997 9.70856 31.5998 10.1333V16C31.5998 16.5891 31.1223 17.0667 30.5332 17.0667H16.6665C16.0774 17.0667 15.5998 16.5891 15.5998 16V10.1333Z" fill="#428DFF"/>
<path id="Path_13" fill-rule="evenodd" clip-rule="evenodd" d="M10.3624 16H5.99977C5.41067 16 4.93311 16.4776 4.93311 17.0667V58.6667C4.93311 59.2558 5.41067 59.7333 5.99977 59.7333H20.9864C21.5755 59.7333 22.0531 59.2558 22.0531 58.6667C22.0531 58.0776 21.5755 57.6 20.9864 57.6H7.06644V18.1333H10.3624C10.9515 18.1333 11.4291 17.6558 11.4291 17.0667C11.4291 16.4776 10.9515 16 10.3624 16Z" fill="#428DFF"/>
<path id="Path_14" fill-rule="evenodd" clip-rule="evenodd" d="M41.1998 29.8667C41.7889 29.8667 42.2665 29.3891 42.2665 28.8V17.0667C42.2665 16.4776 41.7889 16 41.1998 16H36.8372C36.2481 16 35.7705 16.4776 35.7705 17.0667C35.7705 17.6558 36.2481 18.1333 36.8372 18.1333H40.1332V28.8C40.1332 29.3891 40.6107 29.8667 41.1998 29.8667Z" fill="#428DFF"/>
<path id="Path_15" fill-rule="evenodd" clip-rule="evenodd" d="M21.9998 10.6665H25.1998C25.7889 10.6665 26.2664 10.189 26.2664 9.59987C26.2664 9.01077 25.7889 8.5332 25.1998 8.5332H21.9998C21.4107 8.5332 20.9331 9.01077 20.9331 9.59987C20.9331 10.189 21.4107 10.6665 21.9998 10.6665Z" fill="#428DFF"/>
<path id="Path_16" fill-rule="evenodd" clip-rule="evenodd" d="M20.9331 14.9341H26.2665C26.8556 14.9341 27.3331 14.4566 27.3331 13.8674C27.3331 13.2783 26.8556 12.8008 26.2665 12.8008H20.9331C20.344 12.8008 19.8665 13.2783 19.8665 13.8674C19.8665 14.4566 20.344 14.9341 20.9331 14.9341Z" fill="#428DFF"/>
<path id="Shape_2" d="M61.4666 32H36.9332C28.4506 31.9864 21.4315 38.5954 20.9351 47.0635C20.4386 55.5317 26.6372 62.9156 35.0634 63.8934C35.671 63.9633 36.2821 63.999 36.8938 64C41.148 64.0105 45.2312 62.3264 48.2409 59.3198C51.2507 56.3132 52.9392 52.2318 52.9333 47.9776C52.9367 47.4023 53.4022 46.9368 53.9775 46.9334H61.4666C63.2339 46.9334 64.6666 45.5007 64.6666 43.7334V35.2C64.6666 33.4327 63.2339 32 61.4666 32ZM57.1999 34.1334V39.4667H53.9999V34.1334H57.1999ZM62.5332 43.7334C62.5332 44.3225 62.0557 44.8 61.4666 44.8H53.9775C53.1313 44.8014 52.3205 45.1397 51.7242 45.7402C51.128 46.3407 50.7954 47.1538 50.7999 48C50.7964 55.6532 44.5907 61.8551 36.9375 61.8539C29.2844 61.8527 23.0806 55.6489 23.0794 47.9958C23.0782 40.3426 29.2801 34.1369 36.9332 34.1334H51.8666V40.5334C51.8666 41.1225 52.3441 41.6 52.9333 41.6H58.2666C58.8557 41.6 59.3332 41.1225 59.3332 40.5334V34.1334H61.4666C62.0557 34.1334 62.5332 34.6109 62.5332 35.2V43.7334Z" fill="#428DFF"/>
<path id="Path_17" fill-rule="evenodd" clip-rule="evenodd" d="M40.6046 40.3028C41.1285 40.5232 41.7332 40.2942 41.9796 39.7821C42.226 39.2699 42.0275 38.6545 41.5284 38.3828C37.4519 36.4338 32.5895 37.2666 29.3942 40.4613C26.1988 43.656 25.3648 48.5182 27.3129 52.5951C27.5847 53.0942 28.2 53.2926 28.7122 53.0462C29.2243 52.7998 29.4533 52.1952 29.2329 51.6713C27.6722 48.41 28.3385 44.5188 30.8954 41.9626C33.4524 39.4063 37.3437 38.7411 40.6046 40.3028Z" fill="#428DFF"/>
<path id="Path_18" fill-rule="evenodd" clip-rule="evenodd" d="M45.1306 42.9061C44.5996 43.161 44.3756 43.798 44.6303 44.3291C46.1897 47.5897 45.5234 51.4793 42.9677 54.035C40.412 56.5907 36.5224 57.257 33.2618 55.6976C32.738 55.4772 32.1333 55.7062 31.8869 56.2183C31.6405 56.7305 31.8389 57.3458 32.3381 57.6176C36.4145 59.5666 41.2769 58.7337 44.4723 55.5391C47.6677 52.3444 48.5017 47.4822 46.5535 43.4053C46.2983 42.8747 45.6614 42.6513 45.1306 42.9061Z" fill="#428DFF"/>
<path id="Shape_3" d="M17.7333 26.1337C17.7333 24.0719 16.0618 22.4004 13.9999 22.4004C11.9381 22.4004 10.2666 24.0719 10.2666 26.1337C10.2666 28.1956 11.9381 29.8671 13.9999 29.8671C16.0618 29.8671 17.7333 28.1956 17.7333 26.1337ZM12.3999 26.1337C12.3999 25.2501 13.1163 24.5337 13.9999 24.5337C14.8836 24.5337 15.5999 25.2501 15.5999 26.1337C15.5999 27.0174 14.8836 27.7337 13.9999 27.7337C13.1163 27.7337 12.3999 27.0174 12.3999 26.1337Z" fill="#428DFF"/>
<path id="Shape_4" d="M23.5998 29.8671C25.6617 29.8671 27.3331 28.1956 27.3331 26.1337C27.3331 24.0719 25.6617 22.4004 23.5998 22.4004C21.5379 22.4004 19.8665 24.0719 19.8665 26.1337C19.8665 28.1956 21.5379 29.8671 23.5998 29.8671ZM23.5998 24.5337C24.4834 24.5337 25.1998 25.2501 25.1998 26.1337C25.1998 27.0174 24.4834 27.7337 23.5998 27.7337C22.7161 27.7337 21.9998 27.0174 21.9998 26.1337C21.9998 25.2501 22.7161 24.5337 23.5998 24.5337Z" fill="#428DFF"/>
<path id="Shape_5" d="M33.1999 22.4004C31.138 22.4004 29.4666 24.0719 29.4666 26.1337C29.4666 28.1956 31.138 29.8671 33.1999 29.8671C35.2617 29.8671 36.9332 28.1956 36.9332 26.1337C36.9332 24.0719 35.2617 22.4004 33.1999 22.4004ZM33.1999 27.7337C32.3162 27.7337 31.5999 27.0174 31.5999 26.1337C31.5999 25.2501 32.3162 24.5337 33.1999 24.5337C34.0835 24.5337 34.7999 25.2501 34.7999 26.1337C34.7999 27.0174 34.0835 27.7337 33.1999 27.7337Z" fill="#428DFF"/>
<path id="Path_19" fill-rule="evenodd" clip-rule="evenodd" d="M17.4207 47.2459C17.0042 46.8295 16.329 46.8295 15.9124 47.2459L13.4666 49.6918L11.0207 47.2459C10.6022 46.8417 9.93688 46.8474 9.52543 47.2589C9.11398 47.6703 9.1082 48.3356 9.51244 48.7542L11.9583 51.2L9.51244 53.6459C9.23515 53.9137 9.12394 54.3103 9.22156 54.6832C9.31917 55.0562 9.61042 55.3474 9.98336 55.445C10.3563 55.5427 10.7529 55.4315 11.0207 55.1542L13.4666 52.7083L15.9124 55.1542C16.331 55.5584 16.9963 55.5526 17.4077 55.1412C17.8192 54.7297 17.8249 54.0644 17.4207 53.6459L14.9748 51.2L17.4207 48.7542C17.8371 48.3376 17.8371 47.6624 17.4207 47.2459Z" fill="#428DFF"/>
<path id="Path_20" fill-rule="evenodd" clip-rule="evenodd" d="M20.4906 31.1351C20.2128 30.9348 19.8556 30.88 19.5306 30.9879L13.1306 33.1213C12.5709 33.3074 12.2681 33.912 12.4543 34.4717C12.6404 35.0313 13.245 35.3341 13.8047 35.1479L16.6783 34.1879C14.3242 37.6335 12.8883 41.6228 12.5066 45.7783C12.4528 46.3632 12.8819 46.8815 13.4666 46.9378C13.4996 46.9378 13.5327 46.9431 13.5658 46.9431C14.1165 46.9427 14.5764 46.523 14.6271 45.9746C14.9946 41.9658 16.4361 38.1302 18.7999 34.8717V38.4002C18.7999 38.9893 19.2775 39.4669 19.8666 39.4669C20.4557 39.4669 20.9332 38.9893 20.9332 38.4002V32.0002C20.9332 31.6575 20.7685 31.3356 20.4906 31.1351Z" fill="#428DFF"/>
</g>
</g>
</g>
</g>
<defs>
<clipPath id="clip0_21015_63048">
<rect width="64" height="64" fill="white" transform="translate(0.666504)"/>
</clipPath>
</defs>
</svg>
