<svg width="64" height="64" viewBox="0 0 64 64" fill="none" xmlns="http://www.w3.org/2000/svg">
<g id="confusion 1">
<g id="Page-1">
<g id="006---Confusion">
<path id="Shape" d="M48.9232 39.5653C47.5807 42.631 47.0773 45.9985 47.4649 49.3227C47.701 51.4863 48.1294 53.6246 48.7449 55.7122C49.0752 56.7934 49.4928 57.8461 49.9934 58.8598C50.6143 59.8135 51.175 60.8052 51.6721 61.8289L25.3377 61.9024V61.8919C25.2537 61.5771 23.6695 55.408 20.1652 53.8237C19.5147 54.044 18.8327 54.2853 18.1298 54.5267C15.796 55.3351 13.4216 56.0215 11.0163 56.583C10.3547 56.7411 9.65779 56.6437 9.06487 56.3103H9.05438C8.38701 55.8892 7.88925 55.2466 7.64848 54.4952C7.37029 53.7486 7.26622 52.9484 7.34422 52.1555C7.59454 51.3484 7.68016 50.4993 7.59602 49.6585C7.32323 48.5988 6.30553 48.3365 5.50815 47.7699C4.86815 47.3083 6.03274 45.8289 6.03274 45.8289C6.03274 45.8289 4.79471 44.9162 4.35405 44.5175C3.89241 44.1398 4.53241 43.4893 5.11995 42.2617C5.35806 41.7287 5.42761 41.1357 5.3193 40.5621C5.09897 39.4394 3.38881 39.0093 2.54946 38.3903C2.16127 38.0965 1.52127 37.6558 1.44782 37.1208C1.33241 36.3758 2.21372 35.3266 2.64389 34.8021C4.47423 32.4433 6.0432 29.8928 7.32323 27.1955C7.49121 26.9108 7.59171 26.5913 7.617 26.2617C7.59602 24.7614 5.42422 24.1424 5.21438 22.684C5.19205 22.2555 5.27113 21.8277 5.4452 21.4355C6.05023 20.1495 6.56897 18.8246 6.99799 17.4696C7.25129 16.2255 7.58422 14.9989 7.99471 13.7975C8.87455 11.384 10.2303 9.17193 11.9816 7.29256C14.5521 4.57518 18.3501 3.23223 21.9383 2.51879C25.1293 1.82113 28.3652 1.34784 31.6222 1.10239C31.7272 1.0919 31.8321 1.0919 31.937 1.08141C38.6518 0.745671 43.9606 3.02239 49.154 7.09321C51.9958 9.20498 54.0729 12.1844 55.0714 15.5811C55.8323 18.3838 56.1891 21.2808 56.1311 24.1844C56.111 27.0519 55.2739 29.8543 53.718 32.263C52.1547 34.7286 50.0983 36.8689 48.9232 39.5653Z" fill="#A4C2F7"/>
<path id="Shape_2" d="M45.7757 39.5645C44.4331 42.6302 43.9298 45.9977 44.3173 49.3219C44.5535 51.4855 44.9819 53.6238 45.5973 55.7114C45.9277 56.7926 46.3453 57.8452 46.8459 58.8589C47.4668 59.8127 48.0274 60.8044 48.5245 61.8281L28.3488 61.8806L25.3377 61.8911C25.2642 61.6078 23.9947 56.6871 21.2459 54.4943C20.9156 54.2256 20.5524 54 20.1652 53.8229C20.1337 53.8334 20.1127 53.8439 20.0813 53.8544C19.4622 54.0642 18.8013 54.295 18.1298 54.5258C18.1088 54.5153 18.0983 54.4943 18.0773 54.4839C17.7551 54.2173 17.3987 53.995 17.0177 53.8229C15.2445 54.4419 13.1986 55.1239 11.3311 55.6799C10.5337 55.9107 9.76782 56.1311 9.06487 56.3094H9.05438C8.38701 55.8884 7.88925 55.2458 7.64848 54.4943C7.37029 53.7478 7.26622 52.9476 7.34422 52.1547C7.59454 51.3476 7.68016 50.4984 7.59602 49.6576C7.32323 48.598 6.30553 48.3357 5.50815 47.7691C4.86815 47.3075 6.03274 45.8281 6.03274 45.8281C6.03274 45.8281 4.79471 44.9153 4.35405 44.5166C3.89241 44.1389 4.53241 43.4884 5.11995 42.2609C5.35806 41.7279 5.42761 41.1349 5.3193 40.5612C5.09897 39.4386 3.38881 39.0084 2.54946 38.3894C2.16127 38.0957 1.52127 37.655 1.44782 37.1199C1.33241 36.375 2.21372 35.3258 2.64389 34.8012C4.47423 32.4424 6.0432 29.892 7.32323 27.1947C7.49121 26.91 7.59171 26.5905 7.617 26.2609C7.59602 24.7606 5.42422 24.1416 5.21438 22.6832C5.19205 22.2547 5.27113 21.8269 5.4452 21.4347C6.05023 20.1486 6.56897 18.8237 6.99799 17.4688C7.25129 16.2247 7.58422 14.9981 7.99471 13.7966C8.87455 11.3832 10.2303 9.1711 11.9816 7.29173C14.5521 4.57435 18.3501 3.2314 21.9383 2.51796C25.1293 1.8203 28.3652 1.34701 31.6222 1.10156C32.0944 1.13304 32.556 1.17501 33.0072 1.23796C37.8042 1.92962 42.3093 3.95858 46.0065 7.09238C48.8482 9.20415 50.9253 12.1835 51.9239 15.5803C52.6847 18.383 53.0416 21.28 52.9836 24.1835C52.9634 27.0511 52.1264 29.8534 50.5704 32.2622C49.0072 34.7278 46.9508 36.8681 45.7757 39.5645Z" fill="white"/>
<path id="Shape_3" d="M45.7758 39.5648C44.4332 42.6305 43.9299 45.998 44.3174 49.3222C44.5536 51.4858 44.9819 53.6241 45.5974 55.7117C45.9278 56.7929 46.3453 57.8456 46.8459 58.8593C47.4668 59.813 48.0275 60.8047 48.5246 61.8284L28.3489 61.8809C28.244 61.4822 26.6492 55.397 23.1764 53.8232C22.5574 54.033 21.9174 54.2639 21.2459 54.4947C21.2145 54.5052 21.1725 54.5157 21.141 54.5261C20.8217 54.2528 20.4649 54.0267 20.0813 53.8547C20.0604 53.8442 20.0499 53.8337 20.0289 53.8232C19.4099 54.0435 18.7489 54.2639 18.0774 54.4842C16.0315 55.1766 13.8387 55.8586 12.0761 56.3097H12.0656C11.7883 56.141 11.5403 55.9284 11.3312 55.6802C11.0347 55.3309 10.8068 54.9286 10.6597 54.4947C10.3815 53.7481 10.2775 52.9479 10.3554 52.155C10.6058 51.3479 10.6914 50.4988 10.6072 49.658C10.3345 48.5983 9.31676 48.336 8.51938 47.7694C7.87938 47.3078 9.04397 45.8284 9.04397 45.8284C9.04397 45.8284 7.80594 44.9157 7.36528 44.517C6.90364 44.1393 7.54364 43.4888 8.13118 42.2612C8.36929 41.7282 8.43884 41.1352 8.33053 40.5616C8.1102 39.4389 6.40004 39.0088 5.56069 38.3898C5.1725 38.096 4.5325 37.6553 4.45905 37.1202C4.34364 36.3753 5.22495 35.3261 5.65512 34.8016C7.48546 32.4428 9.05443 29.8923 10.3345 27.195C10.5024 26.9103 10.6029 26.5908 10.6282 26.2612C10.6072 24.7609 8.43545 24.1419 8.22561 22.6835C8.20328 22.255 8.28236 21.8272 8.45643 21.435C9.06146 20.149 9.58021 18.8241 10.0092 17.4691C10.2625 16.225 10.5954 14.9984 11.0059 13.797C11.8858 11.3835 13.2416 9.17142 14.9928 7.29205C17.5633 4.57467 21.3613 3.23172 24.9495 2.51828C27.6099 1.94379 30.2999 1.51648 33.0072 1.23828C37.8043 1.92995 42.3094 3.95891 46.0066 7.09271C48.8483 9.20447 50.9254 12.1839 51.924 15.5806C52.6848 18.3833 53.0416 21.2803 52.9836 24.1839C52.9635 27.0514 52.1265 29.8538 50.5705 32.2625C49.0072 34.7281 46.9509 36.8684 45.7758 39.5648Z" fill="#E8EDFC"/>
<path id="Shape_4" d="M51.9344 27.9618V33.5749C51.9351 34.6998 51.3355 35.7395 50.3615 36.3022C49.3875 36.865 48.1872 36.8652 47.2131 36.3028C46.977 36.1613 46.7586 35.9923 46.5626 35.7991C45.9715 35.2099 45.6392 34.4095 45.6393 33.5749V24.9611C45.6466 23.764 46.3821 22.6919 47.4964 22.2542C47.8795 22.0998 48.29 22.0248 48.7029 22.0339H48.7868C52.4641 22.0842 55.5932 19.366 56.0577 15.7178C56.3554 13.6118 55.7255 11.4801 54.3309 9.87411C52.9362 8.26815 50.9139 7.3457 48.7868 7.34538C48.2579 7.34709 47.7305 7.40334 47.2131 7.51325C44.6338 8.08108 42.5561 9.98666 41.7678 12.5073C41.3586 13.8126 40.1455 14.6979 38.7777 14.6896C38.2236 14.6933 37.6791 14.5445 37.2039 14.2595C36.2306 13.6906 35.6317 12.6485 35.6301 11.5211C35.6319 11.1897 35.685 10.8606 35.7875 10.5454C37.4189 5.43112 41.9002 1.75074 47.2341 1.14472C48.2653 1.02047 49.3076 1.01695 50.3396 1.13423C56.9281 1.88124 62.0249 7.25835 62.4184 13.8774C62.8118 20.4964 58.388 26.4395 51.9344 27.9618Z" fill="#7FACFA"/>
<path id="Shape_5" d="M51.9344 44.0655C51.9344 45.8038 50.5252 47.2131 48.7868 47.2131C47.0485 47.2131 45.6393 45.8038 45.6393 44.0655C45.6393 42.3272 47.0485 40.918 48.7868 40.918C50.5252 40.918 51.9344 42.3272 51.9344 44.0655Z" fill="#7FACFA"/>
<path id="Shape_6" d="M48.7868 27.9616V33.5747C48.7876 34.6999 48.1876 35.7399 47.2131 36.3026C46.977 36.1611 46.7586 35.9921 46.5626 35.799C45.9715 35.2097 45.6392 34.4094 45.6393 33.5747V24.9609C45.6466 23.7638 46.3821 22.6917 47.4964 22.254C47.8795 22.0996 48.29 22.0246 48.7029 22.0337H48.7868C52.4641 22.084 55.5932 19.3658 56.0577 15.7176C56.3554 13.6116 55.7255 11.4799 54.3309 9.87391C52.9362 8.26796 50.9139 7.34551 48.7868 7.34519C48.2579 7.3469 47.7305 7.40315 47.2131 7.51306C46.6957 7.40315 46.1683 7.3469 45.6393 7.34519C42.423 7.34708 39.5805 9.43751 38.6203 12.5072C38.3973 13.2549 37.8883 13.8845 37.2039 14.2593C36.2306 13.6904 35.6317 12.6483 35.6301 11.5209C35.6319 11.1895 35.685 10.8604 35.7875 10.5452C37.4189 5.43093 41.9002 1.75055 47.2341 1.14453C53.8053 1.91808 58.8735 7.29637 59.256 13.9019C59.6385 20.5074 55.2249 26.4348 48.7868 27.9616Z" fill="#A4C2F7"/>
<path id="Shape_7" d="M48.7869 44.0658C48.7876 45.191 48.1876 46.231 47.2131 46.7936C46.2373 46.2319 45.6359 45.1917 45.6359 44.0658C45.6359 42.9398 46.2373 41.8996 47.2131 41.3379C48.1876 41.9005 48.7876 42.9405 48.7869 44.0658Z" fill="#A4C2F7"/>
<path id="Shape_8" d="M4.60059 21.0613C5.04124 19.9166 5.57213 18.9199 5.90262 17.9484C5.98445 17.7071 6.0558 17.4679 6.11245 17.2307L6.30655 16.4008C6.4377 15.8427 6.57514 15.274 6.73881 14.7012C7.41078 12.3918 8.48829 10.2204 9.92098 8.28858C10.3652 7.68961 10.8441 7.11718 11.3552 6.57422L12.8807 8.01369C12.4265 8.49736 12.0009 9.00708 11.606 9.54025C10.3246 11.2688 9.35987 13.2108 8.75639 15.2761C8.60845 15.8007 8.47836 16.3326 8.34931 16.8814L8.15521 17.7113C8.07967 18.026 7.98839 18.3334 7.88767 18.6293C7.47849 19.8117 6.93291 20.8326 6.56255 21.8083L4.60059 21.0613Z" fill="white"/>
<path id="Shape_9" d="M7.35783 16.5129C6.79806 16.3855 6.23899 16.7284 6.09882 17.2851C5.67479 18.5727 5.17449 19.834 4.60059 21.0621L6.56255 21.8092C7.17356 20.503 7.69926 19.1586 8.13632 17.7845C8.20314 17.5126 8.15847 17.2252 8.01225 16.9863C7.86604 16.7475 7.63042 16.5771 7.35783 16.5129Z" fill="#428DFF"/>
<path id="Shape_10" d="M12.8808 8.01174L11.3553 6.57227C10.8441 7.1159 10.3652 7.68904 9.92105 8.28872C9.69932 8.58529 9.48739 8.88816 9.28525 9.19731C9.12344 9.43219 9.06646 9.72373 9.12793 10.0022C9.1894 10.2808 9.3638 10.5212 9.60944 10.6662C10.095 10.9498 10.717 10.8128 11.0384 10.3514C11.2189 10.0716 11.4081 9.80129 11.606 9.5404C12.0009 9.0065 12.4265 8.49608 12.8808 8.01174Z" fill="#428DFF"/>
<path id="Shape_11" d="M7.26864 13.1158C7.16471 13.3871 7.17073 13.6883 7.28543 13.9552L7.39035 14.1294C7.43301 14.1865 7.48352 14.2374 7.54038 14.2804C7.58774 14.3274 7.64184 14.367 7.70091 14.3979C7.76345 14.4304 7.82833 14.4581 7.895 14.4808C8.15974 14.5586 8.44349 14.5396 8.69553 14.4273C8.81324 14.3682 8.91975 14.289 9.01028 14.1934C9.2852 13.8982 9.36306 13.47 9.20963 13.097C9.15339 12.9724 9.07521 12.8591 8.97881 12.7623C8.88441 12.6626 8.77189 12.5817 8.64727 12.5241C8.39147 12.4121 8.10173 12.4061 7.8415 12.5073C7.57889 12.6282 7.3735 12.8464 7.26864 13.1158Z" fill="#428DFF"/>
<path id="Shape_12" d="M10.5033 57.7045C8.77265 57.672 7.26701 56.511 6.79552 54.8455C6.46429 53.9425 6.34615 52.9752 6.45034 52.019C6.48601 51.743 6.54581 51.4619 6.60772 51.1796C6.7351 50.7728 6.77093 50.3429 6.71263 49.9206C6.62765 49.5912 6.38529 49.4265 5.76837 49.0739C5.52391 48.9344 5.27526 48.7917 5.04234 48.628C4.70109 48.3848 4.47585 48.011 4.42018 47.5956C4.37977 47.0682 4.49856 46.5408 4.76116 46.0817C4.40444 45.8078 4.01309 45.4994 3.78647 45.2948C2.81703 44.5027 3.46018 43.3653 3.84418 42.6865C3.98582 42.4379 4.14949 42.1493 4.30582 41.8136C4.45018 41.4805 4.49182 41.1119 4.42542 40.755C4.37191 40.4832 3.61126 40.095 3.15801 39.8632C2.77818 39.6839 2.41391 39.4733 2.06896 39.2337C1.31639 38.809 0.767096 38.0985 0.545553 37.2633C0.377684 36.1827 1.17506 35.1031 1.93572 34.1766C3.73045 31.8626 5.26946 29.3611 6.52588 26.7159C6.60665 26.5734 6.6667 26.42 6.70424 26.2606C6.70424 25.972 6.36326 25.6405 5.85021 25.1705C5.07532 24.5976 4.53266 23.7648 4.32155 22.8245C4.26167 22.2257 4.35706 21.6215 4.59854 21.0703C4.72152 20.7093 5.03071 20.4434 5.40608 20.3759C5.78145 20.3085 6.16387 20.45 6.40486 20.7456C6.64585 21.0412 6.70745 21.4443 6.56575 21.7984C6.46319 22.0275 6.40652 22.2745 6.39893 22.5255C6.44614 22.8675 6.84588 23.2347 7.26975 23.624C8.13537 24.236 8.69423 25.1923 8.8026 26.2469C8.78304 26.7449 8.64453 27.2309 8.39867 27.6644C7.08349 30.4296 5.47232 33.044 3.59342 35.4619C2.79395 36.4345 2.62818 36.8258 2.62293 36.98C2.81723 37.168 3.0279 37.3383 3.25244 37.4889C3.52666 37.6799 3.81616 37.848 4.11801 37.9914C5.01191 38.4489 6.23841 39.0763 6.49021 40.3563C6.63988 41.1492 6.54209 41.9689 6.21008 42.7044C6.02647 43.0926 5.83867 43.4283 5.67395 43.7168C5.62254 43.8081 5.56903 43.9088 5.51657 44.0001C5.95093 44.3505 6.54477 44.7954 6.79657 44.98C7.02574 45.1495 7.17612 45.4049 7.21313 45.6874C7.25014 45.97 7.17058 46.2555 6.99277 46.4783C6.8374 46.6808 6.70212 46.8979 6.58883 47.1267L6.80601 47.2505C7.73475 47.6498 8.44394 48.4333 8.74909 49.3971C8.90296 50.1375 8.8716 50.9044 8.65781 51.6297C8.60955 51.849 8.55919 52.0672 8.53191 52.2876C8.47054 52.9221 8.55487 53.5623 8.77847 54.1593C9.00693 55.1292 9.96053 55.7457 10.9387 55.5558C13.9964 54.821 17.0091 53.9102 19.9617 52.8279C20.5093 52.6376 21.1075 52.9271 21.2978 53.4747C21.4882 54.0223 21.1986 54.6205 20.651 54.8109C17.6144 55.9238 14.515 56.8574 11.3689 57.6069C11.0845 57.6692 10.7944 57.7019 10.5033 57.7045ZM5.1525 43.7074L5.18608 43.7378C5.17639 43.7259 5.16588 43.7147 5.1546 43.7042L5.1525 43.7074Z" fill="#428DFF"/>
<path id="Shape_13" d="M12.118 8.34042C11.699 8.34056 11.32 8.09131 11.1542 7.70646C10.9883 7.3216 11.0674 6.87497 11.3553 6.57045C13.7013 4.09124 17.1394 2.42934 21.8702 1.48822C25.213 0.755472 28.6049 0.268747 32.0189 0.0319593C35.6015 -0.0758862 39.1704 0.519006 42.5243 1.78304C43.045 2.00029 43.3006 2.59036 43.103 3.11878C42.9054 3.64719 42.3254 3.92476 41.7899 3.74711C38.7071 2.58202 35.4265 2.03031 32.1322 2.12298C28.8194 2.35679 25.5281 2.83229 22.2846 3.54566C18.0501 4.38501 14.8868 5.89058 12.8798 8.01202C12.6817 8.22147 12.4063 8.34023 12.118 8.34042Z" fill="#428DFF"/>
<path id="Shape_14" d="M25.4741 62.9506C24.9909 62.9504 24.5703 62.6204 24.4553 62.1511C24.0482 60.4923 22.4314 55.9357 19.8693 54.7785C19.4769 54.6011 19.2327 54.2019 19.2536 53.7717C19.2744 53.3415 19.556 52.9678 19.9638 52.8291C21.057 52.4577 22.0485 52.1115 22.828 51.8387C23.5551 51.5848 24.1028 51.3938 24.3871 51.3026C28.7486 49.9229 29.633 48.3481 29.6078 47.2685C29.5942 46.689 30.0529 46.2082 30.6324 46.1946C31.2118 46.181 31.6926 46.6397 31.7062 47.2191C31.767 49.8337 29.5197 51.8807 25.025 53.3044C24.7533 53.3915 24.2234 53.5761 23.5205 53.8216L22.5762 54.1521C24.308 56.0701 25.5714 58.3635 26.2672 60.8522L50.0648 60.7861L49.9945 60.6812C49.6924 60.2432 49.4207 59.785 49.1813 59.3099C48.66 58.2519 48.2245 57.1538 47.8793 56.026C47.2434 53.8782 46.8016 51.6776 46.5594 49.4508C46.4724 48.6107 46.4279 47.7668 46.4262 46.9222C46.4262 46.3428 46.8959 45.873 47.4754 45.873C48.0548 45.873 48.5246 46.3428 48.5246 46.9222C48.5246 47.6388 48.5781 48.6597 48.6431 49.1979C48.8694 51.3003 49.2848 53.3781 49.8843 55.4059C50.1975 56.4317 50.5936 57.4303 51.0688 58.3919C51.2693 58.7851 51.4961 59.1644 51.7476 59.5271C52.1933 60.1386 52.5511 60.8097 52.8105 61.5205C52.9106 61.8389 52.8533 62.1859 52.6561 62.4552C52.4589 62.7244 52.1454 62.8838 51.8116 62.8845L25.4772 62.9579L25.4741 62.9506Z" fill="#428DFF"/>
<path id="Shape_15" d="M11.22 19.4795C11.1398 19.4797 11.0599 19.4706 10.9818 19.4522C10.4179 19.3207 10.0671 18.7573 10.1981 18.1932L10.303 17.7389C10.506 16.7771 10.7656 15.828 11.0804 14.8967C11.81 12.8776 12.9402 11.0269 14.4032 9.45564C16.0112 7.90517 17.9918 6.79545 20.1537 6.23361C20.5149 6.11552 20.9117 6.20196 21.1911 6.45958C21.4704 6.71721 21.5886 7.10574 21.5001 7.47529C21.4116 7.84483 21.1301 8.13762 20.7644 8.24069C18.9528 8.70009 17.2884 9.61407 15.9287 10.8962C14.6609 12.2602 13.6813 13.866 13.0487 15.6175C12.7673 16.4632 12.534 17.3242 12.3499 18.1964L12.245 18.6632C12.1361 19.1415 11.7104 19.4805 11.22 19.4795Z" fill="#A4C2F7"/>
<path id="Oval" d="M9.96715 23.0827C10.5466 23.0827 11.0163 22.613 11.0163 22.0336C11.0163 21.4541 10.5466 20.9844 9.96715 20.9844C9.3877 20.9844 8.91797 21.4541 8.91797 22.0336C8.91797 22.613 9.3877 23.0827 9.96715 23.0827Z" fill="#A4C2F7"/>
<path id="Shape_16" d="M48.7869 37.7707C46.4691 37.7707 44.5902 35.8918 44.5902 33.574V24.9602C44.5871 23.9097 45.0072 22.9022 45.7558 22.1652C46.5513 21.4023 47.6123 20.9786 48.7145 20.9838C51.1975 21.0128 53.4656 19.5794 54.505 17.3242C55.5444 15.069 55.161 12.4135 53.526 10.5445C52.0246 8.82891 49.7136 8.05825 47.483 8.52934C45.2524 9.00044 43.4503 10.6398 42.7709 12.816C42.2938 14.3199 41.0121 15.4281 39.455 15.6829C37.898 15.9377 36.3299 15.2959 35.3983 14.0225C34.5943 12.9291 34.3662 11.5153 34.7856 10.2245C36.9116 3.5675 43.4334 -0.669967 50.3799 0.092232C57.3265 0.854431 62.7743 6.40523 63.4062 13.3648C64.0382 20.3245 59.6793 26.7657 52.9836 28.7667V33.574C52.9836 35.8918 51.1047 37.7707 48.7869 37.7707ZM48.7523 23.0822C48.1884 23.0593 47.6396 23.2669 47.232 23.6572C46.8827 24.0006 46.6868 24.4704 46.6885 24.9602V33.574C46.6885 34.7329 47.628 35.6724 48.7869 35.6724C49.9458 35.6724 50.8852 34.7329 50.8852 33.574V27.9609C50.8855 27.4742 51.2204 27.0515 51.6942 26.94C57.8578 25.4569 61.969 19.637 61.3068 13.3322C60.6726 7.41033 55.9757 2.74294 50.05 2.14603C44.1243 1.54913 38.5909 5.18601 36.7885 10.8624C36.5749 11.5152 36.6893 12.2309 37.0959 12.7845C37.5594 13.4171 38.3383 13.7368 39.1126 13.6122C39.8869 13.4877 40.5262 12.9399 40.768 12.1938C41.6727 9.29122 44.0754 7.10417 47.05 6.47564C50.0246 5.84711 53.1067 6.87526 55.1082 9.16378C56.7061 11.0015 57.4328 13.4396 57.1016 15.8523C56.5613 20.0204 52.9896 23.1261 48.7869 23.0822H48.7523Z" fill="#428DFF"/>
<path id="Shape_17" d="M48.7868 48.2626C46.469 48.2626 44.5901 46.3836 44.5901 44.0659C44.5901 41.7481 46.469 39.8691 48.7868 39.8691C51.1046 39.8691 52.9835 41.7481 52.9835 44.0659C52.9835 46.3836 51.1046 48.2626 48.7868 48.2626ZM48.7868 41.9675C47.6279 41.9675 46.6884 42.907 46.6884 44.0659C46.6884 45.2248 47.6279 46.1642 48.7868 46.1642C49.9457 46.1642 50.8852 45.2248 50.8852 44.0659C50.8852 42.907 49.9457 41.9675 48.7868 41.9675Z" fill="#428DFF"/>
</g>
</g>
</g>
</svg>
