<svg width="64" height="64" viewBox="0 0 64 64" fill="none" xmlns="http://www.w3.org/2000/svg">
<g clip-path="url(#clip0_19187_89567)">
<path d="M62.9336 5.33307V11.7331H32.0002C30.8235 11.7296 29.8704 10.7765 29.8669 9.59974V7.46641C29.8634 6.28966 28.9103 5.33659 27.7336 5.33307H1.06689C1.06689 2.97666 2.97715 1.06641 5.33356 1.06641H58.6669C61.0233 1.06641 62.9336 2.97666 62.9336 5.33307Z" fill="#A4C2F7"/>
<path d="M58.6668 1.06641H55.4668C57.8232 1.06641 59.7335 2.97666 59.7335 5.33307V11.7331H62.9335V5.33307C62.9335 2.97666 61.0232 1.06641 58.6668 1.06641Z" fill="#7FACFA"/>
<path d="M62.9336 11.734V16.0007H1.06689V5.33398H27.7336C28.9103 5.3375 29.8634 6.29057 29.8669 7.46732V9.60065C29.8704 10.7774 30.8235 11.7305 32.0002 11.734H62.9336Z" fill="#E8EDFC"/>
<path d="M59.7334 11.7324H62.9334V15.9991H59.7334V11.7324Z" fill="#CAD9FC"/>
<path d="M62.9336 16V52.2667C62.9336 54.6231 61.0233 56.5333 58.6669 56.5333H5.33356C2.97715 56.5333 1.06689 54.6231 1.06689 52.2667V16H62.9336Z" fill="#E8EDFC"/>
<path d="M59.7335 16V52.2667C59.7335 54.6231 57.8232 56.5333 55.4668 56.5333H58.6668C61.0232 56.5333 62.9335 54.6231 62.9335 52.2667V16H59.7335Z" fill="#CAD9FC"/>
<path d="M37.3335 36.266V38.3993C37.3335 43.7013 33.0354 47.9993 27.7335 47.9993H14.9335C9.63156 47.9993 5.3335 43.7013 5.3335 38.3993V36.266C5.3335 30.9641 9.63156 26.666 14.9335 26.666H27.7335C33.0318 26.6748 37.3247 30.9677 37.3335 36.266Z" fill="#E8EDFC"/>
<path d="M34.1337 29.1194C32.3773 27.538 30.0971 26.6639 27.7337 26.666L24.5337 26.666C29.832 26.6748 34.1249 30.9677 34.1337 36.266V38.3994C34.1337 43.7013 29.8356 47.9994 24.5337 47.9994H27.7337C33.0356 47.9994 37.3337 43.7013 37.3337 38.3994V36.266C37.3366 33.5361 36.1721 30.9352 34.1337 29.1194Z" fill="#CAD9FC"/>
<path d="M14.9337 48H27.7337C31.2683 48 34.1337 50.8654 34.1337 54.4V57.6C34.1337 60.5455 31.7459 62.9333 28.8004 62.9333H13.867C10.9215 62.9333 8.53369 60.5455 8.53369 57.6V54.4C8.53369 50.8654 11.3991 48 14.9337 48Z" fill="#E8EDFC"/>
<path d="M27.7337 48H24.5337C28.0683 48 30.9337 50.8654 30.9337 54.4V57.6C30.9337 60.5455 28.5459 62.9333 25.6004 62.9333H28.8004C31.7459 62.9333 34.1337 60.5455 34.1337 57.6V54.4C34.1337 50.8654 31.2683 48 27.7337 48Z" fill="#CAD9FC"/>
<path d="M58.6671 23.4656V36.2656C58.6671 38.0329 57.2344 39.4656 55.4671 39.4656H50.1765L43.3605 44.575C43.0283 44.8263 42.5826 44.868 42.2096 44.6827C41.8366 44.4973 41.6007 44.1168 41.6005 43.7003V39.4656H37.2698C37.3127 39.1117 37.3341 38.7555 37.3338 38.399V36.2656C37.3367 33.5357 36.1722 30.9348 34.1338 29.119V23.4656C34.1338 21.6983 35.5665 20.2656 37.3338 20.2656H55.4671C57.2344 20.2656 58.6671 21.6983 58.6671 23.4656Z" fill="#A4C2F7"/>
<path d="M55.4671 20.2656H52.2671C54.0344 20.2656 55.4671 21.6983 55.4671 23.4656V36.2656C55.4671 38.0329 54.0344 39.4656 52.2671 39.4656H55.4671C57.2344 39.4656 58.6671 38.0329 58.6671 36.2656V23.4656C58.6671 21.6983 57.2344 20.2656 55.4671 20.2656Z" fill="#7FACFA"/>
<path d="M27.7334 30.9336H14.9334C11.9879 30.9336 9.6001 33.3214 9.6001 36.2669V38.4003C9.6001 41.3458 11.9879 43.7336 14.9334 43.7336H27.7334C30.679 43.7336 33.0668 41.3458 33.0668 38.4003V36.2669C33.0668 33.3214 30.679 30.9336 27.7334 30.9336Z" fill="#A4C2F7"/>
<path d="M4.26689 52.2664V5.33307C4.26689 2.97666 6.17715 1.06641 8.53356 1.06641H5.33356C2.97715 1.06641 1.06689 2.97666 1.06689 5.33307V52.2664C1.06689 54.6228 2.97715 56.5331 5.33356 56.5331H8.53356C6.17715 56.5331 4.26689 54.6228 4.26689 52.2664Z" fill="white"/>
<path d="M0 43.7324H2.13333V52.2658H0V43.7324Z" fill="white"/>
<path d="M18.1335 9.59961H6.40016C5.81106 9.59961 5.3335 10.0772 5.3335 10.6663C5.3335 11.2554 5.81106 11.7329 6.40016 11.7329H18.1335C18.7226 11.7329 19.2002 11.2554 19.2002 10.6663C19.2002 10.0772 18.7226 9.59961 18.1335 9.59961Z" fill="#428DFF"/>
<path d="M26.354 8.84551C25.9375 8.4291 25.2623 8.4291 24.8457 8.84551L24.5332 9.15804L24.2207 8.84551C23.8021 8.44127 23.1368 8.44705 22.7254 8.8585C22.3139 9.26995 22.3081 9.93524 22.7124 10.3538L23.0249 10.6663L22.7124 10.9788C22.4351 11.2467 22.3239 11.6432 22.4215 12.0162C22.5191 12.3891 22.8104 12.6804 23.1833 12.778C23.5562 12.8756 23.9528 12.7644 24.2207 12.4871L24.5332 12.1746L24.8457 12.4871C25.2643 12.8913 25.9295 12.8856 26.341 12.4741C26.7524 12.0627 26.7582 11.3974 26.354 10.9788L26.0415 10.6663L26.354 10.3538C26.7704 9.93724 26.7704 9.26204 26.354 8.84551Z" fill="#428DFF"/>
<path d="M56.5335 7.46732C57.1226 7.46732 57.6001 6.98975 57.6001 6.40065C57.6001 5.81155 57.1226 5.33398 56.5335 5.33398C55.9444 5.33398 55.4668 5.81155 55.4668 6.40065C55.4668 6.98975 55.9444 7.46732 56.5335 7.46732Z" fill="#428DFF"/>
<path d="M52.2669 7.46732C52.856 7.46732 53.3335 6.98975 53.3335 6.40065C53.3335 5.81155 52.856 5.33398 52.2669 5.33398C51.6778 5.33398 51.2002 5.81155 51.2002 6.40065C51.2002 6.98975 51.6778 7.46732 52.2669 7.46732Z" fill="#428DFF"/>
<path d="M47.9998 7.46732C48.5889 7.46732 49.0664 6.98975 49.0664 6.40065C49.0664 5.81155 48.5889 5.33398 47.9998 5.33398C47.4107 5.33398 46.9331 5.81155 46.9331 6.40065C46.9331 6.98975 47.4107 7.46732 47.9998 7.46732Z" fill="#428DFF"/>
<path d="M1.06667 49.0669C1.65577 49.0669 2.13333 48.5894 2.13333 48.0003C2.13333 47.4112 1.65577 46.9336 1.06667 46.9336C0.477563 46.9336 0 47.4112 0 48.0003C0 48.5894 0.477563 49.0669 1.06667 49.0669Z" fill="#428DFF"/>
<path d="M58.6667 0H5.33333C2.38928 0.00352653 0.00352653 2.38928 0 5.33333V43.7333C0 44.3224 0.477563 44.8 1.06667 44.8C1.65577 44.8 2.13333 44.3224 2.13333 43.7333V17.0667H61.8667V52.2667C61.8667 54.034 60.434 55.4667 58.6667 55.4667H35.2V54.4C35.199 51.9192 33.9659 49.6008 31.9093 48.2133C35.1334 46.8361 37.4785 43.967 38.1867 40.5333H40.5333V43.7013C40.5335 44.5219 40.9977 45.2717 41.7321 45.6378C42.4665 46.0038 43.3447 45.9231 44 45.4293L50.5312 40.5333H55.4667C57.8231 40.5333 59.7333 38.6231 59.7333 36.2667V23.4667C59.7333 21.1103 57.8231 19.2 55.4667 19.2H37.3333C34.9769 19.2 33.0667 21.1103 33.0667 23.4667V27.0432C31.4479 26.0987 29.6075 25.6007 27.7333 25.6H14.9333C9.04498 25.6065 4.27313 30.3783 4.26667 36.2667V38.4C4.2711 42.6754 6.82467 46.5362 10.7573 48.2133C8.70078 49.6008 7.46767 51.9192 7.46667 54.4V55.4667H5.33333C3.56602 55.4667 2.13333 54.034 2.13333 52.2667C2.13333 51.6776 1.65577 51.2 1.06667 51.2C0.477563 51.2 0 51.6776 0 52.2667C0.00352653 55.2107 2.38928 57.5965 5.33333 57.6H7.46667C7.47019 61.1332 10.3335 63.9965 13.8667 64H28.8C32.3332 63.9965 35.1965 61.1332 35.2 57.6H58.6667C61.6107 57.5965 63.9965 55.2107 64 52.2667V5.33333C63.9965 2.38928 61.6107 0.00352653 58.6667 0ZM35.2 23.4667C35.2 22.2885 36.1551 21.3333 37.3333 21.3333H55.4667C56.6449 21.3333 57.6 22.2885 57.6 23.4667V36.2667C57.6 37.4449 56.6449 38.4 55.4667 38.4H48C47.4109 38.4 46.9333 38.8776 46.9333 39.4667C46.9359 39.7744 47.0731 40.0656 47.3088 40.2635L42.6667 43.7013V40.5333H43.7333C44.3224 40.5333 44.8 40.0558 44.8 39.4667C44.8 38.8776 44.3224 38.4 43.7333 38.4H38.4V36.2667C38.4008 33.4044 37.2471 30.6629 35.2 28.6624V23.4667ZM6.4 38.4V36.2667C6.40529 31.556 10.2227 27.7386 14.9333 27.7333H27.7333C32.444 27.7386 36.2614 31.556 36.2667 36.2667V38.4C36.2614 43.1106 32.444 46.928 27.7333 46.9333H14.9333C10.2227 46.928 6.40529 43.1106 6.4 38.4ZM33.0667 57.6C33.0667 59.9564 31.1564 61.8667 28.8 61.8667V55.4667C28.8 54.8776 28.3224 54.4 27.7333 54.4C27.1442 54.4 26.6667 54.8776 26.6667 55.4667V61.8667H16V55.4667C16 54.8776 15.5224 54.4 14.9333 54.4C14.3442 54.4 13.8667 54.8776 13.8667 55.4667V61.8667C11.5103 61.8667 9.6 59.9564 9.6 57.6V54.4C9.60353 51.4559 11.9893 49.0702 14.9333 49.0667H27.7333C30.6774 49.0702 33.0631 51.4559 33.0667 54.4V57.6ZM5.33333 2.13333H58.6667C60.434 2.13333 61.8667 3.56602 61.8667 5.33333V10.6667H32C31.4109 10.6667 30.9333 10.1891 30.9333 9.6V7.46667C30.9333 5.69936 29.5006 4.26667 27.7333 4.26667H2.3296C2.78 2.99269 3.9821 2.13893 5.33333 2.13333ZM2.13333 14.9333V6.4H27.7333C28.3224 6.4 28.8 6.87756 28.8 7.46667V9.6C28.8 11.3673 30.2327 12.8 32 12.8H61.8667V14.9333H2.13333Z" fill="#428DFF"/>
<path d="M14.9334 34.1328C14.3443 34.1328 13.8667 34.6104 13.8667 35.1995V37.3328C13.8667 37.9219 14.3443 38.3995 14.9334 38.3995C15.5225 38.3995 16 37.9219 16 37.3328V35.1995C16 34.6104 15.5225 34.1328 14.9334 34.1328Z" fill="#428DFF"/>
<path d="M28.7998 37.3328V35.1995C28.7998 34.6104 28.3223 34.1328 27.7332 34.1328C27.1441 34.1328 26.6665 34.6104 26.6665 35.1995V37.3328C26.6665 37.9219 27.1441 38.3995 27.7332 38.3995C28.3223 38.3995 28.7998 37.9219 28.7998 37.3328Z" fill="#428DFF"/>
<path d="M23.4666 38.4004H19.2C18.6109 38.4004 18.1333 38.878 18.1333 39.4671C18.1333 40.0562 18.6109 40.5337 19.2 40.5337H23.4666C24.0557 40.5337 24.5333 40.0562 24.5333 39.4671C24.5333 38.878 24.0557 38.4004 23.4666 38.4004Z" fill="#428DFF"/>
<path d="M34.1332 38.4005V36.2672C34.1297 32.734 31.2664 29.8707 27.7332 29.8672H14.9332C11.4 29.8707 8.53673 32.734 8.5332 36.2672V38.4005C8.53673 41.9337 11.4 44.797 14.9332 44.8005H27.7332C31.2664 44.797 34.1297 41.9337 34.1332 38.4005ZM10.6665 38.4005V36.2672C10.6665 33.9108 12.5768 32.0005 14.9332 32.0005H27.7332C30.0896 32.0005 31.9999 33.9108 31.9999 36.2672V38.4005C31.9999 40.7569 30.0896 42.6672 27.7332 42.6672H14.9332C12.5768 42.6672 10.6665 40.7569 10.6665 38.4005Z" fill="#428DFF"/>
<path d="M39.4666 25.6001H44.7999C45.389 25.6001 45.8666 25.1226 45.8666 24.5335C45.8666 23.9444 45.389 23.4668 44.7999 23.4668H39.4666C38.8775 23.4668 38.3999 23.9444 38.3999 24.5335C38.3999 25.1226 38.8775 25.6001 39.4666 25.6001Z" fill="#428DFF"/>
<path d="M39.4668 29.8674C39.4668 30.4566 39.9444 30.9341 40.5335 30.9341H53.3335C53.9226 30.9341 54.4001 30.4566 54.4001 29.8674C54.4001 29.2783 53.9226 28.8008 53.3335 28.8008H40.5335C39.9444 28.8008 39.4668 29.2783 39.4668 29.8674Z" fill="#428DFF"/>
<path d="M53.3332 33.0664H41.5999C41.0108 33.0664 40.5332 33.544 40.5332 34.1331C40.5332 34.7222 41.0108 35.1997 41.5999 35.1997H53.3332C53.9223 35.1997 54.3999 34.7222 54.3999 34.1331C54.3999 33.544 53.9223 33.0664 53.3332 33.0664Z" fill="#428DFF"/>
</g>
<defs>
<clipPath id="clip0_19187_89567">
<rect width="64" height="64" fill="white"/>
</clipPath>
</defs>
</svg>
