<svg width="65" height="64" viewBox="0 0 65 64" fill="none" xmlns="http://www.w3.org/2000/svg">
<g clip-path="url(#clip0_19187_88872)">
<path d="M63.6001 48V59.7333C63.6001 60.582 63.2629 61.396 62.6628 61.9961C62.0627 62.5962 61.2488 62.9333 60.4001 62.9333H4.9334C4.08471 62.9333 3.27077 62.5962 2.67066 61.9961C2.07054 61.396 1.7334 60.582 1.7334 59.7333V48H63.6001Z" fill="#C6D8FB"/>
<path d="M60.3997 48V59.7333C60.3997 60.582 60.0626 61.396 59.4624 61.9961C58.8623 62.5962 58.0484 62.9333 57.1997 62.9333H60.3997C61.2484 62.9333 62.0623 62.5962 62.6624 61.9961C63.2626 61.396 63.5997 60.582 63.5997 59.7333V48H60.3997Z" fill="#A4C3FD"/>
<path d="M63.6001 4.26641V47.9997H1.7334V4.26641C1.7334 3.41771 2.07054 2.60378 2.67066 2.00366C3.27077 1.40355 4.08471 1.06641 4.9334 1.06641H60.4001C61.2488 1.06641 62.0627 1.40355 62.6628 2.00366C63.2629 2.60378 63.6001 3.41771 63.6001 4.26641Z" fill="#E8EDFC"/>
<path d="M60.3997 1.06641H57.1997C58.0484 1.06641 58.8623 1.40355 59.4624 2.00366C60.0626 2.60378 60.3997 3.41771 60.3997 4.26641V47.9997H63.5997V4.26641C63.5997 3.41771 63.2626 2.60378 62.6624 2.00366C62.0623 1.40355 61.2484 1.06641 60.3997 1.06641Z" fill="#CAD9FC"/>
<path d="M20.9331 57.6007C22.1113 57.6007 23.0665 56.6455 23.0665 55.4673C23.0665 54.2891 22.1113 53.334 20.9331 53.334C19.7549 53.334 18.7998 54.2891 18.7998 55.4673C18.7998 56.6455 19.7549 57.6007 20.9331 57.6007Z" fill="#E8EDFC"/>
<path d="M59.3329 19.2V34.1333C59.3329 34.982 58.9958 35.796 58.3957 36.3961C57.7956 36.9962 56.9816 37.3333 56.1329 37.3333H53.9996V42.3253C54.012 42.5806 53.9507 42.834 53.823 43.0553C53.6953 43.2766 53.5065 43.4565 53.2793 43.5735C53.0521 43.6905 52.7961 43.7396 52.5417 43.715C52.2874 43.6904 52.0455 43.593 51.8449 43.4347L44.3996 37.3333H34.7996C33.9509 37.3333 33.137 36.9962 32.5369 36.3961C31.9368 35.796 31.5996 34.982 31.5996 34.1333V19.2C31.6015 18.5398 31.8075 17.8963 32.1894 17.3578C32.5713 16.8193 33.1105 16.4121 33.7329 16.192C34.0745 16.066 34.4356 16.0011 34.7996 16H56.1329C56.9816 16 57.7956 16.3371 58.3957 16.9373C58.9958 17.5374 59.3329 18.3513 59.3329 19.2Z" fill="#E8EDFC"/>
<path d="M56.1333 16H52.9333C53.782 16 54.5959 16.3371 55.196 16.9373C55.7962 17.5374 56.1333 18.3513 56.1333 19.2V34.1333C56.1333 34.982 55.7962 35.796 55.196 36.3961C54.5959 36.9962 53.782 37.3333 52.9333 37.3333H50.8V42.3253C50.7957 42.4018 50.7854 42.4777 50.769 42.5525L51.8453 43.4347C52.0459 43.593 52.2877 43.6904 52.5421 43.715C52.7964 43.7396 53.0525 43.6905 53.2797 43.5735C53.5069 43.4565 53.6956 43.2766 53.8233 43.0553C53.9511 42.834 54.0124 42.5806 54 42.3253V37.3333H56.1333C56.982 37.3333 57.7959 36.9962 58.396 36.3961C58.9962 35.796 59.3333 34.982 59.3333 34.1333V19.2C59.3333 18.3513 58.9962 17.5374 58.396 16.9373C57.7959 16.3371 56.982 16 56.1333 16Z" fill="#CAD9FC"/>
<path d="M33.7333 8.53398V16.1927C33.1081 16.4084 32.5661 16.8145 32.1835 17.354C31.8009 17.8935 31.5968 18.5393 31.6 19.2007V26.4753C31.2593 26.6045 30.8977 26.6696 30.5333 26.6673H20.9333L13.488 32.7687C13.2875 32.927 13.0456 33.0243 12.7912 33.049C12.5369 33.0736 12.2808 33.0245 12.0536 32.9075C11.8264 32.7905 11.6377 32.6106 11.51 32.3893C11.3822 32.168 11.3209 31.9146 11.3333 31.6593V26.6673H9.2C8.35131 26.6673 7.53737 26.3302 6.93726 25.7301C6.33714 25.1299 6 24.316 6 23.4673V8.53398C6 7.68529 6.33714 6.87136 6.93726 6.27124C7.53737 5.67113 8.35131 5.33398 9.2 5.33398H30.5333C31.382 5.33398 32.196 5.67113 32.7961 6.27124C33.3962 6.87136 33.7333 7.68529 33.7333 8.53398Z" fill="#C6D8FB"/>
<path d="M11.3643 31.8852C11.3901 32.1187 11.4781 32.3409 11.619 32.5288C11.76 32.7166 11.9488 32.8632 12.1657 32.9533C12.3826 33.0434 12.6197 33.0737 12.8522 33.041C13.0848 33.0083 13.3044 32.9138 13.488 32.7673L20.9333 26.666H17.7333L11.3643 31.8852Z" fill="#A4C3FD"/>
<path d="M30.533 5.33398H27.333C28.1817 5.33398 28.9956 5.67113 29.5958 6.27124C30.1959 6.87136 30.533 7.68529 30.533 8.53398V16.1927C29.9078 16.4084 29.3658 16.8145 28.9832 17.354C28.6005 17.8935 28.3965 18.5393 28.3997 19.2007V26.4753C28.059 26.6045 27.6974 26.6696 27.333 26.6673H30.533C30.8974 26.6696 31.259 26.6045 31.5997 26.4753V19.2007C31.5965 18.5393 31.8005 17.8935 32.1832 17.354C32.5658 16.8145 33.1078 16.4084 33.733 16.1927V8.53398C33.733 7.68529 33.3959 6.87136 32.7958 6.27124C32.1956 5.67113 31.3817 5.33398 30.533 5.33398Z" fill="#A4C3FD"/>
<path d="M4.9334 59.7331V4.26641C4.9334 3.41771 5.27054 2.60378 5.87066 2.00366C6.47077 1.40355 7.28471 1.06641 8.1334 1.06641H4.9334C4.08471 1.06641 3.27077 1.40355 2.67066 2.00366C2.07054 2.60378 1.7334 3.41771 1.7334 4.26641V59.7331C1.7334 60.5818 2.07054 61.3957 2.67066 61.9958C3.27077 62.5959 4.08471 62.9331 4.9334 62.9331H8.1334C7.28471 62.9331 6.47077 62.5959 5.87066 61.9958C5.27054 61.3957 4.9334 60.5818 4.9334 59.7331Z" fill="white"/>
<path d="M0.666504 51.1992H2.79984V59.7326H0.666504V51.1992Z" fill="white"/>
<path d="M1.73317 56.5337C2.32227 56.5337 2.79984 56.0562 2.79984 55.4671C2.79984 54.878 2.32227 54.4004 1.73317 54.4004C1.14407 54.4004 0.666504 54.878 0.666504 55.4671C0.666504 56.0562 1.14407 56.5337 1.73317 56.5337Z" fill="#428DFF"/>
<path d="M60.3998 0H4.93317C3.80158 0 2.71634 0.449523 1.91618 1.24968C1.11603 2.04983 0.666504 3.13508 0.666504 4.26667L0.666504 51.2C0.666504 51.4829 0.778885 51.7542 0.978923 51.9543C1.17896 52.1543 1.45027 52.2667 1.73317 52.2667C2.01607 52.2667 2.28738 52.1543 2.48742 51.9543C2.68746 51.7542 2.79984 51.4829 2.79984 51.2V49.0667H62.5332V59.7333C62.5332 60.2991 62.3084 60.8418 61.9083 61.2418C61.5083 61.6419 60.9656 61.8667 60.3998 61.8667H4.93317C4.36738 61.8667 3.82475 61.6419 3.42468 61.2418C3.0246 60.8418 2.79984 60.2991 2.79984 59.7333C2.79984 59.4504 2.68746 59.1791 2.48742 58.9791C2.28738 58.779 2.01607 58.6667 1.73317 58.6667C1.45027 58.6667 1.17896 58.779 0.978923 58.9791C0.778885 59.1791 0.666504 59.4504 0.666504 59.7333C0.666504 60.8649 1.11603 61.9502 1.91618 62.7503C2.71634 63.5505 3.80158 64 4.93317 64H60.3998C61.5314 64 62.6167 63.5505 63.4168 62.7503C64.217 61.9502 64.6665 60.8649 64.6665 59.7333V4.26667C64.6665 3.13508 64.217 2.04983 63.4168 1.24968C62.6167 0.449523 61.5314 0 60.3998 0ZM2.79984 46.9333V4.26667C2.79984 3.70087 3.0246 3.15825 3.42468 2.75817C3.82475 2.35809 4.36738 2.13333 4.93317 2.13333H60.3998C60.9656 2.13333 61.5083 2.35809 61.9083 2.75817C62.3084 3.15825 62.5332 3.70087 62.5332 4.26667V46.9333H2.79984Z" fill="#428DFF"/>
<path d="M17.9293 56.5333C18.1466 57.1568 18.5524 57.6973 19.0907 58.0797C19.6289 58.4622 20.2728 58.6676 20.9331 58.6676C21.5933 58.6676 22.2372 58.4622 22.7755 58.0797C23.3137 57.6973 23.7196 57.1568 23.9368 56.5333H57.1997C57.4826 56.5333 57.754 56.4209 57.954 56.2209C58.154 56.0208 58.2664 55.7495 58.2664 55.4666C58.2664 55.1837 58.154 54.9124 57.954 54.7124C57.754 54.5123 57.4826 54.4 57.1997 54.4H23.9368C23.7196 53.7765 23.3137 53.236 22.7755 52.8535C22.2372 52.4711 21.5933 52.2656 20.9331 52.2656C20.2728 52.2656 19.6289 52.4711 19.0907 52.8535C18.5524 53.236 18.1466 53.7765 17.9293 54.4H8.13307C7.85018 54.4 7.57886 54.5123 7.37883 54.7124C7.17879 54.9124 7.06641 55.1837 7.06641 55.4666C7.06641 55.7495 7.17879 56.0208 7.37883 56.2209C7.57886 56.4209 7.85018 56.5333 8.13307 56.5333H17.9293ZM20.9331 54.4C21.144 54.4 21.3503 54.4625 21.5257 54.5797C21.7011 54.6969 21.8378 54.8635 21.9185 55.0584C21.9993 55.2533 22.0204 55.4678 21.9792 55.6747C21.9381 55.8816 21.8365 56.0717 21.6873 56.2209C21.5381 56.3701 21.3481 56.4716 21.1412 56.5128C20.9343 56.554 20.7198 56.5328 20.5249 56.4521C20.33 56.3714 20.1634 56.2347 20.0462 56.0592C19.929 55.8838 19.8664 55.6776 19.8664 55.4666C19.8664 55.1837 19.9788 54.9124 20.1788 54.7124C20.3789 54.5123 20.6502 54.4 20.9331 54.4Z" fill="#428DFF"/>
<path d="M56.1331 14.9342H34.7998V8.53425C34.7998 7.40265 34.3503 6.31741 33.5501 5.51726C32.7499 4.7171 31.6647 4.26758 30.5331 4.26758H9.19977C8.06818 4.26758 6.98294 4.7171 6.18278 5.51726C5.38263 6.31741 4.93311 7.40265 4.93311 8.53425V23.4676C4.93311 24.5992 5.38263 25.6844 6.18278 26.4846C6.98294 27.2847 8.06818 27.7342 9.19977 27.7342H10.2664V31.6596C10.2615 32.1272 10.3903 32.5865 10.6377 32.9834C10.885 33.3802 11.2407 33.6981 11.6627 33.8996C12.0654 34.0927 12.5151 34.1662 12.9584 34.1111C13.4016 34.0561 13.8197 33.8749 14.163 33.5892L21.3139 27.7342H30.5331V34.1342C30.5331 35.2658 30.9826 36.3511 31.7828 37.1512C32.5829 37.9514 33.6682 38.4009 34.7998 38.4009H44.019L51.1656 44.2622C51.5089 44.5476 51.9269 44.7285 52.3699 44.7833C52.8129 44.8381 53.2624 44.7647 53.6648 44.5716C54.0885 44.3706 54.4457 44.0523 54.6941 43.6546C54.9425 43.2568 55.0717 42.7962 55.0664 42.3273V38.4009H56.1331C57.2647 38.4009 58.3499 37.9514 59.1501 37.1512C59.9503 36.3511 60.3998 35.2658 60.3998 34.1342V19.2009C60.3998 18.0693 59.9503 16.9841 59.1501 16.1839C58.3499 15.3838 57.2647 14.9342 56.1331 14.9342ZM20.9331 25.6009C20.6865 25.601 20.4475 25.6866 20.2568 25.843L12.8126 31.9422C12.7812 31.9709 12.7421 31.9896 12.7001 31.9958C12.6581 32.0021 12.6152 31.9957 12.5768 31.9774C12.519 31.9475 12.4714 31.9012 12.4399 31.8443C12.4083 31.7873 12.3944 31.7223 12.3998 31.6574V26.6676C12.3998 26.3847 12.2874 26.1134 12.0874 25.9133C11.8873 25.7133 11.616 25.6009 11.3331 25.6009H9.19977C8.63398 25.6009 8.09136 25.3762 7.69128 24.9761C7.2912 24.576 7.06644 24.0334 7.06644 23.4676V8.53425C7.06644 7.96845 7.2912 7.42583 7.69128 7.02575C8.09136 6.62567 8.63398 6.40091 9.19977 6.40091H30.5331C31.0989 6.40091 31.6415 6.62567 32.0416 7.02575C32.4417 7.42583 32.6664 7.96845 32.6664 8.53425V15.5273C32.02 15.8989 31.4827 16.4339 31.1082 17.0787C30.7338 17.7234 30.5355 18.4553 30.5331 19.2009V25.6009H20.9331ZM58.2664 34.1342C58.2664 34.7 58.0417 35.2427 57.6416 35.6427C57.2415 36.0428 56.6989 36.2676 56.1331 36.2676H53.9998C53.7169 36.2676 53.4456 36.38 53.2455 36.58C53.0455 36.78 52.9331 37.0513 52.9331 37.3342V42.3273C52.9386 42.3922 52.9247 42.4573 52.8932 42.5142C52.8617 42.5712 52.8139 42.6175 52.756 42.6473C52.7186 42.6678 52.6755 42.6756 52.6332 42.6697C52.591 42.6637 52.5517 42.6443 52.5214 42.6142L45.076 36.5129C44.8858 36.3553 44.6468 36.2686 44.3998 36.2676H34.7998C34.234 36.2676 33.6914 36.0428 33.2913 35.6427C32.8912 35.2427 32.6664 34.7 32.6664 34.1342V19.2009C32.6664 18.6351 32.8912 18.0925 33.2913 17.6924C33.6914 17.2923 34.234 17.0676 34.7998 17.0676H56.1331C56.6989 17.0676 57.2415 17.2923 57.6416 17.6924C58.0417 18.0925 58.2664 18.6351 58.2664 19.2009V34.1342Z" fill="#428DFF"/>
<path d="M45.4666 19.1992C44.0527 19.2009 42.6971 19.7634 41.6973 20.7632C40.6974 21.763 40.135 23.1186 40.1333 24.5326V33.0659C40.1333 33.3488 40.2457 33.6201 40.4457 33.8201C40.6458 34.0202 40.9171 34.1326 41.2 34.1326C41.4829 34.1326 41.7542 34.0202 41.9542 33.8201C42.1543 33.6201 42.2666 33.3488 42.2666 33.0659V28.7992H48.6666V33.0659C48.6666 33.3488 48.779 33.6201 48.9791 33.8201C49.1791 34.0202 49.4504 34.1326 49.7333 34.1326C50.0162 34.1326 50.2875 34.0202 50.4875 33.8201C50.6876 33.6201 50.8 33.3488 50.8 33.0659V24.5326C50.7983 23.1186 50.2358 21.763 49.236 20.7632C48.2362 19.7634 46.8806 19.2009 45.4666 19.1992ZM42.2666 26.6659V24.5326C42.2666 23.6839 42.6038 22.8699 43.2039 22.2698C43.804 21.6697 44.6179 21.3326 45.4666 21.3326C46.3153 21.3326 47.1293 21.6697 47.7294 22.2698C48.3295 22.8699 48.6666 23.6839 48.6666 24.5326V26.6659H42.2666Z" fill="#428DFF"/>
<path d="M19.8665 8.5332C18.4526 8.5349 17.097 9.09734 16.0972 10.0972C15.0974 11.097 14.5349 12.4526 14.5332 13.8665V18.1332C14.5317 19.0968 14.7916 20.0428 15.2854 20.8703C15.7792 21.6979 16.4883 22.3759 17.3371 22.8321C18.1859 23.2883 19.1426 23.5056 20.1052 23.4608C21.0678 23.4161 22.0002 23.111 22.8031 22.578L23.3791 23.154C23.5803 23.3483 23.8497 23.4558 24.1294 23.4534C24.409 23.451 24.6766 23.3388 24.8744 23.141C25.0721 22.9432 25.1843 22.6757 25.1867 22.396C25.1892 22.1164 25.0816 21.8469 24.8873 21.6457L24.3113 21.0697C24.8905 20.1999 25.1997 19.1782 25.1999 18.1332V13.8665C25.1982 12.4526 24.6357 11.097 23.6359 10.0972C22.6361 9.09734 21.2805 8.5349 19.8665 8.5332ZM21.6873 18.4457C21.4862 18.2514 21.2167 18.1439 20.937 18.1464C20.6574 18.1488 20.3898 18.261 20.1921 18.4587C19.9943 18.6565 19.8821 18.924 19.8797 19.2037C19.8773 19.4834 19.9848 19.7528 20.1791 19.954L21.2372 21.0121C20.8102 21.2208 20.3418 21.3305 19.8665 21.3332C19.0179 21.3332 18.2039 20.9961 17.6038 20.3959C17.0037 19.7958 16.6665 18.9819 16.6665 18.1332V13.8665C16.6665 13.0178 17.0037 12.2039 17.6038 11.6038C18.2039 11.0037 19.0179 10.6665 19.8665 10.6665C20.7152 10.6665 21.5292 11.0037 22.1293 11.6038C22.7294 12.2039 23.0665 13.0178 23.0665 13.8665V18.1332C23.0642 18.6083 22.9548 19.0768 22.7465 19.5039L21.6873 18.4457Z" fill="#428DFF"/>
</g>
<defs>
<clipPath id="clip0_19187_88872">
<rect width="64" height="64" fill="white" transform="translate(0.666504)"/>
</clipPath>
</defs>
</svg>
