<svg width="65" height="64" viewBox="0 0 65 64" fill="none" xmlns="http://www.w3.org/2000/svg">
<g clip-path="url(#clip0_19187_88639)">
<path d="M62.4884 26.1115C62.3042 25.8487 62.0893 25.6088 61.8484 25.3968L49.9124 14.6982L49.9017 14.6875H14.7657L14.7551 14.6982L2.81906 25.3968C1.92165 26.2108 1.40697 27.364 1.40039 28.5755V58.6662C1.4045 61.0209 3.31235 62.9287 5.66706 62.9328H59.0004C61.3551 62.9287 63.263 61.0209 63.2671 58.6662V28.5755C63.2677 27.6935 62.9957 26.8329 62.4884 26.1115Z" fill="#F0C419"/>
<path d="M62.488 26.1115L37.4853 44.2662L34.776 46.2288C33.3109 47.2902 31.3356 47.3116 29.848 46.2822L27.0533 44.3515L1.75195 26.8902C1.98991 26.3181 2.35463 25.8075 2.81862 25.3968L14.7546 14.6982L14.7653 14.6875H49.9013L49.912 14.6982L61.848 25.3968C62.0889 25.6088 62.3037 25.8487 62.488 26.1115Z" fill="#A4C2F7"/>
<path d="M27.0533 44.352L2.86128 61.8773C1.93146 61.0697 1.39822 59.8982 1.39995 58.6666V28.576C1.39713 27.9956 1.51709 27.4213 1.75195 26.8906L27.0533 44.352Z" fill="#E8EDFC"/>
<path d="M61.8053 61.8782C61.0295 62.5593 60.0323 62.9346 59 62.9342H5.66666C4.63434 62.9346 3.63716 62.5593 2.86133 61.8782L27.0533 44.3529L29.848 46.2836C31.3357 47.313 33.311 47.2916 34.776 46.2302L37.4853 44.2676L61.8053 61.8782Z" fill="#E8EDFC"/>
<path d="M63.2667 28.5753V58.666C63.2684 59.8975 62.7352 61.0691 61.8054 61.8767L59.7147 60.362L37.4854 44.266L60.0134 27.914L62.488 26.1113C62.9953 26.8328 63.2673 27.6934 63.2667 28.5753Z" fill="#CAD9FC"/>
<path d="M60.0667 28.5754V58.6661C60.0665 59.2495 59.9467 59.8267 59.7147 60.3621L37.4854 44.2661L60.0134 27.9141C60.0474 28.1329 60.0653 28.3539 60.0667 28.5754Z" fill="#E8EDFC"/>
<path d="M50.467 19.1999C50.4674 24.0093 48.5571 28.6218 45.1563 32.0226C41.7555 35.4233 37.143 37.3336 32.3336 37.3332C31.7994 37.3354 31.2654 37.3105 30.7336 37.2585C21.3763 36.4315 14.2007 28.5937 14.2007 19.1999C14.2007 9.80606 21.3763 1.96826 30.7336 1.14121C31.2654 1.08923 31.7994 1.06431 32.3336 1.06654C37.143 1.06612 41.7555 2.97645 45.1563 6.37721C48.5571 9.77796 50.4674 14.3905 50.467 19.1999Z" fill="#CAD9FC"/>
<path d="M30.7335 37.258C39.8646 37.258 47.2669 29.1728 47.2669 19.1993C47.2669 9.22577 39.8646 1.14062 30.7335 1.14062C21.6024 1.14062 14.2002 9.22577 14.2002 19.1993C14.2002 29.1728 21.6024 37.258 30.7335 37.258Z" fill="#E8EDFC"/>
<path d="M39.2559 21.0243C38.9898 21.2937 38.8705 21.6753 38.9359 22.0483L39.9813 28.491C40.0543 28.9379 39.8658 29.3873 39.4958 29.6484C39.1258 29.9094 38.6392 29.9363 38.2426 29.7177L32.9093 26.7523C32.5511 26.5532 32.1155 26.5532 31.7573 26.7523L26.4239 29.7177C26.0274 29.9363 25.5408 29.9094 25.1708 29.6484C24.8008 29.3873 24.6122 28.9379 24.6853 28.491L25.7306 22.0483C25.7961 21.6753 25.6768 21.2937 25.4106 21.0243L20.9413 16.4163C20.6304 16.1006 20.5226 15.6373 20.6621 15.2168C20.8015 14.7962 21.1647 14.4892 21.6026 14.4217L27.6933 13.483C28.0825 13.4218 28.415 13.1694 28.5786 12.811L31.2666 7.08298C31.4586 6.66688 31.875 6.40039 32.3333 6.40039C32.7915 6.40039 33.208 6.66688 33.3999 7.08298L36.0879 12.811C36.2515 13.1694 36.5841 13.4218 36.9733 13.483L43.0639 14.4217C43.5019 14.4892 43.8651 14.7962 44.0045 15.2168C44.1439 15.6373 44.0361 16.1006 43.7253 16.4163L39.2559 21.0243Z" fill="white"/>
<path d="M5.66706 62.9332H8.86706C6.51235 62.9291 4.6045 61.0213 4.60039 58.6665V28.5759C4.60697 27.3643 5.12165 26.2112 6.01906 25.3972L17.9551 14.6985L17.9657 14.6879H17.9845C19.8863 7.25844 26.2627 1.8332 33.9008 1.14569C33.3832 1.10121 32.8628 1.06654 32.3337 1.06654C31.7995 1.06431 31.2654 1.08923 30.7337 1.14121C23.0819 1.81628 16.689 7.24621 14.7845 14.6879H14.7657L14.7551 14.6985L2.81906 25.3972C1.92165 26.2112 1.40697 27.3643 1.40039 28.5759V58.6665C1.4045 61.0213 3.31235 62.9291 5.66706 62.9332Z" fill="white"/>
<path d="M0.333496 58.6668V44.8002V28.5762H2.46683V44.8002V58.6668H0.333496Z" fill="white"/>
<path d="M1.40016 53.334C0.811764 53.3357 0.335195 53.8123 0.333496 54.4007V58.6673H2.46683V54.4007C2.46513 53.8123 1.98856 53.3357 1.40016 53.334Z" fill="#428DFF"/>
<path d="M2.46683 28.5762H0.333496V45.8668C0.333496 46.4559 0.811059 46.9335 1.40016 46.9335C1.98927 46.9335 2.46683 46.4559 2.46683 45.8668V28.5762Z" fill="#428DFF"/>
<path d="M0.333496 50.1331C0.337719 50.4154 0.448165 50.6858 0.642829 50.8904L0.802829 51.0184C0.862302 51.0588 0.926866 51.091 0.994829 51.1144C1.05527 51.1452 1.11999 51.1668 1.18683 51.1784C1.25737 51.1904 1.32865 51.1975 1.40016 51.1997C1.68258 51.1958 1.95309 51.0853 2.1575 50.8904C2.56011 50.4658 2.56011 49.8004 2.1575 49.3757C2.05546 49.2794 1.93599 49.2034 1.8055 49.1517C1.67726 49.0971 1.53955 49.0681 1.40016 49.0664C1.11783 49.0707 0.84746 49.1812 0.642829 49.3757C0.448255 49.5804 0.337823 49.8507 0.333496 50.1331Z" fill="#428DFF"/>
<path d="M59.0002 63.9995H5.66683C2.72275 63.996 0.336964 61.6102 0.333496 58.6661C0.333496 58.077 0.811059 57.5995 1.40016 57.5995C1.98927 57.5995 2.46683 58.077 2.46683 58.6661C2.46877 60.4326 3.90032 61.8642 5.66683 61.8661H59.0002C60.7667 61.8642 62.1982 60.4326 62.2002 58.6661V28.5755C62.2006 27.6659 61.8139 26.7993 61.1366 26.1922L49.2006 15.4921L50.6193 13.8984L62.5606 24.6025C63.689 25.6149 64.3336 27.0594 64.3335 28.5755V58.6661C64.33 61.6102 61.9442 63.996 59.0002 63.9995Z" fill="#428DFF"/>
<path d="M1.40016 29.6431C0.811059 29.6431 0.333496 29.1656 0.333496 28.5765C0.333444 27.06 0.978469 25.6151 2.10747 24.6026L14.0419 13.9047C14.4801 13.5096 15.1552 13.543 15.5523 13.9794C15.742 14.1871 15.8414 14.4618 15.8285 14.7428C15.8156 15.0239 15.6915 15.2883 15.4835 15.4778L15.4721 15.4885L3.53136 26.1922C2.85365 26.7994 2.46652 27.6665 2.46683 28.5765C2.46683 29.1656 1.98927 29.6431 1.40016 29.6431Z" fill="#428DFF"/>
<path d="M32.271 48.1044C31.1889 48.1052 30.1323 47.7764 29.2417 47.1618L1.14599 27.768C0.829123 27.5527 0.652018 27.1841 0.681991 26.8022C0.711963 26.4203 0.94441 26.0838 1.29097 25.9206C1.63754 25.7574 2.045 25.7926 2.35847 26.0128L30.4545 45.4065C31.572 46.1753 33.0525 46.1575 34.1513 45.3622L61.8605 25.2487C62.1689 25.0247 62.5733 24.9821 62.9215 25.1371C63.2697 25.2921 63.5087 25.6211 63.5486 26.0002C63.5885 26.3792 63.4231 26.7507 63.1147 26.9748L35.4055 47.0883C34.4942 47.7496 33.3969 48.1053 32.271 48.1044Z" fill="#428DFF"/>
<path d="M61.8044 62.9436C61.5799 62.9437 61.3612 62.8727 61.1795 62.7409L36.8595 45.1303C36.3823 44.7845 36.2758 44.1174 36.6215 43.6402C36.9672 43.1631 37.6343 43.0565 38.1115 43.4023L62.4315 61.0129C62.8063 61.2843 62.9634 61.7663 62.8205 62.2064C62.6775 62.6465 62.2672 62.9443 61.8044 62.9436Z" fill="#428DFF"/>
<path d="M2.86274 62.9441C2.40002 62.9448 1.98963 62.6471 1.84668 62.207C1.70373 61.7669 1.86084 61.2848 2.23565 61.0135L26.4277 43.4881C26.7363 43.2645 27.1409 43.2225 27.4889 43.378C27.8369 43.5335 28.0756 43.8628 28.1149 44.242C28.1543 44.6211 27.9884 44.9925 27.6797 45.2161L3.4877 62.7415C3.306 62.8733 3.08723 62.9442 2.86274 62.9441Z" fill="#428DFF"/>
<path d="M32.3333 38.4C21.7294 38.4 13.1333 29.8039 13.1333 19.2C13.1333 8.59613 21.7294 0 32.3333 0C42.9372 0 51.5333 8.59613 51.5333 19.2C51.5212 29.7988 42.9321 38.3879 32.3333 38.4ZM32.3333 2.13333C22.9076 2.13333 15.2666 9.77434 15.2666 19.2C15.2666 28.6257 22.9076 36.2667 32.3333 36.2667C41.759 36.2667 49.4 28.6257 49.4 19.2C49.3892 9.7788 41.7545 2.14409 32.3333 2.13333Z" fill="#428DFF"/>
<path d="M38.8127 30.9341C38.4305 30.9334 38.0548 30.8354 37.721 30.6492L32.3877 27.6898C32.3536 27.671 32.3123 27.671 32.2783 27.6898L26.946 30.6492C26.1915 31.0668 25.2646 31.0164 24.5599 30.5194C23.8551 30.0224 23.4965 29.1662 23.6367 28.3153L24.6835 21.8741C24.6898 21.8358 24.6774 21.7967 24.6502 21.7689L20.1735 17.1617C19.5854 16.5572 19.3841 15.6749 19.6516 14.8751C19.9192 14.0753 20.6109 13.4917 21.4443 13.3627L27.5309 12.4289C27.5691 12.4221 27.6016 12.3973 27.6183 12.3622L30.2975 6.63091C30.6667 5.83961 31.4609 5.33387 32.3341 5.33398C33.2073 5.3341 34.0014 5.84005 34.3704 6.63144L37.0506 12.3622C37.0663 12.3971 37.0983 12.4219 37.136 12.4283L43.2234 13.3627C44.0569 13.492 44.7484 14.0758 45.0158 14.8756C45.2831 15.6755 45.0816 16.5577 44.4935 17.1622L40.0153 21.7689C39.989 21.797 39.9772 21.8357 39.9833 21.8737L41.0302 28.3164C41.136 28.9677 40.9513 29.6328 40.5248 30.1363C40.0982 30.6399 39.4726 30.9314 38.8127 30.9341ZM32.3335 25.5408C32.7144 25.5412 33.0889 25.6387 33.4215 25.8242L38.7559 28.7836C38.7928 28.8069 38.8404 28.8043 38.8746 28.7773C38.9154 28.7531 38.9353 28.705 38.9236 28.6591L37.8768 22.2164C37.764 21.5121 37.9892 20.7957 38.4848 20.2826L42.9639 15.6753C42.9984 15.6437 43.0092 15.5939 42.991 15.5508C42.9806 15.5074 42.9437 15.4754 42.8993 15.4711L36.8135 14.5371C36.0709 14.4247 35.434 13.9475 35.1175 13.2663L32.4362 7.53512C32.4149 7.48819 32.2509 7.48765 32.2299 7.53459L29.5497 13.2663C29.2322 13.9475 28.5949 14.4247 27.8518 14.5377L21.7665 15.471C21.722 15.4753 21.6852 15.5073 21.6747 15.5507C21.6564 15.5936 21.6673 15.6433 21.7018 15.6746L26.1799 20.2826C26.6763 20.7952 26.9021 21.5118 26.7893 22.2164L25.7425 28.6581C25.7307 28.7043 25.7506 28.7528 25.7914 28.7774C25.8257 28.8044 25.8733 28.807 25.9102 28.7837L31.2435 25.8243C31.5769 25.6387 31.952 25.5412 32.3335 25.5408Z" fill="#428DFF"/>
</g>
<defs>
<clipPath id="clip0_19187_88639">
<rect width="64" height="64" fill="white" transform="translate(0.333496)"/>
</clipPath>
</defs>
</svg>
