<svg width="64" height="64" viewBox="0 0 64 64" fill="none" xmlns="http://www.w3.org/2000/svg">
<g clip-path="url(#clip0_19187_89143)">
<path d="M2.13356 8.5332C1.54446 8.5332 1.06689 9.01077 1.06689 9.59987V61.8665C1.06689 62.4556 1.54446 62.9332 2.13356 62.9332H53.3336C53.9227 62.9332 54.4002 62.4556 54.4002 61.8665V8.5332H2.13356Z" fill="#E8EDFC"/>
<path d="M51.2 8.5332V61.8665C51.2 62.4556 50.7224 62.9332 50.1333 62.9332H53.3333C53.9224 62.9332 54.4 62.4556 54.4 61.8665V8.5332H51.2Z" fill="#CAD9FC"/>
<path d="M54.3999 8.5332L62.9162 57.4132C62.9714 57.7238 62.8863 58.0429 62.6837 58.2847C62.4812 58.5266 62.182 58.6664 61.8666 58.6665H54.3999V8.5332Z" fill="#A4C2F7"/>
<path d="M54.3999 8.5332V26.8991L59.7162 57.4132C59.7714 57.7238 59.6863 58.0429 59.4837 58.2847C59.2812 58.5266 58.982 58.6664 58.6666 58.6665H61.8666C62.1824 58.667 62.4822 58.5275 62.6852 58.2855C62.8882 58.0436 62.9736 57.7242 62.9183 57.4132L54.3999 8.5332Z" fill="#7FACFA"/>
<path d="M11.7335 3.19974C11.7335 2.02153 10.7783 1.06641 9.60013 1.06641C8.42192 1.06641 7.4668 2.02153 7.4668 3.19974V9.59974C7.4668 10.7779 8.42192 11.7331 9.60013 11.7331C10.7783 11.7331 11.7335 10.7779 11.7335 9.59974V3.19974Z" fill="#E8EDFC"/>
<path d="M23.4669 3.19974C23.4669 2.02153 22.5117 1.06641 21.3335 1.06641C20.1553 1.06641 19.2002 2.02153 19.2002 3.19974V9.59974C19.2002 10.7779 20.1553 11.7331 21.3335 11.7331C22.5117 11.7331 23.4669 10.7779 23.4669 9.59974V3.19974Z" fill="#E8EDFC"/>
<path d="M35.2003 3.19974C35.2003 2.02153 34.2451 1.06641 33.0669 1.06641C31.8887 1.06641 30.9336 2.02153 30.9336 3.19974V9.59974C30.9336 10.7779 31.8887 11.7331 33.0669 11.7331C34.2451 11.7331 35.2003 10.7779 35.2003 9.59974V3.19974Z" fill="#E8EDFC"/>
<path d="M46.9337 3.19974C46.9337 2.02153 45.9785 1.06641 44.8003 1.06641C43.6221 1.06641 42.667 2.02153 42.667 3.19974V9.59974C42.667 10.7779 43.6221 11.7331 44.8003 11.7331C45.9785 11.7331 46.9337 10.7779 46.9337 9.59974V3.19974Z" fill="#E8EDFC"/>
<path d="M45.8666 42.6665C45.8631 43.8433 44.91 44.7964 43.7333 44.7999H22.3999C21.2217 44.7999 20.2666 43.8447 20.2666 42.6665C20.2666 41.4883 21.2217 40.5332 22.3999 40.5332H43.7333C44.91 40.5367 45.8631 41.4898 45.8666 42.6665Z" fill="#E8EDFC"/>
<path d="M43.7332 40.5332H40.5332C41.7114 40.5332 42.6665 41.4883 42.6665 42.6665C42.6665 43.8447 41.7114 44.7999 40.5332 44.7999H43.7332C44.9114 44.7999 45.8665 43.8447 45.8665 42.6665C45.8665 41.4883 44.9114 40.5332 43.7332 40.5332Z" fill="#CAD9FC"/>
<path d="M24.5332 46.9341V57.6008C24.5332 58.1899 24.0556 58.6674 23.4665 58.6674H21.3332C20.7441 58.6674 20.2665 58.1899 20.2665 57.6008V51.2008C20.2665 50.6117 19.7889 50.1341 19.1998 50.1341H14.9332C12.5768 50.1341 10.6665 48.2239 10.6665 45.8674V44.8008H22.3998C23.5766 44.8043 24.5297 45.7574 24.5332 46.9341Z" fill="#E8EDFC"/>
<path d="M27.7332 38.4C27.7297 39.5767 26.7766 40.5298 25.5998 40.5333H22.3998C21.2253 40.542 20.2752 41.4921 20.2665 42.6667C20.27 43.8434 21.2231 44.7965 22.3998 44.8H10.6665V36.2667C10.6665 33.9103 12.5768 32 14.9332 32H17.0665C18.2411 32.0087 19.1911 32.9588 19.1998 34.1333C19.2034 35.3101 20.1564 36.2632 21.3332 36.2667H25.5998C26.7744 36.2754 27.7245 37.2254 27.7332 38.4Z" fill="#A4C2F7"/>
<path d="M17.0665 32.0001C19.4229 32.0001 21.3331 30.0899 21.3331 27.7335C21.3331 25.377 19.4229 23.4668 17.0665 23.4668C14.7101 23.4668 12.7998 25.377 12.7998 27.7335C12.7998 30.0899 14.7101 32.0001 17.0665 32.0001Z" fill="#E8EDFC"/>
<path d="M41.6002 36.2676H35.2002C34.022 36.2676 33.0669 37.2227 33.0669 38.4009C33.0669 39.5791 34.022 40.5342 35.2002 40.5342H41.6002C42.7784 40.5342 43.7336 39.5791 43.7336 38.4009C43.7336 37.2227 42.7784 36.2676 41.6002 36.2676Z" fill="#A4C2F7"/>
<path d="M44.7999 32H38.3999C37.2217 32 36.2666 32.9551 36.2666 34.1333C36.2666 35.3115 37.2217 36.2667 38.3999 36.2667H44.7999C45.9781 36.2667 46.9333 35.3115 46.9333 34.1333C46.9333 32.9551 45.9781 32 44.7999 32Z" fill="#A4C2F7"/>
<path d="M30.9332 28.8C34.4678 28.8 37.3332 25.9346 37.3332 22.4C37.3332 18.8654 34.4678 16 30.9332 16C27.3986 16 24.5332 18.8654 24.5332 22.4C24.5332 25.9346 27.3986 28.8 30.9332 28.8Z" fill="#E8EDFC"/>
<path d="M30.9335 16C30.3933 16.0031 29.8557 16.0748 29.3335 16.2133C32.158 16.9401 34.1324 19.4867 34.1324 22.4032C34.1324 25.3197 32.158 27.8664 29.3335 28.5931C31.7369 29.2195 34.2857 28.3989 35.8721 26.4879C37.4585 24.5768 37.796 21.9205 36.7379 19.6735C35.6798 17.4264 33.4172 15.9945 30.9335 16Z" fill="#CAD9FC"/>
<path d="M4.26689 61.8665V9.59987C4.26689 9.01077 4.74446 8.5332 5.33356 8.5332H2.13356C1.54446 8.5332 1.06689 9.01077 1.06689 9.59987V61.8665C1.06689 62.4556 1.54446 62.9332 2.13356 62.9332H5.33356C4.74446 62.9332 4.26689 62.4556 4.26689 61.8665Z" fill="white"/>
<path d="M0 53.334H2.13333V61.8673H0V53.334Z" fill="white"/>
<path d="M6.39994 31.9994C5.81083 31.9994 5.33327 32.4769 5.33327 33.066V57.5994C4.74416 57.5994 4.2666 58.0769 4.2666 58.666C4.2666 59.2551 4.74416 59.7327 5.33327 59.7327H50.1333C50.7224 59.7327 51.1999 59.2551 51.1999 58.666C51.1999 58.0769 50.7224 57.5994 50.1333 57.5994H44.7999V45.6698C46.12 45.2089 46.9846 43.9402 46.9306 42.543C46.8767 41.1458 45.917 39.9475 44.5653 39.5898C44.8644 38.8696 44.8781 38.0626 44.6037 37.3327H44.7999C46.5672 37.3327 47.9999 35.9 47.9999 34.1327C47.9999 32.3654 46.5672 30.9327 44.7999 30.9327H38.3999C36.6326 30.9327 35.1999 32.3654 35.1999 34.1327C35.2035 34.4969 35.2699 34.8578 35.3962 35.1994H35.1999C33.4326 35.1994 31.9999 36.6321 31.9999 38.3994C32.0035 38.7636 32.0699 39.1244 32.1962 39.466H28.6037C28.73 39.1244 28.7964 38.7636 28.7999 38.3994C28.7999 36.6321 27.3672 35.1994 25.5999 35.1994H21.3333C20.7442 35.1994 20.2666 34.7218 20.2666 34.1327C20.2672 33.4914 20.0739 32.8648 19.7119 32.3354C21.6769 31.2145 22.721 28.9759 22.317 26.7501C21.9129 24.5243 20.1486 22.7955 17.915 22.4369C15.6814 22.0782 13.4645 23.1676 12.3839 25.155C11.3033 27.1424 11.594 29.5954 13.1093 31.2751C11.0081 32.0375 9.60647 34.0308 9.59994 36.266V45.866C9.60386 47.0239 9.98841 48.1483 10.6943 49.066H7.4666V33.066C7.4666 32.4769 6.98904 31.9994 6.39994 31.9994ZM17.0666 57.5994V51.1994H19.1999V57.5994H17.0666ZM25.4037 45.866H27.7333V57.5994H25.5999V46.9327C25.5964 46.5685 25.53 46.2076 25.4037 45.866ZM29.8666 57.5994V45.866H42.6666V57.5994H29.8666ZM43.7333 43.7327H22.3999C21.8108 43.7327 21.3333 43.2551 21.3333 42.666C21.3333 42.0769 21.8108 41.5994 22.3999 41.5994H43.7333C44.3224 41.5994 44.7999 42.0769 44.7999 42.666C44.7999 43.2551 44.3224 43.7327 43.7333 43.7327ZM37.3333 34.1327C37.3333 33.5436 37.8108 33.066 38.3999 33.066H44.7999C45.389 33.066 45.8666 33.5436 45.8666 34.1327C45.8666 34.7218 45.389 35.1994 44.7999 35.1994H38.3999C37.8108 35.1994 37.3333 34.7218 37.3333 34.1327ZM34.1333 38.3994C34.1333 37.8103 34.6108 37.3327 35.1999 37.3327H41.5999C42.189 37.3327 42.6666 37.8103 42.6666 38.3994C42.6666 38.9885 42.189 39.466 41.5999 39.466H35.1999C34.6108 39.466 34.1333 38.9885 34.1333 38.3994ZM17.0666 24.5327C18.8339 24.5327 20.2666 25.9654 20.2666 27.7327C20.2666 29.5 18.8339 30.9327 17.0666 30.9327C15.2993 30.9327 13.8666 29.5 13.8666 27.7327C13.8666 25.9654 15.2993 24.5327 17.0666 24.5327ZM11.7333 36.266C11.7333 34.4987 13.166 33.066 14.9333 33.066H17.0666C17.3495 33.066 17.6208 33.1784 17.8209 33.3785C18.0209 33.5785 18.1333 33.8498 18.1333 34.1327C18.1333 35.9 19.566 37.3327 21.3333 37.3327H25.5999C26.189 37.3327 26.6666 37.8103 26.6666 38.3994C26.6666 38.9885 26.189 39.466 25.5999 39.466H18.385C17.3282 39.4683 16.3619 38.8698 15.8933 37.9226C15.6299 37.3953 14.989 37.1814 14.4618 37.4447C13.9346 37.708 13.7206 38.3489 13.9839 38.8762C14.814 40.5467 16.5196 41.602 18.385 41.5994H19.3962C19.1345 42.2864 19.1345 43.0457 19.3962 43.7327H11.7333V36.266ZM11.7333 45.866H22.3999C22.989 45.866 23.4666 46.3436 23.4666 46.9327V57.5994H21.3333V51.1994C21.3333 50.0212 20.3781 49.066 19.1999 49.066H14.9333C13.166 49.066 11.7333 47.6333 11.7333 45.866ZM14.9333 51.1994V57.5994H7.4666V51.1994H14.9333Z" fill="#428DFF"/>
<path d="M30.9335 29.8669C35.0572 29.8669 38.4001 26.524 38.4001 22.4003C38.4001 18.2765 35.0572 14.9336 30.9335 14.9336C26.8097 14.9336 23.4668 18.2765 23.4668 22.4003C23.4715 26.522 26.8117 29.8622 30.9335 29.8669ZM30.9335 17.0669C33.879 17.0669 36.2668 19.4547 36.2668 22.4003C36.2668 25.3458 33.879 27.7336 30.9335 27.7336C27.9879 27.7336 25.6001 25.3458 25.6001 22.4003C25.6037 19.4562 27.9894 17.0705 30.9335 17.0669Z" fill="#428DFF"/>
<path d="M31.2457 24.2207C31.6642 24.6249 32.3295 24.6192 32.741 24.2077C33.1524 23.7963 33.1582 23.131 32.754 22.7124L32.2313 22.1898L32.9545 20.7434C33.2178 20.2161 33.0039 19.5752 32.4766 19.3119C31.9494 19.0486 31.3085 19.2625 31.0452 19.7898L29.9785 21.9231C29.7735 22.3338 29.8543 22.8296 30.179 23.154L31.2457 24.2207Z" fill="#428DFF"/>
<path d="M1.08813 58.6665C0.499023 58.6695 0.0190724 58.1943 0.0161269 57.6052C0.0131814 57.0161 0.488357 56.5361 1.07746 56.5332H1.08813C1.67723 56.5332 2.15479 57.0108 2.15479 57.5999C2.15479 58.189 1.67723 58.6665 1.08813 58.6665Z" fill="#428DFF"/>
<path d="M55.4507 8.34987H55.4304C55.3482 7.84361 54.9129 7.47045 54.4 7.46667H48V3.2C48 1.43269 46.5673 0 44.8 0C43.0327 0 41.6 1.43269 41.6 3.2V7.46667H36.2667V3.2C36.2667 1.43269 34.834 0 33.0667 0C31.2994 0 29.8667 1.43269 29.8667 3.2V7.46667H24.5333V3.2C24.5333 1.43269 23.1006 0 21.3333 0C19.566 0 18.1333 1.43269 18.1333 3.2V7.46667H12.8V3.2C12.8 1.43269 11.3673 0 9.6 0C7.83269 0 6.4 1.43269 6.4 3.2V7.46667H2.13333C0.955126 7.46667 0 8.42179 0 9.6V53.3333C0 53.9224 0.477563 54.4 1.06667 54.4C1.65577 54.4 2.13333 53.9224 2.13333 53.3333V9.6H6.4C6.4 11.3673 7.83269 12.8 9.6 12.8C11.3673 12.8 12.8 11.3673 12.8 9.6H18.1333C18.1333 11.3673 19.566 12.8 21.3333 12.8C23.1006 12.8 24.5333 11.3673 24.5333 9.6H29.8667C29.8667 11.3673 31.2994 12.8 33.0667 12.8C34.834 12.8 36.2667 11.3673 36.2667 9.6H41.6C41.6 11.3673 43.0327 12.8 44.8 12.8C46.5673 12.8 48 11.3673 48 9.6H53.3333V61.8667H2.13333C2.13333 61.2776 1.65577 60.8 1.06667 60.8C0.477563 60.8 0 61.2776 0 61.8667C0 63.0449 0.955126 64 2.13333 64H53.3333C54.5115 64 55.4667 63.0449 55.4667 61.8667V59.7333H61.8667C62.4976 59.7341 63.0966 59.4554 63.5025 58.9724C63.9084 58.4893 64.0796 57.8513 63.9701 57.2299L55.4507 8.34987ZM10.6667 9.6C10.6667 10.1891 10.1891 10.6667 9.6 10.6667C9.0109 10.6667 8.53333 10.1891 8.53333 9.6V3.2C8.53333 2.6109 9.0109 2.13333 9.6 2.13333C10.1891 2.13333 10.6667 2.6109 10.6667 3.2V9.6ZM22.4 9.6C22.4 10.1891 21.9224 10.6667 21.3333 10.6667C20.7442 10.6667 20.2667 10.1891 20.2667 9.6V3.2C20.2667 2.6109 20.7442 2.13333 21.3333 2.13333C21.9224 2.13333 22.4 2.6109 22.4 3.2V9.6ZM34.1333 9.6C34.1333 10.1891 33.6558 10.6667 33.0667 10.6667C32.4776 10.6667 32 10.1891 32 9.6V3.2C32 2.6109 32.4776 2.13333 33.0667 2.13333C33.6558 2.13333 34.1333 2.6109 34.1333 3.2V9.6ZM45.8667 9.6C45.8667 10.1891 45.3891 10.6667 44.8 10.6667C44.2109 10.6667 43.7333 10.1891 43.7333 9.6V3.2C43.7333 2.6109 44.2109 2.13333 44.8 2.13333C45.3891 2.13333 45.8667 2.6109 45.8667 3.2V9.6ZM55.4667 57.6V20.8736L61.8667 57.6H55.4667Z" fill="#428DFF"/>
</g>
<defs>
<clipPath id="clip0_19187_89143">
<rect width="64" height="64" fill="white"/>
</clipPath>
</defs>
</svg>
