<svg width="64" height="64" viewBox="0 0 64 64" fill="none" xmlns="http://www.w3.org/2000/svg">
<g id="fi_1034300" clip-path="url(#clip0_21015_62631)">
<g id="Group">
<g id="Group_2">
<path id="Vector" d="M3.19643 1.10156H41.5542C42.7311 1.10156 43.6852 2.05567 43.6852 3.23256V60.7692C43.6852 61.9461 42.7311 62.9002 41.5542 62.9002H3.19643C2.01954 62.9002 1.06543 61.9461 1.06543 60.7692V3.23256C1.06543 2.05567 2.01954 1.10156 3.19643 1.10156Z" fill="#A4C2F7"/>
<g id="Group_3">
<path id="Vector_2" d="M3.19643 1.10156H38.3578C39.5347 1.10156 40.4888 2.05567 40.4888 3.23256V60.7692C40.4888 61.9461 39.5347 62.9002 38.3578 62.9002H3.19643C2.01954 62.9002 1.06543 61.9461 1.06543 60.7692V3.23256C1.06543 2.05567 2.01954 1.10156 3.19643 1.10156Z" fill="#E3E7F2"/>
<path id="Vector_3" d="M11.9793 48.0911L7.4585 58.6383L18.0059 54.1174L19.1789 52.2454L13.8515 46.918L11.9793 48.0911Z" fill="#E3E7F2"/>
</g>
<path id="Vector_4" d="M60.5519 11.5756L18.0068 54.1208L11.9761 48.0901L54.5212 5.54492L57.8883 8.91185L60.5519 11.5756Z" fill="#A4C2F7"/>
<g id="Group_4">
<path id="Vector_5" d="M57.8883 8.91185L52.028 14.7721L15.3431 51.4571L11.9761 48.0901L54.5212 5.54492L57.8883 8.91185Z" fill="#E3E7F2"/>
<path id="Vector_6" d="M54.6936 17.4331L57.9431 14.1836L55.2791 11.5196L52.0296 14.769L54.6936 17.4331Z" fill="#E3E7F2"/>
</g>
<path id="Vector_7" d="M52.0285 14.771L55.278 11.5215L51.911 8.15452L48.6615 11.404L52.0285 14.771Z" fill="#F5F5F5"/>
<path id="Vector_8" d="M61.7027 10.4243L57.9415 14.1855L55.3203 11.5644L51.9108 8.15484L55.672 4.39362C56.7492 3.31638 58.3194 2.89556 59.791 3.28998C61.2626 3.68426 62.412 4.83374 62.8063 6.30527C63.2007 7.77693 62.7801 9.34709 61.7027 10.4243Z" fill="#A4C2F7"/>
<path id="Vector_9" d="M59.0816 7.80304L55.3203 11.5643L51.9108 8.15468L55.672 4.39347C56.8306 3.23739 58.5476 2.84425 60.0938 3.38122C60.6308 4.92739 60.2378 6.64443 59.0816 7.80304Z" fill="#E3E7F2"/>
<path id="Vector_10" d="M3.19643 62.9002H6.39287C5.21737 62.8967 4.26542 61.9447 4.26187 60.7692V3.23256C4.26542 2.05707 5.21737 1.10512 6.39287 1.10156H3.19643C2.02093 1.10512 1.06898 2.05707 1.06543 3.23256V60.7692C1.06898 61.9447 2.02106 62.8967 3.19643 62.9002Z" fill="white"/>
</g>
<g id="Group_5">
<path id="Vector_11" d="M2.131 3.23242V17.0839V60.7691H0V17.0839V3.23242H2.131Z" fill="white"/>
<g id="Group_6">
<path id="Vector_12" d="M1.06544 8.55916C1.65395 8.55916 2.13087 8.08211 2.13087 7.49373V3.2316C2.13087 2.64309 2.60793 2.16616 3.19631 2.16616H41.5541C42.1426 2.16616 42.6195 2.64321 42.6195 3.2316V9.6246C42.6195 10.2131 43.0966 10.69 43.685 10.69C44.2733 10.69 44.7504 10.213 44.7504 9.6246V3.2316C44.7504 1.46619 43.3192 0.0351562 41.554 0.0351562H3.19644C1.43116 0.0351562 0 1.46632 0 3.2316V7.4936C0 8.08211 0.477054 8.55916 1.06544 8.55916Z" fill="#428DFF"/>
<path id="Vector_13" d="M1.47033 10.7748C1.40991 10.744 1.34529 10.7225 1.27852 10.7108C1.20807 10.699 1.13685 10.6917 1.06538 10.6895C0.783314 10.6936 0.513179 10.804 0.308926 10.9984C0.212576 11.1002 0.136664 11.2197 0.0851248 11.3501C-0.0755857 11.7475 0.0120053 12.2022 0.308926 12.5115C0.410735 12.6078 0.530189 12.6837 0.66056 12.7353C0.788646 12.7899 0.926253 12.8188 1.06551 12.8205C1.34758 12.8163 1.61771 12.706 1.82197 12.5115C2.23403 12.0913 2.23403 11.4186 1.82197 10.9984L1.66214 10.8706C1.60274 10.8302 1.53825 10.798 1.47033 10.7748Z" fill="#428DFF"/>
<path id="Vector_14" d="M3.19644 63.9658H41.5542C43.3196 63.9658 44.7507 62.5346 44.7507 60.7693V35.1974C44.7507 34.6089 44.2736 34.132 43.6852 34.132C43.0968 34.132 42.6198 34.6091 42.6198 35.1974V60.7693C42.6198 61.3579 42.1427 61.8348 41.5543 61.8348H3.19644C2.60793 61.8348 2.131 61.3577 2.131 60.7693V16.0186C2.131 15.4301 1.65395 14.9531 1.06556 14.9531C0.477181 14.9531 0 15.4301 0 16.0186V60.7693C0 62.5346 1.43116 63.9658 3.19644 63.9658Z" fill="#428DFF"/>
<path id="Vector_15" d="M54.924 3.63827L47.9088 10.6524L11.226 47.3375C11.2153 47.3471 11.2121 47.3609 11.2025 47.3705C11.1182 47.4582 11.0498 47.5599 11 47.6709L10.9915 47.6891L6.47915 58.2183C6.33799 58.5475 6.37176 58.9255 6.5689 59.2246C6.76605 59.5237 7.10016 59.7035 7.4584 59.7037C7.60273 59.7039 7.74567 59.6746 7.8782 59.6173L18.4064 55.105L18.4245 55.0965C18.5359 55.0472 18.6376 54.9787 18.725 54.894C18.7347 54.8844 18.7485 54.8812 18.758 54.8705L55.4419 18.1888L62.4561 11.1736C64.5211 9.0905 64.5137 5.73005 62.4396 3.65604C60.3654 1.58204 57.0051 1.57468 54.922 3.63954L54.924 3.63827ZM54.6897 15.9267L50.1698 11.4068L51.9098 9.66581L56.4307 14.1866L54.6897 15.9267ZM48.6631 12.9134L53.183 17.4332L18.0068 52.6106L13.4859 48.0897L48.6631 12.9134ZM9.48289 56.6136L12.3342 49.9606L16.1359 53.7623L9.48289 56.6136ZM60.9462 9.67012L57.9319 12.6844L53.4164 8.15924L56.4307 5.1503C57.2383 4.34268 58.4153 4.02735 59.5185 4.32288C60.6216 4.61853 61.4833 5.4801 61.7789 6.58336C62.0746 7.6865 61.7591 8.86365 60.9515 9.67114L60.9462 9.67012Z" fill="#428DFF"/>
<path id="Vector_16" d="M35.1614 9.625H9.58948C9.00097 9.625 8.52405 10.1021 8.52405 10.6904C8.52405 11.2789 9.0011 11.7559 9.58948 11.7559H35.1614C35.7499 11.7559 36.2268 11.2788 36.2268 10.6904C36.2268 10.1021 35.7498 9.625 35.1614 9.625Z" fill="#428DFF"/>
<path id="Vector_17" d="M36.2268 17.083C36.2268 16.4945 35.7498 16.0176 35.1614 16.0176H9.58948C9.00097 16.0176 8.52405 16.4946 8.52405 17.083C8.52405 17.6715 9.0011 18.1485 9.58948 18.1485H35.1614C35.7498 18.1486 36.2268 17.6715 36.2268 17.083Z" fill="#428DFF"/>
<path id="Vector_18" d="M9.58948 22.4102C9.00097 22.4102 8.52405 22.8872 8.52405 23.4756C8.52405 24.0641 9.0011 24.541 9.58948 24.541H28.7684C29.3569 24.541 29.8338 24.064 29.8338 23.4756C29.8338 22.8871 29.3568 22.4102 28.7684 22.4102H9.58948Z" fill="#428DFF"/>
</g>
</g>
</g>
</g>
<defs>
<clipPath id="clip0_21015_62631">
<rect width="64" height="64" fill="white"/>
</clipPath>
</defs>
</svg>
