<svg width="64" height="64" viewBox="0 0 64 64" fill="none" xmlns="http://www.w3.org/2000/svg">
<g clip-path="url(#clip0_19187_88273)">
<path d="M52.2668 54.4004V60.8004C52.2633 61.9771 51.3102 62.9302 50.1334 62.9337H13.8668C11.5103 62.9337 9.6001 61.0235 9.6001 58.6671C9.6001 56.3106 11.5103 54.4004 13.8668 54.4004H52.2668Z" fill="#C4D6F8"/>
<path d="M49.0664 54.4004V60.8004C49.0629 61.9771 48.1099 62.9302 46.9331 62.9337H50.1331C51.3099 62.9302 52.2629 61.9771 52.2664 60.8004V54.4004H49.0664Z" fill="#A2C1F9"/>
<path d="M54.3998 3.19974V52.2664C54.3963 53.4432 53.4432 54.3962 52.2664 54.3997H14.9331V1.06641H52.2664C53.4432 1.06992 54.3963 2.02299 54.3998 3.19974Z" fill="#E7ECFA"/>
<path d="M54.3998 3.19974V52.2664C54.3963 53.4432 53.4432 54.3962 52.2664 54.3997H14.9331V1.06641H52.2664C53.4432 1.06992 54.3963 2.02299 54.3998 3.19974Z" fill="#C8D7F9"/>
<path d="M49.0667 1.06641H11.7334V54.3997H49.0667C50.2435 54.3962 51.1966 53.4432 51.2001 52.2664V3.19974C51.1966 2.02299 50.2435 1.06992 49.0667 1.06641Z" fill="#E7ECFA"/>
<path d="M14.9334 1.06641V54.3997H13.8668C11.5103 54.3997 9.6001 56.31 9.6001 58.6664V5.33307C9.6001 2.97666 11.5103 1.06641 13.8668 1.06641H14.9334Z" fill="#C4D6F8"/>
<path d="M13.8668 62.9331H17.0668C14.7103 62.9331 12.8001 61.0228 12.8001 58.6664V5.33307C12.803 3.81458 13.6164 2.41316 14.9334 1.65734V1.06641H11.7334V1.65734C10.4164 2.41316 9.60303 3.81458 9.6001 5.33307V58.6664C9.6001 61.0228 11.5103 62.9331 13.8668 62.9331Z" fill="white"/>
<path d="M8.5332 5.33398H10.6665V13.8673H8.5332V5.33398Z" fill="white"/>
<path d="M13.8665 64H50.1332C51.9005 64 53.3332 62.5673 53.3332 60.8V55.2704C54.6072 54.82 55.4609 53.6179 55.4665 52.2667V3.2C55.4665 1.43269 54.0339 0 52.2665 0H13.8665C10.9225 0.00352653 8.53673 2.38928 8.5332 5.33333C8.5332 5.92244 9.01077 6.4 9.59987 6.4C10.189 6.4 10.6665 5.92244 10.6665 5.33333C10.6665 3.56602 12.0992 2.13333 13.8665 2.13333V53.3333C12.7087 53.3373 11.5843 53.7218 10.6665 54.4277V13.8667C10.6665 13.2776 10.189 12.8 9.59987 12.8C9.01077 12.8 8.5332 13.2776 8.5332 13.8667V58.6667C8.53673 61.6107 10.9225 63.9965 13.8665 64ZM15.9999 2.13333H52.2665C52.8556 2.13333 53.3332 2.6109 53.3332 3.2V52.2667C53.3332 52.8558 52.8556 53.3333 52.2665 53.3333H15.9999V2.13333ZM13.8665 55.4667H51.1999V60.8C51.1999 61.3891 50.7223 61.8667 50.1332 61.8667H13.8665C12.0992 61.8667 10.6665 60.434 10.6665 58.6667C10.6665 56.8994 12.0992 55.4667 13.8665 55.4667Z" fill="#3F89F9"/>
<path d="M9.59987 10.6665C10.189 10.6665 10.6665 10.189 10.6665 9.59987C10.6665 9.01077 10.189 8.5332 9.59987 8.5332C9.01077 8.5332 8.5332 9.01077 8.5332 9.59987C8.5332 10.189 9.01077 10.6665 9.59987 10.6665Z" fill="#3F89F9"/>
<path d="M15.9998 59.7329H26.6664C27.2555 59.7329 27.7331 59.2554 27.7331 58.6663C27.7331 58.0772 27.2555 57.5996 26.6664 57.5996H15.9998C15.4107 57.5996 14.9331 58.0772 14.9331 58.6663C14.9331 59.2554 15.4107 59.7329 15.9998 59.7329Z" fill="#3F89F9"/>
<path d="M30.9334 59.7329H45.8667C46.4558 59.7329 46.9334 59.2554 46.9334 58.6663C46.9334 58.0772 46.4558 57.5996 45.8667 57.5996H30.9334C30.3443 57.5996 29.8667 58.0772 29.8667 58.6663C29.8667 59.2554 30.3443 59.7329 30.9334 59.7329Z" fill="#3F89F9"/>
<path d="M24.5333 14.9336C22.1769 14.9336 20.2666 16.8438 20.2666 19.2003V28.8003C20.2666 29.3894 20.7442 29.8669 21.3333 29.8669C21.9224 29.8669 22.3999 29.3894 22.3999 28.8003V24.5336H26.6666V28.8003C26.6666 29.3894 27.1442 29.8669 27.7333 29.8669C28.3224 29.8669 28.7999 29.3894 28.7999 28.8003V19.2003C28.7999 16.8438 26.8897 14.9336 24.5333 14.9336ZM22.3999 22.4003V19.2003C22.3999 18.0221 23.3551 17.0669 24.5333 17.0669C25.7115 17.0669 26.6666 18.0221 26.6666 19.2003V22.4003H22.3999Z" fill="#3F89F9"/>
<path d="M37.3982 21.9448C38.4649 20.6751 38.6993 18.9023 37.9992 17.399C37.2991 15.8957 35.7914 14.9343 34.1331 14.9336H31.9998C31.4107 14.9336 30.9331 15.4112 30.9331 16.0003V28.8003C30.9331 29.3894 31.4107 29.8669 31.9998 29.8669H35.1998C37.116 29.866 38.7966 28.5876 39.309 26.7412C39.8214 24.8947 39.0399 22.9331 37.3982 21.9448ZM34.1331 17.0669C35.3113 17.0669 36.2664 18.0221 36.2664 19.2003C36.2664 20.3785 35.3113 21.3336 34.1331 21.3336H33.0664V17.0669H34.1331ZM36.707 27.1075C36.3086 27.5094 35.7657 27.7349 35.1998 27.7336L33.0664 27.7336V23.4669H35.1998C36.0618 23.468 36.8385 23.9877 37.1683 24.7842C37.498 25.5807 37.316 26.4974 36.707 27.1075Z" fill="#3F89F9"/>
<path d="M45.8668 17.0669C47.045 17.0669 48.0001 18.0221 48.0001 19.2003C48.0001 19.7894 48.4777 20.2669 49.0668 20.2669C49.6559 20.2669 50.1334 19.7894 50.1334 19.2003C50.1334 16.8438 48.2232 14.9336 45.8668 14.9336C43.5103 14.9336 41.6001 16.8438 41.6001 19.2003V25.6003C41.6001 27.9567 43.5103 29.8669 45.8668 29.8669C48.2232 29.8669 50.1334 27.9567 50.1334 25.6003C50.1334 25.0112 49.6559 24.5336 49.0668 24.5336C48.4777 24.5336 48.0001 25.0112 48.0001 25.6003C48.0001 26.7785 47.045 27.7336 45.8668 27.7336C44.6886 27.7336 43.7334 26.7785 43.7334 25.6003V19.2003C43.7334 18.0221 44.6886 17.0669 45.8668 17.0669Z" fill="#3F89F9"/>
</g>
<defs>
<clipPath id="clip0_19187_88273">
<rect width="64" height="64" fill="white"/>
</clipPath>
</defs>
</svg>
