<svg width="65" height="64" viewBox="0 0 65 64" fill="none" xmlns="http://www.w3.org/2000/svg">
<g clip-path="url(#clip0_19187_88346)">
<path d="M49.733 18.1331C49.7317 18.6675 49.7032 19.2016 49.6476 19.7331C49.5835 20.1969 49.2244 20.5646 48.7623 20.6398L46.2236 21.0558C45.8669 22.6866 45.2202 24.2402 44.3143 25.6424L45.8183 27.7438C46.0978 28.122 46.0935 28.6396 45.8076 29.0131C45.4686 29.4256 45.1091 29.8208 44.7303 30.1971C44.3463 30.5811 43.9516 30.9331 43.5463 31.2744C43.1728 31.5603 42.6552 31.5646 42.277 31.2851L40.1756 29.7811C38.7734 30.687 37.2198 31.3337 35.589 31.6904L35.173 34.2291C35.1024 34.6936 34.7323 35.0549 34.2663 35.1144C33.2027 35.2282 32.1299 35.2282 31.0663 35.1144C30.6002 35.0549 30.2302 34.6936 30.1596 34.2291L29.7436 31.6904C28.1128 31.3337 26.5592 30.687 25.157 29.7811L23.0556 31.2851C22.6774 31.5646 22.1598 31.5603 21.7863 31.2744C21.381 30.9331 20.9863 30.5811 20.6023 30.1971C20.2235 29.8208 19.8639 29.4256 19.525 29.0131C19.2391 28.6396 19.2348 28.122 19.5143 27.7438L21.0183 25.6424C20.1124 24.2402 19.4657 22.6866 19.109 21.0558L16.5703 20.6398C16.1082 20.5646 15.7491 20.1969 15.685 19.7331C15.5712 18.6695 15.5712 17.5967 15.685 16.5331C15.7444 16.067 16.1058 15.697 16.5703 15.6264L19.109 15.2104C19.4657 13.5796 20.1124 12.026 21.0183 10.6238L19.5143 8.52242C19.2348 8.14415 19.2391 7.62661 19.525 7.25309C19.8612 6.83822 20.2209 6.44291 20.6023 6.06909C20.9786 5.69031 21.3738 5.33074 21.7863 4.99175C22.1598 4.70592 22.6774 4.70157 23.0556 4.98109L25.157 6.48509C26.5592 5.57918 28.1128 4.93247 29.7436 4.57575L30.1596 2.03709C30.2302 1.57259 30.6002 1.21123 31.0663 1.15175C32.1299 1.03796 33.2027 1.03796 34.2663 1.15175C34.7323 1.21123 35.1024 1.57259 35.173 2.03709L35.589 4.57575C37.2198 4.93247 38.7734 5.57918 40.1756 6.48509L42.277 4.98109C42.6552 4.70157 43.1728 4.70592 43.5463 4.99175C43.9588 5.33074 44.354 5.69031 44.7303 6.06909C45.1117 6.44291 45.4714 6.83822 45.8076 7.25309C46.0935 7.62661 46.0978 8.14415 45.8183 8.52242L44.3143 10.6238C45.2202 12.026 45.8669 13.5796 46.2236 15.2104L48.7623 15.6264C49.2268 15.697 49.5882 16.067 49.6476 16.5331C49.7032 17.0646 49.7317 17.5987 49.733 18.1331Z" fill="#C4D6F8"/>
<path d="M31.9731 2.03709L32.3891 4.57575C34.0199 4.93247 35.5735 5.57918 36.9757 6.48509L38.3485 5.50269C37.4634 5.09876 36.5386 4.78811 35.5891 4.57575L35.1731 2.03709C35.1025 1.57259 34.7324 1.21123 34.2664 1.15175C33.2028 1.03796 32.13 1.03796 31.0664 1.15175C31.5324 1.21123 31.9025 1.57259 31.9731 2.03709Z" fill="#C4D6F8"/>
<path d="M49.6476 16.5341C49.5881 16.0681 49.2268 15.698 48.7623 15.6274L46.2236 15.2114C45.8669 13.5806 45.2202 12.027 44.3143 10.6248L45.8183 8.52344C46.0978 8.14517 46.0934 7.62763 45.8076 7.25411C45.4713 6.83924 45.1116 6.44393 44.7303 6.07011C44.354 5.69132 43.9588 5.33175 43.5463 4.99277C43.1727 4.70693 42.6552 4.70258 42.2769 4.98211L41.19 5.76077C41.2967 5.86744 41.4204 5.96024 41.5303 6.07117C41.9116 6.44465 42.2713 6.8396 42.6076 7.25411C42.8934 7.62763 42.8978 8.14517 42.6183 8.52344L41.1143 10.6248C42.0202 12.027 42.6669 13.5806 43.0236 15.2114L45.5623 15.6274C46.0268 15.698 46.3881 16.0681 46.4476 16.5341C46.5614 17.5977 46.5614 18.6705 46.4476 19.7341C46.3834 20.1979 46.0244 20.5656 45.5623 20.6408L43.0236 21.0568C42.6669 22.6876 42.0202 24.2412 41.1143 25.6434L42.6183 27.7448C42.8978 28.123 42.8934 28.6406 42.6076 29.0141C42.2686 29.4266 41.909 29.8218 41.5303 30.1981C41.4236 30.3048 41.302 30.4018 41.19 30.5074L42.2769 31.2861C42.6552 31.5656 43.1727 31.5613 43.5463 31.2754C43.9516 30.9341 44.3463 30.5821 44.7303 30.1981C45.109 29.8218 45.4686 29.4266 45.8076 29.0141C46.0934 28.6406 46.0978 28.123 45.8183 27.7448L44.3143 25.6434C45.2202 24.2412 45.8669 22.6876 46.2236 21.0568L48.7623 20.6408C49.2244 20.5656 49.5834 20.1979 49.6476 19.7341C49.7614 18.6705 49.7614 17.5977 49.6476 16.5341Z" fill="#C4D6F8"/>
<path d="M36.9757 29.7812C35.5735 30.6872 34.0199 31.3339 32.3891 31.6906L31.9731 34.2293C31.9025 34.6937 31.5324 35.0551 31.0664 35.1146C32.13 35.2284 33.2028 35.2284 34.2664 35.1146C34.7324 35.0551 35.1025 34.6937 35.1731 34.2293L35.5891 31.6906C36.5386 31.4782 37.4634 31.1676 38.3485 30.7636L36.9757 29.7812Z" fill="#C4D6F8"/>
<path d="M32.6661 26.6663C37.379 26.6663 41.1995 22.8458 41.1995 18.1329C41.1995 13.4201 37.379 9.59961 32.6661 9.59961C27.9533 9.59961 24.1328 13.4201 24.1328 18.1329C24.1328 22.8458 27.9533 26.6663 32.6661 26.6663Z" fill="#A2C0F3"/>
<path d="M40.133 51.6056V60.8003C40.1295 61.977 39.1765 62.9301 37.9997 62.9336H27.333C26.1563 62.9301 25.2032 61.977 25.1997 60.8003V51.6056L32.6664 46.9336L40.133 51.6056Z" fill="#E7ECFA"/>
<path d="M32.6664 46.9336L31.0664 47.9352L36.9331 51.6056V60.8003C36.9296 61.977 35.9765 62.9301 34.7997 62.9336H37.9997C39.1765 62.9301 40.1296 61.977 40.1331 60.8003V51.6056L32.6664 46.9336Z" fill="#C8D7F9"/>
<path d="M31.5999 56.5332H33.7332C34.3223 56.5332 34.7999 57.0108 34.7999 57.5999V62.9332H30.5332V57.5999C30.5332 57.0108 31.0108 56.5332 31.5999 56.5332Z" fill="#A2C0F3"/>
<path d="M17.7331 51.6056V60.8003C17.7296 61.977 16.7766 62.9301 15.5998 62.9336H4.93314C3.75639 62.9301 2.80332 61.977 2.7998 60.8003V51.6056L10.2665 46.9336L17.7331 51.6056Z" fill="#E7ECFA"/>
<path d="M10.2665 46.9336L8.6665 47.9352L14.5332 51.6056V60.8003C14.5297 61.977 13.5766 62.9301 12.3998 62.9336H15.5998C16.7766 62.9301 17.7297 61.977 17.7332 60.8003V51.6056L10.2665 46.9336Z" fill="#C8D7F9"/>
<path d="M9.19948 56.5332H11.3328C11.9219 56.5332 12.3995 57.0108 12.3995 57.5999V62.9332H8.13281V57.5999C8.13281 57.0108 8.61038 56.5332 9.19948 56.5332Z" fill="#A2C0F3"/>
<path d="M62.5329 51.6056V60.8003C62.5294 61.977 61.5764 62.9301 60.3996 62.9336H49.7329C48.5562 62.9301 47.6031 61.977 47.5996 60.8003V51.6056L55.0663 46.9336L62.5329 51.6056Z" fill="#E7ECFA"/>
<path d="M55.0663 46.9336L53.4663 47.9352L59.333 51.6056V60.8003C59.3295 61.977 58.3764 62.9301 57.1996 62.9336H60.3996C61.5764 62.9301 62.5295 61.977 62.533 60.8003V51.6056L55.0663 46.9336Z" fill="#C8D7F9"/>
<path d="M53.9998 56.5332H56.1331C56.7222 56.5332 57.1998 57.0108 57.1998 57.5999V62.9332H52.9331V57.5999C52.9331 57.0108 53.4107 56.5332 53.9998 56.5332Z" fill="#A2C0F3"/>
<path d="M2.7998 60.8003C2.80332 61.977 3.75639 62.9301 4.93314 62.9336H8.13314C6.95639 62.9301 6.00332 61.977 5.9998 60.8003V51.6056L11.8665 47.9352L10.2665 46.9336L2.7998 51.6056V60.8003Z" fill="white"/>
<path d="M23.0556 31.2861L24.1426 30.5074C24.0306 30.4008 23.9122 30.309 23.8023 30.1981C23.4235 29.8218 23.0639 29.4266 22.725 29.0141C22.4391 28.6406 22.4348 28.123 22.7143 27.7448L24.2183 25.6434C23.3124 24.2412 22.6657 22.6876 22.309 21.0568L19.7703 20.6408C19.3082 20.5656 18.9491 20.1979 18.885 19.7341C18.7712 18.6705 18.7712 17.5977 18.885 16.5341C18.9444 16.0681 19.3058 15.698 19.7703 15.6274L22.309 15.2114C22.6657 13.5806 23.3124 12.027 24.2183 10.6248L22.7143 8.52344C22.4348 8.14517 22.4391 7.62763 22.725 7.25411C23.0612 6.83924 23.4209 6.44393 23.8023 6.07011C23.909 5.96344 24.0306 5.86744 24.1426 5.75971L23.0556 4.98211C22.6774 4.70258 22.1598 4.70693 21.7863 4.99277C21.3738 5.33175 20.9786 5.69132 20.6023 6.07011C20.2209 6.44393 19.8612 6.83924 19.525 7.25411C19.2391 7.62763 19.2348 8.14517 19.5143 8.52344L21.0183 10.6248C20.1124 12.027 19.4657 13.5806 19.109 15.2114L16.5703 15.6274C16.1058 15.698 15.7444 16.0681 15.685 16.5341C15.5712 17.5977 15.5712 18.6705 15.685 19.7341C15.7491 20.1979 16.1082 20.5656 16.5703 20.6408L19.109 21.0568C19.4657 22.6876 20.1124 24.2412 21.0183 25.6434L19.5143 27.7448C19.2348 28.123 19.2391 28.6406 19.525 29.0141C19.8639 29.4266 20.2235 29.8218 20.6023 30.1981C20.9863 30.5821 21.381 30.9341 21.7863 31.2754C22.1598 31.5613 22.6774 31.5656 23.0556 31.2861Z" fill="white"/>
<path d="M1.73291 51.6055H3.86624V60.1388H1.73291V51.6055Z" fill="white"/>
<path d="M2.79958 56.94C3.38868 56.94 3.86624 56.4624 3.86624 55.8733C3.86624 55.2842 3.38868 54.8066 2.79958 54.8066C2.21047 54.8066 1.73291 55.2842 1.73291 55.8733C1.73291 56.4624 2.21047 56.94 2.79958 56.94Z" fill="#3F89F9"/>
<path d="M42.2664 18.1332C42.2664 12.8313 37.9683 8.5332 32.6664 8.5332C27.3645 8.5332 23.0664 12.8313 23.0664 18.1332C23.0664 23.4351 27.3645 27.7332 32.6664 27.7332C37.9659 27.7273 42.2605 23.4327 42.2664 18.1332ZM25.1997 18.1332C25.1997 14.0095 28.5427 10.6665 32.6664 10.6665C36.7901 10.6665 40.1331 14.0095 40.1331 18.1332C40.1331 22.2569 36.7901 25.5999 32.6664 25.5999C28.5449 25.5946 25.205 22.2547 25.1997 18.1332Z" fill="#3F89F9"/>
<path d="M32.6663 53.3345C33.2554 53.3345 33.7329 52.8569 33.7329 52.2678C33.7329 51.6787 33.2554 51.2012 32.6663 51.2012C32.0772 51.2012 31.5996 51.6787 31.5996 52.2678C31.5996 52.8569 32.0772 53.3345 32.6663 53.3345Z" fill="#3F89F9"/>
<path d="M10.2664 53.3345C10.8555 53.3345 11.333 52.8569 11.333 52.2678C11.333 51.6787 10.8555 51.2012 10.2664 51.2012C9.67727 51.2012 9.19971 51.6787 9.19971 52.2678C9.19971 52.8569 9.67727 53.3345 10.2664 53.3345Z" fill="#3F89F9"/>
<path d="M55.0662 53.3345C55.6553 53.3345 56.1328 52.8569 56.1328 52.2678C56.1328 51.6787 55.6553 51.2012 55.0662 51.2012C54.4771 51.2012 53.9995 51.6787 53.9995 52.2678C53.9995 52.8569 54.4771 53.3345 55.0662 53.3345Z" fill="#3F89F9"/>
<path d="M9.1997 42.6672V46.3429L1.1677 51.3627C0.843777 51.5646 0.652214 51.9241 0.665168 52.3056C0.678123 52.6871 0.893627 53.0327 1.2305 53.2123C1.56738 53.3918 1.97444 53.378 2.29836 53.176L10.2664 48.1925L16.6664 52.1915V60.8005C16.6664 61.3896 16.1888 61.8672 15.5997 61.8672H13.4664V57.6005C13.4664 56.4223 12.5112 55.4672 11.333 55.4672H9.1997C8.02149 55.4672 7.06637 56.4223 7.06637 57.6005V61.8672H5.50797C5.25897 61.8755 5.00971 61.8702 4.7613 61.8512C4.29404 61.7748 3.93308 61.3995 3.8749 60.9296C3.86743 60.8923 3.8749 60.8528 3.86636 60.8144V60.1392C3.86636 59.5501 3.3888 59.0725 2.7997 59.0725C2.21059 59.0725 1.73303 59.5501 1.73303 60.1392V60.84C1.73943 60.9541 1.7405 61.0693 1.7565 61.1824C1.92836 62.5977 3.01574 63.7285 4.42316 63.9557C4.78316 63.9974 5.14576 64.0124 5.50797 64.0005H15.5997C17.367 64.0005 18.7997 62.5679 18.7997 60.8005V53.3339C19.2756 53.3339 19.6939 53.0187 19.825 52.5613C19.9562 52.1039 19.7686 51.6149 19.365 51.3627L11.333 46.3429V42.6672C11.333 42.0781 11.8106 41.6005 12.3997 41.6005H31.5997V46.3429L23.5677 51.3627C23.3278 51.5126 23.1573 51.7517 23.0937 52.0274C23.0301 52.303 23.0786 52.5926 23.2285 52.8325C23.4257 53.1396 23.7681 53.3225 24.133 53.3157V60.8005C24.133 62.5679 25.5657 64.0005 27.333 64.0005H37.9997C39.767 64.0005 41.1997 62.5679 41.1997 60.8005V53.3339C41.6756 53.3339 42.0939 53.0187 42.225 52.5613C42.3562 52.1039 42.1686 51.6149 41.765 51.3627L33.733 46.3429V41.6005H52.933C53.5221 41.6005 53.9997 42.0781 53.9997 42.6672V46.3429L45.9677 51.3627C45.7278 51.5126 45.5573 51.7517 45.4937 52.0274C45.4301 52.303 45.4786 52.5926 45.6285 52.8325C45.8253 53.1401 46.168 53.3232 46.533 53.3157V60.8005C46.533 62.5679 47.9657 64.0005 49.733 64.0005H60.3997C62.167 64.0005 63.5997 62.5679 63.5997 60.8005V53.3339C64.0756 53.3339 64.4939 53.0187 64.625 52.5613C64.7562 52.1039 64.5686 51.6149 64.165 51.3627L56.133 46.3429V42.6672C56.133 40.8999 54.7003 39.4672 52.933 39.4672H33.733V36.2267C33.9464 36.2117 34.1597 36.1979 34.3858 36.1755C35.3256 36.0607 36.0757 35.3376 36.2248 34.4027L36.5277 32.5595C37.7899 32.2199 39.002 31.716 40.133 31.0608L41.6562 32.152C42.4327 32.7139 43.4885 32.689 44.2376 32.0912C44.725 31.6795 45.1229 31.3168 45.4866 30.9531C45.8993 30.5436 46.2909 30.1136 46.66 29.6645C47.2316 28.9181 47.2451 27.8848 46.693 27.1237L45.5933 25.6005C46.2482 24.4705 46.7521 23.2595 47.092 21.9984L48.932 21.6965C49.8723 21.544 50.5975 20.7866 50.709 19.8405C50.8306 18.7014 50.8306 17.5525 50.709 16.4133C50.5943 15.4736 49.8711 14.7235 48.9362 14.5744L47.093 14.2715C46.753 13.0096 46.2488 11.7978 45.5933 10.6672L46.6845 9.144C47.2429 8.37445 47.2246 7.32825 46.6397 6.57867C46.2803 6.13718 45.8968 5.71591 45.4909 5.3168C45.0815 4.90418 44.6514 4.51257 44.2024 4.14347C43.4568 3.56934 42.4218 3.55587 41.6616 4.1104L40.133 5.20694C39.002 4.55175 37.7899 4.04789 36.5277 3.70827L36.2258 1.86827C36.0757 0.927946 35.3188 0.202018 34.373 0.0912024C33.2339 -0.0304008 32.085 -0.0304008 30.9458 0.0912024C30.0061 0.205938 29.256 0.929109 29.1069 1.864L28.805 3.70827C27.5428 4.04789 26.3307 4.55175 25.1997 5.20694L23.6797 4.11574C22.9083 3.55727 21.8602 3.57773 21.1112 4.16587C20.6941 4.5072 20.2696 4.8944 19.86 5.30507C19.4447 5.71123 19.053 6.14073 18.6866 6.59147C18.1062 7.33811 18.0889 8.37838 18.644 9.144L19.7394 10.6672C19.0845 11.7972 18.5807 13.0083 18.2408 14.2693L16.4008 14.5712C15.4594 14.7217 14.7332 15.4802 14.6237 16.4272C14.5014 17.5674 14.5014 18.7174 14.6237 19.8576C14.7396 20.7958 15.462 21.5442 16.3954 21.6933L18.2386 21.9963C18.579 23.2582 19.0836 24.47 19.7394 25.6005L18.6568 27.112C18.0921 27.8846 18.1091 28.9383 18.6984 29.6923C19.0397 30.1093 19.4269 30.5339 19.8472 30.9541C20.213 31.32 20.6109 31.6827 21.1357 32.1275C21.8815 32.7009 22.916 32.7144 23.6765 32.1605L25.1997 31.0608C26.3297 31.7157 27.5408 32.2196 28.8018 32.5595L29.1037 34.3995C29.2542 35.3408 30.0127 36.0671 30.9597 36.1765C31.1805 36.1989 31.3864 36.2128 31.5997 36.2267V39.4672H12.3997C10.6324 39.4672 9.1997 40.8999 9.1997 42.6672ZM9.1997 61.8672V57.6005H11.333V61.8672H9.1997ZM31.5997 61.8672V57.6005H33.733V61.8672H31.5997ZM37.9997 61.8672H35.8664V57.6005C35.8664 56.4223 34.9112 55.4672 33.733 55.4672H31.5997C30.4215 55.4672 29.4664 56.4223 29.4664 57.6005V61.8672H27.333C26.7439 61.8672 26.2664 61.3896 26.2664 60.8005V52.1915L32.6664 48.1925L39.0664 52.1915V60.8005C39.0664 61.3896 38.5888 61.8672 37.9997 61.8672ZM53.9997 61.8672V57.6005H56.133V61.8672H53.9997ZM60.3997 61.8672H58.2664V57.6005C58.2664 56.4223 57.3112 55.4672 56.133 55.4672H53.9997C52.8215 55.4672 51.8664 56.4223 51.8664 57.6005V61.8672H49.733C49.1439 61.8672 48.6664 61.3896 48.6664 60.8005V52.1915L55.0664 48.1925L61.4664 52.1915V60.8005C61.4664 61.3896 60.9888 61.8672 60.3997 61.8672ZM30.7954 31.5184C30.7248 31.0874 30.3986 30.7429 29.972 30.6491C28.4645 30.3208 27.0286 29.7235 25.733 28.8859C25.3653 28.6478 24.8894 28.6588 24.533 28.9136L22.4701 30.4603C22.0882 30.1403 21.716 29.8064 21.3522 29.4427C21.0077 29.1021 20.6826 28.7424 20.3784 28.3653L21.8834 26.264C22.1378 25.909 22.15 25.4349 21.9144 25.0672C21.0771 23.7726 20.4798 22.3378 20.1512 20.8315C20.0573 20.4049 19.7129 20.0786 19.2818 20.008L16.7464 19.6272C16.694 19.1311 16.6673 18.6327 16.6664 18.1339C16.6669 17.6482 16.6925 17.163 16.7432 16.68L19.2818 16.2629C19.7129 16.1923 20.0573 15.8661 20.1512 15.4395C20.4794 13.932 21.0767 12.4961 21.9144 11.2005C22.1524 10.8328 22.1414 10.3569 21.8866 10.0005L20.3506 7.92587C20.6664 7.54125 21.0033 7.17446 21.3597 6.8272C21.7003 6.48269 22.06 6.15756 22.437 5.85334L24.5384 7.3584C24.8944 7.60947 25.3674 7.61876 25.733 7.38187C27.0276 6.54457 28.4624 5.9473 29.9688 5.61867C30.3954 5.52483 30.7216 5.18038 30.7922 4.74934L31.173 2.21387C32.1523 2.10934 33.1399 2.10934 34.1192 2.21387L34.5362 4.75254C34.6068 5.18358 34.9331 5.52803 35.3597 5.62187C36.8673 5.94903 38.3036 6.54522 39.5997 7.38187C39.9674 7.61991 40.4433 7.60892 40.7997 7.35414L42.8744 5.81814C43.263 6.13848 43.6354 6.47811 43.9901 6.83574C44.3321 7.17086 44.6527 7.52712 44.9501 7.9024L43.445 10.0037C43.192 10.3596 43.1815 10.8337 43.4184 11.2005C44.2557 12.4951 44.8529 13.9299 45.1816 15.4363C45.2754 15.8629 45.6199 16.1891 46.0509 16.2597L48.5864 16.6384C48.6388 17.1352 48.6655 17.6343 48.6664 18.1339C48.6659 18.6195 48.6402 19.1048 48.5896 19.5877L46.0509 20.0048C45.6199 20.0754 45.2754 20.4017 45.1816 20.8283C44.8533 22.3357 44.256 23.7716 43.4184 25.0672C43.1803 25.4349 43.1913 25.9108 43.4461 26.2672L44.9821 28.3419C44.6877 28.7024 44.3485 29.0736 43.9752 29.448C43.6018 29.8224 43.2413 30.1413 42.8978 30.4219L40.7965 28.9168C40.4415 28.6625 39.9674 28.6502 39.5997 28.8859C38.3051 29.7232 36.8703 30.3204 35.364 30.6491C34.9374 30.7429 34.6111 31.0874 34.5405 31.5184L34.1597 34.0539C33.1804 34.1584 32.1928 34.1584 31.2136 34.0539L30.7954 31.5184Z" fill="#3F89F9"/>
</g>
<defs>
<clipPath id="clip0_19187_88346">
<rect width="64" height="64" fill="white" transform="translate(0.666504)"/>
</clipPath>
</defs>
</svg>
