<svg width="65" height="64" viewBox="0 0 65 64" fill="none" xmlns="http://www.w3.org/2000/svg">
<g clip-path="url(#clip0_19187_88718)">
<path d="M63.6001 8.53398V42.6673C63.6001 44.4346 62.1674 45.8673 60.4001 45.8673H51.8667V44.8007C51.8667 44.2115 51.3892 43.734 50.8001 43.734H14.5334C13.9443 43.734 13.4667 44.2115 13.4667 44.8007V45.8673H4.9334C3.16609 45.8673 1.7334 44.4346 1.7334 42.6673V8.53398C1.7334 6.76667 3.16609 5.33398 4.9334 5.33398H60.4001C62.1674 5.33398 63.6001 6.76667 63.6001 8.53398Z" fill="#E7ECFA"/>
<path d="M10.2666 44.7991V45.8658H13.4666V44.7991C13.4666 44.21 13.9442 43.7324 14.5333 43.7324H11.3333C10.7442 43.7324 10.2666 44.21 10.2666 44.7991Z" fill="#C8D7F9"/>
<path d="M60.3997 5.33398H57.1997C58.967 5.33398 60.3997 6.76667 60.3997 8.53398V42.6673C60.3997 44.4346 58.967 45.8673 57.1997 45.8673H60.3997C62.167 45.8673 63.5997 44.4346 63.5997 42.6673V8.53398C63.5997 6.76667 62.167 5.33398 60.3997 5.33398Z" fill="#C8D7F9"/>
<path d="M31.5996 1.06641H33.733C34.9112 1.06641 35.8663 2.02153 35.8663 3.19974V5.33307H29.4663V3.19974C29.4663 2.02153 30.4214 1.06641 31.5996 1.06641Z" fill="#C4D6F8"/>
<path d="M33.7331 1.06641H31.5997C31.4194 1.06862 31.2402 1.09407 31.0664 1.14214C32.0054 1.38459 32.6628 2.22992 32.6664 3.19974V5.33307H35.8664V3.19974C35.8664 2.02153 34.9113 1.06641 33.7331 1.06641Z" fill="#A2C1F9"/>
<path d="M50.7996 43.7324H14.533C13.9439 43.7324 13.4663 44.21 13.4663 44.7991V47.9991C13.4663 48.5882 13.9439 49.0658 14.533 49.0658H50.7996C51.3887 49.0658 51.8663 48.5882 51.8663 47.9991V44.7991C51.8663 44.21 51.3887 43.7324 50.7996 43.7324Z" fill="#C4D6F8"/>
<path d="M50.7996 43.7324H47.5996C48.1887 43.7324 48.6663 44.21 48.6663 44.7991V47.9991C48.6663 48.5882 48.1887 49.0658 47.5996 49.0658H50.7996C51.3887 49.0658 51.8663 48.5882 51.8663 47.9991V44.7991C51.8663 44.21 51.3887 43.7324 50.7996 43.7324Z" fill="#A2C1F9"/>
<path d="M35.8663 49.0664V59.7331C35.8663 61.5004 34.4336 62.9331 32.6663 62.9331C30.899 62.9331 29.4663 61.5004 29.4663 59.7331V49.0664H35.8663Z" fill="#A2C0F3"/>
<path d="M32.6664 49.0664V59.7331C32.6646 60.8719 32.0544 61.923 31.0664 62.4893C31.5506 62.7773 32.103 62.9305 32.6664 62.9331C34.4337 62.9331 35.8664 61.5004 35.8664 59.7331V49.0664H32.6664Z" fill="#7DA9F5"/>
<path d="M26.5227 49.0664L19.44 61.3331C18.5563 62.8647 16.5983 63.3901 15.0667 62.5064C13.535 61.6227 13.0097 59.6647 13.8933 58.1331L19.1307 49.0664H26.5227Z" fill="#A2C0F3"/>
<path d="M23.3226 49.0664L16.2399 61.3331C15.9533 61.8212 15.5416 62.2241 15.0474 62.5L15.0559 62.5064C16.591 63.3895 18.5512 62.8649 19.4399 61.3331L26.5226 49.0664H23.3226Z" fill="#7DA9F5"/>
<path d="M50.2772 62.5064C48.7421 63.3895 46.7819 62.8649 45.8932 61.3331L38.8105 49.0664H46.2025L51.4399 58.1331C52.3264 59.6618 51.8059 61.6197 50.2772 62.5064Z" fill="#A2C0F3"/>
<path d="M51.4398 58.1331L46.2024 49.0664H43.0024L48.2398 58.1331C49.1234 59.6582 48.6074 61.6106 47.0856 62.5C48.3378 63.2281 49.9234 63.0207 50.9461 61.995C51.9688 60.9693 52.1716 59.3831 51.4398 58.1331Z" fill="#7DA9F5"/>
<path d="M4.9334 45.8673H8.1334C6.36609 45.8673 4.9334 44.4346 4.9334 42.6673V8.53398C4.9334 6.76667 6.36609 5.33398 8.1334 5.33398H4.9334C3.16609 5.33398 1.7334 6.76667 1.7334 8.53398V42.6673C1.7334 44.4346 3.16609 45.8673 4.9334 45.8673Z" fill="white"/>
<path d="M0.666504 8.5332H2.79984V17.0665H0.666504V8.5332Z" fill="white"/>
<path d="M1.73317 13.8658C2.32227 13.8658 2.79984 13.3882 2.79984 12.7991C2.79984 12.21 2.32227 11.7324 1.73317 11.7324C1.14407 11.7324 0.666504 12.21 0.666504 12.7991C0.666504 13.3882 1.14407 13.8658 1.73317 13.8658Z" fill="#3F89F9"/>
<path d="M60.3998 4.26667H36.9332V3.2C36.9332 1.43269 35.5005 0 33.7332 0H31.5998C29.8325 0 28.3998 1.43269 28.3998 3.2V4.26667H4.93317C2.57676 4.26667 0.666504 6.17692 0.666504 8.53333C0.666504 8.91442 0.869809 9.26655 1.19984 9.45709C1.52987 9.64764 1.93648 9.64764 2.2665 9.45709C2.59653 9.26655 2.79984 8.91442 2.79984 8.53333C2.79984 7.35513 3.75496 6.4 4.93317 6.4H60.3998C61.578 6.4 62.5332 7.35513 62.5332 8.53333V42.6667C62.5332 43.8449 61.578 44.8 60.3998 44.8H52.9332C52.9332 43.6218 51.978 42.6667 50.7998 42.6667H14.5332C13.355 42.6667 12.3998 43.6218 12.3998 44.8H4.93317C3.75496 44.8 2.79984 43.8449 2.79984 42.6667V17.0667C2.79984 16.4776 2.32227 16 1.73317 16C1.14407 16 0.666504 16.4776 0.666504 17.0667V42.6667C0.666504 45.0231 2.57676 46.9333 4.93317 46.9333H12.3998V48C12.3998 49.1782 13.355 50.1333 14.5332 50.1333H17.283L12.9705 57.6C12.2014 58.9162 12.1954 60.5433 12.9548 61.8652C13.7142 63.187 15.1229 64.0014 16.6473 64C18.1779 64.0025 19.5939 63.1896 20.3636 61.8667L27.139 50.1333H28.3998V59.7333C28.3998 62.0898 30.3101 64 32.6665 64C35.0229 64 36.9332 62.0898 36.9332 59.7333V50.1333H38.194L44.9705 61.8667C46.1599 63.9016 48.7669 64.598 50.8126 63.4272C52.8487 62.2453 53.5428 59.6376 52.3636 57.6L48.05 50.1333H50.7998C51.978 50.1333 52.9332 49.1782 52.9332 48V46.9333H60.3998C62.7563 46.9333 64.6665 45.0231 64.6665 42.6667V8.53333C64.6665 6.17692 62.7563 4.26667 60.3998 4.26667ZM30.5332 4.26667V3.2C30.5332 2.6109 31.0107 2.13333 31.5998 2.13333H33.7332C34.3223 2.13333 34.7998 2.6109 34.7998 3.2V4.26667H30.5332ZM18.5172 60.8C17.9215 61.8187 16.6174 62.1691 15.5913 61.5861C15.101 61.3021 14.7438 60.8347 14.5985 60.287C14.4532 59.7393 14.5318 59.1564 14.8169 58.6667L19.746 50.1333H24.675L18.5172 60.8ZM34.7998 59.7333C34.7998 60.9115 33.8447 61.8667 32.6665 61.8667C31.4883 61.8667 30.5332 60.9115 30.5332 59.7333V50.1333H34.7998V59.7333ZM50.5172 58.6667C51.1059 59.6835 50.7616 60.9849 49.747 61.5776C48.7222 62.1649 47.4156 61.8182 46.8169 60.8L40.658 50.1333H45.587L50.5172 58.6667ZM14.5332 48V44.8H50.7998V48H14.5332Z" fill="#3F89F9"/>
<path d="M29.4666 28.7995C28.8775 28.7995 28.3999 29.2771 28.3999 29.8662C28.3999 30.4553 28.8775 30.9329 29.4666 30.9329H35.8666C36.4557 30.9329 36.9332 30.4553 36.9332 29.8662C36.9332 29.2771 36.4557 28.7995 35.8666 28.7995H33.7332V18.1329C33.7331 17.7015 33.4733 17.3127 33.0747 17.1476C32.6762 16.9826 32.2175 17.0738 31.9124 17.3787L28.7124 20.5787C28.3082 20.9973 28.314 21.6626 28.7254 22.074C29.1369 22.4855 29.8022 22.4912 30.2207 22.087L31.5999 20.7078V28.7995H29.4666Z" fill="#3F89F9"/>
<path d="M11.3333 28.7995C10.7442 28.7995 10.2666 29.2771 10.2666 29.8662C10.2666 30.4553 10.7442 30.9329 11.3333 30.9329H17.7333C18.3224 30.9329 18.7999 30.4553 18.7999 29.8662C18.7999 29.2771 18.3224 28.7995 17.7333 28.7995H15.5999V18.1329C15.5998 17.7015 15.34 17.3127 14.9414 17.1476C14.5429 16.9826 14.0842 17.0738 13.7791 17.3787L10.5791 20.5787C10.1749 20.9973 10.1807 21.6626 10.5921 22.074C11.0036 22.4855 11.6689 22.4912 12.0874 22.087L13.4666 20.7078V28.7995H11.3333Z" fill="#3F89F9"/>
<path d="M37.9998 23.4673H42.2664C42.8555 23.4673 43.3331 22.9898 43.3331 22.4007C43.3331 21.8115 42.8555 21.334 42.2664 21.334H37.9998C37.4107 21.334 36.9331 21.8115 36.9331 22.4007C36.9331 22.9898 37.4107 23.4673 37.9998 23.4673Z" fill="#3F89F9"/>
<path d="M37.9998 27.7329H42.2664C42.8555 27.7329 43.3331 27.2554 43.3331 26.6663C43.3331 26.0772 42.8555 25.5996 42.2664 25.5996H37.9998C37.4107 25.5996 36.9331 26.0772 36.9331 26.6663C36.9331 27.2554 37.4107 27.7329 37.9998 27.7329Z" fill="#3F89F9"/>
<path d="M23.0667 21.334C22.4776 21.334 22 21.8115 22 22.4007V23.4673H20.9334C20.3443 23.4673 19.8667 23.9449 19.8667 24.534C19.8667 25.1231 20.3443 25.6007 20.9334 25.6007H22V26.6673C22 27.2564 22.4776 27.734 23.0667 27.734C23.6558 27.734 24.1334 27.2564 24.1334 26.6673V25.6007H25.2C25.7891 25.6007 26.2667 25.1231 26.2667 24.534C26.2667 23.9449 25.7891 23.4673 25.2 23.4673H24.1334V22.4007C24.1334 21.8115 23.6558 21.334 23.0667 21.334Z" fill="#3F89F9"/>
<path d="M49.9988 25.2317C48.4532 26.1245 46.5332 27.2371 46.5332 29.8664C46.5332 30.4555 47.0108 30.9331 47.5999 30.9331H53.9999C54.589 30.9331 55.0665 30.4555 55.0665 29.8664C55.0665 29.2773 54.589 28.7997 53.9999 28.7997H48.9119C49.4667 28.0469 50.2098 27.4532 51.0665 27.0781C52.8489 26.0467 55.0665 24.7635 55.0665 21.3331C55.0665 18.9767 53.1563 17.0664 50.7999 17.0664C48.4435 17.0664 46.5332 18.9767 46.5332 21.3331C46.5332 21.9222 47.0108 22.3997 47.5999 22.3997C48.189 22.3997 48.6665 21.9222 48.6665 21.3331C48.6665 20.1549 49.6217 19.1997 50.7999 19.1997C51.9781 19.1997 52.9332 20.1549 52.9332 21.3331C52.9332 23.4269 51.8185 24.1779 49.9988 25.2317Z" fill="#3F89F9"/>
</g>
<defs>
<clipPath id="clip0_19187_88718">
<rect width="64" height="64" fill="white" transform="translate(0.666504)"/>
</clipPath>
</defs>
</svg>
