<svg width="65" height="64" viewBox="0 0 65 64" fill="none" xmlns="http://www.w3.org/2000/svg">
<g clip-path="url(#clip0_19187_88803)">
<path d="M55.8005 43.7324H45.1338C43.9556 43.7324 43.0005 44.6875 43.0005 45.8658V60.7991C43.0005 61.9773 43.9556 62.9324 45.1338 62.9324H55.8005C56.9787 62.9324 57.9338 61.9773 57.9338 60.7991V45.8658C57.9338 44.6875 56.9787 43.7324 55.8005 43.7324Z" fill="#E8EDFC"/>
<path d="M55.8006 43.7324H52.6006C53.7788 43.7324 54.7339 44.6875 54.7339 45.8658V60.7991C54.7339 61.9773 53.7788 62.9324 52.6006 62.9324H55.8006C56.9788 62.9324 57.9339 61.9773 57.9339 60.7991V45.8658C57.9339 44.6875 56.9788 43.7324 55.8006 43.7324Z" fill="#CAD9FC"/>
<path d="M36.6008 50.1328H25.9341C24.7559 50.1328 23.8008 51.0879 23.8008 52.2661V60.7995C23.8008 61.9777 24.7559 62.9328 25.9341 62.9328H36.6008C37.779 62.9328 38.7341 61.9777 38.7341 60.7995V52.2661C38.7341 51.0879 37.779 50.1328 36.6008 50.1328Z" fill="#E8EDFC"/>
<path d="M36.6004 50.1328H33.4004C34.5786 50.1328 35.5337 51.0879 35.5337 52.2661V60.7995C35.5337 61.9777 34.5786 62.9328 33.4004 62.9328H36.6004C37.7786 62.9328 38.7337 61.9777 38.7337 60.7995V52.2661C38.7337 51.0879 37.7786 50.1328 36.6004 50.1328Z" fill="#CAD9FC"/>
<path d="M17.4006 56.5332H6.73392C5.55571 56.5332 4.60059 57.4883 4.60059 58.6665V60.7999C4.60059 61.9781 5.55571 62.9332 6.73392 62.9332H17.4006C18.5788 62.9332 19.5339 61.9781 19.5339 60.7999V58.6665C19.5339 57.4883 18.5788 56.5332 17.4006 56.5332Z" fill="#E8EDFC"/>
<path d="M17.4007 56.5332H14.2007C15.3789 56.5332 16.334 57.4883 16.334 58.6665V60.7999C16.334 61.9781 15.3789 62.9332 14.2007 62.9332H17.4007C18.5789 62.9332 19.534 61.9781 19.534 60.7999V58.6665C19.534 57.4883 18.5789 56.5332 17.4007 56.5332Z" fill="#CAD9FC"/>
<path d="M55.8005 24.5332V41.0665C55.8005 42.5393 54.6065 43.7332 53.1338 43.7332C51.661 43.7332 50.4671 42.5393 50.4671 41.0665C50.4671 42.5393 49.2732 43.7332 47.8005 43.7332C46.3277 43.7332 45.1338 42.5393 45.1338 41.0665V24.5332H55.8005Z" fill="#A4C2F7"/>
<path d="M52.6004 24.5332V41.0665C52.5992 41.9027 52.2039 42.6893 51.5337 43.1892C52.3386 43.801 53.421 43.9032 54.3262 43.4529C55.2315 43.0025 55.8028 42.0776 55.8004 41.0665L55.8004 24.5332H52.6004Z" fill="#7FACFA"/>
<path d="M55.8005 9.59896C55.8004 9.76658 55.7897 9.93403 55.7685 10.1003C55.5614 12.3558 53.9467 14.2318 51.7471 14.7723C51.3289 14.8792 50.8988 14.933 50.4671 14.9323C50.0389 14.9337 49.6123 14.8799 49.1978 14.7723C46.9917 14.2395 45.3702 12.3606 45.1658 10.1003C45.1445 9.93403 45.1338 9.76658 45.1338 9.59896C45.1338 6.65344 47.5216 4.26562 50.4671 4.26562C53.4126 4.26562 55.8005 6.65344 55.8005 9.59896Z" fill="#E8EDFC"/>
<path d="M50.4672 4.26562C49.923 4.27305 49.3833 4.36481 48.8672 4.53763C51.0831 5.22877 52.5945 7.27773 52.6005 9.59896C52.6005 9.76658 52.5898 9.93403 52.5685 10.1003C52.3692 12.2296 50.9093 14.0304 48.8672 14.6656C48.9739 14.6998 49.0805 14.7456 49.1947 14.7723C49.6102 14.8802 50.0379 14.9339 50.4672 14.9323C50.8989 14.933 51.3289 14.8792 51.7472 14.7723C53.9467 14.2318 55.5615 12.3558 55.7685 10.1003C55.7898 9.93403 55.8005 9.76658 55.8005 9.59896C55.8005 6.65344 53.4127 4.26562 50.4672 4.26562Z" fill="#CAD9FC"/>
<path d="M60.0672 3.19974V9.59974C60.0585 12.2836 58.7958 14.8092 56.6539 16.4264L55.8005 17.0664V24.5331H45.1339V17.0664L44.2805 16.4264C42.1386 14.8092 40.8758 12.2836 40.8672 9.59974V3.19974C40.8672 2.02153 41.8223 1.06641 43.0005 1.06641C44.1787 1.06641 45.1339 2.02153 45.1339 3.19974V9.59974C45.1339 9.76736 45.1446 9.93481 45.1659 10.1011C45.3702 12.3613 46.9918 14.2403 49.1979 14.7731C49.6123 14.8807 50.039 14.9345 50.4672 14.9331C50.8989 14.9338 51.3289 14.88 51.7472 14.7731C53.9467 14.2326 55.5615 12.3566 55.7685 10.1011C55.7898 9.93481 55.8005 9.76736 55.8005 9.59974V3.19974C55.8005 2.02153 56.7556 1.06641 57.9339 1.06641C59.1121 1.06641 60.0672 2.02153 60.0672 3.19974Z" fill="#E8EDFC"/>
<path d="M41.9337 3.19896V9.59896C41.9338 9.76658 41.9444 9.93403 41.9657 10.1003C42.1701 12.3606 43.7917 14.2395 45.9977 14.7723C46.4122 14.8799 46.8388 14.9337 47.2671 14.9323C47.6988 14.933 48.1288 14.8792 48.5471 14.7723C48.6537 14.7446 48.7604 14.6998 48.8671 14.6656C46.8231 14.0331 45.3619 12.2309 45.1657 10.1003C45.1444 9.93403 45.1338 9.76658 45.1337 9.59896V3.19896C45.1374 2.30944 44.5863 1.51189 43.753 1.2007C42.9196 0.889514 41.9807 1.13063 41.4004 1.80483C41.7417 2.18928 41.9313 2.68488 41.9337 3.19896Z" fill="#CAD9FC"/>
<path d="M57.9339 1.06641C57.3187 1.06942 56.735 1.33908 56.3339 1.80561C56.6752 2.19006 56.8648 2.68566 56.8673 3.19974V9.59974C56.8586 12.2836 55.5958 14.8092 53.4539 16.4264L52.6006 17.0664V24.5331H55.8006V17.0664L56.6539 16.4264C58.7958 14.8092 60.0586 12.2836 60.0673 9.59974V3.19974C60.0637 2.02299 59.1107 1.06992 57.9339 1.06641Z" fill="#CAD9FC"/>
<path d="M7.80059 60.7999V58.6665C7.80059 57.4883 8.75571 56.5332 9.93392 56.5332H6.73392C5.55571 56.5332 4.60059 57.4883 4.60059 58.6665V60.7999C4.60059 61.9781 5.55571 62.9332 6.73392 62.9332H9.93392C8.75571 62.9332 7.80059 61.9781 7.80059 60.7999Z" fill="white"/>
<path d="M6.73389 61.8672H15.2672V64.0005H6.73389V61.8672Z" fill="white"/>
<path d="M53.6671 54.4004C53.078 54.4004 52.6004 54.878 52.6004 55.4671V57.6004H50.4671C49.878 57.6004 49.4004 58.078 49.4004 58.6671C49.4004 59.2562 49.878 59.7337 50.4671 59.7337H53.6671C54.2562 59.7337 54.7337 59.2562 54.7337 58.6671V55.4671C54.7337 54.878 54.2562 54.4004 53.6671 54.4004Z" fill="#428DFF"/>
<path d="M36.6006 49.0664H25.9339C24.1666 49.0664 22.7339 50.4991 22.7339 52.2664V60.7997C22.7339 62.5671 24.1666 63.9997 25.9339 63.9997H36.6006C38.3679 63.9997 39.8006 62.5671 39.8006 60.7997V52.2664C39.8006 50.4991 38.3679 49.0664 36.6006 49.0664ZM37.6672 60.7997C37.6672 61.3888 37.1897 61.8664 36.6006 61.8664H25.9339C25.3448 61.8664 24.8672 61.3888 24.8672 60.7997V52.2664C24.8672 51.6773 25.3448 51.1997 25.9339 51.1997H36.6006C37.1897 51.1997 37.6672 51.6773 37.6672 52.2664V60.7997Z" fill="#428DFF"/>
<path d="M11.0217 64.0005C10.4326 64.0035 9.95267 63.5283 9.94972 62.9392C9.94678 62.3501 10.422 61.8701 11.0111 61.8672H11.0217C11.6108 61.8672 12.0884 62.3448 12.0884 62.9339C12.0884 63.523 11.6108 64.0005 11.0217 64.0005Z" fill="#428DFF"/>
<path d="M17.4004 55.4668H6.73369C4.96638 55.4668 3.53369 56.8995 3.53369 58.6668V60.8001C3.53369 62.5674 4.96638 64.0001 6.73369 64.0001C7.3228 64.0001 7.80036 63.5226 7.80036 62.9335C7.80036 62.3444 7.3228 61.8668 6.73369 61.8668C6.14459 61.8668 5.66702 61.3892 5.66702 60.8001V58.6668C5.66702 58.0777 6.14459 57.6001 6.73369 57.6001H17.4004C17.9895 57.6001 18.467 58.0777 18.467 58.6668V60.8001C18.467 61.3892 17.9895 61.8668 17.4004 61.8668H15.267C14.6779 61.8668 14.2004 62.3444 14.2004 62.9335C14.2004 63.5226 14.6779 64.0001 15.267 64.0001H17.4004C19.1677 64.0001 20.6004 62.5674 20.6004 60.8001V58.6668C20.6004 56.8995 19.1677 55.4668 17.4004 55.4668Z" fill="#428DFF"/>
<path d="M40.8672 27.7324C34.9788 27.7389 30.207 32.5107 30.2005 38.3991V38.4055C27.4464 34.7334 22.6521 33.235 18.2971 34.6852C13.9421 36.1354 11.0032 40.209 11.0005 44.7991V52.2658C11.0005 52.8549 11.4781 53.3324 12.0672 53.3324C12.6563 53.3324 13.1338 52.8549 13.1338 52.2658V44.7991C13.1338 40.0863 16.9543 36.2658 21.6672 36.2658C26.38 36.2658 30.2005 40.0863 30.2005 44.7991V45.8658C30.2005 46.4549 30.6781 46.9324 31.2672 46.9324C31.8563 46.9324 32.3338 46.4549 32.3338 45.8658V38.3991C32.3391 33.6885 36.1565 29.871 40.8672 29.8658C41.4563 29.8658 41.9338 29.3882 41.9338 28.7991C41.9338 28.21 41.4563 27.7324 40.8672 27.7324Z" fill="#428DFF"/>
<path d="M57.9336 0C56.1663 0 54.7336 1.43269 54.7336 3.2V4.84267C52.3108 2.65254 48.6232 2.65254 46.2003 4.84267V3.2C46.2003 1.43269 44.7676 0 43.0003 0C41.233 0 39.8003 1.43269 39.8003 3.2V9.6C39.8078 12.6199 41.2289 15.4621 43.6403 17.28L44.067 17.6V41.0667C44.0708 41.6474 44.2107 42.2191 44.4755 42.736C42.9945 43.0472 41.9341 44.3534 41.9336 45.8667V60.8C41.9336 62.5673 43.3663 64 45.1336 64H55.8003C57.5676 64 59.0003 62.5673 59.0003 60.8V45.8667C59 44.352 57.9379 43.0449 56.4552 42.7349C56.7222 42.2191 56.8632 41.6475 56.867 41.0667V17.6L57.2936 17.28C59.7053 15.4623 61.1265 12.62 61.1336 9.6V3.2C61.1336 1.43269 59.7009 0 57.9336 0ZM50.467 5.33333C52.8234 5.33333 54.7336 7.24359 54.7336 9.6C54.7332 9.73592 54.7239 9.87167 54.7059 10.0064C54.5406 11.8122 53.2449 13.3129 51.4824 13.7397C50.8145 13.9115 50.1141 13.9115 49.4462 13.7397C49.0152 13.6341 48.6037 13.461 48.227 13.2267C47.0819 12.5168 46.3408 11.3064 46.2291 9.96373C46.2115 9.84325 46.2019 9.72174 46.2003 9.6C46.2003 7.24359 48.1105 5.33333 50.467 5.33333ZM56.867 45.8667V60.8C56.867 61.3891 56.3894 61.8667 55.8003 61.8667H45.1336C44.5445 61.8667 44.067 61.3891 44.067 60.8V45.8667C44.067 45.2776 44.5445 44.8 45.1336 44.8H55.8003C56.3894 44.8 56.867 45.2776 56.867 45.8667ZM54.7336 25.6V41.0667C54.7336 41.9503 54.0173 42.6667 53.1336 42.6667C52.25 42.6667 51.5336 41.9503 51.5336 41.0667C51.5274 40.9759 51.5095 40.8862 51.4803 40.8C51.5095 40.7138 51.5274 40.6242 51.5336 40.5333V26.6667C51.5336 26.0776 51.0561 25.6 50.467 25.6C49.8779 25.6 49.4003 26.0776 49.4003 26.6667V40.5333C49.4065 40.6242 49.4244 40.7138 49.4536 40.8C49.4244 40.8862 49.4065 40.9759 49.4003 41.0667C49.4003 41.9503 48.6839 42.6667 47.8003 42.6667C46.9166 42.6667 46.2003 41.9503 46.2003 41.0667V17.0667C46.2003 16.7309 46.0422 16.4148 45.7736 16.2133L44.9203 15.5733C43.0448 14.1594 41.9395 11.9488 41.9336 9.6V3.2C41.9336 2.6109 42.4112 2.13333 43.0003 2.13333C43.5894 2.13333 44.067 2.6109 44.067 3.2V9.6C44.0666 9.79932 44.0787 9.99846 44.1032 10.1963C44.3767 12.8919 46.3023 15.131 48.9267 15.8048H48.9406H48.948H48.9619C49.4535 15.9323 49.9591 15.9978 50.467 16C50.9846 16.0007 51.5002 15.9365 52.0019 15.8091C54.6321 15.1698 56.5686 12.9345 56.8264 10.24V10.2133V10.1995V10.1867C56.8512 9.99205 56.8647 9.79617 56.867 9.6V3.2C56.867 2.6109 57.3445 2.13333 57.9336 2.13333C58.5227 2.13333 59.0003 2.6109 59.0003 3.2V9.6C58.9948 11.9489 57.8894 14.1596 56.0136 15.5733L55.1603 16.2133C54.8917 16.4148 54.7336 16.7309 54.7336 17.0667V25.6Z" fill="#428DFF"/>
</g>
<defs>
<clipPath id="clip0_19187_88803">
<rect width="64" height="64" fill="white" transform="translate(0.333496)"/>
</clipPath>
</defs>
</svg>
