<svg width="64" height="64" viewBox="0 0 64 64" fill="none" xmlns="http://www.w3.org/2000/svg">
<g clip-path="url(#clip0_19187_88197)">
<path d="M15.9998 13.8668C17.7671 13.8668 19.1998 12.4341 19.1998 10.6668C19.1998 8.89949 17.7671 7.4668 15.9998 7.4668C14.2325 7.4668 12.7998 8.89949 12.7998 10.6668C12.7998 12.4341 14.2325 13.8668 15.9998 13.8668Z" fill="#E7ECFA"/>
<path d="M41.5999 13.8668C43.3672 13.8668 44.7999 12.4341 44.7999 10.6668C44.7999 8.89949 43.3672 7.4668 41.5999 7.4668C39.8326 7.4668 38.3999 8.89949 38.3999 10.6668C38.3999 12.4341 39.8326 13.8668 41.5999 13.8668Z" fill="#C4D6F8"/>
<path d="M35.2 13.8668C36.9673 13.8668 38.4 12.4341 38.4 10.6668C38.4 8.89949 36.9673 7.4668 35.2 7.4668C33.4327 7.4668 32 8.89949 32 10.6668C32 12.4341 33.4327 13.8668 35.2 13.8668Z" fill="#E7ECFA"/>
<path d="M28.8001 13.8668C30.5674 13.8668 32.0001 12.4341 32.0001 10.6668C32.0001 8.89949 30.5674 7.4668 28.8001 7.4668C27.0328 7.4668 25.6001 8.89949 25.6001 10.6668C25.6001 12.4341 27.0328 13.8668 28.8001 13.8668Z" fill="#C4D6F8"/>
<path d="M47.9998 13.8668C49.7671 13.8668 51.1998 12.4341 51.1998 10.6668C51.1998 8.89949 49.7671 7.4668 47.9998 7.4668C46.2325 7.4668 44.7998 8.89949 44.7998 10.6668C44.7998 12.4341 46.2325 13.8668 47.9998 13.8668Z" fill="#E7ECFA"/>
<path d="M47.9999 7.4668C47.4366 7.46973 46.8843 7.6229 46.3999 7.91053C47.3891 8.47568 47.9996 9.52756 47.9996 10.6668C47.9996 11.806 47.3891 12.8579 46.3999 13.4231C46.8843 13.7107 47.4366 13.8639 47.9999 13.8668C49.7672 13.8668 51.1999 12.4341 51.1999 10.6668C51.1999 8.89949 49.7672 7.4668 47.9999 7.4668Z" fill="#C8D7F9"/>
<path d="M5.86686 1.06641C7.33962 1.06641 8.53353 2.26031 8.53353 3.73307V58.6664H3.2002V3.73307C3.2002 2.26031 4.3941 1.06641 5.86686 1.06641Z" fill="#E7ECFA"/>
<path d="M5.8666 1.06641C5.28804 1.06839 4.72605 1.25984 4.2666 1.61147C4.93624 2.11139 5.33142 2.89741 5.33327 3.73307V58.6664H8.53327V3.73307C8.53327 2.26031 7.33936 1.06641 5.8666 1.06641Z" fill="#C8D7F9"/>
<path d="M58.1335 1.06641C59.6062 1.06641 60.8001 2.26031 60.8001 3.73307V58.6664H55.4668V3.73307C55.4668 2.26031 56.6607 1.06641 58.1335 1.06641Z" fill="#E7ECFA"/>
<path d="M58.1332 1.06641C57.5546 1.06839 56.9927 1.25984 56.5332 1.61147C57.2028 2.11139 57.598 2.89741 57.5999 3.73307V58.6664H60.7999V3.73307C60.7999 3.02583 60.5189 2.34755 60.0188 1.84745C59.5187 1.34736 58.8404 1.06641 58.1332 1.06641Z" fill="#C8D7F9"/>
<path d="M3.20023 58.666H60.8002C61.9784 58.666 62.9336 59.6211 62.9336 60.7993V62.9327H1.06689V60.7993C1.06689 59.6211 2.02202 58.666 3.20023 58.666Z" fill="#A2C0F3"/>
<path d="M60.8001 58.666H57.6001C58.7783 58.666 59.7334 59.6211 59.7334 60.7993V62.9327H62.9334V60.7993C62.9334 59.6211 61.9783 58.666 60.8001 58.666Z" fill="#7DA9F5"/>
<path d="M15.9998 26.6676C17.7671 26.6676 19.1998 25.2349 19.1998 23.4676C19.1998 21.7003 17.7671 20.2676 15.9998 20.2676C14.2325 20.2676 12.7998 21.7003 12.7998 23.4676C12.7998 25.2349 14.2325 26.6676 15.9998 26.6676Z" fill="#E7ECFA"/>
<path d="M41.5999 26.6676C43.3672 26.6676 44.7999 25.2349 44.7999 23.4676C44.7999 21.7003 43.3672 20.2676 41.5999 20.2676C39.8326 20.2676 38.3999 21.7003 38.3999 23.4676C38.3999 25.2349 39.8326 26.6676 41.5999 26.6676Z" fill="#E7ECFA"/>
<path d="M35.2 26.6676C36.9673 26.6676 38.4 25.2349 38.4 23.4676C38.4 21.7003 36.9673 20.2676 35.2 20.2676C33.4327 20.2676 32 21.7003 32 23.4676C32 25.2349 33.4327 26.6676 35.2 26.6676Z" fill="#C4D6F8"/>
<path d="M22.4002 26.6676C24.1675 26.6676 25.6002 25.2349 25.6002 23.4676C25.6002 21.7003 24.1675 20.2676 22.4002 20.2676C20.6329 20.2676 19.2002 21.7003 19.2002 23.4676C19.2002 25.2349 20.6329 26.6676 22.4002 26.6676Z" fill="#C4D6F8"/>
<path d="M47.9998 26.6676C49.7671 26.6676 51.1998 25.2349 51.1998 23.4676C51.1998 21.7003 49.7671 20.2676 47.9998 20.2676C46.2325 20.2676 44.7998 21.7003 44.7998 23.4676C44.7998 25.2349 46.2325 26.6676 47.9998 26.6676Z" fill="#E7ECFA"/>
<path d="M47.9999 20.2676C47.4366 20.2705 46.8843 20.4237 46.3999 20.7113C47.3891 21.2765 47.9996 22.3283 47.9996 23.4676C47.9996 24.6068 47.3891 25.6587 46.3999 26.2238C46.8843 26.5115 47.4366 26.6646 47.9999 26.6676C49.7672 26.6676 51.1999 25.2349 51.1999 23.4676C51.1999 21.7003 49.7672 20.2676 47.9999 20.2676Z" fill="#C8D7F9"/>
<path d="M15.9998 39.4664C17.7671 39.4664 19.1998 38.0337 19.1998 36.2664C19.1998 34.4991 17.7671 33.0664 15.9998 33.0664C14.2325 33.0664 12.7998 34.4991 12.7998 36.2664C12.7998 38.0337 14.2325 39.4664 15.9998 39.4664Z" fill="#E7ECFA"/>
<path d="M41.5999 39.4664C43.3672 39.4664 44.7999 38.0337 44.7999 36.2664C44.7999 34.4991 43.3672 33.0664 41.5999 33.0664C39.8326 33.0664 38.3999 34.4991 38.3999 36.2664C38.3999 38.0337 39.8326 39.4664 41.5999 39.4664Z" fill="#C4D6F8"/>
<path d="M28.8001 39.4664C30.5674 39.4664 32.0001 38.0337 32.0001 36.2664C32.0001 34.4991 30.5674 33.0664 28.8001 33.0664C27.0328 33.0664 25.6001 34.4991 25.6001 36.2664C25.6001 38.0337 27.0328 39.4664 28.8001 39.4664Z" fill="#E7ECFA"/>
<path d="M22.4002 39.4664C24.1675 39.4664 25.6002 38.0337 25.6002 36.2664C25.6002 34.4991 24.1675 33.0664 22.4002 33.0664C20.6329 33.0664 19.2002 34.4991 19.2002 36.2664C19.2002 38.0337 20.6329 39.4664 22.4002 39.4664Z" fill="#C4D6F8"/>
<path d="M47.9998 39.4664C49.7671 39.4664 51.1998 38.0337 51.1998 36.2664C51.1998 34.4991 49.7671 33.0664 47.9998 33.0664C46.2325 33.0664 44.7998 34.4991 44.7998 36.2664C44.7998 38.0337 46.2325 39.4664 47.9998 39.4664Z" fill="#E7ECFA"/>
<path d="M47.9999 33.0664C47.4366 33.0693 46.8843 33.2225 46.3999 33.5101C47.3891 34.0753 47.9996 35.1272 47.9996 36.2664C47.9996 37.4056 47.3891 38.4575 46.3999 39.0227C46.8843 39.3103 47.4366 39.4635 47.9999 39.4664C49.7672 39.4664 51.1999 38.0337 51.1999 36.2664C51.1999 34.4991 49.7672 33.0664 47.9999 33.0664Z" fill="#C8D7F9"/>
<path d="M15.9998 52.2672C17.7671 52.2672 19.1998 50.8345 19.1998 49.0672C19.1998 47.2999 17.7671 45.8672 15.9998 45.8672C14.2325 45.8672 12.7998 47.2999 12.7998 49.0672C12.7998 50.8345 14.2325 52.2672 15.9998 52.2672Z" fill="#E7ECFA"/>
<path d="M35.2 52.2672C36.9673 52.2672 38.4 50.8345 38.4 49.0672C38.4 47.2999 36.9673 45.8672 35.2 45.8672C33.4327 45.8672 32 47.2999 32 49.0672C32 50.8345 33.4327 52.2672 35.2 52.2672Z" fill="#C4D6F8"/>
<path d="M28.8001 52.2672C30.5674 52.2672 32.0001 50.8345 32.0001 49.0672C32.0001 47.2999 30.5674 45.8672 28.8001 45.8672C27.0328 45.8672 25.6001 47.2999 25.6001 49.0672C25.6001 50.8345 27.0328 52.2672 28.8001 52.2672Z" fill="#E7ECFA"/>
<path d="M22.4002 52.2672C24.1675 52.2672 25.6002 50.8345 25.6002 49.0672C25.6002 47.2999 24.1675 45.8672 22.4002 45.8672C20.6329 45.8672 19.2002 47.2999 19.2002 49.0672C19.2002 50.8345 20.6329 52.2672 22.4002 52.2672Z" fill="#C4D6F8"/>
<path d="M47.9998 52.2672C49.7671 52.2672 51.1998 50.8345 51.1998 49.0672C51.1998 47.2999 49.7671 45.8672 47.9998 45.8672C46.2325 45.8672 44.7998 47.2999 44.7998 49.0672C44.7998 50.8345 46.2325 52.2672 47.9998 52.2672Z" fill="#E7ECFA"/>
<path d="M47.9999 45.8672C47.4366 45.8701 46.8843 46.0233 46.3999 46.3109C47.3891 46.8761 47.9996 47.9279 47.9996 49.0672C47.9996 50.2064 47.3891 51.2583 46.3999 51.8235C46.8843 52.1111 47.4366 52.2643 47.9999 52.2672C49.7672 52.2672 51.1999 50.8345 51.1999 49.0672C51.1999 47.2999 49.7672 45.8672 47.9999 45.8672Z" fill="#C8D7F9"/>
<path d="M6.40023 58.6661V3.73281C6.40207 2.89715 6.79726 2.11113 7.4669 1.61121C6.5239 0.884805 5.20989 0.884805 4.26689 1.61121C3.59726 2.11113 3.20207 2.89715 3.20023 3.73281V58.6661C2.02202 58.6661 1.06689 59.6213 1.06689 60.7995V62.9328H4.26689V60.7995C4.26689 59.6213 5.22202 58.6661 6.40023 58.6661Z" fill="white"/>
<path d="M2.1333 3.73242H4.26663V12.2658H2.1333V3.73242Z" fill="white"/>
<path d="M3.19997 9.06693C3.78907 9.06693 4.26663 8.58936 4.26663 8.00026C4.26663 7.41116 3.78907 6.93359 3.19997 6.93359C2.61086 6.93359 2.1333 7.41116 2.1333 8.00026C2.1333 8.58936 2.61086 9.06693 3.19997 9.06693Z" fill="#3F89F9"/>
<path d="M61.8667 57.7963V3.73333C61.8667 1.67147 60.1952 1.06667e-07 58.1333 1.06667e-07C56.0715 1.06667e-07 54.4 1.67147 54.4 3.73333V9.6H52.1152C51.7296 8.06654 50.5213 6.8759 48.9824 6.51281C47.4434 6.14973 45.8304 6.67475 44.8 7.87413C44.0001 6.93857 42.8309 6.39991 41.6 6.39991C40.3691 6.39991 39.1999 6.93857 38.4 7.87413C37.6001 6.93857 36.4309 6.39991 35.2 6.39991C33.9691 6.39991 32.7999 6.93857 32 7.87413C30.9696 6.67475 29.3566 6.14973 27.8176 6.51281C26.2787 6.8759 25.0704 8.06654 24.6848 9.6H20.1152C19.6362 7.71818 17.9418 6.401 16 6.401C14.0582 6.401 12.3638 7.71818 11.8848 9.6H9.6V3.73333C9.6 1.67147 7.92853 0 5.86667 0C3.8048 0 2.13333 1.67147 2.13333 3.73333C2.13333 4.32244 2.6109 4.8 3.2 4.8C3.7891 4.8 4.26667 4.32244 4.26667 3.73333C4.26667 2.84968 4.98301 2.13333 5.86667 2.13333C6.75032 2.13333 7.46667 2.84968 7.46667 3.73333V57.6H4.26667V12.2667C4.26667 11.6776 3.7891 11.2 3.2 11.2C2.6109 11.2 2.13333 11.6776 2.13333 12.2667V57.7963C0.859359 58.2467 0.00560148 59.4488 0 60.8V62.9333C0 63.5224 0.477563 64 1.06667 64H62.9333C63.5224 64 64 63.5224 64 62.9333V60.8C63.9944 59.4488 63.1406 58.2467 61.8667 57.7963ZM56.5333 3.73333C56.5333 2.84968 57.2497 2.13333 58.1333 2.13333C59.017 2.13333 59.7333 2.84968 59.7333 3.73333V57.6H56.5333V3.73333ZM52.1152 48C51.6362 46.1182 49.9418 44.801 48 44.801C46.0582 44.801 44.3638 46.1182 43.8848 48H39.3152C38.9296 46.4665 37.7213 45.2759 36.1824 44.9128C34.6434 44.5497 33.0304 45.0748 32 46.2741C31.2001 45.3386 30.0309 44.7999 28.8 44.7999C27.5691 44.7999 26.3999 45.3386 25.6 46.2741C24.8001 45.3386 23.6309 44.7999 22.4 44.7999C21.1691 44.7999 19.9999 45.3386 19.2 46.2741C18.1696 45.0748 16.5566 44.5497 15.0176 44.9128C13.4787 45.2759 12.2704 46.4665 11.8848 48H9.6V37.3333H11.8848C12.2704 38.8668 13.4787 40.0574 15.0176 40.4205C16.5566 40.7836 18.1696 40.2586 19.2 39.0592C19.9999 39.9948 21.1691 40.5334 22.4 40.5334C23.6309 40.5334 24.8001 39.9948 25.6 39.0592C26.6304 40.2586 28.2434 40.7836 29.7824 40.4205C31.3213 40.0574 32.5296 38.8668 32.9152 37.3333H37.4848C37.8704 38.8668 39.0787 40.0574 40.6176 40.4205C42.1566 40.7836 43.7696 40.2586 44.8 39.0592C45.8304 40.2586 47.4434 40.7836 48.9824 40.4205C50.5213 40.0574 51.7296 38.8668 52.1152 37.3333H54.4V48H52.1152ZM50.1333 49.0667C50.1333 50.2449 49.1782 51.2 48 51.2C46.8218 51.2 45.8667 50.2449 45.8667 49.0667C45.8667 47.8885 46.8218 46.9333 48 46.9333C49.1782 46.9333 50.1333 47.8885 50.1333 49.0667ZM37.3333 49.0667C37.3333 50.2449 36.3782 51.2 35.2 51.2C34.0218 51.2 33.0667 50.2449 33.0667 49.0667C33.0667 47.8885 34.0218 46.9333 35.2 46.9333C36.3782 46.9333 37.3333 47.8885 37.3333 49.0667ZM30.9333 49.0667C30.9333 50.2449 29.9782 51.2 28.8 51.2C27.6218 51.2 26.6667 50.2449 26.6667 49.0667C26.6667 47.8885 27.6218 46.9333 28.8 46.9333C29.9782 46.9333 30.9333 47.8885 30.9333 49.0667ZM24.5333 49.0667C24.5333 50.2449 23.5782 51.2 22.4 51.2C21.2218 51.2 20.2667 50.2449 20.2667 49.0667C20.2667 47.8885 21.2218 46.9333 22.4 46.9333C23.5782 46.9333 24.5333 47.8885 24.5333 49.0667ZM18.1333 49.0667C18.1333 50.2449 17.1782 51.2 16 51.2C14.8218 51.2 13.8667 50.2449 13.8667 49.0667C13.8667 47.8885 14.8218 46.9333 16 46.9333C17.1782 46.9333 18.1333 47.8885 18.1333 49.0667ZM11.8848 24.5333C12.2704 26.0668 13.4787 27.2574 15.0176 27.6205C16.5566 27.9836 18.1696 27.4586 19.2 26.2592C20.2304 27.4586 21.8434 27.9836 23.3824 27.6205C24.9213 27.2574 26.1296 26.0668 26.5152 24.5333H31.0848C31.4704 26.0668 32.6787 27.2574 34.2176 27.6205C35.7566 27.9836 37.3696 27.4586 38.4 26.2592C39.1999 27.1948 40.3691 27.7334 41.6 27.7334C42.8309 27.7334 44.0001 27.1948 44.8 26.2592C45.8304 27.4586 47.4434 27.9836 48.9824 27.6205C50.5213 27.2574 51.7296 26.0668 52.1152 24.5333H54.4V35.2H52.1152C51.7296 33.6665 50.5213 32.4759 48.9824 32.1128C47.4434 31.7497 45.8304 32.2747 44.8 33.4741C43.7696 32.2747 42.1566 31.7497 40.6176 32.1128C39.0787 32.4759 37.8704 33.6665 37.4848 35.2H32.9152C32.5296 33.6665 31.3213 32.4759 29.7824 32.1128C28.2434 31.7497 26.6304 32.2747 25.6 33.4741C24.8001 32.5386 23.6309 31.9999 22.4 31.9999C21.1691 31.9999 19.9999 32.5386 19.2 33.4741C18.1696 32.2747 16.5566 31.7497 15.0176 32.1128C13.4787 32.4759 12.2704 33.6665 11.8848 35.2H9.6V24.5333H11.8848ZM13.8667 23.4667C13.8667 22.2885 14.8218 21.3333 16 21.3333C17.1782 21.3333 18.1333 22.2885 18.1333 23.4667C18.1333 24.6449 17.1782 25.6 16 25.6C14.8218 25.6 13.8667 24.6449 13.8667 23.4667ZM20.2667 23.4667C20.2667 22.2885 21.2218 21.3333 22.4 21.3333C23.5782 21.3333 24.5333 22.2885 24.5333 23.4667C24.5333 24.6449 23.5782 25.6 22.4 25.6C21.2218 25.6 20.2667 24.6449 20.2667 23.4667ZM33.0667 23.4667C33.0667 22.2885 34.0218 21.3333 35.2 21.3333C36.3782 21.3333 37.3333 22.2885 37.3333 23.4667C37.3333 24.6449 36.3782 25.6 35.2 25.6C34.0218 25.6 33.0667 24.6449 33.0667 23.4667ZM39.4667 23.4667C39.4667 22.2885 40.4218 21.3333 41.6 21.3333C42.7782 21.3333 43.7333 22.2885 43.7333 23.4667C43.7333 24.6449 42.7782 25.6 41.6 25.6C40.4218 25.6 39.4667 24.6449 39.4667 23.4667ZM45.8667 23.4667C45.8667 22.2885 46.8218 21.3333 48 21.3333C49.1782 21.3333 50.1333 22.2885 50.1333 23.4667C50.1333 24.6449 49.1782 25.6 48 25.6C46.8218 25.6 45.8667 24.6449 45.8667 23.4667ZM50.1333 36.2667C50.1333 37.4449 49.1782 38.4 48 38.4C46.8218 38.4 45.8667 37.4449 45.8667 36.2667C45.8667 35.0885 46.8218 34.1333 48 34.1333C49.1782 34.1333 50.1333 35.0885 50.1333 36.2667ZM43.7333 36.2667C43.7333 37.4449 42.7782 38.4 41.6 38.4C40.4218 38.4 39.4667 37.4449 39.4667 36.2667C39.4667 35.0885 40.4218 34.1333 41.6 34.1333C42.7782 34.1333 43.7333 35.0885 43.7333 36.2667ZM30.9333 36.2667C30.9333 37.4449 29.9782 38.4 28.8 38.4C27.6218 38.4 26.6667 37.4449 26.6667 36.2667C26.6667 35.0885 27.6218 34.1333 28.8 34.1333C29.9782 34.1333 30.9333 35.0885 30.9333 36.2667ZM24.5333 36.2667C24.5333 37.4449 23.5782 38.4 22.4 38.4C21.2218 38.4 20.2667 37.4449 20.2667 36.2667C20.2667 35.0885 21.2218 34.1333 22.4 34.1333C23.5782 34.1333 24.5333 35.0885 24.5333 36.2667ZM18.1333 36.2667C18.1333 37.4449 17.1782 38.4 16 38.4C14.8218 38.4 13.8667 37.4449 13.8667 36.2667C13.8667 35.0885 14.8218 34.1333 16 34.1333C17.1782 34.1333 18.1333 35.0885 18.1333 36.2667ZM48 8.53333C49.1782 8.53333 50.1333 9.48846 50.1333 10.6667C50.1333 11.8449 49.1782 12.8 48 12.8C46.8218 12.8 45.8667 11.8449 45.8667 10.6667C45.8667 9.48846 46.8218 8.53333 48 8.53333ZM41.6 8.53333C42.7782 8.53333 43.7333 9.48846 43.7333 10.6667C43.7333 11.8449 42.7782 12.8 41.6 12.8C40.4218 12.8 39.4667 11.8449 39.4667 10.6667C39.4667 9.48846 40.4218 8.53333 41.6 8.53333ZM35.2 8.53333C36.3782 8.53333 37.3333 9.48846 37.3333 10.6667C37.3333 11.8449 36.3782 12.8 35.2 12.8C34.0218 12.8 33.0667 11.8449 33.0667 10.6667C33.0667 9.48846 34.0218 8.53333 35.2 8.53333ZM28.8 8.53333C29.9782 8.53333 30.9333 9.48846 30.9333 10.6667C30.9333 11.8449 29.9782 12.8 28.8 12.8C27.6218 12.8 26.6667 11.8449 26.6667 10.6667C26.6667 9.48846 27.6218 8.53333 28.8 8.53333ZM16 8.53333C17.1782 8.53333 18.1333 9.48846 18.1333 10.6667C18.1333 11.8449 17.1782 12.8 16 12.8C14.8218 12.8 13.8667 11.8449 13.8667 10.6667C13.8667 9.48846 14.8218 8.53333 16 8.53333ZM11.8848 11.7333C12.3638 13.6151 14.0582 14.9323 16 14.9323C17.9418 14.9323 19.6362 13.6151 20.1152 11.7333H24.6848C25.0704 13.2668 26.2787 14.4574 27.8176 14.8205C29.3566 15.1836 30.9696 14.6586 32 13.4592C32.7999 14.3948 33.9691 14.9334 35.2 14.9334C36.4309 14.9334 37.6001 14.3948 38.4 13.4592C39.1999 14.3948 40.3691 14.9334 41.6 14.9334C42.8309 14.9334 44.0001 14.3948 44.8 13.4592C45.8304 14.6586 47.4434 15.1836 48.9824 14.8205C50.5213 14.4574 51.7296 13.2668 52.1152 11.7333H54.4V22.4H52.1152C51.7296 20.8665 50.5213 19.6759 48.9824 19.3128C47.4434 18.9497 45.8304 19.4748 44.8 20.6741C44.0001 19.7386 42.8309 19.1999 41.6 19.1999C40.3691 19.1999 39.1999 19.7386 38.4 20.6741C37.3696 19.4748 35.7566 18.9497 34.2176 19.3128C32.6787 19.6759 31.4704 20.8665 31.0848 22.4H26.5152C26.1296 20.8665 24.9213 19.6759 23.3824 19.3128C21.8434 18.9497 20.2304 19.4748 19.2 20.6741C18.1696 19.4748 16.5566 18.9497 15.0176 19.3128C13.4787 19.6759 12.2704 20.8665 11.8848 22.4H9.6V11.7333H11.8848ZM9.6 50.1333H11.8848C12.2704 51.6668 13.4787 52.8574 15.0176 53.2205C16.5566 53.5836 18.1696 53.0586 19.2 51.8592C19.9999 52.7948 21.1691 53.3334 22.4 53.3334C23.6309 53.3334 24.8001 52.7948 25.6 51.8592C26.3999 52.7948 27.5691 53.3334 28.8 53.3334C30.0309 53.3334 31.2001 52.7948 32 51.8592C33.0304 53.0586 34.6434 53.5836 36.1824 53.2205C37.7213 52.8574 38.9296 51.6668 39.3152 50.1333H43.8848C44.3638 52.0152 46.0582 53.3323 48 53.3323C49.9418 53.3323 51.6362 52.0152 52.1152 50.1333H54.4V57.6H9.6V50.1333ZM61.8667 61.8667H2.13333V60.8C2.13333 60.2109 2.6109 59.7333 3.2 59.7333H60.8C61.3891 59.7333 61.8667 60.2109 61.8667 60.8V61.8667Z" fill="#3F89F9"/>
</g>
<defs>
<clipPath id="clip0_19187_88197">
<rect width="64" height="64" fill="white"/>
</clipPath>
</defs>
</svg>
