<svg width="65" height="64" viewBox="0 0 65 64" fill="none" xmlns="http://www.w3.org/2000/svg">
<g id="laptop" clip-path="url(#clip0_21015_62920)">
<g id="Page-1">
<g id="027---Laptop-Copywriting">
<path id="Shape" d="M63.5998 51.1995V54.3995C63.5998 57.9341 60.7344 60.7995 57.1998 60.7995H11.3331C7.79848 60.7995 4.93311 57.9341 4.93311 54.3995V51.1995C4.93311 50.6104 5.41067 50.1328 5.99977 50.1328H28.3998V52.2661C28.3998 54.0335 29.8325 55.4661 31.5998 55.4661H43.3331C45.1004 55.4661 46.5331 54.0335 46.5331 52.2661V50.1328H62.5331C63.1222 50.1328 63.5998 50.6104 63.5998 51.1995Z" fill="#E8EDFC"/>
<path id="Shape_2" d="M28.4 55.4661H31.6C29.8326 55.4661 28.4 54.0335 28.4 52.2661V50.1328H25.2V52.2661C25.2 54.0335 26.6326 55.4661 28.4 55.4661Z" fill="#CAD9FC"/>
<path id="Shape_3" d="M62.5331 50.1328H59.3331C59.9222 50.1328 60.3998 50.6104 60.3998 51.1995V54.3995C60.3998 57.9341 57.5344 60.7995 53.9998 60.7995H57.1998C60.7344 60.7995 63.5998 57.9341 63.5998 54.3995V51.1995C63.5998 50.6104 63.1222 50.1328 62.5331 50.1328Z" fill="#CAD9FC"/>
<path id="Shape_4" d="M46.5332 50.1328V52.2661C46.5332 54.0335 45.1005 55.4661 43.3332 55.4661H31.5999C29.8326 55.4661 28.3999 54.0335 28.3999 52.2661V50.1328H46.5332Z" fill="#CAD9FC"/>
<path id="Shape_5" d="M43.3331 50.1328V52.2661C43.3331 54.0335 41.9004 55.4661 40.1331 55.4661H43.3331C45.1004 55.4661 46.5331 54.0335 46.5331 52.2661V50.1328H43.3331Z" fill="#A4C2F7"/>
<path id="Shape_6" d="M53.9998 45.8655V50.1322H5.99976V15.9988C5.99976 14.2315 7.43244 12.7988 9.19976 12.7988H10.2664V41.5988C10.265 42.7309 10.7141 43.8169 11.5145 44.6174C12.315 45.4178 13.4011 45.8669 14.5331 45.8655H53.9998Z" fill="#CAD9FC"/>
<path id="Rectangle-path" d="M50.7998 45.8652H53.9998V50.1319H50.7998V45.8652Z" fill="#A4C2F7"/>
<path id="Shape_7" d="M57.3704 45.8659H14.5331C13.401 45.8673 12.315 45.4182 11.5145 44.6178C10.714 43.8173 10.265 42.7312 10.2664 41.5992V7.46589C10.269 5.1864 8.47931 3.30749 6.20239 3.19922H51.8664C54.2228 3.19922 56.1331 5.10947 56.1331 7.46589V41.5992C56.1292 42.8949 56.7187 44.1211 57.7331 44.9272C57.9052 45.0742 57.9658 45.3139 57.8842 45.525C57.8026 45.7362 57.5967 45.8728 57.3704 45.8659Z" fill="#E8EDFC"/>
<path id="Shape_8" d="M57.7332 44.9272C56.7188 44.1211 56.1293 42.8949 56.1332 41.5992V7.46589C56.1332 5.10947 54.2229 3.19922 51.8665 3.19922H48.6665C51.0229 3.19922 52.9332 5.10947 52.9332 7.46589V41.5992C52.9293 42.8949 53.5188 44.1211 54.5332 44.9272C54.7053 45.0742 54.7659 45.3139 54.6843 45.525C54.6027 45.7362 54.3968 45.8728 54.1705 45.8659H57.3705C57.5968 45.8728 57.8027 45.7362 57.8843 45.525C57.9659 45.3139 57.9053 45.0742 57.7332 44.9272Z" fill="#CAD9FC"/>
<path id="Shape_9" d="M10.2664 7.46589V12.7992H9.19978C7.43247 12.7992 5.99978 14.2319 5.99978 15.9992V30.9326H3.86645C2.6897 30.929 1.73663 29.976 1.73311 28.7992V7.71122C1.69924 5.30013 3.59056 3.30005 5.99978 3.19922H6.20245C8.47936 3.30749 10.269 5.1864 10.2664 7.46589Z" fill="#E8EDFC"/>
<path id="Shape_10" d="M7.06645 30.9326C5.8897 30.929 4.93663 29.976 4.93311 28.7992V7.71122C4.89924 5.30013 6.79056 3.30005 9.19978 3.19922H5.99978C3.59056 3.30005 1.69924 5.30013 1.73311 7.71122V28.7992C1.73663 29.976 2.6897 30.929 3.86645 30.9326H5.99978" fill="white"/>
<path id="Rectangle-path_2" d="M0.666504 7.71094H2.79984V16.2443H0.666504V7.71094Z" fill="white"/>
<path id="Rectangle-path_3" d="M0.666504 7.70703H2.79984V16.2404H0.666504V7.70703Z" fill="white"/>
<g id="Group">
<path id="Shape_11" d="M62.5332 49.0661H55.0665V46.9328H57.3726C58.0577 46.9303 58.667 46.4966 58.8937 45.8501C59.1232 45.22 58.9239 44.5137 58.3988 44.0965C57.6394 43.4904 57.198 42.5711 57.1998 41.5995V7.46615C57.1963 4.52209 54.8106 2.13634 51.8665 2.13281H5.99984C5.95124 2.13912 5.90312 2.14874 5.85584 2.16161C4.57587 2.19962 3.35564 2.71166 2.43184 3.59841C1.44184 4.55626 0.83281 5.84064 0.717704 7.21335C0.689836 7.29506 0.672627 7.38003 0.666504 7.46615V7.71148C0.666504 8.30058 1.14407 8.77815 1.73317 8.77815C2.32227 8.77815 2.79984 8.30058 2.79984 7.71148C2.80233 6.7403 3.20108 5.8122 3.90384 5.14188C4.4981 4.548 5.31406 4.23036 6.15344 4.26615C7.86171 4.34551 9.20454 5.75603 9.19984 7.46615V11.7328C6.84342 11.7328 4.93317 13.6431 4.93317 15.9995V29.8661H3.8665C3.2774 29.8661 2.79984 29.3886 2.79984 28.7995V16.2395C2.79984 15.6504 2.32227 15.1728 1.73317 15.1728C1.14407 15.1728 0.666504 15.6504 0.666504 16.2395V28.7995C0.666504 30.5668 2.09919 31.9995 3.8665 31.9995H4.93317V49.3627C4.2753 49.7407 3.86879 50.4407 3.8665 51.1995V54.3995C3.87121 58.5213 7.21139 61.8614 11.3332 61.8661H57.1998C61.3216 61.8614 64.6618 58.5213 64.6665 54.3995V51.1995C64.6665 50.0213 63.7114 49.0661 62.5332 49.0661ZM55.0665 7.46615V41.5995C55.0643 42.7538 55.4388 43.8774 56.1332 44.7995H14.5332C12.7659 44.7995 11.3332 43.3668 11.3332 41.5995V7.46615C11.3271 6.30867 10.9428 5.18491 10.2388 4.26615H51.8665C53.6338 4.26615 55.0665 5.69883 55.0665 7.46615ZM7.0665 15.9995C7.0665 14.8213 8.02163 13.8661 9.19984 13.8661V41.5995C9.20336 44.5435 11.5891 46.9293 14.5332 46.9328H52.9332V49.0661H7.0665V15.9995ZM29.4665 51.1995H45.4665V52.2661C45.4665 53.4444 44.5114 54.3995 43.3332 54.3995H31.5998C30.4216 54.3995 29.4665 53.4444 29.4665 52.2661V51.1995ZM62.5332 54.3995C62.5296 57.3435 60.1439 59.7293 57.1998 59.7328H11.3332C8.38911 59.7293 6.00336 57.3435 5.99984 54.3995V51.1995H27.3332V52.2661C27.3332 54.6226 29.2434 56.5328 31.5998 56.5328H43.3332C45.6896 56.5328 47.5998 54.6226 47.5998 52.2661V51.1995H62.5332V54.3995Z" fill="#428DFF"/>
<path id="Shape_12" d="M19.8665 53.332H16.6665C16.0774 53.332 15.5999 53.8096 15.5999 54.3987C15.5999 54.9878 16.0774 55.4654 16.6665 55.4654H19.8665C20.4556 55.4654 20.9332 54.9878 20.9332 54.3987C20.9332 53.8096 20.4556 53.332 19.8665 53.332Z" fill="#428DFF"/>
<path id="Oval" d="M10.2666 55.4654C10.8557 55.4654 11.3333 54.9878 11.3333 54.3987C11.3333 53.8096 10.8557 53.332 10.2666 53.332C9.67751 53.332 9.19995 53.8096 9.19995 54.3987C9.19995 54.9878 9.67751 55.4654 10.2666 55.4654Z" fill="#428DFF"/>
<path id="Oval_2" d="M13.4666 55.4654C14.0557 55.4654 14.5332 54.9878 14.5332 54.3987C14.5332 53.8096 14.0557 53.332 13.4666 53.332C12.8775 53.332 12.3999 53.8096 12.3999 54.3987C12.3999 54.9878 12.8775 55.4654 13.4666 55.4654Z" fill="#428DFF"/>
<path id="Shape_13" d="M1.75439 13.0435C1.16528 13.0464 0.685332 12.5713 0.682387 11.9822C0.679441 11.3931 1.15462 10.9131 1.74372 10.9102H1.75439C2.34349 10.9102 2.82105 11.3877 2.82105 11.9768C2.82105 12.5659 2.34349 13.0435 1.75439 13.0435Z" fill="#428DFF"/>
<path id="Shape_14" d="M16.6665 11.7329H19.8665C20.4556 11.7329 20.9332 11.2554 20.9332 10.6663C20.9332 10.0772 20.4556 9.59961 19.8665 9.59961H16.6665C16.0774 9.59961 15.5999 10.0772 15.5999 10.6663C15.5999 11.2554 16.0774 11.7329 16.6665 11.7329Z" fill="#428DFF"/>
<path id="Shape_15" d="M50.7997 9.59961H24.1331C23.544 9.59961 23.0664 10.0772 23.0664 10.6663C23.0664 11.2554 23.544 11.7329 24.1331 11.7329H50.7997C51.3888 11.7329 51.8664 11.2554 51.8664 10.6663C51.8664 10.0772 51.3888 9.59961 50.7997 9.59961Z" fill="#428DFF"/>
<path id="Shape_16" d="M16.6665 17.0669H19.8665C20.4556 17.0669 20.9332 16.5894 20.9332 16.0003C20.9332 15.4112 20.4556 14.9336 19.8665 14.9336H16.6665C16.0774 14.9336 15.5999 15.4112 15.5999 16.0003C15.5999 16.5894 16.0774 17.0669 16.6665 17.0669Z" fill="#428DFF"/>
<path id="Shape_17" d="M50.7997 14.9336H24.1331C23.544 14.9336 23.0664 15.4112 23.0664 16.0003C23.0664 16.5894 23.544 17.0669 24.1331 17.0669H50.7997C51.3888 17.0669 51.8664 16.5894 51.8664 16.0003C51.8664 15.4112 51.3888 14.9336 50.7997 14.9336Z" fill="#428DFF"/>
<path id="Shape_18" d="M50.7999 20.2656H47.5999C47.0108 20.2656 46.5332 20.7432 46.5332 21.3323C46.5332 21.9214 47.0108 22.399 47.5999 22.399H50.7999C51.389 22.399 51.8665 21.9214 51.8665 21.3323C51.8665 20.7432 51.389 20.2656 50.7999 20.2656Z" fill="#428DFF"/>
<path id="Shape_19" d="M16.6665 22.399H43.3332C43.9223 22.399 44.3999 21.9214 44.3999 21.3323C44.3999 20.7432 43.9223 20.2656 43.3332 20.2656H16.6665C16.0774 20.2656 15.5999 20.7432 15.5999 21.3323C15.5999 21.9214 16.0774 22.399 16.6665 22.399Z" fill="#428DFF"/>
<path id="Shape_20" d="M16.6665 27.7329H19.8665C20.4556 27.7329 20.9332 27.2554 20.9332 26.6663C20.9332 26.0772 20.4556 25.5996 19.8665 25.5996H16.6665C16.0774 25.5996 15.5999 26.0772 15.5999 26.6663C15.5999 27.2554 16.0774 27.7329 16.6665 27.7329Z" fill="#428DFF"/>
<path id="Shape_21" d="M50.7997 25.5996H24.1331C23.544 25.5996 23.0664 26.0772 23.0664 26.6663C23.0664 27.2554 23.544 27.7329 24.1331 27.7329H50.7997C51.3888 27.7329 51.8664 27.2554 51.8664 26.6663C51.8664 26.0772 51.3888 25.5996 50.7997 25.5996Z" fill="#428DFF"/>
<path id="Shape_22" d="M50.7999 30.9336H47.5999C47.0108 30.9336 46.5332 31.4112 46.5332 32.0003C46.5332 32.5894 47.0108 33.0669 47.5999 33.0669H50.7999C51.389 33.0669 51.8665 32.5894 51.8665 32.0003C51.8665 31.4112 51.389 30.9336 50.7999 30.9336Z" fill="#428DFF"/>
<path id="Shape_23" d="M16.6665 33.0669H43.3332C43.9223 33.0669 44.3999 32.5894 44.3999 32.0003C44.3999 31.4112 43.9223 30.9336 43.3332 30.9336H16.6665C16.0774 30.9336 15.5999 31.4112 15.5999 32.0003C15.5999 32.5894 16.0774 33.0669 16.6665 33.0669Z" fill="#428DFF"/>
<path id="Shape_24" d="M19.8665 36.2656H16.6665C16.0774 36.2656 15.5999 36.7432 15.5999 37.3323C15.5999 37.9214 16.0774 38.399 16.6665 38.399H19.8665C20.4556 38.399 20.9332 37.9214 20.9332 37.3323C20.9332 36.7432 20.4556 36.2656 19.8665 36.2656Z" fill="#428DFF"/>
<path id="Shape_25" d="M50.7997 36.2656H24.1331C23.544 36.2656 23.0664 36.7432 23.0664 37.3323C23.0664 37.9214 23.544 38.399 24.1331 38.399H50.7997C51.3888 38.399 51.8664 37.9214 51.8664 37.3323C51.8664 36.7432 51.3888 36.2656 50.7997 36.2656Z" fill="#428DFF"/>
</g>
</g>
</g>
</g>
<defs>
<clipPath id="clip0_21015_62920">
<rect width="64" height="64" fill="white" transform="translate(0.666504)"/>
</clipPath>
</defs>
</svg>
