<svg width="65" height="64" viewBox="0 0 65 64" fill="none" xmlns="http://www.w3.org/2000/svg">
<path d="M63.2671 5.33307V11.7331H32.3337C31.157 11.7296 30.2039 10.7765 30.2004 9.59974V7.46641C30.1969 6.28966 29.2438 5.33659 28.0671 5.33307H1.40039C1.40039 2.97666 3.31064 1.06641 5.66706 1.06641H59.0004C61.3568 1.06641 63.2671 2.97666 63.2671 5.33307Z" fill="#A4C2F7"/>
<path d="M59.0003 1.06641H55.8003C58.1567 1.06641 60.067 2.97666 60.067 5.33307V11.7331H63.267V5.33307C63.267 2.97666 61.3567 1.06641 59.0003 1.06641Z" fill="#7FACFA"/>
<path d="M63.2671 11.734V16.0007H1.40039V5.33398H28.0671C29.2438 5.3375 30.1969 6.29057 30.2004 7.46732V9.60065C30.2039 10.7774 31.157 11.7305 32.3337 11.734H63.2671Z" fill="#E8EDFC"/>
<path d="M60.0669 11.7324H63.2669V15.9991H60.0669V11.7324Z" fill="#CAD9FC"/>
<path d="M63.2671 16V52.2667C63.2671 54.6231 61.3568 56.5333 59.0004 56.5333H5.66706C3.31064 56.5333 1.40039 54.6231 1.40039 52.2667V16H63.2671Z" fill="#E8EDFC"/>
<path d="M60.067 16V52.2667C60.067 54.6231 58.1567 56.5333 55.8003 56.5333H59.0003C61.3567 56.5333 63.267 54.6231 63.267 52.2667V16H60.067Z" fill="#CAD9FC"/>
<path d="M18.4672 29.9727V42.5593L10.2432 36.5007C10.4723 36.028 10.8127 35.6181 11.2352 35.306L18.4672 29.9727Z" fill="#A4C2F7"/>
<path d="M54.4242 36.5007L46.2002 42.5593V29.9727L53.4322 35.306C53.8547 35.6181 54.1951 36.028 54.4242 36.5007Z" fill="#A4C2F7"/>
<path d="M53.4322 35.306L46.2002 29.9727V32.3321L50.2322 35.306C50.6547 35.6181 50.9951 36.028 51.2242 36.5007L46.2002 40.202V42.5593L54.4242 36.5007C54.1951 36.028 53.8547 35.6181 53.4322 35.306Z" fill="#7FACFA"/>
<path d="M54.7337 37.8886V58.6673C54.7344 59.8933 54.2056 61.0598 53.2831 61.8673L36.6431 49.6006L46.2004 42.5606L54.4244 36.502C54.6296 36.9353 54.7353 37.4091 54.7337 37.8886Z" fill="#E8EDFC"/>
<path d="M54.4244 36.502L51.5338 38.6353V58.6673C51.5308 59.2366 51.4125 59.7994 51.186 60.3217L53.2831 61.8673C54.2056 61.0598 54.7344 59.8933 54.7338 58.6673V37.8886C54.7353 37.4091 54.6296 36.9353 54.4244 36.502Z" fill="#CAD9FC"/>
<path d="M28.0243 49.6006L11.3843 61.8673C10.4618 61.0598 9.93294 59.8933 9.93361 58.6673V37.8886C9.93209 37.4091 10.0378 36.9353 10.2429 36.502L18.4669 42.5606L28.0243 49.6006Z" fill="#E8EDFC"/>
<path d="M53.2829 61.8657C52.5051 62.5517 51.5041 62.9309 50.4669 62.9324H14.2003C13.1632 62.9309 12.1621 62.5517 11.3843 61.8657L28.0243 49.5991L31.0963 47.3377C31.8315 46.7937 32.8358 46.7937 33.5709 47.3377L36.6429 49.5991L53.2829 61.8657Z" fill="#E8EDFC"/>
<path d="M36.6432 49.5991L33.5712 47.3377C32.836 46.7937 31.8317 46.7937 31.0966 47.3377L30.7339 47.6044L33.4432 49.5991L50.0832 61.8657C49.3054 62.5517 48.3043 62.9309 47.2672 62.9324H50.4672C51.5043 62.9309 52.5054 62.5517 53.2832 61.8657L36.6432 49.5991Z" fill="#CAD9FC"/>
<path d="M38.8082 24.5331H25.8589L31.0962 20.6717C31.8314 20.1277 32.8357 20.1277 33.5709 20.6717L38.8082 24.5331Z" fill="#A4C2F7"/>
<path d="M46.2006 26.6665V42.5599L36.6433 49.5999L33.5713 47.3385C32.8361 46.7945 31.8318 46.7945 31.0966 47.3385L28.0246 49.5999L18.4673 42.5599V26.6665C18.4708 25.4898 19.4239 24.5367 20.6006 24.5332H44.0673C45.244 24.5367 46.1971 25.4898 46.2006 26.6665Z" fill="#E8EDFC"/>
<path d="M44.0671 24.5332H40.8671C42.0438 24.5367 42.9969 25.4898 43.0004 26.6665V42.5599L35.042 48.4265L36.642 49.5999L46.2004 42.5599V26.6665C46.1969 25.4898 45.2438 24.5367 44.0671 24.5332Z" fill="#CAD9FC"/>
<path d="M5.66706 56.5331H8.86706C6.51064 56.5331 4.60039 54.6228 4.60039 52.2664V5.33307C4.60039 2.97666 6.51064 1.06641 8.86706 1.06641H5.66706C3.31064 1.06641 1.40039 2.97666 1.40039 5.33307V52.2664C1.40039 54.6228 3.31064 56.5331 5.66706 56.5331Z" fill="white"/>
<path d="M0.333496 43.7324H2.46683V52.2658H0.333496V43.7324Z" fill="white"/>
<path d="M18.467 9.59961H6.73366C6.14456 9.59961 5.66699 10.0772 5.66699 10.6663C5.66699 11.2554 6.14456 11.7329 6.73366 11.7329H18.467C19.0561 11.7329 19.5337 11.2554 19.5337 10.6663C19.5337 10.0772 19.0561 9.59961 18.467 9.59961Z" fill="#428DFF"/>
<path d="M26.6875 8.84551C26.2709 8.4291 25.5957 8.4291 25.1792 8.84551L24.8667 9.15804L24.5541 8.84551C24.1356 8.44127 23.4703 8.44705 23.0589 8.8585C22.6474 9.26995 22.6416 9.93524 23.0459 10.3538L23.3584 10.6663L23.0459 10.9788C22.7686 11.2467 22.6574 11.6432 22.755 12.0162C22.8526 12.3891 23.1439 12.6804 23.5168 12.778C23.8897 12.8756 24.2863 12.7644 24.5541 12.4871L24.8667 12.1746L25.1792 12.4871C25.5978 12.8913 26.263 12.8856 26.6745 12.4741C27.0859 12.0627 27.0917 11.3974 26.6875 10.9788L26.3749 10.6663L26.6875 10.3538C27.1039 9.93724 27.1039 9.26204 26.6875 8.84551Z" fill="#428DFF"/>
<path d="M56.867 7.46732C57.4561 7.46732 57.9336 6.98975 57.9336 6.40065C57.9336 5.81155 57.4561 5.33398 56.867 5.33398C56.2779 5.33398 55.8003 5.81155 55.8003 6.40065C55.8003 6.98975 56.2779 7.46732 56.867 7.46732Z" fill="#428DFF"/>
<path d="M52.6004 7.46732C53.1895 7.46732 53.667 6.98975 53.667 6.40065C53.667 5.81155 53.1895 5.33398 52.6004 5.33398C52.0113 5.33398 51.5337 5.81155 51.5337 6.40065C51.5337 6.98975 52.0113 7.46732 52.6004 7.46732Z" fill="#428DFF"/>
<path d="M48.3333 7.46732C48.9224 7.46732 49.3999 6.98975 49.3999 6.40065C49.3999 5.81155 48.9224 5.33398 48.3333 5.33398C47.7442 5.33398 47.2666 5.81155 47.2666 6.40065C47.2666 6.98975 47.7442 7.46732 48.3333 7.46732Z" fill="#428DFF"/>
<path d="M1.40016 49.0669C1.98927 49.0669 2.46683 48.5894 2.46683 48.0003C2.46683 47.4112 1.98927 46.9336 1.40016 46.9336C0.811059 46.9336 0.333496 47.4112 0.333496 48.0003C0.333496 48.5894 0.811059 49.0669 1.40016 49.0669Z" fill="#428DFF"/>
<path d="M59.0002 0H5.66683C2.72277 0.00352653 0.337023 2.38928 0.333496 5.33333V43.7333C0.333496 44.3224 0.811059 44.8 1.40016 44.8C1.98927 44.8 2.46683 44.3224 2.46683 43.7333V17.0667H62.2002V52.2667C62.2002 54.034 60.7675 55.4667 59.0002 55.4667H55.8002V37.888C55.8047 36.5316 55.16 35.2549 54.0658 34.4533L47.2668 29.44V26.6667C47.2668 24.8994 45.8341 23.4667 44.0668 23.4667H39.1602L34.2066 19.8133C33.0966 18.9868 31.5757 18.9868 30.4658 19.8133L25.5068 23.4667H20.6002C18.8329 23.4667 17.4002 24.8994 17.4002 26.6667V29.44L10.6002 34.4533C9.50619 35.255 8.86187 36.5317 8.86683 37.888V55.4667H5.66683C3.89952 55.4667 2.46683 54.034 2.46683 52.2667C2.46683 51.6776 1.98927 51.2 1.40016 51.2C0.811059 51.2 0.333496 51.6776 0.333496 52.2667C0.337023 55.2107 2.72277 57.5965 5.66683 57.6H8.86683V58.6667C8.87036 61.6107 11.2561 63.9965 14.2002 64H50.4668C53.4109 63.9965 55.7966 61.6107 55.8002 58.6667V57.6H59.0002C61.9442 57.5965 64.33 55.2107 64.3335 52.2667V5.33333C64.33 2.38928 61.9442 0.00352653 59.0002 0ZM53.6668 58.6667C53.6669 59.2945 53.4814 59.9083 53.1335 60.4309L38.4391 49.6L53.6668 38.3829V58.6667ZM52.7975 36.16C52.8444 36.1952 52.8796 36.2411 52.9234 36.2784L47.2668 40.4491V32.0853L52.7975 36.16ZM31.7298 21.5307C32.0885 21.2642 32.5795 21.2642 32.9383 21.5307L35.5644 23.4667H29.1026L31.7298 21.5307ZM20.6002 25.6H44.0668C44.6559 25.6 45.1335 26.0776 45.1335 26.6667V42.0203L36.6418 48.2763L34.2044 46.48C33.0945 45.6535 31.5736 45.6535 30.4636 46.48L28.0252 48.2763L19.5335 42.0203V26.6667C19.5335 26.0776 20.0111 25.6 20.6002 25.6ZM11.5335 60.4309C11.1856 59.9083 11.0001 59.2945 11.0002 58.6667V38.3829L26.2279 49.6L11.5335 60.4309ZM17.4002 32.0853V40.4491L11.7468 36.2816C11.7895 36.2443 11.8247 36.1995 11.8716 36.1643L17.4002 32.0853ZM14.2002 61.8667C13.9137 61.8624 13.6292 61.8193 13.3543 61.7387L31.7298 48.1973C32.0885 47.9308 32.5795 47.9308 32.9383 48.1973L51.3127 61.744C51.0376 61.8229 50.753 61.8642 50.4668 61.8667H14.2002ZM5.66683 2.13333H59.0002C60.7675 2.13333 62.2002 3.56602 62.2002 5.33333V10.6667H32.3335C31.7444 10.6667 31.2668 10.1891 31.2668 9.6V7.46667C31.2668 5.69936 29.8341 4.26667 28.0668 4.26667H2.6631C3.1135 2.99269 4.31559 2.13893 5.66683 2.13333ZM2.46683 14.9333V6.4H28.0668C28.6559 6.4 29.1335 6.87756 29.1335 7.46667V9.6C29.1335 11.3673 30.5662 12.8 32.3335 12.8H62.2002V14.9333H2.46683Z" fill="#428DFF"/>
<path d="M23.8001 30.9341H27.0001C27.5892 30.9341 28.0667 30.4566 28.0667 29.8674C28.0667 29.2783 27.5892 28.8008 27.0001 28.8008H23.8001C23.211 28.8008 22.7334 29.2783 22.7334 29.8674C22.7334 30.4566 23.211 30.9341 23.8001 30.9341Z" fill="#428DFF"/>
<path d="M23.8001 35.1997H40.8667C41.4558 35.1997 41.9334 34.7222 41.9334 34.1331C41.9334 33.544 41.4558 33.0664 40.8667 33.0664H23.8001C23.211 33.0664 22.7334 33.544 22.7334 34.1331C22.7334 34.7222 23.211 35.1997 23.8001 35.1997Z" fill="#428DFF"/>
<path d="M23.8001 39.4673H40.8667C41.4558 39.4673 41.9334 38.9898 41.9334 38.4007C41.9334 37.8115 41.4558 37.334 40.8667 37.334H23.8001C23.211 37.334 22.7334 37.8115 22.7334 38.4007C22.7334 38.9898 23.211 39.4673 23.8001 39.4673Z" fill="#428DFF"/>
<path d="M38.7334 41.5996H25.9334C25.3443 41.5996 24.8667 42.0772 24.8667 42.6663C24.8667 43.2554 25.3443 43.7329 25.9334 43.7329H38.7334C39.3225 43.7329 39.8 43.2554 39.8 42.6663C39.8 42.0772 39.3225 41.5996 38.7334 41.5996Z" fill="#428DFF"/>
</svg>
