<svg width="65" height="64" viewBox="0 0 65 64" fill="none" xmlns="http://www.w3.org/2000/svg">
<g id="message 1" clip-path="url(#clip0_21015_63886)">
<g id="Page-1">
<g id="035---Message-Punctuation">
<path id="Shape" d="M63.2666 7.99909V45.3324C63.2666 47.6888 61.3563 49.5991 58.9999 49.5991H40.8666L34.058 58.9602C33.6565 59.5117 33.0155 59.838 32.3332 59.838C31.651 59.838 31.0099 59.5117 30.6084 58.9602L23.7999 49.5991H5.66657C3.31015 49.5991 1.3999 47.6888 1.3999 45.3324V7.99909C1.3999 5.64267 3.31015 3.73242 5.66657 3.73242H58.9999C61.3563 3.73242 63.2666 5.64267 63.2666 7.99909Z" fill="#E8EDFC"/>
<path id="Shape_2" d="M30.858 58.9607C30.8217 59.0119 30.7737 59.0481 30.7332 59.0951C31.1562 59.5862 31.7804 59.8572 32.428 59.831C33.0757 59.8049 33.6759 59.4843 34.058 58.9607L40.8665 49.5996H37.6665L30.858 58.9607Z" fill="#CAD9FC"/>
<path id="Shape_3" d="M58.9998 3.73242H55.7998C58.1562 3.73242 60.0665 5.64267 60.0665 7.99909V45.3324C60.0665 47.6888 58.1562 49.5991 55.7998 49.5991H58.9998C61.3562 49.5991 63.2665 47.6888 63.2665 45.3324V7.99909C63.2665 5.64267 61.3562 3.73242 58.9998 3.73242Z" fill="#CAD9FC"/>
<path id="Shape_4" d="M30.1999 19.6607V31.0399C30.1999 31.5015 30.0502 31.9506 29.7732 32.3199L27.8532 34.8799C27.1443 35.8192 25.81 36.0098 24.8665 35.3065C23.9272 34.5977 23.7366 33.2634 24.4399 32.3199L25.9332 30.3273V28.194H21.6665C20.4898 28.1905 19.5367 27.2374 19.5332 26.0607V19.6607C19.5367 18.4839 20.4898 17.5309 21.6665 17.5273H28.0665C29.2433 17.5309 30.1964 18.4839 30.1999 19.6607Z" fill="#A4C2F7"/>
<path id="Shape_5" d="M28.0667 17.5273H24.8667C26.0434 17.5309 26.9965 18.4839 27 19.6607V31.0399C27 31.5015 26.8503 31.9506 26.5734 32.3199L24.6533 34.8799C24.6192 34.9257 24.5776 34.9599 24.5403 35.0025C24.6386 35.1146 24.7479 35.2164 24.8667 35.3065C25.8102 36.0098 27.1445 35.8192 27.8533 34.8799L29.7734 32.3199C30.0503 31.9506 30.2 31.5015 30.2 31.0399V19.6607C30.1965 18.4839 29.2434 17.5309 28.0667 17.5273Z" fill="#7FACFA"/>
<path id="Shape_6" d="M45.1332 19.6607V31.0399C45.1332 31.5015 44.9835 31.9506 44.7066 32.3199L42.7866 34.8799C42.0777 35.8192 40.7434 36.0098 39.7999 35.3065C38.8606 34.5977 38.67 33.2634 39.3732 32.3199L40.8666 30.3273V28.194H36.5999C35.4231 28.1905 34.4701 27.2374 34.4666 26.0607V19.6607C34.4701 18.4839 35.4231 17.5309 36.5999 17.5273H42.9999C44.1766 17.5309 45.1297 18.4839 45.1332 19.6607Z" fill="#A4C2F7"/>
<path id="Shape_7" d="M43 17.5273H39.8C40.9768 17.5309 41.9299 18.4839 41.9334 19.6607V31.0399C41.9334 31.5015 41.7837 31.9506 41.5067 32.3199L39.5867 34.8799C39.5526 34.9257 39.511 34.9599 39.4736 35.0025C39.5719 35.1146 39.6813 35.2164 39.8 35.3065C40.7435 36.0098 42.0778 35.8192 42.7867 34.8799L44.7067 32.3199C44.9837 31.9506 45.1334 31.5015 45.1334 31.0399V19.6607C45.1299 18.4839 44.1768 17.5309 43 17.5273Z" fill="#7FACFA"/>
<path id="Shape_8" d="M5.66657 49.5991H8.86657C6.51015 49.5991 4.5999 47.6888 4.5999 45.3324V7.99909C4.5999 5.64267 6.51015 3.73242 8.86657 3.73242H5.66657C3.31015 3.73242 1.3999 5.64267 1.3999 7.99909V45.3324C1.3999 47.6888 3.31015 49.5991 5.66657 49.5991Z" fill="white"/>
<path id="Rectangle-path" d="M0.333252 8H2.46659V16.5333H0.333252V8Z" fill="white"/>
<g id="Group">
<path id="Oval" d="M1.39992 13.3326C1.98902 13.3326 2.46659 12.855 2.46659 12.2659C2.46659 11.6768 1.98902 11.1992 1.39992 11.1992C0.810815 11.1992 0.333252 11.6768 0.333252 12.2659C0.333252 12.855 0.810815 13.3326 1.39992 13.3326Z" fill="#428DFF"/>
<path id="Shape_9" d="M5.66659 50.666H23.257L29.7455 59.5876C30.3477 60.4154 31.3096 60.9052 32.3333 60.9052C33.3569 60.9052 34.3188 60.4154 34.921 59.5876L41.4095 50.666H58.9999C61.944 50.6625 64.3297 48.2767 64.3333 45.3327V7.99935C64.3297 5.05529 61.944 2.66954 58.9999 2.66602H5.66659C2.72253 2.66954 0.336778 5.05529 0.333252 7.99935C0.333252 8.58845 0.810815 9.06602 1.39992 9.06602C1.98902 9.06602 2.46659 8.58845 2.46659 7.99935C2.46659 6.23204 3.89927 4.79935 5.66659 4.79935H58.9999C60.7672 4.79935 62.1999 6.23204 62.1999 7.99935V45.3327C62.1999 47.1 60.7672 48.5327 58.9999 48.5327H40.8666C40.5252 48.5326 40.2044 48.696 40.0037 48.9721L33.1962 58.3332C32.9879 58.5976 32.6698 58.7519 32.3333 58.7519C31.9967 58.7519 31.6786 58.5976 31.4703 58.3332L24.6629 48.9721C24.4621 48.696 24.1413 48.5326 23.7999 48.5327H5.66659C3.89927 48.5327 2.46659 47.1 2.46659 45.3327V16.5327C2.46659 15.9436 1.98902 15.466 1.39992 15.466C0.810815 15.466 0.333252 15.9436 0.333252 16.5327V45.3327C0.336778 48.2767 2.72253 50.6625 5.66659 50.666Z" fill="#428DFF"/>
<path id="Shape_10" d="M23.5866 31.6801C22.5262 33.094 22.8127 35.0998 24.2266 36.1601C24.7768 36.5755 25.4475 36.8002 26.137 36.8001C26.2915 36.8 26.4458 36.7893 26.5988 36.7681C27.4399 36.6503 28.1988 36.2009 28.7066 35.5201L30.6266 32.9601C31.041 32.4057 31.2655 31.7323 31.2666 31.0401V19.6609C31.2666 17.8936 29.8339 16.4609 28.0666 16.4609H21.6666C19.8992 16.4609 18.4666 17.8936 18.4666 19.6609V26.0609C18.4666 27.8282 19.8992 29.2609 21.6666 29.2609H24.8666V29.9735L23.5866 31.6801ZM21.6666 27.1276C21.0774 27.1276 20.5999 26.65 20.5999 26.0609V19.6609C20.5999 19.0718 21.0774 18.5943 21.6666 18.5943H28.0666C28.6557 18.5943 29.1332 19.0718 29.1332 19.6609V31.0401C29.1328 31.2709 29.058 31.4953 28.9199 31.6801L26.9999 34.2401C26.6464 34.7114 25.9778 34.8069 25.5066 34.4535C25.0353 34.1 24.9398 33.4314 25.2932 32.9601L26.7866 30.9655C26.925 30.7808 26.9999 30.5563 26.9999 30.3255V28.1921C26.9999 27.603 26.5223 27.1255 25.9332 27.1255L21.6666 27.1276Z" fill="#428DFF"/>
<path id="Shape_11" d="M38.5199 31.6801C37.4595 33.094 37.7461 35.0998 39.1599 36.1601C39.7102 36.5755 40.3809 36.8002 41.0703 36.8001C41.2248 36.8 41.3791 36.7893 41.5322 36.7681C42.3732 36.6503 43.1322 36.2009 43.6399 35.5201L45.5599 32.9601C45.9744 32.4057 46.1988 31.7323 46.1999 31.0401V19.6609C46.1999 17.8936 44.7672 16.4609 42.9999 16.4609H36.5999C34.8326 16.4609 33.3999 17.8936 33.3999 19.6609V26.0609C33.3999 27.8282 34.8326 29.2609 36.5999 29.2609H39.7999V29.9735L38.5199 31.6801ZM36.5999 27.1276C36.0108 27.1276 35.5332 26.65 35.5332 26.0609V19.6609C35.5332 19.0718 36.0108 18.5943 36.5999 18.5943H42.9999C43.589 18.5943 44.0666 19.0718 44.0666 19.6609V31.0401C44.0661 31.2709 43.9913 31.4953 43.8532 31.6801L41.9332 34.2401C41.7046 34.545 41.3307 34.7047 40.9523 34.6591C40.574 34.6136 40.2487 34.3696 40.099 34.0191C39.9493 33.6687 39.9979 33.265 40.2266 32.9601L41.7199 30.9655C41.8584 30.7808 41.9332 30.5563 41.9332 30.3255V28.1921C41.9332 27.603 41.4557 27.1255 40.8666 27.1255L36.5999 27.1276Z" fill="#428DFF"/>
</g>
</g>
</g>
</g>
<defs>
<clipPath id="clip0_21015_63886">
<rect width="64" height="64" fill="white" transform="translate(0.333252)"/>
</clipPath>
</defs>
</svg>
