<svg width="65" height="64" viewBox="0 0 65 64" fill="none" xmlns="http://www.w3.org/2000/svg">
<path d="M58.8508 39.2743C59.8082 40.6704 60.2218 42.3685 60.0135 44.0485C59.8052 45.7285 58.9895 47.2742 57.7202 48.3943C57.8619 48.9629 57.9336 49.5468 57.9335 50.1329C57.9354 51.2517 57.6855 52.3565 57.2022 53.3655C56.719 54.3745 56.0148 55.2618 55.1419 55.9616C54.269 56.6613 53.2497 57.1556 52.1598 57.4078C51.0698 57.6599 49.937 57.6635 48.8455 57.4183C48.1377 59.2842 46.7984 60.8431 45.0603 61.8238C43.3222 62.8045 41.2954 63.145 39.3322 62.7862C37.3691 62.4273 35.5938 61.3917 34.3152 59.8594C33.0365 58.3272 32.3353 56.3953 32.3335 54.3996C32.3317 56.3953 31.6305 58.3272 30.3518 59.8594C29.0732 61.3917 27.2979 62.4273 25.3348 62.7862C23.3716 63.145 21.3448 62.8045 19.6067 61.8238C17.8686 60.8431 16.5293 59.2842 15.8215 57.4183C14.73 57.6635 13.5972 57.6599 12.5072 57.4078C11.4173 57.1556 10.398 56.6613 9.52514 55.9616C8.65224 55.2618 7.94805 54.3745 7.46478 53.3655C6.98152 52.3565 6.73158 51.2517 6.7335 50.1329C6.73346 49.5468 6.8051 48.9629 6.94684 48.3943C5.67749 47.2742 4.86178 45.7285 4.6535 44.0485C4.44522 42.3685 4.85877 40.6704 5.81617 39.2743C5.01684 38.0662 4.59367 36.6482 4.60017 35.1996C4.59896 33.9509 4.91194 32.7219 5.51029 31.6258C6.10864 30.5298 6.97314 29.6019 8.02417 28.9276C7.87362 28.364 7.7983 27.7829 7.80017 27.1996C7.79798 25.8247 8.2058 24.4804 8.97152 23.3385C9.73724 22.1965 10.8261 21.3089 12.0988 20.7889C12.0772 20.6155 12.0665 20.441 12.0668 20.2663C12.0638 18.6079 12.6155 16.9963 13.6341 15.6877C14.6528 14.3791 16.0798 13.4488 17.6882 13.0449C17.2459 15.2697 17.3136 17.5658 17.8864 19.7606C18.4591 21.9555 19.5219 23.9919 20.9948 25.7169C21.8754 26.7354 22.5753 27.8971 23.0642 29.1516C23.3376 29.8544 23.5378 30.5836 23.6615 31.3276C23.7472 31.8182 24.0045 32.2624 24.3875 32.5809C24.7704 32.8994 25.2541 33.0714 25.7522 33.0663H24.8668C24.3023 33.0704 23.7621 33.2965 23.363 33.6957C22.9638 34.0949 22.7377 34.6351 22.7335 35.1996C22.7352 35.7649 22.9605 36.3065 23.3602 36.7062C23.7599 37.1059 24.3016 37.3312 24.8668 37.3329C24.3023 37.3371 23.7621 37.5632 23.363 37.9624C22.9638 38.3616 22.7377 38.9018 22.7335 39.4663C22.7352 40.0315 22.9605 40.5732 23.3602 40.9729C23.7599 41.3726 24.3016 41.5979 24.8668 41.5996H25.9335C25.9335 44.5436 28.8028 46.9329 32.3335 46.9329C35.8642 46.9329 38.7335 44.5436 38.7335 41.5996H39.8002C40.3647 41.5954 40.9049 41.3693 41.304 40.9701C41.7032 40.5709 41.9293 40.0308 41.9335 39.4663C41.9318 38.901 41.7065 38.3593 41.3068 37.9596C40.9071 37.5599 40.3654 37.3346 39.8002 37.3329C40.3647 37.3287 40.9049 37.1026 41.304 36.7035C41.7032 36.3043 41.9293 35.7641 41.9335 35.1996C41.9318 34.6343 41.7065 34.0927 41.3068 33.693C40.9071 33.2932 40.3654 33.0679 39.8002 33.0663H38.9148C39.4113 33.0716 39.8936 32.901 40.2763 32.5847C40.659 32.2684 40.9173 31.8268 41.0055 31.3383C41.3704 29.2496 42.2958 27.2993 43.6828 25.6956C45.0852 24.0588 46.1165 22.1376 46.7057 20.0643C47.2949 17.991 47.4281 15.8146 47.0962 13.6849C47.0642 13.4716 47.0322 13.2583 46.9895 13.0449C48.5952 13.4522 50.019 14.3837 51.0353 15.6918C52.0516 16.9999 52.6023 18.6097 52.6002 20.2663C52.6005 20.441 52.5898 20.6155 52.5682 20.7889C53.841 21.3089 54.9298 22.1965 55.6955 23.3385C56.4612 24.4804 56.869 25.8247 56.8668 27.1996C56.8687 27.7829 56.7934 28.364 56.6428 28.9276C57.6939 29.6019 58.5584 30.5298 59.1567 31.6258C59.7551 32.7219 60.0681 33.9509 60.0668 35.1996C60.0733 36.6482 59.6502 38.0662 58.8508 39.2743Z" fill="#C6D8FB"/>
<path d="M47.2667 57.5993C46.7212 57.5988 46.1775 57.5379 45.6453 57.418C45.1255 58.7848 44.2631 59.9952 43.1409 60.9328C42.0187 61.8705 40.6743 62.504 39.2368 62.7726C41.2102 63.1603 43.2571 62.8365 45.0145 61.8587C46.7718 60.8808 48.126 59.3121 48.8368 57.4308C48.3209 57.5422 47.7945 57.5987 47.2667 57.5993Z" fill="#A4C3FD"/>
<path d="M60.0666 35.1996C60.0678 33.9509 59.7548 32.7219 59.1565 31.6258C58.5581 30.5298 57.6936 29.6019 56.6426 28.9276C56.7931 28.364 56.8685 27.7829 56.8666 27.1996C56.8688 25.8247 56.461 24.4804 55.6952 23.3385C54.9295 22.1965 53.8407 21.3089 52.5679 20.7889C52.5895 20.6155 52.6002 20.441 52.5999 20.2663C52.6021 18.6097 52.0514 16.9999 51.035 15.6918C50.0187 14.3837 48.5949 13.4522 46.9893 13.0449C47.0319 13.2583 47.0639 13.4716 47.0959 13.6849C47.1631 14.1361 47.1941 14.5809 47.2218 15.0247C48.6141 16.414 49.3975 18.2994 49.3999 20.2663C49.4002 20.441 49.3895 20.6155 49.3679 20.7889C50.6407 21.3089 51.7295 22.1965 52.4952 23.3385C53.261 24.4804 53.6688 25.8247 53.6666 27.1996C53.6685 27.7829 53.5931 28.364 53.4426 28.9276C54.4936 29.6019 55.3581 30.5298 55.9565 31.6258C56.5548 32.7219 56.8678 33.9509 56.8666 35.1996C56.8731 36.6482 56.4499 38.0662 55.6506 39.2743C56.608 40.6704 57.0215 42.3685 56.8133 44.0485C56.605 45.7285 55.7893 47.2742 54.5199 48.3943C54.6617 48.9629 54.7333 49.5468 54.7333 50.1329C54.7341 51.8342 54.1533 53.4847 53.0872 54.8106C52.0211 56.1365 50.5338 57.0581 48.8719 57.4225C49.3954 57.5395 49.9302 57.5989 50.4666 57.5996C52.4469 57.5996 54.3461 56.8129 55.7463 55.4127C57.1466 54.0124 57.9333 52.1132 57.9333 50.1329C57.9333 49.5468 57.8617 48.9629 57.7199 48.3943C58.9893 47.2742 59.805 45.7285 60.0133 44.0485C60.2215 42.3685 59.808 40.6704 58.8506 39.2743C59.6499 38.0662 60.0731 36.6482 60.0666 35.1996Z" fill="#A4C3FD"/>
<path d="M43.6827 25.6966C42.2957 27.3002 41.3703 29.2505 41.0054 31.3392C40.9172 31.8278 40.6589 32.2694 40.2762 32.5857C39.8935 32.902 39.4112 33.0726 38.9147 33.0672H25.7521C25.254 33.0724 24.7703 32.9004 24.3874 32.5819C24.0044 32.2634 23.7471 31.8192 23.6614 31.3286C23.5377 30.5846 23.3375 29.8554 23.0641 29.1526C22.5752 27.898 21.8753 26.7364 20.9947 25.7179C19.511 23.9841 18.4441 21.9333 17.876 19.7231C17.308 17.5129 17.2538 15.2019 17.7176 12.9675C18.1815 10.7331 19.151 8.63466 20.5519 6.83319C21.9528 5.03172 23.7477 3.57511 25.799 2.57513C27.8503 1.57516 30.1034 1.0584 32.3855 1.06451C34.6675 1.07062 36.9178 1.59943 38.9638 2.61037C41.0097 3.62131 42.7968 5.08751 44.188 6.89646C45.5792 8.70541 46.5375 10.809 46.9894 13.0459C47.0321 13.2592 47.0641 13.4726 47.0961 13.6859C47.428 15.8156 47.2948 17.9919 46.7056 20.0653C46.1164 22.1386 45.0851 24.0597 43.6827 25.6966Z" fill="#E8EDFC"/>
<path d="M41.9334 35.1997C41.9292 35.7642 41.7031 36.3044 41.3039 36.7036C40.9048 37.1028 40.3646 37.3289 39.8001 37.3331H24.8667C24.3015 37.3314 23.7598 37.1061 23.3601 36.7064C22.9604 36.3067 22.7351 35.765 22.7334 35.1997C22.7376 34.6352 22.9637 34.095 23.3629 33.6959C23.762 33.2967 24.3022 33.0706 24.8667 33.0664H39.8001C40.3653 33.0681 40.907 33.2934 41.3067 33.6931C41.7064 34.0928 41.9317 34.6345 41.9334 35.1997Z" fill="#E8EDFC"/>
<path d="M39.8001 33.0664H36.6001C37.1654 33.0681 37.707 33.2934 38.1067 33.6931C38.5064 34.0928 38.7317 34.6345 38.7334 35.1997C38.7292 35.7642 38.5031 36.3044 38.104 36.7036C37.7048 37.1028 37.1646 37.3289 36.6001 37.3331H39.8001C40.3646 37.3289 40.9048 37.1028 41.304 36.7036C41.7031 36.3044 41.9292 35.7642 41.9334 35.1997C41.9317 34.6345 41.7064 34.0928 41.3067 33.6931C40.907 33.2934 40.3654 33.0681 39.8001 33.0664Z" fill="#CAD9FC"/>
<path d="M41.9334 39.4673C41.9292 40.0318 41.7031 40.572 41.3039 40.9712C40.9048 41.3704 40.3646 41.5965 39.8001 41.6007H24.8667C24.3015 41.599 23.7598 41.3737 23.3601 40.9739C22.9604 40.5742 22.7351 40.0326 22.7334 39.4673C22.7376 38.9028 22.9637 38.3626 23.3629 37.9635C23.762 37.5643 24.3022 37.3382 24.8667 37.334H39.8001C40.3653 37.3357 40.907 37.561 41.3067 37.9607C41.7064 38.3604 41.9317 38.902 41.9334 39.4673Z" fill="#E8EDFC"/>
<path d="M39.8001 37.334H36.6001C37.1654 37.3357 37.707 37.561 38.1067 37.9607C38.5064 38.3604 38.7317 38.902 38.7334 39.4673C38.7292 40.0318 38.5031 40.572 38.104 40.9712C37.7048 41.3704 37.1646 41.5965 36.6001 41.6007H39.8001C40.3646 41.5965 40.9048 41.3704 41.304 40.9712C41.7031 40.572 41.9292 40.0318 41.9334 39.4673C41.9317 38.902 41.7064 38.3604 41.3067 37.9607C40.907 37.561 40.3654 37.3357 39.8001 37.334Z" fill="#CAD9FC"/>
<path d="M38.7336 41.5996C38.7336 44.5436 35.8643 46.9329 32.3336 46.9329C28.8029 46.9329 25.9336 44.5436 25.9336 41.5996H38.7336Z" fill="#E8EDFC"/>
<path d="M35.5334 41.5996C35.5334 44.0817 33.4897 46.1639 30.7334 46.758C31.2591 46.8727 31.7954 46.9313 32.3334 46.9329C35.8641 46.9329 38.7334 44.5436 38.7334 41.5996H35.5334Z" fill="#CAD9FC"/>
<path d="M17.4002 15.0509C16.0287 16.4399 15.2619 18.3148 15.2668 20.2669C15.2665 20.4416 15.2772 20.6161 15.2988 20.7895C14.0261 21.3095 12.9372 22.1971 12.1715 23.3391C11.4058 24.481 10.998 25.8253 11.0002 27.2002C10.9983 27.7836 11.0736 28.3646 11.2242 28.9282C10.1731 29.6025 9.30864 30.5304 8.71029 31.6264C8.11194 32.7225 7.79896 33.9515 7.80017 35.2002C7.79367 36.6488 8.21684 38.0668 9.01617 39.2749C8.05877 40.671 7.64522 42.3691 7.8535 44.0491C8.06178 45.7291 8.87749 47.2748 10.1468 48.3949C10.0051 48.9635 9.93346 49.5474 9.93351 50.1335C9.93197 51.8354 10.5133 53.4864 11.5807 54.8119C12.648 56.1374 14.1372 57.0574 15.8002 57.4189C15.2752 57.5382 14.7386 57.5991 14.2002 57.6002C12.2199 57.6002 10.3207 56.8135 8.92044 55.4133C7.52017 54.013 6.7335 52.1138 6.7335 50.1335C6.73346 49.5474 6.8051 48.9635 6.94684 48.3949C5.67749 47.2748 4.86178 45.7291 4.6535 44.0491C4.44522 42.3691 4.85877 40.671 5.81617 39.2749C5.01684 38.0668 4.59367 36.6488 4.60017 35.2002C4.59896 33.9515 4.91194 32.7225 5.51029 31.6264C6.10864 30.5304 6.97314 29.6025 8.02417 28.9282C7.87362 28.3646 7.7983 27.7836 7.80017 27.2002C7.79798 25.8253 8.2058 24.481 8.97152 23.3391C9.73724 22.1971 10.8261 21.3095 12.0988 20.7895C12.0772 20.6161 12.0665 20.4416 12.0668 20.2669C12.0647 18.6607 12.5832 17.097 13.5448 15.8104C14.5064 14.5239 15.8591 13.5837 17.4002 13.1309V15.0509Z" fill="white"/>
<path d="M52.0455 57.418L52.0391 57.4308L52.0721 57.4222L52.0455 57.418Z" fill="white"/>
<path d="M26.2387 3.56068L25.2979 1.64068C28.0546 0.300554 31.1345 -0.231264 34.1811 0.106811L33.9421 2.22734C31.2999 1.93569 28.6291 2.39795 26.2387 3.56068Z" fill="white"/>
<path d="M5.78179 48.7566C5.70492 49.2116 5.66639 49.6723 5.66659 50.1337C5.66913 52.3961 6.56899 54.5651 8.16875 56.1649C9.76851 57.7646 11.9375 58.6645 14.1999 58.667C14.5257 58.6669 14.8513 58.6477 15.1749 58.6094C15.9562 60.2091 17.1669 61.5599 18.6718 62.5111C20.1766 63.4623 21.9163 63.9763 23.6965 63.9956C25.4766 64.015 27.2271 63.539 28.7523 62.6208C30.2775 61.7026 31.5173 60.3784 32.3333 58.7961C33.1492 60.3784 34.389 61.7026 35.9142 62.6208C37.4394 63.539 39.1899 64.015 40.97 63.9956C42.7502 63.9763 44.4899 63.4623 45.9948 62.5111C47.4996 61.5599 48.7103 60.2091 49.4917 58.6094C49.8152 58.6477 50.1408 58.6669 50.4666 58.667C52.729 58.6645 54.898 57.7646 56.4978 56.1649C58.0975 54.5651 58.9974 52.3961 58.9999 50.1337C59.0001 49.6723 58.9616 49.2116 58.8847 48.7566C60.0837 47.5168 60.8498 45.9226 61.069 44.2119C61.2881 42.5011 60.9485 40.7653 60.1007 39.2633C61.0655 37.4861 61.367 35.4238 60.9514 33.4448C60.5358 31.4658 59.4301 29.699 57.8319 28.4601C57.8995 28.0436 57.9333 27.6223 57.9333 27.2004C57.9375 25.7435 57.5418 24.3135 56.7895 23.066C56.0372 21.8184 54.957 20.8013 53.6666 20.1252C53.6392 18.3748 53.07 16.676 52.0373 15.2624C51.0047 13.8489 49.5593 12.7901 47.9002 12.2318C47.136 9.0462 45.409 6.1733 42.9543 4.00387C40.4995 1.83444 37.4361 0.473805 34.1807 0.10702C34.0401 0.0882588 33.8971 0.0977515 33.7601 0.134942C33.6232 0.172133 33.4951 0.236274 33.3832 0.32361C33.2714 0.410945 33.1781 0.519718 33.1088 0.64356C33.0395 0.767402 32.9956 0.903822 32.9797 1.04483C32.9638 1.18584 32.9762 1.32861 33.0162 1.46476C33.0562 1.60092 33.1229 1.72773 33.2125 1.83778C33.3021 1.94782 33.4128 2.03888 33.538 2.10563C33.6632 2.17237 33.8005 2.21346 33.9418 2.22649C36.9441 2.59256 39.7466 3.92289 41.9283 6.01768C44.1101 8.11246 45.5532 10.8586 46.041 13.8436C46.3564 15.8227 46.236 17.8468 45.6883 19.7746C45.1406 21.7025 44.1787 23.4875 42.8698 25.0052C41.3597 26.7561 40.353 28.884 39.9567 31.162C39.9091 31.4012 39.779 31.6162 39.5891 31.7694C39.3993 31.9226 39.1617 32.0043 38.9178 32.0004H35.5333V25.6004H36.5999C37.2328 25.6004 37.8515 25.4127 38.3777 25.0611C38.904 24.7094 39.3141 24.2097 39.5563 23.6249C39.7985 23.0402 39.8619 22.3968 39.7384 21.7761C39.615 21.1553 39.3102 20.5851 38.8627 20.1376C38.4151 19.6901 37.845 19.3853 37.2242 19.2618C36.6035 19.1384 35.9601 19.2017 35.3753 19.4439C34.7906 19.6861 34.2908 20.0963 33.9392 20.6225C33.5876 21.1488 33.3999 21.7675 33.3999 22.4004V23.467H31.2666V22.4004C31.2666 21.7675 31.0789 21.1488 30.7273 20.6225C30.3757 20.0963 29.8759 19.6861 29.2912 19.4439C28.7065 19.2017 28.063 19.1384 27.4423 19.2618C26.8216 19.3853 26.2514 19.6901 25.8038 20.1376C25.3563 20.5851 25.0515 21.1553 24.9281 21.7761C24.8046 22.3968 24.868 23.0402 25.1102 23.6249C25.3524 24.2097 25.7625 24.7094 26.2888 25.0611C26.815 25.4127 27.4337 25.6004 28.0666 25.6004H29.1333V32.0004H25.7509C25.5061 32.0039 25.2679 31.9214 25.0778 31.7672C24.8877 31.6129 24.7578 31.3968 24.7109 31.1566C24.577 30.3404 24.3586 29.5404 24.0591 28.7694C23.5268 27.4012 22.7641 26.1342 21.8042 25.0233C19.6505 22.5103 18.4667 19.3099 18.4666 16.0004C18.4804 13.4095 19.2114 10.8731 20.5786 8.67235C21.2651 7.58051 22.0933 6.58447 23.0415 5.71022C24.0065 4.85294 25.0829 4.12996 26.2415 3.56089C26.4797 3.43046 26.6621 3.21774 26.7548 2.96252C26.8475 2.70729 26.844 2.42706 26.745 2.17422C26.6918 2.03804 26.6102 1.91476 26.5057 1.8126C26.4011 1.71044 26.276 1.63176 26.1386 1.58179C26.0012 1.53182 25.8547 1.51172 25.709 1.52283C25.5632 1.53395 25.4215 1.57601 25.2933 1.64622C23.9582 2.30318 22.7181 3.13777 21.6069 4.12729C20.5119 5.13379 19.556 6.28166 18.7642 7.54062C17.8563 8.98026 17.1955 10.5615 16.809 12.219C15.1387 12.7689 13.6814 13.826 12.6402 15.2431C11.5989 16.6603 11.0256 18.3668 10.9999 20.1252C9.70949 20.8013 8.6293 21.8184 7.87699 23.066C7.12467 24.3135 6.72906 25.7435 6.73326 27.2004C6.73476 27.6235 6.77043 28.0459 6.83992 28.4633C5.24085 29.7015 4.13414 31.4679 3.71754 33.447C3.30094 35.426 3.6016 37.4887 4.56579 39.2665C3.71805 40.7685 3.37842 42.5043 3.59756 44.2151C3.81669 45.9258 4.58284 47.52 5.78179 48.7598V48.7566ZM35.5333 22.4004C35.5333 22.1894 35.5958 21.9832 35.713 21.8077C35.8302 21.6323 35.9968 21.4956 36.1917 21.4149C36.3866 21.3342 36.6011 21.313 36.808 21.3542C37.0149 21.3953 37.205 21.4969 37.3542 21.6461C37.5033 21.7953 37.6049 21.9853 37.6461 22.1923C37.6873 22.3992 37.6661 22.6136 37.5854 22.8085C37.5047 23.0035 37.3679 23.17 37.1925 23.2873C37.0171 23.4045 36.8109 23.467 36.5999 23.467H35.5333V22.4004ZM40.8666 39.467C40.8666 39.7499 40.7542 40.0212 40.5542 40.2213C40.3541 40.4213 40.0828 40.5337 39.7999 40.5337H24.8666C24.5837 40.5337 24.3124 40.4213 24.1123 40.2213C23.9123 40.0212 23.7999 39.7499 23.7999 39.467C23.7999 39.1841 23.9123 38.9128 24.1123 38.7128C24.3124 38.5127 24.5837 38.4004 24.8666 38.4004H39.7999C40.0828 38.4004 40.3541 38.5127 40.5542 38.7128C40.7542 38.9128 40.8666 39.1841 40.8666 39.467ZM37.4767 42.667C37.0553 43.6666 36.3344 44.511 35.4133 45.0841C34.4922 45.6571 33.4162 45.9306 32.3333 45.867C31.2503 45.9306 30.1743 45.6571 29.2532 45.0841C28.3321 44.511 27.6113 43.6666 27.1898 42.667H37.4767ZM28.0666 23.467C27.8556 23.467 27.6494 23.4045 27.474 23.2873C27.2986 23.17 27.1619 23.0035 27.0811 22.8085C27.0004 22.6136 26.9793 22.3992 27.0204 22.1923C27.0616 21.9853 27.1632 21.7953 27.3123 21.6461C27.4615 21.4969 27.6516 21.3953 27.8585 21.3542C28.0654 21.313 28.2799 21.3342 28.4748 21.4149C28.6697 21.4956 28.8363 21.6323 28.9535 21.8077C29.0707 21.9832 29.1333 22.1894 29.1333 22.4004V23.467H28.0666ZM31.2666 25.6004H33.3999V32.0004H31.2666V25.6004ZM38.9178 34.1337H39.7999C40.0828 34.1337 40.3541 34.2461 40.5542 34.4461C40.7542 34.6461 40.8666 34.9175 40.8666 35.2004C40.8666 35.4833 40.7542 35.7546 40.5542 35.9546C40.3541 36.1546 40.0828 36.267 39.7999 36.267H24.8666C24.5837 36.267 24.3124 36.1546 24.1123 35.9546C23.9123 35.7546 23.7999 35.4833 23.7999 35.2004C23.7999 34.9175 23.9123 34.6461 24.1123 34.4461C24.3124 34.2461 24.5837 34.1337 24.8666 34.1337H38.9178ZM6.70446 38.6852C6.02206 37.6515 5.66093 36.4389 5.66659 35.2004C5.66388 34.13 5.93128 33.0763 6.44403 32.1367C6.95677 31.1972 7.69829 30.4022 8.59992 29.8254C8.79008 29.7031 8.93647 29.5236 9.01795 29.3127C9.09943 29.1018 9.11179 28.8705 9.05326 28.6521C8.92778 28.1784 8.86502 27.6903 8.86659 27.2004C8.86309 26.0369 9.20741 24.899 9.85534 23.9328C10.5033 22.9665 11.4252 22.2159 12.5029 21.7774C12.7198 21.6885 12.9014 21.5307 13.0196 21.3282C13.1377 21.1258 13.186 20.89 13.1567 20.6574C13.1407 20.5279 13.1328 20.3975 13.1333 20.267C13.1321 19.133 13.4348 18.0194 14.01 17.042C14.5851 16.0646 15.4117 15.2593 16.4037 14.7097C16.3663 15.1364 16.3397 15.5705 16.3333 16.0004C16.3343 19.8187 17.7 23.511 20.1839 26.411C20.9865 27.3372 21.624 28.3943 22.0687 29.5364C22.3137 30.1712 22.4924 30.8296 22.6021 31.5012C22.6662 31.8904 22.8046 32.2638 23.0095 32.6009C22.6409 32.8601 22.3319 33.1949 22.1031 33.583C21.8742 33.9711 21.7308 34.4036 21.6825 34.8516C21.6341 35.2996 21.6819 35.7527 21.8226 36.1807C21.9634 36.6088 22.1938 37.0018 22.4986 37.3337C22.0815 37.7909 21.8066 38.3598 21.7075 38.9707C21.6084 39.5816 21.6893 40.2082 21.9405 40.7738C22.1916 41.3395 22.6021 41.8198 23.1217 42.156C23.6414 42.4922 24.2477 42.6698 24.8666 42.667H24.9786C25.5738 45.6889 28.6405 48.0004 32.3386 48.0004C36.0367 48.0004 39.0981 45.6889 39.6986 42.667H39.7999C40.4188 42.6698 41.0251 42.4922 41.5448 42.156C42.0644 41.8198 42.4749 41.3395 42.726 40.7738C42.9772 40.2082 43.0582 39.5816 42.959 38.9707C42.8599 38.3598 42.585 37.7909 42.1679 37.3337C42.472 37.0016 42.7017 36.6086 42.842 36.1808C42.9822 35.753 43.0297 35.3002 42.9813 34.8526C42.9328 34.405 42.7896 33.9729 42.561 33.585C42.3325 33.1971 42.024 32.8623 41.6559 32.603C41.859 32.2679 41.9965 31.8972 42.0613 31.5108C42.3938 29.6157 43.2339 27.8463 44.4922 26.3908C47.2481 23.151 48.6044 18.9493 48.2629 14.7097C49.2542 15.26 50.0802 16.0656 50.6552 17.0428C51.2303 18.02 51.5334 19.1332 51.5333 20.267C51.5337 20.3975 51.5258 20.5279 51.5098 20.6574C51.4806 20.89 51.5288 21.1258 51.647 21.3282C51.7652 21.5307 51.9467 21.6885 52.1637 21.7774C53.2413 22.2159 54.1632 22.9665 54.8112 23.9328C55.4591 24.899 55.8034 26.0369 55.7999 27.2004C55.8014 27.69 55.7386 28.1777 55.6133 28.651C55.5547 28.8694 55.5671 29.1007 55.6486 29.3116C55.73 29.5225 55.8764 29.7021 56.0666 29.8244C56.9684 30.4013 57.71 31.1964 58.2227 32.1361C58.7355 33.0759 59.0028 34.1298 58.9999 35.2004C59.0056 36.4389 58.6445 37.6515 57.9621 38.6852C57.8445 38.8622 57.7826 39.0703 57.7841 39.2827C57.7856 39.4952 57.8506 39.7024 57.9706 39.8777C58.7804 41.0594 59.1299 42.4966 58.953 43.9183C58.7762 45.3399 58.0853 46.6477 57.0106 47.595C56.8638 47.7244 56.7554 47.8916 56.6973 48.0784C56.6391 48.2652 56.6335 48.4644 56.681 48.6542C56.8033 49.1379 56.8657 49.6348 56.8666 50.1337C56.8649 51.8306 56.1901 53.4574 54.9902 54.6573C53.7903 55.8572 52.1635 56.532 50.4666 56.5337C50 56.533 49.535 56.4808 49.0799 56.378C48.829 56.3216 48.5661 56.3577 48.3397 56.4799C48.1133 56.602 47.9386 56.8018 47.8479 57.0425C47.2286 58.6753 46.0566 60.0393 44.5357 60.8974C43.0148 61.7556 41.2412 62.0535 39.5234 61.7393C37.8056 61.4252 36.2523 60.5189 35.1335 59.178C34.0147 57.8372 33.4013 56.1466 33.3999 54.4004V51.2004C33.3999 50.9175 33.2875 50.6461 33.0875 50.4461C32.8875 50.2461 32.6162 50.1337 32.3333 50.1337C32.0504 50.1337 31.779 50.2461 31.579 50.4461C31.379 50.6461 31.2666 50.9175 31.2666 51.2004V54.4004C31.2646 56.1461 30.6509 57.836 29.5322 59.1763C28.4135 60.5165 26.8605 61.4224 25.1432 61.7365C23.4259 62.0506 21.6528 61.753 20.1322 60.8954C18.6115 60.0378 17.4395 58.6746 16.8197 57.0425C16.7289 56.8018 16.5543 56.602 16.3279 56.4799C16.1015 56.3577 15.8386 56.3216 15.5877 56.378C15.1322 56.4809 14.6668 56.5331 14.1999 56.5337C12.5031 56.532 10.8762 55.8572 9.67631 54.6573C8.47645 53.4574 7.80162 51.8306 7.79992 50.1337C7.79946 49.635 7.86036 49.1381 7.98126 48.6542C8.02874 48.4644 8.02311 48.2652 7.96498 48.0784C7.90685 47.8916 7.79845 47.7244 7.65166 47.595C6.57698 46.6477 5.88606 45.3399 5.70922 43.9183C5.53237 42.4966 5.88182 41.0594 6.69166 39.8777C6.81233 39.7028 6.87801 39.4958 6.88029 39.2834C6.88257 39.0709 6.82134 38.8626 6.70446 38.6852Z" fill="#428DFF"/>
<path d="M29.8235 2.3638C29.6834 2.3645 29.5446 2.33761 29.4149 2.28465C29.2852 2.23169 29.1672 2.15371 29.0677 2.05515C28.9681 1.9566 28.889 1.8394 28.8347 1.71026C28.7805 1.58111 28.7522 1.44255 28.7515 1.30247C28.7508 1.16239 28.7777 1.02355 28.8306 0.893867C28.8836 0.764185 28.9616 0.646204 29.0601 0.546659C29.1587 0.447115 29.2759 0.367957 29.405 0.313705C29.5342 0.259453 29.6727 0.231169 29.8128 0.230469H29.8235C30.1064 0.230469 30.3777 0.342849 30.5777 0.542888C30.7778 0.742927 30.8901 1.01424 30.8901 1.29714C30.8901 1.58003 30.7778 1.85134 30.5777 2.05138C30.3777 2.25142 30.1064 2.3638 29.8235 2.3638Z" fill="#428DFF"/>
<path d="M13.1331 44.8008C12.8502 44.8008 12.5789 44.9132 12.3788 45.1132C12.1788 45.3132 12.0664 45.5846 12.0664 45.8674C12.0664 46.1503 12.1788 46.4217 12.3788 46.6217C12.5789 46.8217 12.8502 46.9341 13.1331 46.9341C13.6989 46.9341 14.2415 47.1589 14.6416 47.559C15.0416 47.959 15.2664 48.5017 15.2664 49.0674C15.2664 49.3503 15.3788 49.6217 15.5788 49.8217C15.7789 50.0217 16.0502 50.1341 16.3331 50.1341C16.616 50.1341 16.8873 50.0217 17.0873 49.8217C17.2874 49.6217 17.3997 49.3503 17.3997 49.0674C17.3997 47.9359 16.9502 46.8506 16.1501 46.0505C15.3499 45.2503 14.2647 44.8008 13.1331 44.8008Z" fill="#428DFF"/>
<path d="M21.6668 55.4661C21.9497 55.4661 22.221 55.3538 22.421 55.1537C22.6211 54.9537 22.7334 54.6824 22.7334 54.3995C22.7334 53.8337 22.9582 53.2911 23.3583 52.891C23.7583 52.4909 24.301 52.2661 24.8668 52.2661C25.1497 52.2661 25.421 52.1538 25.621 51.9537C25.8211 51.7537 25.9334 51.4824 25.9334 51.1995C25.9334 50.9166 25.8211 50.6453 25.621 50.4452C25.421 50.2452 25.1497 50.1328 24.8668 50.1328C23.7352 50.1328 22.6499 50.5823 21.8498 51.3825C21.0496 52.1826 20.6001 53.2679 20.6001 54.3995C20.6001 54.6824 20.7125 54.9537 20.9125 55.1537C21.1126 55.3538 21.3839 55.4661 21.6668 55.4661Z" fill="#428DFF"/>
<path d="M10.9998 33.0669C11.3426 33.069 11.6799 33.1542 11.9825 33.3153C12.2852 33.4763 12.5442 33.7085 12.7374 33.9917C12.3013 34.6706 12.0685 35.4601 12.0664 36.2669C12.0664 36.5498 12.1788 36.8211 12.3789 37.0212C12.5789 37.2212 12.8502 37.3336 13.1331 37.3336C13.416 37.3336 13.6873 37.2212 13.8874 37.0212C14.0874 36.8211 14.1998 36.5498 14.1998 36.2669C14.1998 35.7011 14.4245 35.1585 14.8246 34.7584C15.2247 34.3584 15.7673 34.1336 16.3331 34.1336C16.616 34.1336 16.8873 34.0212 17.0874 33.8212C17.2874 33.6211 17.3998 33.3498 17.3998 33.0669C17.3998 32.784 17.2874 32.5127 17.0874 32.3127C16.8873 32.1126 16.616 32.0003 16.3331 32.0003C15.6274 32.0064 14.9345 32.1898 14.3182 32.5336C13.9194 32.0363 13.4144 31.6345 12.8403 31.3576C12.2661 31.0808 11.6372 30.9359 10.9998 30.9336C10.7169 30.9336 10.4456 31.046 10.2455 31.246C10.0455 31.4461 9.93311 31.7174 9.93311 32.0003C9.93311 32.2832 10.0455 32.5545 10.2455 32.7545C10.4456 32.9545 10.7169 33.0669 10.9998 33.0669Z" fill="#428DFF"/>
<path d="M48.3333 50.1341C48.6162 50.1341 48.8875 50.0217 49.0875 49.8217C49.2876 49.6217 49.3999 49.3503 49.3999 49.0674C49.3999 48.5017 49.6247 47.959 50.0248 47.559C50.4248 47.1589 50.9675 46.9341 51.5333 46.9341C51.8162 46.9341 52.0875 46.8217 52.2875 46.6217C52.4876 46.4217 52.5999 46.1503 52.5999 45.8674C52.5999 45.5846 52.4876 45.3132 52.2875 45.1132C52.0875 44.9132 51.8162 44.8008 51.5333 44.8008C50.4017 44.8008 49.3164 45.2503 48.5163 46.0505C47.7161 46.8506 47.2666 47.9359 47.2666 49.0674C47.2666 49.3503 47.379 49.6217 47.579 49.8217C47.7791 50.0217 48.0504 50.1341 48.3333 50.1341Z" fill="#428DFF"/>
<path d="M39.8001 52.2661C40.3659 52.2661 40.9085 52.4909 41.3086 52.891C41.7086 53.2911 41.9334 53.8337 41.9334 54.3995C41.9334 54.6824 42.0458 54.9537 42.2458 55.1537C42.4459 55.3538 42.7172 55.4661 43.0001 55.4661C43.283 55.4661 43.5543 55.3538 43.7543 55.1537C43.9544 54.9537 44.0667 54.6824 44.0667 54.3995C44.0667 53.2679 43.6172 52.1826 42.8171 51.3825C42.0169 50.5823 40.9317 50.1328 39.8001 50.1328C39.5172 50.1328 39.2459 50.2452 39.0458 50.4452C38.8458 50.6453 38.7334 50.9166 38.7334 51.1995C38.7334 51.4824 38.8458 51.7537 39.0458 51.9537C39.2459 52.1538 39.5172 52.2661 39.8001 52.2661Z" fill="#428DFF"/>
<path d="M48.3333 34.1336C48.8991 34.1336 49.4417 34.3584 49.8418 34.7584C50.2418 35.1585 50.4666 35.7011 50.4666 36.2669C50.4666 36.5498 50.579 36.8211 50.779 37.0212C50.9791 37.2212 51.2504 37.3336 51.5333 37.3336C51.8162 37.3336 52.0875 37.2212 52.2875 37.0212C52.4876 36.8211 52.5999 36.5498 52.5999 36.2669C52.5979 35.4601 52.3651 34.6706 51.929 33.9917C52.1222 33.7085 52.3812 33.4763 52.6839 33.3153C52.9865 33.1542 53.3238 33.069 53.6666 33.0669C53.9495 33.0669 54.2208 32.9545 54.4208 32.7545C54.6209 32.5545 54.7333 32.2832 54.7333 32.0003C54.7333 31.7174 54.6209 31.4461 54.4208 31.246C54.2208 31.046 53.9495 30.9336 53.6666 30.9336C53.0292 30.9359 52.4003 31.0808 51.8261 31.3576C51.2519 31.6345 50.747 32.0363 50.3482 32.5336C49.7318 32.1898 49.039 32.0064 48.3333 32.0003C48.0504 32.0003 47.7791 32.1126 47.579 32.3127C47.379 32.5127 47.2666 32.784 47.2666 33.0669C47.2666 33.3498 47.379 33.6211 47.579 33.8212C47.7791 34.0212 48.0504 34.1336 48.3333 34.1336Z" fill="#428DFF"/>
</svg>
