<svg width="64" height="64" viewBox="0 0 64 64" fill="none" xmlns="http://www.w3.org/2000/svg">
<path d="M5.3335 9.56641H58.6665C61.0229 9.56641 62.9331 11.4766 62.9331 13.833V50.0996C62.9331 52.4561 61.0229 54.3662 58.6665 54.3662H5.3335C2.97705 54.3662 1.06689 52.4561 1.06689 50.0996V13.833C1.06689 11.4766 2.97705 9.56641 5.3335 9.56641Z" fill="#A4C2F7"/>
<path d="M5.3335 9.56641H55.4668C57.8232 9.56641 59.7334 11.4766 59.7334 13.833V50.0996C59.7334 52.4561 57.8232 54.3662 55.4668 54.3662H5.3335C2.97705 54.3662 1.06689 52.4561 1.06689 50.0996V13.833C1.06689 11.4766 2.97705 9.56641 5.3335 9.56641Z" fill="#D4E1F4"/>
<path d="M21.3335 39.4336H42.6665V54.3672H21.3335V39.4336Z" fill="#D4E1F4"/>
<path d="M21.3335 9.56641H42.6665V24.4995H21.3335V9.56641Z" fill="#D4E1F4"/>
<path d="M1.06689 24.5H21.3335V39.4331H1.06689V24.5Z" fill="#D4E1F4"/>
<path d="M42.6665 24.5H62.9331V39.4331H42.6665V24.5Z" fill="#A4C2F7"/>
<path d="M42.6665 24.5H59.7334V39.4331H42.6665V24.5Z" fill="#D4E1F4"/>
<path d="M21.3335 24.5H42.6665V39.4331H21.3335V24.5Z" fill="#A4C2F7"/>
<path d="M5.3335 54.3662H8.5332C6.17676 54.3662 4.2666 52.4561 4.2666 50.0996V13.833C4.2666 11.4766 6.17676 9.56641 8.5332 9.56641H5.3335C2.97705 9.56641 1.06689 11.4766 1.06689 13.833V50.0996C1.06689 52.4561 2.97705 54.3662 5.3335 54.3662Z" fill="white"/>
<path d="M58.6665 10.6333H5.3335V8.5H58.6665V10.6333Z" fill="white"/>
<path d="M50.8906 10.3242L51.0186 10.1641C51.0591 10.1045 51.0913 10.04 51.1148 9.97217C51.1455 9.91162 51.167 9.84668 51.1787 9.77979C51.1905 9.70947 51.1978 9.63818 51.2002 9.5669C51.1958 9.28418 51.0855 9.01367 50.8906 8.80957C50.7886 8.71289 50.6695 8.63672 50.5386 8.58545C50.1406 8.42432 49.6856 8.51221 49.376 8.80957C49.2798 8.91113 49.2036 9.03076 49.1519 9.16113C49.0972 9.28955 49.0684 9.42725 49.0669 9.5669C49.064 10 49.3242 10.3916 49.7241 10.5581C50.1245 10.7241 50.5855 10.6318 50.8906 10.3242Z" fill="#428DFF"/>
<path d="M58.6665 8.5H54.3999C53.811 8.5 53.3335 8.97754 53.3335 9.56689C53.3335 10.1558 53.811 10.6333 54.3999 10.6333H58.6665C60.4341 10.6333 61.8667 12.0659 61.8667 13.8335V23.4331H43.7334V10.6333H45.8667C46.4556 10.6333 46.9331 10.1558 46.9331 9.56689C46.9331 8.97754 46.4556 8.5 45.8667 8.5H5.3335C2.38916 8.50342 0.00341797 10.8892 0 13.8335V50.1001C0.00341797 53.0439 2.38916 55.4297 5.3335 55.4331H58.6665C61.6108 55.4297 63.9966 53.0439 64 50.1001V13.8335C63.9966 10.8892 61.6108 8.50342 58.6665 8.5ZM61.8667 25.5669V38.3667H43.7334V25.5669H61.8667ZM22.3999 38.3667V25.5669H41.6001V38.3667H22.3999ZM41.6001 40.5V53.2998H22.3999V40.5H41.6001ZM2.1333 25.5669H20.2666V38.3667H2.1333V25.5669ZM41.6001 23.4331H22.3999V10.6333H41.6001V23.4331ZM5.3335 10.6333H20.2666V23.4331H2.1333V13.8335C2.1333 12.0659 3.56592 10.6333 5.3335 10.6333ZM2.1333 50.1001V40.5H20.2666V53.2998H5.3335C3.56592 53.2998 2.1333 51.8672 2.1333 50.1001ZM58.6665 53.2998H43.7334V40.5H61.8667V50.1001C61.8667 51.8672 60.4341 53.2998 58.6665 53.2998Z" fill="#428DFF"/>
<path d="M5.3335 21.2988C5.92236 21.2988 6.3999 20.8213 6.3999 20.2324V13.8325C6.3999 13.2432 5.92236 12.7656 5.3335 12.7656C4.74414 12.7656 4.2666 13.2432 4.2666 13.8325V20.2324C4.2666 20.8213 4.74414 21.2988 5.3335 21.2988Z" fill="#428DFF"/>
<path d="M10.6665 21.2988C11.2559 21.2988 11.7334 20.8213 11.7334 20.2324V13.8325C11.7334 13.2432 11.2559 12.7656 10.6665 12.7656C10.0776 12.7656 9.6001 13.2432 9.6001 13.8325V20.2324C9.6001 20.8213 10.0776 21.2988 10.6665 21.2988Z" fill="#428DFF"/>
<path d="M16 21.2988C16.5889 21.2988 17.0669 20.8213 17.0669 20.2324V13.8325C17.0669 13.2432 16.5889 12.7656 16 12.7656C15.4111 12.7656 14.9331 13.2432 14.9331 13.8325V20.2324C14.9331 20.8213 15.4111 21.2988 16 21.2988Z" fill="#428DFF"/>
<path d="M48 21.2988C48.5889 21.2988 49.0669 20.8213 49.0669 20.2324V13.8325C49.0669 13.2432 48.5889 12.7656 48 12.7656C47.4111 12.7656 46.9331 13.2432 46.9331 13.8325V20.2324C46.9331 20.8213 47.4111 21.2988 48 21.2988Z" fill="#428DFF"/>
<path d="M54.3999 20.2324V13.8325C54.3999 13.2432 53.9224 12.7656 53.3335 12.7656C52.7441 12.7656 52.2666 13.2432 52.2666 13.8325V20.2324C52.2666 20.8213 52.7441 21.2988 53.3335 21.2988C53.9224 21.2988 54.3999 20.8213 54.3999 20.2324Z" fill="#428DFF"/>
<path d="M59.7334 20.2324V13.8325C59.7334 13.2432 59.2559 12.7656 58.6665 12.7656C58.0776 12.7656 57.6001 13.2432 57.6001 13.8325V20.2324C57.6001 20.8213 58.0776 21.2988 58.6665 21.2988C59.2559 21.2988 59.7334 20.8213 59.7334 20.2324Z" fill="#428DFF"/>
<path d="M5.3335 42.6328C4.74414 42.6328 4.2666 43.1104 4.2666 43.6997V50.0996C4.2666 50.6885 4.74414 51.166 5.3335 51.166C5.92236 51.166 6.3999 50.6885 6.3999 50.0996V43.6997C6.3999 43.1104 5.92236 42.6328 5.3335 42.6328Z" fill="#428DFF"/>
<path d="M10.6665 42.6328C10.0776 42.6328 9.6001 43.1104 9.6001 43.6997V50.0996C9.6001 50.6885 10.0776 51.166 10.6665 51.166C11.2559 51.166 11.7334 50.6885 11.7334 50.0996V43.6997C11.7334 43.1104 11.2559 42.6328 10.6665 42.6328Z" fill="#428DFF"/>
<path d="M16 42.6328C15.4111 42.6328 14.9331 43.1104 14.9331 43.6997V50.0996C14.9331 50.6885 15.4111 51.166 16 51.166C16.5889 51.166 17.0669 50.6885 17.0669 50.0996V43.6997C17.0669 43.1104 16.5889 42.6328 16 42.6328Z" fill="#428DFF"/>
<path d="M26.6665 27.6992C26.0776 27.6992 25.6001 28.1768 25.6001 28.7656V35.1655C25.6001 35.7549 26.0776 36.2324 26.6665 36.2324C27.2559 36.2324 27.7334 35.7549 27.7334 35.1655V28.7656C27.7334 28.1768 27.2559 27.6992 26.6665 27.6992Z" fill="#428DFF"/>
<path d="M32 27.6992C31.4111 27.6992 30.9331 28.1768 30.9331 28.7656V35.1655C30.9331 35.7549 31.4111 36.2324 32 36.2324C32.5889 36.2324 33.0669 35.7549 33.0669 35.1655V28.7656C33.0669 28.1768 32.5889 27.6992 32 27.6992Z" fill="#428DFF"/>
<path d="M37.3335 27.6992C36.7441 27.6992 36.2666 28.1768 36.2666 28.7656V35.1655C36.2666 35.7549 36.7441 36.2324 37.3335 36.2324C37.9224 36.2324 38.3999 35.7549 38.3999 35.1655V28.7656C38.3999 28.1768 37.9224 27.6992 37.3335 27.6992Z" fill="#428DFF"/>
<path d="M48 42.6328C47.4111 42.6328 46.9331 43.1104 46.9331 43.6997V50.0996C46.9331 50.6885 47.4111 51.166 48 51.166C48.5889 51.166 49.0669 50.6885 49.0669 50.0996V43.6997C49.0669 43.1104 48.5889 42.6328 48 42.6328Z" fill="#428DFF"/>
<path d="M53.3335 42.6328C52.7441 42.6328 52.2666 43.1104 52.2666 43.6997V50.0996C52.2666 50.6885 52.7441 51.166 53.3335 51.166C53.9224 51.166 54.3999 50.6885 54.3999 50.0996V43.6997C54.3999 43.1104 53.9224 42.6328 53.3335 42.6328Z" fill="#428DFF"/>
<path d="M58.6665 42.6328C58.0776 42.6328 57.6001 43.1104 57.6001 43.6997V50.0996C57.6001 50.6885 58.0776 51.166 58.6665 51.166C59.2559 51.166 59.7334 50.6885 59.7334 50.0996V43.6997C59.7334 43.1104 59.2559 42.6328 58.6665 42.6328Z" fill="#428DFF"/>
</svg>
