<svg width="64" height="64" viewBox="0 0 64 64" fill="none" xmlns="http://www.w3.org/2000/svg">
<g id="restore 1">
<g id="Page-1">
<g id="023---USB-Restore">
<path id="Shape" d="M53.5082 21.2355C52.5908 19.2809 51.1349 17.6285 49.3114 16.4722C47.7298 15.496 45.903 14.9902 44.0446 15.0138C41.558 15.0138 36.6898 16.4932 36.3226 20.9942C36.3131 21.1379 36.3646 21.279 36.4644 21.3828C36.5642 21.4866 36.7032 21.5436 36.8472 21.5397H39.3232C39.5397 21.534 39.7374 21.6619 39.821 21.8616C39.9046 22.0613 39.8569 22.2919 39.701 22.442L32.3672 29.7443C32.2687 29.8436 32.1346 29.8995 31.9947 29.8995C31.8549 29.8995 31.7208 29.8436 31.6223 29.7443L24.2885 22.442C24.134 22.2932 24.0858 22.0653 24.1666 21.8666C24.2475 21.6679 24.4412 21.5384 24.6557 21.5397H27.1842C27.4643 21.5404 27.6932 21.3162 27.6983 21.0361C27.9606 13.8912 33.6367 7.90039 40.6033 7.90039C43.847 7.90311 46.9653 9.15418 49.3114 11.3942C52.0063 13.9564 53.5247 17.517 53.5082 21.2355Z" fill="#C6D8FB"/>
<path id="Shape_2" d="M39.3233 21.5396H36.8473C36.7033 21.5434 36.5643 21.4865 36.4645 21.3826C36.3646 21.2788 36.3132 21.1377 36.3227 20.994C36.6269 17.2621 40.0221 15.6117 42.5915 15.1553C42.0314 15.0628 41.4648 15.0154 40.8971 15.0137C38.4105 15.0137 33.5423 16.493 33.1751 20.994C33.1656 21.1377 33.2171 21.2788 33.3169 21.3826C33.4168 21.4865 33.5557 21.5434 33.6997 21.5396H36.1758C36.3922 21.5339 36.5899 21.6617 36.6735 21.8614C36.7571 22.0611 36.7094 22.2917 36.5535 22.4419L30.4263 28.5481L31.6276 29.7442C31.7261 29.8435 31.8602 29.8993 32 29.8993C32.1399 29.8993 32.274 29.8435 32.3725 29.7442L39.7063 22.4419C39.8631 22.291 39.9105 22.0591 39.8255 21.8589C39.7405 21.6586 39.5407 21.5316 39.3233 21.5396Z" fill="#A4C3FD"/>
<path id="Shape_3" d="M49.3115 11.3942C46.9654 9.15418 43.8471 7.90311 40.6033 7.90039C40.0821 7.90377 39.5616 7.94127 39.0453 8.01265C41.7173 8.35439 44.2109 9.53888 46.164 11.3942C47.6928 12.8481 48.8553 14.6437 49.556 16.6338C51.2642 17.7833 52.6298 19.3733 53.5084 21.2355C53.5248 17.517 52.0064 13.9564 49.3115 11.3942Z" fill="#A4C3FD"/>
<path id="Shape_4" d="M33.2066 43.6145L29.0833 47.7377H13.6394L16.7869 43.541H33.1332L33.2066 43.6145Z" fill="#C6D8FB"/>
<path id="Shape_5" d="M33.1332 43.541H29.9856L30.0591 43.6145L25.9358 47.7377H29.0833L33.2066 43.6145L33.1332 43.541Z" fill="#A4C3FD"/>
<path id="Shape_6" d="M29.0833 47.7383L28.6846 48.137C27.6315 49.1841 26.8811 50.4964 26.5128 51.935H9.4426C8.28727 51.9264 7.35281 50.992 7.34424 49.8366C7.3477 48.6792 8.28514 47.7417 9.4426 47.7383H29.0833Z" fill="#E8EDFC"/>
<path id="Shape_7" d="M25.9357 47.7383L25.537 48.137C24.484 49.1841 23.7336 50.4964 23.3652 51.935H26.5128C26.8811 50.4964 27.6315 49.1841 28.6846 48.137L29.0833 47.7383H25.9357Z" fill="#CAD9FC"/>
<path id="Shape_8" d="M39.5856 37.2461L33.2066 43.6146L33.1331 43.5412H5.24592C2.92813 43.5412 1.04919 41.6622 1.04919 39.3445V37.2461H39.5856Z" fill="#E8EDFC"/>
<path id="Shape_9" d="M36.438 37.2461L30.1324 43.5412H33.1331L33.2065 43.6146L39.5856 37.2461H36.438Z" fill="#CAD9FC"/>
<path id="Shape_10" d="M24.2885 22.4424L31.6223 29.7447C31.7208 29.844 31.8549 29.8999 31.9948 29.8999C32.1346 29.8999 32.2687 29.844 32.3672 29.7447L39.701 22.4424C39.857 22.2922 39.9046 22.0617 39.821 21.862C39.7374 21.6622 39.5397 21.5344 39.3233 21.5401H36.8472C36.7032 21.544 36.5643 21.487 36.4645 21.3832C36.3646 21.2793 36.3131 21.1383 36.3226 20.9945C36.6898 16.4936 41.558 15.0142 44.0446 15.0142C45.9031 14.9906 47.7299 15.4964 49.3115 16.4726V29.0103L44.2649 34.0463C43.8557 33.6396 43.1948 33.6396 42.7856 34.0463L39.5856 37.2463H1.04919V5.77094C1.04919 3.45315 2.92813 1.57422 5.24592 1.57422H45.1148C47.4326 1.57422 49.3115 3.45315 49.3115 5.77094V11.3945C46.9653 9.15456 43.847 7.9035 40.6033 7.90078C33.6367 7.90078 27.9607 13.8916 27.6984 21.0365C27.6932 21.3166 27.4644 21.5407 27.1843 21.5401H24.6558C24.4412 21.5388 24.2475 21.6683 24.1667 21.867C24.0858 22.0656 24.1341 22.2935 24.2885 22.4424Z" fill="#E8EDFC"/>
<path id="Shape_11" d="M42.5967 15.1561C43.8618 15.3521 45.0748 15.7999 46.1639 16.4728V29.0105L41.1173 34.0466C40.7081 33.6398 40.0472 33.6398 39.638 34.0466L36.438 37.2466H39.5855L42.7855 34.0466C43.1947 33.6398 43.8557 33.6398 44.2649 34.0466L49.3114 29.0105V16.4728C47.7298 15.4967 45.903 14.9908 44.0445 15.0145C43.5588 15.02 43.0743 15.0674 42.5967 15.1561Z" fill="#CAD9FC"/>
<path id="Shape_12" d="M45.1147 1.57422H41.9672C44.2849 1.57422 46.1639 3.45315 46.1639 5.77094V9.21015C47.3161 9.77735 48.377 10.5136 49.3114 11.3945V5.77094C49.3114 3.45315 47.4325 1.57422 45.1147 1.57422Z" fill="#CAD9FC"/>
<path id="Shape_13" d="M54.6518 45.9135L40.5613 60.0145C37.8787 62.6951 33.7318 63.2439 30.4443 61.3534C27.1567 59.4628 25.5452 55.6027 26.5128 51.9358C26.8811 50.4972 27.6315 49.1849 28.6846 48.1378L29.0833 47.7391L33.2065 43.6158L39.5856 37.2473L42.7856 34.0473C43.1948 33.6405 43.8557 33.6405 44.2649 34.0473L54.6518 44.4342C55.0586 44.8434 55.0586 45.5043 54.6518 45.9135Z" fill="#E8EDFC"/>
<path id="Shape_14" d="M54.6518 44.4342L44.2649 34.0473C43.8557 33.6405 43.1948 33.6405 42.7856 34.0473L41.9462 34.8814L51.5043 44.4342C51.9111 44.8434 51.9111 45.5043 51.5043 45.9135L37.4138 60.0145C36.2239 61.2049 34.7029 62.0093 33.0492 62.3227C35.781 62.8445 38.5939 61.9802 40.5613 60.0145L54.6518 45.9135C55.0586 45.5043 55.0586 44.8434 54.6518 44.4342Z" fill="#CAD9FC"/>
<path id="Shape_15" d="M61.3351 37.7605L54.6518 44.4332L44.2649 34.0464L49.3115 29.0103L50.9482 27.3736C51.3377 26.976 51.8709 26.752 52.4275 26.752C52.9841 26.752 53.5173 26.976 53.9069 27.3736L61.3351 34.7913C61.7291 35.1849 61.9505 35.719 61.9505 36.2759C61.9505 36.8328 61.7291 37.3669 61.3351 37.7605Z" fill="#C6D8FB"/>
<path id="Shape_16" d="M61.3351 34.7913L53.9069 27.3736C53.5173 26.976 52.9841 26.752 52.4275 26.752C51.8709 26.752 51.3377 26.976 50.9482 27.3736L50.8538 27.468L58.1875 34.7913C58.5816 35.1849 58.8029 35.719 58.8029 36.2759C58.8029 36.8328 58.5816 37.3669 58.1875 37.7605L53.0791 42.8605L54.6528 44.4343L61.3361 37.7615C61.7303 37.3677 61.9517 36.8334 61.9515 36.2762C61.9513 35.719 61.7296 35.1848 61.3351 34.7913Z" fill="#A4C3FD"/>
<path id="Shape_17" d="M7.34424 49.8366C7.35281 50.992 8.28727 51.9264 9.4426 51.935H12.5901C11.4348 51.9264 10.5003 50.992 10.4918 49.8366C10.4952 48.6792 11.4327 47.7417 12.5901 47.7383H9.4426C8.28514 47.7417 7.3477 48.6792 7.34424 49.8366Z" fill="white"/>
<path id="Shape_18" d="M5.24592 43.5414H8.39346C6.07567 43.5414 4.19674 41.6625 4.19674 39.3447V5.77094C4.19674 3.45315 6.07567 1.57422 8.39346 1.57422H5.24592C2.92813 1.57422 1.04919 3.45315 1.04919 5.77094V39.3447C1.04919 41.6625 2.92813 43.5414 5.24592 43.5414Z" fill="white"/>
<path id="Rectangle-path" d="M0 5.77148H2.09836V14.1649H0V5.77148Z" fill="white"/>
<g id="Group">
<path id="Oval" d="M1.04918 11.0163C1.62863 11.0163 2.09836 10.5466 2.09836 9.96715C2.09836 9.3877 1.62863 8.91797 1.04918 8.91797C0.469734 8.91797 0 9.3877 0 9.96715C0 10.5466 0.469734 11.0163 1.04918 11.0163Z" fill="#428DFF"/>
<path id="Shape_19" d="M33.8811 53.3345L32.3976 54.8191C32.1249 55.0825 32.0155 55.4726 32.1115 55.8394C32.2075 56.2062 32.494 56.4927 32.8608 56.5887C33.2276 56.6847 33.6177 56.5753 33.8811 56.3026L35.3647 54.8191C35.6299 54.554 35.7335 54.1677 35.6366 53.8055C35.5397 53.4433 35.257 53.1604 34.8949 53.0632C34.5328 52.9661 34.1463 53.0695 33.8811 53.3345Z" fill="#428DFF"/>
<path id="Shape_20" d="M62.0727 34.0467L54.6539 26.6279C53.4804 25.4604 51.6022 25.404 50.3607 26.4989V18.6028C51.2679 19.4705 52.0064 20.499 52.5387 21.6359C52.7303 22.0988 53.2223 22.3617 53.7135 22.2636C54.2048 22.1656 54.5582 21.734 54.5574 21.2331C54.5679 17.3931 53.0592 13.7049 50.3607 10.9731V5.77129C50.3572 2.8755 48.0105 0.528859 45.1147 0.525391H5.2459C2.35011 0.528859 0.00346872 2.8755 0 5.77129C0 6.14613 0.199973 6.49249 0.52459 6.67991C0.849208 6.86733 1.24915 6.86733 1.57377 6.67991C1.89839 6.49249 2.09836 6.14613 2.09836 5.77129C2.09836 4.03295 3.50756 2.62375 5.2459 2.62375H45.1147C46.8531 2.62375 48.2623 4.03295 48.2623 5.77129V9.23359C46.0063 7.68961 43.337 6.86213 40.6033 6.85929C33.3555 6.85929 27.2094 12.933 26.6828 20.4986H24.6557C24.0185 20.4979 23.4438 20.8815 23.2 21.4703C22.9561 22.059 23.0914 22.7366 23.5426 23.1866L30.8774 30.4973C31.4941 31.1085 32.4881 31.1085 33.1048 30.4973L40.4386 23.1856C40.889 22.7355 41.0237 22.0583 40.78 21.4701C40.5363 20.8818 39.9621 20.4983 39.3254 20.4986H37.4473C38.1283 17.1664 42.1057 16.0669 44.0425 16.0669C45.5114 16.0528 46.961 16.4021 48.2623 17.0836V28.5679L44.0656 32.7646C43.3449 32.57 42.5752 32.7743 42.0459 33.3007L39.1491 36.1975H2.09836V14.1647C2.09836 13.5853 1.62863 13.1156 1.04918 13.1156C0.469734 13.1156 0 13.5853 0 14.1647V39.3451C0.00346872 42.2409 2.35011 44.5875 5.2459 44.591H14.6885L13.1148 46.6893H9.44262C7.70428 46.6893 6.29508 48.0985 6.29508 49.8369C6.30369 51.5716 7.70786 52.9758 9.44262 52.9844H25.2485C25.2052 53.3472 25.1824 53.7122 25.1803 54.0776C25.1803 57.8969 27.4809 61.34 31.0094 62.8016C34.5379 64.2631 38.5994 63.4552 41.2999 60.7546L55.3967 46.6589C55.9229 46.1295 56.1269 45.3597 55.9318 44.6392L62.0748 38.4973C63.3035 37.2682 63.3035 35.2758 62.0748 34.0467H62.0727ZM35.2734 20.9089C35.2393 21.3391 35.3865 21.7639 35.6795 22.0808C35.9809 22.4058 36.4039 22.5909 36.8472 22.5917H38.0601L31.9937 28.6434L25.9273 22.5959H27.1864C28.0333 22.5934 28.7249 21.9181 28.7475 21.0715C28.9909 14.3893 34.3082 8.95241 40.6033 8.95241C45.6451 9.00846 50.1052 12.2335 51.7382 17.0038C49.6752 15.0162 46.9112 13.9228 44.0467 13.9612C40.8708 13.9633 35.6858 15.8487 35.2734 20.9089ZM2.09836 39.3451V38.2959H37.0508L32.854 42.4926H5.2459C3.50756 42.4926 2.09836 41.0834 2.09836 39.3451ZM17.3115 44.591H30.7557L28.6573 46.6893H15.7377L17.3115 44.591ZM9.44262 50.886C9.15993 50.887 8.88949 50.7707 8.69561 50.565C8.49983 50.3736 8.39069 50.1106 8.39344 49.8369C8.39344 49.2574 8.86318 48.7877 9.44262 48.7877H26.8013C26.3613 49.4396 26.0055 50.1447 25.7427 50.886H9.44262ZM39.8164 59.2711C36.9461 62.1344 32.2998 62.1344 29.4295 59.2711C28.052 57.8938 27.2782 56.0256 27.2782 54.0776C27.2782 52.1297 28.052 50.2615 29.4295 48.8842L43.5252 34.7885L53.9121 45.1754L39.8164 59.2711ZM60.5902 37.0138L54.6549 42.949L45.7506 34.0467L50.0281 29.7692L50.0711 29.7272L51.6858 28.1115C51.8826 27.9145 52.1496 27.8038 52.4281 27.8038C52.7065 27.8038 52.9736 27.9145 53.1704 28.1115L60.5891 35.5302C60.9987 35.9399 60.9997 36.6041 60.5902 37.0138Z" fill="#428DFF"/>
<path id="Shape_21" d="M53.9122 31.8209C53.5025 31.4113 52.8383 31.4113 52.4286 31.8209L50.9451 33.3044C50.6723 33.5678 50.563 33.9579 50.659 34.3247C50.755 34.6916 51.0415 34.978 51.4083 35.074C51.7751 35.1701 52.1652 35.0607 52.4286 34.7879L53.9122 33.3044C54.3217 32.8947 54.3217 32.2306 53.9122 31.8209Z" fill="#428DFF"/>
<path id="Shape_22" d="M55.3968 34.7887L53.9132 36.2722C53.6405 36.5356 53.5311 36.9257 53.6271 37.2925C53.7231 37.6594 54.0096 37.9458 54.3764 38.0418C54.7433 38.1379 55.1333 38.0285 55.3968 37.7557L56.8803 36.2722C57.2779 35.8605 57.2722 35.2061 56.8675 34.8014C56.4628 34.3967 55.8084 34.391 55.3968 34.7887Z" fill="#428DFF"/>
</g>
</g>
</g>
</g>
</svg>
