<svg width="65" height="64" viewBox="0 0 65 64" fill="none" xmlns="http://www.w3.org/2000/svg">
<g id="fi_2954014" clip-path="url(#clip0_21015_62661)">
<g id="Page-1">
<g id="004---Unpacking-Export">
<path id="Shape" d="M40.4293 10.6651H38.7333C38.1442 10.6651 37.6666 11.1427 37.6666 11.7318V25.5985C37.6666 26.1876 37.189 26.6651 36.5999 26.6651H28.0666C27.4775 26.6651 26.9999 26.1876 26.9999 25.5985V11.7318C26.9999 11.1427 26.5224 10.6651 25.9333 10.6651H24.2373C23.8059 10.6633 23.418 10.4018 23.2546 10.0026C23.0912 9.60334 23.1843 9.14495 23.4906 8.84115L31.5759 1.37448C31.9952 0.958506 32.6714 0.958506 33.0906 1.37448L41.1759 8.84115C41.4823 9.14495 41.5754 9.60334 41.412 10.0026C41.2485 10.4018 40.8607 10.6633 40.4293 10.6651Z" fill="#E8EDFC"/>
<path id="Shape_2" d="M41.1758 8.84115L33.0905 1.37448C32.6713 0.958506 31.995 0.958506 31.5758 1.37448L30.7332 2.15315L37.9758 8.84115C38.2821 9.14495 38.3753 9.60334 38.2118 10.0026C38.0484 10.4018 37.6606 10.6633 37.2292 10.6651H35.5332C34.9441 10.6651 34.4665 11.1427 34.4665 11.7318V25.5985C34.4665 26.1876 33.9889 26.6651 33.3998 26.6651H36.5998C37.1889 26.6651 37.6665 26.1876 37.6665 25.5985V11.7318C37.6665 11.1427 38.1441 10.6651 38.7332 10.6651H40.4292C40.8606 10.6633 41.2484 10.4018 41.4118 10.0026C41.5753 9.60334 41.4821 9.14495 41.1758 8.84115Z" fill="#CAD9FC"/>
<path id="Shape_3" d="M32.3333 34.1328V62.9328C32.1746 62.9304 32.0182 62.894 31.8747 62.8261L12.6747 53.6208C12.303 53.4458 12.066 53.0716 12.0667 52.6608V39.2421L23.0427 44.4368C23.4869 44.6469 24.0173 44.5231 24.3227 44.1381L32.3333 34.1328Z" fill="#CAD9FC"/>
<path id="Shape_4" d="M52.5999 39.2421V52.6608C52.6006 53.0716 52.3636 53.4458 51.9919 53.6208L32.7919 62.8261C32.6484 62.894 32.492 62.9304 32.3333 62.9328V34.1328L40.3439 44.1381C40.6493 44.5231 41.1797 44.6469 41.6239 44.4368L52.5999 39.2421Z" fill="#E8EDFC"/>
<path id="Shape_5" d="M49.3999 40.7569V52.6609C49.4006 53.0717 49.1636 53.4458 48.7919 53.6209L32.3333 61.5121V62.9329C32.492 62.9304 32.6484 62.8941 32.7919 62.8262L51.9919 53.6209C52.3636 53.4458 52.6006 53.0717 52.5999 52.6609V39.2422L49.3999 40.7569Z" fill="#CAD9FC"/>
<path id="Shape_6" d="M52.6 24.5329L32.3333 34.1329L12.0667 24.5329L27 17.4609V25.5996C27 26.1887 27.4775 26.6663 28.0667 26.6663H36.6C37.1891 26.6663 37.6667 26.1887 37.6667 25.5996V17.4609L52.6 24.5329Z" fill="#A4C2F7"/>
<path id="Shape_7" d="M59.9173 35.7759L52.5999 39.2425L41.6239 44.4372C41.1797 44.6473 40.6493 44.5235 40.3439 44.1385L32.3333 34.1332L52.5999 24.5332L60.2906 34.1439C60.4952 34.3982 60.572 34.7321 60.4993 35.0503C60.4265 35.3685 60.212 35.6358 59.9173 35.7759Z" fill="#E8EDFC"/>
<path id="Shape_8" d="M60.2905 34.1439L52.5999 24.5332L50.2799 25.6319L57.0905 34.1439C57.2951 34.3982 57.372 34.7321 57.2992 35.0503C57.2264 35.3685 57.012 35.6358 56.7172 35.7759L49.3999 39.2425L39.9897 43.6959L40.3439 44.1385C40.6493 44.5235 41.1797 44.6473 41.6239 44.4372L52.5999 39.2425L59.9172 35.7759C60.212 35.6358 60.4264 35.3685 60.4992 35.0503C60.572 34.7321 60.4951 34.3982 60.2905 34.1439Z" fill="#CAD9FC"/>
<path id="Shape_9" d="M32.3333 34.1332L24.3226 44.1385C24.0172 44.5235 23.4868 44.6473 23.0426 44.4372L12.0666 39.2425L4.74925 35.7759C4.45447 35.6358 4.24003 35.3685 4.16725 35.0503C4.09447 34.7321 4.17135 34.3982 4.37592 34.1439L12.0666 24.5332L32.3333 34.1332Z" fill="#E8EDFC"/>
<path id="Shape_10" d="M4.74925 35.7745L12.0666 39.2412V52.6598C12.0659 53.0707 12.3029 53.4448 12.6746 53.6198L31.8746 62.8252C32.1639 62.967 32.5026 62.967 32.7919 62.8252L33.9333 62.278L15.8746 53.6198C15.5029 53.4448 15.2659 53.0707 15.2666 52.6598V39.2412L7.94925 35.7745C7.65447 35.6344 7.44003 35.3671 7.36725 35.0489C7.29447 34.7308 7.37135 34.3968 7.57592 34.1425L15.2666 24.5318L30.1999 17.4598V11.7318C30.1999 11.1427 29.7224 10.6651 29.1333 10.6651H27.4373C27.0058 10.6633 26.618 10.4018 26.4546 10.0026C26.2911 9.60334 26.3843 9.14495 26.6906 8.84115L33.9333 2.15315L33.0906 1.37448C32.6714 0.958506 31.9951 0.958506 31.5759 1.37448L23.4906 8.84115C23.1843 9.14495 23.0911 9.60334 23.2546 10.0026C23.418 10.4018 23.8058 10.6633 24.2373 10.6651H25.9333C26.5224 10.6651 26.9999 11.1427 26.9999 11.7318V17.4598L12.0666 24.5318L4.37592 34.1425C4.17135 34.3968 4.09447 34.7308 4.16725 35.0489C4.24003 35.3671 4.45447 35.6344 4.74925 35.7745Z" fill="white"/>
<path id="Rectangle-path" d="M3.54736 33.4883L8.8807 26.8237L10.5468 28.1571L5.2135 34.8216L3.54736 33.4883Z" fill="white"/>
<g id="Group">
<path id="Shape_11" d="M24.2416 11.7327H25.9333V25.5994C25.9333 26.7776 26.8884 27.7327 28.0666 27.7327H36.6C37.7782 27.7327 38.7333 26.7776 38.7333 25.5994V11.7327H40.425C41.2954 11.7323 42.0783 11.2032 42.4032 10.3957C42.7282 9.58826 42.5299 8.66437 41.9024 8.06124L33.8416 0.624445C33.0221 -0.201579 31.6907 -0.214893 30.8549 0.594578L22.7333 8.09111C22.1234 8.70123 21.9409 9.61866 22.2711 10.4157C22.6012 11.2128 23.3789 11.7325 24.2416 11.7327ZM32.3642 2.16258L40.425 9.59938H38.7333C37.5551 9.59938 36.6 10.5545 36.6 11.7327V25.5994H28.0666V11.7327C28.0666 10.5545 27.1115 9.59938 25.9333 9.59938L24.2106 9.62924L32.3642 2.16258Z" fill="#428DFF"/>
<path id="Shape_12" d="M7.06278 31.8814C6.47368 31.8846 5.99349 31.4097 5.99025 30.8206C5.98701 30.2315 6.46195 29.7513 7.05105 29.748H7.06278C7.65189 29.748 8.12945 30.2256 8.12945 30.8147C8.12945 31.4038 7.65189 31.8814 7.06278 31.8814Z" fill="#428DFF"/>
<path id="Shape_13" d="M1.39992 52.2661H2.46659C3.05569 52.2661 3.53325 51.7886 3.53325 51.1995C3.53325 50.6104 3.05569 50.1328 2.46659 50.1328H1.39992C0.810815 50.1328 0.333252 50.6104 0.333252 51.1995C0.333252 51.7886 0.810815 52.2661 1.39992 52.2661Z" fill="#428DFF"/>
<path id="Shape_14" d="M63.2665 49.0662H53.6665V39.9163L60.3705 36.7408C60.96 36.4617 61.3895 35.9282 61.5363 35.2927C61.683 34.6571 61.531 33.9894 61.1235 33.48L53.4329 23.8662C53.3313 23.7399 53.2026 23.6382 53.0563 23.5686L45.5897 20.0326C45.2452 19.8694 44.8398 19.9025 44.5263 20.1193C44.2128 20.3361 44.0388 20.7037 44.0698 21.0836C44.1008 21.4635 44.3321 21.798 44.6766 21.9611L50.107 24.5328L32.3331 32.9531L14.5582 24.5328L19.9897 21.9611C20.5222 21.7089 20.7495 21.0728 20.4974 20.5403C20.2453 20.0077 19.6092 19.7804 19.0766 20.0326L11.6099 23.5686C11.465 23.6399 11.3387 23.744 11.2409 23.8726L11.2334 23.8662L8.87287 26.8166C8.50468 27.2766 8.57918 27.9481 9.03927 28.3163C9.49936 28.6845 10.1708 28.61 10.539 28.1499L12.3726 25.8576L30.6574 34.52L23.4937 43.48L5.20887 34.8123C5.44686 34.5145 5.50789 34.1123 5.36896 33.7573C5.23004 33.4023 4.91227 33.1484 4.53536 33.0912C4.15845 33.034 3.77966 33.1822 3.54167 33.48C3.13422 33.9894 2.98217 34.6571 3.12895 35.2927C3.27573 35.9282 3.70519 36.4617 4.29474 36.7408L10.9998 39.9163V50.1328H6.73314C6.14404 50.1328 5.66647 50.6104 5.66647 51.1995C5.66647 51.7886 6.14404 52.2662 6.73314 52.2662H10.9998V52.6576C11.0018 53.4796 11.4738 54.2281 12.2147 54.584L31.4201 63.7947C31.9997 64.0692 32.6719 64.0692 33.2515 63.7947L52.4515 54.5883C53.1937 54.2314 53.6659 53.4811 53.6665 52.6576V51.1995H63.2665C63.8556 51.1995 64.3331 50.7219 64.3331 50.1328C64.3331 49.5437 63.8556 49.0662 63.2665 49.0662ZM59.4574 34.8123L41.1726 43.4747L34.0089 34.5147L52.2937 25.8523L59.4574 34.8123ZM13.1331 40.9275L22.5806 45.4075C23.474 45.8342 24.5437 45.5874 25.1598 44.8123L31.2665 37.1739V61.3542L13.1331 52.6576V40.9275ZM33.3998 61.3584V37.1739L40.0334 45.4662C40.3423 45.8523 40.8761 45.9755 41.323 45.7638L51.5331 40.9275V52.6608L33.3998 61.3584Z" fill="#428DFF"/>
</g>
</g>
</g>
</g>
<defs>
<clipPath id="clip0_21015_62661">
<rect width="64" height="64" fill="white" transform="translate(0.333252)"/>
</clipPath>
</defs>
</svg>
