<svg width="65" height="64" viewBox="0 0 65 64" fill="none" xmlns="http://www.w3.org/2000/svg">
<g id="gramophone 1" clip-path="url(#clip0_21015_63547)">
<g id="Page-1">
<g id="002---Gramophone">
<path id="Rectangle-path" d="M52.5999 58.666H5.66652C5.07742 58.666 4.59985 59.1436 4.59985 59.7327V61.866C4.59985 62.4551 5.07742 62.9327 5.66652 62.9327H52.5999C53.189 62.9327 53.6665 62.4551 53.6665 61.866V59.7327C53.6665 59.1436 53.189 58.666 52.5999 58.666Z" fill="#E7ECFB"/>
<path id="Shape" d="M52.5999 58.666H49.3999C49.989 58.666 50.4666 59.1436 50.4666 59.7327V61.866C50.4666 62.4551 49.989 62.9327 49.3999 62.9327H52.5999C53.189 62.9327 53.6666 62.4551 53.6666 61.866V59.7327C53.6666 59.1436 53.189 58.666 52.5999 58.666Z" fill="#C9D8FB"/>
<path id="Shape_2" d="M51.5332 56.5337V58.6671H6.73315V56.5337C6.73667 55.357 7.68974 54.4039 8.86649 54.4004H49.3998C50.5766 54.4039 51.5296 55.357 51.5332 56.5337Z" fill="#A3C1F6"/>
<path id="Shape_3" d="M51.5332 39.4673C51.5244 40.6419 50.5744 41.5919 49.3998 41.6007H8.86649C7.68974 41.5971 6.73667 40.6441 6.73315 39.4673C6.74187 38.2927 7.69191 37.3427 8.86649 37.334H49.3998C50.5766 37.3375 51.5296 38.2906 51.5332 39.4673Z" fill="#E7ECFB"/>
<path id="Rectangle-path_2" d="M9.93311 41.5996H48.3331V54.3996H9.93311V41.5996Z" fill="#E7ECFB"/>
<path id="Rectangle-path_3" d="M45.1333 41.5996H48.3333V54.3996H45.1333V41.5996Z" fill="#C9D8FB"/>
<path id="Shape_4" d="M44.0666 35.1997C44.0579 36.3743 43.1079 37.3244 41.9333 37.3331H16.3333C15.1565 37.3296 14.2035 36.3765 14.2 35.1997C14.2087 34.0252 15.1587 33.0751 16.3333 33.0664H41.9333C43.11 33.0699 44.0631 34.023 44.0666 35.1997Z" fill="#A3C1F6"/>
<path id="Shape_5" d="M41.9332 33.0664H38.7332C39.9099 33.0699 40.863 34.023 40.8665 35.1997C40.8578 36.3743 39.9077 37.3244 38.7332 37.3331H41.9332C43.1077 37.3244 44.0578 36.3743 44.0665 35.1997C44.063 34.023 43.1099 33.0699 41.9332 33.0664Z" fill="#7FABF9"/>
<path id="Oval" d="M29.1331 50.1339C30.3113 50.1339 31.2664 49.1787 31.2664 48.0005C31.2664 46.8223 30.3113 45.8672 29.1331 45.8672C27.9549 45.8672 26.9998 46.8223 26.9998 48.0005C26.9998 49.1787 27.9549 50.1339 29.1331 50.1339Z" fill="#E7ECFB"/>
<path id="Shape_6" d="M41.9332 25.6004C41.9268 27.365 40.4978 28.794 38.7332 28.8004C36.9659 28.8004 35.5332 27.3677 35.5332 25.6004C35.5332 23.8331 36.9659 22.4004 38.7332 22.4004C40.4978 22.4068 41.9268 23.8358 41.9332 25.6004Z" fill="#A3C1F6"/>
<path id="Shape_7" d="M51.5332 13.8664V23.4664C51.5332 25.8228 49.6229 27.7331 47.2665 27.7331H41.1119C42.2072 26.5217 42.2072 24.6777 41.1119 23.4664H44.8772C45.4842 23.4671 46.0628 23.2091 46.468 22.757C46.8732 22.305 47.0666 21.7018 46.9999 21.0984L46.6479 17.8984C46.5281 16.8167 45.6135 15.9986 44.5252 15.9997H37.6665C32.0706 16.0066 27.0251 19.3703 24.8665 24.5331C22.5092 24.5331 20.5999 19.2851 20.5999 12.7997C20.5999 6.31441 22.5092 1.06641 24.8665 1.06641C27.0251 6.22921 32.0706 9.59287 37.6665 9.59974H47.2665C49.6229 9.59974 51.5332 11.51 51.5332 13.8664Z" fill="#E7ECFB"/>
<path id="Shape_8" d="M47.2667 9.59961H44.0667C46.4231 9.59961 48.3333 11.5099 48.3333 13.8663V23.4663C48.3333 25.8227 46.4231 27.7329 44.0667 27.7329H47.2667C49.6231 27.7329 51.5333 25.8227 51.5333 23.4663V13.8663C51.5333 11.5099 49.6231 9.59961 47.2667 9.59961Z" fill="#C9D8FB"/>
<path id="Shape_9" d="M60.0666 18.1331V43.7331C60.0666 47.2677 57.2012 50.1331 53.6666 50.1331H48.3333V45.8664H52.5999C54.3672 45.8664 55.7999 44.4337 55.7999 42.6664V18.1331C55.7999 17.544 56.2775 17.0664 56.8666 17.0664H58.9999C59.589 17.0664 60.0666 17.544 60.0666 18.1331Z" fill="#A3C1F6"/>
<g id="Group">
<path id="Shape_10" d="M24.8665 24.5331C25.1267 23.9063 25.4385 23.3023 25.7988 22.7272C24.5988 20.6515 23.7999 16.9885 23.7999 12.7997C23.7999 8.61094 24.5988 4.94801 25.7988 2.87227C25.4385 2.29721 25.1267 1.69317 24.8665 1.06641C22.5092 1.06641 20.5999 6.31441 20.5999 12.7997C20.5999 19.2851 22.5092 24.5331 24.8665 24.5331Z" fill="white"/>
<path id="Shape_11" d="M16.3333 37.3331H19.5333C18.3551 37.3331 17.4 36.3779 17.4 35.1997C17.4 34.0215 18.3551 33.0664 19.5333 33.0664H16.3333C15.1551 33.0664 14.2 34.0215 14.2 35.1997C14.2 36.3779 15.1551 37.3331 16.3333 37.3331Z" fill="white"/>
<path id="Shape_12" d="M5.66652 62.934H8.86652C8.27742 62.934 7.79985 62.4564 7.79985 61.8673V59.734C7.79985 59.1449 8.27742 58.6673 8.86652 58.6673H9.93319V56.534C9.9367 55.3572 10.8898 54.4042 12.0665 54.4007H13.1332V41.6007H12.0665C10.8883 41.6007 9.93319 40.6455 9.93319 39.4673C9.93319 38.2891 10.8883 37.334 12.0665 37.334H8.86652C7.68831 37.334 6.73319 38.2891 6.73319 39.4673C6.73319 40.6455 7.68831 41.6007 8.86652 41.6007H9.93319V54.4007H8.86652C7.68977 54.4042 6.7367 55.3572 6.73319 56.534V58.6673H5.66652C5.07742 58.6673 4.59985 59.1449 4.59985 59.734V61.8673C4.59985 62.4564 5.07742 62.934 5.66652 62.934Z" fill="white"/>
<path id="Rectangle-path_4" d="M8.86646 45.8672H10.9998V54.4005H8.86646V45.8672Z" fill="white"/>
</g>
<path id="Shape_13" d="M9.95458 51.1997C9.36548 51.2027 8.88553 50.7275 8.88258 50.1384C8.87964 49.5493 9.35481 49.0694 9.94392 49.0664H9.95458C10.5437 49.0664 11.0212 49.544 11.0212 50.1331C11.0212 50.7222 10.5437 51.1997 9.95458 51.1997Z" fill="#428DFF"/>
<path id="Shape_14" d="M5.66654 64H52.5999C53.7781 64 54.7332 63.0449 54.7332 61.8667V59.7333C54.7332 58.5551 53.7781 57.6 52.5999 57.6V56.5333C52.5999 54.766 51.1672 53.3333 49.3999 53.3333V51.2H53.6665C57.7883 51.1953 61.1285 47.8551 61.1332 43.7333V18.1333C61.1332 16.9551 60.1781 16 58.9999 16H56.8665C55.6883 16 54.7332 16.9551 54.7332 18.1333H52.5999V13.8667C52.5963 10.9226 50.2106 8.53686 47.2665 8.53333H37.6665C32.5065 8.55586 27.8444 5.45804 25.866 0.692267C25.7098 0.275646 25.3115 -0.000277636 24.8665 2.09642e-07C21.3647 2.09642e-07 19.5332 6.43947 19.5332 12.8C19.5332 19.1605 21.3647 25.6 24.8665 25.6C25.3103 25.6003 25.7079 25.3259 25.8649 24.9109C27.8425 20.1435 32.5053 17.0442 37.6665 17.0667H44.5252C45.071 17.0633 45.5313 17.4725 45.5919 18.0149L45.9439 21.2149C45.9777 21.5177 45.8804 21.8205 45.6766 22.047C45.4728 22.2734 45.1819 22.4019 44.8772 22.4H41.5257C39.9595 21.0102 37.6135 20.9711 36.0019 22.3079C34.3902 23.6447 33.995 25.9575 35.0713 27.7536L34.7791 28.0459C34.5018 28.3137 34.3906 28.7103 34.4882 29.0832C34.5858 29.4561 34.8771 29.7474 35.25 29.845C35.6229 29.9426 36.0195 29.8314 36.2873 29.5541L36.5796 29.2619C38.1499 30.2151 40.1591 30.0275 41.5257 28.8H47.2665C50.2106 28.7965 52.5963 26.4107 52.5999 23.4667V20.2667H54.7332V42.6667C54.7332 43.8449 53.7781 44.8 52.5999 44.8H49.3999V42.6667C51.1672 42.6667 52.5999 41.234 52.5999 39.4667C52.5999 37.6994 51.1672 36.2667 49.3999 36.2667H44.9369C45.0633 35.9251 45.1297 35.5642 45.1332 35.2C45.1332 33.4327 43.7005 32 41.9332 32H30.1999V30.9333C30.1999 30.3442 29.7223 29.8667 29.1332 29.8667C28.5441 29.8667 28.0665 30.3442 28.0665 30.9333V32H16.3332C14.5659 32 13.1332 33.4327 13.1332 35.2C13.1367 35.5642 13.2031 35.9251 13.3295 36.2667H8.86654C7.09923 36.2667 5.66654 37.6994 5.66654 39.4667C5.66654 41.234 7.09923 42.6667 8.86654 42.6667V45.8667C8.86654 46.4558 9.3441 46.9333 9.9332 46.9333C10.5223 46.9333 10.9999 46.4558 10.9999 45.8667V42.6667H47.2665V53.3333H8.86654C7.09923 53.3333 5.66654 54.766 5.66654 56.5333V57.6C4.48833 57.6 3.5332 58.5551 3.5332 59.7333V61.8667C3.5332 62.4325 3.75796 62.9751 4.15804 63.3752C4.55812 63.7752 5.10074 64 5.66654 64ZM44.5252 14.9333H37.6665C31.9977 14.9302 26.818 18.1439 24.3033 23.2245C23.5269 22.3946 22.976 21.3796 22.7033 20.2763C24.2574 18.3835 26.2399 16.888 28.4868 15.9136C29.0195 15.6762 29.2627 15.055 29.0329 14.519C28.8031 13.983 28.1855 13.7309 27.6463 13.9531C25.5652 14.8454 23.6788 16.1361 22.0932 17.7525C21.8643 16.4687 21.7281 15.1701 21.6857 13.8667H23.7999C24.389 13.8667 24.8665 13.3891 24.8665 12.8C24.8665 12.2109 24.389 11.7333 23.7999 11.7333H21.6857C21.7281 10.4299 21.8643 9.1313 22.0932 7.84747C23.6804 9.46445 25.5687 10.7552 27.6516 11.6469C28.003 11.8035 28.4115 11.7588 28.7206 11.5299C29.0298 11.3009 29.1917 10.9232 29.1444 10.5414C29.0971 10.1597 28.8478 9.83294 28.4921 9.6864C26.2453 8.71199 24.2628 7.21652 22.7087 5.32373C22.9814 4.22043 23.5322 3.2054 24.3087 2.37547C26.8225 7.45435 31.9996 10.6678 37.6665 10.6667H47.2665C49.0339 10.6667 50.4665 12.0994 50.4665 13.8667V18.1333H47.7465L47.7081 17.7824C47.5319 16.1585 46.1587 14.9293 44.5252 14.9333ZM38.7332 27.7333C38.1682 27.7336 37.6263 27.5091 37.2271 27.1093C36.5068 26.3899 36.3953 25.2618 36.9606 24.4152C37.526 23.5686 38.6108 23.2395 39.5513 23.6291C40.4918 24.0188 41.0259 25.0187 40.8269 26.017C40.6279 27.0154 39.7512 27.7341 38.7332 27.7333ZM50.4665 23.4667C50.4665 25.234 49.0339 26.6667 47.2665 26.6667H42.8484C43.0504 25.9699 43.0504 25.2301 42.8484 24.5333H44.8751C45.7855 24.534 46.653 24.1469 47.2606 23.4689C47.8681 22.7909 48.1581 21.8862 48.058 20.9813L47.9812 20.2667H50.4665V23.4667ZM15.2665 35.2C15.2665 34.6109 15.7441 34.1333 16.3332 34.1333H41.9332C42.5223 34.1333 42.9999 34.6109 42.9999 35.2C42.9999 35.7891 42.5223 36.2667 41.9332 36.2667H16.3332C15.7441 36.2667 15.2665 35.7891 15.2665 35.2ZM9.9332 40.5333H8.86654C8.27743 40.5333 7.79987 40.0558 7.79987 39.4667C7.79987 38.8776 8.27743 38.4 8.86654 38.4H49.3999C49.989 38.4 50.4665 38.8776 50.4665 39.4667C50.4665 40.0558 49.989 40.5333 49.3999 40.5333H9.9332ZM52.5999 46.9333C54.9563 46.9333 56.8665 45.0231 56.8665 42.6667V18.1333H58.9999V43.7333C58.9963 46.6774 56.6106 49.0631 53.6665 49.0667H49.3999V46.9333H52.5999ZM7.79987 56.5333C7.79987 55.9442 8.27743 55.4667 8.86654 55.4667H49.3999C49.989 55.4667 50.4665 55.9442 50.4665 56.5333V57.6H7.79987V56.5333ZM5.66654 59.7333H52.5999V61.8667H5.66654V59.7333Z" fill="#428DFF"/>
<path id="Shape_15" d="M32.1369 49.0658H40.6148C41.0191 49.0645 41.389 49.2933 41.5684 49.6557L42.0452 50.6093C42.3085 51.1365 42.9494 51.3505 43.4766 51.0871C44.0039 50.8238 44.2178 50.1829 43.9545 49.6557L43.4766 48.701C42.9378 47.6141 41.8279 46.9282 40.6148 46.9325H32.1369C31.6174 45.4631 30.1149 44.5817 28.5788 44.8452C27.0427 45.1088 25.9199 46.4406 25.9199 47.9991C25.9199 49.5576 27.0427 50.8895 28.5788 51.153C30.1149 51.4166 31.6174 50.5352 32.1369 49.0658ZM28.0665 47.9991C28.0665 47.41 28.5441 46.9325 29.1332 46.9325C29.7223 46.9325 30.1998 47.41 30.1998 47.9991C30.1998 48.5882 29.7223 49.0658 29.1332 49.0658C28.5441 49.0658 28.0665 48.5882 28.0665 47.9991Z" fill="#428DFF"/>
</g>
</g>
</g>
<defs>
<clipPath id="clip0_21015_63547">
<rect width="64" height="64" fill="white" transform="translate(0.333252)"/>
</clipPath>
</defs>
</svg>
