<svg width="65" height="64" viewBox="0 0 65 64" fill="none" xmlns="http://www.w3.org/2000/svg">
<g clip-path="url(#clip0_19187_88559)">
<path d="M54.7337 39.4668H9.93372C7.67054 39.4668 5.50006 40.3658 3.89975 41.9662C2.29944 43.5665 1.40039 45.7369 1.40039 48.0001V54.4001C1.40039 56.6633 2.29944 58.8338 3.89975 60.4341C5.50006 62.0344 7.67054 62.9335 9.93372 62.9335H54.7337C56.9969 62.9335 59.1674 62.0344 60.7677 60.4341C62.368 58.8338 63.2671 56.6633 63.2671 54.4001V48.0001C63.2671 45.7369 62.368 43.5665 60.7677 41.9662C59.1674 40.3658 56.9969 39.4668 54.7337 39.4668ZM36.6004 54.5815L36.4404 53.6108C36.4255 53.5189 36.4323 53.4248 36.46 53.3359C36.4878 53.2471 36.5359 53.1659 36.6004 53.0988C36.6649 53.1659 36.713 53.2471 36.7407 53.3359C36.7685 53.4248 36.7752 53.5189 36.7604 53.6108L36.6004 54.5815ZM27.9071 53.6108C27.8922 53.5189 27.8989 53.4248 27.9267 53.3359C27.9545 53.2471 28.0025 53.1659 28.0671 53.0988C28.1316 53.1659 28.1796 53.2471 28.2074 53.3359C28.2352 53.4248 28.2419 53.5189 28.2271 53.6108L28.0671 54.5815L27.9071 53.6108ZM18.9791 57.9628L19.0004 57.8348L19.0217 57.9628C19.0421 58.0589 19.0347 58.1588 19.0004 58.2508C18.9661 58.1588 18.9587 58.0589 18.9791 57.9628ZM45.6457 57.9628L45.6671 57.8348L45.6884 57.9628C45.7088 58.0589 45.7014 58.1588 45.6671 58.2508C45.6328 58.1588 45.6254 58.0589 45.6457 57.9628Z" fill="#A4C2F7"/>
<path d="M24.8669 53.0996C24.8024 53.1667 24.7543 53.2479 24.7266 53.3368C24.6988 53.4256 24.6921 53.5197 24.7069 53.6116L24.8669 54.5823L25.0269 53.6116C25.0417 53.5197 25.035 53.4256 25.0072 53.3368C24.9795 53.2479 24.9314 53.1667 24.8669 53.0996Z" fill="#7FACFA"/>
<path d="M15.8002 57.834L15.7788 57.962C15.7585 58.0581 15.7659 58.158 15.8002 58.25C15.8345 58.158 15.8419 58.0581 15.8215 57.962L15.8002 57.834Z" fill="#7FACFA"/>
<path d="M33.4001 53.0996C33.3356 53.1667 33.2875 53.2479 33.2598 53.3368C33.232 53.4256 33.2253 53.5197 33.2401 53.6116L33.4001 54.5823L33.5601 53.6116C33.5749 53.5197 33.5682 53.4256 33.5404 53.3368C33.5127 53.2479 33.4646 53.1667 33.4001 53.0996Z" fill="#7FACFA"/>
<path d="M42.4667 57.834L42.4453 57.962C42.425 58.0581 42.4324 58.158 42.4667 58.25C42.501 58.158 42.5084 58.0581 42.488 57.962L42.4667 57.834Z" fill="#7FACFA"/>
<path d="M54.7337 39.4668H51.5337C53.7969 39.4668 55.9674 40.3658 57.5677 41.9662C59.168 43.5665 60.067 45.7369 60.067 48.0001V54.4001C60.067 56.6633 59.168 58.8338 57.5677 60.4341C55.9674 62.0344 53.7969 62.9335 51.5337 62.9335H54.7337C56.9969 62.9335 59.1674 62.0344 60.7677 60.4341C62.368 58.8338 63.267 56.6633 63.267 54.4001V48.0001C63.267 45.7369 62.368 43.5665 60.7677 41.9662C59.1674 40.3658 56.9969 39.4668 54.7337 39.4668Z" fill="#7FACFA"/>
<path d="M19.0002 57.8353L18.9789 57.9633C18.9585 58.0594 18.9659 58.1593 19.0002 58.2513C18.9762 58.3331 18.9341 58.4085 18.8772 58.472C18.8202 58.5355 18.7498 58.5854 18.6711 58.6181C18.5923 58.6508 18.5072 58.6655 18.4221 58.6611C18.3369 58.6567 18.2538 58.6333 18.1789 58.5926L14.4775 56.5553C14.3927 56.508 14.2973 56.4832 14.2002 56.4832C14.1031 56.4832 14.0077 56.508 13.9229 56.5553L10.2215 58.5926C10.1242 58.6444 10.0141 58.6674 9.90419 58.659C9.79425 58.6506 9.68897 58.6112 9.60062 58.5452C9.51228 58.4792 9.44453 58.3895 9.40526 58.2864C9.36599 58.1834 9.35684 58.0713 9.37886 57.9633L10.0935 53.6113C10.109 53.5169 10.1016 53.4201 10.0719 53.3291C10.0422 53.2382 9.99109 53.1557 9.92286 53.0886L6.9042 49.9953C6.82676 49.917 6.77239 49.8189 6.74705 49.7117C6.72171 49.6045 6.72637 49.4925 6.76053 49.3878C6.79469 49.2831 6.85703 49.1898 6.9407 49.1183C7.02437 49.0467 7.12615 48.9995 7.23486 48.982L11.3842 48.342C11.4787 48.3272 11.5681 48.2892 11.6444 48.2315C11.7207 48.1738 11.7815 48.0982 11.8215 48.0113L13.6775 44.0753C13.7213 43.973 13.7942 43.8857 13.8871 43.8244C13.98 43.7631 14.0889 43.7305 14.2002 43.7305C14.3115 43.7305 14.4204 43.7631 14.5133 43.8244C14.6062 43.8857 14.6791 43.973 14.7229 44.0753L16.5789 48.0113C16.6189 48.0982 16.6797 48.1738 16.756 48.2315C16.8323 48.2892 16.9217 48.3272 17.0162 48.342L19.0002 48.6513L16.8349 48.982C16.7262 48.9995 16.6244 49.0467 16.5407 49.1183C16.457 49.1898 16.3947 49.2831 16.3605 49.3878C16.3264 49.4925 16.3217 49.6045 16.347 49.7117C16.3724 49.8189 16.4268 49.917 16.5042 49.9953L19.0002 52.5553L19.5229 53.0886C19.5911 53.1557 19.6422 53.2382 19.6719 53.3291C19.7016 53.4201 19.709 53.5169 19.6935 53.6113L19.0002 57.8353Z" fill="#E8EDFC"/>
<path d="M54.7444 53.0886C54.6761 53.1557 54.625 53.2382 54.5953 53.3291C54.5656 53.4201 54.5582 53.5169 54.5737 53.6113L55.2884 57.9633C55.3104 58.0713 55.3012 58.1834 55.262 58.2864C55.2227 58.3895 55.1549 58.4792 55.0666 58.5452C54.9783 58.6112 54.873 58.6506 54.763 58.659C54.6531 58.6674 54.543 58.6444 54.4457 58.5926L50.7444 56.5553C50.6596 56.508 50.5641 56.4832 50.467 56.4832C50.37 56.4832 50.2745 56.508 50.1897 56.5553L46.4884 58.5926C46.4134 58.6333 46.3303 58.6567 46.2452 58.6611C46.16 58.6655 46.0749 58.6508 45.9962 58.6181C45.9174 58.5854 45.847 58.5355 45.7901 58.472C45.7331 58.4085 45.6911 58.3331 45.667 58.2513C45.7013 58.1593 45.7087 58.0594 45.6884 57.9633L45.667 57.8353L44.9737 53.6113C44.9582 53.5169 44.9656 53.4201 44.9953 53.3291C45.025 53.2382 45.0761 53.1557 45.1444 53.0886L45.667 52.5553L48.163 49.9953C48.2405 49.917 48.2948 49.8189 48.3202 49.7117C48.3455 49.6045 48.3409 49.4925 48.3067 49.3878C48.2725 49.2831 48.2102 49.1898 48.1265 49.1183C48.0429 49.0467 47.9411 48.9995 47.8324 48.982L45.667 48.6513L47.651 48.342C47.7455 48.3272 47.8349 48.2892 47.9112 48.2315C47.9875 48.1738 48.0484 48.0982 48.0884 48.0113L49.9444 44.0753C49.9882 43.973 50.061 43.8857 50.154 43.8244C50.2469 43.7631 50.3557 43.7305 50.467 43.7305C50.5783 43.7305 50.6872 43.7631 50.7801 43.8244C50.873 43.8857 50.9459 43.973 50.9897 44.0753L52.8457 48.0113C52.8857 48.0982 52.9466 48.1738 53.0229 48.2315C53.0992 48.2892 53.1885 48.3272 53.283 48.342L57.4324 48.982C57.5411 48.9995 57.6429 49.0467 57.7265 49.1183C57.8102 49.1898 57.8725 49.2831 57.9067 49.3878C57.9409 49.4925 57.9455 49.6045 57.9202 49.7117C57.8948 49.8189 57.8405 49.917 57.763 49.9953L54.7444 53.0886Z" fill="#E8EDFC"/>
<path d="M48.1633 49.9953L45.6673 52.5553L45.1446 53.0886C45.0764 53.1557 45.0252 53.2382 44.9955 53.3291C44.9658 53.4201 44.9584 53.5169 44.9739 53.6113L45.6673 57.8353L45.6459 57.9633C45.6255 58.0594 45.6329 58.1593 45.6673 58.2513C45.6432 58.3331 45.6012 58.4085 45.5442 58.472C45.4873 58.5355 45.4169 58.5854 45.3381 58.6181C45.2594 58.6508 45.1743 58.6655 45.0891 58.6611C45.004 58.6567 44.9209 58.6333 44.8459 58.5926L41.1446 56.5553C41.0598 56.508 40.9643 56.4832 40.8673 56.4832C40.7702 56.4832 40.6747 56.508 40.5899 56.5553L36.8886 58.5926C36.8654 58.6139 36.8348 58.6254 36.8033 58.6246C36.9275 58.5697 37.0297 58.4746 37.0935 58.3547C37.1573 58.2348 37.179 58.097 37.1553 57.9633L36.6006 54.582L36.7606 53.6113C36.7754 53.5194 36.7687 53.4253 36.7409 53.3364C36.7132 53.2476 36.6651 53.1664 36.6006 53.0993L36.6113 53.0886L39.6299 49.9953C39.7074 49.917 39.7617 49.8189 39.7871 49.7117C39.8124 49.6045 39.8077 49.4925 39.7736 49.3878C39.7394 49.2831 39.6771 49.1898 39.5934 49.1183C39.5097 49.0467 39.408 48.9995 39.2993 48.982L36.6006 48.566L38.0513 48.342C38.1458 48.3272 38.2351 48.2892 38.3114 48.2315C38.3877 48.1738 38.4486 48.0982 38.4886 48.0113L40.3446 44.0753C40.3884 43.973 40.4613 43.8857 40.5542 43.8244C40.6471 43.7631 40.7559 43.7305 40.8673 43.7305C40.9786 43.7305 41.0874 43.7631 41.1803 43.8244C41.2732 43.8857 41.3461 43.973 41.3899 44.0753L43.2459 48.0113C43.2859 48.0982 43.3468 48.1738 43.4231 48.2315C43.4994 48.2892 43.5887 48.3272 43.6833 48.342L45.6459 48.6513H45.6673L47.8326 48.982C47.9413 48.9995 48.0431 49.0467 48.1267 49.1183C48.2104 49.1898 48.2728 49.2831 48.3069 49.3878C48.3411 49.4925 48.3457 49.6045 48.3204 49.7117C48.2951 49.8189 48.2407 49.917 48.1633 49.9953Z" fill="#E8EDFC"/>
<path d="M36.6002 53.0993C36.5356 53.1664 36.4876 53.2476 36.4598 53.3364C36.4321 53.4253 36.4253 53.5194 36.4402 53.6113L36.6002 54.582L37.1548 57.9633C37.1786 58.097 37.1569 58.2348 37.093 58.3547C37.0292 58.4746 36.927 58.5697 36.8028 58.6246C36.672 58.6727 36.5283 58.6727 36.3975 58.6246C36.366 58.6254 36.3354 58.6139 36.3122 58.5926L32.6108 56.5553C32.526 56.508 32.4306 56.4832 32.3335 56.4832C32.2364 56.4832 32.141 56.508 32.0562 56.5553L28.3548 58.5926C28.3316 58.6139 28.301 58.6254 28.2695 58.6246C28.1387 58.6727 27.995 58.6727 27.8642 58.6246C27.74 58.5697 27.6378 58.4746 27.5739 58.3547C27.5101 58.2348 27.4884 58.097 27.5122 57.9633L28.0668 54.582L28.2268 53.6113C28.2417 53.5194 28.2349 53.4253 28.2072 53.3364C28.1794 53.2476 28.1314 53.1664 28.0668 53.0993L28.0562 53.0886L25.0375 49.9953C24.9601 49.917 24.9057 49.8189 24.8803 49.7117C24.855 49.6045 24.8597 49.4925 24.8938 49.3878C24.928 49.2831 24.9903 49.1898 25.074 49.1183C25.1577 49.0467 25.2595 48.9995 25.3682 48.982L28.0668 48.566L29.5175 48.342C29.612 48.3272 29.7014 48.2892 29.7777 48.2315C29.854 48.1738 29.9148 48.0982 29.9548 48.0113L31.8108 44.0753C31.8546 43.973 31.9275 43.8857 32.0204 43.8244C32.1133 43.7631 32.2222 43.7305 32.3335 43.7305C32.4448 43.7305 32.5537 43.7631 32.6466 43.8244C32.7395 43.8857 32.8124 43.973 32.8562 44.0753L34.7122 48.0113C34.7522 48.0982 34.813 48.1738 34.8893 48.2315C34.9656 48.2892 35.055 48.3272 35.1495 48.342L36.6002 48.566L39.2988 48.982C39.4075 48.9995 39.5093 49.0467 39.593 49.1183C39.6767 49.1898 39.739 49.2831 39.7732 49.3878C39.8073 49.4925 39.812 49.6045 39.7866 49.7117C39.7613 49.8189 39.7069 49.917 39.6295 49.9953L36.6108 53.0886L36.6002 53.0993Z" fill="#E8EDFC"/>
<path d="M28.067 53.0993C28.0024 53.1664 27.9544 53.2476 27.9266 53.3364C27.8988 53.4253 27.8921 53.5194 27.907 53.6113L28.067 54.582L27.5123 57.9633C27.4885 58.097 27.5103 58.2348 27.5741 58.3547C27.6379 58.4746 27.7401 58.5697 27.8643 58.6246C27.8328 58.6254 27.8022 58.6139 27.779 58.5926L24.0776 56.5553C23.9928 56.508 23.8974 56.4832 23.8003 56.4832C23.7032 56.4832 23.6078 56.508 23.523 56.5553L19.8216 58.5926C19.7467 58.6333 19.6636 58.6567 19.5784 58.6611C19.4933 58.6655 19.4082 58.6508 19.3294 58.6181C19.2507 58.5854 19.1803 58.5355 19.1233 58.472C19.0664 58.4085 19.0243 58.3331 19.0003 58.2513C19.0346 58.1593 19.042 58.0594 19.0216 57.9633L19.0003 57.8353L19.6936 53.6113C19.7091 53.5169 19.7017 53.4201 19.672 53.3291C19.6423 53.2382 19.5912 53.1557 19.523 53.0886L19.0003 52.5553L16.5043 49.9953C16.4269 49.917 16.3725 49.8189 16.3471 49.7117C16.3218 49.6045 16.3265 49.4925 16.3606 49.3878C16.3948 49.2831 16.4571 49.1898 16.5408 49.1183C16.6245 49.0467 16.7262 48.9995 16.835 48.982L19.0003 48.6513H19.0216L20.9843 48.342C21.0788 48.3272 21.1682 48.2892 21.2445 48.2315C21.3208 48.1738 21.3816 48.0982 21.4216 48.0113L23.2776 44.0753C23.3214 43.973 23.3943 43.8857 23.4872 43.8244C23.5801 43.7631 23.689 43.7305 23.8003 43.7305C23.9116 43.7305 24.0205 43.7631 24.1134 43.8244C24.2063 43.8857 24.2792 43.973 24.323 44.0753L26.179 48.0113C26.219 48.0982 26.2798 48.1738 26.3561 48.2315C26.4324 48.2892 26.5218 48.3272 26.6163 48.342L28.067 48.566L25.3683 48.982C25.2596 48.9995 25.1578 49.0467 25.0741 49.1183C24.9905 49.1898 24.9281 49.2831 24.894 49.3878C24.8598 49.4925 24.8551 49.6045 24.8805 49.7117C24.9058 49.8189 24.9602 49.917 25.0376 49.9953L28.0563 53.0886L28.067 53.0993Z" fill="#E8EDFC"/>
<path d="M48.3335 37.3335V39.4668H16.3335V37.3335C16.3323 34.0247 17.5143 30.8245 19.666 28.3108C21.8178 25.7972 24.7974 24.1359 28.0668 23.6268C28.7728 23.5193 29.486 23.4658 30.2002 23.4668H34.4668C35.181 23.4658 35.8942 23.5193 36.6002 23.6268C39.8696 24.1359 42.8492 25.7972 45.001 28.3108C47.1527 30.8245 48.3347 34.0247 48.3335 37.3335Z" fill="#C6D8FB"/>
<path d="M36.6004 23.6268C35.8944 23.5193 35.1812 23.4658 34.4671 23.4668H31.2671C31.9812 23.4658 32.6944 23.5193 33.4004 23.6268C36.6699 24.1359 39.6495 25.7972 41.8012 28.3108C43.953 30.8245 45.135 34.0247 45.1338 37.3335V39.4668H48.3338V37.3335C48.335 34.0247 47.153 30.8245 45.0012 28.3108C42.8495 25.7972 39.8699 24.1359 36.6004 23.6268Z" fill="#A4C3FD"/>
<path d="M36.6002 18.3359V23.6266C35.8942 23.5191 35.181 23.4656 34.4669 23.4666H30.2002C29.4861 23.4656 28.7729 23.5191 28.0669 23.6266V18.3359C29.0363 18.9068 30.1419 19.2053 31.2669 19.1999H33.4002C34.5252 19.2053 35.6308 18.9068 36.6002 18.3359Z" fill="#CAD9FC"/>
<path d="M39.8005 7.46641V12.7997C39.801 13.9224 39.5054 15.0253 38.9436 15.9973C38.3818 16.9692 37.5736 17.7758 36.6005 18.3357C35.6311 18.9066 34.5255 19.2051 33.4005 19.1997H31.2672C30.1422 19.2051 29.0366 18.9066 28.0672 18.3357C27.0941 17.7758 26.2859 16.9692 25.7241 15.9973C25.1623 15.0253 24.8667 13.9224 24.8672 12.7997V7.46641C24.8672 5.76902 25.5415 4.14116 26.7417 2.94092C27.9419 1.74069 29.5698 1.06641 31.2672 1.06641H33.4005C35.0979 1.06641 36.7258 1.74069 37.926 2.94092C39.1262 4.14116 39.8005 5.76902 39.8005 7.46641Z" fill="#E8EDFC"/>
<path d="M33.4006 1.06641H31.2672C31.087 1.06641 30.9099 1.07921 30.7339 1.09307C32.3326 1.22676 33.8228 1.95601 34.9093 3.13637C35.9959 4.31673 36.5994 5.86211 36.6006 7.46641V12.7997C36.601 13.9224 36.3054 15.0253 35.7436 15.9973C35.1818 16.9692 34.3736 17.7758 33.4006 18.3357C32.5861 18.8108 31.6741 19.0942 30.7339 19.1645C30.911 19.1795 31.0859 19.1997 31.2672 19.1997H33.4006C34.5256 19.2051 35.6311 18.9066 36.6006 18.3357C37.5736 17.7758 38.3818 16.9692 38.9436 15.9973C39.5054 15.0253 39.801 13.9224 39.8006 12.7997V7.46641C39.8006 5.76902 39.1263 4.14116 37.926 2.94092C36.7258 1.74069 35.0979 1.06641 33.4006 1.06641Z" fill="#CAD9FC"/>
<path d="M48.8671 58.25C48.9014 58.158 48.9088 58.0581 48.8884 57.962L48.8671 57.834L48.8457 57.962C48.8254 58.0581 48.8328 58.158 48.8671 58.25Z" fill="white"/>
<path d="M22.2006 57.834L22.1792 57.962C22.1588 58.0581 22.1662 58.158 22.2006 58.25C22.2349 58.158 22.2423 58.0581 22.2219 57.962L22.2006 57.834Z" fill="white"/>
<path d="M19.5335 37.3331C19.5323 34.0243 20.7143 30.8241 22.866 28.3104C25.0178 25.7968 27.9974 24.1355 31.2668 23.6264V18.3357C30.2938 17.7758 29.4856 16.9692 28.9238 15.9973C28.3619 15.0253 28.0664 13.9224 28.0668 12.7997V7.46641C28.0679 5.86211 28.6715 4.31673 29.758 3.13637C30.8446 1.95601 32.3348 1.22676 33.9335 1.09307C33.7575 1.07921 33.5804 1.06641 33.4002 1.06641H31.2668C31.0866 1.06641 30.9095 1.07921 30.7335 1.09307C29.1348 1.22676 27.6446 1.95601 26.5581 3.13637C25.4715 4.31673 24.8679 5.86211 24.8668 7.46641V12.7997C24.8664 13.9224 25.1619 15.0253 25.7238 15.9973C26.2856 16.9692 27.0938 17.7758 28.0668 18.3357V23.6264C24.7974 24.1355 21.8178 25.7968 19.666 28.3104C17.5143 30.8241 16.3323 34.0243 16.3335 37.3331V39.4664H19.5335V37.3331Z" fill="white"/>
<path d="M9.93372 62.9335H13.1337C10.8705 62.9335 8.70006 62.0344 7.09975 60.4341C5.49944 58.8338 4.60039 56.6633 4.60039 54.4001V48.0001C4.60039 45.7369 5.49944 43.5665 7.09975 41.9662C8.70006 40.3658 10.8705 39.4668 13.1337 39.4668H9.93372C7.67054 39.4668 5.50006 40.3658 3.89975 41.9662C2.29944 43.5665 1.40039 45.7369 1.40039 48.0001V54.4001C1.40039 56.6633 2.29944 58.8338 3.89975 60.4341C5.50006 62.0344 7.67054 62.9335 9.93372 62.9335Z" fill="white"/>
<path d="M1.85986 59.5828L3.654 58.4297C4.33309 59.4798 5.26029 60.3466 6.35373 60.9534C7.45548 61.5432 8.68385 61.8568 9.93346 61.8676V64.0009C8.32596 63.99 6.74535 63.5873 5.32866 62.8276C3.92262 62.0484 2.73101 60.9337 1.85986 59.5828Z" fill="white"/>
<path d="M58.9125 49.0335C58.8179 48.7447 58.6445 48.4881 58.4116 48.2928C58.1788 48.0975 57.896 47.9713 57.5952 47.9284L53.7029 47.3279L51.96 43.6276C51.8297 43.3422 51.6201 43.1003 51.3562 42.9306C51.0923 42.761 50.7852 42.6708 50.4714 42.6708C50.1577 42.6708 49.8506 42.761 49.5867 42.9306C49.3227 43.1003 49.1132 43.3422 48.9829 43.6276L47.2346 47.3354L45.6666 47.5743L44.1082 47.33L42.36 43.6276C42.2297 43.3422 42.0201 43.1003 41.7562 42.9306C41.4923 42.761 41.1852 42.6708 40.8714 42.6708C40.5577 42.6708 40.2506 42.761 39.9867 42.9306C39.7227 43.1003 39.5132 43.3422 39.3829 43.6276L37.6346 47.3354L36.6 47.4868L35.5653 47.329L33.8266 43.618C33.6951 43.3343 33.4852 43.0941 33.2216 42.9257C32.9581 42.7574 32.6519 42.668 32.3392 42.668C32.0264 42.668 31.7202 42.7574 31.4567 42.9257C31.1931 43.0941 30.9832 43.3343 30.8517 43.618L29.1013 47.329L28.0666 47.4868L27.0362 47.3279L25.2933 43.6276C25.163 43.3422 24.9534 43.1003 24.6895 42.9306C24.4256 42.761 24.1185 42.6708 23.8048 42.6708C23.491 42.6708 23.1839 42.761 22.92 42.9306C22.6561 43.1003 22.4465 43.3422 22.3162 43.6276L20.5637 47.329L19.0096 47.5732L17.4362 47.3279L15.6933 43.6276C15.563 43.3422 15.3534 43.1003 15.0895 42.9306C14.8256 42.761 14.5185 42.6708 14.2048 42.6708C13.891 42.6708 13.5839 42.761 13.32 42.9306C13.0561 43.1003 12.8465 43.3422 12.7162 43.6276L10.9637 47.3279L7.09382 47.9252C6.78897 47.9655 6.50163 48.0908 6.26469 48.2868C6.02775 48.4828 5.8508 48.7416 5.75408 49.0335C5.65235 49.3256 5.63461 49.6404 5.70287 49.9421C5.77113 50.2438 5.92265 50.5203 6.14022 50.7402L9.00315 53.6735L8.33329 57.7802C8.27732 58.0899 8.3107 58.4091 8.42951 58.7006C8.54832 58.9921 8.74766 59.2437 9.00422 59.426C9.25409 59.6063 9.55016 59.7115 9.85773 59.7295C10.1653 59.7474 10.4716 59.6773 10.7408 59.5274L14.2 57.6212L17.6784 59.5348C17.8798 59.6421 18.1016 59.7059 18.3293 59.7219C18.557 59.7379 18.7855 59.7057 19 59.6276C19.1745 59.6923 19.3589 59.7266 19.545 59.729C19.8218 59.7281 20.094 59.6588 20.3376 59.5274L23.8 57.6212L27.2645 59.5274C27.3326 59.5659 27.404 59.5984 27.4778 59.6244C27.4896 59.6244 27.5024 59.6244 27.513 59.6308C27.684 59.6936 27.8643 59.7272 28.0464 59.73H28.0709C28.2505 59.7287 28.4286 59.6974 28.5978 59.6372C28.6085 59.6372 28.6192 59.6372 28.6298 59.6319C28.6405 59.6266 28.649 59.618 28.6597 59.6138C28.7327 59.5925 28.804 59.5658 28.873 59.5338L32.3333 57.6202L35.7957 59.5295C35.8677 59.5646 35.9422 59.5942 36.0186 59.618L36.0336 59.6276H36.0474C36.3937 59.7655 36.7796 59.7655 37.1258 59.6276C37.144 59.6223 37.1642 59.6276 37.1824 59.618C37.2562 59.592 37.3276 59.5595 37.3957 59.521L40.8666 57.6212L44.345 59.5348C44.5456 59.6446 44.7676 59.7097 44.9957 59.7257C45.2238 59.7417 45.4526 59.7083 45.6666 59.6276C45.8835 59.7054 46.1142 59.7367 46.344 59.7194C46.5737 59.7021 46.7972 59.6367 47 59.5274L50.4666 57.6212L53.9312 59.5274C54.2003 59.6773 54.5066 59.7474 54.8142 59.7295C55.1217 59.7115 55.4178 59.6063 55.6677 59.426C55.9232 59.2452 56.122 58.9954 56.241 58.7059C56.3599 58.4164 56.3942 58.099 56.3397 57.7908L55.6634 53.6735L58.5168 50.7498C58.7372 50.5297 58.8913 50.252 58.9612 49.9485C59.0312 49.645 59.0143 49.3279 58.9125 49.0335ZM14.9989 55.6255C14.7557 55.4901 14.482 55.4191 14.2037 55.4191C13.9254 55.4191 13.6517 55.4901 13.4085 55.6255L10.5893 57.1743L11.1472 53.7855C11.1891 53.5263 11.1692 53.2609 11.0891 53.0108C11.009 52.7608 10.871 52.5332 10.6864 52.3466L8.29915 49.8975L11.5578 49.394C11.8224 49.351 12.0725 49.2441 12.2865 49.0826C12.5004 48.9211 12.6717 48.7098 12.7856 48.4671L14.2 45.4676L15.6112 48.4607C15.6197 48.4788 15.6293 48.497 15.6389 48.5151C15.6272 48.529 15.6229 48.5492 15.6122 48.5631C15.5015 48.705 15.4143 48.8639 15.3541 49.0335C15.2524 49.3256 15.2346 49.6404 15.3029 49.9421C15.3711 50.2438 15.5227 50.5203 15.7402 50.7402L18.2362 53.3002L18.5978 53.6703L18.009 57.281L14.9989 55.6255ZM23.0085 55.6255L20.1893 57.1743L20.7472 53.7844C20.7887 53.5242 20.768 53.2579 20.6868 53.0072C20.6056 52.7566 20.4662 52.5287 20.28 52.3423L17.8949 49.8986L19.1098 49.713C19.1344 49.713 19.1589 49.713 19.1824 49.7055L21.1536 49.394C21.4182 49.351 21.6683 49.2441 21.8822 49.0826C22.0962 48.9211 22.2675 48.7098 22.3813 48.4671L23.8 45.4676L24.9882 47.9871C24.7336 48.0601 24.5004 48.1937 24.3087 48.3765C24.117 48.5593 23.9725 48.7858 23.8874 49.0367C23.7887 49.3294 23.7728 49.6437 23.8415 49.9449C23.9102 50.2461 24.0609 50.5224 24.2768 50.7434L26.8421 53.3674C26.829 53.506 26.833 53.6457 26.8538 53.7834L26.985 54.5738L26.6298 56.7476L24.6032 55.6298C24.3602 55.4923 24.0861 55.4194 23.8069 55.4179C23.5278 55.4164 23.2529 55.4864 23.0085 55.6212V55.6255ZM31.5418 55.6255L28.7216 57.1743L29.2762 53.7823C29.3181 53.5229 29.2987 53.2573 29.2196 53.0067C29.1405 52.7561 29.0039 52.5275 28.8208 52.3391L26.4293 49.8922L29.6805 49.3972C29.9484 49.3559 30.2021 49.2493 30.419 49.0867C30.6359 48.9241 30.8094 48.7106 30.9242 48.465L32.3333 45.4687L33.7434 48.4682C33.858 48.7134 34.0312 48.9266 34.2477 49.0891C34.4643 49.2515 34.7175 49.358 34.985 49.3994L38.2373 49.8943L35.8458 52.3412C35.6626 52.5298 35.5259 52.7586 35.4469 53.0094C35.3678 53.2601 35.3484 53.5259 35.3904 53.7855L35.945 57.1764L33.1216 55.6191C32.8805 55.4848 32.6092 55.4143 32.3333 55.4143C32.0574 55.4143 31.786 55.4848 31.545 55.6191L31.5418 55.6255ZM41.6623 55.6319C41.4192 55.4965 41.1455 55.4255 40.8672 55.4255C40.5888 55.4255 40.3151 55.4965 40.072 55.6319L38.0368 56.7476L37.6816 54.5802L37.8138 53.7876C37.8349 53.6503 37.8385 53.5109 37.8245 53.3727L40.3845 50.7498C40.6004 50.5288 40.751 50.2525 40.8197 49.9513C40.8884 49.6501 40.8725 49.3358 40.7738 49.0431C40.6888 48.7922 40.5442 48.5657 40.3525 48.3829C40.1608 48.2001 39.9276 48.0665 39.673 47.9935L40.8666 45.4676L42.2778 48.4607C42.3922 48.7058 42.5649 48.9193 42.7808 49.0823C42.9966 49.2454 43.2491 49.3531 43.5162 49.3962L45.4906 49.7055C45.5097 49.7087 45.5289 49.7109 45.5482 49.7119L46.7674 49.8986L44.3866 52.3348C44.199 52.5219 44.0587 52.7509 43.977 53.003C43.8954 53.255 43.875 53.5229 43.9173 53.7844L44.4741 57.1722L41.6623 55.6319ZM53.9866 52.3348C53.799 52.5219 53.6587 52.7509 53.577 53.003C53.4954 53.255 53.475 53.5229 53.5173 53.7844L54.0741 57.1722L51.2624 55.6255C51.0192 55.4901 50.7455 55.4191 50.4672 55.4191C50.1888 55.4191 49.9151 55.4901 49.672 55.6255L46.6565 57.281L46.0645 53.6724L48.9168 50.7487C49.2122 50.4588 49.3868 50.0678 49.4054 49.6543C49.424 49.2408 49.2852 48.8357 49.017 48.5204C49.0277 48.5012 49.0426 48.4852 49.0522 48.466L50.4666 45.4676L51.8778 48.4607C51.9925 48.7062 52.1657 48.9199 52.3822 49.083C52.5986 49.2461 52.8518 49.3536 53.1194 49.3962L56.3685 49.8975L53.9866 52.3348Z" fill="#428DFF"/>
<path d="M5.83861 62.9634C5.69854 62.9641 5.5597 62.9372 5.43001 62.8843C5.30033 62.8313 5.18235 62.7533 5.08281 62.6548C4.88177 62.4557 4.76803 62.185 4.76661 61.9021C4.7652 61.6192 4.87622 61.3473 5.07526 61.1463C5.2743 60.9452 5.54505 60.8315 5.82795 60.8301H5.83861C6.12151 60.8301 6.39282 60.9425 6.59286 61.1425C6.7929 61.3425 6.90528 61.6138 6.90528 61.8967C6.90528 62.1796 6.7929 62.451 6.59286 62.651C6.39282 62.851 6.12151 62.9634 5.83861 62.9634Z" fill="#428DFF"/>
<path d="M54.7335 38.4H49.4002V37.3333C49.3805 33.9348 48.2097 30.6433 46.0788 27.9957C43.9478 25.3481 40.9826 23.5008 37.6668 22.7552V18.9152C38.6535 18.2292 39.4597 17.3148 40.0169 16.2501C40.5741 15.1854 40.8657 14.0017 40.8668 12.8V7.46667C40.8646 5.48708 40.0772 3.58921 38.6774 2.18943C37.2776 0.789648 35.3798 0.00225852 33.4002 0H31.2668C29.2872 0.00225852 27.3894 0.789648 25.9896 2.18943C24.5898 3.58921 23.8024 5.48708 23.8002 7.46667V12.8C23.8009 14.0022 24.0923 15.1865 24.6495 16.2518C25.2067 17.3172 26.0131 18.232 27.0002 18.9184V22.7584C23.6849 23.5039 20.7201 25.3507 18.5892 27.9977C16.4584 30.6446 15.2872 33.9354 15.2668 37.3333V38.4H9.9335C7.38828 38.4028 4.94813 39.4152 3.14839 41.2149C1.34865 43.0146 0.336319 45.4548 0.333496 48L0.333496 54.3381C0.341211 55.1284 0.436368 55.9154 0.617229 56.6848C0.860599 57.7158 1.28106 58.6968 1.8599 59.584C1.93342 59.7117 2.03375 59.822 2.15399 59.9072C2.27423 59.9925 2.41152 60.0506 2.55639 60.0777C2.70127 60.1048 2.85029 60.1001 2.99319 60.064C3.13609 60.028 3.26948 59.9614 3.38416 59.8688C3.59186 59.6997 3.73293 59.4625 3.78234 59.1993C3.83174 58.936 3.78628 58.6638 3.65403 58.4309C3.20498 57.7418 2.88007 56.9794 2.69403 56.1781C2.50359 55.3443 2.42716 54.4885 2.46683 53.6341V48C2.46909 46.0204 3.25648 44.1225 4.65626 42.7228C6.05604 41.323 7.95391 40.5356 9.9335 40.5333H54.7335C56.7131 40.5356 58.611 41.323 60.0107 42.7228C61.4105 44.1225 62.1979 46.0204 62.2002 48V54.4C62.1979 56.3796 61.4105 58.2775 60.0107 59.6772C58.611 61.077 56.7131 61.8644 54.7335 61.8667H9.9335C9.6506 61.8667 9.37929 61.979 9.17925 62.1791C8.97921 62.3791 8.86683 62.6504 8.86683 62.9333C8.86683 63.2162 8.97921 63.4875 9.17925 63.6876C9.37929 63.8876 9.6506 64 9.9335 64H54.7335C57.2787 63.9972 59.7189 62.9848 61.5186 61.1851C63.3183 59.3854 64.3307 56.9452 64.3335 54.4V48C64.3307 45.4548 63.3183 43.0146 61.5186 41.2149C59.7189 39.4152 57.2787 38.4028 54.7335 38.4ZM25.9335 12.8V7.46667C25.9352 6.0527 26.4976 4.69713 27.4975 3.6973C28.4973 2.69747 29.8529 2.13503 31.2668 2.13333H33.4002C34.8141 2.13503 36.1697 2.69747 37.1695 3.6973C38.1694 4.69713 38.7318 6.0527 38.7335 7.46667V12.8C38.7318 14.214 38.1694 15.5695 37.1695 16.5694C36.1697 17.5692 34.8141 18.1316 33.4002 18.1333H31.2668C29.8529 18.1316 28.4973 17.5692 27.4975 16.5694C26.4976 15.5695 25.9352 14.214 25.9335 12.8ZM31.2668 20.2667H33.4002C34.1231 20.2645 34.8418 20.1567 35.5335 19.9467V22.4341C35.1804 22.4096 34.8252 22.3947 34.4668 22.3947H30.2002C29.8418 22.3947 29.4866 22.4096 29.1335 22.4341V19.9467C29.8252 20.1567 30.5439 20.2645 31.2668 20.2667ZM17.4002 37.3333C17.3951 35.651 17.7227 33.9843 18.3642 32.429C19.0056 30.8737 19.9483 29.4607 21.1379 28.2711C22.3275 27.0815 23.7406 26.1388 25.2958 25.4974C26.8511 24.8559 28.5178 24.5283 30.2002 24.5333H34.4668C36.1492 24.5283 37.8159 24.8559 39.3712 25.4974C40.9264 26.1388 42.3395 27.0815 43.5291 28.2711C44.7187 29.4607 45.6614 30.8737 46.3028 32.429C46.9443 33.9843 47.2719 35.651 47.2668 37.3333V38.4H43.0002V35.2C43.0002 34.9171 42.8878 34.6458 42.6877 34.4458C42.4877 34.2457 42.2164 34.1333 41.9335 34.1333C41.6506 34.1333 41.3793 34.2457 41.1792 34.4458C40.9792 34.6458 40.8668 34.9171 40.8668 35.2V38.4H23.8002V35.2C23.8002 34.9171 23.6878 34.6458 23.4877 34.4458C23.2877 34.2457 23.0164 34.1333 22.7335 34.1333C22.4506 34.1333 22.1793 34.2457 21.9792 34.4458C21.7792 34.6458 21.6668 34.9171 21.6668 35.2V38.4H17.4002V37.3333Z" fill="#428DFF"/>
</g>
<defs>
<clipPath id="clip0_19187_88559">
<rect width="64" height="64" fill="white" transform="translate(0.333496)"/>
</clipPath>
</defs>
</svg>
