<svg width="64" height="64" viewBox="0 0 64 64" fill="none" xmlns="http://www.w3.org/2000/svg">
<g id="fi_1491514" clip-path="url(#clip0_21015_62306)">
<g id="Page-1">
<g id="047---Observation">
<path id="Shape" d="M49.3439 40.2229C47.979 43.3396 47.4673 46.7633 47.8613 50.1429C48.1014 52.3426 48.5369 54.5165 49.1626 56.6389C49.4985 57.7381 49.923 58.8083 50.4319 59.8389C51.0632 60.8086 51.6332 61.8168 52.1386 62.8576L25.3653 62.9322V62.9216C25.2799 62.6016 23.6693 56.3296 20.1066 54.7189C19.4453 54.9536 18.7413 55.1882 18.0266 55.4336C15.6574 56.2554 13.2471 56.9532 10.8053 57.5242C10.1326 57.685 9.42407 57.5859 8.82127 57.2469C8.13515 56.8248 7.62397 56.1697 7.38127 55.4016C7.10187 54.6418 6.99971 53.8282 7.0826 53.0229C7.32833 52.2006 7.41165 51.3384 7.32793 50.4842C7.0506 49.4069 6.0266 49.1402 5.21593 48.5642C4.5546 48.0949 5.7386 46.5909 5.7386 46.5909C5.7386 46.5909 4.47993 45.6629 4.03193 45.2576C3.5626 44.8736 4.22393 44.2122 4.8106 42.9642C5.05267 42.4224 5.12338 41.8194 5.01327 41.2362C4.78927 40.0949 3.06127 39.6576 2.20793 39.0282C1.8026 38.7296 1.15193 38.2816 1.07727 37.7376C0.959934 36.9802 1.85593 35.9136 2.29327 35.3802C4.15412 32.9821 5.74923 30.3892 7.0506 27.6469C7.22138 27.3574 7.32355 27.0327 7.34927 26.6976C7.32793 25.1722 5.11993 24.5429 4.91727 23.0602C4.88551 22.6251 4.96249 22.1889 5.14127 21.7909C5.75638 20.4834 6.28377 19.1365 6.71993 17.7589C6.98247 16.4953 7.32086 15.2486 7.73327 14.0256C8.62777 11.5719 10.0062 9.32294 11.7866 7.41224C14.3999 4.64958 18.2613 3.28424 21.9093 2.55891C25.1534 1.84962 28.4432 1.36845 31.7546 1.11891C31.8613 1.10824 31.9679 1.10824 32.0746 1.09758C38.9013 0.756244 44.2986 3.07091 49.5893 7.20958C52.4722 9.36031 54.5795 12.3884 55.5946 15.8389C56.3681 18.6883 56.7309 21.6336 56.6719 24.5856C56.6515 27.5009 55.8005 30.35 54.2186 32.7989C52.6293 35.3056 50.5493 37.4816 49.3439 40.2229Z" fill="#A4C2F7"/>
<path id="Shape_2" d="M46.1439 40.2231C44.779 43.3399 44.2673 46.7635 44.6613 50.1431C44.9014 52.3428 45.3369 54.5167 45.9626 56.6391C46.2985 57.7384 46.723 58.8086 47.2319 59.8391C47.8632 60.8088 48.4332 61.817 48.9386 62.8578L28.4266 62.9111L25.3653 62.9218C25.2906 62.6338 23.9999 57.6205 21.1946 55.3911C20.8606 55.1237 20.4953 54.898 20.1066 54.7191C20.0746 54.7298 20.0533 54.7405 20.0213 54.7511C19.3813 54.9751 18.7093 55.1991 18.0266 55.4338C18.0159 55.4231 17.9946 55.4125 17.9839 55.4018C17.6593 55.1239 17.2965 54.894 16.9066 54.7191C15.1039 55.3485 13.0239 56.0418 11.1253 56.6071C10.3146 56.8525 9.53593 57.0658 8.82127 57.2471C8.13515 56.825 7.62397 56.1699 7.38127 55.4018C7.10187 54.642 6.99971 53.8284 7.0826 53.0231C7.32833 52.2009 7.41165 51.3386 7.32793 50.4845C7.0506 49.4071 6.0266 49.1405 5.21593 48.5645C4.5546 48.0951 5.7386 46.5911 5.7386 46.5911C5.7386 46.5911 4.47993 45.6631 4.03193 45.2578C3.5626 44.8738 4.22393 44.2125 4.8106 42.9645C5.05267 42.4226 5.12338 41.8197 5.01327 41.2365C4.78927 40.0951 3.06127 39.6578 2.20793 39.0285C1.8026 38.7298 1.15193 38.2818 1.07727 37.7378C0.959934 36.9805 1.85593 35.9138 2.29327 35.3805C4.15412 32.9824 5.74923 30.3894 7.0506 27.6471C7.22138 27.3577 7.32355 27.0329 7.34927 26.6978C7.32793 25.1725 5.11993 24.5431 4.91727 23.0605C4.88551 22.6253 4.96249 22.1891 5.14127 21.7911C5.75638 20.4837 6.28377 19.1367 6.71993 17.7591C6.98247 16.4955 7.32086 15.2488 7.73327 14.0258C8.62777 11.5721 10.0062 9.32317 11.7866 7.41247C14.3999 4.64981 18.2613 3.28447 21.9093 2.55914C25.1534 1.84985 28.4432 1.36868 31.7546 1.11914C32.2346 1.15114 32.7039 1.19381 33.1626 1.25781C38.0422 1.96293 42.6254 4.02535 46.3893 7.20981C49.2722 9.36054 51.3795 12.3886 52.3946 15.8391C53.1681 18.6886 53.5309 21.6338 53.4719 24.5858C53.4515 27.5011 52.6005 30.3502 51.0186 32.7991C49.4293 35.3058 47.3493 37.4818 46.1439 40.2231Z" fill="white"/>
<path id="Shape_3" d="M46.1439 40.2231C44.7789 43.3399 44.2672 46.7635 44.6612 50.1431C44.9013 52.3428 45.3368 54.5167 45.9625 56.6391C46.2984 57.7384 46.7229 58.8086 47.2319 59.8391C47.8631 60.8088 48.4331 61.817 48.9385 62.8578L28.4265 62.9111C28.3199 62.5058 26.6985 56.3191 23.1679 54.7191C22.5385 54.9431 21.8772 55.1671 21.1945 55.3911C21.161 55.4099 21.1251 55.4243 21.0879 55.4338C20.767 55.1561 20.4078 54.9262 20.0212 54.7512C19.9999 54.7405 19.9892 54.7298 19.9679 54.7191C19.3385 54.9431 18.6665 55.1671 17.9839 55.4018C15.9039 56.0951 13.6745 56.7991 11.8825 57.2471C11.5926 57.0826 11.3358 56.8655 11.1252 56.6071C10.8216 56.2535 10.5897 55.8441 10.4425 55.4018C10.1631 54.642 10.061 53.8284 10.1439 53.0231C10.3896 52.2009 10.4729 51.3386 10.3892 50.4845C10.1119 49.4072 9.08788 49.1405 8.27721 48.5645C7.61588 48.0951 8.79988 46.5911 8.79988 46.5911C8.79988 46.5911 7.54121 45.6631 7.09321 45.2578C6.62388 44.8738 7.28521 44.2125 7.87188 42.9645C8.11395 42.4226 8.18466 41.8197 8.07455 41.2365C7.85055 40.0951 6.12255 39.6578 5.26921 39.0285C4.86388 38.7298 4.21321 38.2818 4.13855 37.7378C4.02121 36.9805 4.91721 35.9138 5.35455 35.3805C7.2154 32.9824 8.81051 30.3894 10.1119 27.6471C10.2827 27.3577 10.3848 27.0329 10.4105 26.6978C10.3892 25.1725 8.18121 24.5431 7.97855 23.0605C7.94679 22.6253 8.02376 22.1891 8.20255 21.7911C8.81766 20.4837 9.34505 19.1367 9.78121 17.7591C10.0438 16.4955 10.3821 15.2488 10.7945 14.0258C11.6891 11.5721 13.0674 9.32317 14.8479 7.41248C17.4612 4.64981 21.3225 3.28448 24.9705 2.55915C27.6752 1.97508 30.41 1.54064 33.1625 1.25781C38.0421 1.96293 42.6253 4.02536 46.3892 7.20981C49.2721 9.36055 51.3794 12.3886 52.3945 15.8391C53.1681 18.6886 53.5309 21.6338 53.4719 24.5858C53.4514 27.5011 52.6004 30.3502 51.0186 32.7991C49.4292 35.3058 47.3492 37.4818 46.1439 40.2231Z" fill="#E8EDFC"/>
<path id="Shape_4" d="M56.4053 24.2012C58.8018 22.429 60.9915 20.3931 62.9333 18.1318C60.9915 15.8705 58.8018 13.8347 56.4053 12.0625V24.2012Z" fill="white"/>
<path id="Shape_5" d="M26.7946 24.2012C24.3981 22.429 22.2083 20.3931 20.2666 18.1318C22.2083 15.8705 24.3981 13.8347 26.7946 12.0625V24.2012Z" fill="white"/>
<path id="Shape_6" d="M57.5999 18.1332C57.597 26.9685 50.4352 34.1303 41.5999 34.1332C41.076 34.1373 40.5523 34.1088 40.0319 34.0479C40.0106 34.0479 39.9892 34.0585 39.9679 34.0479C31.814 33.2023 25.6182 26.3308 25.6182 18.1332C25.6182 9.93556 31.814 3.06405 39.9679 2.21853C39.9892 2.20786 40.0106 2.21853 40.0319 2.21853C40.5523 2.15762 41.076 2.12912 41.5999 2.13319C50.4352 2.13614 57.597 9.29786 57.5999 18.1332Z" fill="#7FACFA"/>
<path id="Shape_7" d="M54.3999 18.1323C54.393 26.334 48.1902 33.2045 40.0319 34.047C40.0106 34.047 39.9892 34.0576 39.9679 34.047C31.814 33.2014 25.6182 26.3299 25.6182 18.1323C25.6182 9.93467 31.814 3.06315 39.9679 2.21763C39.9892 2.20696 40.0106 2.21763 40.0319 2.21763C48.1902 3.06009 54.393 9.93064 54.3999 18.1323Z" fill="#A4C2F7"/>
<path id="Shape_8" d="M60.7999 51.3914C60.1118 51.7963 59.2936 51.9186 58.5172 51.7328C57.7861 51.577 57.1329 51.1692 56.6719 50.5808L56.6399 50.5274C56.5592 50.4312 56.4878 50.3277 56.4266 50.2181L51.0932 40.9808C50.8028 40.4677 50.9787 39.8165 51.4879 39.5194L53.0986 38.5914L55.1786 37.3861C55.6916 37.0956 56.3428 37.2715 56.6399 37.7808L57.8452 39.8608L61.9732 47.0181C62.8535 48.5502 62.3289 50.5057 60.7999 51.3914Z" fill="#7FACFA"/>
<path id="Shape_9" d="M58.5172 51.7331C57.7861 51.5773 57.1329 51.1696 56.6719 50.5811L56.6399 50.5278C56.5592 50.4316 56.4878 50.3281 56.4266 50.2185L51.0932 40.9811C50.8028 40.4681 50.9787 39.8169 51.4879 39.5198L53.0986 38.5918C53.2421 38.6713 53.3604 38.7896 53.4399 38.9331L54.6452 41.0131L58.7732 48.1705C59.4239 49.2988 59.3225 50.7094 58.5172 51.7331Z" fill="#A4C2F7"/>
<path id="Oval" d="M41.5999 30.932C48.6692 30.932 54.3999 25.2013 54.3999 18.132C54.3999 11.0628 48.6692 5.33203 41.5999 5.33203C34.5307 5.33203 28.7999 11.0628 28.7999 18.132C28.7999 25.2013 34.5307 30.932 41.5999 30.932Z" fill="#7F8C8D"/>
<path id="Shape_10" d="M53.3332 18.1317C53.3235 24.082 48.8544 29.0798 42.9421 29.7518C37.0299 30.4238 31.5531 26.5567 30.2081 20.7603C28.8632 14.964 32.0774 9.08022 37.6815 7.08009C43.2856 5.07996 49.4989 7.599 52.1279 12.9371C52.9233 14.5531 53.3357 16.3306 53.3332 18.1317Z" fill="#A4C2F7"/>
<path id="Shape_11" d="M53.3333 18.1322C53.3301 23.0284 50.2869 27.4079 45.6992 29.1184C41.1115 30.829 35.944 29.511 32.736 25.8122C34.2012 23.0898 36.1327 20.6456 38.4426 18.5908C39.8875 17.3174 41.49 16.2348 43.2106 15.3695C45.9978 13.9898 49.0262 13.1639 52.128 12.9375C52.9218 14.5541 53.3342 16.3312 53.3333 18.1322Z" fill="#7FACFA"/>
<path id="Shape_12" d="M43.2107 15.3705C41.49 16.2357 39.8876 17.3183 38.4427 18.5918C38.4121 18.4409 38.3978 18.2871 38.4 18.1331C38.4009 16.9881 39.0135 15.9308 40.0064 15.3606C40.9993 14.7904 42.2213 14.7941 43.2107 15.3705Z" fill="#35495E"/>
<path id="Shape_13" d="M44.8 18.1318C44.7695 19.7869 43.4818 21.1455 41.8308 21.2647C40.1797 21.3838 38.7103 20.224 38.4426 18.5905C39.8875 17.317 41.49 16.2344 43.2106 15.3691C44.1952 15.9406 44.8008 16.9934 44.8 18.1318Z" fill="#A4C2F7"/>
<path id="Shape_14" d="M4.14392 21.4121C4.59192 20.2484 5.13165 19.2351 5.46765 18.2473C5.55085 18.002 5.62339 17.7588 5.68099 17.5177L5.87832 16.674C6.01165 16.1065 6.15139 15.5284 6.31779 14.946C7.00095 12.5981 8.09642 10.3906 9.55299 8.42653C10.0046 7.81758 10.4915 7.2356 11.0111 6.68359L12.5621 8.14706C12.1003 8.63879 11.6675 9.157 11.2661 9.69906C9.96338 11.4564 8.98252 13.4308 8.36899 15.5305C8.21859 16.0639 8.08632 16.6047 7.95512 17.1625L7.75779 18.0063C7.68099 18.3263 7.58819 18.6388 7.48579 18.9396C7.06979 20.1417 6.51512 21.1796 6.13859 22.1716L4.14392 21.4121Z" fill="white"/>
<path id="Shape_15" d="M6.94712 16.7868C6.37802 16.6572 5.80964 17.0059 5.66712 17.5718C5.23603 18.8809 4.72739 20.1632 4.14392 21.4118L6.13859 22.1713C6.75978 20.8434 7.29424 19.4766 7.73859 18.0796C7.80652 17.8031 7.7611 17.5109 7.61245 17.2681C7.4638 17.0253 7.22425 16.852 6.94712 16.7868Z" fill="#428DFF"/>
<path id="Shape_16" d="M12.562 8.14511L11.0111 6.68164C10.4914 7.23434 10.0045 7.81703 9.55296 8.42671C9.32754 8.72822 9.11207 9.03613 8.90656 9.35044C8.74205 9.58923 8.68412 9.88563 8.74662 10.1688C8.80912 10.4519 8.98642 10.6964 9.23616 10.8438C9.7298 11.1321 10.3622 10.9929 10.689 10.5238C10.8724 10.2393 11.0648 9.96449 11.266 9.69924C11.6675 9.15645 12.1002 8.63752 12.562 8.14511Z" fill="#428DFF"/>
<path id="Shape_17" d="M6.85642 13.3323C6.75075 13.6081 6.75687 13.9142 6.87349 14.1856L6.98016 14.3627C7.02353 14.4208 7.07488 14.4725 7.13269 14.5163C7.18083 14.564 7.23584 14.6043 7.29589 14.6357C7.35948 14.6687 7.42544 14.6969 7.49322 14.72C7.76237 14.799 8.05085 14.7797 8.30709 14.6656C8.42676 14.6055 8.53504 14.525 8.62709 14.4277C8.90659 14.1277 8.98575 13.6923 8.82976 13.3131C8.77259 13.1865 8.6931 13.0712 8.59509 12.9728C8.49912 12.8714 8.38473 12.7892 8.25802 12.7307C7.99796 12.6168 7.7034 12.6107 7.43882 12.7136C7.17184 12.8365 6.96303 13.0583 6.85642 13.3323Z" fill="#428DFF"/>
<path id="Shape_18" d="M10.1439 58.6659C8.38487 58.6332 6.85442 57.4532 6.37541 55.7603C6.03861 54.8422 5.91851 53.8588 6.02447 52.8867C6.06074 52.6061 6.12154 52.3203 6.18447 52.0333C6.31415 51.6198 6.35058 51.1826 6.29114 50.7533C6.20474 50.4195 5.95941 50.252 5.33114 49.8925C5.08154 49.7517 4.82874 49.6056 4.59194 49.4403C4.24532 49.1922 4.01646 48.812 3.9594 48.3896C3.91826 47.8534 4.03903 47.3172 4.30607 46.8504C3.94341 46.5709 3.54554 46.2573 3.31514 46.0493C2.32847 45.2461 2.98341 44.0898 3.37381 43.3997C3.51781 43.1448 3.68421 42.8525 3.84314 42.5112C3.98997 42.1725 4.03231 41.7978 3.96474 41.4349C3.91034 41.1587 3.137 40.764 2.67514 40.5272C2.28943 40.3447 1.91946 40.1306 1.56901 39.8872C0.805184 39.4542 0.247466 38.7324 0.0212716 37.884C-0.149395 36.7842 0.661272 35.6877 1.43461 34.7458C3.259 32.3935 4.82366 29.8507 6.10127 27.1618C6.1826 27.0162 6.24361 26.8601 6.28261 26.6978C6.28261 26.4045 5.93594 26.0664 5.41434 25.5885C4.62654 25.0065 4.0748 24.1602 3.8602 23.2045C3.79927 22.5957 3.89626 21.9815 4.14181 21.421C4.35865 20.8877 4.95966 20.6227 5.49972 20.8223C6.03978 21.0219 6.32396 21.6141 6.14181 22.1602C6.03685 22.3956 5.97923 22.6493 5.97221 22.9069C6.02021 23.2536 6.42661 23.6269 6.85754 24.0226C7.73759 24.6449 8.30576 25.6171 8.41594 26.6893C8.39559 27.1947 8.25518 27.6879 8.00634 28.1282C6.6682 30.9382 5.02986 33.5951 3.11994 36.0525C2.30714 37.0413 2.1386 37.4392 2.13327 37.5949C2.33102 37.7858 2.54518 37.9589 2.77327 38.1122C3.05157 38.3072 3.34596 38.4782 3.65327 38.6232C4.56314 39.0882 5.81007 39.7261 6.06607 41.0285C6.21824 41.8346 6.11881 42.668 5.78127 43.4157C5.59461 43.8104 5.40367 44.1517 5.23621 44.4461C5.18394 44.5378 5.12954 44.6402 5.07621 44.733C5.51887 45.0882 6.12154 45.5405 6.37754 45.7293C6.61053 45.9016 6.76342 46.1612 6.80104 46.4485C6.83867 46.7358 6.75779 47.0261 6.57701 47.2525C6.41856 47.4587 6.28066 47.6798 6.16527 47.9128L6.38607 48.0397C7.33023 48.4452 8.05128 49.2414 8.36154 50.2211C8.51792 50.9738 8.48604 51.7535 8.26874 52.4909C8.21967 52.7138 8.16847 52.9368 8.14074 53.1597C8.07774 53.8049 8.16349 54.4558 8.39141 55.0627C8.62415 56.0479 9.59258 56.6742 10.5866 56.4824C13.6954 55.7359 16.7583 54.8099 19.7599 53.7091C20.3158 53.5174 20.9219 53.8117 21.1151 54.3671C21.3082 54.9224 21.0155 55.5293 20.4607 55.724C17.3738 56.8565 14.2228 57.8057 11.0239 58.5667C10.7349 58.6304 10.4399 58.6637 10.1439 58.6659ZM4.70394 44.4354C4.71532 44.4454 4.72705 44.4561 4.73914 44.4674C4.72933 44.4543 4.71825 44.4422 4.70607 44.4312L4.70394 44.4354Z" fill="#428DFF"/>
<path id="Shape_19" d="M11.7867 8.47922C11.3606 8.47937 10.9753 8.22597 10.8067 7.8347C10.6381 7.44343 10.7185 6.98935 11.0112 6.67976C13.3973 4.15922 16.8928 2.46856 21.7013 1.51389C25.0997 0.76832 28.5483 0.273124 32.0192 0.0322896C35.0056 -0.139841 37.998 0.243164 40.8448 1.16189C41.2147 1.27437 41.4947 1.57815 41.5768 1.95592C41.6589 2.33369 41.5301 2.72631 41.2403 2.98212C40.9505 3.23794 40.5449 3.31692 40.1803 3.18856C37.5826 2.35055 34.8517 2.00296 32.1269 2.16349C28.7615 2.39968 25.4179 2.88131 22.1227 3.60456C17.8176 4.45789 14.6027 5.98749 12.5611 8.14642C12.3596 8.35897 12.0795 8.47931 11.7867 8.47922Z" fill="#428DFF"/>
<path id="Shape_20" d="M25.3652 63.9985C24.8737 63.9982 24.446 63.6621 24.3295 63.1846C23.9156 61.4993 22.2719 56.8667 19.6671 55.6902C19.2681 55.5098 19.0199 55.104 19.0411 54.6666C19.0622 54.2293 19.3485 53.8493 19.7631 53.7083C20.8916 53.3243 21.9135 52.9681 22.7124 52.6886C23.4324 52.4369 23.9743 52.2481 24.258 52.1553C28.6943 50.7537 29.5914 49.1526 29.5679 48.055C29.5613 47.7715 29.6679 47.4971 29.864 47.2924C30.0602 47.0876 30.3298 46.9694 30.6132 46.9638C31.1992 46.9588 31.683 47.4204 31.7055 48.0059C31.7674 50.6641 29.4826 52.7451 24.9119 54.1926C24.6431 54.2801 24.1172 54.4635 23.4186 54.7067L22.4202 55.0555C24.1801 57.005 25.4642 59.3359 26.1716 61.8651L50.3658 61.7979C50.3423 61.7617 50.3199 61.7265 50.2964 61.6913C49.9883 61.2452 49.7113 60.7783 49.4676 60.2939C48.9367 59.2188 48.494 58.1022 48.1439 56.9553C47.4971 54.7721 47.048 52.5352 46.802 50.2715C46.5522 48.2098 46.6325 46.1214 47.0399 44.0849C47.157 43.5087 47.7183 43.1359 48.2948 43.2515C48.8713 43.367 49.2456 43.9273 49.1316 44.5041C48.768 46.3168 48.696 48.1759 48.9183 50.0113C49.1486 52.1484 49.5709 54.2604 50.1802 56.3217C50.4985 57.3646 50.9012 58.3799 51.3844 59.3574C51.5884 59.758 51.8193 60.1443 52.0756 60.5137C52.5288 61.1352 52.8922 61.8175 53.1551 62.5403C53.2569 62.864 53.1986 63.2168 52.9982 63.4906C52.7977 63.7643 52.4789 63.9263 52.1396 63.927L25.3663 64.0017L25.3652 63.9985Z" fill="#428DFF"/>
<path id="Shape_21" d="M10.8736 19.8028C10.5478 19.8029 10.2399 19.6542 10.0375 19.399C9.83507 19.1438 9.76036 18.8101 9.83462 18.4929L9.94129 18.0311C10.1475 17.0543 10.4111 16.0905 10.7306 15.1447C11.4726 13.092 12.6216 11.2105 14.1088 9.61292C15.7437 8.03684 17.7573 6.90866 19.9552 6.33719C20.3199 6.22629 20.716 6.31838 20.9944 6.57877C21.2728 6.83916 21.3911 7.22829 21.3048 7.59957C21.2185 7.97086 20.9407 8.26789 20.576 8.37879C18.734 8.84527 17.0417 9.77456 15.6597 11.0785C14.3709 12.4654 13.3751 14.0979 12.7317 15.8785C12.4441 16.7421 12.2062 17.6214 12.0192 18.5121L11.9125 18.9761C11.8008 19.4599 11.3701 19.8026 10.8736 19.8028Z" fill="#A4C2F7"/>
<path id="Oval_2" d="M9.59999 23.4654C10.1891 23.4654 10.6667 22.9878 10.6667 22.3987C10.6667 21.8096 10.1891 21.332 9.59999 21.332C9.01089 21.332 8.53333 21.8096 8.53333 22.3987C8.53333 22.9878 9.01089 23.4654 9.59999 23.4654Z" fill="#A4C2F7"/>
<path id="Shape_22" d="M56.4064 25.2689C55.9472 25.2689 55.5396 24.9751 55.3944 24.5395C55.2492 24.1039 55.399 23.6243 55.7663 23.3489C57.8454 21.7971 59.7717 20.0506 61.5189 18.1329C59.7722 16.216 57.8467 14.4701 55.7685 12.919C55.4627 12.6915 55.3014 12.3181 55.3456 11.9395C55.3897 11.5609 55.6324 11.2346 55.9824 11.0835C56.3323 10.9324 56.7363 10.9795 57.0421 11.207C59.5117 13.03 61.7661 15.1278 63.7621 17.4598C64.081 17.8518 64.081 18.4139 63.7621 18.8059C61.7661 21.138 59.5117 23.2357 57.0421 25.0587C56.8582 25.1952 56.6353 25.2689 56.4064 25.2689Z" fill="#428DFF"/>
<path id="Shape_23" d="M26.7935 25.2682C26.5627 25.2682 26.3381 25.1933 26.1535 25.0548C23.6839 23.2318 21.4295 21.134 19.4335 18.802C19.1146 18.41 19.1146 17.8479 19.4335 17.4559C21.4295 15.1239 23.6839 13.0261 26.1535 11.2031C26.4593 10.9756 26.8633 10.9285 27.2132 11.0796C27.5632 11.2307 27.8059 11.557 27.85 11.9356C27.8941 12.3142 27.7329 12.6876 27.4271 12.9151C25.3502 14.4675 23.4261 16.2144 21.681 18.1322C23.4276 20.049 25.3531 21.7949 27.4314 23.346C27.7987 23.6215 27.9485 24.1011 27.8033 24.5367C27.6581 24.9722 27.2505 25.266 26.7914 25.266L26.7935 25.2682Z" fill="#428DFF"/>
<path id="Shape_24" d="M42.3359 7.48766C42.2892 7.48748 42.2426 7.48463 42.1962 7.47913C42.1539 7.47697 42.1115 7.47697 42.0692 7.47913C41.8634 7.46633 41.7375 7.46633 41.5999 7.46633C41.4623 7.46633 41.3365 7.46633 41.1989 7.47486C41.0922 7.47486 41.0453 7.47486 41.0037 7.47486C40.7004 7.50991 40.3965 7.41478 40.1673 7.21308C39.9382 7.01137 39.8052 6.72199 39.8015 6.41673C39.8005 5.85212 40.2396 5.3845 40.8031 5.35006C40.9098 5.34046 41.0165 5.33833 41.1306 5.33833C41.4662 5.31691 41.8029 5.31691 42.1386 5.33833C42.2372 5.33648 42.3359 5.34075 42.4341 5.35113C42.9795 5.40941 43.3933 5.86928 43.394 6.41779C43.3958 7.00483 42.9229 7.48297 42.3359 7.48766Z" fill="#428DFF"/>
<path id="Shape_25" d="M41.6 30.9321C41.4805 30.9321 41.3525 30.9321 41.2299 30.9236C41.0875 30.9264 40.9451 30.9217 40.8032 30.9097C40.2141 30.8664 39.7716 30.3537 39.8149 29.7646C39.8582 29.1755 40.3709 28.7331 40.96 28.7764C41.0203 28.7859 41.0814 28.7898 41.1424 28.7881C41.2053 28.7838 41.2683 28.7838 41.3312 28.7881C41.4187 28.7988 41.5147 28.7988 41.6 28.7988C41.6853 28.7988 41.7803 28.7988 41.8677 28.7924C41.9305 28.786 41.9938 28.786 42.0565 28.7924C42.1118 28.7943 42.1672 28.7911 42.2219 28.7828C42.5228 28.7554 42.8216 28.855 43.0458 29.0576C43.2701 29.2601 43.3994 29.5472 43.4027 29.8494C43.4027 30.4385 42.9251 30.9161 42.336 30.9161H42.3253C42.2073 30.9281 42.0887 30.9323 41.9701 30.9289C41.8475 30.9321 41.7195 30.9321 41.6 30.9321Z" fill="#428DFF"/>
<path id="Shape_26" d="M41.5999 30.932C34.5307 30.932 28.7999 25.2013 28.7999 18.132C28.7999 11.0628 34.5307 5.33203 41.5999 5.33203C48.6692 5.33203 54.3999 11.0628 54.3999 18.132C54.3923 25.1981 48.666 30.9244 41.5999 30.932ZM41.5999 7.46536C35.7089 7.46536 30.9333 12.241 30.9333 18.132C30.9333 24.0231 35.7089 28.7987 41.5999 28.7987C47.491 28.7987 52.2666 24.0231 52.2666 18.132C52.2601 12.2437 47.4883 7.47183 41.5999 7.46536Z" fill="#428DFF"/>
<path id="Shape_27" d="M34.1333 19.1996C33.5442 19.1996 33.0667 18.722 33.0667 18.1329C33.0719 13.4223 36.8893 9.6049 41.6 9.59961C42.1891 9.59961 42.6667 10.0772 42.6667 10.6663C42.6667 11.2554 42.1891 11.7329 41.6 11.7329C38.0668 11.7365 35.2035 14.5998 35.2 18.1329C35.2 18.722 34.7224 19.1996 34.1333 19.1996Z" fill="white"/>
<path id="Shape_28" d="M41.5999 21.3316C39.8326 21.3316 38.3999 19.899 38.3999 18.1316C38.3999 16.3643 39.8326 14.9316 41.5999 14.9316C43.3672 14.9316 44.7999 16.3643 44.7999 18.1316C44.7999 19.899 43.3672 21.3316 41.5999 21.3316ZM41.5999 17.065C41.0108 17.065 40.5332 17.5425 40.5332 18.1316C40.5332 18.7207 41.0108 19.1983 41.5999 19.1983C42.189 19.1983 42.6666 18.7207 42.6666 18.1316C42.6666 17.5425 42.189 17.065 41.5999 17.065Z" fill="white"/>
<path id="Shape_29" d="M41.6 35.1997C32.1743 35.1997 24.5333 27.5587 24.5333 18.1331C24.5333 8.70741 32.1743 1.06641 41.6 1.06641C51.0257 1.06641 58.6667 8.70741 58.6667 18.1331C58.6555 27.5541 51.021 35.1886 41.6 35.1997ZM41.6 3.19974C33.3525 3.19974 26.6667 9.88562 26.6667 18.1331C26.6667 26.3805 33.3525 33.0664 41.6 33.0664C49.8474 33.0664 56.5333 26.3805 56.5333 18.1331C56.5245 9.88928 49.8438 3.20856 41.6 3.19974Z" fill="#428DFF"/>
<path id="Shape_30" d="M59.2074 52.8838C58.8321 52.8834 58.4585 52.8339 58.096 52.7366C57.0015 52.447 56.0685 51.7314 55.505 50.7494L50.1717 41.5121C49.5832 40.4923 49.9322 39.1885 50.9514 38.599L54.6474 36.4657C55.1376 36.1826 55.7203 36.1059 56.2671 36.2525C56.8138 36.3992 57.2799 36.7571 57.5626 37.2476L62.896 46.4838C63.6575 47.8028 63.6582 49.4276 62.8979 50.7472C62.1376 52.0668 60.7304 52.8811 59.2074 52.8838ZM55.713 38.3121L52.0192 40.4454L57.3525 49.6828C57.721 50.3674 58.4327 50.7974 59.2102 50.805C59.9877 50.8127 60.7077 50.3967 61.0895 49.7194C61.4713 49.042 61.4544 48.2106 61.0453 47.5494L55.713 38.3121Z" fill="#428DFF"/>
<path id="Shape_31" d="M59.2074 52.8838C58.8321 52.8834 58.4585 52.8339 58.096 52.7366C57.0015 52.447 56.0685 51.7314 55.505 50.7494L50.1717 41.5121C49.5832 40.4923 49.9322 39.1885 50.9514 38.599L54.6474 36.4657C55.1376 36.1826 55.7203 36.1059 56.2671 36.2525C56.8138 36.3992 57.2799 36.7571 57.5626 37.2476L62.896 46.4838C63.6575 47.8028 63.6582 49.4276 62.8979 50.7472C62.1376 52.0668 60.7304 52.8811 59.2074 52.8838ZM55.713 38.3121L52.0192 40.4454L57.3525 49.6828C57.721 50.3674 58.4327 50.7974 59.2102 50.805C59.9877 50.8127 60.7077 50.3967 61.0895 49.7194C61.4713 49.042 61.4544 48.2106 61.0453 47.5494L55.713 38.3121Z" fill="#428DFF"/>
<path id="Shape_32" d="M53.3333 39.5227C52.9518 39.523 52.5992 39.3197 52.4085 38.9893L48.6752 32.5221C48.4816 32.1919 48.4798 31.7833 48.6704 31.4514C48.8611 31.1195 49.2149 30.9152 49.5977 30.916C49.9805 30.9169 50.3334 31.1227 50.5226 31.4555L54.256 37.9227C54.4464 38.2525 54.4465 38.6589 54.2562 38.9889C54.066 39.3188 53.7142 39.5223 53.3333 39.5227Z" fill="#428DFF"/>
<path id="Oval_3" d="M45.8666 12.7993C46.4557 12.7993 46.9333 12.3218 46.9333 11.7327C46.9333 11.1436 46.4557 10.666 45.8666 10.666C45.2775 10.666 44.7999 11.1436 44.7999 11.7327C44.7999 12.3218 45.2775 12.7993 45.8666 12.7993Z" fill="white"/>
</g>
</g>
</g>
<defs>
<clipPath id="clip0_21015_62306">
<rect width="64" height="64" fill="white"/>
</clipPath>
</defs>
</svg>
