<svg width="64" height="64" viewBox="0 0 64 64" fill="none" xmlns="http://www.w3.org/2000/svg">
<g clip-path="url(#clip0_19187_89341)">
<path d="M62.9333 51.1995V54.3995C62.9333 57.9341 60.0679 60.7995 56.5333 60.7995H10.6666C7.13198 60.7995 4.2666 57.9341 4.2666 54.3995V51.1995C4.2666 50.6104 4.74416 50.1328 5.33327 50.1328H27.7333V52.2661C27.7333 54.0335 29.166 55.4661 30.9333 55.4661H42.6666C44.4339 55.4661 45.8666 54.0335 45.8666 52.2661V50.1328H61.8666C62.4557 50.1328 62.9333 50.6104 62.9333 51.1995Z" fill="#E8EDFC"/>
<path d="M27.7332 55.4661H30.9332C29.1659 55.4661 27.7332 54.0335 27.7332 52.2661V50.1328H24.5332V52.2661C24.5332 54.0335 25.9659 55.4661 27.7332 55.4661Z" fill="#CAD9FC"/>
<path d="M61.8668 50.1328H58.6668C59.2559 50.1328 59.7335 50.6104 59.7335 51.1995V54.3995C59.7335 57.9341 56.8681 60.7995 53.3335 60.7995H56.5335C60.0681 60.7995 62.9335 57.9341 62.9335 54.3995V51.1995C62.9335 50.6104 62.4559 50.1328 61.8668 50.1328Z" fill="#CAD9FC"/>
<path d="M45.8667 50.1328V52.2661C45.8667 54.0335 44.434 55.4661 42.6667 55.4661H30.9334C29.1661 55.4661 27.7334 54.0335 27.7334 52.2661V50.1328H45.8667Z" fill="#CAD9FC"/>
<path d="M42.6668 50.1328V52.2661C42.6668 54.0335 41.2341 55.4661 39.4668 55.4661H42.6668C44.4341 55.4661 45.8668 54.0335 45.8668 52.2661V50.1328H42.6668Z" fill="#A4C2F7"/>
<path d="M53.3335 45.8655V50.1322H5.3335V15.9988C5.3335 14.2315 6.76618 12.7988 8.5335 12.7988H9.60016V41.5988C9.59875 42.7309 10.0478 43.8169 10.8483 44.6174C11.6487 45.4178 12.7348 45.8669 13.8668 45.8655H53.3335Z" fill="#CAD9FC"/>
<path d="M50.1333 45.8652H53.3333V50.1319H50.1333V45.8652Z" fill="#A4C2F7"/>
<path d="M56.7041 45.8659H13.8668C12.7348 45.8673 11.6487 45.4182 10.8482 44.6178C10.0478 43.8173 9.59872 42.7312 9.60013 41.5992V7.46589C9.60271 5.1864 7.81305 3.30749 5.53613 3.19922H51.2001C53.5566 3.19922 55.4668 5.10947 55.4668 7.46589V41.5992C55.4629 42.8949 56.0524 44.1211 57.0668 44.9272C57.2389 45.0742 57.2995 45.3139 57.218 45.525C57.1364 45.7362 56.9304 45.8728 56.7041 45.8659Z" fill="#E8EDFC"/>
<path d="M57.0667 44.9272C56.0523 44.1211 55.4628 42.8949 55.4667 41.5992V7.46589C55.4667 5.10947 53.5564 3.19922 51.2 3.19922H48C50.3564 3.19922 52.2667 5.10947 52.2667 7.46589V41.5992C52.2628 42.8949 52.8523 44.1211 53.8667 44.9272C54.0388 45.0742 54.0994 45.3139 54.0178 45.525C53.9362 45.7362 53.7303 45.8728 53.504 45.8659H56.704C56.9303 45.8728 57.1362 45.7362 57.2178 45.525C57.2994 45.3139 57.2388 45.0742 57.0667 44.9272Z" fill="#CAD9FC"/>
<path d="M9.60019 7.46589V12.7992H8.53352C6.76621 12.7992 5.33352 14.2319 5.33352 15.9992V30.9326H3.20019C2.02344 30.929 1.07037 29.976 1.06685 28.7992V7.71122C1.03298 5.30013 2.9243 3.30005 5.33352 3.19922H5.53619C7.8131 3.30749 9.60276 5.1864 9.60019 7.46589Z" fill="#E8EDFC"/>
<path d="M6.40019 30.9326C5.22344 30.929 4.27037 29.976 4.26685 28.7992V7.71122C4.23298 5.30013 6.1243 3.30005 8.53352 3.19922H5.33352C2.9243 3.30005 1.03298 5.30013 1.06685 7.71122V28.7992C1.07037 29.976 2.02344 30.929 3.20019 30.9326H5.33352" fill="white"/>
<path d="M0 7.71094H2.13333V16.2443H0V7.71094Z" fill="white"/>
<path d="M0 7.70703H2.13333V16.2404H0V7.70703Z" fill="white"/>
<path d="M61.8667 49.0661H54.4V46.9328H56.7061C57.3912 46.9303 58.0005 46.4966 58.2272 45.8501C58.4567 45.22 58.2574 44.5137 57.7323 44.0965C56.9729 43.4904 56.5315 42.5711 56.5333 41.5995V7.46615C56.5298 4.52209 54.1441 2.13634 51.2 2.13281H5.33333C5.28473 2.13912 5.23662 2.14874 5.18933 2.16161C3.90937 2.19962 2.68914 2.71166 1.76533 3.59841C0.775335 4.55626 0.166306 5.84064 0.0512 7.21335C0.0233322 7.29506 0.00612343 7.38003 0 7.46615V7.71148C0 8.30058 0.477563 8.77815 1.06667 8.77815C1.65577 8.77815 2.13333 8.30058 2.13333 7.71148C2.13583 6.7403 2.53457 5.8122 3.23733 5.14188C3.8316 4.548 4.64755 4.23036 5.48693 4.26615C7.19521 4.34551 8.53803 5.75603 8.53333 7.46615V11.7328C6.17692 11.7328 4.26667 13.6431 4.26667 15.9995V29.8661H3.2C2.6109 29.8661 2.13333 29.3886 2.13333 28.7995V16.2395C2.13333 15.6504 1.65577 15.1728 1.06667 15.1728C0.477563 15.1728 0 15.6504 0 16.2395V28.7995C0 30.5668 1.43269 31.9995 3.2 31.9995H4.26667V49.3627C3.6088 49.7407 3.20229 50.4407 3.2 51.1995V54.3995C3.2047 58.5213 6.54489 61.8614 10.6667 61.8661H56.5333C60.6551 61.8614 63.9953 58.5213 64 54.3995V51.1995C64 50.0213 63.0449 49.0661 61.8667 49.0661ZM54.4 7.46615V41.5995C54.3978 42.7538 54.7723 43.8774 55.4667 44.7995H13.8667C12.0994 44.7995 10.6667 43.3668 10.6667 41.5995V7.46615C10.6606 6.30867 10.2763 5.18491 9.57227 4.26615H51.2C52.9673 4.26615 54.4 5.69883 54.4 7.46615ZM6.4 15.9995C6.4 14.8213 7.35513 13.8661 8.53333 13.8661V41.5995C8.53686 44.5435 10.9226 46.9293 13.8667 46.9328H52.2667V49.0661H6.4V15.9995ZM28.8 51.1995H44.8V52.2661C44.8 53.4444 43.8449 54.3995 42.6667 54.3995H30.9333C29.7551 54.3995 28.8 53.4444 28.8 52.2661V51.1995ZM61.8667 54.3995C61.8631 57.3435 59.4774 59.7293 56.5333 59.7328H10.6667C7.72261 59.7293 5.33686 57.3435 5.33333 54.3995V51.1995H26.6667V52.2661C26.6667 54.6226 28.5769 56.5328 30.9333 56.5328H42.6667C45.0231 56.5328 46.9333 54.6226 46.9333 52.2661V51.1995H61.8667V54.3995Z" fill="#428DFF"/>
<path d="M19.1998 53.332H15.9998C15.4107 53.332 14.9331 53.8096 14.9331 54.3987C14.9331 54.9878 15.4107 55.4654 15.9998 55.4654H19.1998C19.7889 55.4654 20.2664 54.9878 20.2664 54.3987C20.2664 53.8096 19.7889 53.332 19.1998 53.332Z" fill="#428DFF"/>
<path d="M9.59987 55.4654C10.189 55.4654 10.6665 54.9878 10.6665 54.3987C10.6665 53.8096 10.189 53.332 9.59987 53.332C9.01077 53.332 8.5332 53.8096 8.5332 54.3987C8.5332 54.9878 9.01077 55.4654 9.59987 55.4654Z" fill="#428DFF"/>
<path d="M12.8001 55.4654C13.3892 55.4654 13.8667 54.9878 13.8667 54.3987C13.8667 53.8096 13.3892 53.332 12.8001 53.332C12.211 53.332 11.7334 53.8096 11.7334 54.3987C11.7334 54.9878 12.211 55.4654 12.8001 55.4654Z" fill="#428DFF"/>
<path d="M1.08813 13.0435C0.499023 13.0464 0.0190724 12.5713 0.0161269 11.9822C0.0131814 11.3931 0.488357 10.9131 1.07746 10.9102H1.08813C1.67723 10.9102 2.15479 11.3877 2.15479 11.9768C2.15479 12.5659 1.67723 13.0435 1.08813 13.0435Z" fill="#428DFF"/>
<path d="M15.9998 11.7329H19.1998C19.7889 11.7329 20.2664 11.2554 20.2664 10.6663C20.2664 10.0772 19.7889 9.59961 19.1998 9.59961H15.9998C15.4107 9.59961 14.9331 10.0772 14.9331 10.6663C14.9331 11.2554 15.4107 11.7329 15.9998 11.7329Z" fill="#428DFF"/>
<path d="M50.1332 9.59961H23.4666C22.8775 9.59961 22.3999 10.0772 22.3999 10.6663C22.3999 11.2554 22.8775 11.7329 23.4666 11.7329H50.1332C50.7223 11.7329 51.1999 11.2554 51.1999 10.6663C51.1999 10.0772 50.7223 9.59961 50.1332 9.59961Z" fill="#428DFF"/>
<path d="M15.9998 17.0669H19.1998C19.7889 17.0669 20.2664 16.5894 20.2664 16.0003C20.2664 15.4112 19.7889 14.9336 19.1998 14.9336H15.9998C15.4107 14.9336 14.9331 15.4112 14.9331 16.0003C14.9331 16.5894 15.4107 17.0669 15.9998 17.0669Z" fill="#428DFF"/>
<path d="M50.1332 14.9336H23.4666C22.8775 14.9336 22.3999 15.4112 22.3999 16.0003C22.3999 16.5894 22.8775 17.0669 23.4666 17.0669H50.1332C50.7223 17.0669 51.1999 16.5894 51.1999 16.0003C51.1999 15.4112 50.7223 14.9336 50.1332 14.9336Z" fill="#428DFF"/>
<path d="M50.1334 20.2656H46.9334C46.3443 20.2656 45.8667 20.7432 45.8667 21.3323C45.8667 21.9214 46.3443 22.399 46.9334 22.399H50.1334C50.7225 22.399 51.2 21.9214 51.2 21.3323C51.2 20.7432 50.7225 20.2656 50.1334 20.2656Z" fill="#428DFF"/>
<path d="M15.9998 22.399H42.6664C43.2555 22.399 43.7331 21.9214 43.7331 21.3323C43.7331 20.7432 43.2555 20.2656 42.6664 20.2656H15.9998C15.4107 20.2656 14.9331 20.7432 14.9331 21.3323C14.9331 21.9214 15.4107 22.399 15.9998 22.399Z" fill="#428DFF"/>
<path d="M15.9998 27.7329H19.1998C19.7889 27.7329 20.2664 27.2554 20.2664 26.6663C20.2664 26.0772 19.7889 25.5996 19.1998 25.5996H15.9998C15.4107 25.5996 14.9331 26.0772 14.9331 26.6663C14.9331 27.2554 15.4107 27.7329 15.9998 27.7329Z" fill="#428DFF"/>
<path d="M50.1332 25.5996H23.4666C22.8775 25.5996 22.3999 26.0772 22.3999 26.6663C22.3999 27.2554 22.8775 27.7329 23.4666 27.7329H50.1332C50.7223 27.7329 51.1999 27.2554 51.1999 26.6663C51.1999 26.0772 50.7223 25.5996 50.1332 25.5996Z" fill="#428DFF"/>
<path d="M50.1334 30.9336H46.9334C46.3443 30.9336 45.8667 31.4112 45.8667 32.0003C45.8667 32.5894 46.3443 33.0669 46.9334 33.0669H50.1334C50.7225 33.0669 51.2 32.5894 51.2 32.0003C51.2 31.4112 50.7225 30.9336 50.1334 30.9336Z" fill="#428DFF"/>
<path d="M15.9998 33.0669H42.6664C43.2555 33.0669 43.7331 32.5894 43.7331 32.0003C43.7331 31.4112 43.2555 30.9336 42.6664 30.9336H15.9998C15.4107 30.9336 14.9331 31.4112 14.9331 32.0003C14.9331 32.5894 15.4107 33.0669 15.9998 33.0669Z" fill="#428DFF"/>
<path d="M19.1998 36.2656H15.9998C15.4107 36.2656 14.9331 36.7432 14.9331 37.3323C14.9331 37.9214 15.4107 38.399 15.9998 38.399H19.1998C19.7889 38.399 20.2664 37.9214 20.2664 37.3323C20.2664 36.7432 19.7889 36.2656 19.1998 36.2656Z" fill="#428DFF"/>
<path d="M50.1332 36.2656H23.4666C22.8775 36.2656 22.3999 36.7432 22.3999 37.3323C22.3999 37.9214 22.8775 38.399 23.4666 38.399H50.1332C50.7223 38.399 51.1999 37.9214 51.1999 37.3323C51.1999 36.7432 50.7223 36.2656 50.1332 36.2656Z" fill="#428DFF"/>
</g>
<defs>
<clipPath id="clip0_19187_89341">
<rect width="64" height="64" fill="white"/>
</clipPath>
</defs>
</svg>
