<svg width="65" height="64" viewBox="0 0 65 64" fill="none" xmlns="http://www.w3.org/2000/svg">
<g clip-path="url(#clip0_19187_89455)">
<path d="M44.0671 4.26562H5.66706C3.31064 4.26562 1.40039 6.17588 1.40039 8.53229V53.3323C1.40039 55.6887 3.31064 57.599 5.66706 57.599H33.4004V42.6656L26.5417 37.4816C26.159 37.1946 25.9337 36.7441 25.9337 36.2656C25.9337 35.7872 26.159 35.3367 26.5417 35.0496L33.4004 29.8656V26.6656C33.4039 25.4889 34.357 24.5358 35.5337 24.5323H48.3337V8.53229C48.3337 6.17588 46.4235 4.26562 44.0671 4.26562ZM9.93372 14.9323C8.00563 14.9289 6.31942 13.6328 5.82014 11.7705C5.32086 9.90817 6.13259 7.94242 7.80039 6.97496H12.0671C13.7349 7.94242 14.5466 9.90817 14.0473 11.7705C13.548 13.6328 11.8618 14.9289 9.93372 14.9323ZM24.8671 14.9323C22.939 14.9289 21.2528 13.6328 20.7535 11.7705C20.2542 9.90817 21.0659 7.94242 22.7337 6.97496H27.0004C28.6682 7.94242 29.4799 9.90817 28.9806 11.7705C28.4814 13.6328 26.7951 14.9289 24.8671 14.9323ZM39.8004 14.9323C37.8723 14.9289 36.1861 13.6328 35.6868 11.7705C35.1875 9.90817 35.9993 7.94242 37.6671 6.97496H41.9337C43.6015 7.94242 44.4133 9.90817 43.914 11.7705C43.4147 13.6328 41.7285 14.9289 39.8004 14.9323Z" fill="#E8EDFC"/>
<path d="M44.0672 4.26562H40.8672C43.2236 4.26562 45.1339 6.17588 45.1339 8.53229V24.5323H48.3339V8.53229C48.3339 6.17588 46.4236 4.26562 44.0672 4.26562Z" fill="#CAD9FC"/>
<path d="M30.2006 26.6665V29.8665L23.3419 35.0505C22.9591 35.3376 22.7339 35.7881 22.7339 36.2665C22.7339 36.745 22.9591 37.1955 23.3419 37.4825L30.2006 42.6665V57.5999H33.4006V42.6665L26.5419 37.4825C26.1591 37.1955 25.9339 36.745 25.9339 36.2665C25.9339 35.7881 26.1591 35.3376 26.5419 35.0505L33.4006 29.8665V26.6665C33.4041 25.4898 34.3571 24.5367 35.5339 24.5332H32.3339C31.1571 24.5367 30.2041 25.4898 30.2006 26.6665Z" fill="#CAD9FC"/>
<path d="M12.067 3.19974C12.067 2.02153 11.1118 1.06641 9.93363 1.06641C8.75542 1.06641 7.80029 2.02153 7.80029 3.19974V8.53307C7.80029 9.71128 8.75542 10.6664 9.93363 10.6664C11.1118 10.6664 12.067 9.71128 12.067 8.53307V3.19974Z" fill="#CAD9FC"/>
<path d="M27.0006 3.19974C27.0006 2.02153 26.0454 1.06641 24.8672 1.06641C23.689 1.06641 22.7339 2.02153 22.7339 3.19974V8.53307C22.7339 9.71128 23.689 10.6664 24.8672 10.6664C26.0454 10.6664 27.0006 9.71128 27.0006 8.53307V3.19974Z" fill="#CAD9FC"/>
<path d="M41.9337 3.19974C41.9337 2.02153 40.9785 1.06641 39.8003 1.06641C38.6221 1.06641 37.667 2.02153 37.667 3.19974V8.53307C37.667 9.71128 38.6221 10.6664 39.8003 10.6664C40.9785 10.6664 41.9337 9.71128 41.9337 8.53307V3.19974Z" fill="#CAD9FC"/>
<path d="M12.067 19.1992H7.80033C6.62212 19.1992 5.66699 20.1543 5.66699 21.3326V25.5992C5.66699 26.7774 6.62212 27.7326 7.80033 27.7326H12.067C13.2452 27.7326 14.2003 26.7774 14.2003 25.5992V21.3326C14.2003 20.1543 13.2452 19.1992 12.067 19.1992Z" fill="#E8EDFC"/>
<path d="M27.0001 19.1992H22.7334C21.5552 19.1992 20.6001 20.1543 20.6001 21.3326V25.5992C20.6001 26.7774 21.5552 27.7326 22.7334 27.7326H27.0001C28.1783 27.7326 29.1334 26.7774 29.1334 25.5992V21.3326C29.1334 20.1543 28.1783 19.1992 27.0001 19.1992Z" fill="#E8EDFC"/>
<path d="M12.067 32H7.80033C6.62212 32 5.66699 32.9551 5.66699 34.1333V38.4C5.66699 39.5782 6.62212 40.5333 7.80033 40.5333H12.067C13.2452 40.5333 14.2003 39.5782 14.2003 38.4V34.1333C14.2003 32.9551 13.2452 32 12.067 32Z" fill="#E8EDFC"/>
<path d="M28.9308 39.296C28.5824 40.0487 27.8295 40.5312 27.0001 40.5333H22.7334C21.5567 40.5298 20.6036 39.5767 20.6001 38.4V34.1333C20.6036 32.9566 21.5567 32.0035 22.7334 32H27.0001C27.8295 32.0021 28.5824 32.4847 28.9308 33.2373" fill="#E8EDFC"/>
<path d="M12.067 44.7988H7.80033C6.62212 44.7988 5.66699 45.754 5.66699 46.9322V51.1988C5.66699 52.377 6.62212 53.3322 7.80033 53.3322H12.067C13.2452 53.3322 14.2003 52.377 14.2003 51.1988V46.9322C14.2003 45.754 13.2452 44.7988 12.067 44.7988Z" fill="#E8EDFC"/>
<path d="M27.0001 44.7988H22.7334C21.5552 44.7988 20.6001 45.754 20.6001 46.9322V51.1988C20.6001 52.377 21.5552 53.3322 22.7334 53.3322H27.0001C28.1783 53.3322 29.1334 52.377 29.1334 51.1988V46.9322C29.1334 45.754 28.1783 44.7988 27.0001 44.7988Z" fill="#E8EDFC"/>
<path d="M35.5337 24.5326V21.3326C35.5372 20.1558 36.4903 19.2027 37.667 19.1992H41.9337C43.1104 19.2027 44.0635 20.1558 44.067 21.3326V24.5326" fill="#E8EDFC"/>
<path d="M63.2669 26.6665V60.7999C63.2634 61.9766 62.3103 62.9297 61.1336 62.9332H35.5336C34.3568 62.9297 33.4038 61.9766 33.4003 60.7999V42.6665L26.5416 37.4825C26.1588 37.1955 25.9336 36.745 25.9336 36.2665C25.9336 35.7881 26.1588 35.3376 26.5416 35.0505L33.4003 29.8665V26.6665C33.4038 25.4898 34.3568 24.5367 35.5336 24.5332H61.1336C62.3103 24.5367 63.2634 25.4898 63.2669 26.6665Z" fill="white"/>
<path d="M61.1336 24.5332H57.9336C59.1103 24.5367 60.0634 25.4898 60.0669 26.6665V60.7999C60.0634 61.9766 59.1103 62.9297 57.9336 62.9332H61.1336C62.3103 62.9297 63.2634 61.9766 63.2669 60.7999V26.6665C63.2634 25.4898 62.3103 24.5367 61.1336 24.5332Z" fill="#E8EDFC"/>
<path d="M7.80039 4.26758H5.66706C3.31064 4.26758 1.40039 6.17783 1.40039 8.53425V53.3342C1.40039 55.6907 3.31064 57.6009 5.66706 57.6009H8.86706C6.51064 57.6009 4.60039 55.6907 4.60039 53.3342V8.53425C4.60039 6.17783 6.51064 4.26758 8.86706 4.26758H7.80039Z" fill="white"/>
<path d="M0.333496 8.5332H2.46683V17.0665H0.333496V8.5332Z" fill="white"/>
<path d="M42.3602 31.1469L38.8338 33.7923L38.421 33.3795C38.0024 32.9752 37.3371 32.981 36.9257 33.3925C36.5143 33.8039 36.5085 34.4692 36.9127 34.8877L37.9794 35.9544C38.3547 36.3297 38.9488 36.372 39.3735 36.0536L43.6402 32.8536C43.945 32.625 44.1048 32.251 44.0592 31.8727C44.0136 31.4943 43.7696 31.169 43.4192 31.0193C43.0687 30.8696 42.665 30.9183 42.3602 31.1469Z" fill="#428DFF"/>
<path d="M59.0002 33.0664H47.2669C46.6778 33.0664 46.2002 33.544 46.2002 34.1331C46.2002 34.7222 46.6778 35.1997 47.2669 35.1997H59.0002C59.5893 35.1997 60.0669 34.7222 60.0669 34.1331C60.0669 33.544 59.5893 33.0664 59.0002 33.0664Z" fill="#428DFF"/>
<path d="M42.3602 37.5473L38.8338 40.1927L38.421 39.7799C38.0024 39.3756 37.3371 39.3814 36.9257 39.7929C36.5143 40.2043 36.5085 40.8696 36.9127 41.2881L37.9794 42.3548C38.3547 42.7301 38.9488 42.7724 39.3735 42.454L43.6402 39.254C43.945 39.0253 44.1048 38.6514 44.0592 38.2731C44.0136 37.8947 43.7696 37.5694 43.4192 37.4197C43.0687 37.27 42.665 37.3187 42.3602 37.5473Z" fill="#428DFF"/>
<path d="M59.0002 39.4668H47.2669C46.6778 39.4668 46.2002 39.9444 46.2002 40.5335C46.2002 41.1226 46.6778 41.6001 47.2669 41.6001H59.0002C59.5893 41.6001 60.0669 41.1226 60.0669 40.5335C60.0669 39.9444 59.5893 39.4668 59.0002 39.4668Z" fill="#428DFF"/>
<path d="M42.3602 43.9458L38.8338 46.5911L38.421 46.1783C38.0024 45.7741 37.3371 45.7798 36.9257 46.1913C36.5143 46.6027 36.5085 47.268 36.9127 47.6866L37.9794 48.7532C38.3547 49.1286 38.9488 49.1708 39.3735 48.8524L43.6402 45.6524C43.945 45.4238 44.1048 45.0499 44.0592 44.6715C44.0136 44.2932 43.7696 43.9679 43.4192 43.8182C43.0687 43.6685 42.665 43.7171 42.3602 43.9458Z" fill="#428DFF"/>
<path d="M59.0002 45.8672H47.2669C46.6778 45.8672 46.2002 46.3448 46.2002 46.9339C46.2002 47.523 46.6778 48.0005 47.2669 48.0005H59.0002C59.5893 48.0005 60.0669 47.523 60.0669 46.9339C60.0669 46.3448 59.5893 45.8672 59.0002 45.8672Z" fill="#428DFF"/>
<path d="M42.3602 50.3462L38.8338 52.9915L38.421 52.5787C38.0024 52.1745 37.3371 52.1802 36.9257 52.5917C36.5143 53.0031 36.5085 53.6684 36.9127 54.087L37.9794 55.1536C38.3547 55.5289 38.9488 55.5712 39.3735 55.2528L43.6402 52.0528C43.945 51.8242 44.1048 51.4502 44.0592 51.0719C44.0136 50.6936 43.7696 50.3683 43.4192 50.2186C43.0687 50.0689 42.665 50.1175 42.3602 50.3462Z" fill="#428DFF"/>
<path d="M59.0002 52.2676H47.2669C46.6778 52.2676 46.2002 52.7451 46.2002 53.3342C46.2002 53.9233 46.6778 54.4009 47.2669 54.4009H59.0002C59.5893 54.4009 60.0669 53.9233 60.0669 53.3342C60.0669 52.7451 59.5893 52.2676 59.0002 52.2676Z" fill="#428DFF"/>
<path d="M7.8001 28.7995H12.0668C13.8341 28.7995 15.2668 27.3668 15.2668 25.5995V21.3328C15.2668 19.5655 13.8341 18.1328 12.0668 18.1328H7.8001C6.03279 18.1328 4.6001 19.5655 4.6001 21.3328V25.5995C4.6001 27.3668 6.03279 28.7995 7.8001 28.7995ZM6.73343 21.3328C6.73343 20.7437 7.21099 20.2661 7.8001 20.2661H12.0668C12.6559 20.2661 13.1334 20.7437 13.1334 21.3328V25.5995C13.1334 26.1886 12.6559 26.6661 12.0668 26.6661H7.8001C7.21099 26.6661 6.73343 26.1886 6.73343 25.5995V21.3328Z" fill="#428DFF"/>
<path d="M22.7337 28.7995H27.0004C28.7677 28.7995 30.2004 27.3668 30.2004 25.5995V21.3328C30.2004 19.5655 28.7677 18.1328 27.0004 18.1328H22.7337C20.9664 18.1328 19.5337 19.5655 19.5337 21.3328V25.5995C19.5337 27.3668 20.9664 28.7995 22.7337 28.7995ZM21.667 21.3328C21.667 20.7437 22.1446 20.2661 22.7337 20.2661H27.0004C27.5895 20.2661 28.067 20.7437 28.067 21.3328V25.5995C28.067 26.1886 27.5895 26.6661 27.0004 26.6661H22.7337C22.1446 26.6661 21.667 26.1886 21.667 25.5995V21.3328Z" fill="#428DFF"/>
<path d="M4.6001 38.4003C4.6001 40.1676 6.03279 41.6003 7.8001 41.6003H12.0668C13.8341 41.6003 15.2668 40.1676 15.2668 38.4003V34.1336C15.2668 32.3663 13.8341 30.9336 12.0668 30.9336H7.8001C6.03279 30.9336 4.6001 32.3663 4.6001 34.1336V38.4003ZM6.73343 34.1336C6.73343 33.5445 7.21099 33.0669 7.8001 33.0669H12.0668C12.6559 33.0669 13.1334 33.5445 13.1334 34.1336V38.4003C13.1334 38.9894 12.6559 39.4669 12.0668 39.4669H7.8001C7.21099 39.4669 6.73343 38.9894 6.73343 38.4003V34.1336Z" fill="#428DFF"/>
<path d="M4.6001 51.1991C4.6001 52.9664 6.03279 54.3991 7.8001 54.3991H12.0668C13.8341 54.3991 15.2668 52.9664 15.2668 51.1991V46.9324C15.2668 45.1651 13.8341 43.7324 12.0668 43.7324H7.8001C6.03279 43.7324 4.6001 45.1651 4.6001 46.9324V51.1991ZM6.73343 46.9324C6.73343 46.3433 7.21099 45.8658 7.8001 45.8658H12.0668C12.6559 45.8658 13.1334 46.3433 13.1334 46.9324V51.1991C13.1334 51.7882 12.6559 52.2658 12.0668 52.2658H7.8001C7.21099 52.2658 6.73343 51.7882 6.73343 51.1991V46.9324Z" fill="#428DFF"/>
<path d="M27.0004 54.3991C28.7677 54.3991 30.2004 52.9664 30.2004 51.1991V46.9324C30.2004 45.1651 28.7677 43.7324 27.0004 43.7324H22.7337C20.9664 43.7324 19.5337 45.1651 19.5337 46.9324V51.1991C19.5337 52.9664 20.9664 54.3991 22.7337 54.3991H27.0004ZM21.667 51.1991V46.9324C21.667 46.3433 22.1446 45.8658 22.7337 45.8658H27.0004C27.5895 45.8658 28.067 46.3433 28.067 46.9324V51.1991C28.067 51.7882 27.5895 52.2658 27.0004 52.2658H22.7337C22.1446 52.2658 21.667 51.7882 21.667 51.1991Z" fill="#428DFF"/>
<path d="M61.1335 23.4667H49.4002V8.53333C49.3966 5.58928 47.0109 3.20353 44.0668 3.2H43.0002C43.0002 1.43269 41.5675 0 39.8002 0C38.0329 0 36.6002 1.43269 36.6002 3.2H28.0668C28.0668 1.43269 26.6341 0 24.8668 0C23.0995 0 21.6668 1.43269 21.6668 3.2H13.1335C13.1335 1.43269 11.7008 0 9.9335 0C8.16619 0 6.7335 1.43269 6.7335 3.2H5.66683C2.72277 3.20353 0.337023 5.58928 0.333496 8.53333C0.333496 9.12244 0.811059 9.6 1.40016 9.6C1.98927 9.6 2.46683 9.12244 2.46683 8.53333C2.46683 6.76602 3.89952 5.33333 5.66683 5.33333H6.7335V6.40853C4.89699 7.78591 4.14791 10.1839 4.87385 12.3617C5.59979 14.5396 7.63787 16.0085 9.9335 16.0085C12.2291 16.0085 14.2672 14.5396 14.9931 12.3617C15.7191 10.1839 14.97 7.78591 13.1335 6.40853V5.33333H21.6668V6.40853C19.8303 7.78591 19.0812 10.1839 19.8072 12.3617C20.5331 14.5396 22.5712 16.0085 24.8668 16.0085C27.1625 16.0085 29.2005 14.5396 29.9265 12.3617C30.6524 10.1839 29.9033 7.78591 28.0668 6.40853V5.33333H36.6002V6.40853C34.7637 7.78591 34.0146 10.1839 34.7405 12.3617C35.4665 14.5396 37.5045 16.0085 39.8002 16.0085C42.0958 16.0085 44.1339 14.5396 44.8598 12.3617C45.5858 10.1839 44.8367 7.78591 43.0002 6.40853V5.33333H44.0668C45.8341 5.33333 47.2668 6.76602 47.2668 8.53333V23.4667H45.1335V21.3333C45.1335 19.566 43.7008 18.1333 41.9335 18.1333H37.6668C35.8995 18.1333 34.4668 19.566 34.4668 21.3333V23.6629C33.1929 24.1133 32.3391 25.3154 32.3335 26.6667V29.3333L29.1335 31.7536C28.548 31.2263 27.7881 30.9341 27.0002 30.9333H22.7335C20.9662 30.9333 19.5335 32.366 19.5335 34.1333V38.4C19.5335 40.1673 20.9662 41.6 22.7335 41.6H27.0002C27.7884 41.5986 28.5483 41.3057 29.1335 40.7776L32.3335 43.2V56.5333H5.66683C3.89952 56.5333 2.46683 55.1006 2.46683 53.3333V17.0667C2.46683 16.4776 1.98927 16 1.40016 16C0.811059 16 0.333496 16.4776 0.333496 17.0667V53.3333C0.337023 56.2774 2.72277 58.6631 5.66683 58.6667H32.3335V60.8C32.3335 62.5673 33.7662 64 35.5335 64H61.1335C62.9008 64 64.3335 62.5673 64.3335 60.8V26.6667C64.3335 24.8994 62.9008 23.4667 61.1335 23.4667ZM8.86683 3.2C8.86683 2.6109 9.34439 2.13333 9.9335 2.13333C10.5226 2.13333 11.0002 2.6109 11.0002 3.2V8.53333C11.0002 9.12244 10.5226 9.6 9.9335 9.6C9.34439 9.6 8.86683 9.12244 8.86683 8.53333V3.2ZM9.9335 13.8667C8.16619 13.8667 6.7335 12.434 6.7335 10.6667C6.74034 10.3075 6.80852 9.95218 6.9351 9.616C7.38581 10.8851 8.58672 11.733 9.9335 11.733C11.2803 11.733 12.4812 10.8851 12.9319 9.616C13.0585 9.95218 13.1267 10.3075 13.1335 10.6667C13.1335 12.434 11.7008 13.8667 9.9335 13.8667ZM23.8002 3.2C23.8002 2.6109 24.2777 2.13333 24.8668 2.13333C25.4559 2.13333 25.9335 2.6109 25.9335 3.2V8.53333C25.9335 9.12244 25.4559 9.6 24.8668 9.6C24.2777 9.6 23.8002 9.12244 23.8002 8.53333V3.2ZM24.8668 13.8667C23.0995 13.8667 21.6668 12.434 21.6668 10.6667C21.6737 10.3075 21.7419 9.95218 21.8684 9.616C22.3191 10.8851 23.5201 11.733 24.8668 11.733C26.2136 11.733 27.4145 10.8851 27.8652 9.616C27.9918 9.95218 28.06 10.3075 28.0668 10.6667C28.0668 12.434 26.6341 13.8667 24.8668 13.8667ZM38.7335 3.2C38.7335 2.6109 39.2111 2.13333 39.8002 2.13333C40.3893 2.13333 40.8668 2.6109 40.8668 3.2V8.53333C40.8668 9.12244 40.3893 9.6 39.8002 9.6C39.2111 9.6 38.7335 9.12244 38.7335 8.53333V3.2ZM39.8002 13.8667C38.0329 13.8667 36.6002 12.434 36.6002 10.6667C36.607 10.3075 36.6752 9.95218 36.8018 9.616C37.2525 10.8851 38.4534 11.733 39.8002 11.733C41.1469 11.733 42.3479 10.8851 42.7986 9.616C42.9251 9.95218 42.9933 10.3075 43.0002 10.6667C43.0002 12.434 41.5675 13.8667 39.8002 13.8667ZM37.6668 20.2667H41.9335C42.5226 20.2667 43.0002 20.7442 43.0002 21.3333V23.4667H36.6002V21.3333C36.6002 20.7442 37.0777 20.2667 37.6668 20.2667ZM27.0002 39.4667H22.7335C22.1444 39.4667 21.6668 38.9891 21.6668 38.4V34.1333C21.6668 33.5442 22.1444 33.0667 22.7335 33.0667H27.0002C27.1092 33.0682 27.2172 33.0873 27.3202 33.1232L25.9015 34.1984C25.251 34.6868 24.8683 35.4527 24.8683 36.2661C24.8683 37.0795 25.251 37.8455 25.9015 38.3339L27.3266 39.4112C27.2215 39.4471 27.1112 39.4658 27.0002 39.4667ZM62.2002 60.8C62.2002 61.3891 61.7226 61.8667 61.1335 61.8667H35.5335C34.9444 61.8667 34.4668 61.3891 34.4668 60.8V38.4C34.4668 37.8109 33.9893 37.3333 33.4002 37.3333C32.8111 37.3333 32.3335 37.8109 32.3335 38.4V40.5237L27.1804 36.6293C27.0658 36.5435 26.9984 36.4088 26.9984 36.2656C26.9984 36.1225 27.0658 35.9877 27.1804 35.9019L32.3335 32.0107V34.1333C32.3335 34.7224 32.8111 35.2 33.4002 35.2C33.9893 35.2 34.4668 34.7224 34.4668 34.1333V26.6667C34.4668 26.0776 34.9444 25.6 35.5335 25.6H61.1335C61.7226 25.6 62.2002 26.0776 62.2002 26.6667V60.8Z" fill="#428DFF"/>
<path d="M1.40016 13.8658C1.98927 13.8658 2.46683 13.3882 2.46683 12.7991C2.46683 12.21 1.98927 11.7324 1.40016 11.7324C0.811059 11.7324 0.333496 12.21 0.333496 12.7991C0.333496 13.3882 0.811059 13.8658 1.40016 13.8658Z" fill="#428DFF"/>
</g>
<defs>
<clipPath id="clip0_19187_89455">
<rect width="64" height="64" fill="white" transform="translate(0.333496)"/>
</clipPath>
</defs>
</svg>
