<svg width="64" height="64" viewBox="0 0 64 64" fill="none" xmlns="http://www.w3.org/2000/svg">
<g id="fi_2232608" clip-path="url(#clip0_21015_62728)">
<g id="Page-1">
<g id="006---Search-Data">
<path id="Shape" d="M56.5333 62.9342H7.46665C3.93203 62.9342 1.06665 60.0689 1.06665 56.5342V53.3342C1.06665 52.7451 1.54421 52.2676 2.13332 52.2676H61.8667C62.4558 52.2676 62.9333 52.7451 62.9333 53.3342V56.5342C62.9333 60.0689 60.0679 62.9342 56.5333 62.9342Z" fill="#E8EDFC"/>
<path id="Shape_2" d="M61.8667 52.2676H58.6667C59.2558 52.2676 59.7334 52.7451 59.7334 53.3342V56.5342C59.7334 60.0689 56.868 62.9342 53.3334 62.9342H56.5334C60.068 62.9342 62.9334 60.0689 62.9334 56.5342V53.3342C62.9334 52.7451 62.4558 52.2676 61.8667 52.2676Z" fill="#CAD9FC"/>
<path id="Shape_3" d="M20.2667 52.2676H43.7334V54.4009C43.7334 56.1682 42.3007 57.6009 40.5334 57.6009H23.4667C21.6994 57.6009 20.2667 56.1682 20.2667 54.4009V52.2676Z" fill="#A4C2F7"/>
<path id="Shape_4" d="M60.8 12.7999V52.2665H3.19995V12.7999C3.19995 10.4435 5.1102 8.5332 7.46662 8.5332H36.064C30.2141 10.869 26.4589 16.6242 26.6772 22.9193C26.8954 29.2144 31.0402 34.6957 37.0378 36.6207C43.0353 38.5458 49.5959 36.5005 53.437 31.5083C57.2781 26.5161 57.5737 19.6505 54.176 14.3465L59.1146 9.40787C60.1772 10.2117 60.8011 11.4675 60.8 12.7999Z" fill="url(#paint0_linear_21015_62728)"/>
<path id="Shape_5" d="M59.1147 9.4082L57.2949 11.2279C57.4958 11.7278 57.5994 12.2615 57.6 12.8002V52.2669H60.8V12.8002C60.8012 11.4678 60.1772 10.212 59.1147 9.4082Z" fill="#A4C2F7"/>
<path id="Shape_6" d="M56.5333 22.4002C56.5346 29.919 50.9456 36.2663 43.4871 37.2164C36.0285 38.1666 29.0267 33.4233 27.1429 26.1443C25.2591 18.8653 29.0809 11.3209 36.064 8.53354C40.5365 6.74496 45.5974 7.22563 49.6533 9.82421C53.9402 12.5695 56.5334 17.3096 56.5333 22.4002Z" fill="#E8EDFC"/>
<path id="Oval" d="M41.6 33.0658C47.4911 33.0658 52.2667 28.2901 52.2667 22.3991C52.2667 16.5081 47.4911 11.7324 41.6 11.7324C35.709 11.7324 30.9333 16.5081 30.9333 22.3991C30.9333 28.2901 35.709 33.0658 41.6 33.0658Z" fill="#A4C2F7"/>
<path id="Shape_7" d="M61.9947 6.52758L54.176 14.3462C53.0113 12.5309 51.4687 10.9883 49.6533 9.82358L57.472 2.00491C58.0712 1.40409 58.8848 1.06641 59.7333 1.06641C60.5818 1.06641 61.3955 1.40409 61.9947 2.00491C63.2425 3.25427 63.2425 5.27822 61.9947 6.52758Z" fill="#A4C2F7"/>
<path id="Shape_8" d="M61.9947 2.0053C60.9739 0.973904 59.3825 0.768612 58.1334 1.50716C58.3753 1.64264 58.5977 1.8102 58.7947 2.0053C60.0425 3.25465 60.0425 5.27861 58.7947 6.52796L52.7841 12.5386C53.2921 13.1047 53.7557 13.7092 54.1707 14.3466L61.9894 6.52796C63.2387 5.28008 63.2411 3.25612 61.9947 2.0053Z" fill="#7FACFA"/>
<path id="Shape_9" d="M7.46665 62.9332H10.6667C7.13203 62.9332 4.26665 60.0678 4.26665 56.5332V53.3332C4.26665 52.7441 4.74421 52.2665 5.33332 52.2665H6.39998V12.7999C6.39998 10.4435 8.31024 8.5332 10.6667 8.5332H7.46665C5.11024 8.5332 3.19998 10.4435 3.19998 12.7999V52.2665H2.13332C1.54421 52.2665 1.06665 52.7441 1.06665 53.3332V56.5332C1.06665 60.0678 3.93203 62.9332 7.46665 62.9332Z" fill="white"/>
<path id="Rectangle-path" d="M2.1333 12.8008H4.26663V21.3341H2.1333V12.8008Z" fill="white"/>
<g id="Group">
<path id="Shape_10" d="M61.8667 51.2001V12.8001C61.8705 11.5555 61.4346 10.3496 60.6357 9.39527L62.7488 7.2822C64.4105 5.61881 64.4134 2.92458 62.7552 1.25767C61.9567 0.4538 60.8709 0.00120348 59.7379 2.39659e-06C58.6048 -0.00119868 57.518 0.449095 56.7179 1.25127L49.4784 8.49074C45.3386 6.12167 40.3513 5.74547 35.9029 7.46674H7.46667C4.52261 7.47026 2.13686 9.85601 2.13333 12.8001C2.13333 13.3892 2.6109 13.8667 3.2 13.8667C3.7891 13.8667 4.26667 13.3892 4.26667 12.8001C4.26667 11.0328 5.69936 9.60007 7.46667 9.60007H32.0405C25.159 14.7264 23.5468 24.3687 28.3863 31.4548C33.2259 38.541 42.7938 40.5477 50.0727 36.0031C57.3515 31.4584 59.7492 21.9809 55.5072 14.5217L59.104 10.9249C59.5095 11.4663 59.7301 12.1237 59.7333 12.8001V51.2001H4.26667V21.3334C4.26667 20.7443 3.7891 20.2667 3.2 20.2667C2.6109 20.2667 2.13333 20.7443 2.13333 21.3334V51.2001C0.955126 51.2001 0 52.1552 0 53.3334V56.5334C0.00470255 60.6552 3.34489 63.9954 7.46667 64.0001H56.5333C60.6551 63.9954 63.9953 60.6552 64 56.5334V53.3334C64 52.1552 63.0449 51.2001 61.8667 51.2001ZM41.6 36.2667C33.9417 36.2667 27.7333 30.0584 27.7333 22.4001C27.7333 14.7417 33.9417 8.5334 41.6 8.5334C49.2584 8.5334 55.4667 14.7417 55.4667 22.4001C55.4579 30.0548 49.2547 36.2579 41.6 36.2667ZM51.2885 9.69714L58.2325 2.75313C59.0753 1.9498 60.4012 1.95262 61.2405 2.75953C62.0719 3.59236 62.0719 4.94111 61.2405 5.77394L54.3072 12.7073C53.4391 11.5743 52.424 10.562 51.2885 9.69714ZM42.6667 53.3334V54.4001C42.6667 55.5783 41.7115 56.5334 40.5333 56.5334H23.4667C22.2885 56.5334 21.3333 55.5783 21.3333 54.4001V53.3334H42.6667ZM61.8667 56.5334C61.8631 59.4775 59.4774 61.8632 56.5333 61.8667H7.46667C4.52261 61.8632 2.13686 59.4775 2.13333 56.5334V53.3334H19.2V54.4001C19.2 56.7565 21.1103 58.6667 23.4667 58.6667H40.5333C42.8898 58.6667 44.8 56.7565 44.8 54.4001V53.3334H61.8667V56.5334Z" fill="#428DFF"/>
<path id="Oval_2" d="M3.19997 18.1333C3.78907 18.1333 4.26663 17.6558 4.26663 17.0667C4.26663 16.4776 3.78907 16 3.19997 16C2.61086 16 2.1333 16.4776 2.1333 17.0667C2.1333 17.6558 2.61086 18.1333 3.19997 18.1333Z" fill="#428DFF"/>
<path id="Shape_11" d="M15.9999 55.4668H12.7999C12.2108 55.4668 11.7333 55.9444 11.7333 56.5335C11.7333 57.1226 12.2108 57.6001 12.7999 57.6001H15.9999C16.589 57.6001 17.0666 57.1226 17.0666 56.5335C17.0666 55.9444 16.589 55.4668 15.9999 55.4668Z" fill="#428DFF"/>
<path id="Oval_3" d="M6.40004 57.6001C6.98914 57.6001 7.46671 57.1226 7.46671 56.5335C7.46671 55.9444 6.98914 55.4668 6.40004 55.4668C5.81094 55.4668 5.33337 55.9444 5.33337 56.5335C5.33337 57.1226 5.81094 57.6001 6.40004 57.6001Z" fill="#428DFF"/>
<path id="Oval_4" d="M9.59999 57.6001C10.1891 57.6001 10.6667 57.1226 10.6667 56.5335C10.6667 55.9444 10.1891 55.4668 9.59999 55.4668C9.01089 55.4668 8.53333 55.9444 8.53333 56.5335C8.53333 57.1226 9.01089 57.6001 9.59999 57.6001Z" fill="#428DFF"/>
<path id="Shape_12" d="M41.6 10.666C35.1199 10.666 29.8667 15.9192 29.8667 22.3993C29.8667 28.8795 35.1199 34.1327 41.6 34.1327C48.0802 34.1327 53.3334 28.8795 53.3334 22.3993C53.3257 15.9224 48.077 10.6737 41.6 10.666ZM41.6 31.9993C36.2981 31.9993 32 27.7013 32 22.3993C32 17.0974 36.2981 12.7993 41.6 12.7993C46.902 12.7993 51.2 17.0974 51.2 22.3993C51.1942 27.6988 46.8995 31.9935 41.6 31.9993Z" fill="#428DFF"/>
<path id="Shape_13" d="M46.9333 22.4V20.2667C46.9333 19.6776 46.4557 19.2 45.8666 19.2C45.2775 19.2 44.8 19.6776 44.8 20.2667V22.4H42.6666V17.0667C42.6666 16.4776 42.1891 16 41.6 16C41.0109 16 40.5333 16.4776 40.5333 17.0667V22.4H38.4V20.2667C38.4 19.6776 37.9224 19.2 37.3333 19.2C36.7442 19.2 36.2666 19.6776 36.2666 20.2667V22.4H35.2C34.6109 22.4 34.1333 22.8776 34.1333 23.4667C34.1333 24.0558 34.6109 24.5333 35.2 24.5333H48C48.5891 24.5333 49.0666 24.0558 49.0666 23.4667C49.0666 22.8776 48.5891 22.4 48 22.4H46.9333Z" fill="#428DFF"/>
<path id="Shape_14" d="M32 42.6671C32.5891 42.6671 33.0667 42.1895 33.0667 41.6004V39.4671C33.0667 38.878 32.5891 38.4004 32 38.4004C31.4109 38.4004 30.9333 38.878 30.9333 39.4671V41.6004C30.9333 42.1895 31.4109 42.6671 32 42.6671Z" fill="#428DFF"/>
<path id="Shape_15" d="M46.9334 42.6668C47.5225 42.6668 48 42.1892 48 41.6001V40.5335C48 39.9444 47.5225 39.4668 46.9334 39.4668C46.3443 39.4668 45.8667 39.9444 45.8667 40.5335V41.6001C45.8667 42.1892 46.3443 42.6668 46.9334 42.6668Z" fill="#428DFF"/>
<path id="Shape_16" d="M16 41.5991C16 42.1882 16.4776 42.6658 17.0667 42.6658C17.6558 42.6658 18.1333 42.1882 18.1333 41.5991V28.7991C18.1333 28.21 17.6558 27.7324 17.0667 27.7324C16.4776 27.7324 16 28.21 16 28.7991V41.5991Z" fill="#428DFF"/>
<path id="Shape_17" d="M8.53336 46.9336H7.46669C6.87759 46.9336 6.40002 47.4112 6.40002 48.0003C6.40002 48.5894 6.87759 49.0669 7.46669 49.0669H56.5334C57.1225 49.0669 57.6 48.5894 57.6 48.0003C57.6 47.4112 57.1225 46.9336 56.5334 46.9336H55.4667V38.4003C55.4667 37.8112 54.9891 37.3336 54.4 37.3336C53.8109 37.3336 53.3334 37.8112 53.3334 38.4003V46.9336H48V45.8669C48 45.2778 47.5225 44.8003 46.9334 44.8003C46.3443 44.8003 45.8667 45.2778 45.8667 45.8669V46.9336H40.5334V41.6003C40.5334 41.0112 40.0558 40.5336 39.4667 40.5336C38.8776 40.5336 38.4 41.0112 38.4 41.6003V46.9336H33.0667V45.8669C33.0667 45.2778 32.5891 44.8003 32 44.8003C31.4109 44.8003 30.9334 45.2778 30.9334 45.8669V46.9336H25.6V35.2003C25.6 34.6112 25.1225 34.1336 24.5334 34.1336C23.9443 34.1336 23.4667 34.6112 23.4667 35.2003V46.9336H18.1334V45.8669C18.1334 45.2778 17.6558 44.8003 17.0667 44.8003C16.4776 44.8003 16 45.2778 16 45.8669V46.9336H10.6667V32.0003C10.6667 31.4112 10.1891 30.9336 9.60002 30.9336C9.01092 30.9336 8.53336 31.4112 8.53336 32.0003V46.9336Z" fill="#428DFF"/>
<path id="Shape_18" d="M9.59999 28.8008C10.1891 28.8008 10.6667 28.3232 10.6667 27.7341V13.8674C10.6667 13.2783 10.1891 12.8008 9.59999 12.8008C9.01089 12.8008 8.53333 13.2783 8.53333 13.8674V27.7341C8.53333 28.3232 9.01089 28.8008 9.59999 28.8008Z" fill="#428DFF"/>
<path id="Shape_19" d="M17.0667 25.5992C17.6558 25.5992 18.1333 25.1217 18.1333 24.5326V20.2659C18.1333 19.6768 17.6558 19.1992 17.0667 19.1992C16.4776 19.1992 16 19.6768 16 20.2659V24.5326C16 25.1217 16.4776 25.5992 17.0667 25.5992Z" fill="#428DFF"/>
</g>
</g>
</g>
</g>
<defs>
<linearGradient id="paint0_linear_21015_62728" x1="248.576" y1="-86.9541" x2="2271.07" y2="3421.46" gradientUnits="userSpaceOnUse">
<stop stop-color="#D3DFF2"/>
<stop offset="0.172" stop-color="#D3DFF2"/>
<stop offset="0.2" stop-color="#DAE2F2"/>
<stop offset="0.201" stop-color="#F6EFF2"/>
<stop offset="0.202" stop-color="#FDF2F2"/>
<stop offset="0.205" stop-color="#FFF3F2"/>
<stop offset="0.252" stop-color="#FFF3F2"/>
<stop offset="0.26" stop-color="#D3DFF2"/>
<stop offset="0.397" stop-color="#D3DFF2"/>
<stop offset="0.42" stop-color="#DAE2F2"/>
<stop offset="0.421" stop-color="#F6EFF2"/>
<stop offset="0.422" stop-color="#FDF2F2"/>
<stop offset="0.425" stop-color="#FFF3F2"/>
<stop offset="0.489" stop-color="#FFF3F2"/>
<stop offset="0.5" stop-color="#D5E0F2"/>
<stop offset="0.501" stop-color="#D3DFF2"/>
<stop offset="0.706" stop-color="#D3DFF2"/>
<stop offset="0.74" stop-color="#D3DFF2"/>
<stop offset="0.741" stop-color="#FFF3F2"/>
<stop offset="0.835" stop-color="#FFF3F2"/>
<stop offset="0.85" stop-color="#FFF3F2"/>
<stop offset="0.851" stop-color="#D3DFF2"/>
</linearGradient>
<clipPath id="clip0_21015_62728">
<rect width="64" height="64" fill="white"/>
</clipPath>
</defs>
</svg>
