<svg width="20" height="20" viewBox="0 0 20 20" fill="none" xmlns="http://www.w3.org/2000/svg">
<path d="M18.3332 9.9987H13.3332L11.6665 12.4987H8.33317L6.6665 9.9987H1.6665M18.3332 9.9987V14.9987C18.3332 15.4407 18.1576 15.8646 17.845 16.1772C17.5325 16.4898 17.1085 16.6654 16.6665 16.6654H3.33317C2.89114 16.6654 2.46722 16.4898 2.15466 16.1772C1.8421 15.8646 1.6665 15.4407 1.6665 14.9987V9.9987M18.3332 9.9987L15.4582 4.25703C15.3202 3.97935 15.1075 3.74567 14.844 3.58226C14.5805 3.41885 14.2766 3.3322 13.9665 3.33203H6.03317C5.7231 3.3322 5.41922 3.41885 5.15571 3.58226C4.89219 3.74567 4.67949 3.97935 4.5415 4.25703L1.6665 9.9987" stroke="#E57200" stroke-width="1.5" stroke-linecap="round" stroke-linejoin="round"/>
</svg>
