<svg width="65" height="64" viewBox="0 0 65 64" fill="none" xmlns="http://www.w3.org/2000/svg">
<g clip-path="url(#clip0_21015_62381)">
<path d="M32.6666 39.4664C43.2704 39.4664 51.8666 30.8703 51.8666 20.2664C51.8666 9.66254 43.2704 1.06641 32.6666 1.06641C22.0627 1.06641 13.4666 9.66254 13.4666 20.2664C13.4666 30.8703 22.0627 39.4664 32.6666 39.4664Z" fill="#C6D8FB"/>
<path d="M32.6664 1.06641C32.1267 1.06641 31.5997 1.10374 31.0664 1.14747C35.8647 1.54368 40.3386 3.72963 43.6 7.2714C46.8613 10.8132 48.6717 15.4518 48.6717 20.2664C48.6717 25.081 46.8613 29.7196 43.6 33.2614C40.3386 36.8032 35.8647 38.9891 31.0664 39.3853C31.5997 39.4291 32.1267 39.4664 32.6664 39.4664C37.7586 39.4664 42.6422 37.4436 46.2429 33.8429C49.8436 30.2422 51.8664 25.3586 51.8664 20.2664C51.8664 15.1743 49.8436 10.2907 46.2429 6.68996C42.6422 3.08926 37.7586 1.06641 32.6664 1.06641Z" fill="#A4C3FD"/>
<path d="M41.1997 19.1898V25.9738C41.1989 28.1377 40.3389 30.2128 38.8088 31.7429C37.2787 33.273 35.2036 34.133 33.0397 34.1338H32.2931C30.1292 34.133 28.0541 33.273 26.524 31.7429C24.9939 30.2128 24.1339 28.1377 24.1331 25.9738V20.2672C24.1331 19.2645 24.1331 18.5285 24.1437 18.4965C24.6451 16.5552 25.8397 14.4645 28.6557 15.4245C33.5517 17.1098 33.5517 18.7952 40.0691 17.9525C40.5556 18.2494 40.9478 18.6785 41.1997 19.1898Z" fill="#E8EDFC"/>
<path d="M24.1331 20.2676V25.6009H22.5331C21.8259 25.6009 21.1476 25.32 20.6475 24.8199C20.1474 24.3198 19.8665 23.6415 19.8665 22.9342C19.8665 22.227 20.1474 21.5487 20.6475 21.0486C21.1476 20.5485 21.8259 20.2676 22.5331 20.2676H24.1331Z" fill="#E8EDFC"/>
<path d="M45.4664 22.9342C45.4675 23.2848 45.3993 23.632 45.2657 23.9561C45.1321 24.2801 44.9357 24.5745 44.6878 24.8224C44.44 25.0702 44.1456 25.2666 43.8215 25.4002C43.4975 25.5338 43.1502 25.602 42.7997 25.6009H41.1997V20.2676H42.7997C43.507 20.2676 44.1852 20.5485 44.6853 21.0486C45.1854 21.5487 45.4664 22.227 45.4664 22.9342Z" fill="#E8EDFC"/>
<path d="M41.1997 20.2666V19.1893C40.9478 18.678 40.5557 18.2488 40.0691 17.952C33.5517 18.7946 33.5517 17.1093 28.6557 15.424C25.8397 14.464 24.6451 16.5546 24.1437 18.496C24.1331 18.528 24.1331 19.264 24.1331 20.2666C23.0664 17.8986 20.2931 12.2026 25.3917 9.57862C25.3917 9.57862 29.1784 2.57062 38.1917 6.55995C38.2649 6.59284 38.3273 6.64568 38.3718 6.71242C38.4163 6.77915 38.4411 6.85708 38.4433 6.93726C38.4455 7.01744 38.4251 7.09662 38.3844 7.16572C38.3437 7.23483 38.2843 7.29105 38.2131 7.32795C37.7708 7.52895 37.3911 7.84594 37.1144 8.24528C37.0756 8.29824 37.0496 8.35944 37.0383 8.4241C37.0271 8.48877 37.0308 8.55516 37.0494 8.61812C37.068 8.68108 37.1009 8.7389 37.1454 8.78709C37.19 8.83528 37.2451 8.87253 37.3064 8.89595C38.8424 9.40795 43.3331 11.2853 43.3331 15.456C43.3331 17.952 41.5944 19.424 41.1997 20.2666Z" fill="#E8EDFC"/>
<path d="M9.19982 59.7322C13.3235 59.7322 16.6665 56.3892 16.6665 52.2655C16.6665 48.1418 13.3235 44.7988 9.19982 44.7988C5.0761 44.7988 1.73315 48.1418 1.73315 52.2655C1.73315 56.3892 5.0761 59.7322 9.19982 59.7322Z" fill="#C6D8FB"/>
<path d="M9.19985 44.7988C8.66174 44.7997 8.12529 44.8587 7.59985 44.9748C9.26006 45.3418 10.7453 46.2645 11.8099 47.5902C12.8746 48.9159 13.4549 50.5652 13.4549 52.2655C13.4549 53.9658 12.8746 55.6152 11.8099 56.9409C10.7453 58.2665 9.26006 59.1892 7.59985 59.5562C8.62453 59.7827 9.68544 59.7906 10.7134 59.5795C11.7414 59.3684 12.7133 58.943 13.5658 58.331C14.4182 57.7191 15.1322 56.9343 15.6609 56.0278C16.1897 55.1213 16.5215 54.1136 16.6346 53.0703C16.7477 52.027 16.6396 50.9716 16.3174 49.9729C15.9952 48.9742 15.4661 48.0546 14.7646 47.2741C14.063 46.4936 13.2049 45.8698 12.2461 45.4433C11.2872 45.0168 10.2493 44.7972 9.19985 44.7988Z" fill="#A4C3FD"/>
<path d="M32.6664 62.9333C36.7901 62.9333 40.133 59.5904 40.133 55.4667C40.133 51.3429 36.7901 48 32.6664 48C28.5426 48 25.1997 51.3429 25.1997 55.4667C25.1997 59.5904 28.5426 62.9333 32.6664 62.9333Z" fill="#C6D8FB"/>
<path d="M32.6664 48C32.1283 48.0008 31.5918 48.0599 31.0664 48.176C32.7266 48.543 34.2118 49.4656 35.2765 50.7913C36.3412 52.117 36.9215 53.7664 36.9215 55.4667C36.9215 57.167 36.3412 58.8163 35.2765 60.142C34.2118 61.4677 32.7266 62.3904 31.0664 62.7573C32.0911 62.9838 33.152 62.9918 34.1799 62.7807C35.2079 62.5696 36.1798 62.1442 37.0323 61.5322C37.8848 60.9202 38.5987 60.1354 39.1275 59.229C39.6563 58.3225 39.988 57.3148 40.1011 56.2715C40.2143 55.2282 40.1062 54.1728 39.784 53.1741C39.4617 52.1753 38.9326 51.2558 38.2311 50.4753C37.5296 49.6948 36.6714 49.071 35.7126 48.6445C34.7538 48.218 33.7158 47.9984 32.6664 48Z" fill="#A4C3FD"/>
<path d="M56.1332 59.7322C60.2569 59.7322 63.5998 56.3892 63.5998 52.2655C63.5998 48.1418 60.2569 44.7988 56.1332 44.7988C52.0094 44.7988 48.6665 48.1418 48.6665 52.2655C48.6665 56.3892 52.0094 59.7322 56.1332 59.7322Z" fill="#C6D8FB"/>
<path d="M56.1332 44.7988C55.5951 44.7997 55.0586 44.8587 54.5332 44.9748C56.1934 45.3418 57.6786 46.2645 58.7433 47.5902C59.8079 48.9159 60.3883 50.5652 60.3883 52.2655C60.3883 53.9658 59.8079 55.6152 58.7433 56.9409C57.6786 58.2665 56.1934 59.1892 54.5332 59.5562C55.5579 59.7827 56.6188 59.7906 57.6467 59.5795C58.6747 59.3684 59.6466 58.943 60.4991 58.331C61.3516 57.7191 62.0655 56.9343 62.5943 56.0278C63.1231 55.1213 63.4548 54.1136 63.5679 53.0703C63.6811 52.027 63.573 50.9716 63.2508 49.9729C62.9285 48.9742 62.3994 48.0546 61.6979 47.2741C60.9964 46.4936 60.1382 45.8698 59.1794 45.4433C58.2206 45.0168 57.1826 44.7972 56.1332 44.7988Z" fill="#A4C3FD"/>
<path d="M8.3689 59.6831H8.38917C9.19426 59.7745 10.009 59.7313 10.7998 59.5551C9.13664 59.192 7.64763 58.271 6.57995 56.945C5.51227 55.6191 4.93011 53.9679 4.93011 52.2655C4.93011 50.5631 5.51227 48.9119 6.57995 47.586C7.64763 46.26 9.13664 45.339 10.7998 44.9759C10.0081 44.7982 9.19229 44.7538 8.38597 44.8447H8.36037C6.54011 45.0544 4.8605 45.9261 3.64127 47.2939C2.42203 48.6617 1.74829 50.43 1.74829 52.2623C1.74829 54.0946 2.42203 55.8629 3.64127 57.2307C4.8605 58.5985 6.54011 59.4702 8.36037 59.6799L8.3689 59.6831Z" fill="white"/>
<path d="M31.0665 39.3853C31.5998 39.4291 32.1268 39.4664 32.6665 39.4664C33.2062 39.4664 33.7332 39.4291 34.2665 39.3853C29.4682 38.9891 24.9943 36.8032 21.7329 33.2614C18.4716 29.7196 16.6612 25.081 16.6612 20.2664C16.6612 15.4518 18.4716 10.8132 21.7329 7.2714C24.9943 3.72963 29.4682 1.54368 34.2665 1.14747C33.7332 1.10374 33.2062 1.06641 32.6665 1.06641C32.1268 1.06641 31.5998 1.10374 31.0665 1.14747C26.2682 1.54368 21.7943 3.72963 18.5329 7.2714C15.2716 10.8132 13.4612 15.4518 13.4612 20.2664C13.4612 25.081 15.2716 29.7196 18.5329 33.2614C21.7943 36.8032 26.2682 38.9891 31.0665 39.3853Z" fill="white"/>
<path d="M14.386 11.5586L16.306 12.477C15.1457 14.9104 14.5402 17.571 14.5332 20.2669H12.3999C12.4091 17.2529 13.0874 14.2785 14.386 11.5586Z" fill="white"/>
<path d="M18.7998 22.9332C18.7998 23.9233 19.1931 24.8729 19.8933 25.573C20.5934 26.2732 21.543 26.6665 22.5331 26.6665H23.1059C23.276 28.9864 24.3179 31.1559 26.0223 32.7389C27.7266 34.322 29.967 35.2012 32.2931 35.1998H33.0398C35.3658 35.2007 37.6059 34.3213 39.3101 32.7384C41.0144 31.1554 42.0565 28.9862 42.227 26.6665H42.7998C43.7543 26.6679 44.6728 26.3028 45.3659 25.6466C46.0589 24.9903 46.4735 24.0929 46.524 23.1398C46.5745 22.1867 46.2571 21.2506 45.6373 20.5247C45.0175 19.7989 44.1427 19.3387 43.1934 19.2393C43.9599 18.1251 44.3796 16.8091 44.3998 15.4569C44.3998 11.3417 40.8019 9.19129 38.6889 8.28462C38.9415 8.15749 39.1528 7.96126 39.2982 7.71874C39.4437 7.47623 39.5173 7.1974 39.5105 6.91469C39.5036 6.63199 39.4167 6.35703 39.2597 6.1218C39.1028 5.88658 38.8822 5.70076 38.6238 5.58595C29.9465 1.74595 25.5593 7.37795 24.6387 8.77422C19.9507 11.3897 21.3321 16.3284 22.5054 19.2041C21.5208 19.2114 20.579 19.6074 19.885 20.3058C19.1909 21.0042 18.8009 21.9485 18.7998 22.9332ZM40.1331 25.9732C40.132 27.8541 39.3843 29.6576 38.0543 30.9876C36.7243 32.3177 34.9207 33.0654 33.0398 33.0665H32.2931C30.412 33.0659 28.6082 32.3184 27.278 30.9883C25.9479 29.6581 25.2004 27.8542 25.1998 25.9732V25.4494C25.1998 22.7689 25.1998 19.1732 25.1998 18.6548C25.361 17.7658 25.8512 16.9703 26.5726 16.4265C26.8459 16.3053 27.1414 16.2427 27.4403 16.2427C27.7392 16.2427 28.0348 16.3053 28.3081 16.4265C29.4136 16.8173 30.4922 17.2805 31.5369 17.8132C33.6542 18.8489 35.1998 19.602 39.7843 19.0665C39.9171 19.1884 40.0343 19.3264 40.1331 19.4772V25.9732ZM44.3998 22.9332C44.3998 23.3575 44.2312 23.7645 43.9312 24.0645C43.6311 24.3646 43.2242 24.5332 42.7998 24.5332H42.2665V21.3332H42.7998C43.2242 21.3332 43.6311 21.5017 43.9312 21.8018C44.2312 22.1018 44.3998 22.5088 44.3998 22.9332ZM25.8803 10.5289C26.0691 10.4299 26.2249 10.2779 26.3283 10.0916C26.4595 9.85155 29.4931 4.54489 36.6825 7.10489C36.5299 7.25687 36.3907 7.42175 36.2665 7.59769C36.1251 7.78563 36.0301 8.0043 35.9892 8.23591C35.9483 8.46751 35.9627 8.7055 36.0313 8.93048C36.0998 9.15546 36.2205 9.36108 36.3835 9.5306C36.5465 9.70011 36.7473 9.82872 36.9694 9.90595C38.2131 10.323 42.2665 11.9465 42.2665 15.4569C42.2565 16.3014 42.0108 17.1264 41.5571 17.8388C41.2751 17.5048 40.9373 17.2222 40.5587 17.0036C40.3653 16.9063 40.1473 16.8692 39.9326 16.8969C35.6563 17.4516 34.5246 16.8969 32.4723 15.8953C31.3488 15.3262 30.1885 14.8327 28.9993 14.418C28.449 14.1952 27.8575 14.0923 27.2643 14.1162C26.6711 14.1401 26.0898 14.2902 25.5593 14.5566C24.804 14.9983 24.1964 15.6538 23.8131 16.4404C23.1529 13.9956 23.3747 11.8185 25.8803 10.5289ZM22.5331 21.3332H23.0665V24.5332H22.5331C22.1088 24.5332 21.7018 24.3646 21.4018 24.0645C21.1017 23.7645 20.9331 23.3575 20.9331 22.9332C20.9331 22.5088 21.1017 22.1018 21.4018 21.8018C21.7018 21.5017 22.1088 21.3332 22.5331 21.3332Z" fill="#428DFF"/>
<path d="M13.9678 17.0962C13.6849 17.0978 13.413 16.9869 13.2118 16.788C13.0107 16.589 12.8968 16.3183 12.8953 16.0354C12.8937 15.7525 13.0046 15.4806 13.2036 15.2795C13.4025 15.0783 13.6732 14.9644 13.9561 14.9629H13.9678C14.2507 14.9629 14.522 15.0753 14.7221 15.2753C14.9221 15.4753 15.0345 15.7467 15.0345 16.0296C15.0345 16.3125 14.9221 16.5838 14.7221 16.7838C14.522 16.9838 14.2507 17.0962 13.9678 17.0962Z" fill="#428DFF"/>
<path d="M52.9332 20.2665C52.9374 16.6404 51.9675 13.0798 50.125 9.95683C48.2825 6.83382 45.6349 4.26304 42.4591 2.51318C39.2832 0.763323 35.6956 -0.101375 32.0713 0.00946121C28.4469 0.120297 24.9189 1.2026 21.8559 3.14325C20.2421 4.15457 18.784 5.3953 17.5274 6.82645C16.2521 8.24088 15.1934 9.83653 14.386 11.5614C14.3184 11.6878 14.2782 11.827 14.2679 11.9699C14.2577 12.1129 14.2777 12.2564 14.3266 12.3912C14.3755 12.5259 14.4522 12.6488 14.5518 12.7519C14.6513 12.8551 14.7715 12.9361 14.9044 12.9896C15.1606 13.0924 15.4457 13.0972 15.7052 13.0031C15.9647 12.9091 16.1805 12.7228 16.3114 12.4798C17.0311 10.9347 17.9777 9.50598 19.1199 8.24085C20.2438 6.95992 21.549 5.85022 22.994 4.94698C26.3947 2.8043 30.4113 1.8531 34.4118 2.24305C38.4122 2.633 42.1695 4.34197 45.0924 7.10106C48.0153 9.86014 49.9378 13.5127 50.5576 17.4841C51.1774 21.4554 50.4591 25.5201 48.5159 29.0386C46.5727 32.5571 43.5148 35.3296 39.8233 36.9199C36.1319 38.5103 32.0165 38.8281 28.1247 37.8235C24.2328 36.8189 20.7854 34.5488 18.325 31.3704C15.8645 28.1921 14.5307 24.2859 14.5332 20.2665C14.5332 19.9836 14.4209 19.7122 14.2208 19.5122C14.0208 19.3122 13.7495 19.1998 13.4666 19.1998C13.1837 19.1998 12.9124 19.3122 12.7123 19.5122C12.5123 19.7122 12.3999 19.9836 12.3999 20.2665C12.4 23.2319 13.0522 26.161 14.3103 28.8464C15.5684 31.5317 17.4015 33.9076 19.6799 35.8056L16.7178 39.7523L16.4426 37.8206C16.4025 37.5405 16.2529 37.2878 16.0265 37.1181C15.8002 36.9484 15.5157 36.8755 15.2356 36.9155C14.9556 36.9555 14.7029 37.1052 14.5331 37.3315C14.3634 37.5579 14.2905 37.8424 14.3306 38.1225L14.9706 42.6024C15.0067 42.8564 15.1332 43.0887 15.3267 43.257C15.5203 43.4253 15.768 43.5182 16.0244 43.5187C16.0755 43.5189 16.1265 43.5153 16.177 43.508L20.657 42.868C20.7961 42.8489 20.9301 42.8024 21.0512 42.7312C21.1724 42.6601 21.2783 42.5658 21.3628 42.4536C21.4474 42.3415 21.509 42.2137 21.5441 42.0777C21.5791 41.9417 21.587 41.8001 21.5672 41.661C21.5474 41.5219 21.5003 41.3881 21.4286 41.2673C21.357 41.1465 21.2622 41.041 21.1497 40.9569C21.0372 40.8729 20.9091 40.8118 20.773 40.7774C20.6368 40.7429 20.4951 40.7356 20.3562 40.7561L18.4244 41.0323L21.3812 37.0857C24.4165 39.123 27.9489 40.2959 31.5999 40.4787V45.4248L30.2207 44.0456C30.0195 43.8513 29.7501 43.7438 29.4704 43.7463C29.1907 43.7487 28.9232 43.8609 28.7254 44.0586C28.5277 44.2564 28.4155 44.5239 28.413 44.8036C28.4106 45.0833 28.5181 45.3527 28.7124 45.5539L30.4052 47.2467C28.4135 47.7941 26.688 49.0453 25.5487 50.7682C24.4094 52.4912 23.9337 54.5689 24.2098 56.6159C24.486 58.6629 25.4953 60.5402 27.0504 61.8997C28.6056 63.2591 30.601 64.0083 32.6666 64.0083C34.7321 64.0083 36.7276 63.2591 38.2827 61.8997C39.8379 60.5402 40.8471 58.6629 41.1233 56.6159C41.3995 54.5689 40.9238 52.4912 39.7845 50.7682C38.6452 49.0453 36.9196 47.7941 34.9279 47.2467L36.6207 45.5539C36.815 45.3527 36.9225 45.0833 36.9201 44.8036C36.9177 44.5239 36.8055 44.2564 36.6077 44.0586C36.4099 43.8609 36.1424 43.7487 35.8627 43.7463C35.5831 43.7438 35.3136 43.8513 35.1124 44.0456L33.7332 45.4248V40.4787C37.3837 40.2975 40.9161 39.1264 43.9519 37.091L46.9087 41.0376L44.977 40.7614C44.6975 40.7228 44.4142 40.7965 44.189 40.9664C43.9637 41.1362 43.8149 41.3884 43.7752 41.6676C43.7354 41.9469 43.8079 42.2306 43.9767 42.4565C44.1456 42.6825 44.3971 42.8324 44.6762 42.8734L49.1562 43.5134C49.2067 43.5206 49.2577 43.5242 49.3087 43.5241C49.5652 43.5235 49.8129 43.4306 50.0064 43.2624C50.2 43.0941 50.3264 42.8617 50.3626 42.6078L51.0026 38.1278C51.0224 37.9891 51.0147 37.8479 50.9799 37.7122C50.9452 37.5765 50.884 37.4489 50.8 37.3369C50.716 37.2248 50.6107 37.1304 50.4901 37.059C50.3696 36.9876 50.2362 36.9407 50.0975 36.9208C49.9588 36.901 49.8176 36.9087 49.6819 36.9435C49.5462 36.9782 49.4187 37.0394 49.3066 37.1234C49.1945 37.2075 49.1001 37.3128 49.0287 37.4333C48.9573 37.5538 48.9104 37.6872 48.8906 37.8259L48.6154 39.7576L45.6532 35.811C47.9323 33.9123 49.7659 31.5356 51.024 28.8493C52.2821 26.163 52.9339 23.2328 52.9332 20.2665ZM39.0666 55.4664C39.0666 56.7323 38.6912 57.9696 37.988 59.0221C37.2847 60.0746 36.2852 60.8949 35.1157 61.3793C33.9463 61.8637 32.6595 61.9904 31.418 61.7435C30.1765 61.4965 29.0361 60.887 28.1411 59.9919C27.246 59.0969 26.6365 57.9565 26.3895 56.715C26.1426 55.4736 26.2693 54.1867 26.7537 53.0173C27.2381 51.8478 28.0584 50.8483 29.1109 50.145C30.1634 49.4418 31.4008 49.0664 32.6666 49.0664C34.3634 49.0681 35.9903 49.743 37.1902 50.9428C38.39 52.1427 39.0649 53.7696 39.0666 55.4664Z" fill="#428DFF"/>
<path d="M9.19984 60.7991C10.8876 60.7991 12.5374 60.2986 13.9407 59.361C15.344 58.4233 16.4377 57.0906 17.0836 55.5313C17.7295 53.9721 17.8985 52.2563 17.5692 50.601C17.2399 48.9457 16.4272 47.4252 15.2338 46.2318C14.0404 45.0384 12.5199 44.2257 10.8646 43.8964C9.2093 43.5671 7.49354 43.7361 5.93427 44.382C4.37501 45.0279 3.04228 46.1216 2.10463 47.5249C1.16698 48.9282 0.666504 50.578 0.666504 52.2658C0.669045 54.5282 1.56891 56.6972 3.16867 58.2969C4.76843 59.8967 6.93744 60.7966 9.19984 60.7991ZM9.19984 45.8658C10.4656 45.8658 11.703 46.2411 12.7555 46.9444C13.808 47.6476 14.6283 48.6471 15.1127 49.8166C15.5971 50.986 15.7238 52.2729 15.4769 53.5143C15.2299 54.7558 14.6204 55.8962 13.7253 56.7912C12.8303 57.6863 11.6899 58.2958 10.4484 58.5428C9.20694 58.7897 7.92011 58.663 6.75066 58.1786C5.58122 57.6942 4.58167 56.8739 3.87843 55.8214C3.17519 54.7689 2.79984 53.5316 2.79984 52.2658C2.80153 50.5689 3.47636 48.942 4.67623 47.7421C5.87609 46.5423 7.50297 45.8675 9.19984 45.8658Z" fill="#428DFF"/>
<path d="M56.1332 43.7324C54.4455 43.7324 52.7956 44.2329 51.3923 45.1705C49.989 46.1082 48.8953 47.4409 48.2494 49.0002C47.6036 50.5595 47.4346 52.2752 47.7638 53.9305C48.0931 55.5858 48.9058 57.1063 50.0992 58.2997C51.2926 59.4931 52.8131 60.3059 54.4684 60.6351C56.1237 60.9644 57.8395 60.7954 59.3988 60.1495C60.958 59.5037 62.2907 58.4099 63.2284 57.0066C64.1661 55.6033 64.6665 53.9535 64.6665 52.2658C64.664 50.0034 63.7641 47.8343 62.1644 46.2346C60.5646 44.6348 58.3956 43.735 56.1332 43.7324ZM56.1332 58.6658C54.8674 58.6658 53.63 58.2904 52.5775 57.5872C51.5251 56.8839 50.7048 55.8844 50.2204 54.7149C49.736 53.5455 49.6092 52.2587 49.8562 51.0172C50.1031 49.7757 50.7127 48.6353 51.6077 47.7403C52.5028 46.8452 53.6431 46.2357 54.8846 45.9887C56.1261 45.7418 57.4129 45.8685 58.5824 46.3529C59.7518 46.8373 60.7514 47.6576 61.4546 48.7101C62.1578 49.7626 62.5332 51 62.5332 52.2658C62.5315 53.9626 61.8567 55.5895 60.6568 56.7894C59.4569 57.9892 57.8301 58.6641 56.1332 58.6658Z" fill="#428DFF"/>
</g>
<defs>
<clipPath id="clip0_21015_62381">
<rect width="64" height="64" fill="white" transform="translate(0.666504)"/>
</clipPath>
</defs>
</svg>
