<svg xmlns="http://www.w3.org/2000/svg" viewBox="0 0 512 512"><path d="M149.1 512c-33.1 0-66.2-12.6-91.3-37.8-50.4-50.4-50.4-132.3 0-182.7L319.8 29.5c39.3-39.3 103.3-39.3 142.7 0 39.3 39.3 39.3 103.3 0 142.7l-222.6 222.6c-28.3 28.3-74.3 28.3-102.7 0-28.3-28.3-28.3-74.3 0-102.6l170.3-170.3c4.7-4.7 12.3-4.7 17 0l5.7 5.7c4.7 4.7 4.7 12.3 0 17l-170.3 170.3c-15.8 15.8-15.8 41.6 0 57.4 15.8 15.8 41.6 15.8 57.4 0l222.6-222.6c26.9-26.9 26.9-70.5 0-97.4-26.9-26.9-70.5-26.8-97.4 0L80.4 314.2c-37.9 37.9-37.9 99.5 0 137.4 37.9 37.9 99.5 37.9 137.4 0l217.7-217.7c4.7-4.7 12.3-4.7 17 0l5.7 5.7c4.7 4.7 4.7 12.3 0 17L240.4 474.2C215.3 499.4 182.2 512 149.1 512z"/></svg>