<svg width="65" height="64" viewBox="0 0 65 64" fill="none" xmlns="http://www.w3.org/2000/svg">
<g clip-path="url(#clip0_21015_63162)">
<path d="M61.4664 18.1236V22.3902H57.1997V18.1236C57.1997 17.5578 57.4245 17.0152 57.8245 16.6151C58.2246 16.215 58.7672 15.9902 59.333 15.9902C59.8988 15.9902 60.4415 16.215 60.8415 16.6151C61.2416 17.0152 61.4664 17.5578 61.4664 18.1236Z" fill="#A4C2F7"/>
<path d="M63.5999 24.5327V39.4553H55.0559V24.5327C55.0559 23.964 55.2818 23.4187 55.6839 23.0166C56.0859 22.6146 56.6313 22.3887 57.1999 22.3887H61.4666C62.0335 22.3909 62.5764 22.6179 62.9763 23.0198C63.3762 23.4217 63.6005 23.9657 63.5999 24.5327Z" fill="#C6D8FB"/>
<path d="M61.4666 22.3887H58.2666C58.8335 22.3909 59.3765 22.6179 59.7764 23.0198C60.1763 23.4217 60.4005 23.9657 60.3999 24.5327V39.4553H63.5999V24.5327C63.6005 23.9657 63.3763 23.4217 62.9764 23.0198C62.5765 22.6179 62.0336 22.3909 61.4666 22.3887Z" fill="#A4C3FD"/>
<path d="M63.5999 39.4551L63.5892 56.0951C63.5907 56.9362 63.346 57.7594 62.8852 58.4631L60.2186 62.4524C60.1214 62.5998 59.9892 62.7209 59.8337 62.8046C59.6783 62.8883 59.5045 62.9321 59.3279 62.9321C59.1513 62.9321 58.9775 62.8883 58.8221 62.8046C58.6666 62.7209 58.5344 62.5998 58.4372 62.4524L55.7812 58.4631C55.3126 57.7625 55.0638 56.938 55.0666 56.0951L55.0559 39.4551H63.5999Z" fill="#E8EDFC"/>
<path d="M63.5998 39.4551L63.5892 56.0951C63.5906 56.9362 63.3459 57.7594 62.8852 58.4631L60.2185 62.4524C60.1213 62.5998 59.9891 62.7209 59.8336 62.8046C59.6782 62.8883 59.5044 62.9321 59.3278 62.9321C59.1513 62.9321 58.9774 62.8883 58.822 62.8046C58.6665 62.7209 58.5343 62.5998 58.4372 62.4524L57.7332 61.3964L59.6852 58.4631C60.1459 57.7594 60.3906 56.9362 60.3892 56.0951L60.3998 39.4551H63.5998Z" fill="#CAD9FC"/>
<path d="M45.4665 1.06641H4.93315C3.16584 1.06641 1.73315 2.4991 1.73315 4.26641V59.7331C1.73315 61.5004 3.16584 62.9331 4.93315 62.9331H45.4665C47.2338 62.9331 48.6665 61.5004 48.6665 59.7331V4.26641C48.6665 2.4991 47.2338 1.06641 45.4665 1.06641Z" fill="#C6D8FB"/>
<path d="M45.4666 1.06641H42.2666C43.1153 1.06641 43.9292 1.40355 44.5293 2.00366C45.1295 2.60378 45.4666 3.41771 45.4666 4.26641V59.7331C45.4666 60.5818 45.1295 61.3957 44.5293 61.9958C43.9292 62.5959 43.1153 62.9331 42.2666 62.9331H45.4666C46.3153 62.9331 47.1292 62.5959 47.7293 61.9958C48.3295 61.3957 48.6666 60.5818 48.6666 59.7331V4.26641C48.6666 3.41771 48.3295 2.60378 47.7293 2.00366C47.1292 1.40355 46.3153 1.06641 45.4666 1.06641Z" fill="#A4C3FD"/>
<path d="M23.0664 9.59961H8.13309C6.95488 9.59961 5.99976 10.5547 5.99976 11.7329V27.7329C5.99976 28.9112 6.95488 29.8663 8.13309 29.8663H23.0664C24.2446 29.8663 25.1998 28.9112 25.1998 27.7329V11.7329C25.1998 10.5547 24.2446 9.59961 23.0664 9.59961Z" fill="#E8EDFC"/>
<path d="M23.0665 9.59961H19.8665C20.4323 9.59961 20.9749 9.82437 21.3749 10.2244C21.775 10.6245 21.9998 11.1671 21.9998 11.7329V27.7329C21.9998 28.2987 21.775 28.8414 21.3749 29.2414C20.9749 29.6415 20.4323 29.8663 19.8665 29.8663H23.0665C23.6323 29.8663 24.1749 29.6415 24.5749 29.2414C24.975 28.8414 25.1998 28.2987 25.1998 27.7329V11.7329C25.1998 11.1671 24.975 10.6245 24.5749 10.2244C24.1749 9.82437 23.6323 9.59961 23.0665 9.59961Z" fill="#CAD9FC"/>
<path d="M8.13315 62.9331C7.28446 62.9331 6.47053 62.5959 5.87041 61.9958C5.2703 61.3957 4.93315 60.5818 4.93315 59.7331V4.26641C4.93315 3.41771 5.2703 2.60378 5.87041 2.00366C6.47053 1.40355 7.28446 1.06641 8.13315 1.06641H4.93315C4.08446 1.06641 3.27053 1.40355 2.67041 2.00366C2.0703 2.60378 1.73315 3.41771 1.73315 4.26641V59.7331C1.73315 60.5818 2.0703 61.3957 2.67041 61.9958C3.27053 62.5959 4.08446 62.9331 4.93315 62.9331H8.13315Z" fill="white"/>
<path d="M0.666504 51.1992H2.79984V59.7326H0.666504V51.1992Z" fill="white"/>
<path d="M62.5331 21.5233V18.1238C62.5331 17.2751 62.1959 16.4612 61.5958 15.8611C60.9957 15.261 60.1818 14.9238 59.3331 14.9238C58.4844 14.9238 57.6705 15.261 57.0703 15.8611C56.4702 16.4612 56.1331 17.2751 56.1331 18.1238V21.5233C55.511 21.7432 54.9721 22.1501 54.5902 22.6882C54.2083 23.2263 54.0021 23.8693 53.9998 24.5292V56.0993C54.0003 57.1519 54.3092 58.1814 54.8883 59.0604L57.555 63.0497C57.7496 63.3428 58.0137 63.5831 58.3238 63.7494C58.6338 63.9157 58.9802 64.0027 59.332 64.0027C59.6838 64.0027 60.0302 63.9157 60.3403 63.7494C60.6503 63.5831 60.9144 63.3428 61.1091 63.0497L63.7758 59.0529C64.3523 58.1757 64.6593 57.149 64.659 56.0993L64.6664 24.5334C64.665 23.8729 64.4592 23.2289 64.0772 22.69C63.6953 22.151 63.1559 21.7435 62.5331 21.5233ZM58.2664 18.1238C58.2664 17.8409 58.3788 17.5696 58.5788 17.3696C58.7789 17.1695 59.0502 17.0572 59.3331 17.0572C59.616 17.0572 59.8873 17.1695 60.0873 17.3696C60.2874 17.5696 60.3998 17.8409 60.3998 18.1238V21.3238H58.2664V18.1238ZM57.1998 23.4572H61.4664C61.7493 23.4572 62.0206 23.5695 62.2207 23.7696C62.4207 23.9696 62.5331 24.2409 62.5331 24.5238V38.3894H56.1331V24.5292C56.1328 24.3889 56.1602 24.25 56.2137 24.1203C56.2672 23.9906 56.3457 23.8728 56.4448 23.7735C56.5438 23.6743 56.6615 23.5955 56.7911 23.5418C56.9206 23.488 57.0595 23.4604 57.1998 23.4604V23.4572ZM61.9998 57.8721L59.3331 61.8668L56.6664 57.8828C56.3185 57.3526 56.1332 56.7323 56.1331 56.0982V40.5249H62.5331V56.0982C62.5324 56.7299 62.347 57.3476 61.9998 57.8753V57.8721Z" fill="#428DFF"/>
<path d="M1.73317 56.5337C2.32227 56.5337 2.79984 56.0562 2.79984 55.4671C2.79984 54.878 2.32227 54.4004 1.73317 54.4004C1.14407 54.4004 0.666504 54.878 0.666504 55.4671C0.666504 56.0562 1.14407 56.5337 1.73317 56.5337Z" fill="#428DFF"/>
<path d="M4.93317 64H45.4665C46.5981 64 47.6833 63.5505 48.4835 62.7503C49.2836 61.9502 49.7332 60.8649 49.7332 59.7333V4.26667C49.7332 3.13508 49.2836 2.04983 48.4835 1.24968C47.6833 0.449523 46.5981 0 45.4665 0L4.93317 0C3.80158 0 2.71634 0.449523 1.91618 1.24968C1.11603 2.04983 0.666504 3.13508 0.666504 4.26667L0.666504 51.2C0.666504 51.4829 0.778885 51.7542 0.978923 51.9543C1.17896 52.1543 1.45027 52.2667 1.73317 52.2667C2.01607 52.2667 2.28738 52.1543 2.48742 51.9543C2.68746 51.7542 2.79984 51.4829 2.79984 51.2V4.26667C2.79984 3.70087 3.0246 3.15825 3.42468 2.75817C3.82475 2.35809 4.36738 2.13333 4.93317 2.13333H45.4665C46.0323 2.13333 46.5749 2.35809 46.975 2.75817C47.3751 3.15825 47.5998 3.70087 47.5998 4.26667V59.7333C47.5998 60.2991 47.3751 60.8418 46.975 61.2418C46.5749 61.6419 46.0323 61.8667 45.4665 61.8667H4.93317C4.36738 61.8667 3.82475 61.6419 3.42468 61.2418C3.0246 60.8418 2.79984 60.2991 2.79984 59.7333C2.79984 59.4504 2.68746 59.1791 2.48742 58.9791C2.28738 58.779 2.01607 58.6667 1.73317 58.6667C1.45027 58.6667 1.17896 58.779 0.978923 58.9791C0.778885 59.1791 0.666504 59.4504 0.666504 59.7333C0.666504 60.8649 1.11603 61.9502 1.91618 62.7503C2.71634 63.5505 3.80158 64 4.93317 64Z" fill="#428DFF"/>
<path d="M23.0664 8.5332H8.13311C7.28441 8.5332 6.47048 8.87034 5.87036 9.47046C5.27025 10.0706 4.93311 10.8845 4.93311 11.7332V27.7332C4.93311 28.5819 5.27025 29.3958 5.87036 29.9959C6.47048 30.5961 7.28441 30.9332 8.13311 30.9332H23.0664C23.9151 30.9332 24.7291 30.5961 25.3292 29.9959C25.9293 29.3958 26.2664 28.5819 26.2664 27.7332V11.7332C26.2664 10.8845 25.9293 10.0706 25.3292 9.47046C24.7291 8.87034 23.9151 8.5332 23.0664 8.5332ZM24.1331 27.7332C24.1331 28.0161 24.0207 28.2874 23.8207 28.4875C23.6206 28.6875 23.3493 28.7999 23.0664 28.7999H8.13311C7.85021 28.7999 7.5789 28.6875 7.37886 28.4875C7.17882 28.2874 7.06644 28.0161 7.06644 27.7332V11.7332C7.06644 11.4503 7.17882 11.179 7.37886 10.979C7.5789 10.7789 7.85021 10.6665 8.13311 10.6665H23.0664C23.3493 10.6665 23.6206 10.7789 23.8207 10.979C24.0207 11.179 24.1331 11.4503 24.1331 11.7332V27.7332Z" fill="#428DFF"/>
<path d="M13.9272 14.5472C13.8493 14.3469 13.7127 14.1748 13.5353 14.0535C13.3579 13.9321 13.148 13.8672 12.9331 13.8672C12.7182 13.8672 12.5083 13.9321 12.3309 14.0535C12.1535 14.1748 12.0169 14.3469 11.939 14.5472L8.20563 24.1472C8.10919 24.4096 8.11959 24.6993 8.2346 24.9541C8.34961 25.2089 8.56004 25.4083 8.82061 25.5095C9.08117 25.6108 9.37106 25.6056 9.62788 25.4953C9.88471 25.3849 10.088 25.1782 10.1939 24.9195L10.7592 23.4667H15.107L15.6723 24.9195C15.7212 25.0525 15.7961 25.1744 15.8926 25.2782C15.9892 25.3819 16.1054 25.4654 16.2346 25.5237C16.3638 25.582 16.5033 25.614 16.6449 25.6178C16.7866 25.6216 16.9276 25.5971 17.0597 25.5458C17.1918 25.4945 17.3123 25.4174 17.4143 25.3189C17.5162 25.2205 17.5976 25.1028 17.6535 24.9726C17.7094 24.8424 17.7389 24.7023 17.7401 24.5606C17.7413 24.4189 17.7143 24.2784 17.6606 24.1472L13.9272 14.5472ZM11.5891 21.3334L12.9331 17.8763L14.2771 21.3334H11.5891Z" fill="#428DFF"/>
<path d="M21.9998 14.9341H20.9332V13.8674C20.9332 13.5846 20.8208 13.3132 20.6208 13.1132C20.4207 12.9132 20.1494 12.8008 19.8665 12.8008C19.5836 12.8008 19.3123 12.9132 19.1123 13.1132C18.9122 13.3132 18.7998 13.5846 18.7998 13.8674V14.9341H17.7332C17.4503 14.9341 17.179 15.0465 16.9789 15.2465C16.7789 15.4466 16.6665 15.7179 16.6665 16.0008C16.6665 16.2837 16.7789 16.555 16.9789 16.755C17.179 16.9551 17.4503 17.0674 17.7332 17.0674H18.7998V18.1341C18.7998 18.417 18.9122 18.6883 19.1123 18.8884C19.3123 19.0884 19.5836 19.2008 19.8665 19.2008C20.1494 19.2008 20.4207 19.0884 20.6208 18.8884C20.8208 18.6883 20.9332 18.417 20.9332 18.1341V17.0674H21.9998C22.2827 17.0674 22.554 16.9551 22.7541 16.755C22.9541 16.555 23.0665 16.2837 23.0665 16.0008C23.0665 15.7179 22.9541 15.4466 22.7541 15.2465C22.554 15.0465 22.2827 14.9341 21.9998 14.9341Z" fill="#428DFF"/>
<path d="M5.99976 37.3342C5.99976 37.6171 6.11214 37.8885 6.31218 38.0885C6.51221 38.2885 6.78352 38.4009 7.06642 38.4009H43.3331C43.616 38.4009 43.8873 38.2885 44.0873 38.0885C44.2874 37.8885 44.3998 37.6171 44.3998 37.3342C44.3998 37.0513 44.2874 36.78 44.0873 36.58C43.8873 36.38 43.616 36.2676 43.3331 36.2676H7.06642C6.78352 36.2676 6.51221 36.38 6.31218 36.58C6.11214 36.78 5.99976 37.0513 5.99976 37.3342Z" fill="#428DFF"/>
<path d="M30.5332 11.7329H43.3332C43.6161 11.7329 43.8874 11.6206 44.0875 11.4205C44.2875 11.2205 44.3999 10.9492 44.3999 10.6663C44.3999 10.3834 44.2875 10.1121 44.0875 9.91203C43.8874 9.71199 43.6161 9.59961 43.3332 9.59961H30.5332C30.2503 9.59961 29.979 9.71199 29.779 9.91203C29.5789 10.1121 29.4666 10.3834 29.4666 10.6663C29.4666 10.9492 29.5789 11.2205 29.779 11.4205C29.979 11.6206 30.2503 11.7329 30.5332 11.7329Z" fill="#428DFF"/>
<path d="M30.5332 18.1333H43.3332C43.6161 18.1333 43.8874 18.021 44.0875 17.8209C44.2875 17.6209 44.3999 17.3496 44.3999 17.0667C44.3999 16.7838 44.2875 16.5125 44.0875 16.3124C43.8874 16.1124 43.6161 16 43.3332 16H30.5332C30.2503 16 29.979 16.1124 29.779 16.3124C29.5789 16.5125 29.4666 16.7838 29.4666 17.0667C29.4666 17.3496 29.5789 17.6209 29.779 17.8209C29.979 18.021 30.2503 18.1333 30.5332 18.1333Z" fill="#428DFF"/>
<path d="M30.5332 24.5337H43.3332C43.6161 24.5337 43.8874 24.4213 44.0875 24.2213C44.2875 24.0213 44.3999 23.75 44.3999 23.4671C44.3999 23.1842 44.2875 22.9128 44.0875 22.7128C43.8874 22.5128 43.6161 22.4004 43.3332 22.4004H30.5332C30.2503 22.4004 29.979 22.5128 29.779 22.7128C29.5789 22.9128 29.4666 23.1842 29.4666 23.4671C29.4666 23.75 29.5789 24.0213 29.779 24.2213C29.979 24.4213 30.2503 24.5337 30.5332 24.5337Z" fill="#428DFF"/>
<path d="M30.5332 30.9341H43.3332C43.6161 30.9341 43.8874 30.8217 44.0875 30.6217C44.2875 30.4217 44.3999 30.1503 44.3999 29.8674C44.3999 29.5846 44.2875 29.3132 44.0875 29.1132C43.8874 28.9132 43.6161 28.8008 43.3332 28.8008H30.5332C30.2503 28.8008 29.979 28.9132 29.779 29.1132C29.5789 29.3132 29.4666 29.5846 29.4666 29.8674C29.4666 30.1503 29.5789 30.4217 29.779 30.6217C29.979 30.8217 30.2503 30.9341 30.5332 30.9341Z" fill="#428DFF"/>
<path d="M43.3331 44.8008H7.06642C6.78352 44.8008 6.51221 44.9132 6.31218 45.1132C6.11214 45.3132 5.99976 45.5846 5.99976 45.8674C5.99976 46.1503 6.11214 46.4217 6.31218 46.6217C6.51221 46.8217 6.78352 46.9341 7.06642 46.9341H43.3331C43.616 46.9341 43.8873 46.8217 44.0873 46.6217C44.2874 46.4217 44.3998 46.1503 44.3998 45.8674C44.3998 45.5846 44.2874 45.3132 44.0873 45.1132C43.8873 44.9132 43.616 44.8008 43.3331 44.8008Z" fill="#428DFF"/>
<path d="M43.3331 53.334H7.06642C6.78352 53.334 6.51221 53.4464 6.31218 53.6464C6.11214 53.8464 5.99976 54.1178 5.99976 54.4007C5.99976 54.6835 6.11214 54.9549 6.31218 55.1549C6.51221 55.3549 6.78352 55.4673 7.06642 55.4673H43.3331C43.616 55.4673 43.8873 55.3549 44.0873 55.1549C44.2874 54.9549 44.3998 54.6835 44.3998 54.4007C44.3998 54.1178 44.2874 53.8464 44.0873 53.6464C43.8873 53.4464 43.616 53.334 43.3331 53.334Z" fill="#428DFF"/>
</g>
<defs>
<clipPath id="clip0_21015_63162">
<rect width="64" height="64" fill="white" transform="translate(0.666504)"/>
</clipPath>
</defs>
</svg>
