<svg width="72" height="73" viewBox="0 0 72 73" fill="none" xmlns="http://www.w3.org/2000/svg">
<g id="Layer_1" clip-path="url(#clip0_348_12175)">
<path id="Vector" d="M22.9205 0.976777C23.4939 1.37421 23.6637 1.92029 23.6364 2.60745C23.5909 3.75423 23.5985 4.90556 23.6364 6.05234C23.6637 6.91243 23.4984 7.60262 22.5352 7.75734V10.465C22.7915 10.3376 22.9994 10.2436 23.1966 10.1343C27.1329 7.96517 31.0754 5.80964 34.995 3.61164C35.7141 3.20966 36.295 3.21118 37.0141 3.61164C47.6 9.47702 58.1946 15.3242 68.7978 21.1532C69.4728 21.5248 69.7823 21.9935 69.7626 22.7747C69.7246 24.4145 69.7626 26.0558 69.7489 27.6956C69.7489 28.9592 68.9556 29.4309 67.8452 28.8317C66.6317 28.181 65.4394 27.5105 64.1348 26.793V45.9485H61.8762V45.1521C61.8762 38.8479 61.8802 32.5431 61.8883 26.2378C61.8883 25.7312 61.7518 25.4536 61.2952 25.2033C53.0685 20.6849 44.8504 16.1514 36.6409 11.6027C36.1722 11.3433 35.8415 11.3464 35.3713 11.6027C27.1617 16.1534 18.9442 20.6885 10.7185 25.2079C10.3135 25.4308 10.1117 25.6629 10.1117 26.1665C10.1309 36.2924 10.1355 46.4178 10.1254 56.5426V57.1964H12.3764V29.6099C12.3764 28.3069 12.6965 27.9808 13.9798 27.9808H28.8136C30.0272 27.9808 30.3745 28.3281 30.3745 29.5128C30.3745 34.7634 30.3745 40.0139 30.3745 45.2644V45.9349H28.1508V30.2849H14.673V57.21H16.821V59.4854H3.92727C3.73918 59.4854 3.55109 59.4763 3.36451 59.4854C2.7001 59.54 2.25109 60.0042 2.2602 60.62C2.2693 61.2359 2.71526 61.6819 3.39484 61.7259C3.58142 61.738 3.76951 61.7259 3.95761 61.7259H16.8377V63.9755H16.1065C12.1459 63.9755 8.18371 63.9163 4.2261 63.9997C2.13732 64.0437 0.702328 63.311 0 61.3027V59.8965C0.597661 58.2946 1.62764 57.2464 3.44793 57.2267C4.15026 57.2176 4.85259 57.2267 5.55491 57.2267H7.83027V26.8158C6.57579 27.506 5.39412 28.1628 4.20638 28.806C3.05505 29.4294 2.26019 28.9667 2.25412 27.6713C2.25412 26.0558 2.28447 24.4388 2.24047 22.8172C2.21772 22.0117 2.51352 21.5187 3.22343 21.138C5.73694 19.7879 8.22923 18.3985 10.717 17.0014C10.943 16.8755 11.2266 16.5888 11.2297 16.3734C11.263 13.517 11.2524 10.6607 11.2524 7.76797C10.321 7.58746 10.0889 6.96552 10.1178 6.11302C10.1572 4.94197 10.1602 3.7694 10.1178 2.59986C10.092 1.9127 10.2589 1.36662 10.8338 0.970703L22.9205 0.976777ZM67.5024 26.0695C67.5024 25.1593 67.4705 24.3918 67.5145 23.6227C67.5418 23.1509 67.3628 22.9249 66.9593 22.7125C56.8294 17.1364 46.7066 11.5496 36.5908 5.95224C36.1752 5.72319 35.8673 5.70649 35.4441 5.94313C31.9916 7.87264 28.5224 9.77483 25.0593 11.6861C18.4001 15.3621 11.7419 19.0406 5.08468 22.7216C4.85259 22.8506 4.54921 23.1084 4.53252 23.3284C4.47033 24.2052 4.50673 25.088 4.50673 26.0588C4.82072 25.898 5.04674 25.7888 5.26518 25.6675C15.1413 20.2167 25.0153 14.7604 34.8873 9.29853C35.7095 8.84346 36.3512 8.86317 37.1627 9.31217C44.7928 13.5595 52.4334 17.7826 60.0847 21.9814L67.5024 26.0695ZM13.5414 15.4632C15.7576 14.2497 17.8843 13.0726 20.0065 11.894C20.0648 11.8632 20.1158 11.8202 20.1559 11.7678C20.196 11.7154 20.2242 11.6549 20.2386 11.5906C20.2553 10.3133 20.2492 9.0361 20.2492 7.7619H13.5414V15.4632ZM21.3399 5.45165V3.27793H12.4326V5.45165H21.3399Z" fill="#98A2B3"/>
<path id="Vector_2" d="M46.9302 72.9857C40.4651 72.9857 34.0001 72.9751 27.5335 72.9994C26.7478 72.9994 26.2274 72.7521 25.7784 72.1029C23.3514 68.5958 20.9016 65.113 18.4594 61.6211C17.8329 60.7261 17.8314 60.4925 18.4503 59.6097C20.9061 56.098 23.3742 52.5955 25.8133 49.0717C26.2305 48.4649 26.7129 48.2207 27.4486 48.2207C40.3322 48.2369 53.2163 48.2414 66.1009 48.2344C69.5746 48.2344 71.988 50.6371 71.9941 54.0987C72.0032 58.432 72.0032 62.7663 71.9941 67.1017C71.9941 70.5708 69.5807 72.9812 66.1145 72.9842C59.7203 72.9903 53.3255 72.9908 46.9302 72.9857ZM47.3079 50.4824C40.9369 50.4824 34.5659 50.4824 28.1949 50.4824C27.7853 50.4824 27.5183 50.5719 27.2681 50.9375C25.1353 54.0168 22.9858 57.0855 20.8197 60.1436C20.5542 60.5183 20.583 60.761 20.8364 61.119C22.96 64.1204 25.068 67.1325 27.1604 70.1552C27.4637 70.586 27.7535 70.762 28.292 70.762C40.8732 70.7438 53.4539 70.7387 66.0341 70.7468C68.3777 70.7468 69.749 69.3816 69.7505 67.0395C69.7505 62.7749 69.7505 58.5104 69.7505 54.2459C69.7505 51.8522 68.396 50.4961 66.0084 50.4961L47.3079 50.4824Z" fill="#98A2B3"/>
<path id="Vector_3" d="M46.0866 43.732H36.3875C33.9908 43.732 32.6255 42.3774 32.624 40.002C32.624 37.2139 32.624 34.4258 32.624 31.6377C32.624 29.3882 34.0181 27.982 36.2479 27.9805C42.8313 27.9805 49.4147 27.9805 55.9981 27.9805C58.2021 27.9805 59.6144 29.3806 59.6204 31.568C59.6275 34.4258 59.6275 37.2842 59.6204 40.143C59.6204 42.3304 58.2021 43.7275 55.9965 43.7305C52.6947 43.7356 49.3914 43.7361 46.0866 43.732ZM42.713 30.2316C40.4179 30.2316 38.1729 30.2179 35.9294 30.2316C35.3757 30.2316 34.9434 30.5941 34.9146 31.1311C34.8524 32.3128 34.8964 33.499 34.8964 34.6837H42.713V30.2316ZM57.3724 34.6897C57.3724 33.637 57.3724 32.6343 57.3724 31.6317C57.3724 30.629 56.9765 30.2285 55.9677 30.2255C53.9998 30.2255 52.0319 30.2255 50.0639 30.2255C49.8864 30.2255 49.709 30.2558 49.533 30.2725V34.6882L57.3724 34.6897ZM42.713 37.0258H34.8782C34.8782 38.1756 34.8584 39.2754 34.8782 40.3736C34.8933 40.994 35.268 41.4354 35.8748 41.4491C38.1395 41.4901 40.4058 41.4658 42.7008 41.4658L42.713 37.0258ZM57.3708 37.0258H49.5512V41.4779C51.8038 41.4779 54.0048 41.49 56.2059 41.4779C56.9385 41.4779 57.3542 41.0228 57.3663 40.2644C57.3845 39.2025 57.3708 38.1483 57.3708 37.0258ZM47.2076 41.4491V30.2862H45.0414V41.4491H47.2076Z" fill="#98A2B3"/>
<path id="Vector_4" d="M37.5357 61.4126L39.2878 65.8116L37.2066 66.649C36.5998 65.1442 36.0082 63.6986 35.45 62.2378C35.2983 61.8495 35.1071 61.6993 34.6915 61.722C34.0392 61.7584 33.384 61.7327 32.6528 61.7327V66.1893H30.3774V63.7926C30.3774 61.3544 30.3774 58.9168 30.3774 56.4796C30.3774 55.3389 30.7415 54.9839 31.8943 54.9824C33.1837 54.9824 34.4726 54.9824 35.7609 54.9824C37.4553 54.9824 38.7553 55.8774 39.2119 57.3382C39.6761 58.8232 39.1361 60.2537 37.7405 61.2427C37.6874 61.2852 37.6358 61.3307 37.5357 61.4126ZM32.6725 57.2381V59.4846H33.6221C34.4155 59.4846 35.2088 59.5043 36.0006 59.4755C36.1474 59.4769 36.2929 59.4491 36.4288 59.3937C36.5647 59.3383 36.6882 59.2564 36.7921 59.1527C36.896 59.0491 36.9783 58.9258 37.0341 58.7901C37.0899 58.6543 37.1181 58.5088 37.117 58.3621C37.1199 58.2152 37.0932 58.0692 37.0385 57.9329C36.9838 57.7965 36.9022 57.6726 36.7986 57.5684C36.695 57.4643 36.5715 57.382 36.4354 57.3266C36.2994 57.2711 36.1536 57.2436 36.0067 57.2456C34.913 57.2183 33.8178 57.2381 32.6725 57.2381Z" fill="#98A2B3"/>
<path id="Vector_5" d="M56.2304 55.0188H58.5058V55.5937C58.5058 58.6609 58.4982 61.7296 58.5058 64.7968C58.5058 65.4445 58.3541 65.9785 57.6806 66.1787C57.0071 66.3789 56.5869 65.983 56.2532 65.443C55.1822 63.7152 54.1007 61.9935 52.916 60.102V66.1817H50.6649C50.6527 65.9936 50.6285 65.7904 50.627 65.5886C50.627 62.5442 50.627 59.4997 50.627 56.4553C50.627 55.7818 50.7786 55.219 51.484 55.0279C52.1666 54.8459 52.5656 55.26 52.8978 55.8015C53.8413 57.3366 54.803 58.8596 55.7602 60.3871C55.8785 60.5768 56.0105 60.7573 56.241 61.0955L56.2304 55.0188Z" fill="#98A2B3"/>
<path id="Vector_6" d="M48.3588 54.9959V57.2015H42.7933V59.4617H47.1923V61.7219H42.7827V63.9578H48.3285V66.2119C46.3428 66.2119 44.3845 66.2665 42.4201 66.1907C41.3583 66.1497 40.524 65.1637 40.5088 64.0928C40.4795 61.7739 40.4795 59.4541 40.5088 57.1332C40.524 56.0213 41.3871 55.0505 42.4808 55.0095C44.4164 54.9489 46.3565 54.9959 48.3588 54.9959Z" fill="#98A2B3"/>
<path id="Vector_7" d="M67.4631 55.0304V57.2162H65.2787V66.1872H63.0034V57.2542H60.7993V55.0273L67.4631 55.0304Z" fill="#98A2B3"/>
</g>
<defs>
<clipPath id="clip0_348_12175">
<rect width="72" height="72.0228" fill="white" transform="translate(0 0.976562)"/>
</clipPath>
</defs>
</svg>
