<svg width="602" height="81" viewBox="0 0 602 81" fill="none" xmlns="http://www.w3.org/2000/svg">
<path fill-rule="evenodd" clip-rule="evenodd" d="M23.9643 60.7385C25.2248 61.4361 26.7713 60.5244 26.7713 59.0838V41.2773C26.7713 39.2008 25.1374 37.5176 23.122 37.5176H17.032C15.0166 37.5176 13.3828 39.2008 13.3828 41.2772V53.768C13.3828 54.4559 13.7564 55.0896 14.3583 55.4227L23.9643 60.7385Z" fill="#0C3F8B"/>
<path d="M42.0222 62.5573C42.6137 62.2212 42.9792 61.5933 42.9792 60.9129V23.8398C42.9792 21.7633 41.3453 20.0801 39.3299 20.0801H33.2479C31.2325 20.0801 29.5986 21.7633 29.5986 23.8398V63.3366C29.5986 63.6287 29.7555 63.8982 30.0094 64.0425C32.9347 65.7045 36.4829 65.7045 39.4081 64.0425L42.0222 62.5573Z" fill="#F2B926"/>
<path d="M58.7085 53.2804C58.984 52.9668 59.1174 52.557 59.1174 52.1397V31.3612C59.1174 29.2848 57.4836 27.6016 55.4682 27.6016H49.4666C47.4512 27.6016 45.8174 29.2848 45.8174 31.3612V58.1743C45.8174 59.6407 47.4139 60.5493 48.6746 59.8003L56.3553 55.2371C57.2471 54.7073 58.0375 54.0442 58.7085 53.2804Z" fill="#59BC49"/>
<path fill-rule="evenodd" clip-rule="evenodd" d="M27.5421 78.1908L8.07953 66.557C3.07825 63.5675 0 58.0609 0 52.1038V28.7907C0 22.8336 3.07825 17.327 8.07953 14.3375L27.5421 2.70375C32.5754 -0.304899 38.7874 -0.304896 43.8207 2.70376L63.2833 14.3375C68.2846 17.327 71.3628 22.8336 71.3628 28.7907V52.1038C71.3628 58.0609 68.2846 63.5675 63.2833 66.557L43.8207 78.1908C38.7874 81.1994 32.5754 81.1994 27.5421 78.1908ZM40.565 8.48502L60.0276 20.1188C63.0284 21.9125 64.8753 25.2164 64.8753 28.7907V52.1038C64.8753 55.6781 63.0284 58.982 60.0276 60.7757L40.565 72.4095C37.545 74.2147 33.8178 74.2147 30.7978 72.4095L11.3352 60.7757C8.33448 58.982 6.48753 55.6781 6.48753 52.1038V28.7907C6.48753 25.2165 8.33448 21.9125 11.3352 20.1188L30.7978 8.48502C33.8178 6.67983 37.545 6.67983 40.565 8.48502Z" fill="white"/>
<path d="M98.7068 26.4473C98.3841 26.4473 98.1128 26.3373 97.8928 26.1173C97.6728 25.8973 97.5628 25.6259 97.5628 25.3033V10.4093C97.5628 10.0719 97.6728 9.8006 97.8928 9.59526C98.1128 9.37527 98.3841 9.26527 98.7068 9.26527H108.651C108.988 9.26527 109.259 9.36793 109.465 9.57327C109.67 9.76393 109.773 10.0206 109.773 10.3433C109.773 10.6513 109.67 10.9006 109.465 11.0913C109.259 11.2819 108.988 11.3773 108.651 11.3773H99.8508V16.7233H106.165C106.502 16.7233 106.773 16.8259 106.979 17.0313C107.184 17.2219 107.287 17.4713 107.287 17.7793C107.287 18.0873 107.184 18.3439 106.979 18.5493C106.773 18.7399 106.502 18.8353 106.165 18.8353H99.8508V24.3353H108.651C108.988 24.3353 109.259 24.4306 109.465 24.6213C109.67 24.8119 109.773 25.0613 109.773 25.3693C109.773 25.6919 109.67 25.9559 109.465 26.1613C109.259 26.3519 108.988 26.4473 108.651 26.4473H98.7068ZM113.231 26.4473C112.908 26.4473 112.637 26.3373 112.417 26.1173C112.197 25.8973 112.087 25.6259 112.087 25.3033V10.4093C112.087 10.0719 112.197 9.8006 112.417 9.59526C112.637 9.37527 112.908 9.26527 113.231 9.26527C113.671 9.26527 114.008 9.4706 114.243 9.88127L121.129 23.6753H120.425L127.135 9.88127C127.37 9.4706 127.707 9.26527 128.147 9.26527C128.47 9.26527 128.741 9.37527 128.961 9.59526C129.181 9.8006 129.291 10.0719 129.291 10.4093V25.3033C129.291 25.6259 129.174 25.8973 128.939 26.1173C128.719 26.3373 128.455 26.4473 128.147 26.4473C127.824 26.4473 127.553 26.3373 127.333 26.1173C127.113 25.8973 127.003 25.6259 127.003 25.3033V13.5773L127.443 13.4673L121.679 25.2153C121.43 25.5966 121.1 25.7873 120.689 25.7873C120.205 25.7873 119.853 25.5599 119.633 25.1053L113.935 13.6873L114.375 13.5773V25.3033C114.375 25.6259 114.265 25.8973 114.045 26.1173C113.825 26.3373 113.554 26.4473 113.231 26.4473ZM138.276 26.6673C137.338 26.6673 136.443 26.5206 135.592 26.2273C134.742 25.9339 134.001 25.5233 133.37 24.9953C132.74 24.4673 132.278 23.8586 131.984 23.1693C131.838 22.8613 131.838 22.5753 131.984 22.3113C132.146 22.0473 132.41 21.8786 132.776 21.8053C133.04 21.7466 133.297 21.7906 133.546 21.9373C133.81 22.0693 134.008 22.2746 134.14 22.5533C134.316 22.9199 134.602 23.2573 134.998 23.5653C135.409 23.8733 135.9 24.1226 136.472 24.3133C137.044 24.5039 137.646 24.5993 138.276 24.5993C138.98 24.5993 139.626 24.4893 140.212 24.2693C140.814 24.0493 141.298 23.7339 141.664 23.3233C142.031 22.8979 142.214 22.3773 142.214 21.7613C142.214 20.9839 141.906 20.2873 141.29 19.6713C140.689 19.0553 139.692 18.6739 138.298 18.5273C136.48 18.3513 135.05 17.8159 134.008 16.9213C132.967 16.0266 132.446 14.9193 132.446 13.5993C132.446 12.6313 132.718 11.8099 133.26 11.1353C133.803 10.4606 134.536 9.94726 135.46 9.59526C136.399 9.24327 137.44 9.06727 138.584 9.06727C139.479 9.06727 140.256 9.19193 140.916 9.44126C141.591 9.6906 142.178 10.0353 142.676 10.4753C143.175 10.9153 143.608 11.4359 143.974 12.0373C144.18 12.3599 144.26 12.6679 144.216 12.9613C144.187 13.2399 144.048 13.4599 143.798 13.6213C143.52 13.7973 143.219 13.8339 142.896 13.7313C142.574 13.6286 142.332 13.4379 142.17 13.1593C141.936 12.7339 141.65 12.3746 141.312 12.0813C140.975 11.7879 140.579 11.5606 140.124 11.3993C139.67 11.2233 139.134 11.1353 138.518 11.1353C137.433 11.1206 136.524 11.3259 135.79 11.7513C135.057 12.1619 134.69 12.7999 134.69 13.6653C134.69 14.1053 134.8 14.5306 135.02 14.9413C135.255 15.3373 135.673 15.6819 136.274 15.9753C136.89 16.2686 137.77 16.4739 138.914 16.5913C140.66 16.7673 142.016 17.3026 142.984 18.1973C143.967 19.0773 144.458 20.2433 144.458 21.6953C144.458 22.5313 144.282 23.2573 143.93 23.8733C143.593 24.4893 143.131 25.0099 142.544 25.4353C141.972 25.8459 141.312 26.1539 140.564 26.3593C139.831 26.5646 139.068 26.6673 138.276 26.6673ZM157.316 26.4473C156.216 26.4473 155.241 26.2199 154.39 25.7653C153.54 25.2959 152.872 24.6653 152.388 23.8733C151.904 23.0666 151.662 22.1646 151.662 21.1673C151.662 20.8299 151.758 20.5586 151.948 20.3533C152.154 20.1333 152.396 20.0233 152.674 20.0233C152.968 20.0233 153.21 20.1333 153.4 20.3533C153.591 20.5586 153.686 20.8299 153.686 21.1673C153.686 21.7686 153.84 22.3259 154.148 22.8393C154.456 23.3379 154.874 23.7413 155.402 24.0493C155.93 24.3426 156.524 24.4893 157.184 24.4893C158.152 24.4893 158.93 24.2253 159.516 23.6973C160.118 23.1546 160.418 22.3993 160.418 21.4313C160.418 20.8153 160.286 20.2653 160.022 19.7813C159.758 19.2826 159.399 18.8866 158.944 18.5933C158.49 18.2999 157.976 18.1533 157.404 18.1533C157.082 18.1533 156.81 18.0433 156.59 17.8233C156.385 17.6033 156.282 17.3319 156.282 17.0093C156.282 16.6866 156.385 16.4226 156.59 16.2173C156.81 15.9973 157.082 15.8873 157.404 15.8873C157.815 15.8873 158.211 15.7846 158.592 15.5793C158.974 15.3593 159.289 15.0733 159.538 14.7213C159.788 14.3546 159.912 13.9439 159.912 13.4893C159.912 12.8439 159.678 12.3013 159.208 11.8613C158.739 11.4213 158.138 11.2013 157.404 11.2013C156.847 11.2013 156.334 11.3113 155.864 11.5313C155.41 11.7513 155.043 12.0446 154.764 12.4113C154.5 12.7779 154.368 13.1886 154.368 13.6433C154.368 13.9806 154.273 14.2666 154.082 14.5013C153.892 14.7213 153.65 14.8313 153.356 14.8313C153.078 14.8313 152.836 14.7286 152.63 14.5233C152.44 14.3033 152.344 14.0319 152.344 13.7093C152.344 12.8586 152.564 12.0959 153.004 11.4213C153.444 10.7466 154.046 10.2186 154.808 9.83726C155.571 9.44126 156.422 9.24326 157.36 9.24326C158.226 9.24326 159.003 9.43393 159.692 9.81526C160.396 10.1819 160.946 10.6879 161.342 11.3333C161.753 11.9639 161.958 12.6826 161.958 13.4893C161.958 14.0613 161.826 14.5673 161.562 15.0073C161.313 15.4473 160.99 15.8286 160.594 16.1513C160.198 16.4593 159.78 16.7159 159.34 16.9213C160.118 17.1853 160.748 17.5446 161.232 17.9993C161.716 18.4393 162.068 18.9526 162.288 19.5393C162.523 20.1259 162.64 20.7639 162.64 21.4533C162.64 22.4066 162.398 23.2646 161.914 24.0273C161.43 24.7753 160.785 25.3693 159.978 25.8093C159.172 26.2346 158.284 26.4473 157.316 26.4473ZM169.364 26.4473C168.352 26.4473 167.45 26.2273 166.658 25.7873C165.881 25.3326 165.272 24.7166 164.832 23.9393C164.392 23.1473 164.172 22.2453 164.172 21.2333C164.172 20.2066 164.392 19.3046 164.832 18.5273C165.272 17.7353 165.881 17.1193 166.658 16.6793C167.45 16.2246 168.352 15.9973 169.364 15.9973C170.376 15.9973 171.271 16.2246 172.048 16.6793C172.825 17.1193 173.434 17.7353 173.874 18.5273C174.314 19.3046 174.534 20.2066 174.534 21.2333C174.534 22.2453 174.314 23.1473 173.874 23.9393C173.434 24.7166 172.825 25.3326 172.048 25.7873C171.271 26.2273 170.376 26.4473 169.364 26.4473ZM169.342 24.4673C169.943 24.4673 170.471 24.3353 170.926 24.0713C171.395 23.7926 171.762 23.4113 172.026 22.9273C172.29 22.4286 172.422 21.8639 172.422 21.2333C172.422 20.5879 172.29 20.0233 172.026 19.5393C171.762 19.0553 171.395 18.6739 170.926 18.3953C170.471 18.1166 169.943 17.9773 169.342 17.9773C168.741 17.9773 168.205 18.1166 167.736 18.3953C167.281 18.6739 166.922 19.0553 166.658 19.5393C166.409 20.0233 166.284 20.5879 166.284 21.2333C166.284 21.8639 166.409 22.4286 166.658 22.9273C166.922 23.4113 167.281 23.7926 167.736 24.0713C168.205 24.3353 168.741 24.4673 169.342 24.4673ZM164.898 18.4173L170.002 9.90326C170.266 9.4926 170.603 9.28726 171.014 9.28726C171.322 9.28726 171.579 9.37527 171.784 9.55127C171.989 9.72726 172.114 9.94726 172.158 10.2113C172.217 10.4753 172.165 10.7393 172.004 11.0033L168.88 16.1953L164.898 18.4173ZM181.003 26.4473C179.889 26.4473 178.935 26.1099 178.143 25.4353C177.366 24.7459 176.772 23.7633 176.361 22.4873C175.951 21.1966 175.745 19.6493 175.745 17.8453C175.745 16.0413 175.951 14.5013 176.361 13.2253C176.772 11.9346 177.366 10.9519 178.143 10.2773C178.935 9.58793 179.889 9.24326 181.003 9.24326C182.118 9.24326 183.064 9.59526 183.841 10.2993C184.633 10.9886 185.235 11.9786 185.645 13.2693C186.056 14.5453 186.261 16.0706 186.261 17.8453C186.261 19.6199 186.056 21.1526 185.645 22.4433C185.235 23.7193 184.633 24.7093 183.841 25.4133C183.064 26.1026 182.118 26.4473 181.003 26.4473ZM181.003 24.1593C181.678 24.1593 182.235 23.8879 182.675 23.3453C183.115 22.7879 183.445 22.0326 183.665 21.0793C183.885 20.1259 183.995 19.0479 183.995 17.8453C183.995 16.6426 183.885 15.5646 183.665 14.6113C183.445 13.6579 183.115 12.9026 182.675 12.3453C182.235 11.7879 181.678 11.5093 181.003 11.5093C180.329 11.5093 179.771 11.7879 179.331 12.3453C178.891 12.8879 178.561 13.6359 178.341 14.5893C178.121 15.5426 178.011 16.6279 178.011 17.8453C178.011 19.0626 178.121 20.1479 178.341 21.1013C178.561 22.0546 178.891 22.8026 179.331 23.3453C179.786 23.8879 180.343 24.1593 181.003 24.1593ZM101.443 71.4473C100.856 71.4473 100.363 71.2473 99.9628 70.8473C99.5628 70.4473 99.3628 69.9539 99.3628 69.3673V42.2873C99.3628 41.6739 99.5628 41.1806 99.9628 40.8073C100.363 40.4073 100.856 40.2073 101.443 40.2073H109.443C111.443 40.2073 113.216 40.6473 114.763 41.5273C116.309 42.4073 117.509 43.6339 118.363 45.2073C119.243 46.7539 119.683 48.5406 119.683 50.5673C119.683 52.5139 119.243 54.2473 118.363 55.7673C117.509 57.2873 116.309 58.4739 114.763 59.3273C113.216 60.1806 111.443 60.6073 109.443 60.6073H103.523V69.3673C103.523 69.9539 103.323 70.4473 102.923 70.8473C102.549 71.2473 102.056 71.4473 101.443 71.4473ZM103.523 56.7673H109.443C110.669 56.7673 111.749 56.5006 112.683 55.9673C113.616 55.4339 114.349 54.7006 114.883 53.7673C115.416 52.8339 115.683 51.7673 115.683 50.5673C115.683 49.2873 115.416 48.1673 114.883 47.2073C114.349 46.2206 113.616 45.4473 112.683 44.8873C111.749 44.3273 110.669 44.0473 109.443 44.0473H103.523V56.7673ZM124.245 57.7673C124.245 56.1673 124.631 54.7406 125.405 53.4873C126.205 52.2073 127.271 51.1939 128.605 50.4473C129.938 49.7006 131.405 49.3273 133.005 49.3273C134.605 49.3273 135.791 49.5939 136.565 50.1273C137.365 50.6339 137.671 51.2473 137.485 51.9673C137.405 52.3406 137.245 52.6339 137.005 52.8473C136.791 53.0339 136.538 53.1539 136.245 53.2073C135.951 53.2606 135.631 53.2473 135.285 53.1673C133.578 52.8206 132.045 52.7939 130.685 53.0873C129.325 53.3806 128.245 53.9273 127.445 54.7273C126.671 55.5273 126.285 56.5406 126.285 57.7673H124.245ZM124.285 71.4473C123.645 71.4473 123.151 71.2873 122.805 70.9673C122.458 70.6206 122.285 70.1139 122.285 69.4473V51.5673C122.285 50.9273 122.458 50.4339 122.805 50.0873C123.151 49.7406 123.645 49.5673 124.285 49.5673C124.951 49.5673 125.445 49.7406 125.765 50.0873C126.111 50.4073 126.285 50.9006 126.285 51.5673V69.4473C126.285 70.0873 126.111 70.5806 125.765 70.9273C125.445 71.2739 124.951 71.4473 124.285 71.4473ZM148.456 71.6073C146.296 71.6073 144.39 71.1406 142.736 70.2073C141.083 69.2473 139.776 67.9406 138.816 66.2873C137.883 64.6073 137.416 62.6873 137.416 60.5273C137.416 58.3406 137.883 56.4206 138.816 54.7673C139.776 53.0873 141.083 51.7806 142.736 50.8473C144.39 49.8873 146.296 49.4073 148.456 49.4073C150.59 49.4073 152.483 49.8873 154.136 50.8473C155.79 51.7806 157.083 53.0873 158.016 54.7673C158.976 56.4206 159.456 58.3406 159.456 60.5273C159.456 62.6873 158.99 64.6073 158.056 66.2873C157.123 67.9406 155.83 69.2473 154.176 70.2073C152.523 71.1406 150.616 71.6073 148.456 71.6073ZM148.456 68.0073C149.843 68.0073 151.07 67.6873 152.136 67.0473C153.203 66.4073 154.03 65.5273 154.616 64.4073C155.23 63.2873 155.536 61.9939 155.536 60.5273C155.536 59.0606 155.23 57.7673 154.616 56.6473C154.03 55.5006 153.203 54.6073 152.136 53.9673C151.07 53.3273 149.843 53.0073 148.456 53.0073C147.07 53.0073 145.843 53.3273 144.776 53.9673C143.71 54.6073 142.87 55.5006 142.256 56.6473C141.643 57.7673 141.336 59.0606 141.336 60.5273C141.336 61.9939 141.643 63.2873 142.256 64.4073C142.87 65.5273 143.71 66.4073 144.776 67.0473C145.843 67.6873 147.07 68.0073 148.456 68.0073ZM166.288 71.4473C165.782 71.4473 165.328 71.2606 164.928 70.8873C164.528 70.5139 164.328 70.0206 164.328 69.4073V49.6873C164.328 47.7673 164.702 46.1006 165.448 44.6873C166.222 43.2739 167.288 42.1806 168.648 41.4073C170.008 40.6073 171.582 40.2073 173.368 40.2073C173.955 40.2073 174.435 40.3806 174.808 40.7273C175.208 41.0739 175.408 41.5139 175.408 42.0473C175.408 42.5539 175.208 42.9939 174.808 43.3673C174.435 43.7139 173.955 43.8873 173.368 43.8873C172.382 43.8873 171.515 44.1139 170.768 44.5673C170.022 45.0206 169.435 45.6473 169.008 46.4473C168.608 47.2473 168.408 48.1939 168.408 49.2873V69.4073C168.408 70.0206 168.222 70.5139 167.848 70.8873C167.475 71.2606 166.955 71.4473 166.288 71.4473ZM162.608 53.8073C162.048 53.8073 161.595 53.6473 161.248 53.3273C160.902 53.0073 160.728 52.6073 160.728 52.1273C160.728 51.5939 160.902 51.1673 161.248 50.8473C161.595 50.5273 162.048 50.3673 162.608 50.3673H172.488C173.048 50.3673 173.502 50.5273 173.848 50.8473C174.195 51.1673 174.368 51.5939 174.368 52.1273C174.368 52.6073 174.195 53.0073 173.848 53.3273C173.502 53.6473 173.048 53.8073 172.488 53.8073H162.608ZM186.515 71.6073C184.301 71.6073 182.328 71.1406 180.595 70.2073C178.888 69.2473 177.541 67.9406 176.555 66.2873C175.595 64.6073 175.115 62.6873 175.115 60.5273C175.115 58.3406 175.568 56.4206 176.475 54.7673C177.408 53.0873 178.688 51.7806 180.315 50.8473C181.941 49.8873 183.808 49.4073 185.915 49.4073C187.995 49.4073 189.781 49.8739 191.275 50.8073C192.768 51.7139 193.901 52.9806 194.675 54.6073C195.475 56.2073 195.875 58.0606 195.875 60.1673C195.875 60.6739 195.701 61.1006 195.355 61.4473C195.008 61.7673 194.568 61.9273 194.035 61.9273H177.915V58.7273H193.915L192.275 59.8473C192.248 58.5139 191.981 57.3273 191.475 56.2873C190.968 55.2206 190.248 54.3806 189.315 53.7673C188.381 53.1539 187.248 52.8473 185.915 52.8473C184.395 52.8473 183.088 53.1806 181.995 53.8473C180.928 54.5139 180.115 55.4339 179.555 56.6073C178.995 57.7539 178.715 59.0606 178.715 60.5273C178.715 61.9939 179.048 63.3006 179.715 64.4473C180.381 65.5939 181.301 66.5006 182.475 67.1673C183.648 67.8339 184.995 68.1673 186.515 68.1673C187.341 68.1673 188.181 68.0206 189.035 67.7273C189.915 67.4073 190.621 67.0473 191.155 66.6473C191.555 66.3539 191.981 66.2073 192.435 66.2073C192.915 66.1806 193.328 66.3139 193.675 66.6073C194.128 67.0073 194.368 67.4473 194.395 67.9273C194.421 68.4073 194.208 68.8206 193.755 69.1673C192.848 69.8873 191.715 70.4739 190.355 70.9273C189.021 71.3806 187.741 71.6073 186.515 71.6073ZM207.438 71.6073C205.572 71.6073 203.838 71.3273 202.238 70.7673C200.665 70.1806 199.438 69.4473 198.558 68.5673C198.158 68.1406 197.985 67.6606 198.038 67.1273C198.118 66.5673 198.385 66.1139 198.838 65.7673C199.372 65.3406 199.892 65.1673 200.398 65.2473C200.932 65.3006 201.385 65.5273 201.758 65.9273C202.212 66.4339 202.932 66.9139 203.918 67.3673C204.932 67.7939 206.052 68.0073 207.278 68.0073C208.825 68.0073 209.998 67.7539 210.798 67.2473C211.625 66.7406 212.052 66.0873 212.078 65.2873C212.105 64.4873 211.718 63.7939 210.918 63.2073C210.145 62.6206 208.718 62.1406 206.638 61.7673C203.945 61.2339 201.985 60.4339 200.758 59.3673C199.558 58.3006 198.958 56.9939 198.958 55.4473C198.958 54.0873 199.358 52.9673 200.158 52.0873C200.958 51.1806 201.985 50.5139 203.238 50.0873C204.492 49.6339 205.798 49.4073 207.158 49.4073C208.918 49.4073 210.478 49.6873 211.838 50.2473C213.198 50.8073 214.278 51.5806 215.078 52.5673C215.452 52.9939 215.625 53.4473 215.598 53.9273C215.572 54.3806 215.345 54.7673 214.918 55.0873C214.492 55.3806 213.985 55.4739 213.398 55.3673C212.812 55.2606 212.318 55.0206 211.918 54.6473C211.252 54.0073 210.532 53.5673 209.758 53.3273C208.985 53.0873 208.092 52.9673 207.078 52.9673C205.905 52.9673 204.905 53.1673 204.078 53.5673C203.278 53.9673 202.878 54.5539 202.878 55.3273C202.878 55.8073 202.998 56.2473 203.238 56.6473C203.505 57.0206 204.012 57.3673 204.758 57.6873C205.505 57.9806 206.598 58.2739 208.038 58.5673C210.038 58.9673 211.612 59.4739 212.758 60.0873C213.932 60.7006 214.772 61.4206 215.278 62.2473C215.785 63.0473 216.038 63.9806 216.038 65.0473C216.038 66.2739 215.705 67.3806 215.038 68.3673C214.398 69.3539 213.438 70.1406 212.158 70.7273C210.905 71.3139 209.332 71.6073 207.438 71.6073ZM227.557 71.6073C225.691 71.6073 223.957 71.3273 222.357 70.7673C220.784 70.1806 219.557 69.4473 218.677 68.5673C218.277 68.1406 218.104 67.6606 218.157 67.1273C218.237 66.5673 218.504 66.1139 218.957 65.7673C219.491 65.3406 220.011 65.1673 220.517 65.2473C221.051 65.3006 221.504 65.5273 221.877 65.9273C222.331 66.4339 223.051 66.9139 224.037 67.3673C225.051 67.7939 226.171 68.0073 227.397 68.0073C228.944 68.0073 230.117 67.7539 230.917 67.2473C231.744 66.7406 232.171 66.0873 232.197 65.2873C232.224 64.4873 231.837 63.7939 231.037 63.2073C230.264 62.6206 228.837 62.1406 226.757 61.7673C224.064 61.2339 222.104 60.4339 220.877 59.3673C219.677 58.3006 219.077 56.9939 219.077 55.4473C219.077 54.0873 219.477 52.9673 220.277 52.0873C221.077 51.1806 222.104 50.5139 223.357 50.0873C224.611 49.6339 225.917 49.4073 227.277 49.4073C229.037 49.4073 230.597 49.6873 231.957 50.2473C233.317 50.8073 234.397 51.5806 235.197 52.5673C235.571 52.9939 235.744 53.4473 235.717 53.9273C235.691 54.3806 235.464 54.7673 235.037 55.0873C234.611 55.3806 234.104 55.4739 233.517 55.3673C232.931 55.2606 232.437 55.0206 232.037 54.6473C231.371 54.0073 230.651 53.5673 229.877 53.3273C229.104 53.0873 228.211 52.9673 227.197 52.9673C226.024 52.9673 225.024 53.1673 224.197 53.5673C223.397 53.9673 222.997 54.5539 222.997 55.3273C222.997 55.8073 223.117 56.2473 223.357 56.6473C223.624 57.0206 224.131 57.3673 224.877 57.6873C225.624 57.9806 226.717 58.2739 228.157 58.5673C230.157 58.9673 231.731 59.4739 232.877 60.0873C234.051 60.7006 234.891 61.4206 235.397 62.2473C235.904 63.0473 236.157 63.9806 236.157 65.0473C236.157 66.2739 235.824 67.3806 235.157 68.3673C234.517 69.3539 233.557 70.1406 232.277 70.7273C231.024 71.3139 229.451 71.6073 227.557 71.6073ZM242.156 71.4473C241.569 71.4473 241.076 71.2606 240.676 70.8873C240.303 70.4873 240.116 69.9939 240.116 69.4073V51.6073C240.116 50.9939 240.303 50.5006 240.676 50.1273C241.076 49.7539 241.569 49.5673 242.156 49.5673C242.769 49.5673 243.263 49.7539 243.636 50.1273C244.009 50.5006 244.196 50.9939 244.196 51.6073V69.4073C244.196 69.9939 244.009 70.4873 243.636 70.8873C243.263 71.2606 242.769 71.4473 242.156 71.4473ZM242.156 46.0073C241.436 46.0073 240.809 45.7539 240.276 45.2473C239.769 44.7139 239.516 44.0873 239.516 43.3673C239.516 42.6473 239.769 42.0339 240.276 41.5273C240.809 40.9939 241.436 40.7273 242.156 40.7273C242.876 40.7273 243.489 40.9939 243.996 41.5273C244.529 42.0339 244.796 42.6473 244.796 43.3673C244.796 44.0873 244.529 44.7139 243.996 45.2473C243.489 45.7539 242.876 46.0073 242.156 46.0073ZM260.106 71.6073C257.946 71.6073 256.04 71.1406 254.386 70.2073C252.733 69.2473 251.426 67.9406 250.466 66.2873C249.533 64.6073 249.066 62.6873 249.066 60.5273C249.066 58.3406 249.533 56.4206 250.466 54.7673C251.426 53.0873 252.733 51.7806 254.386 50.8473C256.04 49.8873 257.946 49.4073 260.106 49.4073C262.24 49.4073 264.133 49.8873 265.786 50.8473C267.44 51.7806 268.733 53.0873 269.666 54.7673C270.626 56.4206 271.106 58.3406 271.106 60.5273C271.106 62.6873 270.64 64.6073 269.706 66.2873C268.773 67.9406 267.48 69.2473 265.826 70.2073C264.173 71.1406 262.266 71.6073 260.106 71.6073ZM260.106 68.0073C261.493 68.0073 262.72 67.6873 263.786 67.0473C264.853 66.4073 265.68 65.5273 266.266 64.4073C266.88 63.2873 267.186 61.9939 267.186 60.5273C267.186 59.0606 266.88 57.7673 266.266 56.6473C265.68 55.5006 264.853 54.6073 263.786 53.9673C262.72 53.3273 261.493 53.0073 260.106 53.0073C258.72 53.0073 257.493 53.3273 256.426 53.9673C255.36 54.6073 254.52 55.5006 253.906 56.6473C253.293 57.7673 252.986 59.0606 252.986 60.5273C252.986 61.9939 253.293 63.2873 253.906 64.4073C254.52 65.5273 255.36 66.4073 256.426 67.0473C257.493 67.6873 258.72 68.0073 260.106 68.0073ZM294.058 71.4873C293.472 71.4873 292.978 71.3006 292.578 70.9273C292.205 70.5273 292.018 70.0339 292.018 69.4473V59.6073C292.018 58.0873 291.738 56.8473 291.178 55.8873C290.618 54.9273 289.858 54.2206 288.898 53.7673C287.965 53.2873 286.885 53.0473 285.658 53.0473C284.538 53.0473 283.525 53.2739 282.618 53.7273C281.712 54.1806 280.992 54.7939 280.458 55.5673C279.925 56.3139 279.658 57.1806 279.658 58.1673H277.138C277.138 56.4873 277.538 54.9939 278.338 53.6873C279.165 52.3539 280.285 51.3006 281.698 50.5273C283.112 49.7539 284.698 49.3673 286.458 49.3673C288.298 49.3673 289.938 49.7673 291.378 50.5673C292.845 51.3406 293.992 52.4873 294.818 54.0073C295.672 55.5273 296.098 57.3939 296.098 59.6073V69.4473C296.098 70.0339 295.898 70.5273 295.498 70.9273C295.125 71.3006 294.645 71.4873 294.058 71.4873ZM277.618 71.4873C277.032 71.4873 276.538 71.3006 276.138 70.9273C275.765 70.5273 275.578 70.0339 275.578 69.4473V51.6073C275.578 50.9939 275.765 50.5006 276.138 50.1273C276.538 49.7539 277.032 49.5673 277.618 49.5673C278.232 49.5673 278.725 49.7539 279.098 50.1273C279.472 50.5006 279.658 50.9939 279.658 51.6073V69.4473C279.658 70.0339 279.472 70.5273 279.098 70.9273C278.725 71.3006 278.232 71.4873 277.618 71.4873ZM310.364 71.6073C308.417 71.6073 306.671 71.1273 305.124 70.1673C303.577 69.1806 302.351 67.8606 301.444 66.2073C300.564 64.5273 300.124 62.6339 300.124 60.5273C300.124 58.4206 300.604 56.5273 301.564 54.8473C302.551 53.1673 303.871 51.8473 305.524 50.8873C307.204 49.9006 309.084 49.4073 311.164 49.4073C313.244 49.4073 315.111 49.9006 316.764 50.8873C318.417 51.8473 319.724 53.1673 320.684 54.8473C321.671 56.5273 322.164 58.4206 322.164 60.5273H320.604C320.604 62.6339 320.151 64.5273 319.244 66.2073C318.364 67.8606 317.151 69.1806 315.604 70.1673C314.057 71.1273 312.311 71.6073 310.364 71.6073ZM311.164 68.0073C312.524 68.0073 313.737 67.6873 314.804 67.0473C315.871 66.3806 316.711 65.4873 317.324 64.3673C317.937 63.2206 318.244 61.9406 318.244 60.5273C318.244 59.0873 317.937 57.8073 317.324 56.6873C316.711 55.5406 315.871 54.6473 314.804 54.0073C313.737 53.3406 312.524 53.0073 311.164 53.0073C309.831 53.0073 308.617 53.3406 307.524 54.0073C306.457 54.6473 305.604 55.5406 304.964 56.6873C304.351 57.8073 304.044 59.0873 304.044 60.5273C304.044 61.9406 304.351 63.2206 304.964 64.3673C305.604 65.4873 306.457 66.3806 307.524 67.0473C308.617 67.6873 309.831 68.0073 311.164 68.0073ZM320.124 71.4873C319.537 71.4873 319.044 71.3006 318.644 70.9273C318.271 70.5273 318.084 70.0339 318.084 69.4473V63.3273L318.844 59.0873L322.164 60.5273V69.4473C322.164 70.0339 321.964 70.5273 321.564 70.9273C321.191 71.3006 320.711 71.4873 320.124 71.4873ZM331.836 71.4473C330.663 71.4473 329.623 71.1273 328.716 70.4873C327.81 69.8473 327.103 68.9806 326.596 67.8873C326.09 66.7673 325.836 65.4873 325.836 64.0473V42.2073C325.836 41.6206 326.023 41.1406 326.396 40.7673C326.77 40.3939 327.25 40.2073 327.836 40.2073C328.423 40.2073 328.903 40.3939 329.276 40.7673C329.65 41.1406 329.836 41.6206 329.836 42.2073V64.0473C329.836 65.0339 330.023 65.8473 330.396 66.4873C330.77 67.1273 331.25 67.4473 331.836 67.4473H332.836C333.37 67.4473 333.796 67.6339 334.116 68.0073C334.463 68.3806 334.636 68.8606 334.636 69.4473C334.636 70.0339 334.383 70.5139 333.876 70.8873C333.37 71.2606 332.716 71.4473 331.916 71.4473H331.836ZM349.627 71.4473C349.04 71.4473 348.547 71.2473 348.147 70.8473C347.747 70.4473 347.547 69.9539 347.547 69.3673V42.2873C347.547 41.6739 347.747 41.1806 348.147 40.8073C348.547 40.4073 349.04 40.2073 349.627 40.2073H356.867C359.16 40.2073 361.24 40.5939 363.107 41.3673C365 42.1139 366.64 43.1939 368.027 44.6073C369.414 45.9939 370.48 47.6339 371.227 49.5273C371.974 51.4206 372.347 53.5139 372.347 55.8073C372.347 58.1006 371.974 60.2073 371.227 62.1273C370.48 64.0206 369.414 65.6739 368.027 67.0873C366.64 68.4739 365 69.5539 363.107 70.3273C361.24 71.0739 359.16 71.4473 356.867 71.4473H349.627ZM351.707 67.7673H356.867C359.107 67.7673 361.08 67.2606 362.787 66.2473C364.52 65.2073 365.88 63.7939 366.867 62.0073C367.854 60.1939 368.347 58.1273 368.347 55.8073C368.347 53.4606 367.854 51.3939 366.867 49.6073C365.88 47.8206 364.52 46.4206 362.787 45.4073C361.08 44.3939 359.107 43.8873 356.867 43.8873H351.707V67.7673ZM387.155 71.6073C384.942 71.6073 382.969 71.1406 381.235 70.2073C379.529 69.2473 378.182 67.9406 377.195 66.2873C376.235 64.6073 375.755 62.6873 375.755 60.5273C375.755 58.3406 376.209 56.4206 377.115 54.7673C378.049 53.0873 379.329 51.7806 380.955 50.8473C382.582 49.8873 384.449 49.4073 386.555 49.4073C388.635 49.4073 390.422 49.8739 391.915 50.8073C393.409 51.7139 394.542 52.9806 395.315 54.6073C396.115 56.2073 396.515 58.0606 396.515 60.1673C396.515 60.6739 396.342 61.1006 395.995 61.4473C395.649 61.7673 395.209 61.9273 394.675 61.9273H378.555V58.7273H394.555L392.915 59.8473C392.889 58.5139 392.622 57.3273 392.115 56.2873C391.609 55.2206 390.889 54.3806 389.955 53.7673C389.022 53.1539 387.889 52.8473 386.555 52.8473C385.035 52.8473 383.729 53.1806 382.635 53.8473C381.569 54.5139 380.755 55.4339 380.195 56.6073C379.635 57.7539 379.355 59.0606 379.355 60.5273C379.355 61.9939 379.689 63.3006 380.355 64.4473C381.022 65.5939 381.942 66.5006 383.115 67.1673C384.289 67.8339 385.635 68.1673 387.155 68.1673C387.982 68.1673 388.822 68.0206 389.675 67.7273C390.555 67.4073 391.262 67.0473 391.795 66.6473C392.195 66.3539 392.622 66.2073 393.075 66.2073C393.555 66.1806 393.969 66.3139 394.315 66.6073C394.769 67.0073 395.009 67.4473 395.035 67.9273C395.062 68.4073 394.849 68.8206 394.395 69.1673C393.489 69.8873 392.355 70.4739 390.995 70.9273C389.662 71.3806 388.382 71.6073 387.155 71.6073ZM406.738 71.4073C405.911 71.4073 405.271 70.9673 404.818 70.0873L396.338 52.2073C396.124 51.7539 396.098 51.3139 396.258 50.8873C396.444 50.4339 396.791 50.0873 397.298 49.8473C397.751 49.6073 398.204 49.5673 398.658 49.7273C399.138 49.8873 399.498 50.1939 399.738 50.6473L407.658 67.7273H405.738L413.578 50.6473C413.818 50.1939 414.178 49.8873 414.658 49.7273C415.164 49.5673 415.671 49.6073 416.178 49.8473C416.658 50.0606 416.978 50.3939 417.138 50.8473C417.298 51.3006 417.271 51.7539 417.058 52.2073L408.578 70.0873C408.178 70.9673 407.564 71.4073 406.738 71.4073ZM429.151 71.6073C426.937 71.6073 424.964 71.1406 423.231 70.2073C421.524 69.2473 420.177 67.9406 419.191 66.2873C418.231 64.6073 417.751 62.6873 417.751 60.5273C417.751 58.3406 418.204 56.4206 419.111 54.7673C420.044 53.0873 421.324 51.7806 422.951 50.8473C424.577 49.8873 426.444 49.4073 428.551 49.4073C430.631 49.4073 432.417 49.8739 433.911 50.8073C435.404 51.7139 436.537 52.9806 437.311 54.6073C438.111 56.2073 438.511 58.0606 438.511 60.1673C438.511 60.6739 438.337 61.1006 437.991 61.4473C437.644 61.7673 437.204 61.9273 436.671 61.9273H420.551V58.7273H436.551L434.911 59.8473C434.884 58.5139 434.617 57.3273 434.111 56.2873C433.604 55.2206 432.884 54.3806 431.951 53.7673C431.017 53.1539 429.884 52.8473 428.551 52.8473C427.031 52.8473 425.724 53.1806 424.631 53.8473C423.564 54.5139 422.751 55.4339 422.191 56.6073C421.631 57.7539 421.351 59.0606 421.351 60.5273C421.351 61.9939 421.684 63.3006 422.351 64.4473C423.017 65.5939 423.937 66.5006 425.111 67.1673C426.284 67.8339 427.631 68.1673 429.151 68.1673C429.977 68.1673 430.817 68.0206 431.671 67.7273C432.551 67.4073 433.257 67.0473 433.791 66.6473C434.191 66.3539 434.617 66.2073 435.071 66.2073C435.551 66.1806 435.964 66.3139 436.311 66.6073C436.764 67.0073 437.004 67.4473 437.031 67.9273C437.057 68.4073 436.844 68.8206 436.391 69.1673C435.484 69.8873 434.351 70.4739 432.991 70.9273C431.657 71.3806 430.377 71.6073 429.151 71.6073ZM447.314 71.4473C446.141 71.4473 445.101 71.1273 444.194 70.4873C443.288 69.8473 442.581 68.9806 442.074 67.8873C441.568 66.7673 441.314 65.4873 441.314 64.0473V42.2073C441.314 41.6206 441.501 41.1406 441.874 40.7673C442.248 40.3939 442.728 40.2073 443.314 40.2073C443.901 40.2073 444.381 40.3939 444.754 40.7673C445.128 41.1406 445.314 41.6206 445.314 42.2073V64.0473C445.314 65.0339 445.501 65.8473 445.874 66.4873C446.248 67.1273 446.728 67.4473 447.314 67.4473H448.314C448.848 67.4473 449.274 67.6339 449.594 68.0073C449.941 68.3806 450.114 68.8606 450.114 69.4473C450.114 70.0339 449.861 70.5139 449.354 70.8873C448.848 71.2606 448.194 71.4473 447.394 71.4473H447.314ZM461.216 71.6073C459.056 71.6073 457.149 71.1406 455.496 70.2073C453.842 69.2473 452.536 67.9406 451.576 66.2873C450.642 64.6073 450.176 62.6873 450.176 60.5273C450.176 58.3406 450.642 56.4206 451.576 54.7673C452.536 53.0873 453.842 51.7806 455.496 50.8473C457.149 49.8873 459.056 49.4073 461.216 49.4073C463.349 49.4073 465.242 49.8873 466.896 50.8473C468.549 51.7806 469.842 53.0873 470.776 54.7673C471.736 56.4206 472.216 58.3406 472.216 60.5273C472.216 62.6873 471.749 64.6073 470.816 66.2873C469.882 67.9406 468.589 69.2473 466.936 70.2073C465.282 71.1406 463.376 71.6073 461.216 71.6073ZM461.216 68.0073C462.602 68.0073 463.829 67.6873 464.896 67.0473C465.962 66.4073 466.789 65.5273 467.376 64.4073C467.989 63.2873 468.296 61.9939 468.296 60.5273C468.296 59.0606 467.989 57.7673 467.376 56.6473C466.789 55.5006 465.962 54.6073 464.896 53.9673C463.829 53.3273 462.602 53.0073 461.216 53.0073C459.829 53.0073 458.602 53.3273 457.536 53.9673C456.469 54.6073 455.629 55.5006 455.016 56.6473C454.402 57.7673 454.096 59.0606 454.096 60.5273C454.096 61.9939 454.402 63.2873 455.016 64.4073C455.629 65.5273 456.469 66.4073 457.536 67.0473C458.602 67.6873 459.829 68.0073 461.216 68.0073ZM478.728 80.8073C478.141 80.8073 477.648 80.6073 477.248 80.2073C476.874 79.8339 476.688 79.3539 476.688 78.7673V60.5273C476.714 58.4206 477.208 56.5273 478.168 54.8473C479.128 53.1673 480.434 51.8473 482.088 50.8873C483.741 49.9006 485.608 49.4073 487.688 49.4073C489.794 49.4073 491.674 49.9006 493.328 50.8873C494.981 51.8473 496.288 53.1673 497.248 54.8473C498.234 56.5273 498.728 58.4206 498.728 60.5273C498.728 62.6339 498.274 64.5273 497.368 66.2073C496.488 67.8606 495.274 69.1806 493.728 70.1673C492.181 71.1273 490.434 71.6073 488.488 71.6073C486.914 71.6073 485.461 71.2873 484.128 70.6473C482.821 69.9806 481.701 69.0873 480.768 67.9673V78.7673C480.768 79.3539 480.581 79.8339 480.208 80.2073C479.834 80.6073 479.341 80.8073 478.728 80.8073ZM487.688 68.0073C489.048 68.0073 490.261 67.6873 491.328 67.0473C492.394 66.3806 493.234 65.4873 493.848 64.3673C494.488 63.2206 494.808 61.9406 494.808 60.5273C494.808 59.0873 494.488 57.8073 493.848 56.6873C493.234 55.5406 492.394 54.6473 491.328 54.0073C490.261 53.3406 489.048 53.0073 487.688 53.0073C486.354 53.0073 485.141 53.3406 484.048 54.0073C482.981 54.6473 482.141 55.5406 481.528 56.6873C480.914 57.8073 480.608 59.0873 480.608 60.5273C480.608 61.9406 480.914 63.2206 481.528 64.3673C482.141 65.4873 482.981 66.3806 484.048 67.0473C485.141 67.6873 486.354 68.0073 487.688 68.0073ZM531.933 71.4873C531.346 71.4873 530.853 71.3006 530.453 70.9273C530.079 70.5273 529.893 70.0339 529.893 69.4473V58.0073C529.893 56.3273 529.479 55.0873 528.653 54.2873C527.826 53.4606 526.746 53.0473 525.413 53.0473C524.026 53.0473 522.879 53.5273 521.973 54.4873C521.093 55.4473 520.653 56.6739 520.653 58.1673H517.333C517.333 56.4339 517.706 54.9139 518.453 53.6073C519.199 52.2739 520.239 51.2339 521.573 50.4873C522.933 49.7406 524.479 49.3673 526.213 49.3673C527.733 49.3673 529.079 49.7006 530.253 50.3673C531.426 51.0339 532.333 52.0206 532.973 53.3273C533.639 54.6073 533.973 56.1673 533.973 58.0073V69.4473C533.973 70.0339 533.786 70.5273 533.413 70.9273C533.039 71.3006 532.546 71.4873 531.933 71.4873ZM505.253 71.4873C504.666 71.4873 504.173 71.3006 503.773 70.9273C503.399 70.5273 503.213 70.0339 503.213 69.4473V51.6473C503.213 51.0339 503.399 50.5406 503.773 50.1673C504.173 49.7939 504.666 49.6073 505.253 49.6073C505.866 49.6073 506.359 49.7939 506.733 50.1673C507.106 50.5406 507.293 51.0339 507.293 51.6473V69.4473C507.293 70.0339 507.106 70.5273 506.733 70.9273C506.359 71.3006 505.866 71.4873 505.253 71.4873ZM518.613 71.4873C518.026 71.4873 517.533 71.3006 517.133 70.9273C516.759 70.5273 516.573 70.0339 516.573 69.4473V58.0073C516.573 56.3273 516.159 55.0873 515.333 54.2873C514.506 53.4606 513.426 53.0473 512.093 53.0473C510.706 53.0473 509.559 53.5273 508.653 54.4873C507.746 55.4473 507.293 56.6739 507.293 58.1673H504.773C504.773 56.4339 505.119 54.9139 505.813 53.6073C506.506 52.2739 507.466 51.2339 508.693 50.4873C509.919 49.7406 511.319 49.3673 512.893 49.3673C514.413 49.3673 515.759 49.7006 516.933 50.3673C518.106 51.0339 519.013 52.0206 519.653 53.3273C520.319 54.6073 520.653 56.1673 520.653 58.0073V69.4473C520.653 70.0339 520.466 70.5273 520.093 70.9273C519.719 71.3006 519.226 71.4873 518.613 71.4873ZM549.432 71.6073C547.219 71.6073 545.245 71.1406 543.512 70.2073C541.805 69.2473 540.459 67.9406 539.472 66.2873C538.512 64.6073 538.032 62.6873 538.032 60.5273C538.032 58.3406 538.485 56.4206 539.392 54.7673C540.325 53.0873 541.605 51.7806 543.232 50.8473C544.859 49.8873 546.725 49.4073 548.832 49.4073C550.912 49.4073 552.699 49.8739 554.192 50.8073C555.685 51.7139 556.819 52.9806 557.592 54.6073C558.392 56.2073 558.792 58.0606 558.792 60.1673C558.792 60.6739 558.619 61.1006 558.272 61.4473C557.925 61.7673 557.485 61.9273 556.952 61.9273H540.832V58.7273H556.832L555.192 59.8473C555.165 58.5139 554.899 57.3273 554.392 56.2873C553.885 55.2206 553.165 54.3806 552.232 53.7673C551.299 53.1539 550.165 52.8473 548.832 52.8473C547.312 52.8473 546.005 53.1806 544.912 53.8473C543.845 54.5139 543.032 55.4339 542.472 56.6073C541.912 57.7539 541.632 59.0606 541.632 60.5273C541.632 61.9939 541.965 63.3006 542.632 64.4473C543.299 65.5939 544.219 66.5006 545.392 67.1673C546.565 67.8339 547.912 68.1673 549.432 68.1673C550.259 68.1673 551.099 68.0206 551.952 67.7273C552.832 67.4073 553.539 67.0473 554.072 66.6473C554.472 66.3539 554.899 66.2073 555.352 66.2073C555.832 66.1806 556.245 66.3139 556.592 66.6073C557.045 67.0073 557.285 67.4473 557.312 67.9273C557.339 68.4073 557.125 68.8206 556.672 69.1673C555.765 69.8873 554.632 70.4739 553.272 70.9273C551.939 71.3806 550.659 71.6073 549.432 71.6073ZM580.876 71.4873C580.289 71.4873 579.796 71.3006 579.396 70.9273C579.022 70.5273 578.836 70.0339 578.836 69.4473V59.6073C578.836 58.0873 578.556 56.8473 577.996 55.8873C577.436 54.9273 576.676 54.2206 575.716 53.7673C574.782 53.2873 573.702 53.0473 572.476 53.0473C571.356 53.0473 570.342 53.2739 569.436 53.7273C568.529 54.1806 567.809 54.7939 567.276 55.5673C566.742 56.3139 566.476 57.1806 566.476 58.1673H563.956C563.956 56.4873 564.356 54.9939 565.156 53.6873C565.982 52.3539 567.102 51.3006 568.516 50.5273C569.929 49.7539 571.516 49.3673 573.276 49.3673C575.116 49.3673 576.756 49.7673 578.196 50.5673C579.662 51.3406 580.809 52.4873 581.636 54.0073C582.489 55.5273 582.916 57.3939 582.916 59.6073V69.4473C582.916 70.0339 582.716 70.5273 582.316 70.9273C581.942 71.3006 581.462 71.4873 580.876 71.4873ZM564.436 71.4873C563.849 71.4873 563.356 71.3006 562.956 70.9273C562.582 70.5273 562.396 70.0339 562.396 69.4473V51.6073C562.396 50.9939 562.582 50.5006 562.956 50.1273C563.356 49.7539 563.849 49.5673 564.436 49.5673C565.049 49.5673 565.542 49.7539 565.916 50.1273C566.289 50.5006 566.476 50.9939 566.476 51.6073V69.4473C566.476 70.0339 566.289 70.5273 565.916 70.9273C565.542 71.3006 565.049 71.4873 564.436 71.4873ZM596.021 71.4473C594.688 71.4473 593.488 71.1139 592.421 70.4473C591.355 69.7539 590.515 68.8206 589.901 67.6473C589.288 66.4739 588.981 65.1539 588.981 63.6873V44.6073C588.981 44.0206 589.168 43.5406 589.541 43.1673C589.915 42.7939 590.395 42.6073 590.981 42.6073C591.568 42.6073 592.048 42.7939 592.421 43.1673C592.795 43.5406 592.981 44.0206 592.981 44.6073V63.6873C592.981 64.7539 593.275 65.6473 593.861 66.3673C594.448 67.0873 595.168 67.4473 596.021 67.4473H597.381C597.861 67.4473 598.261 67.6339 598.581 68.0073C598.928 68.3806 599.101 68.8606 599.101 69.4473C599.101 70.0339 598.875 70.5139 598.421 70.8873C597.995 71.2606 597.435 71.4473 596.741 71.4473H596.021ZM587.141 53.8073C586.581 53.8073 586.128 53.6473 585.781 53.3273C585.435 53.0073 585.261 52.6073 585.261 52.1273C585.261 51.5939 585.435 51.1673 585.781 50.8473C586.128 50.5273 586.581 50.3673 587.141 50.3673H596.381C596.941 50.3673 597.395 50.5273 597.741 50.8473C598.088 51.1673 598.261 51.5939 598.261 52.1273C598.261 52.6073 598.088 53.0073 597.741 53.3273C597.395 53.6473 596.941 53.8073 596.381 53.8073H587.141Z" fill="white"/>
</svg>
