<svg width="65" height="64" viewBox="0 0 65 64" fill="none" xmlns="http://www.w3.org/2000/svg">
<g clip-path="url(#clip0_21015_63452)">
<path d="M28.0667 5.33307V3.19974C28.0683 2.63446 28.2936 2.09282 28.6934 1.69311C29.0931 1.2934 29.6347 1.06809 30.2 1.06641H34.4667C35.0319 1.06809 35.5736 1.2934 35.9733 1.69311C36.373 2.09282 36.5983 2.63446 36.6 3.19974V5.33307H28.0667Z" fill="#C6D8FB"/>
<path d="M34.4666 1.06641H31.2666C31.8319 1.06809 32.3735 1.2934 32.7732 1.69311C33.1729 2.09282 33.3982 2.63446 33.3999 3.19974V5.33307H36.5999V3.19974C36.5982 2.63446 36.3729 2.09282 35.9732 1.69311C35.5735 1.2934 35.0319 1.06809 34.4666 1.06641Z" fill="#A4C3FD"/>
<path d="M36.6 39.4668V51.4988C34.6591 52.6578 33.1582 54.4287 32.3333 56.5335C31.5084 54.4287 30.0076 52.6578 28.0667 51.4988V39.4668H36.6Z" fill="#C6D8FB"/>
<path d="M33.3998 39.4668V51.4988C32.3793 52.1003 31.4759 52.8812 30.7332 53.8039C31.4106 54.6212 31.951 55.543 32.3332 56.5335C33.1581 54.4287 34.6589 52.6578 36.5998 51.4988V39.4668H33.3998Z" fill="#A4C3FD"/>
<path d="M54.7331 5.33398H9.93314C8.75493 5.33398 7.7998 6.28911 7.7998 7.46732V37.334C7.7998 38.5122 8.75493 39.4673 9.93314 39.4673H54.7331C55.9113 39.4673 56.8665 38.5122 56.8665 37.334V7.46732C56.8665 6.28911 55.9113 5.33398 54.7331 5.33398Z" fill="#E8EDFC"/>
<path d="M54.7332 5.33398H51.5332C52.099 5.33398 52.6416 5.55875 53.0417 5.95882C53.4418 6.3589 53.6665 6.90152 53.6665 7.46732V37.334C53.6665 37.8998 53.4418 38.4424 53.0417 38.8425C52.6416 39.2426 52.099 39.4673 51.5332 39.4673H54.7332C55.299 39.4673 55.8416 39.2426 56.2417 38.8425C56.6418 38.4424 56.8665 37.8998 56.8665 37.334V7.46732C56.8665 6.90152 56.6418 6.3589 56.2417 5.95882C55.8416 5.55875 55.299 5.33398 54.7332 5.33398Z" fill="#CAD9FC"/>
<path d="M48.3333 56.5326C48.3333 56.5326 41.9333 57.5993 38.7333 62.9326H25.9333C22.7333 57.5993 16.3333 56.5326 16.3333 56.5326C17.531 55.6095 18.954 55.0237 20.4545 54.8362C21.9551 54.6486 23.4785 54.8661 24.8666 55.466C24.8253 53.4884 24.0672 51.5931 22.7333 50.1326C24.6017 50.098 26.4446 50.5698 28.0666 51.498C30.0075 52.6569 31.5083 54.4279 32.3333 56.5326C33.1582 54.4279 34.659 52.6569 36.5999 51.498C38.2219 50.5698 40.0648 50.098 41.9333 50.1326C40.5993 51.5931 39.8412 53.4884 39.7999 55.466C41.188 54.8661 42.7114 54.6486 44.212 54.8362C45.7125 55.0237 47.1355 55.6095 48.3333 56.5326Z" fill="#E8EDFC"/>
<path d="M38.2116 50.7729C37.1905 52.127 36.626 53.7706 36.5999 55.4663C37.6263 55.0154 38.7342 54.7791 39.8553 54.7719C40.0501 53.0475 40.7763 51.4264 41.9332 50.133C40.6647 50.1265 39.405 50.3432 38.2116 50.7729Z" fill="#CAD9FC"/>
<path d="M41.5577 54.9269C42.8574 55.1798 44.081 55.7296 45.1332 56.5333C45.1332 56.5333 38.7332 57.5999 35.5332 62.9333H38.7332C41.9332 57.5999 48.3332 56.5333 48.3332 56.5333C47.3838 55.7976 46.288 55.2736 45.1194 54.9966C43.9507 54.7195 42.7363 54.6957 41.5577 54.9269Z" fill="#CAD9FC"/>
<path d="M46.4655 20.7332L34.0666 10.986C33.9097 10.8603 33.7205 10.7816 33.5208 10.7588C33.3211 10.736 33.119 10.7702 32.9378 10.8572C32.7567 10.9443 32.6038 11.0808 32.4968 11.2509C32.3899 11.4211 32.3332 11.618 32.3332 11.819V17.066C32.3332 17.3489 32.2209 17.6202 32.0208 17.8202C31.8208 18.0202 31.5495 18.1326 31.2666 18.1326H19.5332C18.9674 18.1326 18.4248 18.3574 18.0247 18.7575C17.6247 19.1575 17.3999 19.7002 17.3999 20.266V24.5326C17.3999 25.0984 17.6247 25.641 18.0247 26.0411C18.4248 26.4412 18.9674 26.666 19.5332 26.666H31.2666C31.5495 26.666 31.8208 26.7783 32.0208 26.9784C32.2209 27.1784 32.3332 27.4497 32.3332 27.7326V32.9796C32.3332 33.1805 32.3899 33.3775 32.4968 33.5476C32.6038 33.7178 32.7567 33.8543 32.9378 33.9414C33.119 34.0284 33.3211 34.0625 33.5208 34.0398C33.7205 34.017 33.9097 33.9382 34.0666 33.8126L46.4655 24.0654C46.7154 23.8656 46.9172 23.612 47.0559 23.3236C47.1945 23.0352 47.2665 22.7193 47.2665 22.3993C47.2665 22.0793 47.1945 21.7634 47.0559 21.4749C46.9172 21.1865 46.7154 20.933 46.4655 20.7332Z" fill="#A4C2F7"/>
<path d="M13.1331 5.33398H9.93314C9.36734 5.33398 8.82472 5.55875 8.42464 5.95882C8.02457 6.3589 7.7998 6.90152 7.7998 7.46732V37.334C7.7998 37.8998 8.02457 38.4424 8.42464 38.8425C8.82472 39.2426 9.36734 39.4673 9.93314 39.4673H13.1331C12.5673 39.4673 12.0247 39.2426 11.6246 38.8425C11.2246 38.4424 10.9998 37.8998 10.9998 37.334V7.46732C10.9998 6.90152 11.2246 6.3589 11.6246 5.95882C12.0247 5.55875 12.5673 5.33398 13.1331 5.33398Z" fill="white"/>
<path d="M6.73315 28.8008H8.86649V37.3341H6.73315V28.8008Z" fill="white"/>
<path d="M7.79982 34.1333C8.38892 34.1333 8.86649 33.6558 8.86649 33.0667C8.86649 32.4776 8.38892 32 7.79982 32C7.21072 32 6.73315 32.4776 6.73315 33.0667C6.73315 33.6558 7.21072 34.1333 7.79982 34.1333Z" fill="#428DFF"/>
<path d="M54.7332 40.5333C55.5818 40.5333 56.3958 40.1962 56.9959 39.5961C57.596 38.996 57.9332 38.182 57.9332 37.3333V7.46667C57.9332 6.61797 57.596 5.80404 56.9959 5.20393C56.3958 4.60381 55.5818 4.26667 54.7332 4.26667H37.6665V3.2C37.6665 2.35131 37.3293 1.53737 36.7292 0.937258C36.1291 0.337142 35.3152 0 34.4665 0L30.1998 0C29.3511 0 28.5372 0.337142 27.9371 0.937258C27.337 1.53737 26.9998 2.35131 26.9998 3.2V4.26667H9.93315C9.08446 4.26667 8.27053 4.60381 7.67041 5.20393C7.0703 5.80404 6.73315 6.61797 6.73315 7.46667V28.8C6.73315 29.0829 6.84554 29.3542 7.04557 29.5542C7.24561 29.7543 7.51692 29.8667 7.79982 29.8667C8.08272 29.8667 8.35403 29.7543 8.55407 29.5542C8.75411 29.3542 8.86649 29.0829 8.86649 28.8V7.46667C8.86649 7.18377 8.97887 6.91246 9.17891 6.71242C9.37895 6.51238 9.65026 6.4 9.93315 6.4H54.7332C55.0161 6.4 55.2874 6.51238 55.4874 6.71242C55.6874 6.91246 55.7998 7.18377 55.7998 7.46667V37.3333C55.7998 37.6162 55.6874 37.8875 55.4874 38.0876C55.2874 38.2876 55.0161 38.4 54.7332 38.4H9.93315C9.65026 38.4 9.37895 38.2876 9.17891 38.0876C8.97887 37.8875 8.86649 37.6162 8.86649 37.3333C8.86649 37.0504 8.75411 36.7791 8.55407 36.5791C8.35403 36.379 8.08272 36.2667 7.79982 36.2667C7.51692 36.2667 7.24561 36.379 7.04557 36.5791C6.84554 36.7791 6.73315 37.0504 6.73315 37.3333C6.73315 38.182 7.0703 38.996 7.67041 39.5961C8.27053 40.1962 9.08446 40.5333 9.93315 40.5333H26.9998V49.8133C25.6356 49.3042 24.1892 49.0511 22.7332 49.0667C22.5235 49.0675 22.3187 49.1302 22.1444 49.2468C21.9701 49.3634 21.8341 49.5288 21.7533 49.7222C21.6725 49.9157 21.6505 50.1287 21.6901 50.3347C21.7297 50.5406 21.829 50.7303 21.9758 50.88C22.754 51.7524 23.3127 52.7979 23.6057 53.9296C22.2395 53.617 20.8209 53.6119 19.4525 53.9147C18.0841 54.2174 16.8 54.8204 15.6932 55.68C15.5262 55.8052 15.3997 55.9767 15.3293 56.1731C15.2588 56.3695 15.2475 56.5823 15.2968 56.7851C15.3461 56.9879 15.4537 57.1717 15.6065 57.3139C15.7592 57.4561 15.9503 57.5504 16.1561 57.5851C16.2148 57.5957 22.1209 58.6517 25.019 63.4827C25.1138 63.6404 25.2478 63.771 25.408 63.8617C25.5682 63.9523 25.7491 64 25.9332 64H38.7332C38.9172 64 39.0981 63.9523 39.2583 63.8617C39.4185 63.771 39.5525 63.6404 39.6473 63.4827C42.5454 58.6528 48.4516 57.5957 48.5102 57.5851C48.716 57.5504 48.9071 57.4561 49.0598 57.3139C49.2126 57.1717 49.3202 56.9879 49.3695 56.7851C49.4188 56.5823 49.4075 56.3695 49.3371 56.1731C49.2666 55.9767 49.1401 55.8052 48.9732 55.68C47.8659 54.8211 46.5817 54.2189 45.2133 53.9169C43.8449 53.6149 42.4265 53.6207 41.0606 53.9339C41.3536 52.8038 41.9111 51.7596 42.6873 50.8875C42.8364 50.7383 42.938 50.5483 42.9791 50.3414C43.0203 50.1345 42.9991 49.92 42.9184 49.7252C42.8377 49.5303 42.701 49.3637 42.5256 49.2465C42.3503 49.1293 42.1441 49.0667 41.9332 49.0667C40.4771 49.0511 39.0307 49.3042 37.6665 49.8133V40.5333H54.7332ZM29.1332 3.2C29.1332 2.9171 29.2455 2.64579 29.4456 2.44575C29.6456 2.24571 29.9169 2.13333 30.1998 2.13333H34.4665C34.7494 2.13333 35.0207 2.24571 35.2207 2.44575C35.4208 2.64579 35.5332 2.9171 35.5332 3.2V4.26667H29.1332V3.2ZM39.2366 56.3701C39.3906 56.4662 39.5665 56.5215 39.7477 56.5306C39.929 56.5398 40.1095 56.5025 40.2724 56.4224C41.9448 55.7068 43.8235 55.638 45.5438 56.2293C42.5527 57.2952 39.9675 59.2654 38.1465 61.8667H26.5198C24.6986 59.2656 22.1134 57.2955 19.1225 56.2293C20.8411 55.6368 22.7188 55.7053 24.3897 56.4213C24.5524 56.5026 24.7331 56.541 24.9147 56.5327C25.0964 56.5245 25.2729 56.47 25.4276 56.3743C25.5822 56.2787 25.7099 56.1451 25.7984 55.9862C25.8868 55.8274 25.9332 55.6485 25.9332 55.4667C25.9246 54.0533 25.5751 52.6628 24.9145 51.4133C26.3507 51.7195 27.6882 52.378 28.8065 53.3297C29.9249 54.2814 30.7889 55.4963 31.3209 56.8651C31.3907 57.0786 31.5262 57.2645 31.708 57.3965C31.8897 57.5285 32.1085 57.5997 32.3332 57.6C32.556 57.6001 32.7732 57.5303 32.9544 57.4006C33.1355 57.2709 33.2715 57.0877 33.3433 56.8768C33.8754 55.5074 34.7397 54.2917 35.8584 53.3393C36.9771 52.3869 38.315 51.7276 39.7518 51.4208C39.0924 52.6681 38.7429 54.0558 38.7332 55.4667C38.7336 55.6476 38.78 55.8255 38.8681 55.9835C38.9561 56.1416 39.083 56.2746 39.2366 56.3701ZM35.5332 50.9269C34.2554 51.7989 33.167 52.92 32.3332 54.2229C31.4993 52.92 30.4109 51.7989 29.1332 50.9269V40.5333H35.5332V50.9269Z" fill="#428DFF"/>
<path d="M32.4762 34.9034C32.766 35.0433 33.0835 35.1162 33.4053 35.1168C33.8855 35.1166 34.3514 34.9526 34.7258 34.6517L47.1322 24.8981C47.5067 24.5983 47.809 24.2181 48.0168 23.7857C48.2245 23.3533 48.3324 22.8797 48.3324 22.4C48.3324 21.9202 48.2245 21.4466 48.0168 21.0142C47.809 20.5818 47.5067 20.2016 47.1322 19.9018L47.1258 19.8954L34.7333 10.1535C34.4195 9.90231 34.041 9.74484 33.6417 9.69929C33.2423 9.65374 32.8381 9.72196 32.4758 9.89609C32.1135 10.0702 31.8077 10.3432 31.5938 10.6835C31.3799 11.0238 31.2664 11.4177 31.2666 11.8197V17.0666H19.5333C18.6846 17.0666 17.8706 17.4038 17.2705 18.0039C16.6704 18.604 16.3333 19.4179 16.3333 20.2666V24.5333C16.3333 25.382 16.6704 26.1959 17.2705 26.796C17.8706 27.3961 18.6846 27.7333 19.5333 27.7333H31.2666V32.9802C31.2648 33.3826 31.3775 33.7771 31.5918 34.1177C31.806 34.4583 32.1127 34.7308 32.4762 34.9034ZM19.5333 25.5999C19.2504 25.5999 18.979 25.4876 18.779 25.2875C18.579 25.0875 18.4666 24.8162 18.4666 24.5333V20.2666C18.4666 19.9837 18.579 19.7124 18.779 19.5124C18.979 19.3123 19.2504 19.1999 19.5333 19.1999H31.2666C31.8324 19.1999 32.375 18.9752 32.7751 18.5751C33.1752 18.175 33.3999 17.6324 33.3999 17.0666L33.4063 11.825L45.8031 21.5701C45.9264 21.6701 46.0257 21.7963 46.094 21.9396C46.1622 22.0829 46.1977 22.2396 46.1977 22.3984C46.1977 22.5571 46.1622 22.7138 46.094 22.8571C46.0257 23.0004 45.9264 23.1266 45.8031 23.2266L33.3999 32.9802V27.7333C33.3999 27.1675 33.1752 26.6249 32.7751 26.2248C32.375 25.8247 31.8324 25.5999 31.2666 25.5999H19.5333Z" fill="#428DFF"/>
</g>
<defs>
<clipPath id="clip0_21015_63452">
<rect width="64" height="64" fill="white" transform="translate(0.333252)"/>
</clipPath>
</defs>
</svg>
