<svg width="65" height="64" viewBox="0 0 65 64" fill="none" xmlns="http://www.w3.org/2000/svg">
<g clip-path="url(#clip0_21015_63127)">
<path d="M50.4665 19.1999C50.469 23.6227 48.8483 27.8926 45.9118 31.1999C43.362 34.036 41.9457 37.7115 41.9332 41.5253C41.9463 42.9433 41.1748 44.2525 39.9278 44.9279C35.2162 47.5959 29.4502 47.5959 24.7385 44.9279C23.4552 44.2313 22.678 42.8671 22.7332 41.4079C22.6827 37.6024 21.2453 33.9462 18.6905 31.1253C13.3801 25.0604 12.711 16.218 17.0484 9.4231C21.3857 2.62821 29.688 -0.487574 37.4248 1.77593C45.1617 4.03944 50.4755 11.1387 50.4665 19.1999Z" fill="#CAD9FC"/>
<path d="M42.6053 31.9036C39.9998 34.8059 38.55 38.5634 38.5307 42.4636C38.5433 43.9149 37.7562 45.2555 36.4827 45.9516C35.9493 46.2289 35.416 46.4849 34.8827 46.6983C31.3983 47.291 27.8161 46.6658 24.7387 44.9276C23.4553 44.231 22.6782 42.8668 22.7333 41.4076C22.6829 37.6021 21.2454 33.9458 18.6907 31.1249C14.2602 26.052 13.0064 18.9413 15.4347 12.659C17.863 6.37665 23.5733 1.95784 30.264 1.18359H30.5627C37.4749 1.89281 43.412 6.4036 45.948 12.8728C48.484 19.342 47.1941 26.6858 42.6053 31.9036Z" fill="#E8EDFC"/>
<path d="M21.3573 45.1191C21.3254 45.7303 21.3254 46.3427 21.3573 46.9538C21.32 46.3428 21.32 45.7301 21.3573 45.1191Z" fill="#BDC3C7"/>
<path d="M32.3332 53.3332L28.0666 62.9332H1.3999V56.5972C1.39999 53.981 2.99243 51.6282 5.42124 50.6559L21.4212 44.2559C21.305 45.1435 21.2835 46.041 21.3572 46.9332C21.4707 48.8633 21.8035 50.7743 22.3492 52.6292C22.4369 52.9202 22.6571 53.1525 22.9431 53.2555C23.229 53.3586 23.5468 53.3201 23.7999 53.1519L28.6319 49.6105L32.3332 53.3332Z" fill="#E8EDFC"/>
<path d="M21.3573 45.1191C21.3254 45.7303 21.3254 46.3427 21.3573 46.9538C21.32 46.3428 21.32 45.7301 21.3573 45.1191Z" fill="#BDC3C7"/>
<path d="M22.0185 51.3813C21.9331 51.0186 21.8478 50.6133 21.7625 50.1973C21.8407 50.6168 21.926 51.0115 22.0185 51.3813Z" fill="#BDC3C7"/>
<path d="M63.2666 56.5972L63.2666 62.9332H36.5999L32.3333 53.3332L36.0346 49.6319L40.8666 53.1732C41.1197 53.3414 41.4375 53.3799 41.7234 53.2769C42.0094 53.1739 42.2296 52.9415 42.3173 52.6505C43.0192 50.3549 43.3786 47.9684 43.3839 45.5679C43.3765 45.1291 43.3444 44.6911 43.2879 44.2559L59.2879 50.6559C61.7 51.6417 63.2735 53.9915 63.2666 56.5972Z" fill="#CAD9FC"/>
<path d="M60.0666 56.5977L60.0666 62.9337H36.5999L32.3333 53.3337L36.0346 49.6324L40.8666 53.1737C41.1197 53.3419 41.4375 53.3804 41.7234 53.2774C42.0094 53.1744 42.2296 52.942 42.3173 52.651C43.0192 50.3554 43.3786 47.9689 43.3839 45.5684L56.0986 50.6564C58.5065 51.6455 60.0753 53.9946 60.0666 56.5977Z" fill="#E8EDFC"/>
<path d="M36.0345 49.6323L32.3332 53.3336L28.6318 49.6323L32.3332 46.9336L36.0345 49.6323Z" fill="#E8EDFC"/>
<path d="M36.6 62.934H28.0667L32.3333 53.334L36.6 62.934Z" fill="#E8EDFC"/>
<path d="M32.3333 46.9337C27.672 50.3363 29.6986 49.067 23.8 53.1737C23.5469 53.3419 23.229 53.3804 22.9431 53.2773C22.6572 53.1743 22.4369 52.942 22.3493 52.651C21.2826 49.1523 20.5573 43.531 22.712 40.5977V41.4083C22.6542 42.8681 23.4321 44.2336 24.7173 44.9283C27.0521 46.2138 29.6682 46.9026 32.3333 46.9337Z" fill="#E8EDFC"/>
<path d="M42.3173 52.651C42.2296 52.942 42.0094 53.1743 41.7234 53.2773C41.4375 53.3804 41.1197 53.3419 40.8666 53.1737C34.9679 49.067 36.9946 50.3363 32.3333 46.9337C34.9911 46.8991 37.5995 46.2104 39.9279 44.9283C41.1748 44.2529 41.9464 42.9437 41.9333 41.5257C41.9333 41.2483 41.9333 41.1417 41.9333 40.5977C44.0666 43.5417 43.3413 49.163 42.3173 52.651Z" fill="#E8EDFC"/>
<path d="M4.5999 56.5969C4.59999 53.9807 6.19243 51.628 8.62124 50.6556L24.6212 44.2556C24.7567 42.9579 25.2071 41.7129 25.9332 40.6289C25.7078 37.101 24.2985 33.7523 21.9332 31.1249C17.5049 26.0579 16.2468 18.9553 18.6652 12.6754C21.0836 6.39564 26.7808 1.97153 33.4639 1.1836H33.9546C32.7274 1.0612 31.4911 1.0612 30.2639 1.1836C23.5732 1.95784 17.8629 6.37666 15.4346 12.659C13.0063 18.9413 14.26 26.052 18.6906 31.1249C21.0713 33.7464 22.496 37.0957 22.7332 40.6289C22.0259 41.7179 21.594 42.9626 21.4746 44.2556L5.47457 50.6556C3.0248 51.611 1.40865 53.9675 1.3999 56.5969V62.9329H4.5999V56.5969ZM21.3572 44.9703C21.3572 44.8529 21.3572 44.7569 21.3572 44.6716C21.3679 44.7996 21.3679 44.8743 21.3572 44.9703Z" fill="white"/>
<path d="M16.5465 8.28711L18.3065 9.50311C16.7645 11.7276 15.7736 14.2869 15.4158 16.9698L13.2825 16.6924C13.6878 13.6713 14.8067 10.7901 16.5465 8.28711Z" fill="white"/>
<path d="M15.4373 13.7076C14.8482 13.7076 14.3706 13.23 14.3706 12.6409C14.3706 12.0518 14.8482 11.5742 15.4373 11.5742C16.0264 11.5742 16.5039 12.0518 16.5039 12.6409C16.5039 13.23 16.0264 13.7076 15.4373 13.7076Z" fill="#428DFF"/>
<path d="M25.4427 8.41507C25.7854 8.21957 25.9922 7.85084 25.9804 7.45645C25.9685 7.06207 25.7399 6.70645 25.386 6.53191C25.0322 6.35738 24.6108 6.39244 24.2907 6.62307C23.4668 7.1482 22.6984 7.75577 21.9974 8.4364C21.6847 8.73774 21.5859 9.19854 21.7476 9.60155C21.9093 10.0046 22.2991 10.2693 22.7334 10.2711C23.512 10.2711 23.4907 9.66307 25.4427 8.41507Z" fill="#428DFF"/>
<path d="M18.4666 19.1998C19.0239 19.2016 19.4887 18.774 19.5332 18.2185C19.6581 16.4963 20.1375 14.8186 20.9412 13.2905C21.215 12.7691 21.0145 12.1245 20.4932 11.8505C20.2416 11.7198 19.9482 11.6947 19.678 11.7808C19.4078 11.8668 19.183 12.057 19.0532 12.3091C18.1066 14.0852 17.5433 16.0403 17.3999 18.0478C17.376 18.3452 17.4778 18.6389 17.6805 18.8578C17.8832 19.0767 18.1683 19.2008 18.4666 19.1998Z" fill="#428DFF"/>
<path d="M45.1331 25.5995C45.5612 25.5991 45.9475 25.343 46.1145 24.9488C46.8804 23.1291 47.2722 21.1738 47.2665 19.1995C47.2665 18.6104 46.7889 18.1328 46.1998 18.1328C45.6107 18.1328 45.1331 18.6104 45.1331 19.1995C45.1354 20.884 44.8018 22.5521 44.1518 24.1061C44.0076 24.4365 44.04 24.8174 44.238 25.1186C44.436 25.4199 44.7727 25.6007 45.1331 25.5995Z" fill="#428DFF"/>
<path d="M59.6399 49.6639L44.2053 43.4879C44.0316 42.3769 43.6401 41.3112 43.0533 40.3519C43.3308 37.2153 44.614 34.2522 46.7119 31.9039C52.9477 24.8037 53.0898 14.2216 47.047 6.95647C41.0042 -0.308705 30.5733 -2.09668 22.4559 2.74127C20.1226 4.16014 18.1102 6.04908 16.5466 8.28794C16.3809 8.5242 16.3181 8.81748 16.3724 9.10087C16.4266 9.38426 16.5934 9.63358 16.8346 9.79194C17.3266 10.0872 17.9621 9.96282 18.3066 9.50393C21.0973 5.45647 25.498 2.80909 30.3813 2.23993C37.4003 1.43095 44.1921 5.03068 47.463 11.2935C50.734 17.5562 49.8076 25.187 45.1333 30.4853C42.4147 33.5233 40.8976 37.4486 40.8666 41.5253C40.8736 42.5454 40.3263 43.4889 39.4373 43.9893C35.0343 46.5012 29.6322 46.5012 25.2293 43.9893C24.3004 43.471 23.7463 42.4703 23.7999 41.4079C23.7444 37.3519 22.2298 33.4516 19.5333 30.4213C16.2699 26.73 14.7816 21.7975 15.4586 16.9173C15.498 16.6356 15.4233 16.3498 15.251 16.1235C15.0788 15.8972 14.8232 15.749 14.5413 15.7119C14.2596 15.6757 13.9752 15.7533 13.751 15.9275C13.5267 16.1017 13.3812 16.3581 13.3466 16.6399C12.5867 22.1297 14.262 27.6776 17.9333 31.8293C20.0588 34.1998 21.3642 37.1921 21.6559 40.3626C21.064 41.3425 20.6724 42.4302 20.5039 43.5626L5.02659 49.6639C2.19167 50.798 0.332916 53.5439 0.333252 56.5973V62.9333C0.333252 63.5224 0.810815 63.9999 1.39992 63.9999H63.2666C63.8557 63.9999 64.3333 63.5224 64.3333 62.9333V56.5973C64.3336 53.5439 62.4748 50.798 59.6399 49.6639ZM40.4293 45.8666C41.1327 45.4995 41.7282 44.9554 42.1573 44.2879C42.3822 46.9727 42.1184 49.676 41.3786 52.2666L35.2239 47.7653C37.0463 47.4038 38.8021 46.7633 40.4293 45.8666ZM32.3333 51.8186L30.2746 49.7599L32.3333 48.2559L34.3919 49.7599L32.3333 51.8186ZM24.2373 45.8666C25.8669 46.7485 27.6226 47.3745 29.4426 47.7226L23.3306 52.1919C22.5706 49.6307 22.2921 46.9507 22.5093 44.2879C22.9383 44.9554 23.5339 45.4995 24.2373 45.8666ZM2.46659 56.5973C2.46709 54.4182 3.79321 52.4586 5.81592 51.6479L20.2693 45.8666C20.3029 48.2649 20.6617 50.6475 21.3359 52.9493C21.5214 53.5737 21.9972 54.0701 22.6133 54.2818C23.2294 54.4935 23.9098 54.3945 24.4399 54.0159L28.5359 51.0293L31.0746 53.5573L27.3733 61.8666H15.2666V59.7333C15.2666 59.1442 14.789 58.6666 14.1999 58.6666C13.6108 58.6666 13.1333 59.1442 13.1333 59.7333V61.8666H2.46659V56.5973ZM29.7093 61.8666L32.3333 55.9573L34.9573 61.8666H29.7093ZM62.1999 61.8666H51.5333V59.7333C51.5333 59.1442 51.0557 58.6666 50.4666 58.6666C49.8775 58.6666 49.3999 59.1442 49.3999 59.7333V61.8666H37.2933L33.6026 53.5679L36.1413 51.0399L40.2799 54.0586C40.8092 54.4143 41.475 54.5001 42.0771 54.2903C42.6793 54.0805 43.1476 53.5995 43.3413 52.9919C44.0155 50.6902 44.3743 48.3075 44.4079 45.9093L58.8613 51.6906C60.8654 52.4987 62.1838 54.4364 62.1999 56.5973V61.8666Z" fill="#428DFF"/>
<path d="M63.2665 18.1328H55.7998C55.2107 18.1328 54.7332 18.6104 54.7332 19.1995C54.7332 19.7886 55.2107 20.2661 55.7998 20.2661H63.2665C63.8556 20.2661 64.3332 19.7886 64.3332 19.1995C64.3332 18.6104 63.8556 18.1328 63.2665 18.1328Z" fill="#428DFF"/>
<path d="M54.7332 10.6675C55.1599 10.6675 54.8292 10.7848 60.6105 7.31816C61.0529 6.99644 61.1802 6.39224 60.9053 5.91937C60.6304 5.4465 60.0423 5.25822 59.5439 5.48349L54.2105 8.68349C53.8006 8.92651 53.6016 9.41195 53.723 9.87277C53.8444 10.3336 54.2568 10.658 54.7332 10.6675Z" fill="#428DFF"/>
<path d="M54.1893 29.7164C60.0666 33.2151 59.6613 33.0657 60.0666 33.0657C60.547 33.0656 60.968 32.7444 61.095 32.2811C61.222 31.8179 61.0237 31.3269 60.6106 31.0817L55.2773 27.8817C54.948 27.6423 54.5111 27.6111 54.1512 27.8015C53.7913 27.9919 53.5711 28.3705 53.5838 28.7775C53.5964 29.1845 53.8396 29.5487 54.2106 29.7164H54.1893Z" fill="#428DFF"/>
<path d="M1.39992 20.2661H8.86659C9.45569 20.2661 9.93325 19.7886 9.93325 19.1995C9.93325 18.6104 9.45569 18.1328 8.86659 18.1328H1.39992C0.810815 18.1328 0.333252 18.6104 0.333252 19.1995C0.333252 19.7886 0.810815 20.2661 1.39992 20.2661Z" fill="#428DFF"/>
<path d="M10.4773 8.68349L5.14399 5.48349C4.64555 5.25822 4.05748 5.4465 3.78256 5.91937C3.50763 6.39224 3.63495 6.99644 4.07732 7.31816L9.41066 10.5182C9.9091 10.7434 10.4972 10.5552 10.7721 10.0823C11.047 9.60941 10.9197 9.00521 10.4773 8.68349Z" fill="#428DFF"/>
<path d="M9.38918 27.8819L4.05584 31.0819C3.68482 31.2496 3.44161 31.6139 3.42898 32.0209C3.41635 32.4278 3.6365 32.8065 3.99642 32.9968C4.35633 33.1872 4.79322 33.1561 5.12251 32.9166L10.4558 29.7166C10.8982 29.3949 11.0255 28.7907 10.7506 28.3178C10.4757 27.8449 9.88762 27.6567 9.38918 27.8819Z" fill="#428DFF"/>
</g>
<defs>
<clipPath id="clip0_21015_63127">
<rect width="64" height="64" fill="white" transform="translate(0.333252)"/>
</clipPath>
</defs>
</svg>
