<svg width="65" height="64" viewBox="0 0 65 64" fill="none" xmlns="http://www.w3.org/2000/svg">
<g id="contact-mail 1" clip-path="url(#clip0_21015_61700)">
<g id="Page-1">
<g id="042---Contact-Page">
<g id="Icons">
<path id="Shape" d="M63.2666 5.33307V11.7331H32.3332C31.1565 11.7296 30.2034 10.7765 30.1999 9.59974V7.46641C30.1964 6.28966 29.2433 5.33659 28.0666 5.33307H1.3999C1.3999 2.97666 3.31015 1.06641 5.66657 1.06641H58.9999C61.3563 1.06641 63.2666 2.97666 63.2666 5.33307Z" fill="#A4C2F7"/>
<path id="Shape_2" d="M58.9998 1.06641H55.7998C58.1562 1.06641 60.0665 2.97666 60.0665 5.33307V11.7331H63.2665V5.33307C63.2665 2.97666 61.3562 1.06641 58.9998 1.06641Z" fill="#7FACFA"/>
<path id="Shape_3" d="M63.2666 11.734V16.0007H1.3999V5.33398H28.0666C29.2433 5.3375 30.1964 6.29057 30.1999 7.46732V9.60065C30.2034 10.7774 31.1565 11.7305 32.3332 11.734H63.2666Z" fill="#E8EDFC"/>
<path id="Rectangle-path" d="M60.0667 11.7324H63.2667V15.9991H60.0667V11.7324Z" fill="#CAD9FC"/>
<path id="Shape_4" d="M63.2666 16V52.2667C63.2666 54.6231 61.3563 56.5333 58.9999 56.5333H5.66657C3.31015 56.5333 1.3999 54.6231 1.3999 52.2667V16H63.2666Z" fill="#E8EDFC"/>
<path id="Shape_5" d="M60.0665 16V52.2667C60.0665 54.6231 58.1562 56.5333 55.7998 56.5333H58.9998C61.3562 56.5333 63.2665 54.6231 63.2665 52.2667V16H60.0665Z" fill="#CAD9FC"/>
<path id="Shape_6" d="M18.4667 29.9727V42.5593L10.2427 36.5007C10.4718 36.028 10.8122 35.6181 11.2347 35.306L18.4667 29.9727Z" fill="#A4C2F7"/>
<path id="Shape_7" d="M54.424 36.5007L46.2 42.5593V29.9727L53.432 35.306C53.8544 35.6181 54.1948 36.028 54.424 36.5007Z" fill="#A4C2F7"/>
<path id="Shape_8" d="M53.432 35.306L46.2 29.9727V32.3321L50.232 35.306C50.6544 35.6181 50.9948 36.028 51.224 36.5007L46.2 40.202V42.5593L54.424 36.5007C54.1948 36.028 53.8544 35.6181 53.432 35.306Z" fill="#7FACFA"/>
<path id="Shape_9" d="M54.7332 37.8886V58.6673C54.7339 59.8933 54.2051 61.0598 53.2826 61.8673L36.6426 49.6006L46.1999 42.5606L54.4239 36.502C54.6291 36.9353 54.7348 37.4091 54.7332 37.8886Z" fill="#E8EDFC"/>
<path id="Shape_10" d="M54.4239 36.502L51.5333 38.6353V58.6673C51.5303 59.2366 51.412 59.7994 51.1855 60.3217L53.2826 61.8673C54.2051 61.0598 54.734 59.8933 54.7333 58.6673V37.8886C54.7348 37.4091 54.6291 36.9353 54.4239 36.502Z" fill="#CAD9FC"/>
<path id="Shape_11" d="M28.0238 49.6006L11.3838 61.8673C10.4613 61.0598 9.93245 59.8933 9.93312 58.6673V37.8886C9.9316 37.4091 10.0373 36.9353 10.2425 36.502L18.4665 42.5606L28.0238 49.6006Z" fill="#E8EDFC"/>
<path id="Shape_12" d="M53.2825 61.8657C52.5046 62.5517 51.5036 62.9309 50.4665 62.9324H14.1998C13.1627 62.9309 12.1616 62.5517 11.3838 61.8657L28.0238 49.5991L31.0958 47.3377C31.831 46.7937 32.8353 46.7937 33.5705 47.3377L36.6425 49.5991L53.2825 61.8657Z" fill="#E8EDFC"/>
<path id="Shape_13" d="M36.6425 49.5991L33.5705 47.3377C32.8353 46.7937 31.831 46.7937 31.0958 47.3377L30.7332 47.6044L33.4425 49.5991L50.0825 61.8657C49.3047 62.5517 48.3036 62.9309 47.2665 62.9324H50.4665C51.5036 62.9309 52.5047 62.5517 53.2825 61.8657L36.6425 49.5991Z" fill="#CAD9FC"/>
<path id="Shape_14" d="M38.808 24.5331H25.8586L31.096 20.6717C31.8312 20.1277 32.8355 20.1277 33.5706 20.6717L38.808 24.5331Z" fill="#A4C2F7"/>
<path id="Shape_15" d="M46.1999 26.6665V42.5599L36.6426 49.5999L33.5706 47.3385C32.8354 46.7945 31.8311 46.7945 31.0959 47.3385L28.0239 49.5999L18.4666 42.5599V26.6665C18.4701 25.4898 19.4231 24.5367 20.5999 24.5332H44.0666C45.2433 24.5367 46.1964 25.4898 46.1999 26.6665Z" fill="#E8EDFC"/>
<path id="Shape_16" d="M44.0666 24.5332H40.8666C42.0433 24.5367 42.9964 25.4898 42.9999 26.6665V42.5599L35.0415 48.4265L36.6415 49.5999L46.1999 42.5599V26.6665C46.1964 25.4898 45.2433 24.5367 44.0666 24.5332Z" fill="#CAD9FC"/>
</g>
<g id="Icons_copy_2">
<path id="Shape_17" d="M5.66657 56.5331H8.86657C6.51015 56.5331 4.5999 54.6228 4.5999 52.2664V5.33307C4.5999 2.97666 6.51015 1.06641 8.86657 1.06641H5.66657C3.31015 1.06641 1.3999 2.97666 1.3999 5.33307V52.2664C1.3999 54.6228 3.31015 56.5331 5.66657 56.5331Z" fill="white"/>
</g>
<g id="Icons_copy">
<path id="Rectangle-path_2" d="M0.333252 43.7324H2.46659V52.2658H0.333252V43.7324Z" fill="white"/>
<g id="Group">
<path id="Shape_18" d="M18.4665 9.59961H6.73317C6.14407 9.59961 5.6665 10.0772 5.6665 10.6663C5.6665 11.2554 6.14407 11.7329 6.73317 11.7329H18.4665C19.0556 11.7329 19.5332 11.2554 19.5332 10.6663C19.5332 10.0772 19.0556 9.59961 18.4665 9.59961Z" fill="#428DFF"/>
<path id="Shape_19" d="M26.6875 8.84551C26.2709 8.4291 25.5957 8.4291 25.1792 8.84551L24.8667 9.15804L24.5541 8.84551C24.1356 8.44127 23.4703 8.44705 23.0589 8.8585C22.6474 9.26995 22.6416 9.93524 23.0459 10.3538L23.3584 10.6663L23.0459 10.9788C22.7686 11.2467 22.6574 11.6432 22.755 12.0162C22.8526 12.3891 23.1439 12.6804 23.5168 12.778C23.8897 12.8756 24.2863 12.7644 24.5541 12.4871L24.8667 12.1746L25.1792 12.4871C25.5978 12.8913 26.263 12.8856 26.6745 12.4741C27.0859 12.0627 27.0917 11.3974 26.6875 10.9788L26.3749 10.6663L26.6875 10.3538C27.1039 9.93724 27.1039 9.26204 26.6875 8.84551Z" fill="#428DFF"/>
<path id="Oval" d="M56.8665 7.46732C57.4556 7.46732 57.9331 6.98975 57.9331 6.40065C57.9331 5.81155 57.4556 5.33398 56.8665 5.33398C56.2774 5.33398 55.7998 5.81155 55.7998 6.40065C55.7998 6.98975 56.2774 7.46732 56.8665 7.46732Z" fill="#428DFF"/>
<path id="Oval_2" d="M52.5999 7.46732C53.189 7.46732 53.6665 6.98975 53.6665 6.40065C53.6665 5.81155 53.189 5.33398 52.5999 5.33398C52.0108 5.33398 51.5332 5.81155 51.5332 6.40065C51.5332 6.98975 52.0108 7.46732 52.5999 7.46732Z" fill="#428DFF"/>
<path id="Oval_3" d="M48.3333 7.46732C48.9224 7.46732 49.3999 6.98975 49.3999 6.40065C49.3999 5.81155 48.9224 5.33398 48.3333 5.33398C47.7442 5.33398 47.2666 5.81155 47.2666 6.40065C47.2666 6.98975 47.7442 7.46732 48.3333 7.46732Z" fill="#428DFF"/>
<path id="Oval_4" d="M1.39992 49.0669C1.98902 49.0669 2.46659 48.5894 2.46659 48.0003C2.46659 47.4112 1.98902 46.9336 1.39992 46.9336C0.810815 46.9336 0.333252 47.4112 0.333252 48.0003C0.333252 48.5894 0.810815 49.0669 1.39992 49.0669Z" fill="#428DFF"/>
<path id="Shape_20" d="M58.9999 0H5.66659C2.72253 0.00352653 0.336778 2.38928 0.333252 5.33333V43.7333C0.333252 44.3224 0.810815 44.8 1.39992 44.8C1.98902 44.8 2.46659 44.3224 2.46659 43.7333V17.0667H62.1999V52.2667C62.1999 54.034 60.7672 55.4667 58.9999 55.4667H55.7999V37.888C55.8045 36.5316 55.1598 35.2549 54.0655 34.4533L47.2666 29.44V26.6667C47.2666 24.8994 45.8339 23.4667 44.0666 23.4667H39.1599L34.2063 19.8133C33.0964 18.9868 31.5755 18.9868 30.4655 19.8133L25.5066 23.4667H20.5999C18.8326 23.4667 17.3999 24.8994 17.3999 26.6667V29.44L10.5999 34.4533C9.50594 35.255 8.86162 36.5317 8.86659 37.888V55.4667H5.66659C3.89927 55.4667 2.46659 54.034 2.46659 52.2667C2.46659 51.6776 1.98902 51.2 1.39992 51.2C0.810815 51.2 0.333252 51.6776 0.333252 52.2667C0.336778 55.2107 2.72253 57.5965 5.66659 57.6H8.86659V58.6667C8.87011 61.6107 11.2559 63.9965 14.1999 64H50.4666C53.4106 63.9965 55.7964 61.6107 55.7999 58.6667V57.6H58.9999C61.944 57.5965 64.3297 55.2107 64.3333 52.2667V5.33333C64.3297 2.38928 61.944 0.00352653 58.9999 0ZM53.6666 58.6667C53.6667 59.2945 53.4811 59.9083 53.1333 60.4309L38.4389 49.6L53.6666 38.3829V58.6667ZM52.7973 36.16C52.8442 36.1952 52.8794 36.2411 52.9231 36.2784L47.2666 40.4491V32.0853L52.7973 36.16ZM31.7295 21.5307C32.0883 21.2642 32.5793 21.2642 32.9381 21.5307L35.5642 23.4667H29.1023L31.7295 21.5307ZM20.5999 25.6H44.0666C44.6557 25.6 45.1333 26.0776 45.1333 26.6667V42.0203L36.6415 48.2763L34.2042 46.48C33.0942 45.6535 31.5734 45.6535 30.4634 46.48L28.025 48.2763L19.5333 42.0203V26.6667C19.5333 26.0776 20.0108 25.6 20.5999 25.6ZM11.5333 60.4309C11.1854 59.9083 10.9998 59.2945 10.9999 58.6667V38.3829L26.2277 49.6L11.5333 60.4309ZM17.3999 32.0853V40.4491L11.7466 36.2816C11.7893 36.2443 11.8245 36.1995 11.8714 36.1643L17.3999 32.0853ZM14.1999 61.8667C13.9135 61.8624 13.6289 61.8193 13.3541 61.7387L31.7295 48.1973C32.0883 47.9308 32.5793 47.9308 32.9381 48.1973L51.3125 61.744C51.0373 61.8229 50.7528 61.8642 50.4666 61.8667H14.1999ZM5.66659 2.13333H58.9999C60.7672 2.13333 62.1999 3.56602 62.1999 5.33333V10.6667H32.3333C31.7442 10.6667 31.2666 10.1891 31.2666 9.6V7.46667C31.2666 5.69936 29.8339 4.26667 28.0666 4.26667H2.66285C3.11326 2.99269 4.31535 2.13893 5.66659 2.13333ZM2.46659 14.9333V6.4H28.0666C28.6557 6.4 29.1333 6.87756 29.1333 7.46667V9.6C29.1333 11.3673 30.5659 12.8 32.3333 12.8H62.1999V14.9333H2.46659Z" fill="#428DFF"/>
<path id="Shape_21" d="M23.7998 30.9341H26.9998C27.5889 30.9341 28.0665 30.4566 28.0665 29.8674C28.0665 29.2783 27.5889 28.8008 26.9998 28.8008H23.7998C23.2107 28.8008 22.7332 29.2783 22.7332 29.8674C22.7332 30.4566 23.2107 30.9341 23.7998 30.9341Z" fill="#428DFF"/>
<path id="Shape_22" d="M23.7998 35.1997H40.8665C41.4556 35.1997 41.9332 34.7222 41.9332 34.1331C41.9332 33.544 41.4556 33.0664 40.8665 33.0664H23.7998C23.2107 33.0664 22.7332 33.544 22.7332 34.1331C22.7332 34.7222 23.2107 35.1997 23.7998 35.1997Z" fill="#428DFF"/>
<path id="Shape_23" d="M23.7998 39.4673H40.8665C41.4556 39.4673 41.9332 38.9898 41.9332 38.4007C41.9332 37.8115 41.4556 37.334 40.8665 37.334H23.7998C23.2107 37.334 22.7332 37.8115 22.7332 38.4007C22.7332 38.9898 23.2107 39.4673 23.7998 39.4673Z" fill="#428DFF"/>
<path id="Shape_24" d="M38.7334 41.5996H25.9334C25.3443 41.5996 24.8667 42.0772 24.8667 42.6663C24.8667 43.2554 25.3443 43.7329 25.9334 43.7329H38.7334C39.3225 43.7329 39.8 43.2554 39.8 42.6663C39.8 42.0772 39.3225 41.5996 38.7334 41.5996Z" fill="#428DFF"/>
</g>
</g>
</g>
</g>
</g>
<defs>
<clipPath id="clip0_21015_61700">
<rect width="64" height="64" fill="white" transform="translate(0.333252)"/>
</clipPath>
</defs>
</svg>
