<svg width="64" height="64" viewBox="0 0 64 64" fill="none" xmlns="http://www.w3.org/2000/svg">
<g clip-path="url(#clip0_21015_63089)">
<path d="M62.9248 4.27542V50.1312H1.07276V4.27542C1.07163 3.42662 1.4083 2.61219 2.00854 2.01195C2.60877 1.41172 3.4232 1.07505 4.272 1.07617H59.7255C60.5743 1.07505 61.3888 1.41172 61.989 2.01195C62.5892 2.61219 62.9259 3.42649 62.9248 4.27542Z" fill="#B2CDF8"/>
<path d="M59.7255 4.27542V50.1312H1.07276V4.27542C1.07163 3.42662 1.4083 2.61219 2.00854 2.01195C2.60877 1.41172 3.4232 1.07505 4.272 1.07617H56.5263C57.3751 1.07505 58.1895 1.41172 58.7897 2.01195C59.39 2.61219 59.7266 3.42649 59.7255 4.27542Z" fill="url(#paint0_linear_21015_63089)"/>
<path d="M37.3309 52.2637H26.6667V60.795H37.3309V52.2637Z" fill="#B2CDF8"/>
<path d="M34.1316 52.2637H26.6667V60.795H34.1316V52.2637Z" fill="#E7EBF4"/>
<path d="M62.9248 47.998V51.1973C62.9259 52.0461 62.5892 52.8605 61.989 53.4608C61.3888 54.061 60.5743 54.3977 59.7255 54.3965H4.272C3.4232 54.3977 2.60877 54.061 2.00854 53.4608C1.4083 52.8605 1.07163 52.0461 1.07276 51.1973V47.998H62.9248Z" fill="#E7EBF4"/>
<path d="M59.7255 47.998V51.1973C59.7266 52.0461 59.39 52.8605 58.7897 53.4608C58.1895 54.061 57.3751 54.3977 56.5263 54.3965H4.272C3.4232 54.3977 2.60877 54.061 2.00854 53.4608C1.4083 52.8605 1.07163 52.0461 1.07276 51.1973V47.998H59.7255Z" fill="#F0F7FF"/>
<path d="M43.7293 62.9277H20.2682C20.2667 61.796 20.7156 60.71 21.5159 59.9098C22.3162 59.1095 23.4021 58.6606 24.5339 58.6621H39.4638C40.5951 58.6617 41.6804 59.1111 42.4804 59.9112C43.2805 60.7113 43.7296 61.7962 43.7293 62.9277Z" fill="#E7EBF4"/>
<path d="M40.53 62.928H20.2682C20.2667 61.7963 20.7156 60.7103 21.5159 59.91C22.3162 59.1097 23.4021 58.6608 24.5339 58.6623H36.2645C36.6247 58.659 36.9836 58.7056 37.3309 58.8009C39.2148 59.2841 40.5318 60.983 40.53 62.928Z" fill="#F0F7FF"/>
<path d="M30.9323 37.3321L23.3714 44.701L20.3641 41.6937L26.6666 35.1992L30.9323 37.3321Z" fill="#F0F7FF"/>
<path d="M23.3714 46.2142L21.3345 48.2511L16.813 43.7296L18.8499 41.6927C19.269 41.2769 19.945 41.2769 20.3641 41.6927L23.3713 44.7C23.7873 45.119 23.7873 45.7952 23.3714 46.2142Z" fill="#F0F7FF"/>
<path d="M21.3346 48.252L6.98061 62.6166C6.56146 63.0325 5.88537 63.0325 5.46634 62.6166L2.44843 59.5987C2.03265 59.1796 2.03265 58.5035 2.44843 58.0845L16.813 43.7305L21.3346 48.252Z" fill="#E7EBF4"/>
<path d="M34.1315 43.7308C42.377 43.7308 49.0614 37.0465 49.0614 28.8009C49.0614 20.5554 42.377 13.8711 34.1315 13.8711C25.886 13.8711 19.2017 20.5554 19.2017 28.8009C19.2017 37.0465 25.886 43.7308 34.1315 43.7308Z" fill="#E7EBF4"/>
<path d="M48.7415 25.7307L39.901 34.5712C39.1446 35.3376 37.9341 35.4155 37.0856 34.7526L28.853 28.3541L21.228 34.8059C21.0498 34.961 20.8435 35.0805 20.6202 35.1578C19.9707 33.7863 19.539 32.322 19.3405 30.8175L27.4239 23.9711C28.1947 23.321 29.3153 23.2988 30.1113 23.9178L38.216 30.2309L46.5554 21.9022C46.7276 21.7285 46.9299 21.5876 47.1526 21.4863C47.8981 22.8106 48.4341 24.2424 48.7415 25.7307Z" fill="#B2CDF8"/>
<path d="M20.2682 12.8066C20.2732 14.7874 19.486 16.6881 18.082 18.0854L12.8032 12.8066H20.2682Z" fill="#E7EBF4"/>
<path d="M18.082 18.0855C15.6929 20.4746 11.9969 20.9612 9.07089 19.2719C6.14483 17.5825 4.71817 14.1385 5.59271 10.8749C6.46725 7.61126 9.42455 5.34192 12.8033 5.3418V12.8067L18.082 18.0855Z" fill="#E7EBF4"/>
<path d="M20.2682 12.8067H12.8032V5.3418C14.7835 5.3403 16.6831 6.12636 18.0834 7.52666C19.4836 8.92683 20.2696 10.8264 20.2682 12.8067Z" fill="#E7EBF4"/>
<path d="M4.272 54.3968H6.13818L2.44843 58.084C2.03265 58.5031 2.03265 59.1791 2.44843 59.5982L5.46634 62.6161C5.88549 63.032 6.56158 63.032 6.98061 62.6161L7.82279 61.7733L5.64755 59.5982C5.23177 59.1791 5.23177 58.503 5.64755 58.084L9.3373 54.3968H7.47124C6.62245 54.3979 5.80801 54.0613 5.20778 53.461C4.60755 52.8608 4.27088 52.0464 4.272 51.1976V4.27542C4.27088 3.42662 4.60755 2.61219 5.20778 2.01195C5.80801 1.41172 6.62245 1.07505 7.47124 1.07617H4.272C3.4232 1.07505 2.60877 1.41172 2.00854 2.01195C1.4083 2.61219 1.07163 3.42662 1.07276 4.27542V51.1977C1.07163 52.0465 1.4083 52.8609 2.00854 53.4612C2.60877 54.0613 3.42308 54.3979 4.272 54.3968Z" fill="white"/>
<path d="M0.00628121 51.1966V5.33372C-0.0102149 4.77523 0.00578133 4.21611 0.0542699 3.65949C0.252223 2.29306 1.10002 1.10734 2.32886 0.477993C2.93434 0.170816 3.60343 0.00997878 4.28227 0.00872908H59.1386C59.418 0.013353 59.5895 -0.00151851 59.9576 0.0191016C61.7023 0.105831 63.2148 1.25456 63.7666 2.91204C63.9515 3.50865 64.0277 4.13363 63.9913 4.75711V50.4707L63.9894 51.2444C63.9849 51.5827 63.9404 51.9193 63.8571 52.2473C63.5182 53.5859 62.5509 54.6771 61.2624 55.1741C60.9463 55.2973 60.6161 55.381 60.2794 55.4234C60.1121 55.4453 59.9436 55.4575 59.7749 55.4604L59.3819 55.4624H15.1921V53.3295H59.3819L59.7505 53.3276C59.8356 53.3258 59.9208 53.3193 60.0052 53.3083C60.1731 53.2878 60.3377 53.246 60.4951 53.184C61.138 52.9365 61.6206 52.3921 61.7894 51.7241C61.8314 51.5596 61.854 51.3906 61.8568 51.2206L61.8585 50.4706V4.75711C61.895 4.36495 61.8564 3.96942 61.7451 3.59163C61.4718 2.7627 60.7151 2.18859 59.8431 2.14872C59.7042 2.13423 59.3671 2.14472 59.1387 2.14148H4.28227C3.9411 2.14247 3.60493 2.22296 3.30038 2.37667C2.6869 2.69035 2.26362 3.28221 2.16527 3.96417C2.12178 4.22448 2.14565 4.85771 2.13928 5.3336V51.1965H0.00628121V51.1966Z" fill="white"/>
<path d="M60.9558 0.189936C60.631 0.093709 60.2959 0.0364725 59.9576 0.0191016C59.5896 -0.00151851 59.418 0.013353 59.1386 0.00872908H4.28227C3.60343 0.0101038 2.93434 0.170816 2.32886 0.477993C1.10002 1.10734 0.252223 2.29306 0.0542699 3.65949C0.00578133 4.21611 -0.0102149 4.77523 0.00628121 5.33372V38.3997C0.00628121 38.9886 0.483793 39.466 1.07265 39.466C1.66152 39.466 2.13903 38.9886 2.13903 38.3997V5.33372C2.14553 4.85783 2.12153 4.22461 2.16502 3.96429C2.2635 3.28233 2.68665 2.69047 3.30013 2.37679C3.60468 2.22308 3.94098 2.14248 4.28215 2.1416H59.1386C59.3669 2.14485 59.7039 2.13435 59.843 2.14885C60.7149 2.18871 61.4716 2.76283 61.7449 3.59176C61.8564 3.96954 61.8949 4.36507 61.8584 4.75723V46.9311H24.1608C24.6728 46.3931 24.8668 45.6267 24.6721 44.91L26.6387 42.943C32.1239 45.8471 38.7939 45.3173 43.7518 41.5835C48.7098 37.8498 51.0613 31.5858 49.7853 25.5117C49.6524 24.8958 49.4841 24.2882 49.2813 23.6919L54.3936 18.5796V21.3373C54.3936 21.9263 54.8709 22.4037 55.4599 22.4037C56.0489 22.4037 56.5263 21.9262 56.5263 21.3373V16.0052C56.5241 15.8775 56.4986 15.7513 56.4511 15.6328C56.437 15.5982 56.421 15.5644 56.4031 15.5317C56.3628 15.4515 56.3125 15.3768 56.2534 15.3094C56.2304 15.281 56.2059 15.2539 56.18 15.2281C56.0964 15.1492 56.0003 15.0844 55.8958 15.0366C55.887 15.0326 55.8803 15.0256 55.8713 15.0218L55.8683 15.0199C55.751 14.9738 55.6264 14.9491 55.5003 14.9468C55.4862 14.9462 55.4743 14.9387 55.4601 14.9387H50.1279C49.539 14.9387 49.0616 15.4162 49.0616 16.0051C49.0616 16.5941 49.5391 17.0714 50.1279 17.0714H52.8857L48.3922 21.5649C48.2901 21.3646 48.1936 21.1605 48.0832 20.9659L48.0821 20.964L48.08 20.9602L48.0788 20.9588C44.3151 14.266 36.327 11.1912 29.0472 13.6333C21.7674 16.0753 17.2493 23.3451 18.283 30.9537C18.334 31.3502 18.4011 31.7452 18.484 32.1389C18.5304 32.3587 18.5934 32.5763 18.6496 32.7947L14.9081 35.9602L5.99299 29.0264C5.69219 28.7926 5.28941 28.7369 4.93649 28.8805C4.58357 29.0241 4.33401 29.345 4.2819 29.7225C4.22978 30.0999 4.383 30.4764 4.6838 30.7104L14.2815 38.1752C14.6797 38.4845 15.2399 38.473 15.625 38.1476L19.3821 34.9691C19.4717 35.183 19.5549 35.3985 19.6543 35.6102C20.2014 36.77 20.8877 37.859 21.6982 38.8529L20.1571 40.3937C19.4229 40.1925 18.6371 40.3996 18.0974 40.9364L12.1029 46.9309H2.13915C2.13915 46.3419 1.66164 45.8645 1.07278 45.8645C0.483918 45.8645 0.00640618 46.3419 0.00640618 46.9309V51.1965C0.0122798 53.3013 1.55442 55.0863 3.63605 55.3979L1.69776 57.3362C0.866203 58.1697 0.866203 59.519 1.69776 60.3527L4.71367 63.3686C5.5471 64.2004 6.89665 64.2004 7.73021 63.3686L15.6367 55.4621H25.6005V57.595H24.5341C21.5907 57.5985 19.2055 59.9837 19.202 62.9271C19.202 63.5161 19.6795 63.9935 20.2684 63.9935H43.7295C44.3184 63.9935 44.7958 63.5161 44.7958 62.9271C44.7923 59.9837 42.4071 57.5985 39.4637 57.595H38.3973V55.4621H59.382L59.775 55.4601C59.9437 55.4573 60.1122 55.445 60.2795 55.4231C60.6162 55.3808 60.9464 55.297 61.2626 55.1738C62.551 54.6768 63.5183 53.5857 63.8572 52.247C63.9406 51.9191 63.985 51.5824 63.9895 51.2441L63.9914 50.4704V4.75711C64.0278 4.13363 63.9517 3.50865 63.7667 2.91204C63.3241 1.6041 62.2772 0.590342 60.9558 0.189936ZM22.6218 45.461L21.3346 46.7482L18.3185 43.732L19.6059 42.4446L22.6218 45.461ZM23.3716 43.1943L21.8721 41.6948L23.1524 40.4147C23.6688 40.9029 24.2169 41.3566 24.7931 41.7726L23.3716 43.1943ZM43.935 38.6054C40.8625 41.6873 36.5197 43.1449 32.2099 42.5408C27.9003 41.9367 24.1255 39.3412 22.0187 35.5333L28.8812 29.7268L36.4321 35.5957C37.7057 36.5857 39.5179 36.4697 40.6551 35.3255L47.9576 28.023C48.1923 31.9634 46.728 35.8156 43.935 38.6054ZM20.7846 32.5437C20.7426 32.3941 20.7073 32.2435 20.6708 32.0931C20.6188 31.8797 20.5699 31.666 20.5291 31.4515C20.5156 31.3808 20.5053 31.3097 20.4929 31.2388L28.1128 24.7846C28.4994 24.4629 29.0575 24.4523 29.4562 24.7591L37.5605 31.0723C37.9851 31.4023 38.5888 31.3649 38.9696 30.9853L46.7979 23.1669C46.8412 23.2649 46.8813 23.3648 46.9224 23.4642C47.0082 23.671 47.0924 23.879 47.1685 24.0917C47.2211 24.239 47.2687 24.3892 47.3166 24.5392C47.3836 24.7489 47.4473 24.9602 47.5049 25.1747C47.5252 25.25 47.5427 25.3267 47.5618 25.4029L39.1419 33.8227C38.7641 34.2023 38.1624 34.2401 37.7401 33.9107L29.5072 27.5122C29.109 27.2028 28.5485 27.2144 28.1638 27.5403L21.099 33.5182C21.0612 33.414 21.0282 33.309 20.9931 33.2043C20.9191 32.9847 20.8467 32.7649 20.7846 32.5437ZM24.3282 18.9985C27.262 16.0124 31.3969 14.5264 35.5604 14.9617C39.7239 15.397 43.4619 17.7062 45.7147 21.2345L38.1285 28.8108L30.7636 23.0742C29.5673 22.1537 27.8919 22.1881 26.7343 23.1569L20.2852 28.6192C20.3132 25.0051 21.766 21.5479 24.3282 18.9985ZM4.27202 53.3295C3.09455 53.3284 2.1404 52.3741 2.13915 51.1966V49.0638H9.97005L5.70443 53.3294L4.27202 53.3295ZM6.22156 61.8609L3.20553 58.8448L13.2944 48.756L13.3058 48.7446L16.8104 45.24L19.8266 48.2562L6.22156 61.8609ZM42.4801 61.8609H21.5174C21.9707 60.5835 23.1786 59.7296 24.5339 59.728H39.4637C40.819 59.7295 42.0269 60.5835 42.4801 61.8609ZM36.2645 57.5951H27.7331V55.4622H36.2645V57.5951ZM61.8567 51.2208C61.854 51.3906 61.8314 51.5595 61.7893 51.7243C61.6205 52.3922 61.138 52.9366 60.495 53.1842C60.3377 53.2462 60.1731 53.2879 60.0051 53.3084C59.9206 53.3194 59.8356 53.3259 59.7504 53.3278L59.3818 53.3295H17.7693L22.035 49.0639H61.8584V50.4707L61.8567 51.2208Z" fill="#51A1FF"/>
<path d="M0.667572 43.6475C0.728058 43.6782 0.792793 43.6996 0.859652 43.7111C0.93001 43.7231 1.00124 43.7302 1.0726 43.7325C1.35491 43.7286 1.62535 43.6181 1.8298 43.4232C2.23233 42.9987 2.23233 42.3334 1.8298 41.9089C1.72795 41.8126 1.6086 41.7366 1.47826 41.685C1.34991 41.6302 1.21207 41.6012 1.0726 41.5996C0.790293 41.6039 0.519982 41.7143 0.315405 41.9089C-0.0969971 42.3294 -0.0969971 43.0027 0.315405 43.4232L0.475243 43.5513C0.534854 43.5916 0.599463 43.624 0.667572 43.6475Z" fill="#51A1FF"/>
<path d="M12.8033 21.3379C15.0554 21.339 17.216 20.4464 18.8109 18.8563C18.8186 18.8491 18.8288 18.847 18.8363 18.8395C18.8438 18.832 18.8459 18.8217 18.8531 18.8141C21.7145 15.9274 22.1404 11.4223 19.8705 8.05075C17.6007 4.67917 13.2666 3.37836 9.51534 4.94324C5.7641 6.50812 3.63923 10.5033 4.43841 14.4885C5.2376 18.4737 8.7389 21.3405 12.8033 21.3379ZM18.013 16.5081L15.3778 13.873H19.1056C18.9456 14.8228 18.5721 15.7238 18.013 16.5081ZM19.1056 11.7401H13.8698V6.50437C16.5493 6.96163 18.6483 9.06064 19.1056 11.7401ZM11.7369 6.50437V12.8065C11.7378 13.0893 11.8502 13.3604 12.0497 13.5608L16.5051 18.016C14.3612 19.5423 11.5011 19.5988 9.29864 18.1584C7.09616 16.718 6.00154 14.075 6.54042 11.4992C7.07929 8.92342 9.1418 6.94101 11.7369 6.50437Z" fill="#51A1FF"/>
<path d="M49.0614 40.5332V43.7324C49.0614 44.3214 49.5389 44.7988 50.1278 44.7988C50.7168 44.7988 51.1941 44.3213 51.1941 43.7324V40.5332C51.1941 39.9442 50.7166 39.4668 50.1278 39.4668C49.5388 39.4668 49.0614 39.9442 49.0614 40.5332Z" fill="#51A1FF"/>
<path d="M53.327 36.2675V43.7324C53.327 44.3214 53.8045 44.7988 54.3934 44.7988C54.9823 44.7988 55.4598 44.3213 55.4598 43.7324V36.2675C55.4598 35.6786 54.9824 35.2012 54.3934 35.2012C53.8044 35.2012 53.327 35.6786 53.327 36.2675Z" fill="#51A1FF"/>
<path d="M59.7255 43.7325V38.4004C59.7255 37.8114 59.2481 37.334 58.6591 37.334C58.0702 37.334 57.5928 37.8114 57.5928 38.4004V43.7325C57.5928 44.3215 58.0702 44.7988 58.6591 44.7988C59.2481 44.7988 59.7255 44.3215 59.7255 43.7325Z" fill="#51A1FF"/>
</g>
<defs>
<linearGradient id="paint0_linear_21015_63089" x1="3.93848" y1="0.0752924" x2="46.183" y2="60.4654" gradientUnits="userSpaceOnUse">
<stop stop-color="#D3DFF2"/>
<stop offset="0.1717" stop-color="#D3DFF2"/>
<stop offset="0.2" stop-color="#D3DFF2"/>
<stop offset="0.2002" stop-color="#DAE2F2"/>
<stop offset="0.2007" stop-color="#EBEAF2"/>
<stop offset="0.2014" stop-color="#F6EFF2"/>
<stop offset="0.2023" stop-color="#FDF2F2"/>
<stop offset="0.205" stop-color="#FFF3F2"/>
<stop offset="0.2522" stop-color="#FFF3F2"/>
<stop offset="0.26" stop-color="#D3DFF2"/>
<stop offset="0.3974" stop-color="#D3DFF2"/>
<stop offset="0.42" stop-color="#D3DFF2"/>
<stop offset="0.4202" stop-color="#DAE2F2"/>
<stop offset="0.4207" stop-color="#EBEAF2"/>
<stop offset="0.4214" stop-color="#F6EFF2"/>
<stop offset="0.4223" stop-color="#FDF2F2"/>
<stop offset="0.425" stop-color="#FFF3F2"/>
<stop offset="0.4894" stop-color="#FFF3F2"/>
<stop offset="0.5" stop-color="#F8F0F2"/>
<stop offset="0.5001" stop-color="#E7E8F2"/>
<stop offset="0.5003" stop-color="#DCE3F2"/>
<stop offset="0.5005" stop-color="#D5E0F2"/>
<stop offset="0.501" stop-color="#D3DFF2"/>
<stop offset="0.7062" stop-color="#D3DFF2"/>
<stop offset="0.74" stop-color="#D3DFF2"/>
<stop offset="0.741" stop-color="#FFF3F2"/>
<stop offset="0.8346" stop-color="#FFF3F2"/>
<stop offset="0.85" stop-color="#FFF3F2"/>
<stop offset="0.851" stop-color="#D3DFF2"/>
</linearGradient>
<clipPath id="clip0_21015_63089">
<rect width="64" height="64" fill="white"/>
</clipPath>
</defs>
</svg>
