<svg width="65" height="64" viewBox="0 0 65 64" fill="none" xmlns="http://www.w3.org/2000/svg">
<path d="M48.3332 9.59961V26.1756C48.2479 26.2503 48.1626 26.3249 48.0772 26.4103C46.871 27.6056 46.1948 29.2348 46.1999 30.9329V37.3329C45.0232 37.3365 44.0701 38.2895 44.0666 39.4663V41.5996C42.8898 41.6031 41.9368 42.5562 41.9332 43.7329V45.8663C41.3441 45.8663 40.8666 46.3438 40.8666 46.9329V47.9996H5.66657C3.31015 47.9996 1.3999 46.0894 1.3999 43.7329V9.59961H48.3332Z" fill="#E8EDFC"/>
<path d="M45.1332 9.59961V26.1756C45.0478 26.2503 44.9625 26.3249 44.8772 26.4103C43.671 27.6056 42.9947 29.2348 42.9998 30.9329V37.3329C41.8231 37.3365 40.87 38.2895 40.8665 39.4663V41.5996C39.6898 41.6031 38.7367 42.5562 38.7332 43.7329V45.8663C38.1441 45.8663 37.6665 46.3438 37.6665 46.9329V47.9996H40.8665V46.9329C40.8665 46.3438 41.3441 45.8663 41.9332 45.8663V43.7329C41.9367 42.5562 42.8898 41.6031 44.0665 41.5996V39.4663C44.07 38.2895 45.0231 37.3365 46.1998 37.3329V30.9329C46.1947 29.2348 46.871 27.6056 48.0772 26.4103C48.1625 26.3249 48.2478 26.2503 48.3332 26.1756V9.59961H45.1332Z" fill="#CAD9FC"/>
<path d="M48.3332 5.33307V9.59974H1.3999V5.33307C1.3999 2.97666 3.31015 1.06641 5.66657 1.06641H44.0666C46.423 1.06641 48.3332 2.97666 48.3332 5.33307Z" fill="#A4C2F7"/>
<path d="M44.0665 1.06641H40.8665C43.2229 1.06641 45.1331 2.97666 45.1331 5.33307V9.59974H48.3331V5.33307C48.3331 2.97666 46.4229 1.06641 44.0665 1.06641Z" fill="#7FACFA"/>
<path d="M59 30.9321C59 32.1103 58.0449 33.0654 56.8666 33.0654C55.6884 33.0654 54.7333 32.1103 54.7333 30.9321C54.7246 29.7575 53.7746 28.8075 52.6 28.7988C51.4232 28.8023 50.4702 29.7554 50.4666 30.9321V37.3321H46.2L46.2 30.9321C46.1948 29.234 46.8711 27.6048 48.0773 26.4094C48.1626 26.3241 48.248 26.2494 48.3333 26.1748C50.2127 24.4938 52.904 24.073 55.2069 25.1C57.5097 26.1271 58.9949 28.4106 59 30.9321Z" fill="#A4C2F7"/>
<path d="M61.1333 39.4673V41.6007H44.0667V39.4673C44.0702 38.2906 45.0232 37.3375 46.2 37.334H59C60.1767 37.3375 61.1298 38.2906 61.1333 39.4673Z" fill="#A4C2F7"/>
<path d="M63.2667 43.7329V60.7996C63.2632 61.9764 62.3101 62.9294 61.1334 62.9329H44.0667C42.8899 62.9294 41.9369 61.9764 41.9333 60.7996V58.6663H47.2667C47.8558 58.6663 48.3334 58.1887 48.3334 57.5996V55.4663C48.3334 54.8772 47.8558 54.3996 47.2667 54.3996H41.9333V50.1329H47.2667C47.8558 50.1329 48.3334 49.6554 48.3334 49.0663V46.9329C48.3334 46.3438 47.8558 45.8663 47.2667 45.8663H41.9333V43.7329C41.9369 42.5562 42.8899 41.6031 44.0667 41.5996H61.1334C62.3101 41.6031 63.2632 42.5562 63.2667 43.7329Z" fill="#E8EDFC"/>
<path d="M61.1333 41.5996H57.9333C59.1101 41.6031 60.0632 42.5562 60.0667 43.7329V60.7996C60.0632 61.9764 59.1101 62.9294 57.9333 62.9329H61.1333C62.3101 62.9294 63.2632 61.9764 63.2667 60.7996V43.7329C63.2632 42.5562 62.3101 41.6031 61.1333 41.5996Z" fill="#CAD9FC"/>
<path d="M47.2665 45.8672H41.9331C41.344 45.8672 40.8665 46.3448 40.8665 46.9339V49.0672C40.8665 49.6563 41.344 50.1339 41.9331 50.1339H47.2665C47.8556 50.1339 48.3331 49.6563 48.3331 49.0672V46.9339C48.3331 46.3448 47.8556 45.8672 47.2665 45.8672Z" fill="#E8EDFC"/>
<path d="M47.2665 54.4004H41.9331C41.344 54.4004 40.8665 54.878 40.8665 55.4671V57.6004C40.8665 58.1895 41.344 58.6671 41.9331 58.6671H47.2665C47.8556 58.6671 48.3331 58.1895 48.3331 57.6004V55.4671C48.3331 54.878 47.8556 54.4004 47.2665 54.4004Z" fill="#E8EDFC"/>
<path d="M56.8665 45.8672H54.7332C53.555 45.8672 52.5999 46.8223 52.5999 48.0005V56.5339C52.5999 57.7121 53.555 58.6672 54.7332 58.6672H56.8665C58.0447 58.6672 58.9999 57.7121 58.9999 56.5339V48.0005C58.9999 46.8223 58.0447 45.8672 56.8665 45.8672Z" fill="#E8EDFC"/>
<path d="M5.66657 47.9997H8.86657C6.51015 47.9997 4.5999 46.0895 4.5999 43.7331V5.33307C4.5999 2.97666 6.51015 1.06641 8.86657 1.06641H5.66657C3.31015 1.06641 1.3999 2.97666 1.3999 5.33307V43.7331C1.3999 46.0895 3.31015 47.9997 5.66657 47.9997Z" fill="white"/>
<path d="M0.333252 35.1992H2.46659V43.7326H0.333252V35.1992Z" fill="white"/>
<path d="M1.42113 40.5337C0.832031 40.5367 0.35208 40.0615 0.349135 39.4724C0.346189 38.8833 0.821364 38.4033 1.41047 38.4004H1.42113C2.01024 38.4004 2.4878 38.878 2.4878 39.4671C2.4878 40.0562 2.01024 40.5337 1.42113 40.5337Z" fill="#428DFF"/>
<path d="M5.66652 6.40091C6.25562 6.40091 6.73319 5.92335 6.73319 5.33424C6.73319 4.74514 6.25562 4.26758 5.66652 4.26758C5.07742 4.26758 4.59985 4.74514 4.59985 5.33424C4.59985 5.92335 5.07742 6.40091 5.66652 6.40091Z" fill="#428DFF"/>
<path d="M9.93337 6.40091C10.5225 6.40091 11 5.92335 11 5.33424C11 4.74514 10.5225 4.26758 9.93337 4.26758C9.34426 4.26758 8.8667 4.74514 8.8667 5.33424C8.8667 5.92335 9.34426 6.40091 9.93337 6.40091Z" fill="#428DFF"/>
<path d="M14.2 6.40091C14.7891 6.40091 15.2666 5.92335 15.2666 5.33424C15.2666 4.74514 14.7891 4.26758 14.2 4.26758C13.6109 4.26758 13.1333 4.74514 13.1333 5.33424C13.1333 5.92335 13.6109 6.40091 14.2 6.40091Z" fill="#428DFF"/>
<path d="M29.1332 4.26758H20.5999C20.0108 4.26758 19.5332 4.74514 19.5332 5.33424C19.5332 5.92335 20.0108 6.40091 20.5999 6.40091H29.1332C29.7223 6.40091 30.1999 5.92335 30.1999 5.33424C30.1999 4.74514 29.7223 4.26758 29.1332 4.26758Z" fill="#428DFF"/>
<path d="M4.59985 20.2673C4.59985 20.8564 5.07742 21.3339 5.66652 21.3339H7.79985C8.38896 21.3339 8.86652 20.8564 8.86652 20.2673C8.86652 19.6781 8.38896 19.2006 7.79985 19.2006V13.8673C7.79976 13.4359 7.53988 13.0471 7.14135 12.882C6.74283 12.7169 6.28411 12.8082 5.97905 13.1131L4.91239 14.1798C4.60742 14.4848 4.5162 14.9436 4.68126 15.3421C4.84632 15.7406 5.23516 16.0005 5.66652 16.0006V19.2006C5.07742 19.2006 4.59985 19.6781 4.59985 20.2673Z" fill="#428DFF"/>
<path d="M32.3333 20.2673C32.3333 20.8564 32.8108 21.3339 33.3999 21.3339H35.5333C36.1224 21.3339 36.5999 20.8564 36.5999 20.2673C36.5999 19.6781 36.1224 19.2006 35.5333 19.2006V13.8673C35.5332 13.4359 35.2733 13.0471 34.8748 12.882C34.4762 12.7169 34.0175 12.8082 33.7125 13.1131L32.6458 14.1798C32.3408 14.4848 32.2496 14.9436 32.4147 15.3421C32.5797 15.7406 32.9686 16.0005 33.3999 16.0006V19.2006C32.8108 19.2006 32.3333 19.6781 32.3333 20.2673Z" fill="#428DFF"/>
<path d="M13.1333 12.8008C11.366 12.8008 9.93335 14.2335 9.93335 16.0008V18.1341C9.93335 19.9014 11.366 21.3341 13.1333 21.3341C14.9007 21.3341 16.3334 19.9014 16.3334 18.1341V16.0008C16.3334 14.2335 14.9007 12.8008 13.1333 12.8008ZM14.2 18.1341C14.2 18.7232 13.7225 19.2008 13.1333 19.2008C12.5442 19.2008 12.0667 18.7232 12.0667 18.1341V16.0008C12.0667 15.4117 12.5442 14.9341 13.1333 14.9341C13.7225 14.9341 14.2 15.4117 14.2 16.0008V18.1341Z" fill="#428DFF"/>
<path d="M18.4666 20.2673C18.4666 20.8564 18.9441 21.3339 19.5332 21.3339H21.6666C22.2557 21.3339 22.7332 20.8564 22.7332 20.2673C22.7332 19.6781 22.2557 19.2006 21.6666 19.2006V13.8673C21.6665 13.4359 21.4066 13.0471 21.0081 12.882C20.6095 12.7169 20.1508 12.8082 19.8458 13.1131L18.7791 14.1798C18.4741 14.4848 18.3829 14.9436 18.548 15.3421C18.713 15.7406 19.1019 16.0005 19.5332 16.0006V19.2006C18.9441 19.2006 18.4666 19.6781 18.4666 20.2673Z" fill="#428DFF"/>
<path d="M30.5125 24.8458C30.2075 25.1509 30.1163 25.6096 30.2814 26.0081C30.4464 26.4066 30.8353 26.6665 31.2666 26.6666V29.8666C30.6775 29.8666 30.2 30.3442 30.2 30.9333C30.2 31.5224 30.6775 31.9999 31.2666 31.9999H33.4C33.9891 31.9999 34.4666 31.5224 34.4666 30.9333C34.4666 30.3442 33.9891 29.8666 33.4 29.8666V24.5333C33.3999 24.1019 33.14 23.7131 32.7414 23.548C32.3429 23.383 31.8842 23.4742 31.5792 23.7791L30.5125 24.8458Z" fill="#428DFF"/>
<path d="M27 41.5993C27 42.1884 27.4776 42.666 28.0667 42.666H30.2C30.7891 42.666 31.2667 42.1884 31.2667 41.5993C31.2667 41.0102 30.7891 40.5326 30.2 40.5326V35.1993C30.1999 34.7679 29.94 34.3791 29.5415 34.214C29.143 34.049 28.6843 34.1402 28.3792 34.4451L27.3125 35.5118C27.0076 35.8169 26.9164 36.2756 27.0814 36.6741C27.2465 37.0726 27.6353 37.3325 28.0667 37.3326V40.5326C27.4776 40.5326 27 41.0102 27 41.5993Z" fill="#428DFF"/>
<path d="M26.9998 12.8008C25.2325 12.8008 23.7998 14.2335 23.7998 16.0008V18.1341C23.7998 19.9014 25.2325 21.3341 26.9998 21.3341C28.7671 21.3341 30.1998 19.9014 30.1998 18.1341V16.0008C30.1998 14.2335 28.7671 12.8008 26.9998 12.8008ZM28.0665 18.1341C28.0665 18.7232 27.5889 19.2008 26.9998 19.2008C26.4107 19.2008 25.9331 18.7232 25.9331 18.1341V16.0008C25.9331 15.4117 26.4107 14.9341 26.9998 14.9341C27.5889 14.9341 28.0665 15.4117 28.0665 16.0008V18.1341Z" fill="#428DFF"/>
<path d="M44.0665 18.1341V16.0008C44.0665 14.2335 42.6338 12.8008 40.8665 12.8008C39.0992 12.8008 37.6665 14.2335 37.6665 16.0008V18.1341C37.6665 19.9014 39.0992 21.3341 40.8665 21.3341C42.6338 21.3341 44.0665 19.9014 44.0665 18.1341ZM39.7998 18.1341V16.0008C39.7998 15.4117 40.2774 14.9341 40.8665 14.9341C41.4556 14.9341 41.9332 15.4117 41.9332 16.0008V18.1341C41.9332 18.7232 41.4556 19.2008 40.8665 19.2008C40.2774 19.2008 39.7998 18.7232 39.7998 18.1341Z" fill="#428DFF"/>
<path d="M35.5332 26.6668V28.8001C35.5332 30.5674 36.9659 32.0001 38.7332 32.0001C40.5005 32.0001 41.9332 30.5674 41.9332 28.8001V26.6668C41.9332 24.8995 40.5005 23.4668 38.7332 23.4668C36.9659 23.4668 35.5332 24.8995 35.5332 26.6668ZM37.6665 26.6668C37.6665 26.0777 38.1441 25.6001 38.7332 25.6001C39.3223 25.6001 39.7999 26.0777 39.7999 26.6668V28.8001C39.7999 29.3892 39.3223 29.8668 38.7332 29.8668C38.1441 29.8668 37.6665 29.3892 37.6665 28.8001V26.6668Z" fill="#428DFF"/>
<path d="M32.3333 37.3328V39.4661C32.3333 41.2335 33.7659 42.6661 35.5333 42.6661C37.3006 42.6661 38.7333 41.2335 38.7333 39.4661V37.3328C38.7333 35.5655 37.3006 34.1328 35.5333 34.1328C33.7659 34.1328 32.3333 35.5655 32.3333 37.3328ZM36.5999 37.3328V39.4661C36.5999 40.0552 36.1224 40.5328 35.5333 40.5328C34.9441 40.5328 34.4666 40.0552 34.4666 39.4661V37.3328C34.4666 36.7437 34.9441 36.2661 35.5333 36.2661C36.1224 36.2661 36.5999 36.7437 36.5999 37.3328Z" fill="#428DFF"/>
<path d="M4.59985 39.4661C4.59985 41.2335 6.03254 42.6661 7.79985 42.6661C9.56716 42.6661 10.9999 41.2335 10.9999 39.4661V37.3328C10.9999 35.5655 9.56716 34.1328 7.79985 34.1328C6.03254 34.1328 4.59985 35.5655 4.59985 37.3328V39.4661ZM6.73319 37.3328C6.73319 36.7437 7.21075 36.2661 7.79985 36.2661C8.38896 36.2661 8.86652 36.7437 8.86652 37.3328V39.4661C8.86652 40.0552 8.38896 40.5328 7.79985 40.5328C7.21075 40.5328 6.73319 40.0552 6.73319 39.4661V37.3328Z" fill="#428DFF"/>
<path d="M13.1333 41.5993C13.1333 42.1884 13.6109 42.666 14.2 42.666H16.3333C16.9224 42.666 17.4 42.1884 17.4 41.5993C17.4 41.0102 16.9224 40.5326 16.3333 40.5326V35.1993C16.3332 34.7679 16.0733 34.3791 15.6748 34.214C15.2763 34.049 14.8176 34.1402 14.5125 34.4451L13.4458 35.5118C13.1409 35.8169 13.0497 36.2756 13.2147 36.6741C13.3798 37.0726 13.7686 37.3325 14.2 37.3326V40.5326C13.6109 40.5326 13.1333 41.0102 13.1333 41.5993Z" fill="#428DFF"/>
<path d="M18.4666 37.3328V39.4661C18.4666 41.2335 19.8992 42.6661 21.6666 42.6661C23.4339 42.6661 24.8666 41.2335 24.8666 39.4661V37.3328C24.8666 35.5655 23.4339 34.1328 21.6666 34.1328C19.8992 34.1328 18.4666 35.5655 18.4666 37.3328ZM22.7332 37.3328V39.4661C22.7332 40.0552 22.2557 40.5328 21.6666 40.5328C21.0774 40.5328 20.5999 40.0552 20.5999 39.4661V37.3328C20.5999 36.7437 21.0774 36.2661 21.6666 36.2661C22.2557 36.2661 22.7332 36.7437 22.7332 37.3328Z" fill="#428DFF"/>
<path d="M4.59985 28.8001C4.59985 30.5674 6.03254 32.0001 7.79985 32.0001C9.56716 32.0001 10.9999 30.5674 10.9999 28.8001V26.6668C10.9999 24.8995 9.56716 23.4668 7.79985 23.4668C6.03254 23.4668 4.59985 24.8995 4.59985 26.6668V28.8001ZM6.73319 26.6668C6.73319 26.0777 7.21075 25.6001 7.79985 25.6001C8.38896 25.6001 8.86652 26.0777 8.86652 26.6668V28.8001C8.86652 29.3892 8.38896 29.8668 7.79985 29.8668C7.21075 29.8668 6.73319 29.3892 6.73319 28.8001V26.6668Z" fill="#428DFF"/>
<path d="M13.1333 26.6668V28.8001C13.1333 30.5674 14.566 32.0001 16.3333 32.0001C18.1006 32.0001 19.5333 30.5674 19.5333 28.8001V26.6668C19.5333 24.8995 18.1006 23.4668 16.3333 23.4668C14.566 23.4668 13.1333 24.8995 13.1333 26.6668ZM17.4 26.6668V28.8001C17.4 29.3892 16.9224 29.8668 16.3333 29.8668C15.7442 29.8668 15.2666 29.3892 15.2666 28.8001V26.6668C15.2666 26.0777 15.7442 25.6001 16.3333 25.6001C16.9224 25.6001 17.4 26.0777 17.4 26.6668Z" fill="#428DFF"/>
<path d="M21.6665 26.6668V28.8001C21.6665 30.5674 23.0992 32.0001 24.8665 32.0001C26.6338 32.0001 28.0665 30.5674 28.0665 28.8001V26.6668C28.0665 24.8995 26.6338 23.4668 24.8665 23.4668C23.0992 23.4668 21.6665 24.8995 21.6665 26.6668ZM23.7998 26.6668C23.7998 26.0777 24.2774 25.6001 24.8665 25.6001C25.4556 25.6001 25.9332 26.0777 25.9332 26.6668V28.8001C25.9332 29.3892 25.4556 29.8668 24.8665 29.8668C24.2774 29.8668 23.7998 29.3892 23.7998 28.8001V26.6668Z" fill="#428DFF"/>
<path d="M62.1999 40.7296V39.4667C62.1999 37.6994 60.7672 36.2667 58.9999 36.2667H51.5333V30.9333C51.5333 30.3442 52.0108 29.8667 52.5999 29.8667C53.189 29.8667 53.6666 30.3442 53.6666 30.9333C53.6666 32.7006 55.0993 34.1333 56.8666 34.1333C58.6339 34.1333 60.0666 32.7006 60.0666 30.9333C60.0724 28.3711 58.7611 25.9858 56.5947 24.6177C54.4283 23.2496 51.7109 23.0909 49.3999 24.1973V5.33333C49.3964 2.38928 47.0106 0.00352653 44.0666 0H5.66659C2.72253 0.00352653 0.336778 2.38928 0.333252 5.33333V35.2C0.333252 35.7891 0.810815 36.2667 1.39992 36.2667C1.98902 36.2667 2.46659 35.7891 2.46659 35.2V10.6667H47.2666V25.7184C45.8989 27.1096 45.1327 28.9825 45.1333 30.9333V36.4629C43.8593 36.9133 43.0055 38.1154 42.9999 39.4667V40.7296C41.7259 41.18 40.8722 42.3821 40.8666 43.7333V45.0965C40.2087 45.4746 39.8022 46.1746 39.7999 46.9333H5.66659C3.89927 46.9333 2.46659 45.5006 2.46659 43.7333C2.46659 43.1442 1.98902 42.6667 1.39992 42.6667C0.810815 42.6667 0.333252 43.1442 0.333252 43.7333C0.336778 46.6774 2.72253 49.0631 5.66659 49.0667H39.7999C39.8022 49.8254 40.2087 50.5254 40.8666 50.9035V53.6299C40.2087 54.0079 39.8022 54.7079 39.7999 55.4667V57.6C39.8022 58.3588 40.2087 59.0588 40.8666 59.4368V60.8C40.8666 62.5673 42.2993 64 44.0666 64H61.1333C62.9006 64 64.3333 62.5673 64.3333 60.8V43.7333C64.3277 42.3821 63.4739 41.18 62.1999 40.7296ZM2.46659 8.53333V5.33333C2.46659 3.56602 3.89927 2.13333 5.66659 2.13333H44.0666C45.8339 2.13333 47.2666 3.56602 47.2666 5.33333V8.53333H2.46659ZM52.5999 25.6C55.544 25.6035 57.9297 27.9893 57.9333 30.9333C57.9333 31.5224 57.4557 32 56.8666 32C56.2775 32 55.7999 31.5224 55.7999 30.9333C55.7999 29.166 54.3672 27.7333 52.5999 27.7333C50.8326 27.7333 49.3999 29.166 49.3999 30.9333V36.2667H47.2666V30.9333C47.2701 27.9893 49.6559 25.6035 52.5999 25.6ZM45.1333 39.4667C45.1333 38.8776 45.6108 38.4 46.1999 38.4H58.9999C59.589 38.4 60.0666 38.8776 60.0666 39.4667V40.5333H45.1333V39.4667ZM41.9333 49.0667V46.9333H47.2666V49.0667H41.9333ZM41.9333 57.6V55.4667H47.2666V57.6H41.9333ZM62.1999 60.8C62.1999 61.3891 61.7224 61.8667 61.1333 61.8667H44.0666C43.4775 61.8667 42.9999 61.3891 42.9999 60.8V59.7333H47.2666C48.4448 59.7333 49.3999 58.7782 49.3999 57.6V55.4667C49.3999 54.2885 48.4448 53.3333 47.2666 53.3333H42.9999V51.2H47.2666C48.4448 51.2 49.3999 50.2449 49.3999 49.0667V46.9333C49.3999 45.7551 48.4448 44.8 47.2666 44.8H42.9999V43.7333C42.9999 43.1442 43.4775 42.6667 44.0666 42.6667H61.1333C61.7224 42.6667 62.1999 43.1442 62.1999 43.7333V60.8Z" fill="#428DFF"/>
<path d="M56.8665 44.8008H54.7332C52.9659 44.8008 51.5332 46.2335 51.5332 48.0008V56.5341C51.5332 58.3014 52.9659 59.7341 54.7332 59.7341H56.8665C58.6338 59.7341 60.0665 58.3014 60.0665 56.5341V48.0008C60.0665 46.2335 58.6338 44.8008 56.8665 44.8008ZM57.9332 56.5341C57.9332 57.1232 57.4556 57.6008 56.8665 57.6008H54.7332C54.1441 57.6008 53.6665 57.1232 53.6665 56.5341V48.0008C53.6665 47.4117 54.1441 46.9341 54.7332 46.9341H56.8665C57.4556 46.9341 57.9332 47.4117 57.9332 48.0008V56.5341Z" fill="#428DFF"/>
</svg>
