<svg width="64" height="64" viewBox="0 0 64 64" fill="none" xmlns="http://www.w3.org/2000/svg">
<g clip-path="url(#clip0_21015_63196)">
<path d="M61.8666 50.1329C61.8672 52.3963 60.9684 54.5672 59.3679 56.1676C57.7675 57.7681 55.5966 58.6669 53.3333 58.6663C52.7965 58.6657 52.2609 58.6157 51.7333 58.5169C47.7099 57.7479 44.8 54.2292 44.8 50.1329C44.8 46.0367 47.7099 42.518 51.7333 41.7489C52.2609 41.6502 52.7965 41.6002 53.3333 41.5996C55.5966 41.599 57.7675 42.4978 59.3679 44.0983C60.9684 45.6987 61.8672 47.8696 61.8666 50.1329Z" fill="#CAD9FC"/>
<path d="M51.7333 58.518C55.5624 58.518 58.6666 54.7644 58.6666 50.134C58.6666 45.5036 55.5624 41.75 51.7333 41.75C47.9041 41.75 44.7999 45.5036 44.7999 50.134C44.7999 54.7644 47.9041 58.518 51.7333 58.518Z" fill="#E8EDFC"/>
<path d="M59.5307 56.0006C58.9866 53.9045 57.4224 52.224 55.3707 51.5312H51.296C49.2443 52.224 47.6801 53.9045 47.136 56.0006L53.8667 58.1339L59.5307 56.0006Z" fill="#E8EDFC"/>
<path d="M53.3333 52.2672C55.1006 52.2672 56.5333 50.8345 56.5333 49.0672C56.5333 47.2999 55.1006 45.8672 53.3333 45.8672C51.566 45.8672 50.1333 47.2999 50.1333 49.0672C50.1333 50.8345 51.566 52.2672 53.3333 52.2672Z" fill="#E8EDFC"/>
<path d="M62.9333 32.0854C62.9448 36.128 62.1469 40.132 60.5866 43.8614C60.1249 43.3159 59.5983 42.8288 59.0187 42.4107C62.0465 33.9008 61.1846 24.4905 56.6613 16.6721L45.1307 5.23741C40.8109 2.78855 35.9604 1.42677 30.9973 1.26941C31.36 1.25874 31.7226 1.24808 32.0853 1.24808C37.405 1.24053 42.6354 2.61521 47.264 5.23741L58.7946 16.6721C61.5152 21.3525 62.9435 26.6717 62.9333 32.0854Z" fill="#CAD9FC"/>
<path d="M60.7999 32.0855C60.8083 35.6045 60.2056 39.0982 59.0186 42.4109C57.3757 41.1881 55.3813 40.5296 53.3333 40.5335C52.9768 40.5333 52.6205 40.5546 52.2666 40.5975H52.2559C47.4047 41.1488 43.7383 45.251 43.7333 50.1335V50.3575C43.1146 49.7602 42.5173 49.1522 41.9199 48.5442C41.8693 48.4916 41.8159 48.4418 41.7599 48.3949C40.4053 47.167 38.8689 46.1559 37.2053 45.3975C35.9866 44.7268 34.575 44.4934 33.2053 44.7362C32.7254 44.8769 32.2913 45.1419 31.9466 45.5042C31.1437 46.6413 30.471 47.865 29.9413 49.1522C29.4921 49.9817 28.883 50.714 28.1493 51.3069C27.3706 51.9042 26.3359 52.0962 25.6639 52.8322C24.8746 53.7069 24.9599 55.0295 24.4373 56.0535C24.014 56.7483 23.7652 57.5351 23.7119 58.3469C23.8516 59.7019 24.6121 60.9155 25.7706 61.6322C26.2445 61.9641 26.7359 62.2704 27.2426 62.5495C19.9469 61.3875 13.3112 57.6438 8.54394 52.0002H8.53328L2.57061 41.0349C0.375998 33.7684 0.926394 25.9489 4.11728 19.0615C4.14928 18.9975 4.17061 18.9442 4.20261 18.8802C4.22394 18.8269 4.25594 18.7629 4.28794 18.6989C4.37328 18.5175 4.46928 18.3255 4.55461 18.1442C4.63994 17.9842 4.72528 17.8349 4.79994 17.6749C4.81061 17.6642 4.82128 17.6429 4.83194 17.6322C5.05785 17.2177 5.3456 16.84 5.68528 16.5122C5.97304 16.2229 6.31335 15.9913 6.68794 15.8295C6.9357 15.7185 7.19267 15.6292 7.45594 15.5629C9.05594 15.1469 10.8159 15.5415 11.2959 17.4189C11.8933 19.7549 9.45061 22.1655 10.3039 24.4162C10.8266 25.7815 12.3626 26.4429 13.7599 26.8589C15.1679 27.2642 16.7146 27.6589 17.5893 28.8429C18.5813 30.1869 18.3466 32.1175 19.1679 33.5895C20.1386 35.3282 22.2826 35.9469 24.2239 36.4162C26.1973 36.8962 28.1813 37.3869 30.1546 37.8882C30.5066 37.9735 30.8479 38.0589 31.1999 38.1442C31.4465 38.2341 31.7148 38.2453 31.9679 38.1762C33.1733 37.6749 31.1466 35.5095 30.6986 35.1362C29.1306 33.8669 27.1679 32.6189 27.1679 30.3469C27.1528 29.3776 27.6683 28.4776 28.5119 28.0002C28.5868 27.9548 28.6653 27.9155 28.7466 27.8829C29.5266 27.6313 30.3788 27.7491 31.0613 28.2029C31.2746 28.2989 31.4879 28.3949 31.7119 28.4909C32.1348 28.736 32.6628 28.7066 33.0559 28.4162C33.2773 28.1408 33.3635 27.7806 33.2906 27.4349C33.1199 26.0482 33.0559 24.7895 34.3786 23.9362C35.7119 23.0722 37.4186 22.9975 38.9013 22.4642C40.3865 21.8667 41.7855 21.0739 43.0613 20.1069C43.7643 19.7001 44.4445 19.255 45.0986 18.7735L42.6879 13.3975C41.6173 12.6009 40.2964 12.2148 38.9653 12.3095C38.796 12.3338 38.6285 12.3694 38.4639 12.4162C37.5146 12.6829 36.6506 13.2269 35.6906 13.4509C35.1288 13.5793 34.5413 13.5347 34.0053 13.3229C33.4464 13.1417 33.0403 12.6569 32.9599 12.0749C32.8319 10.6242 34.8799 9.94153 35.3706 8.56553C35.6329 7.52675 35.1705 6.44053 34.2399 5.90953C33.1785 5.34265 31.9533 5.16169 30.7733 5.39753C30.1823 5.46876 29.587 5.49728 28.9919 5.48286C28.7812 5.4721 28.5712 5.45074 28.3626 5.41886C26.4313 5.14933 24.7115 4.05601 23.6479 2.42153C26.0338 1.73716 28.4952 1.35022 30.9759 1.26953H30.9973C35.9604 1.42689 40.8108 2.78867 45.1306 5.23753L56.6613 16.6722C59.3819 21.3526 60.8101 26.6718 60.7999 32.0855Z" fill="#E8EDFC"/>
<path d="M59.7333 12.8009C59.7339 15.0643 58.8351 17.2351 57.2346 18.8356C55.6342 20.436 53.4633 21.3349 51.2 21.3342C50.6632 21.3336 50.1276 21.2837 49.6 21.1849C45.5766 20.4159 42.6667 16.8971 42.6667 12.8009C42.6667 8.70468 45.5766 5.18596 49.6 4.41691C50.1276 4.31817 50.6632 4.26818 51.2 4.26758C53.4633 4.26696 55.6342 5.1658 57.2346 6.76625C58.8351 8.36669 59.7339 10.5375 59.7333 12.8009Z" fill="#CAD9FC"/>
<path d="M49.6 21.184C53.4291 21.184 56.5333 17.4304 56.5333 12.8C56.5333 8.16966 53.4291 4.41602 49.6 4.41602C45.7708 4.41602 42.6666 8.16966 42.6666 12.8C42.6666 17.4304 45.7708 21.184 49.6 21.184Z" fill="#E8EDFC"/>
<path d="M19.2 43.7345C19.2006 45.9979 18.3018 48.1687 16.7013 49.7692C15.1009 51.3696 12.93 52.2685 10.6666 52.2678C10.1299 52.2672 9.59427 52.2173 9.06665 52.1185C5.04325 51.3495 2.13342 47.8307 2.13342 43.7345C2.13342 39.6383 5.04325 36.1196 9.06665 35.3505C9.59427 35.2518 10.1299 35.2018 10.6666 35.2012C12.93 35.2005 15.1009 36.0994 16.7013 37.6998C18.3018 39.3003 19.2006 41.4711 19.2 43.7345Z" fill="#CAD9FC"/>
<path d="M9.06663 52.1176C12.8958 52.1176 16 48.364 16 43.7336C16 39.1033 12.8958 35.3496 9.06663 35.3496C5.23746 35.3496 2.1333 39.1033 2.1333 43.7336C2.1333 48.364 5.23746 52.1176 9.06663 52.1176Z" fill="#E8EDFC"/>
<path d="M45.0986 18.7739C44.4444 19.2553 43.7643 19.7005 43.0612 20.1072C41.7854 21.0743 40.3865 21.867 38.9012 22.4645C37.4186 22.9979 35.7119 23.0725 34.3786 23.9365C33.0559 24.7899 33.1199 26.0485 33.2906 27.4352C33.3634 27.781 33.2773 28.1412 33.0559 28.4165C32.6628 28.707 32.1348 28.7363 31.7119 28.4912C30.7199 28.0859 29.8452 27.4245 28.7466 27.8832C27.7715 28.3109 27.149 29.2826 27.1679 30.3472C27.1679 32.6192 29.1306 33.8672 30.6986 35.1365C31.1466 35.5099 33.1732 37.6752 31.9679 38.1765C31.7148 38.2456 31.4464 38.2344 31.1999 38.1445C28.8746 37.5579 26.5492 36.9819 24.2239 36.4165C22.8155 36.1615 21.4731 35.6245 20.2772 34.8379C19.8242 34.5042 19.4462 34.079 19.1679 33.5899C18.3466 32.1179 18.5812 30.1872 17.5892 28.8432C16.884 28.0191 15.9353 27.4402 14.8799 27.1899C14.5066 27.0725 14.1332 26.9659 13.7599 26.8592C12.8567 26.6275 12.0059 26.2257 11.2532 25.6752C10.8301 25.348 10.5023 24.9134 10.3039 24.4165C9.45058 22.1659 11.8932 19.7552 11.2959 17.4192C11.0314 16.2309 9.96361 15.3955 8.74658 15.4245C8.038 15.3955 7.33261 15.5344 6.68791 15.8299C6.31331 15.9916 5.97301 16.2233 5.68524 16.5125C5.34556 16.8404 5.05782 17.218 4.83191 17.6325C5.43575 16.5004 6.12018 15.4132 6.87991 14.3792C10.8477 8.98007 16.3596 4.91122 22.6879 2.70987C23.0079 2.61387 23.3279 2.50721 23.6479 2.42188C24.0764 3.09355 24.6262 3.67954 25.2692 4.14988H25.2799C26.359 4.94998 27.6503 5.41379 28.9919 5.48321C30.2506 5.54721 31.4986 5.20588 32.7146 5.37654C33.2558 5.44111 33.7764 5.62314 34.2399 5.90988C35.1704 6.44087 35.6329 7.52709 35.3706 8.56588C34.8799 9.94187 32.8319 10.6245 32.9599 12.0752C32.9691 12.2044 33.0016 12.3309 33.0559 12.4485C33.6054 13.3412 34.6866 13.7527 35.6906 13.4512C36.8212 13.1845 37.8132 12.4805 38.9652 12.3099C39.5108 12.2328 40.0664 12.2691 40.5972 12.4165C41.3408 12.6332 42.0462 12.9643 42.6879 13.3979L45.0986 18.7739Z" fill="#7FACFA"/>
<path d="M42.9653 17.7063C42.3112 18.1878 41.631 18.6329 40.928 19.0397C39.6522 20.0067 38.2532 20.7995 36.768 21.397C35.2853 21.9303 33.5787 22.005 32.2453 22.869C30.9227 23.7223 30.9867 24.981 31.1573 26.3677C31.2302 26.7134 31.1441 27.0736 30.9227 27.349C30.5296 27.6394 30.0015 27.6687 29.5787 27.4237C28.5867 27.0183 27.712 26.357 26.6133 26.8157C25.6383 27.2434 25.0157 28.2151 25.0347 29.2797C25.0347 31.5517 26.9973 32.7997 28.5653 34.069C29.0133 34.4423 31.04 36.6077 29.8347 37.109C29.5815 37.1781 29.3132 37.1669 29.0667 37.077C26.7413 36.4903 24.416 35.9143 22.0907 35.349C21.4933 35.1996 20.8747 35.0396 20.2773 34.837C19.8242 34.5033 19.4463 34.0781 19.168 33.589C18.3467 32.117 18.5813 30.1863 17.5893 28.8423C16.8841 28.0182 15.9354 27.4393 14.88 27.189C13.9013 26.5079 12.7945 26.0325 11.6267 25.7917C11.4987 25.749 11.3813 25.717 11.2533 25.6743C10.8302 25.3471 10.5024 24.9125 10.304 24.4157C9.45067 22.165 11.8933 19.7543 11.296 17.4183C11.0315 16.23 9.9637 15.3946 8.74667 15.4237C8.31186 14.8138 7.62715 14.4304 6.88 14.3783C10.8478 8.97918 16.3597 4.91033 22.688 2.70898C23.432 3.37315 24.3134 3.86485 25.2693 4.14898H25.28C25.7933 4.30239 26.3235 4.39195 26.8587 4.41565C28.6507 4.50098 30.432 3.78632 32.1067 4.84232C32.338 4.9845 32.5436 5.16483 32.7147 5.37565C33.2595 5.93687 33.4593 6.74829 33.2373 7.49832C32.7467 8.87432 30.6987 9.55698 30.8267 11.0077C30.9227 11.9997 32.032 12.501 33.056 12.4477C33.6055 13.3403 34.6867 13.7518 35.6907 13.4503C36.8213 13.1837 37.8133 12.4797 38.9653 12.309C39.5109 12.2319 40.0665 12.2683 40.5973 12.4157L42.9653 17.7063Z" fill="#A4C2F7"/>
<path d="M48.3306 58.3152C47.5946 58.7739 46.848 59.1899 46.0693 59.5846C43.9712 57.8168 42.7322 55.234 42.6666 52.4912C42.048 51.8939 41.4506 51.2859 40.8533 50.6779C39.4639 49.3789 37.8713 48.316 36.1386 47.5312C34.56 46.7739 32.2666 46.1766 30.88 47.6379C30.6857 47.8494 30.5108 48.0779 30.3573 48.3206C30.7407 47.3065 31.2766 46.3569 31.9466 45.5046C33.3333 44.0432 35.6266 44.6406 37.2053 45.3979C38.938 46.1826 40.5306 47.2456 41.92 48.5446C42.5173 49.1526 43.1146 49.7606 43.7333 50.3579C43.8117 53.6199 45.5438 56.618 48.3306 58.3152Z" fill="#7FACFA"/>
<path d="M46.0692 59.5841C41.7388 61.7919 36.946 62.9398 32.0852 62.9334C30.4633 62.9358 28.8439 62.8073 27.2426 62.5494C26.7358 62.2702 26.2444 61.964 25.7706 61.6321C24.6121 60.9154 23.8516 59.7018 23.7119 58.3467C23.7651 57.535 24.014 56.7481 24.4372 56.0534C24.6335 55.6244 24.7768 55.1731 24.8639 54.7094H24.8746C24.9734 54.0266 25.2451 53.3803 25.6639 52.8321C26.3359 52.0961 27.3706 51.9041 28.1492 51.3067C28.7987 50.7913 29.3452 50.158 29.7599 49.4401C29.7706 49.4187 29.7706 49.4081 29.7812 49.3974C29.8407 49.3198 29.8942 49.2378 29.9412 49.1521C30.0948 48.8824 30.2336 48.6047 30.3572 48.3201C30.5107 48.0774 30.6857 47.8489 30.8799 47.6374C32.2666 46.1761 34.5599 46.7734 36.1386 47.5307C37.8712 48.3154 39.4638 49.3784 40.8532 50.6774C41.4506 51.2854 42.0479 51.8934 42.6666 52.4907C42.7322 55.2335 43.9711 57.8163 46.0692 59.5841Z" fill="#A4C2F7"/>
<path d="M30.3572 48.3203C30.2336 48.6049 30.0948 48.8827 29.9412 49.1523C29.8942 49.238 29.8407 49.32 29.7812 49.3976C29.9518 49.0275 30.1441 48.6677 30.3572 48.3203Z" fill="#CAD9FC"/>
<path d="M57.3974 18.6666C56.8533 16.5705 55.2891 14.89 53.2374 14.1973H49.1627C47.111 14.89 45.5468 16.5705 45.0027 18.6666L51.2 20.7999L57.3974 18.6666Z" fill="#E8EDFC"/>
<path d="M51.2 14.9332C52.9673 14.9332 54.4 13.5005 54.4 11.7332C54.4 9.96589 52.9673 8.5332 51.2 8.5332C49.4327 8.5332 48 9.96589 48 11.7332C48 13.5005 49.4327 14.9332 51.2 14.9332Z" fill="#E8EDFC"/>
<path d="M16.8639 49.6002C16.3198 47.5041 14.7556 45.8236 12.7039 45.1309H8.62924C6.57751 45.8236 5.01333 47.5041 4.46924 49.6002L10.6666 52.8002L16.8639 49.6002Z" fill="#E8EDFC"/>
<path d="M10.6667 45.8668C12.434 45.8668 13.8667 44.4341 13.8667 42.6668C13.8667 40.8995 12.434 39.4668 10.6667 39.4668C8.89936 39.4668 7.46667 40.8995 7.46667 42.6668C7.46667 44.4341 8.89936 45.8668 10.6667 45.8668Z" fill="#E8EDFC"/>
<path d="M10.0505 15.7676C9.99717 15.7889 9.94085 15.8063 9.88794 15.8297C9.94191 15.8062 10.0019 15.7932 10.0568 15.771L10.0505 15.7676Z" fill="white"/>
<path d="M30.4426 62.549C23.1469 61.3869 16.5112 57.6432 11.7439 51.9996H11.7333L11.7282 51.9902C10.1826 51.5907 8.78054 50.7646 7.68208 49.6062L7.66928 49.5996L7.67109 49.5942C5.50376 47.3143 4.77388 44.0232 5.77413 41.0408L5.77061 41.0343C3.576 33.7678 4.12639 25.9484 7.31728 19.061C7.34928 18.997 7.37061 18.9436 7.40261 18.8796C7.42394 18.8263 7.45594 18.7623 7.48794 18.6983C7.57328 18.517 7.66928 18.325 7.75461 18.1436C7.83994 17.9836 7.92528 17.8343 7.99994 17.6743C8.01061 17.6636 8.02128 17.6423 8.03194 17.6316C8.63578 16.4995 9.32021 15.4123 10.0799 14.3783C13.7231 9.44759 18.652 5.61361 24.3275 3.29562C24.3196 3.28698 24.3139 3.27653 24.3062 3.26789L24.3304 3.29466C24.8496 3.08879 25.3692 2.87866 25.8877 2.70938C26.2077 2.61338 26.5277 2.50671 26.8477 2.42138C29.0776 1.78555 31.3734 1.40951 33.6895 1.30074C33.1572 1.27333 32.6242 1.24805 32.0851 1.24805C31.7224 1.24805 31.3597 1.25871 30.9971 1.26938H30.9757C28.4949 1.35007 26.0336 1.737 23.6477 2.42138C23.3277 2.50671 23.0077 2.61338 22.6877 2.70938C16.3595 4.91065 10.8477 8.97934 6.87994 14.3783C6.12021 15.4123 5.43578 16.4995 4.83194 17.6316C4.82128 17.6423 4.81061 17.6636 4.79994 17.6743C4.72528 17.8343 4.63994 17.9836 4.55461 18.1436C4.46928 18.325 4.37328 18.517 4.28794 18.6983C4.25594 18.7623 4.22394 18.8263 4.20261 18.8796C4.17061 18.9436 4.14928 18.997 4.11728 19.061C0.926394 25.9484 0.375998 33.7678 2.57061 41.0343L2.57413 41.0408C1.57388 44.0232 2.30376 47.3143 4.47109 49.5942L4.46928 49.5996L4.48208 49.6062C5.58053 50.7646 6.98259 51.5907 8.52816 51.9902L8.53328 51.9996H8.54394C13.3112 57.6432 19.9469 61.3869 27.2426 62.549C28.8439 62.8069 30.4634 62.9353 32.0853 62.933C32.6945 62.933 33.2993 62.9137 33.9001 62.8787C32.7422 62.8358 31.5878 62.7257 30.4426 62.549ZM8.13573 15.4414C8.22661 15.4324 8.31642 15.4296 8.40688 15.4268C8.31653 15.4308 8.22661 15.4316 8.13573 15.4414Z" fill="white"/>
<path d="M4.62927 15.8291C8.80081 8.80328 15.5015 3.63896 23.3581 1.39453L23.9378 3.44765C20.9794 4.29039 18.1699 5.58775 15.61 7.2933C11.881 9.77813 8.75584 13.0665 6.46394 16.9171L4.62927 15.8291Z" fill="white"/>
<path d="M8.65455 12.0474C8.43446 11.863 8.1492 11.7753 7.86352 11.8043C7.57783 11.8332 7.31595 11.9763 7.13733 12.2011C6.22622 13.3569 5.38855 14.5686 4.62927 15.8293L6.46394 16.9173C7.17326 15.7411 7.95511 14.6103 8.80495 13.5313C9.1616 13.0766 9.09518 12.4213 8.65455 12.0474Z" fill="#428DFF"/>
<path d="M23.9377 3.44765L23.3581 1.39453C20.1856 2.29773 17.1728 3.68871 14.4277 5.51762C14.124 5.72509 13.8098 5.91762 13.5183 6.14248C13.2842 6.30713 13.1268 6.5597 13.0821 6.84245C13.0375 7.12521 13.1095 7.41398 13.2815 7.64274C13.6329 8.10386 14.285 8.20675 14.7613 7.87624C15.0329 7.66578 15.3266 7.48712 15.61 7.2933C18.1699 5.58775 20.9794 4.29039 23.9377 3.44765Z" fill="#428DFF"/>
<path d="M10.119 8.95252C9.91422 9.15747 9.79295 9.43118 9.77869 9.72052L9.79853 9.92532C9.81126 9.99601 9.8337 10.0646 9.86519 10.1292C9.88616 10.1935 9.91692 10.2542 9.95639 10.3091C9.99802 10.367 10.0436 10.4219 10.0929 10.4735C10.2979 10.6677 10.5664 10.7811 10.8486 10.7926C10.9862 10.7918 11.1224 10.7648 11.2499 10.7129C11.6327 10.5524 11.8919 10.1895 11.9197 9.77545C11.9212 9.63621 11.8971 9.49787 11.8486 9.36735C11.7117 8.95659 11.336 8.67252 10.9035 8.65268C10.6127 8.6455 10.3308 8.75324 10.119 8.95252Z" fill="#428DFF"/>
<path d="M60.1167 46.0274C59.7528 46.0272 59.4142 45.8415 59.2184 45.5349C59.0226 45.2282 58.9966 44.8429 59.1494 44.5128C60.9529 40.6191 61.8804 36.3772 61.8666 32.0861C61.8698 26.8615 60.4919 21.7289 57.8724 17.2084C57.6809 16.8788 57.6798 16.4721 57.8696 16.1414C58.0593 15.8108 58.411 15.6065 58.7922 15.6055C59.1735 15.6045 59.5262 15.8069 59.7177 16.1366C62.5257 20.9828 64.003 26.4851 64 32.0861C64.0141 36.6867 63.019 41.2345 61.0849 45.4088C60.9103 45.786 60.5324 46.0275 60.1167 46.0274Z" fill="#428DFF"/>
<path d="M32.0853 64.0003C30.4062 64.0017 28.7298 63.8688 27.0719 63.6028C19.5452 62.4093 12.6968 58.5543 7.77177 52.7388C7.47472 52.4322 7.38959 51.9777 7.55552 51.5844C7.72145 51.191 8.10634 50.9348 8.53327 50.9336C8.8502 50.9335 9.15144 51.0715 9.35823 51.3117C13.9565 56.7641 20.3637 60.3792 27.4083 61.496C28.9548 61.7444 30.5189 61.8684 32.0853 61.8669C38.0195 61.8764 43.82 60.1045 48.7359 56.7804C49.2241 56.4505 49.8873 56.5788 50.2172 57.067C50.5471 57.5551 50.4188 58.2183 49.9306 58.5482C44.6621 62.111 38.4454 64.0103 32.0853 64.0003Z" fill="#428DFF"/>
<path d="M2.57063 42.1018C2.1014 42.1013 1.68753 41.7944 1.55079 41.3456C0.639284 38.3434 0.177772 35.2226 0.181294 32.0851C0.182767 27.4315 1.19589 22.8339 3.15047 18.6108L3.22961 18.4401C3.62191 17.4308 4.21035 16.5092 4.96092 15.7286C5.33646 15.3564 5.77868 15.0582 6.2645 14.8495C7.56729 14.2167 9.07955 14.1759 10.4146 14.7375C11.3856 15.2105 12.0895 16.0985 12.3286 17.1518C12.5567 18.5245 12.3556 19.9341 11.7526 21.1882C11.2829 22.0592 11.124 23.0642 11.302 24.0376C11.5891 24.7882 12.4677 25.3603 14.0647 25.8361L14.2585 25.8918C15.8759 26.1702 17.352 26.9865 18.4475 28.2085C19.0241 29.098 19.3934 30.1057 19.5281 31.1571C19.6215 31.8199 19.8144 32.4648 20.1 33.0701C20.8448 34.4055 22.6697 34.9436 24.4744 35.3795C26.6213 35.9013 28.7672 36.432 30.912 36.9716C30.6503 36.6021 30.35 36.2617 30.016 35.956L29.49 35.5389C27.9801 34.3524 26.1013 32.8774 26.1013 30.3464C26.0354 29.0175 26.7257 27.7654 27.8846 27.1117C29.0435 26.4581 30.4722 26.5151 31.5753 27.259C31.7524 27.3428 31.9315 27.4277 32.1148 27.5027C32.1565 27.5209 32.1951 27.5347 32.2294 27.5464C32.0794 26.3293 31.8399 24.3047 33.7998 23.0391C34.777 22.4724 35.847 22.0833 36.96 21.8899C37.4945 21.7771 38.0221 21.6336 38.5401 21.4601C39.9101 20.9062 41.2009 20.1735 42.3787 19.281C42.7068 19.055 42.9849 18.8894 43.2709 18.7201C43.6684 18.5009 44.0466 18.2484 44.4016 17.9654C44.6902 17.7165 45.0896 17.6404 45.4496 17.7658C45.8095 17.8913 46.0751 18.1992 46.1464 18.5736C46.2177 18.948 46.0839 19.332 45.7953 19.581C45.346 19.9478 44.8651 20.2741 44.3583 20.556C44.1161 20.6993 43.8796 20.8383 43.6666 20.9846C42.3163 22.0046 40.8356 22.8394 39.264 23.467C38.6678 23.6696 38.0601 23.8367 37.4441 23.9674C36.573 24.1136 35.7328 24.4057 34.9588 24.8314C34.2395 25.2956 34.1739 25.8824 34.3494 27.3048C34.473 27.9689 34.2797 28.6527 33.8267 29.1538C33.1329 29.788 32.114 29.9144 31.2861 29.469C31.0903 29.3888 30.8762 29.2887 30.6647 29.1888C29.8892 28.8231 29.5601 28.6992 29.1579 28.8674C28.5851 29.1292 28.2223 29.7061 28.2346 30.3358C28.2346 31.8398 29.4841 32.8217 30.807 33.8608L31.3696 34.3066C31.4034 34.3348 33.6368 36.277 33.3925 37.8942C33.3054 38.4675 32.9184 38.9506 32.3779 39.1608C31.914 39.3253 31.4087 39.3315 30.9409 39.1785C28.6164 38.5921 26.2933 38.0167 23.9716 37.4525C21.8086 36.9298 19.4014 36.1962 18.2368 34.1092C17.8379 33.3114 17.5675 32.4555 17.4357 31.5733C17.35 30.8326 17.1099 30.1181 16.7309 29.4759C15.893 28.6627 14.8247 28.1274 13.6716 27.9431L13.4648 27.8837C12.0175 27.453 10.0232 26.6677 9.30759 24.7973C8.91119 23.3456 9.06823 21.7984 9.74823 20.456C10.1779 19.5986 10.3561 18.6371 10.2623 17.6826C10.1763 17.2399 9.89005 16.862 9.48722 16.6593C8.71232 16.3807 7.85698 16.4328 7.12167 16.8035C6.86633 16.912 6.63449 17.0691 6.439 17.266C5.88618 17.8702 5.45332 18.574 5.16348 19.3399L5.08327 19.5124C3.26036 23.4532 2.31568 27.7431 2.31463 32.0851C2.31125 35.0118 2.74145 37.9229 3.59121 40.7236C3.68929 41.047 3.62852 41.3978 3.42736 41.6694C3.2262 41.9409 2.90859 42.1014 2.57063 42.1018Z" fill="#428DFF"/>
<path d="M35.072 14.5879C34.3151 14.5965 33.5736 14.3735 32.947 13.9488C32.3533 13.54 31.9697 12.8905 31.898 12.1733C31.9059 11.0213 32.4804 9.94705 33.434 9.30084C33.8174 9.0048 34.135 8.63235 34.3668 8.20708C34.4556 7.64276 34.178 7.08398 33.6746 6.81391C32.7735 6.3679 31.7462 6.24615 30.7658 6.46916C30.1604 6.53836 29.5509 6.56499 28.9418 6.54884C26.4248 6.42919 24.1192 5.10544 22.747 2.99204C22.5676 2.70809 22.5324 2.35627 22.6518 2.04237C22.7713 1.72846 23.0315 1.48908 23.3543 1.3962C31.5619 -0.933552 40.3603 0.115491 47.7901 4.3097C48.1216 4.49763 48.3277 4.84816 48.3308 5.22925C48.3338 5.61034 48.1333 5.96409 47.8047 6.15725C47.4762 6.35041 47.0696 6.35363 46.738 6.1657C40.314 2.54273 32.7763 1.42564 25.5776 3.0297C26.5477 3.86034 27.7644 4.34818 29.0396 4.41775C29.5505 4.42823 30.0616 4.40403 30.5693 4.34532C32.0164 4.06176 33.5172 4.29628 34.8089 5.00783C36.1686 5.79461 36.8163 7.40754 36.3781 8.9162C36.0482 9.68194 35.5329 10.3535 34.8786 10.8703C34.3453 11.361 33.9979 11.7043 34.0224 11.9813C34.0255 12.0147 34.0338 12.1032 34.1906 12.2159C34.5673 12.4408 35.0162 12.5117 35.4438 12.4138C35.8897 12.2912 36.3241 12.1302 36.7422 11.9325C37.3974 11.615 38.0923 11.3871 38.8083 11.255C40.3913 11.1267 41.9683 11.5665 43.2563 12.4956C43.5844 12.6961 43.7792 13.0576 43.7662 13.4418C43.7532 13.8261 43.5344 14.1736 43.1936 14.3514C42.8527 14.5293 42.4425 14.51 42.1199 14.3008C41.2659 13.6355 40.1991 13.3032 39.1183 13.3659C38.5898 13.4751 38.0772 13.651 37.593 13.8893C37.06 14.1393 36.5052 14.3402 35.9357 14.4893C35.6526 14.5557 35.3628 14.5887 35.072 14.5879Z" fill="#428DFF"/>
<path d="M27.2417 63.6165C27.0555 63.6167 26.8727 63.5678 26.7114 63.4748C26.1713 63.177 25.6478 62.8498 25.1434 62.4947C23.7135 61.5776 22.7906 60.0485 22.6455 58.356C22.6937 57.3685 22.9845 56.408 23.4923 55.5596C23.6478 55.2038 23.7636 54.832 23.8377 54.4508C23.9735 53.5962 24.3301 52.7919 24.8724 52.1175C25.3675 51.6193 25.9574 51.2252 26.6072 50.9586C26.9206 50.8226 27.2196 50.6558 27.5 50.4607C28.1231 49.953 28.6391 49.3267 29.0182 48.618C29.2255 48.2545 29.4119 47.8383 29.6025 47.4159C29.9754 46.4538 30.5055 45.5604 31.1713 44.7721C32.6021 43.2648 34.9686 43.143 37.6666 44.4357C39.5142 45.2668 41.209 46.4026 42.68 47.7957C43.6534 48.7905 44.6081 49.7556 45.607 50.6504C46.0372 51.0453 46.07 51.7127 45.6805 52.1478C45.291 52.5828 44.624 52.6238 44.1842 52.2397C43.1362 51.3011 42.1544 50.3091 41.1571 49.2892C39.8556 48.0767 38.3637 47.0862 36.7411 46.3574C35.889 45.9485 33.7844 45.1158 32.7208 46.2381C32.2273 46.8602 31.8312 47.5538 31.5463 48.295C31.3364 48.7595 31.1187 49.2397 30.8677 49.6804C30.349 50.6362 29.6437 51.4782 28.7937 52.1564C28.3989 52.4421 27.975 52.6852 27.5291 52.8818C27.1325 53.0378 26.7674 53.2645 26.4518 53.551C26.1665 53.9681 25.9818 54.4457 25.9123 54.9463C25.802 55.496 25.6259 56.0304 25.3878 56.538C25.0479 57.086 24.8394 57.7052 24.7786 58.3472C24.9455 59.3491 25.5349 60.2311 26.3969 60.7685C26.8402 61.0784 27.2999 61.3643 27.7739 61.6247C28.1932 61.8654 28.3981 62.3581 28.2733 62.8251C28.1485 63.2922 27.7251 63.617 27.2417 63.6165Z" fill="#428DFF"/>
<path d="M51.2 22.4012C45.898 22.4012 41.6 18.1031 41.6 12.8012C41.6 7.49924 45.898 3.20117 51.2 3.20117C56.5019 3.20117 60.8 7.49924 60.8 12.8012C60.7941 18.1007 56.4995 22.3953 51.2 22.4012ZM51.2 5.33451C47.0762 5.33451 43.7333 8.67745 43.7333 12.8012C43.7333 16.9249 47.0762 20.2678 51.2 20.2678C55.3237 20.2678 58.6666 16.9249 58.6666 12.8012C58.6621 8.67935 55.3218 5.33909 51.2 5.33451Z" fill="#428DFF"/>
<path d="M45.0026 19.7336C44.9123 19.7336 44.8224 19.7222 44.7349 19.6998C44.1648 19.5519 43.8221 18.9701 43.9693 18.3997C44.5969 15.9506 46.4246 13.9873 48.8226 13.1862C49.184 13.0651 49.5825 13.1459 49.8681 13.3983C50.1537 13.6507 50.2829 14.0363 50.2071 14.4098C50.1314 14.7833 49.8621 15.088 49.5007 15.2091C47.7949 15.7928 46.4941 17.1908 46.0346 18.9341C45.9126 19.4044 45.4884 19.733 45.0026 19.7336Z" fill="#428DFF"/>
<path d="M57.3973 19.7344C56.9111 19.7339 56.4867 19.405 56.3649 18.9344C55.9054 17.1911 54.6046 15.793 52.8988 15.2094C52.3402 15.0221 52.0391 14.4175 52.2264 13.8589C52.4136 13.3003 53.0183 12.9992 53.5769 13.1865C55.9749 13.9875 57.8026 15.9508 58.4302 18.4C58.5774 18.9704 58.2348 19.5522 57.6646 19.7001C57.5772 19.7226 57.4874 19.7342 57.3973 19.7344Z" fill="#428DFF"/>
<path d="M51.2 16.0001C48.8436 16.0001 46.9333 14.0899 46.9333 11.7335C46.9333 9.37705 48.8436 7.4668 51.2 7.4668C53.5564 7.4668 55.4667 9.37705 55.4667 11.7335C55.464 14.0888 53.5553 15.9975 51.2 16.0001ZM51.2 9.60013C50.0218 9.60013 49.0667 10.5553 49.0667 11.7335C49.0667 12.9117 50.0218 13.8668 51.2 13.8668C52.3782 13.8668 53.3334 12.9117 53.3334 11.7335C53.3322 10.5557 52.3777 9.60131 51.2 9.60013Z" fill="#428DFF"/>
<path d="M10.6667 53.3328C5.36472 53.3328 1.06665 49.0347 1.06665 43.7328C1.06665 38.4309 5.36472 34.1328 10.6667 34.1328C15.9686 34.1328 20.2667 38.4309 20.2667 43.7328C20.2608 49.0323 15.9661 53.3269 10.6667 53.3328ZM10.6667 36.2661C6.54292 36.2661 3.19998 39.6091 3.19998 43.7328C3.19998 47.8565 6.54292 51.1995 10.6667 51.1995C14.7904 51.1995 18.1333 47.8565 18.1333 43.7328C18.1287 39.611 14.7885 36.2707 10.6667 36.2661Z" fill="#428DFF"/>
<path d="M4.46933 50.6667C4.37906 50.6666 4.28915 50.6553 4.2017 50.6328C3.63195 50.4848 3.28961 49.9034 3.43648 49.3333C4.0641 46.8841 5.89175 44.9208 8.28981 44.1198C8.65117 43.9987 9.04971 44.0795 9.33529 44.3319C9.62087 44.5843 9.75011 44.9698 9.67433 45.3434C9.59855 45.7169 9.32925 46.0216 8.96789 46.1427C7.26192 46.7262 5.96082 48.1243 5.50122 49.8677C5.37907 50.3378 4.955 50.6661 4.46933 50.6667Z" fill="#428DFF"/>
<path d="M16.8639 50.6675C16.378 50.667 15.9536 50.3384 15.8316 49.868C15.3721 48.1247 14.0712 46.7266 12.3655 46.143C11.8069 45.9557 11.5058 45.3511 11.6931 44.7925C11.8803 44.2339 12.4849 43.9328 13.0436 44.1201C15.4416 44.9211 17.2693 46.8844 17.8969 49.3336C18.0441 49.904 17.7014 50.4858 17.1312 50.6337C17.0439 50.656 16.9541 50.6674 16.8639 50.6675Z" fill="#428DFF"/>
<path d="M10.6666 46.9337C8.31015 46.9337 6.3999 45.0235 6.3999 42.6671C6.3999 40.3106 8.31015 38.4004 10.6666 38.4004C13.023 38.4004 14.9332 40.3106 14.9332 42.6671C14.9306 45.0224 13.0219 46.9311 10.6666 46.9337ZM10.6666 40.5337C9.48836 40.5337 8.53324 41.4888 8.53324 42.6671C8.53324 43.8453 9.48836 44.8004 10.6666 44.8004C11.8448 44.8004 12.7999 43.8453 12.7999 42.6671C12.7987 41.4893 11.8443 40.5349 10.6666 40.5337Z" fill="#428DFF"/>
<path d="M53.3333 59.7335C49.4505 59.7335 45.95 57.3945 44.4641 53.8072C42.9782 50.22 43.7995 46.0908 46.5451 43.3453C49.2907 40.5997 53.4198 39.7783 57.0071 41.2642C60.5943 42.7501 62.9333 46.2506 62.9333 50.1335C62.9274 55.433 58.6328 59.7276 53.3333 59.7335ZM53.3333 42.6668C49.2096 42.6668 45.8666 46.0098 45.8666 50.1335C45.8666 54.2572 49.2096 57.6001 53.3333 57.6001C57.457 57.6001 60.8 54.2572 60.8 50.1335C60.7954 46.0117 57.4551 42.6714 53.3333 42.6668Z" fill="#428DFF"/>
<path d="M47.136 57.0679C47.0457 57.0678 46.9558 57.0564 46.8684 57.034C46.2982 56.8862 45.9555 56.3044 46.1027 55.734C46.7303 53.2848 48.558 51.3215 50.9561 50.5204C51.5147 50.3332 52.1193 50.6343 52.3066 51.1929C52.4938 51.7515 52.1928 52.3561 51.6341 52.5434C49.9284 53.127 48.6275 54.5251 48.168 56.2684C48.046 56.7387 47.6219 57.0673 47.136 57.0679Z" fill="#428DFF"/>
<path d="M59.5307 57.0676C59.0447 57.0672 58.6203 56.7385 58.4983 56.2681C58.0388 54.5248 56.738 53.1268 55.0322 52.5431C54.6708 52.422 54.4016 52.1173 54.3258 51.7438C54.25 51.3702 54.3792 50.9847 54.6648 50.7323C54.9504 50.4799 55.3489 50.399 55.7103 50.5202C58.1083 51.3212 59.936 53.2845 60.5636 55.7337C60.7108 56.3041 60.3682 56.8859 59.798 57.0338C59.7106 57.0561 59.6208 57.0675 59.5307 57.0676Z" fill="#428DFF"/>
<path d="M53.3333 53.3341C50.9769 53.3341 49.0667 51.4239 49.0667 49.0674C49.0667 46.711 50.9769 44.8008 53.3333 44.8008C55.6897 44.8008 57.6 46.711 57.6 49.0674C57.5973 51.4228 55.6886 53.3315 53.3333 53.3341ZM53.3333 46.9341C52.1551 46.9341 51.2 47.8892 51.2 49.0674C51.2 50.2457 52.1551 51.2008 53.3333 51.2008C54.5115 51.2008 55.4667 50.2457 55.4667 49.0674C55.4655 47.8897 54.511 46.9353 53.3333 46.9341Z" fill="#428DFF"/>
</g>
<defs>
<clipPath id="clip0_21015_63196">
<rect width="64" height="64" fill="white"/>
</clipPath>
</defs>
</svg>
