<svg width="20" height="20" viewBox="0 0 20 20" fill="none" xmlns="http://www.w3.org/2000/svg">
<g clip-path="url(#clip0_20086_55487)">
<path d="M9.16699 3.33417H3.33366C2.89163 3.33417 2.46771 3.50977 2.15515 3.82233C1.84259 4.13489 1.66699 4.55881 1.66699 5.00084V16.6675C1.66699 17.1095 1.84259 17.5335 2.15515 17.846C2.46771 18.1586 2.89163 18.3342 3.33366 18.3342H15.0003C15.4424 18.3342 15.8663 18.1586 16.1788 17.846C16.4914 17.5335 16.667 17.1095 16.667 16.6675V10.8342M15.417 2.08417C15.7485 1.75265 16.1982 1.56641 16.667 1.56641C17.1358 1.56641 17.5855 1.75265 17.917 2.08417C18.2485 2.41569 18.4348 2.86533 18.4348 3.33417C18.4348 3.80301 18.2485 4.25265 17.917 4.58417L10.0003 12.5008L6.66699 13.3342L7.50033 10.0008L15.417 2.08417Z" stroke="white" stroke-width="1.67" stroke-linecap="round" stroke-linejoin="round"/>
</g>
<defs>
<clipPath id="clip0_20086_55487">
<rect width="20" height="20" fill="white"/>
</clipPath>
</defs>
</svg>
