<svg width="65" height="64" viewBox="0 0 65 64" fill="none" xmlns="http://www.w3.org/2000/svg">
<g id="email (1) 1" clip-path="url(#clip0_21015_61742)">
<g id="Page-1">
<g id="012---Email-Accounts">
<path id="Shape" d="M62.8212 26.1115C62.6369 25.8487 62.4221 25.6088 62.1812 25.3968L50.2452 14.6982L50.2345 14.6875H15.0985L15.0878 14.6982L3.15182 25.3968C2.25441 26.2108 1.73974 27.364 1.73315 28.5755V58.6662C1.73726 61.0209 3.64511 62.9287 5.99982 62.9328H59.3332C61.6879 62.9287 63.5957 61.0209 63.5998 58.6662V28.5755C63.6004 27.6935 63.3285 26.8329 62.8212 26.1115Z" fill="#F0C419"/>
<path id="Shape_2" d="M62.8212 26.1115L37.8185 44.2662L35.1092 46.2288C33.6442 47.2902 31.6689 47.3116 30.1812 46.2822L27.3865 44.3515L2.08521 26.8902C2.32317 26.3181 2.68788 25.8075 3.15187 25.3968L15.0879 14.6982L15.0985 14.6875H50.2345L50.2452 14.6982L62.1812 25.3968C62.4221 25.6088 62.637 25.8487 62.8212 26.1115Z" fill="#A4C2F7"/>
<path id="Shape_3" d="M27.3865 44.352L3.19454 61.8773C2.26471 61.0697 1.73147 59.8982 1.7332 58.6666V28.576C1.73039 27.9956 1.85034 27.4213 2.0852 26.8906L27.3865 44.352Z" fill="#E8EDFC"/>
<path id="Shape_4" d="M62.1386 61.8782C61.3627 62.5593 60.3656 62.9346 59.3333 62.9342H5.99991C4.96759 62.9346 3.97042 62.5593 3.19458 61.8782L27.3866 44.3529L30.1812 46.2836C31.6689 47.313 33.6442 47.2916 35.1093 46.2302L37.8186 44.2676L62.1386 61.8782Z" fill="#E8EDFC"/>
<path id="Shape_5" d="M63.5999 28.5753V58.666C63.6017 59.8975 63.0684 61.0691 62.1386 61.8767L60.0479 60.362L37.8186 44.266L60.3466 27.914L62.8213 26.1113C63.3286 26.8328 63.6006 27.6934 63.5999 28.5753Z" fill="#CAD9FC"/>
<path id="Shape_6" d="M60.3999 28.5754V58.6661C60.3997 59.2495 60.2799 59.8267 60.0479 60.3621L37.8186 44.2661L60.3466 27.9141C60.3807 28.1329 60.3985 28.3539 60.3999 28.5754Z" fill="#E8EDFC"/>
<path id="Shape_7" d="M50.7997 19.1999C50.8001 24.0093 48.8898 28.6218 45.4891 32.0226C42.0883 35.4233 37.4758 37.3336 32.6664 37.3332C32.1321 37.3354 31.5981 37.3105 31.0664 37.2585C21.709 36.4315 14.5334 28.5937 14.5334 19.1999C14.5334 9.80606 21.709 1.96826 31.0664 1.14121C31.5981 1.08923 32.1321 1.06431 32.6664 1.06654C37.4758 1.06612 42.0883 2.97645 45.4891 6.37721C48.8898 9.77796 50.8001 14.3905 50.7997 19.1999Z" fill="#CAD9FC"/>
<path id="Shape_8" d="M47.5999 19.1993C47.5988 28.585 40.436 36.4188 31.0879 37.258C31.059 37.2597 31.0301 37.2561 31.0025 37.2473C30.7359 37.226 30.4692 37.194 30.2025 37.162C29.3546 37.0536 28.5165 36.8788 27.6959 36.6393C27.4292 36.5646 27.1519 36.4793 26.8959 36.394C26.6505 36.3086 26.4052 36.2233 26.1599 36.1273C26.1192 36.1178 26.0798 36.1035 26.0425 36.0846C25.8185 35.9993 25.6052 35.9033 25.3812 35.8073C25.1679 35.7113 24.9439 35.6153 24.7305 35.5086C24.4425 35.37 24.1545 35.2206 23.8665 35.0606C23.2501 34.7167 22.6553 34.3355 22.0852 33.9193C21.8612 33.7593 21.6265 33.5886 21.4025 33.4073C21.1465 33.2046 20.9012 32.9913 20.6559 32.778C20.3892 32.554 20.1439 32.3193 19.8985 32.074C19.6745 31.85 19.4612 31.626 19.2479 31.3913C19.0345 31.146 18.8212 30.9006 18.6079 30.6446C14.369 25.4433 13.3506 18.3257 15.9608 12.1444C18.5709 5.96304 24.3826 1.72956 31.0665 1.14062C40.4272 1.9611 47.6065 9.80276 47.5999 19.1993Z" fill="#E8EDFC"/>
<path id="Shape_9" d="M46.9919 30.3048C46.8106 30.5394 46.6292 30.7634 46.4372 30.9874C45.0475 32.6168 43.3788 33.9857 41.5092 35.0301C41.3492 35.1261 41.1892 35.2114 41.0186 35.2968C40.8372 35.3928 40.6346 35.4994 40.4319 35.5848C40.1972 35.7021 39.9626 35.8088 39.7279 35.9048C39.4506 36.0221 39.1732 36.1394 38.8959 36.2354C38.5652 36.3634 38.2452 36.4701 37.9146 36.5661C37.9065 36.5672 37.899 36.571 37.8932 36.5768C37.6052 36.6621 37.3172 36.7368 37.0292 36.8114C36.9119 36.8328 36.7839 36.8648 36.6666 36.8968C36.4959 36.9288 36.3146 36.9714 36.1332 37.0034C35.9092 37.0461 35.6852 37.0888 35.4506 37.1208C35.4292 37.1208 35.3972 37.1314 35.3759 37.1314C35.1412 37.1741 34.8959 37.1954 34.6506 37.2168C34.3412 37.2594 34.0319 37.2808 33.7226 37.3021C33.3706 37.3234 33.0186 37.3341 32.6666 37.3341C32.1394 37.3361 31.6125 37.3112 31.0879 37.2594C36.8631 36.7481 42.0433 33.4996 45.0186 28.5234C45.7209 29.0658 46.3807 29.6614 46.9919 30.3048Z" fill="#E8EDFC"/>
<path id="Shape_10" d="M45.0186 28.5221C42.0433 33.4982 36.8631 36.7468 31.0879 37.2581C31.0591 37.2598 31.0301 37.2562 31.0026 37.2474C30.7359 37.2261 30.4692 37.1941 30.2026 37.1621C29.3546 37.0538 28.5165 36.879 27.6959 36.6394C27.4292 36.5648 27.1519 36.4794 26.8959 36.3941C26.6506 36.3088 26.4052 36.2234 26.1599 36.1274C26.1192 36.118 26.0798 36.1037 26.0426 36.0848C25.8186 35.9994 25.6052 35.9034 25.3812 35.8074C25.1679 35.7114 24.9439 35.6154 24.7306 35.5088C24.4426 35.3701 24.1546 35.2208 23.8666 35.0608C23.2502 34.7168 22.6553 34.3357 22.0852 33.9194C21.8612 33.7594 21.6266 33.5888 21.4026 33.4074C21.1466 33.2048 20.9012 32.9914 20.6559 32.7781C20.3892 32.5541 20.1439 32.3194 19.8986 32.0741C19.6746 31.8501 19.4612 31.6261 19.2479 31.3914C19.0346 31.1461 18.8212 30.9008 18.6079 30.6448C22.1632 26.6335 27.3082 24.3967 32.6666 24.5328C37.1191 24.4101 41.479 25.8182 45.0186 28.5221Z" fill="white"/>
<path id="Oval" d="M32.6666 20.2673C36.7903 20.2673 40.1333 16.9244 40.1333 12.8007C40.1333 8.67693 36.7903 5.33398 32.6666 5.33398C28.5429 5.33398 25.2 8.67693 25.2 12.8007C25.2 16.9244 28.5429 20.2673 32.6666 20.2673Z" fill="white"/>
<path id="Shape_11" d="M5.99982 62.9332H9.19982C6.84511 62.9291 4.93726 61.0213 4.93315 58.6665V28.5759C4.93974 27.3643 5.45441 26.2112 6.35182 25.3972L18.2878 14.6985L18.2985 14.6879H18.3173C20.2191 7.25844 26.5954 1.8332 34.2335 1.14569C33.716 1.10121 33.1956 1.06654 32.6665 1.06654C32.1322 1.06431 31.5982 1.08923 31.0665 1.14121C23.4147 1.81628 17.0218 7.24621 15.1173 14.6879H15.0985L15.0878 14.6985L3.15182 25.3972C2.25441 26.2112 1.73974 27.3643 1.73315 28.5759V58.6665C1.73726 61.0213 3.64511 62.9291 5.99982 62.9332Z" fill="white"/>
<path id="Shape_12" d="M0.666504 58.6668V44.8002V28.5762H2.79984V44.8002V58.6668H0.666504Z" fill="white"/>
<g id="Group">
<path id="Shape_13" d="M1.73317 53.334C1.14477 53.3357 0.668203 53.8123 0.666504 54.4007V58.6673H2.79984V54.4007C2.79814 53.8123 2.32157 53.3357 1.73317 53.334Z" fill="#428DFF"/>
<path id="Shape_14" d="M2.79984 28.5762H0.666504V45.8668C0.666504 46.4559 1.14407 46.9335 1.73317 46.9335C2.32227 46.9335 2.79984 46.4559 2.79984 45.8668V28.5762Z" fill="#428DFF"/>
<path id="Shape_15" d="M0.666504 50.1331C0.670727 50.4154 0.781173 50.6858 0.975837 50.8904L1.13584 51.0184C1.19531 51.0588 1.25987 51.091 1.32784 51.1144C1.38827 51.1452 1.453 51.1668 1.51984 51.1784C1.59037 51.1904 1.66165 51.1975 1.73317 51.1997C2.01559 51.1958 2.28609 51.0853 2.4905 50.8904C2.89312 50.4658 2.89312 49.8004 2.4905 49.3757C2.38847 49.2794 2.269 49.2034 2.1385 49.1517C2.01027 49.0971 1.87256 49.0681 1.73317 49.0664C1.45083 49.0707 1.18047 49.1812 0.975837 49.3757C0.781263 49.5804 0.670831 49.8507 0.666504 50.1331Z" fill="#428DFF"/>
<path id="Shape_16" d="M59.3332 63.9997H5.99984C3.05576 63.9963 0.669972 61.6105 0.666504 58.6664C0.666504 58.0773 1.14407 57.5997 1.73317 57.5997C2.32227 57.5997 2.79984 58.0773 2.79984 58.6664C2.80178 60.4329 4.23333 61.8645 5.99984 61.8664H59.3332C61.0997 61.8645 62.5312 60.4329 62.5332 58.6664V28.5757C62.5338 27.6663 62.1472 26.7996 61.4701 26.1925L49.5332 15.4924L50.2345 14.6877L50.9886 13.9336L62.8926 24.6028C64.0218 25.6148 64.6668 27.0595 64.6665 28.5757V58.6664C64.663 61.6105 62.2773 63.9963 59.3332 63.9997Z" fill="#428DFF"/>
<path id="Shape_17" d="M1.73317 29.6423C1.14407 29.6423 0.666504 29.1647 0.666504 28.5756C0.66606 27.0589 1.31138 25.6138 2.44101 24.6018L14.3758 13.9038C14.8066 13.5167 15.4669 13.5413 15.8676 13.9595C16.2667 14.3756 16.2599 15.0344 15.8524 15.4422L15.8418 15.4529L3.86394 26.1913C3.1863 26.7986 2.79931 27.6657 2.79984 28.5756C2.79984 28.8585 2.68746 29.1298 2.48742 29.3299C2.28738 29.5299 2.01607 29.6423 1.73317 29.6423Z" fill="#428DFF"/>
<path id="Shape_18" d="M32.604 48.1048C31.5219 48.1058 30.4652 47.777 29.5747 47.1622L1.47955 27.7684C1.01168 27.4279 0.900689 26.7764 1.2294 26.3001C1.55811 25.8239 2.20661 25.6966 2.69097 26.0132L30.7863 45.4069C31.904 46.1768 33.3854 46.159 34.4842 45.3627L62.1946 25.2492C62.6714 24.9159 63.3273 25.026 63.669 25.4967C64.0107 25.9674 63.9123 26.6252 63.4478 26.9752L35.7374 47.0887C34.8265 47.7499 33.7296 48.1056 32.604 48.1048Z" fill="#428DFF"/>
<path id="Shape_19" d="M62.1373 62.943C61.913 62.9432 61.6944 62.8722 61.5129 62.7404L37.1929 45.1297C36.8817 44.9072 36.7134 44.535 36.752 44.1544C36.7906 43.7738 37.0301 43.4429 37.3797 43.2874C37.7292 43.1319 38.1353 43.1755 38.4439 43.4017L62.7639 61.0124C63.1386 61.2837 63.2957 61.7656 63.1529 62.2056C63.0101 62.6457 62.5999 62.9435 62.1373 62.943Z" fill="#428DFF"/>
<path id="Shape_20" d="M3.19571 62.9436C2.73308 62.9441 2.3229 62.6463 2.18009 62.2062C2.03729 61.7662 2.19442 61.2843 2.56915 61.013L26.7611 43.4876C27.0697 43.2614 27.4758 43.2178 27.8253 43.3734C28.1749 43.5289 28.4144 43.8597 28.453 44.2403C28.4916 44.621 28.3234 44.9931 28.0121 45.2156L3.82013 62.741C3.63866 62.8728 3.42004 62.9438 3.19571 62.9436Z" fill="#428DFF"/>
<path id="Shape_21" d="M32.6666 38.4C22.0627 38.4 13.4666 29.8039 13.4666 19.2C13.4666 8.59613 22.0627 0 32.6666 0C43.2704 0 51.8666 8.59613 51.8666 19.2C51.8548 29.799 43.2655 38.3882 32.6666 38.4ZM32.6666 2.13333C23.2409 2.13333 15.5999 9.77434 15.5999 19.2C15.5999 28.6257 23.2409 36.2667 32.6666 36.2667C42.0922 36.2667 49.7332 28.6257 49.7332 19.2C49.7225 9.7788 42.0878 2.14409 32.6666 2.13333Z" fill="#428DFF"/>
<path id="Shape_22" d="M32.6664 21.3342C27.9536 21.3342 24.1331 17.5137 24.1331 12.8009C24.1331 8.08808 27.9536 4.26758 32.6664 4.26758C37.3792 4.26758 41.1997 8.08808 41.1997 12.8009C41.1943 17.5115 37.377 21.3288 32.6664 21.3342ZM32.6664 6.40091C29.1318 6.40091 26.2664 9.26629 26.2664 12.8009C26.2664 16.3355 29.1318 19.2009 32.6664 19.2009C36.201 19.2009 39.0664 16.3355 39.0664 12.8009C39.0625 9.2679 36.1994 6.40479 32.6664 6.40091Z" fill="#428DFF"/>
<path id="Shape_23" d="M18.6072 31.7116C18.1872 31.7113 17.8065 31.4646 17.6347 31.0814C17.4628 30.6982 17.5318 30.2499 17.8109 29.936C21.57 25.6992 27.0041 23.3326 32.6666 23.4663C38.336 23.2769 43.8209 25.4941 47.7661 29.57C48.1607 29.9989 48.1379 30.6651 47.7149 31.0661C47.292 31.4671 46.6255 31.4544 46.2182 31.0376C42.6721 27.3918 37.7492 25.4163 32.6666 25.5996C27.6147 25.473 22.7633 27.5779 19.4046 31.3538C19.2024 31.5818 18.912 31.7121 18.6072 31.7116Z" fill="#428DFF"/>
</g>
</g>
</g>
</g>
<defs>
<clipPath id="clip0_21015_61742">
<rect width="64" height="64" fill="white" transform="translate(0.666504)"/>
</clipPath>
</defs>
</svg>
