<svg width="64" height="64" viewBox="0 0 64 64" fill="none" xmlns="http://www.w3.org/2000/svg">
<path d="M57.1803 4.19727H60.3278C61.4853 4.20072 62.4227 5.13817 62.4262 6.29563V41.9678C62.4227 43.1252 61.4853 44.0627 60.3278 44.0661H3.67209C2.51463 44.0627 1.57719 43.1252 1.57373 41.9678V6.29563C1.57719 5.13817 2.51463 4.20072 3.67209 4.19727H57.1803Z" fill="#E8EDFC"/>
<path d="M60.3278 4.19727H57.1803C58.3378 4.20072 59.2752 5.13817 59.2787 6.29563V41.9678C59.2752 43.1252 58.3378 44.0627 57.1803 44.0661H60.3278C61.4853 44.0627 62.4227 43.1252 62.4262 41.9678V6.29563C62.4227 5.13817 61.4853 4.20072 60.3278 4.19727Z" fill="#CAD9FC"/>
<path d="M57.1803 2.09801V33.5734H37.2459C34.3487 33.5734 32 35.9221 32 38.8193V6.29473C32 3.3975 34.3487 1.04883 37.2459 1.04883H56.1311C56.7106 1.04883 57.1803 1.51856 57.1803 2.09801Z" fill="#E8EDFC"/>
<path d="M56.1311 1.04883H52.9835C53.563 1.04883 54.0327 1.51856 54.0327 2.09801V33.5734H57.1802V2.09801C57.1802 1.51856 56.7105 1.04883 56.1311 1.04883Z" fill="#CAD9FC"/>
<path d="M31.9999 6.29473V38.8193C31.9999 35.9221 29.6512 33.5734 26.754 33.5734H6.81958V2.09801C6.81958 1.51856 7.28931 1.04883 7.86876 1.04883H26.754C28.1453 1.04883 29.4796 1.60152 30.4634 2.58532C31.4472 3.56911 31.9999 4.90343 31.9999 6.29473Z" fill="#E8EDFC"/>
<path d="M26.754 1.04883H23.6064C24.9977 1.04883 26.3321 1.60152 27.3159 2.58532C28.2997 3.56911 28.8523 4.90343 28.8523 6.29473V34.0172C30.7621 34.8507 31.9976 36.7356 31.9999 38.8193V6.29473C31.9999 4.90343 31.4472 3.56911 30.4634 2.58532C29.4796 1.60152 28.1453 1.04883 26.754 1.04883Z" fill="#CAD9FC"/>
<path d="M31.9999 38.8201H7.86876C7.28931 38.8201 6.81958 38.3504 6.81958 37.7709V33.5742H26.754C29.6512 33.5742 31.9999 35.9229 31.9999 38.8201Z" fill="#A4C2F7"/>
<path d="M57.1803 33.5742V37.7709C57.1803 38.3504 56.7106 38.8201 56.1311 38.8201H32C32 35.9229 34.3487 33.5742 37.2459 33.5742H57.1803Z" fill="#A4C2F7"/>
<path d="M37.2808 24.7285L47.0572 20.9312L56.1721 44.3983L46.3957 48.1956L37.2808 24.7285Z" fill="#CAD9FC"/>
<path d="M47.0661 20.9316L44.3309 21.9934L53.036 44.4018L45.9928 47.1381L46.4052 48.1998L56.1835 44.4018L47.0661 20.9316Z" fill="#A4C2F7"/>
<path d="M46.3951 48.1953L56.1715 44.398L58.0702 49.2862L48.2938 53.0835L46.3951 48.1953Z" fill="#E8EDFC"/>
<path d="M56.1835 44.4004L53.4483 45.4632L54.935 49.2896L47.8918 52.0248L48.3042 53.0876L58.0825 49.2896L56.1835 44.4004Z" fill="#CAD9FC"/>
<path d="M58.9429 60.213L55.0294 61.7343C53.4099 62.3619 51.5881 61.559 50.9586 59.9402L48.3042 53.089L58.0826 49.291L60.737 56.1422C61.0401 56.9198 61.0213 57.7861 60.6847 58.5499C60.3481 59.3136 59.7214 59.912 58.9429 60.213Z" fill="#E8EDFC"/>
<path d="M60.737 56.1422L58.0826 49.291L55.3463 50.3538L57.5895 56.1422C57.8926 56.9198 57.8738 57.7861 57.5372 58.5499C57.2006 59.3136 56.5739 59.912 55.7954 60.213L52.3782 61.5412C53.1889 61.998 54.1612 62.0687 55.0295 61.7343L58.9429 60.213C59.7214 59.912 60.3481 59.3136 60.6847 58.5499C61.0213 57.7861 61.0401 56.9198 60.737 56.1422Z" fill="#CAD9FC"/>
<path d="M42.5232 15.9379L37.2668 17.9838L37.2459 12.4336C37.2439 12.0639 37.4707 11.7314 37.8158 11.5985C38.1608 11.4657 38.5521 11.56 38.7986 11.8356L42.5232 15.9379Z" fill="#A4C2F7"/>
<path d="M47.0662 20.9316L37.2878 24.7296L37.2668 17.9834L42.5232 15.9375L47.0662 20.9316Z" fill="#E8EDFC"/>
<path d="M42.5232 15.9375L40.1982 16.8419L43.9186 20.9316L37.2836 23.5084L37.2878 24.7296L47.0661 20.9316L42.5232 15.9375Z" fill="#CAD9FC"/>
<path d="M4.72127 41.9678V6.29563C4.72473 5.13817 5.66217 4.20072 6.81963 4.19727H3.67209C2.51463 4.20072 1.57719 5.13817 1.57373 6.29563V41.9678C1.57719 43.1252 2.51463 44.0627 3.67209 44.0661H6.81963C5.66217 44.0627 4.72473 43.1252 4.72127 41.9678Z" fill="white"/>
<path d="M0.524536 6.29492H2.6229V14.6884H0.524536V6.29492Z" fill="white"/>
<path d="M1.59472 11.5417C1.01528 11.5446 0.543194 11.0772 0.540297 10.4978C0.537399 9.91834 1.00478 9.44626 1.58423 9.44336H1.59472C2.17417 9.44336 2.6439 9.91309 2.6439 10.4925C2.6439 11.072 2.17417 11.5417 1.59472 11.5417Z" fill="#428DFF"/>
<path d="M60.3278 3.14754H58.2295V2.09836C58.2295 0.939468 57.29 0 56.1311 0H37.2458C35.1346 0.00154445 33.1647 1.06136 31.9999 2.82229C30.8352 1.06136 28.8653 0.00154445 26.754 0H7.8688C6.70991 0 5.77044 0.939468 5.77044 2.09836V3.14754H3.67208C1.93374 3.14754 0.524536 4.55674 0.524536 6.29508C0.524536 6.66992 0.724509 7.01628 1.04913 7.2037C1.37374 7.39112 1.77369 7.39112 2.09831 7.2037C2.42292 7.01628 2.6229 6.66992 2.6229 6.29508C2.6229 5.71564 3.09263 5.2459 3.67208 5.2459H5.77044V37.7705C5.77044 38.9294 6.70991 39.8689 7.8688 39.8689H42.0396L43.2629 43.0164H3.67208C3.09263 43.0164 2.6229 42.5467 2.6229 41.9672V14.6885C2.6229 14.1091 2.15316 13.6393 1.57372 13.6393C0.99427 13.6393 0.524536 14.1091 0.524536 14.6885V41.9672C0.524536 43.7056 1.93374 45.1147 3.67208 45.1147H44.0771L45.4295 48.577C45.3098 48.2696 48.5476 56.6054 49.9881 60.3121C50.8271 62.4724 53.2582 63.5438 55.4187 62.7053L59.3311 61.185C61.491 60.3457 62.5618 57.9147 61.7232 55.7545L57.5842 45.1147H60.3278C62.0662 45.1147 63.4754 43.7056 63.4754 41.9672V6.29508C63.4754 4.55674 62.0662 3.14754 60.3278 3.14754ZM43.7371 38.443C43.2125 37.098 45.5826 43.1937 38.6434 25.3283L46.4671 22.2856L54.8238 43.8022L47.0001 46.8448C46.955 46.7263 43.5409 37.9384 43.7371 38.443ZM38.295 12.8409L40.7249 15.5142L38.3118 16.4585L38.295 12.8409ZM38.3297 23.1984L38.315 18.7027L42.2368 17.1782L45.2616 20.5062L38.3297 23.1984ZM55.5834 45.761L56.7228 48.6988L48.8991 51.7414L47.7597 48.8037L55.5834 45.761ZM53.5081 34.6229H56.1311V37.7705H54.7315L53.5081 34.6229ZM37.2458 2.09836H56.1311V32.5246H52.694L48.043 20.5503C47.9993 20.429 47.9307 20.3182 47.8415 20.225L40.9022 12.5902H45.6393C46.2187 12.5902 46.6885 12.1204 46.6885 11.541C46.6885 10.9615 46.2187 10.4918 45.6393 10.4918H38.1376C37.6213 10.4904 37.1259 10.6953 36.7614 11.061C36.3969 11.4267 36.1936 11.9228 36.1967 12.4391L36.2376 24.7334C36.234 24.8622 36.258 24.9902 36.3079 25.109L39.1879 32.5246H37.2458C35.6951 32.525 34.1997 33.1007 33.0491 34.1403V6.29508C33.0491 3.9773 34.9281 2.09836 37.2458 2.09836ZM7.8688 2.09836H26.754C29.0718 2.09836 30.9508 3.9773 30.9508 6.29508V34.1403C29.8001 33.1007 28.3047 32.525 26.754 32.5246H7.8688V2.09836ZM7.8688 34.6229H26.754C28.6619 34.6301 30.3248 35.9232 30.8018 37.7705H7.8688V34.6229ZM33.1981 37.7705C33.6751 35.9232 35.338 34.6301 37.2458 34.6229H40.002L41.2254 37.7705H33.1981ZM58.5662 59.2346L54.6538 60.7538C54.1347 60.9565 53.5562 60.9443 53.046 60.7199C52.5358 60.4955 52.1359 60.0774 51.9344 59.5578L49.6555 53.6897L57.4793 50.6471L59.7581 56.5151C59.961 57.0338 59.9494 57.6118 59.7258 58.1219C59.5023 58.632 59.0851 59.0323 58.5662 59.2346ZM61.377 41.9672C61.377 42.5467 60.9073 43.0164 60.3278 43.0164H56.769L55.5467 39.8689H56.1311C57.29 39.8689 58.2295 38.9294 58.2295 37.7705V5.2459H60.3278C60.9073 5.2459 61.377 5.71564 61.377 6.29508V41.9672Z" fill="#428DFF"/>
<path d="M12.0655 7.34445H26.7541C27.3335 7.34445 27.8032 6.87472 27.8032 6.29527C27.8032 5.71583 27.3335 5.24609 26.7541 5.24609H12.0655C11.4861 5.24609 11.0164 5.71583 11.0164 6.29527C11.0164 6.87472 11.4861 7.34445 12.0655 7.34445Z" fill="#428DFF"/>
<path d="M12.0655 12.5905H26.7541C27.3335 12.5905 27.8032 12.1208 27.8032 11.5414C27.8032 10.9619 27.3335 10.4922 26.7541 10.4922H12.0655C11.4861 10.4922 11.0164 10.9619 11.0164 11.5414C11.0164 12.1208 11.4861 12.5905 12.0655 12.5905Z" fill="#428DFF"/>
<path d="M12.0655 17.8366H26.7541C27.3335 17.8366 27.8032 17.3669 27.8032 16.7875C27.8032 16.208 27.3335 15.7383 26.7541 15.7383H12.0655C11.4861 15.7383 11.0164 16.208 11.0164 16.7875C11.0164 17.3669 11.4861 17.8366 12.0655 17.8366Z" fill="#428DFF"/>
<path d="M12.0655 23.0827H26.7541C27.3335 23.0827 27.8032 22.613 27.8032 22.0336C27.8032 21.4541 27.3335 20.9844 26.7541 20.9844H12.0655C11.4861 20.9844 11.0164 21.4541 11.0164 22.0336C11.0164 22.613 11.4861 23.0827 12.0655 23.0827Z" fill="#428DFF"/>
<path d="M12.0655 28.3288H26.7541C27.3335 28.3288 27.8032 27.8591 27.8032 27.2796C27.8032 26.7002 27.3335 26.2305 26.7541 26.2305H12.0655C11.4861 26.2305 11.0164 26.7002 11.0164 27.2796C11.0164 27.8591 11.4861 28.3288 12.0655 28.3288Z" fill="#428DFF"/>
<path d="M37.2458 7.34445H51.9344C52.5138 7.34445 52.9835 6.87472 52.9835 6.29527C52.9835 5.71583 52.5138 5.24609 51.9344 5.24609H37.2458C36.6664 5.24609 36.1967 5.71583 36.1967 6.29527C36.1967 6.87472 36.6664 7.34445 37.2458 7.34445Z" fill="#428DFF"/>
</svg>
