<svg width="57" height="59" viewBox="0 0 57 59" fill="none" xmlns="http://www.w3.org/2000/svg">
<g id="fast-time 1" clip-path="url(#clip0_57_30959)">
<g id="Group">
<path id="Vector" d="M5.18563 17.1934H13.8121C14.2639 17.1934 14.6301 16.8065 14.6301 16.3291C14.6301 15.8517 14.2639 15.4648 13.8121 15.4648H5.18563C4.7339 15.4648 4.36768 15.8517 4.36768 16.3291C4.36768 16.8065 4.73379 17.1934 5.18563 17.1934Z" fill="black" fill-opacity="0.6"/>
<path id="Vector_2" d="M13.5162 21.3555H10.1085C9.65675 21.3555 9.29053 21.7423 9.29053 22.2197C9.29053 22.6971 9.65675 23.084 10.1085 23.084H13.5162C13.9679 23.084 14.3342 22.6971 14.3342 22.2197C14.3342 21.7423 13.9679 21.3555 13.5162 21.3555Z" fill="black" fill-opacity="0.6"/>
<path id="Vector_3" d="M1.76425 27.3477H10.1087C10.5605 27.3477 10.9267 26.9608 10.9267 26.4834C10.9267 26.006 10.5605 25.6191 10.1087 25.6191H1.76425C1.31252 25.6191 0.946289 26.006 0.946289 26.4834C0.946289 26.9608 1.31252 27.3477 1.76425 27.3477Z" fill="black" fill-opacity="0.6"/>
<path id="Vector_4" d="M14.6301 42.6689C14.6301 42.1915 14.2639 41.8047 13.8121 41.8047H5.18563C4.7339 41.8047 4.36768 42.1915 4.36768 42.6689C4.36768 43.1464 4.7339 43.5332 5.18563 43.5332H13.8121C14.2639 43.5332 14.6301 43.1464 14.6301 42.6689Z" fill="black" fill-opacity="0.6"/>
<path id="Vector_5" d="M13.5162 35.916H10.1085C9.65675 35.916 9.29053 36.3029 9.29053 36.7803C9.29053 37.2577 9.65675 37.6445 10.1085 37.6445H13.5162C13.9679 37.6445 14.3342 37.2577 14.3342 36.7803C14.3342 36.3029 13.9679 35.916 13.5162 35.916Z" fill="black" fill-opacity="0.6"/>
<path id="Vector_6" d="M10.9267 32.5146C10.9267 32.0372 10.5605 31.6504 10.1087 31.6504H1.76425C1.31252 31.6504 0.946289 32.0372 0.946289 32.5146C0.946289 32.9921 1.31252 33.3789 1.76425 33.3789H10.1087C10.5605 33.3789 10.9267 32.9921 10.9267 32.5146Z" fill="black" fill-opacity="0.6"/>
<path id="Vector_7" d="M35.7945 19.1083C36.2464 19.1083 36.6125 18.7214 36.6125 18.244V16.9248C36.6125 16.4474 36.2464 16.0605 35.7945 16.0605C35.3427 16.0605 34.9766 16.4474 34.9766 16.9248V18.244C34.9766 18.7214 35.3427 19.1083 35.7945 19.1083Z" fill="black" fill-opacity="0.6"/>
<path id="Vector_8" d="M44.7875 19.9972C44.468 19.6598 43.9502 19.6598 43.6307 19.9972L42.7479 20.93C42.4284 21.2677 42.4284 21.8148 42.7479 22.1523C43.0675 22.4898 43.5852 22.4897 43.9047 22.1523L44.7875 21.2195C45.1069 20.882 45.1069 20.3348 44.7875 19.9972Z" fill="black" fill-opacity="0.6"/>
<path id="Vector_9" d="M46.4464 28.6348C45.9945 28.6348 45.6284 29.0216 45.6284 29.499C45.6284 29.9764 45.9945 30.3633 46.4464 30.3633H47.6948C48.1466 30.3633 48.5128 29.9764 48.5128 29.499C48.5128 29.0216 48.1466 28.6348 47.6948 28.6348H46.4464Z" fill="black" fill-opacity="0.6"/>
<path id="Vector_10" d="M43.9047 36.8468C43.5851 36.5094 43.0673 36.5094 42.7479 36.8468C42.4284 37.1844 42.4284 37.7316 42.7479 38.0691L43.6307 39.0019C43.9504 39.3394 44.4681 39.3393 44.7875 39.0019C45.107 38.6643 45.107 38.1172 44.7875 37.7796L43.9047 36.8468Z" fill="black" fill-opacity="0.6"/>
<path id="Vector_11" d="M34.9766 40.7549V42.074C34.9766 42.5514 35.3427 42.9382 35.7945 42.9382C36.2464 42.9382 36.6125 42.5514 36.6125 42.074V40.7549C36.6125 40.2775 36.2464 39.8906 35.7945 39.8906C35.3427 39.8906 34.9766 40.2776 34.9766 40.7549Z" fill="black" fill-opacity="0.6"/>
<path id="Vector_12" d="M27.6839 36.8468L26.8011 37.7796C26.4817 38.1173 26.4817 38.6644 26.8011 39.0019C27.1207 39.3394 27.6385 39.3393 27.9578 39.0019L28.8406 38.0691C29.1601 37.7315 29.1601 37.1843 28.8406 36.8468C28.5213 36.5094 28.0034 36.5094 27.6839 36.8468Z" fill="black" fill-opacity="0.6"/>
<path id="Vector_13" d="M23.8941 28.6348C23.4424 28.6348 23.0762 29.0216 23.0762 29.499C23.0762 29.9764 23.4424 30.3633 23.8941 30.3633H25.1427C25.5944 30.3633 25.9606 29.9764 25.9606 29.499C25.9606 29.0216 25.5944 28.6348 25.1427 28.6348H23.8941Z" fill="black" fill-opacity="0.6"/>
<path id="Vector_14" d="M28.8406 20.93L27.9578 19.9972C27.6384 19.6598 27.1204 19.6598 26.8011 19.9972C26.4817 20.3348 26.4817 20.882 26.8011 21.2195L27.6839 22.1523C28.0035 22.4898 28.5213 22.4897 28.8406 22.1523C29.1601 21.8148 29.1601 21.2677 28.8406 20.93Z" fill="black" fill-opacity="0.6"/>
<path id="Vector_15" d="M40.193 29.4987C40.193 29.0213 39.8268 28.6345 39.375 28.6345H36.6125V22.2178C36.6125 21.7404 36.2464 21.3535 35.7945 21.3535C35.3427 21.3535 34.9766 21.7404 34.9766 22.2178V29.4987C34.9766 29.9761 35.3427 30.363 35.7945 30.363H39.375C39.8267 30.363 40.193 29.9761 40.193 29.4987Z" fill="black" fill-opacity="0.6"/>
<path id="Vector_16" d="M51.3044 29.3561C51.7553 29.3272 52.0987 28.9176 52.0713 28.4412C51.5509 19.3719 44.4013 12.2676 35.7945 12.2676C26.8021 12.2676 19.4863 19.9975 19.4863 29.4989C19.4863 39.0002 26.8021 46.7302 35.7945 46.7302C43.8507 46.7302 50.7249 40.4934 51.9208 32.0773C51.9878 31.6053 51.6801 31.1652 51.2333 31.0943C50.7876 31.0237 50.37 31.3486 50.303 31.8208C49.2287 39.3818 43.0497 45.0018 35.7945 45.0018C27.7042 45.0018 21.1222 38.0472 21.1222 29.499C21.1222 20.9508 27.7042 13.9962 35.7945 13.9962C43.5379 13.9962 49.9702 20.3872 50.4383 28.5461C50.4656 29.0222 50.853 29.3838 51.3044 29.3561Z" fill="black" fill-opacity="0.6"/>
<path id="Vector_17" d="M35.7944 7.32031C32.9173 7.32031 30.0984 7.95099 27.5038 9.13041H13.0719C12.6201 9.13041 12.2539 9.51726 12.2539 9.99467C12.2539 10.4721 12.6201 10.8589 13.0719 10.8589H24.4266C22.8913 11.903 21.478 13.1622 20.2318 14.616C19.9287 14.9697 19.9542 15.5162 20.289 15.8367C20.6239 16.1572 21.141 16.1301 21.4444 15.7763C25.1091 11.5009 30.3395 9.04883 35.7944 9.04883C46.4669 9.04883 55.1497 18.223 55.1497 29.4996C55.1497 40.7761 46.4671 49.9504 35.7944 49.9504C25.1219 49.9504 16.4392 40.7762 16.4392 29.4996C16.4392 25.5507 17.5068 21.718 19.5264 18.4157C19.7716 18.0148 19.6628 17.4798 19.2833 17.2208C18.9039 16.9619 18.3977 17.0766 18.1524 17.4776C15.9613 21.0601 14.8033 25.2171 14.8033 29.4996C14.8033 37.3086 18.6429 44.1871 24.4318 48.1403H13.072C12.6202 48.1403 12.254 48.5271 12.254 49.0045C12.254 49.4819 12.6202 49.8688 13.072 49.8688H27.4926C30.0403 51.0325 32.8472 51.6789 35.7945 51.6789C47.369 51.6789 56.7857 41.7293 56.7857 29.4996C56.7857 17.2699 47.369 7.32031 35.7944 7.32031Z" fill="black" fill-opacity="0.6"/>
</g>
</g>
<defs>
<clipPath id="clip0_57_30959">
<rect width="55.8393" height="59" fill="white" transform="translate(0.946289)"/>
</clipPath>
</defs>
</svg>
