<svg width="206" height="127" viewBox="0 0 206 127" fill="none" xmlns="http://www.w3.org/2000/svg">
<mask id="mask0_20_2086" style="mask-type:luminance" maskUnits="userSpaceOnUse" x="54" y="0" width="100" height="86">
<path fill-rule="evenodd" clip-rule="evenodd" d="M146.75 0.25H61.2501C57.5201 0.25 54.5001 3.27 54.5001 7V79C54.5001 82.729 57.5201 85.75 61.2501 85.75H146.75C150.479 85.75 153.5 82.729 153.5 79V7C153.5 3.27 150.479 0.25 146.75 0.25Z" fill="white"/>
</mask>
<g mask="url(#mask0_20_2086)">
<path fill-rule="evenodd" clip-rule="evenodd" d="M63.5001 9.25H144.5V76.75H63.5001V9.25Z" fill="#0F9D58"/>
<path fill-rule="evenodd" clip-rule="evenodd" d="M86.0001 45.25C86.665 45.25 87.3234 45.1191 87.9376 44.8646C88.5519 44.6102 89.1101 44.2372 89.5802 43.7671C90.0503 43.297 90.4233 42.7388 90.6777 42.1245C90.9322 41.5103 91.0631 40.8519 91.0631 40.187C91.0631 39.5221 90.9322 38.8638 90.6777 38.2495C90.4233 37.6352 90.0503 37.0771 89.5802 36.6069C89.1101 36.1368 88.5519 35.7639 87.9376 35.5094C87.3234 35.255 86.665 35.124 86.0001 35.124C84.6573 35.124 83.3695 35.6574 82.42 36.6069C81.4705 37.5564 80.9371 38.8442 80.9371 40.187C80.9371 41.5298 81.4705 42.8176 82.42 43.7671C83.3695 44.7166 84.6573 45.25 86.0001 45.25ZM127.063 40.187C127.063 41.5298 126.53 42.8176 125.58 43.7671C124.631 44.7166 123.343 45.25 122 45.25C120.657 45.25 119.37 44.7166 118.42 43.7671C117.471 42.8176 116.937 41.5298 116.937 40.187C116.937 38.8442 117.471 37.5564 118.42 36.6069C119.37 35.6574 120.657 35.124 122 35.124C123.343 35.124 124.631 35.6574 125.58 36.6069C126.53 37.5564 127.063 38.8442 127.063 40.187ZM110.75 55.055C110.75 51.5 116.578 48.626 122 48.626C127.422 48.626 133.25 51.5 133.25 55.056V58.751H110.75V55.055ZM74.7501 55.055C74.7501 51.5 80.5781 48.626 86.0001 48.626C91.4231 48.626 97.2501 51.5 97.2501 55.056V58.751H74.7501V55.055Z" fill="#57BB8A"/>
<path fill-rule="evenodd" clip-rule="evenodd" d="M110.75 34.001C110.75 37.731 107.73 40.751 104.006 40.751C103.119 40.7514 102.241 40.5772 101.422 40.2381C100.602 39.8991 99.8575 39.402 99.2302 38.7753C98.6028 38.1485 98.105 37.4042 97.7653 36.5851C97.4256 35.7659 97.2505 34.8879 97.2501 34.001C97.2517 32.2103 97.9642 30.4934 99.231 29.2277C100.498 27.962 102.215 27.251 104.006 27.251C107.729 27.251 110.75 30.277 110.75 34.001ZM88.2501 54.251C88.2501 49.278 96.4061 45.251 104 45.251C111.594 45.251 119.75 49.278 119.75 54.251V58.751H88.2501V54.251Z" fill="#F7F7F7"/>
<path fill-rule="evenodd" clip-rule="evenodd" d="M113 72.251H133.25V76.751H113V72.251Z" fill="#F1F1F1"/>
<path fill-rule="evenodd" clip-rule="evenodd" d="M61.2501 0.25H146.75C150.479 0.25 153.5 3.27 153.5 7V79C153.5 82.729 150.479 85.75 146.75 85.75H61.2501C57.5201 85.75 54.5001 82.729 54.5001 79V7C54.5001 3.27 57.5201 0.25 61.2501 0.25ZM63.5001 76.75H144.5V9.25H63.5001V76.75Z" fill="#F4B400"/>
<path opacity="0.2" fill-rule="evenodd" clip-rule="evenodd" d="M146.75 0.250024H61.2501C57.5201 0.250024 54.5001 3.27002 54.5001 7.00002V7.56202C54.5001 3.83202 57.5201 0.812024 61.2501 0.812024H146.75C150.479 0.812024 153.5 3.83202 153.5 7.56202V6.99902C153.5 3.27002 150.479 0.249023 146.75 0.249023V0.250024Z" fill="white"/>
<path opacity="0.2" fill-rule="evenodd" clip-rule="evenodd" d="M146.75 85.188H61.2501C57.5201 85.188 54.5001 82.167 54.5001 78.438V79C54.5001 82.73 57.5201 85.75 61.2501 85.75H146.75C150.479 85.75 153.5 82.73 153.5 79V78.437C153.5 82.167 150.479 85.187 146.75 85.187V85.188Z" fill="#BF360C"/>
<path fill-rule="evenodd" clip-rule="evenodd" d="M133.216 76.75H112.966L121.961 85.75H142.199L133.216 76.75Z" fill="url(#paint0_linear_20_2086)"/>
<path opacity="0.2" fill-rule="evenodd" clip-rule="evenodd" d="M63.5001 8.68701H144.5V9.25001H63.5001V8.68701Z" fill="#263238"/>
</g>
<mask id="mask1_20_2086" style="mask-type:luminance" maskUnits="userSpaceOnUse" x="54" y="0" width="100" height="86">
<path fill-rule="evenodd" clip-rule="evenodd" d="M146.75 0.25H61.2501C57.5201 0.25 54.5001 3.27 54.5001 7V79C54.5001 82.729 57.5201 85.75 61.2501 85.75H146.75C150.479 85.75 153.5 82.729 153.5 79V7C153.5 3.27 150.479 0.25 146.75 0.25Z" fill="white"/>
</mask>
<g mask="url(#mask1_20_2086)">
<path opacity="0.2" fill-rule="evenodd" clip-rule="evenodd" d="M63.5001 76.75H144.5V77.313H63.5001V76.75Z" fill="white"/>
</g>
<path fill-rule="evenodd" clip-rule="evenodd" d="M146.75 0.25H61.2501C57.5201 0.25 54.5001 3.27 54.5001 7V79C54.5001 82.729 57.5201 85.75 61.2501 85.75H146.75C150.479 85.75 153.5 82.729 153.5 79V7C153.5 3.27 150.479 0.25 146.75 0.25Z" fill="url(#paint1_radial_20_2086)"/>
<path d="M96.9501 121.4C95.6341 121.4 94.4091 121.167 93.2751 120.7C92.1781 120.23 91.1778 119.56 90.3251 118.725C89.4881 117.869 88.8258 116.859 88.3751 115.75C87.9035 114.574 87.6657 113.317 87.6751 112.05C87.6751 110.717 87.9091 109.483 88.3751 108.35C88.8221 107.247 89.485 106.244 90.3251 105.4C91.169 104.554 92.1715 103.883 93.2751 103.425C94.4091 102.942 95.6341 102.7 96.9501 102.7C98.3171 102.7 99.5501 102.958 100.65 103.475C101.75 103.975 102.7 104.692 103.5 105.625L101.975 107.1C100.659 105.517 98.9841 104.725 96.9501 104.725C95.6671 104.725 94.4841 105.025 93.4001 105.625C92.3183 106.223 91.4196 107.105 90.8001 108.175C90.1501 109.258 89.8251 110.55 89.8251 112.05C89.8251 113.533 90.1501 114.825 90.8001 115.925C91.4196 116.995 92.3183 117.876 93.4001 118.475C94.4841 119.075 95.6671 119.375 96.9501 119.375C98.1171 119.375 99.1501 119.133 100.05 118.65C100.975 118.16 101.798 117.498 102.475 116.7L104.025 118.2C103.242 119.133 102.242 119.9 101.025 120.5C99.8091 121.1 98.4501 121.4 96.9501 121.4ZM106.412 121V103.1H108.537V121H106.412ZM115.638 121.4C114.688 121.4 113.855 121.217 113.138 120.85C112.449 120.508 111.863 119.991 111.438 119.35C111.038 118.7 110.838 117.967 110.838 117.15C110.838 116.217 111.08 115.433 111.563 114.8C112.046 114.15 112.696 113.667 113.513 113.35C114.33 113.017 115.23 112.85 116.213 112.85C117.063 112.85 117.813 112.942 118.463 113.125C119.113 113.308 119.58 113.492 119.863 113.675V112.9C119.863 111.933 119.521 111.167 118.838 110.6C118.155 110.033 117.321 109.75 116.338 109.75C115.638 109.75 114.98 109.908 114.363 110.225C113.763 110.525 113.288 110.95 112.938 111.5L111.338 110.3C111.838 109.55 112.521 108.958 113.388 108.525C114.271 108.075 115.255 107.85 116.338 107.85C118.071 107.85 119.43 108.308 120.413 109.225C121.396 110.142 121.888 111.375 121.888 112.925V121H119.863V119.175H119.763C119.43 119.742 118.905 120.258 118.188 120.725C117.471 121.175 116.621 121.4 115.638 121.4ZM115.838 119.525C116.571 119.525 117.238 119.342 117.838 118.975C118.447 118.616 118.954 118.109 119.313 117.5C119.68 116.883 119.863 116.208 119.863 115.475C119.48 115.208 118.996 114.992 118.413 114.825C117.803 114.652 117.172 114.568 116.538 114.575C115.321 114.575 114.43 114.825 113.863 115.325C113.296 115.825 113.013 116.442 113.013 117.175C113.013 117.875 113.28 118.442 113.813 118.875C114.346 119.308 115.021 119.525 115.838 119.525ZM129.172 121.4C127.739 121.4 126.572 121.067 125.672 120.4C124.772 119.717 124.147 118.908 123.797 117.975L125.697 117.125C126.03 117.892 126.505 118.483 127.122 118.9C127.728 119.308 128.442 119.526 129.172 119.525C129.922 119.525 130.589 119.367 131.172 119.05C131.772 118.733 132.072 118.267 132.072 117.65C132.072 117.083 131.822 116.642 131.322 116.325C130.839 116.008 130.155 115.742 129.272 115.525L127.722 115.125C127.122 114.958 126.555 114.725 126.022 114.425C125.509 114.143 125.065 113.75 124.722 113.275C124.405 112.792 124.247 112.208 124.247 111.525C124.247 110.758 124.472 110.1 124.922 109.55C125.372 109 125.964 108.583 126.697 108.3C127.43 108 128.214 107.85 129.047 107.85C130.13 107.85 131.114 108.092 131.997 108.575C132.897 109.042 133.53 109.717 133.897 110.6L132.047 111.45C131.73 110.817 131.305 110.375 130.772 110.125C130.224 109.872 129.626 109.744 129.022 109.75C128.382 109.743 127.752 109.907 127.197 110.225C126.664 110.525 126.397 110.942 126.397 111.475C126.397 112.008 126.605 112.408 127.022 112.675C127.455 112.942 127.98 113.158 128.597 113.325L130.447 113.8C132.964 114.45 134.222 115.683 134.222 117.5C134.222 118.3 133.997 118.992 133.547 119.575C133.097 120.158 132.489 120.608 131.722 120.925C130.955 121.242 130.105 121.4 129.172 121.4ZM140.989 121.4C139.555 121.4 138.389 121.067 137.489 120.4C136.589 119.717 135.964 118.908 135.614 117.975L137.514 117.125C137.847 117.892 138.322 118.483 138.939 118.9C139.545 119.308 140.259 119.526 140.989 119.525C141.739 119.525 142.405 119.367 142.989 119.05C143.589 118.733 143.889 118.267 143.889 117.65C143.889 117.083 143.639 116.642 143.139 116.325C142.655 116.008 141.972 115.742 141.089 115.525L139.539 115.125C138.939 114.958 138.372 114.725 137.839 114.425C137.326 114.143 136.882 113.75 136.539 113.275C136.222 112.792 136.064 112.208 136.064 111.525C136.064 110.758 136.289 110.1 136.739 109.55C137.189 109 137.78 108.583 138.514 108.3C139.247 108 140.03 107.85 140.864 107.85C141.947 107.85 142.93 108.092 143.814 108.575C144.714 109.042 145.347 109.717 145.714 110.6L143.864 111.45C143.547 110.817 143.122 110.375 142.589 110.125C142.041 109.872 141.443 109.744 140.839 109.75C140.199 109.743 139.569 109.907 139.014 110.225C138.48 110.525 138.214 110.942 138.214 111.475C138.214 112.008 138.422 112.408 138.839 112.675C139.272 112.942 139.797 113.158 140.414 113.325L142.264 113.8C144.78 114.45 146.039 115.683 146.039 117.5C146.039 118.3 145.814 118.992 145.364 119.575C144.914 120.158 144.305 120.608 143.539 120.925C142.772 121.242 141.922 121.4 140.989 121.4ZM148.233 121V108.25H150.258V110.3H150.358C150.525 109.817 150.8 109.4 151.183 109.05C151.583 108.683 152.033 108.4 152.533 108.2C153.015 107.991 153.533 107.88 154.058 107.875C154.441 107.875 154.741 107.9 154.958 107.95C155.175 107.983 155.375 108.042 155.558 108.125V110.425C155.025 110.158 154.425 110.025 153.758 110.025C153.141 110.025 152.575 110.2 152.058 110.55C151.541 110.9 151.125 111.367 150.808 111.95C150.508 112.533 150.358 113.175 150.358 113.875V121H148.233ZM162.726 121.4C161.443 121.4 160.309 121.1 159.326 120.5C158.352 119.909 157.55 119.073 157.001 118.075C156.451 117.042 156.176 115.892 156.176 114.625C156.176 113.358 156.451 112.217 157.001 111.2C157.545 110.191 158.347 109.346 159.326 108.75C160.309 108.15 161.443 107.85 162.726 107.85C164.009 107.85 165.143 108.158 166.126 108.775C167.109 109.375 167.876 110.192 168.426 111.225C168.993 112.242 169.276 113.375 169.276 114.625C169.276 115.892 168.993 117.042 168.426 118.075C167.891 119.075 167.097 119.913 166.126 120.5C165.143 121.1 164.009 121.4 162.726 121.4ZM162.726 119.475C163.493 119.475 164.209 119.283 164.876 118.9C165.566 118.51 166.136 117.94 166.526 117.25C166.943 116.517 167.151 115.642 167.151 114.625C167.151 113.608 166.943 112.742 166.526 112.025C166.109 111.292 165.559 110.733 164.876 110.35C164.223 109.97 163.481 109.772 162.726 109.775C161.959 109.775 161.234 109.967 160.551 110.35C159.868 110.733 159.318 111.292 158.901 112.025C158.484 112.742 158.276 113.608 158.276 114.625C158.276 115.642 158.484 116.517 158.901 117.25C159.291 117.94 159.861 118.51 160.551 118.9C161.214 119.278 161.963 119.476 162.726 119.475ZM177.619 121.4C176.335 121.4 175.202 121.1 174.219 120.5C173.245 119.91 172.443 119.073 171.894 118.075C171.344 117.042 171.069 115.892 171.069 114.625C171.069 113.358 171.344 112.217 171.894 111.2C172.437 110.191 173.24 109.345 174.219 108.75C175.202 108.15 176.335 107.85 177.619 107.85C178.902 107.85 180.035 108.158 181.019 108.775C182.002 109.375 182.769 110.192 183.319 111.225C183.885 112.242 184.169 113.375 184.169 114.625C184.169 115.892 183.885 117.042 183.319 118.075C182.784 119.075 181.99 119.913 181.019 120.5C180.035 121.1 178.902 121.4 177.619 121.4ZM177.619 119.475C178.385 119.475 179.102 119.283 179.769 118.9C180.459 118.51 181.029 117.94 181.419 117.25C181.835 116.517 182.044 115.642 182.044 114.625C182.044 113.608 181.835 112.742 181.419 112.025C181.002 111.292 180.452 110.733 179.769 110.35C179.116 109.97 178.374 109.772 177.619 109.775C176.852 109.775 176.127 109.967 175.444 110.35C174.76 110.733 174.21 111.292 173.794 112.025C173.377 112.742 173.169 113.608 173.169 114.625C173.169 115.642 173.377 116.517 173.794 117.25C174.183 117.94 174.754 118.511 175.444 118.9C176.107 119.278 176.856 119.476 177.619 119.475ZM186.392 121V108.25H188.417V110.125H188.517C188.867 109.492 189.409 108.958 190.142 108.525C190.846 108.083 191.661 107.849 192.492 107.85C193.442 107.85 194.259 108.083 194.942 108.55C195.605 108.975 196.12 109.595 196.417 110.325C196.854 109.605 197.453 108.997 198.167 108.55C198.9 108.083 199.775 107.85 200.792 107.85C202.309 107.85 203.425 108.308 204.142 109.225C204.859 110.142 205.217 111.342 205.217 112.825V121H203.117V113.15C203.117 111.917 202.867 111.05 202.367 110.55C201.867 110.033 201.159 109.775 200.242 109.775C199.592 109.775 199.009 109.967 198.492 110.35C197.992 110.717 197.592 111.208 197.292 111.825C197.005 112.443 196.86 113.118 196.867 113.8V121H194.742V113.175C194.742 111.942 194.492 111.067 193.992 110.55C193.492 110.033 192.792 109.775 191.892 109.775C191.242 109.775 190.659 109.967 190.142 110.35C189.642 110.733 189.242 111.233 188.942 111.85C188.657 112.478 188.512 113.16 188.517 113.85V121H186.392Z" fill="#5F6368"/>
<path fill-rule="evenodd" clip-rule="evenodd" d="M5.20913 119.65C6.84513 120.585 8.58212 121.053 10.4191 121.053C13.1891 121.053 15.4851 120.185 17.3051 118.448C19.1081 116.728 20.0101 114.45 20.0101 111.611C20.0101 110.943 19.9601 110.359 19.8601 109.858H10.4181V112.663H17.1301C16.9131 114.433 16.1781 115.81 14.9261 116.795C13.7071 117.764 12.2041 118.248 10.4181 118.248C8.34813 118.248 6.60313 117.522 5.18412 116.069C3.76412 114.633 3.05512 112.872 3.05512 110.785C3.05512 108.698 3.76512 106.937 5.18412 105.501C6.60413 104.048 8.34813 103.322 10.4181 103.322C12.3551 103.322 14.0411 103.99 15.4771 105.325L17.4551 103.347C15.4691 101.46 13.1231 100.517 10.4181 100.517C8.58212 100.517 6.84513 100.985 5.20913 101.92C3.61522 102.813 2.29143 104.118 1.37712 105.7C0.467009 107.239 -0.00886129 108.997 0.000124952 110.785C0.000124952 112.621 0.460125 114.325 1.37712 115.894C2.29612 117.48 3.57312 118.732 5.20913 119.65ZM67.5421 101.218H64.6371V120.652H67.5421V101.218ZM56.3481 126.988C55.7024 126.991 55.06 126.894 54.4441 126.7C53.854 126.513 53.2934 126.244 52.7791 125.899C52.2731 125.56 51.8213 125.146 51.4391 124.671C51.0503 124.187 50.7299 123.652 50.4871 123.081L53.0171 122.029C53.3171 122.731 53.7601 123.299 54.3441 123.732C54.9221 124.164 55.6266 124.393 56.3481 124.383C58.7021 124.383 59.8781 122.998 59.8781 120.226V119.55H59.7781C58.9441 120.552 57.7831 121.053 56.2981 121.053C54.6111 121.053 53.1251 120.41 51.8401 119.124C50.5881 117.822 49.9611 116.269 49.9611 114.466C49.9611 112.646 50.5881 111.086 51.8401 109.783C53.1091 108.481 54.5941 107.83 56.2971 107.83C57.7831 107.83 58.9441 108.322 59.7791 109.307H59.8791V108.23H62.6341V120.101C62.6341 122.305 62.0781 124.004 60.9681 125.197C59.8581 126.391 58.3181 126.988 56.3481 126.988ZM53.9181 117.296C53.2181 116.528 52.8671 115.585 52.8671 114.466C52.8671 113.331 53.2261 112.379 53.9441 111.611C54.6781 110.826 55.5461 110.434 56.5481 110.434C57.5501 110.434 58.3851 110.818 59.0531 111.586C59.7371 112.371 60.0791 113.331 60.0791 114.466C60.0791 115.585 59.7371 116.536 59.0531 117.321C58.3681 118.072 57.5331 118.448 56.5481 118.448C55.5131 118.448 54.6371 118.064 53.9181 117.296ZM48.7601 114.44C48.7601 116.293 48.1171 117.863 46.8311 119.148C45.5621 120.418 43.9931 121.052 42.1231 121.052C40.2531 121.052 38.6831 120.417 37.4151 119.148C36.1291 117.863 35.4871 116.293 35.4871 114.44C35.4871 112.554 36.1211 110.984 37.3901 109.732C38.6591 108.463 40.2361 107.829 42.1231 107.829C43.9931 107.829 45.5631 108.463 46.8311 109.732C48.1171 110.984 48.7601 112.554 48.7601 114.44ZM39.4691 117.295C38.7511 116.527 38.3921 115.575 38.3921 114.44C38.3921 113.271 38.7511 112.32 39.4691 111.585C40.1871 110.817 41.0711 110.433 42.1231 110.433C43.1751 110.433 44.0601 110.817 44.7781 111.585C45.4961 112.32 45.8551 113.271 45.8551 114.44C45.8551 115.559 45.4881 116.51 44.7531 117.295C44.0351 118.063 43.1581 118.447 42.1231 118.447C41.0721 118.447 40.1871 118.063 39.4691 117.295ZM34.2851 114.44C34.2851 116.293 33.6421 117.863 32.3561 119.148C31.0871 120.418 29.5181 121.052 27.6481 121.052C25.7781 121.052 24.2081 120.417 22.9401 119.148C21.6541 117.863 21.0121 116.293 21.0121 114.44C21.0121 112.554 21.6461 110.984 22.9151 109.732C24.1841 108.463 25.7611 107.829 27.6481 107.829C29.5181 107.829 31.0881 108.463 32.3561 109.732C33.6421 110.984 34.2851 112.554 34.2851 114.44ZM24.9931 117.295C24.2751 116.527 23.9161 115.575 23.9161 114.44C23.9161 113.271 24.2761 112.32 24.9931 111.585C25.7111 110.817 26.5961 110.433 27.6481 110.433C28.7001 110.433 29.5851 110.817 30.3021 111.585C31.0201 112.32 31.3791 113.271 31.3791 114.44C31.3791 115.559 31.0121 116.51 30.2771 117.295C29.5591 118.063 28.6831 118.447 27.6471 118.447C26.5961 118.447 25.7111 118.063 24.9931 117.295ZM75.5061 121.052C73.6361 121.052 72.0761 120.417 70.8231 119.148C69.5711 117.88 68.9451 116.31 68.9451 114.44C68.9451 112.554 69.5381 110.976 70.7231 109.707C71.9251 108.455 73.4111 107.829 75.1811 107.829C75.8311 107.829 76.4501 107.929 77.0341 108.129C77.6181 108.329 78.1521 108.618 78.6371 108.993C79.1211 109.369 79.5511 109.815 79.9271 110.333C80.3061 110.857 80.6131 111.43 80.8401 112.036L81.1411 112.787L72.3011 116.444C72.9851 117.779 74.0541 118.447 75.5061 118.447C76.8591 118.447 77.9441 117.837 78.7621 116.619L81.0161 118.122C79.6801 120.075 77.8441 121.052 75.5061 121.052ZM72.8261 111.485C73.5611 110.75 74.3791 110.383 75.2811 110.383C75.8481 110.383 76.3571 110.513 76.8081 110.771C77.2591 111.031 77.5681 111.368 77.7351 111.786L71.8251 114.24C71.7911 113.121 72.1251 112.203 72.8261 111.485Z" fill="#5F6368"/>
<defs>
<linearGradient id="paint0_linear_20_2086" x1="113.015" y1="76.875" x2="113.015" y2="85.844" gradientUnits="userSpaceOnUse">
<stop stop-color="#BF360C" stop-opacity="0.2"/>
<stop offset="1" stop-color="#BF360C" stop-opacity="0.02"/>
</linearGradient>
<radialGradient id="paint1_radial_20_2086" cx="0" cy="0" r="1" gradientUnits="userSpaceOnUse" gradientTransform="translate(57.8751 2.254) scale(118.241 102.118)">
<stop stop-color="white" stop-opacity="0.1"/>
<stop offset="1" stop-color="white" stop-opacity="0.01"/>
</radialGradient>
</defs>
</svg>
