<svg width="64" height="64" viewBox="0 0 64 64" fill="none" xmlns="http://www.w3.org/2000/svg">
<g clip-path="url(#clip0_21015_62849)">
<path d="M62.9333 32.0017V33.0684C62.9333 33.6575 62.4558 34.135 61.8667 34.135H54.4C53.8109 34.135 53.3333 33.6575 53.3333 33.0684V32.0017C53.3333 20.2196 43.7821 10.6684 32 10.6684C20.2179 10.6684 10.6667 20.2196 10.6667 32.0017V33.0684C10.6667 33.6575 10.1891 34.135 9.59999 34.135H2.13333C1.54422 34.135 1.06666 33.6575 1.06666 33.0684V32.0017C1.0659 31.0324 1.11931 30.0637 1.22666 29.1004C1.33247 28.2565 1.9859 27.5857 2.82666 27.4577L5.81333 26.967C6.48695 23.4103 7.88479 20.03 9.91999 17.0364L8.15999 14.583C7.65429 13.8956 7.66298 12.9569 8.18133 12.279C8.78925 11.5266 9.44105 10.8107 10.1333 10.135C10.814 9.44792 11.5296 8.79639 12.2773 8.18303C12.9552 7.66468 13.8939 7.65599 14.5813 8.16169L17.0347 9.92169C20.0283 7.88649 23.4086 6.48865 26.9653 5.81502L27.456 2.82836C27.5857 1.98654 28.2545 1.33079 29.0987 1.21769C31.0278 1.01858 32.9722 1.01858 34.9013 1.21769C35.7455 1.33079 36.4143 1.98654 36.544 2.82836L37.0347 5.81502C40.5914 6.48865 43.9716 7.88649 46.9653 9.92169L49.4187 8.16169C50.1061 7.65599 51.0447 7.66468 51.7227 8.18303C52.4704 8.79639 53.186 9.44792 53.8667 10.135C54.5589 10.8107 55.2107 11.5266 55.8187 12.279C56.337 12.9569 56.3457 13.8956 55.84 14.583L54.08 17.0364C56.1152 20.03 57.513 23.4103 58.1867 26.967L61.1733 27.4577C62.0141 27.5857 62.6675 28.2565 62.7733 29.1004C62.8807 30.0637 62.9341 31.0324 62.9333 32.0017Z" fill="#A4C2F7"/>
<path d="M62.7733 29.1012C62.6675 28.2573 62.014 27.5865 61.1733 27.4585L58.1866 26.9678C57.513 23.4111 56.1152 20.0309 54.08 17.0372L55.84 14.5838C56.3457 13.8964 56.337 12.9577 55.8186 12.2798C55.2107 11.5274 54.5589 10.8115 53.8666 10.1358C53.186 9.44873 52.4704 8.7972 51.7226 8.18383C51.0447 7.66548 50.106 7.65679 49.4186 8.1625L48.9152 8.52303C49.5139 9.02934 50.0977 9.56694 50.6666 10.1358C51.3589 10.8115 52.0107 11.5274 52.6186 12.2798C53.137 12.9577 53.1457 13.8964 52.64 14.5838L50.88 17.0372C52.9152 20.0309 54.313 23.4111 54.9866 26.9678L57.9733 27.4585C58.814 27.5865 59.4675 28.2573 59.5733 29.1012C59.6806 30.0645 59.7341 31.0332 59.7333 32.0025V33.0692C59.7333 33.6583 59.2557 34.1358 58.6666 34.1358H61.8666C62.4557 34.1358 62.9333 33.6583 62.9333 33.0692V32.0025C62.9341 31.0332 62.8806 30.0645 62.7733 29.1012Z" fill="#7FACFA"/>
<path d="M41.5999 33.0688C41.6031 38.3312 37.369 42.6152 32.1069 42.6738C26.8447 42.7324 22.5163 38.5438 22.4022 33.2826C22.2881 28.0214 26.4309 23.649 31.6906 23.4794C31.8966 23.4652 32.1033 23.4652 32.3093 23.4794C37.4876 23.6425 41.6008 27.8879 41.5999 33.0688Z" fill="#E8EDFC"/>
<path d="M32 23.4688C31.4636 23.4753 30.9285 23.5248 30.4 23.617C35.0153 24.3934 38.3951 28.3892 38.3951 33.0693C38.3951 37.7494 35.0153 41.7452 30.4 42.5216C33.969 43.1253 37.574 41.6689 39.722 38.7555C41.87 35.8421 42.1954 31.9676 40.5633 28.7368C38.9313 25.5059 35.6197 23.4687 32 23.4688Z" fill="#CAD9FC"/>
<path d="M44.8 52.268V59.7346C44.8 61.5019 43.3673 62.9346 41.6 62.9346H22.4C20.6326 62.9346 19.2 61.5019 19.2 59.7346V52.268C19.2 46.966 23.498 42.668 28.8 42.668H35.2C40.5019 42.668 44.8 46.966 44.8 52.268Z" fill="#E8EDFC"/>
<path d="M35.2 42.668H32C37.3019 42.668 41.6 46.966 41.6 52.268V59.7346C41.6 61.5019 40.1673 62.9346 38.4 62.9346H41.6C43.3673 62.9346 44.8 61.5019 44.8 59.7346V52.268C44.8 46.966 40.5019 42.668 35.2 42.668Z" fill="#CAD9FC"/>
<path d="M22.4 33.068C22.3979 35.4314 23.272 37.7116 24.8533 39.468H24.5333C20.1193 39.4715 16.2717 36.4646 15.2084 32.1805C14.1451 27.8964 16.1402 23.4393 20.0437 21.3785C23.9472 19.3177 28.7529 20.1842 31.6907 23.4787C26.5123 23.6417 22.3992 27.8871 22.4 33.068Z" fill="#E8EDFC"/>
<path d="M31.6906 23.4783C29.876 21.4308 27.2692 20.2614 24.5333 20.2676C23.994 20.2709 23.456 20.3194 22.9248 20.4127C25.0764 20.767 27.0412 21.8492 28.4906 23.4783C24.9081 23.5878 21.6857 25.6864 20.1369 28.9188C18.5881 32.1511 18.9714 35.9774 21.1306 38.8383C22.2172 39.2532 23.3703 39.4665 24.5333 39.4676H24.8533C22.361 36.6917 21.7051 32.7222 23.1718 29.292C24.6386 25.8619 27.9618 23.5939 31.6906 23.4783Z" fill="#CAD9FC"/>
<path d="M31.9999 42.6688H28.7999C23.498 42.6688 19.1999 46.9668 19.1999 52.2688V59.7354H14.9333C13.166 59.7354 11.7333 58.3027 11.7333 56.5354V49.0688C11.7333 43.7668 16.0313 39.4688 21.3333 39.4688H24.8533C26.6692 41.5071 29.27 42.6717 31.9999 42.6688Z" fill="#A4C2F7"/>
<path d="M16 52.268V59.7346H19.2V52.268C19.2 46.966 23.4981 42.668 28.8 42.668H25.6C20.2981 42.668 16 46.966 16 52.268Z" fill="#7FACFA"/>
<path d="M24.8533 39.4688H21.6533C23.4692 41.5071 26.0701 42.6717 28.8 42.6688L32 42.6688C29.2701 42.6717 26.6692 41.5071 24.8533 39.4688Z" fill="#7FACFA"/>
<path d="M49.0667 29.8692C49.0667 35.1712 44.7686 39.4692 39.4667 39.4692H39.1467C41.639 36.6933 42.2949 32.7238 40.8281 29.2937C39.3613 25.8635 36.0381 23.5955 32.3093 23.4799C34.9613 20.5131 39.1687 19.49 42.8868 20.9077C46.605 22.3254 49.0631 25.8899 49.0667 29.8692Z" fill="#E8EDFC"/>
<path d="M39.4667 20.2676C38.9331 20.2718 38.4008 20.3204 37.8752 20.4126C42.146 21.134 45.4028 24.6289 45.8216 28.9399C46.2404 33.2508 43.7172 37.3073 39.6651 38.8372C39.5008 39.0548 39.328 39.2649 39.1467 39.4676H39.4667C44.7686 39.4676 49.0667 35.1695 49.0667 29.8676C49.0667 24.5656 44.7686 20.2676 39.4667 20.2676Z" fill="#CAD9FC"/>
<path d="M52.2667 49.0688V56.5354C52.2667 58.3027 50.834 59.7354 49.0667 59.7354H44.8V52.2688C44.8 46.9668 40.5019 42.6688 35.2 42.6688H32C34.7299 42.6717 37.3308 41.5071 39.1467 39.4688H42.6667C47.9686 39.4688 52.2667 43.7668 52.2667 49.0688Z" fill="#A4C2F7"/>
<path d="M42.6667 39.4688H39.4667C44.7686 39.4688 49.0667 43.7668 49.0667 49.0688V56.5354C49.0667 58.3027 47.634 59.7354 45.8667 59.7354H49.0667C50.834 59.7354 52.2667 58.3027 52.2667 56.5354V49.0688C52.2667 43.7668 47.9686 39.4688 42.6667 39.4688Z" fill="#7FACFA"/>
<path d="M2.13333 34.1339H5.33333C4.74422 34.1339 4.26666 33.6563 4.26666 33.0672V32.0005C4.2659 31.0312 4.31931 30.0626 4.42666 29.0992C4.53247 28.2554 5.18591 27.5845 6.02666 27.4565L9.01333 26.9659C9.68695 23.4091 11.0848 20.0289 13.12 17.0352L11.36 14.5819C10.8543 13.8945 10.863 12.9558 11.3813 12.2779C11.9893 11.5254 12.6411 10.8095 13.3333 10.1339C13.9022 9.56499 14.486 9.02739 15.0848 8.52108L14.5813 8.16055C13.8939 7.65484 12.9552 7.66353 12.2773 8.18188C11.5296 8.79525 10.814 9.44678 10.1333 10.1339C9.44105 10.8095 8.78925 11.5254 8.18133 12.2779C7.66298 12.9558 7.65429 13.8945 8.15999 14.5819L9.91999 17.0352C7.88479 20.0289 6.48695 23.4091 5.81333 26.9659L2.82666 27.4565C1.9859 27.5845 1.33247 28.2554 1.22666 29.0992C1.11931 30.0626 1.0659 31.0312 1.06666 32.0005V33.0672C1.06666 33.6563 1.54422 34.1339 2.13333 34.1339Z" fill="white"/>
<path d="M14.9333 59.7335H18.1333C16.366 59.7335 14.9333 58.3008 14.9333 56.5335V49.0668C14.9333 43.7649 19.2313 39.4668 24.5333 39.4668H21.3333C16.0313 39.4668 11.7333 43.7649 11.7333 49.0668V56.5335C11.7333 58.3008 13.166 59.7335 14.9333 59.7335Z" fill="white"/>
<path d="M27.7333 39.4676C27.424 39.4676 27.1178 39.4505 26.816 39.4217C26.6026 39.4014 26.4021 39.3662 26.1973 39.3332C26.1162 39.3204 26.0341 39.3118 25.9541 39.2958C25.6896 39.2468 25.4314 39.1828 25.1754 39.1124L25.1349 39.1017C24.864 39.026 24.6016 38.9364 24.337 38.8372C20.2844 37.3069 17.7614 33.2492 18.1817 28.9377C18.6021 24.6263 21.8614 21.1323 26.1333 20.4137C25.605 20.3203 25.0698 20.2714 24.5333 20.2676C24.2517 20.2676 23.9744 20.2836 23.6992 20.3092C19.2393 20.6965 15.6404 24.1174 15.0277 28.5519C14.415 32.9864 16.9514 37.2551 21.1392 38.8372C21.4005 38.9364 21.6661 39.026 21.937 39.1017L21.9776 39.1124C22.2336 39.1828 22.4917 39.2468 22.7562 39.2958C22.8362 39.3118 22.9184 39.3204 22.9994 39.3332C23.2042 39.3662 23.409 39.4014 23.6181 39.4217C23.92 39.4505 24.2261 39.4676 24.5354 39.4676H27.7354H27.7333Z" fill="white"/>
<path d="M7.78664 18.4609L9.64797 19.5031C8.3095 21.8884 7.36745 24.4753 6.85864 27.1628L4.76477 26.7735C5.31547 23.8573 6.33604 21.0499 7.78664 18.4609Z" fill="white"/>
<path d="M6.96003 23.9165C6.37092 23.9192 5.89121 23.4438 5.88856 22.8547C5.88591 22.2656 6.36132 21.7859 6.95043 21.7832H6.96003C7.54913 21.7832 8.02669 22.2608 8.02669 22.8499C8.02669 23.439 7.54913 23.9165 6.96003 23.9165Z" fill="#428DFF"/>
<path d="M61.3461 26.4052L59.0859 26.0329C58.3944 22.8446 57.1372 19.806 55.3739 17.0612L56.704 15.2073C57.4926 14.1289 57.4691 12.6579 56.6464 11.6052C56.0156 10.8239 55.3389 10.0809 54.6197 9.38013C53.9076 8.65933 53.1577 7.97677 52.3733 7.33533C51.324 6.52699 49.8664 6.51046 48.7989 7.2948L46.9397 8.62707C44.1965 6.86431 41.1598 5.60713 37.9733 4.91507L37.6011 2.65267C37.3942 1.33315 36.3344 0.312588 35.008 0.155598C32.9991 -0.0518661 30.9742 -0.0518661 28.9653 0.155598C27.651 0.324592 26.607 1.34289 26.4053 2.65267L26.0331 4.91293C22.8448 5.60439 19.8062 6.86159 17.0613 8.62493L15.2064 7.29693C14.128 6.5083 12.6569 6.53182 11.6043 7.35453C10.8323 7.98644 10.0938 8.65829 9.392 9.36733C8.66524 10.0755 7.9817 10.8267 7.34507 11.6169C6.53175 12.6681 6.51089 14.1302 7.29387 15.2041L8.64 17.0815C8.34987 17.5369 8.05333 17.9903 7.78667 18.4617C7.64153 18.7104 7.60503 19.0078 7.68572 19.2842C7.76642 19.5605 7.95721 19.7916 8.21333 19.9231C8.727 20.1865 9.35697 20.0024 9.648 19.5039C10.0036 18.8639 10.3876 18.2406 10.8 17.634H10.7925C11.0456 17.2675 11.0418 16.7816 10.7829 16.4191L9.02187 13.9657C8.79845 13.6696 8.79199 13.263 9.00587 12.9599C9.5906 12.2356 10.2178 11.5468 10.8843 10.8969C11.5319 10.2436 12.2119 9.62306 12.9216 9.03773C13.2272 8.8048 13.6507 8.8048 13.9563 9.03773L16.4096 10.7967C16.7724 11.057 17.2589 11.0638 17.6288 10.8137C20.5001 8.85709 23.7449 7.51523 27.1595 6.8724C27.5996 6.78867 27.9405 6.43882 28.0128 5.99667L28.5035 3.01C28.5517 2.64156 28.8347 2.34772 29.2011 2.28573C31.0501 2.09694 32.9136 2.09694 34.7627 2.28573C35.1382 2.33986 35.4328 2.63541 35.4859 3.01107L35.9765 5.99773C36.0488 6.43989 36.3897 6.78973 36.8299 6.87347C40.2449 7.51792 43.4897 8.86161 46.3605 10.8201C46.7305 11.0702 47.217 11.0634 47.5797 10.8031L50.0331 9.042C50.3276 8.81376 50.7373 8.80724 51.0389 9.026C51.7628 9.62046 52.4556 10.2517 53.1147 10.9172C53.7731 11.5597 54.3932 12.2403 54.9717 12.9556C55.1928 13.2611 55.1889 13.6751 54.9621 13.9764L53.2032 16.4297C52.9429 16.7925 52.9361 17.279 53.1861 17.6489C55.1447 20.5198 56.4884 23.7646 57.1328 27.1796C57.2165 27.6197 57.5664 27.9606 58.0085 28.0329L60.9952 28.5236C61.3646 28.5753 61.6555 28.8648 61.7088 29.234C61.8131 30.1526 61.8658 31.0764 61.8667 32.0009V33.0676H54.4V32.0009C54.4 19.6298 44.3712 9.60093 32 9.60093C19.6288 9.60093 9.6 19.6298 9.6 32.0009V33.0676H2.13333V32.0009C2.13265 31.0715 2.18429 30.1427 2.288 29.2191C2.34155 28.851 2.63122 28.5622 2.99947 28.5097L5.98613 28.0191C6.36959 27.9655 6.6939 27.7083 6.83348 27.3472C6.97307 26.9861 6.906 26.5777 6.65825 26.2801C6.4105 25.9826 6.02098 25.8427 5.64053 25.9145L2.65387 26.4052C1.34494 26.6152 0.332089 27.6646 0.168533 28.9801C0.0564837 29.9832 0.000219307 30.9917 0 32.0009V33.0676C0 33.6334 0.224761 34.176 0.624839 34.5761C1.02492 34.9762 1.56754 35.2009 2.13333 35.2009H9.6C10.7782 35.2009 11.7333 34.2458 11.7333 33.0676V32.0009C11.7333 20.808 20.807 11.7343 32 11.7343C43.193 11.7343 52.2667 20.808 52.2667 32.0009V33.0676C52.2667 33.6334 52.4914 34.176 52.8915 34.5761C53.2916 34.9762 53.8342 35.2009 54.4 35.2009H61.8667C63.0449 35.2009 64 34.2458 64 33.0676V32.0009C64.0005 30.9921 63.945 29.9839 63.8336 28.9812C63.6702 27.6646 62.6562 26.6145 61.3461 26.4052Z" fill="#428DFF"/>
<path d="M10.6666 49.0674V56.5341C10.6666 58.8905 12.5769 60.8008 14.9333 60.8008H18.2848C18.7697 62.6788 20.4603 63.9935 22.4 64.0008H41.6C43.5396 63.9935 45.2303 62.6788 45.7152 60.8008H49.0666C51.423 60.8008 53.3333 58.8905 53.3333 56.5341V49.0674C53.3241 44.2158 50.045 39.9803 45.3504 38.756C48.7388 36.5237 50.5654 32.5606 50.0616 28.5343C49.5577 24.508 46.8109 21.1173 42.9768 19.7888C39.1428 18.4603 34.8869 19.4246 32 22.276C29.1122 19.4296 24.8593 18.469 21.0285 19.7978C17.1977 21.1266 14.4532 24.5146 13.9483 28.5377C13.4435 32.5609 15.2659 36.5219 18.6496 38.756C13.9549 39.9803 10.6759 44.2158 10.6666 49.0674ZM41.6 61.8674C40.4218 61.8674 39.4666 60.9123 39.4666 59.7341V52.2674C39.4666 51.6783 38.9891 51.2008 38.4 51.2008C37.8109 51.2008 37.3333 51.6783 37.3333 52.2674V59.7341C37.3377 60.4853 37.5424 61.2217 37.9264 61.8674H26.0736C26.4575 61.2217 26.6622 60.4853 26.6666 59.7341V52.2674C26.6666 51.6783 26.1891 51.2008 25.6 51.2008C25.0109 51.2008 24.5333 51.6783 24.5333 52.2674V59.7341C24.5333 60.9123 23.5782 61.8674 22.4 61.8674C21.2218 61.8674 20.2666 60.9123 20.2666 59.7341V52.2674C20.2719 47.5568 24.0893 43.7394 28.8 43.7341H35.2C39.9106 43.7394 43.728 47.5568 43.7333 52.2674V59.7341C43.7333 60.2999 43.5085 60.8425 43.1085 61.2426C42.7084 61.6427 42.1658 61.8674 41.6 61.8674ZM23.4666 33.0674C23.4666 28.3546 27.2871 24.5341 32 24.5341C36.7128 24.5341 40.5333 28.3546 40.5333 33.0674C40.5333 37.7803 36.7128 41.6008 32 41.6008C27.2893 41.5955 23.4719 37.7781 23.4666 33.0674ZM51.2 49.0674V56.5341C51.2 57.7123 50.2448 58.6674 49.0666 58.6674H45.8666V52.2674C45.8574 47.4158 42.5783 43.1803 37.8837 41.956C38.505 41.543 39.0816 41.0665 39.6042 40.5341H42.6666C47.3773 40.5394 51.1947 44.3568 51.2 49.0674ZM48 29.8674C47.9956 33.8506 45.2392 37.3022 41.3557 38.1874C42.9293 35.3159 43.0942 31.88 41.8029 28.871C40.5116 25.8619 37.9078 23.6142 34.7424 22.7762C37.3571 21.0247 40.7247 20.8577 43.4998 22.3421C46.275 23.8265 48.0054 26.7202 48 29.8674ZM16 29.8674C15.994 26.7209 17.7232 23.8274 20.4972 22.3423C23.2712 20.8571 26.638 21.0224 29.2533 22.772C26.0879 23.6099 23.484 25.8576 22.1927 28.8667C20.9015 31.8758 21.0664 35.3116 22.64 38.1832C18.7597 37.2966 16.0058 33.8477 16 29.8674ZM21.3333 40.5341H24.3957C24.9183 41.0665 25.4949 41.543 26.1162 41.956C21.4216 43.1803 18.1425 47.4158 18.1333 52.2674V58.6674H14.9333C13.7551 58.6674 12.8 57.7123 12.8 56.5341V49.0674C12.8052 44.3568 16.6227 40.5394 21.3333 40.5341Z" fill="#428DFF"/>
</g>
<defs>
<clipPath id="clip0_21015_62849">
<rect width="64" height="64" fill="white"/>
</clipPath>
</defs>
</svg>
