<svg width="65" height="64" viewBox="0 0 65 64" fill="none" xmlns="http://www.w3.org/2000/svg">
<g clip-path="url(#clip0_21015_63761)">
<path d="M49.9804 9.44389H44.9234C43.7659 9.44043 42.8285 8.50298 42.825 7.34553V2.28848C42.5519 2.1629 42.2547 2.09845 41.9542 2.09963H4.00534C2.84789 2.10308 1.91044 3.04053 1.90698 4.19799V60.8537C1.91044 62.0112 2.84789 62.9486 4.00534 62.9521H31.284C30.1266 62.9486 29.1891 62.0112 29.1857 60.8537V58.2308C29.1865 56.8936 30.0322 55.7029 31.2945 55.2616C30.6011 54.2916 30.2304 53.128 30.2348 51.9357C30.2318 48.9522 32.509 46.461 35.4808 46.1967V42.2098C34.8322 41.8353 34.4323 41.1436 34.4316 40.3947C34.4316 38.8209 33.1306 37.6983 33.4978 36.4498C33.7845 35.5523 34.5285 34.8763 35.4493 34.6767H35.4808V32.6832C35.5229 27.3414 39.8858 23.0443 45.2276 23.0832H46.7175C47.8958 23.082 49.0648 23.2916 50.1693 23.7022V10.3147C50.1705 10.0141 50.106 9.71696 49.9804 9.44389ZM13.448 58.7554C9.39184 58.7554 6.1037 55.4672 6.1037 51.4111C6.1037 47.355 9.39184 44.0668 13.448 44.0668C17.5041 44.0668 20.7922 47.355 20.7922 51.4111C20.7936 53.3593 20.0203 55.2282 18.6427 56.6058C17.2651 57.9834 15.3962 58.7568 13.448 58.7554ZM13.448 39.8701C9.39184 39.8701 6.1037 36.582 6.1037 32.5259C6.1037 28.4697 9.39184 25.1816 13.448 25.1816C17.5041 25.1816 20.7922 28.4697 20.7922 32.5259C20.7936 34.4741 20.0203 36.3429 18.6427 37.7206C17.2651 39.0982 15.3962 39.8715 13.448 39.8701ZM13.448 20.9849C9.39184 20.9849 6.1037 17.6967 6.1037 13.6406C6.1037 9.58448 9.39184 6.29635 13.448 6.29635C17.5041 6.29635 20.7922 9.58448 20.7922 13.6406C20.7936 15.5889 20.0203 17.4577 18.6427 18.8353C17.2651 20.2129 15.3962 20.9863 13.448 20.9849Z" fill="#E8EDFC"/>
<path d="M13.448 58.7549C17.5041 58.7549 20.7923 55.4668 20.7923 51.4107C20.7923 47.3545 17.5041 44.0664 13.448 44.0664C9.3919 44.0664 6.10376 47.3545 6.10376 51.4107C6.10376 55.4668 9.3919 58.7549 13.448 58.7549Z" fill="#CAD9FC"/>
<path d="M13.448 39.8702C17.5041 39.8702 20.7923 36.582 20.7923 32.5259C20.7923 28.4698 17.5041 25.1816 13.448 25.1816C9.3919 25.1816 6.10376 28.4698 6.10376 32.5259C6.10376 36.582 9.3919 39.8702 13.448 39.8702Z" fill="#CAD9FC"/>
<path d="M13.448 20.9854C17.5041 20.9854 20.7923 17.6973 20.7923 13.6411C20.7923 9.58501 17.5041 6.29688 13.448 6.29688C9.3919 6.29688 6.10376 9.58501 6.10376 13.6411C6.10376 17.6973 9.3919 20.9854 13.448 20.9854Z" fill="#CAD9FC"/>
<path d="M49.9804 9.44447H44.9233C43.7659 9.44102 42.8284 8.50357 42.825 7.34611V2.28906C43.0554 2.39425 43.265 2.53995 43.444 2.71923L49.5502 8.82546C49.7295 9.00439 49.8752 9.21405 49.9804 9.44447Z" fill="#7FACFA"/>
<path d="M57.5134 40.3952C57.5134 41.5541 56.574 42.4936 55.4151 42.4936C55.2085 42.4946 55.0031 42.4627 54.8065 42.3991C54.2994 42.2651 53.7732 42.5373 53.5895 43.0286C53.1573 44.1581 52.6526 45.2586 52.0787 46.3231C51.8158 46.8059 51.5287 47.2752 51.2183 47.729C49.8754 49.7434 48.1128 51.4116 45.9724 51.4116C43.8321 51.4116 42.0695 49.7434 40.7265 47.729C40.4162 47.2752 40.129 46.8059 39.8662 46.3231C39.2923 45.2586 38.7876 44.1581 38.3554 43.0286C38.1717 42.5373 37.6455 42.2651 37.1383 42.3991C36.9418 42.4627 36.7364 42.4946 36.5298 42.4936C35.3709 42.4936 34.4315 41.5541 34.4315 40.3952C34.4315 38.8214 33.1305 37.6988 33.4977 36.4503C33.7843 35.5528 34.5284 34.8768 35.4492 34.6772H35.4806C36.2202 34.5299 36.9875 34.7055 37.5895 35.1598C37.5901 34.881 37.7128 34.6164 37.9252 34.4359C38.7751 33.7854 43.1501 31.3618 45.4583 29.5677C45.7622 29.3368 46.1827 29.3368 46.4865 29.5677C48.7947 31.3618 53.1698 33.7854 54.0196 34.4359C54.2321 34.6164 54.3548 34.881 54.3554 35.1598C54.9573 34.7055 55.7246 34.5299 56.4642 34.6772H56.4957C57.4165 34.8768 58.1605 35.5528 58.4472 36.4503C58.8144 37.6988 57.5134 38.8214 57.5134 40.3952Z" fill="#E8EDFC"/>
<path d="M58.4472 36.449C58.1606 35.5515 57.4165 34.8755 56.4957 34.6759H56.4643C55.7251 34.5288 54.9584 34.704 54.3565 35.1575C54.799 35.4782 55.1293 35.93 55.3007 36.449C55.6669 37.6975 54.3659 38.8201 54.3659 40.3939C54.3659 41.5528 53.4264 42.4923 52.2675 42.4923C52.061 42.4933 51.8555 42.4615 51.659 42.3979C51.1518 42.2638 50.6256 42.536 50.442 43.0274C50.0097 44.1568 49.5051 45.2573 48.9311 46.3218C48.6683 46.8047 48.3812 47.2739 48.0708 47.7277C47.2063 49.1884 45.9285 50.3603 44.3987 51.0956C44.8984 51.2998 45.4326 51.4066 45.9725 51.4103C48.1128 51.4103 49.8754 49.7421 51.2184 47.7277C51.5287 47.2739 51.8158 46.8047 52.0787 46.3218C52.6526 45.2573 53.1573 44.1568 53.5895 43.0274C53.7732 42.536 54.2994 42.2638 54.8065 42.3979C55.0031 42.4615 55.2085 42.4933 55.4151 42.4923C56.574 42.4923 57.5134 41.5528 57.5134 40.3939C57.5134 38.8201 58.8144 37.6975 58.4472 36.449Z" fill="#CAD9FC"/>
<path d="M34.4409 35.1573L34.442 35.1583V35.1562L34.4409 35.1573Z" fill="#CAD9FC"/>
<path d="M56.4643 32.6823V34.6757C55.7247 34.5285 54.9574 34.7041 54.3555 35.1584C54.3549 34.8795 54.2322 34.615 54.0197 34.4344C53.1699 33.7839 48.7948 31.3603 46.4866 29.5662C46.1828 29.3354 45.7623 29.3354 45.4584 29.5662C43.1502 31.3603 38.7751 33.7839 37.9253 34.4344C37.7128 34.615 37.5901 34.8795 37.5896 35.1584C36.9876 34.7041 36.2203 34.5285 35.4807 34.6757V32.6823C35.5229 27.3405 39.8857 23.0433 45.2276 23.0823H46.7174C47.8958 23.081 49.0648 23.2907 50.1692 23.7013C51.4588 24.18 52.6319 24.9274 53.6105 25.8941C55.4354 27.6814 56.464 30.128 56.4643 32.6823Z" fill="#A4C2F7"/>
<path d="M53.6106 25.8958C52.6319 24.9291 51.4589 24.1817 50.1693 23.703C49.0648 23.2924 47.8958 23.0827 46.7175 23.084H45.2276C44.9622 23.084 44.703 23.1029 44.4397 23.1228C45.3226 23.1992 46.1911 23.3943 47.0217 23.703C48.3113 24.1817 49.4844 24.9291 50.463 25.8958C52.2879 27.6831 53.3165 30.1297 53.3168 32.684V33.9682C53.6316 34.1654 53.8771 34.327 54.0198 34.4361C54.2322 34.6167 54.3549 34.8812 54.3555 35.1601C54.9575 34.7058 55.7247 34.5302 56.4644 34.6774V32.684C56.464 30.1297 55.4354 27.6831 53.6106 25.8958Z" fill="#7FACFA"/>
<path d="M62.7593 58.2311V60.854C62.7559 62.0115 61.8184 62.9489 60.661 62.9524H31.2839C30.1264 62.9489 29.189 62.0115 29.1855 60.854V58.2311C29.1864 56.8939 30.0321 55.7032 31.2944 55.2619C31.4482 55.2076 31.6061 55.1655 31.7665 55.136L40.7265 53.5098V53.8245C40.7237 55.1887 41.2863 56.4932 42.2803 57.4275C43.2743 58.3619 44.611 58.8427 45.9724 58.7557C47.3339 58.8427 48.6706 58.3619 49.6646 57.4275C50.6586 56.4932 51.2211 55.1887 51.2183 53.8245V53.5098L60.1783 55.136C60.3388 55.1655 60.4966 55.2076 60.6505 55.2619C61.9128 55.7032 62.7584 56.8939 62.7593 58.2311Z" fill="#E8EDFC"/>
<path d="M40.7267 47.7277V53.5087L31.7667 55.1349C31.6063 55.1644 31.4484 55.2065 31.2946 55.2608C30.6012 54.2908 30.2304 53.1272 30.2349 51.9349C30.2319 48.9514 32.5091 46.4602 35.4808 46.1959V42.209C35.7996 42.3939 36.1614 42.4916 36.53 42.4923C36.7366 42.4933 36.942 42.4614 37.1385 42.3978C37.6457 42.2638 38.1719 42.536 38.3556 43.0273C38.7878 44.1568 39.2924 45.2573 39.8664 46.3218C40.1292 46.8046 40.4164 47.2739 40.7267 47.7277Z" fill="#A4C2F7"/>
<path d="M51.2184 47.7285L51.2184 53.8243C51.2212 55.1885 50.6586 56.4929 49.6646 57.4273C48.6706 58.3617 47.3339 58.8425 45.9725 58.7554C44.611 58.8425 43.2743 58.3617 42.2803 57.4273C41.2863 56.4929 40.7238 55.1885 40.7266 53.8243L40.7266 47.7285C42.0695 49.7429 43.8321 51.4111 45.9725 51.4111C48.1128 51.4111 49.8754 49.7429 51.2184 47.7285Z" fill="#CAD9FC"/>
<path d="M61.7103 51.9349C61.7148 53.1272 61.3441 54.2908 60.6506 55.2608C60.4968 55.2065 60.3389 55.1644 60.1785 55.1349L51.2185 53.5087V47.7277C51.5289 47.2739 51.816 46.8046 52.0788 46.3218C52.6528 45.2573 53.1574 44.1568 53.5897 43.0273C53.7733 42.536 54.2995 42.2638 54.8067 42.3978C55.0032 42.4614 55.2087 42.4933 55.4152 42.4923C55.7838 42.4916 56.1456 42.3939 56.4644 42.209V46.1959C59.4362 46.4602 61.7133 48.9514 61.7103 51.9349Z" fill="#A4C2F7"/>
<path d="M56.4644 46.1959V42.209C56.1457 42.3939 55.7838 42.4916 55.4153 42.4923C55.2087 42.4933 55.0033 42.4614 54.8067 42.3978C54.2996 42.2638 53.7734 42.536 53.5897 43.0273C53.5068 43.2445 53.4145 43.4753 53.3169 43.7114V46.1959C56.2886 46.4602 58.5658 48.9514 58.5628 51.9349C58.5618 52.9066 58.3123 53.8619 57.8378 54.71L60.1785 55.1296C60.339 55.1591 60.4968 55.2012 60.6507 55.2555C61.343 54.287 61.7137 53.1255 61.7103 51.9349C61.7134 48.9514 59.4362 46.4602 56.4644 46.1959Z" fill="#7FACFA"/>
<path d="M7.01561 62.951C5.89684 62.9083 5.02163 61.9718 5.0547 60.8527V4.19692C5.02164 3.07743 5.89748 2.14071 7.01666 2.09856H4.00552C3.44403 2.08183 2.90053 2.29753 2.50333 2.69474C2.10613 3.09194 1.89043 3.63544 1.90716 4.19692V60.8527C1.89074 61.414 2.10654 61.9574 2.50367 62.3545C2.9008 62.7516 3.44412 62.9674 4.00552 62.951H7.01561Z" fill="white"/>
<path d="M0.85791 52.459H2.95627V60.8524H0.85791V52.459Z" fill="white"/>
<path d="M13.4481 22.033C18.0837 22.033 21.8416 18.2751 21.8416 13.6395C21.8416 9.00397 18.0837 5.24609 13.4481 5.24609C8.81256 5.24609 5.05469 9.00397 5.05469 13.6395C5.05989 18.2729 8.81472 22.0278 13.4481 22.033ZM13.4481 7.34445C16.9248 7.34445 19.7432 10.1629 19.7432 13.6395C19.7432 17.1162 16.9248 19.9346 13.4481 19.9346C9.97145 19.9346 7.15305 17.1162 7.15305 13.6395C7.15652 10.1643 9.97289 7.34792 13.4481 7.34445Z" fill="#428DFF"/>
<path d="M17.5776 15.0587C17.7256 14.7041 17.6679 14.297 17.4272 13.9975C17.1866 13.698 16.8015 13.554 16.4233 13.6221C16.0452 13.6902 15.7346 13.9596 15.6136 14.3243C15.2364 15.1838 14.3866 15.7388 13.4481 15.7388C12.5095 15.7388 11.6597 15.1838 11.2825 14.3243C11.1616 13.9596 10.8509 13.6902 10.4728 13.6221C10.0946 13.554 9.70952 13.698 9.46887 13.9975C9.22821 14.297 9.17052 14.7041 9.31848 15.0587C10.0055 16.7344 11.637 17.8287 13.4481 17.8287C15.2591 17.8287 16.8906 16.7344 17.5776 15.0587Z" fill="#428DFF"/>
<path d="M11.3497 11.5417C11.9292 11.5417 12.3989 11.072 12.3989 10.4925C12.3989 9.91309 11.9292 9.44336 11.3497 9.44336C10.7703 9.44336 10.3005 9.91309 10.3005 10.4925C10.3005 11.072 10.7703 11.5417 11.3497 11.5417Z" fill="#428DFF"/>
<path d="M15.5465 11.5417C16.1259 11.5417 16.5957 11.072 16.5957 10.4925C16.5957 9.91309 16.1259 9.44336 15.5465 9.44336C14.967 9.44336 14.4973 9.91309 14.4973 10.4925C14.4973 11.072 14.967 11.5417 15.5465 11.5417Z" fill="#428DFF"/>
<path d="M13.4481 40.9177C18.0837 40.9177 21.8416 37.1599 21.8416 32.5243C21.8416 27.8887 18.0837 24.1309 13.4481 24.1309C8.81256 24.1309 5.05469 27.8887 5.05469 32.5243C5.05989 37.1577 8.81472 40.9125 13.4481 40.9177ZM13.4481 26.2292C16.9248 26.2292 19.7432 29.0476 19.7432 32.5243C19.7432 36.001 16.9248 38.8194 13.4481 38.8194C9.97145 38.8194 7.15305 36.001 7.15305 32.5243C7.15652 29.0491 9.97289 26.2327 13.4481 26.2292Z" fill="#428DFF"/>
<path d="M11.3497 30.4265C11.9292 30.4265 12.3989 29.9568 12.3989 29.3773C12.3989 28.7979 11.9292 28.3281 11.3497 28.3281C10.7703 28.3281 10.3005 28.7979 10.3005 29.3773C10.3005 29.9568 10.7703 30.4265 11.3497 30.4265Z" fill="#428DFF"/>
<path d="M15.5465 30.4265C16.1259 30.4265 16.5957 29.9568 16.5957 29.3773C16.5957 28.7979 16.1259 28.3281 15.5465 28.3281C14.967 28.3281 14.4973 28.7979 14.4973 29.3773C14.4973 29.9568 14.967 30.4265 15.5465 30.4265Z" fill="#428DFF"/>
<path d="M13.4481 59.8045C18.0837 59.8045 21.8416 56.0466 21.8416 51.411C21.8416 46.7754 18.0837 43.0176 13.4481 43.0176C8.81256 43.0176 5.05469 46.7754 5.05469 51.411C5.05989 56.0444 8.81472 59.7993 13.4481 59.8045ZM13.4481 45.1159C16.9248 45.1159 19.7432 47.9343 19.7432 51.411C19.7432 54.8877 16.9248 57.7061 13.4481 57.7061C9.97145 57.7061 7.15305 54.8877 7.15305 51.411C7.15652 47.9358 9.97289 45.1194 13.4481 45.1159Z" fill="#428DFF"/>
<path d="M9.93131 54.4913C10.1919 54.5892 10.4807 54.5795 10.7342 54.4644C10.9876 54.3493 11.1849 54.1381 11.2827 53.8775C11.6598 53.018 12.5096 52.463 13.4482 52.463C14.3867 52.463 15.2365 53.018 15.6137 53.8775C15.8309 54.3981 16.421 54.6538 16.9494 54.4562C17.4778 54.2586 17.7554 53.6785 17.5777 53.1431C16.8907 51.4674 15.2592 50.373 13.4482 50.373C11.6371 50.373 10.0056 51.4674 9.31859 53.1431C9.1167 53.6845 9.39065 54.2873 9.93131 54.4913Z" fill="#428DFF"/>
<path d="M11.3497 49.3113C11.9292 49.3113 12.3989 48.8415 12.3989 48.2621C12.3989 47.6826 11.9292 47.2129 11.3497 47.2129C10.7703 47.2129 10.3005 47.6826 10.3005 48.2621C10.3005 48.8415 10.7703 49.3113 11.3497 49.3113Z" fill="#428DFF"/>
<path d="M15.5465 49.3113C16.1259 49.3113 16.5957 48.8415 16.5957 48.2621C16.5957 47.6826 16.1259 47.2129 15.5465 47.2129C14.967 47.2129 14.4973 47.6826 14.4973 48.2621C14.4973 48.8415 14.967 49.3113 15.5465 49.3113Z" fill="#428DFF"/>
<path d="M10.3006 34.6238H16.5957C17.1752 34.6238 17.6449 34.154 17.6449 33.5746C17.6449 32.9951 17.1752 32.5254 16.5957 32.5254H10.3006C9.7212 32.5254 9.25146 32.9951 9.25146 33.5746C9.25146 34.154 9.7212 34.6238 10.3006 34.6238Z" fill="#428DFF"/>
<path d="M1.90709 57.7058C2.48654 57.7058 2.95627 57.236 2.95627 56.6566C2.95627 56.0772 2.48654 55.6074 1.90709 55.6074C1.32764 55.6074 0.85791 56.0772 0.85791 56.6566C0.85791 57.236 1.32764 57.7058 1.90709 57.7058Z" fill="#428DFF"/>
<path d="M28.1366 20.9834H36.53C38.2683 20.9834 39.6775 19.5742 39.6775 17.8359V9.44246C39.6775 7.70412 38.2683 6.29492 36.53 6.29492H28.1366C26.3982 6.29492 24.989 7.70412 24.989 9.44246V17.8359C24.989 19.5742 26.3982 20.9834 28.1366 20.9834ZM27.0874 9.44246C27.0874 8.86302 27.5571 8.39328 28.1366 8.39328H36.53C37.1094 8.39328 37.5792 8.86302 37.5792 9.44246V17.8359C37.5792 18.4154 37.1094 18.8851 36.53 18.8851H28.1366C27.5571 18.8851 27.0874 18.4154 27.0874 17.8359V9.44246Z" fill="#428DFF"/>
<path d="M30.5424 16.4799C30.7575 16.6949 31.0552 16.8061 31.3586 16.7845C31.662 16.763 31.941 16.6109 32.1235 16.3676L35.2711 12.1709C35.496 11.871 35.5438 11.474 35.3966 11.1292C35.2493 10.7845 34.9294 10.5446 34.5572 10.4997C34.1851 10.4549 33.8173 10.612 33.5924 10.9119L31.1709 14.1413L30.9768 13.9472C30.5651 13.5495 29.9107 13.5552 29.506 13.9599C29.1013 14.3646 29.0956 15.019 29.4932 15.4307L30.5424 16.4799Z" fill="#428DFF"/>
<path d="M62.0912 54.8662C62.9838 53.0095 62.9852 50.8481 62.0952 48.9903C61.2051 47.1325 59.5198 45.7792 57.5136 45.3113V42.7229C58.1785 42.131 58.56 41.284 58.5628 40.3938C58.5628 39.1075 59.9708 37.8883 59.4494 36.153C59.1454 35.1722 58.4429 34.3645 57.5136 33.9277V32.6823C57.5065 28.4983 55.041 24.7092 51.2186 23.0078C51.2186 9.34118 51.3235 9.91193 50.951 9.0537C50.79 8.69405 50.567 8.36554 50.2921 8.08321C43.5595 1.34852 43.9992 1.68846 43.2826 1.35377C42.4054 0.91941 45.531 1.04951 4.00545 1.04951C2.26711 1.04951 0.85791 2.45871 0.85791 4.19705V52.4593C0.85791 53.0388 1.32764 53.5085 1.90709 53.5085C2.48654 53.5085 2.95627 53.0388 2.95627 52.4593V4.19705C2.95627 3.6176 3.426 3.14787 4.00545 3.14787H41.7759V7.34459C41.7759 9.08293 43.1851 10.4921 44.9235 10.4921H49.1202V22.3059C47.8397 22.0492 46.5316 21.9575 45.2277 22.0331C42.2968 22.0303 39.4899 23.2155 37.4481 25.3181C36.8039 25.1209 37.1323 25.1807 28.1366 25.1807C26.3983 25.1807 24.9891 26.5899 24.9891 28.3282V36.7216C24.9891 38.46 26.3983 39.8692 28.1366 39.8692H33.3049C33.3528 40.0401 33.3789 40.2163 33.3825 40.3938C33.3853 41.284 33.7668 42.131 34.4317 42.7229V44.0659H28.1366C26.3983 44.0659 24.9891 45.4751 24.9891 47.2134V55.6069C24.9891 57.3452 26.3983 58.7544 28.1366 58.7544C28.1366 60.9577 28.0778 61.1938 28.3296 61.902H4.00545C3.426 61.902 2.95627 61.4322 2.95627 60.8528C2.95627 60.2733 2.48654 59.8036 1.90709 59.8036C-0.0957947 59.8036 0.88414 64.0003 4.00545 64.0003H60.6612C62.3995 64.0003 63.8087 62.5911 63.8087 60.8528V58.2298C63.8045 56.8991 63.1666 55.65 62.0912 54.8662ZM43.8743 7.34459V4.63141L47.6367 8.39377H44.9235C44.344 8.39377 43.8743 7.92404 43.8743 7.34459ZM56.4645 50.361C57.0439 50.361 57.5136 49.8912 57.5136 49.3118V47.503C58.794 47.9492 59.8188 48.9272 60.3244 50.1853C60.83 51.4434 60.7668 52.8586 60.1513 54.0667L52.2677 52.6335V48.0528C53.2019 46.6033 53.9509 45.0426 54.4972 43.407C54.7949 43.4973 55.1043 43.5426 55.4153 43.5413V49.3118C55.4153 49.8912 55.885 50.361 56.4645 50.361ZM35.4809 40.3938C35.4809 38.6983 34.31 37.4089 34.5062 36.7552C34.6648 36.2719 35.0474 35.895 35.533 35.7436C36.0187 35.5922 36.5476 35.6849 36.9529 35.9925C37.2637 36.2228 37.6755 36.2651 38.0266 36.1026C38.3778 35.9402 38.6122 35.599 38.6378 35.2129C39.6052 34.5268 43.6739 32.2469 45.9727 30.4916C48.2567 32.2353 52.4451 34.6012 53.3075 35.193C53.3212 35.5851 53.5526 35.9368 53.9072 36.1046C54.2619 36.2724 54.6805 36.2284 54.9925 35.9904C55.3979 35.6824 55.9272 35.5896 56.4132 35.7412C56.8993 35.8929 57.2819 36.2703 57.4402 36.7542C57.6353 37.4067 56.4645 38.6857 56.4645 40.3917C56.4545 40.7196 56.2951 41.025 56.0318 41.2207C55.7684 41.4164 55.43 41.4809 55.1131 41.3957C54.0806 41.0986 52.9931 41.6442 52.614 42.6495C48.6271 52.9042 43.335 52.943 39.3303 42.6495C38.9512 41.6454 37.8644 41.1011 36.8333 41.3989C36.516 41.4849 36.1769 41.4206 35.9131 41.2246C35.6493 41.0285 35.49 40.7223 35.4809 40.3938ZM41.7759 50.5897C44.3989 53.0091 47.387 53.157 50.1694 50.5897V53.8233C50.1935 54.9162 49.7478 55.967 48.9452 56.7094C48.1427 57.4517 47.0604 57.8143 45.9727 57.7052C44.8875 57.803 43.8117 57.4365 43.0118 56.6966C42.212 55.9568 41.7629 54.9128 41.7759 53.8233V50.5897ZM45.2277 24.1315H46.7176C49.0054 24.1102 51.2078 24.9996 52.8393 26.6036C54.4708 28.2075 55.3976 30.3944 55.4153 32.6823V33.6161C54.6106 33.7315 54.9568 33.8364 54.6578 33.6014C53.8415 32.9782 49.3374 30.4538 47.1205 28.73C46.4361 28.2152 45.4928 28.2187 44.8123 28.7384C43.4043 29.8327 41.1401 31.2082 39.4803 32.2123C38.6621 32.673 37.8739 33.1854 37.1207 33.7462C36.9279 33.6861 36.7303 33.6426 36.53 33.6161V32.6823C36.5762 27.9216 40.467 24.0965 45.2277 24.1315ZM27.0874 36.7216V28.3282C27.0874 27.7487 27.5572 27.279 28.1366 27.279H35.9414C34.7676 29.2877 34.2404 31.609 34.4317 33.9277C32.939 34.568 32.1266 36.1924 32.5096 37.7708H28.1366C27.5572 37.7708 27.0874 37.3011 27.0874 36.7216ZM37.3757 43.4102C37.9864 45.0305 38.7575 46.5858 39.6776 48.0528V52.6367L31.794 54.0698C31.177 52.8615 31.1131 51.4453 31.6188 50.1863C32.1244 48.9273 33.1502 47.9488 34.4317 47.503V49.3118C34.4317 49.8912 34.9014 50.361 35.4809 50.361C36.0603 50.361 36.53 49.8912 36.53 49.3118V43.5413C36.8173 43.5463 37.1034 43.5019 37.3757 43.4102ZM27.0874 55.6069V47.2134C27.0874 46.634 27.5572 46.1643 28.1366 46.1643H32.3595C29.4365 48.0079 28.3592 51.7494 29.8541 54.8651C29.2302 55.3212 28.7447 55.9411 28.4514 56.6561H28.1366C27.5572 56.6561 27.0874 56.1863 27.0874 55.6069ZM61.7104 60.8528C61.7104 61.4322 61.2406 61.902 60.6612 61.902H31.2841C30.7047 61.902 30.235 61.4322 30.235 60.8528V58.2298C30.2343 57.2153 30.9596 56.3456 31.9577 56.164L39.7584 54.7466C40.1601 57.814 42.8876 60.0336 45.9727 59.8036C49.0563 60.0337 51.7832 57.8165 52.187 54.7507L59.9866 56.1682C60.9836 56.3491 61.7089 57.2166 61.7104 58.2298V60.8528Z" fill="#428DFF"/>
</g>
<defs>
<clipPath id="clip0_21015_63761">
<rect width="64" height="64" fill="white" transform="translate(0.333252)"/>
</clipPath>
</defs>
</svg>
