<svg width="19" height="20" viewBox="0 0 19 20" fill="none" xmlns="http://www.w3.org/2000/svg">
<path fill-rule="evenodd" clip-rule="evenodd" d="M7.20498 15.4659V10.2123C7.20498 9.69317 6.78417 9.27235 6.26507 9.27235H4.6965C4.17739 9.27235 3.75658 9.69317 3.75658 10.2123V13.6137L7.20498 15.4659Z" fill="#0C3F8B"/>
<path d="M11.3813 15.387V5.84357C11.3813 5.32447 10.9605 4.90366 10.4414 4.90366H8.8749C8.35579 4.90366 7.93498 5.32447 7.93498 5.84357V15.8359L8.04079 15.8943C8.79422 16.3098 9.70812 16.3098 10.4616 15.8943L11.3813 15.387Z" fill="#F2B926"/>
<path d="M15.5372 13.0806V7.72505C15.5372 7.20595 15.1163 6.78513 14.5972 6.78513H13.0514C12.5323 6.78513 12.1115 7.20595 12.1115 7.72505V15.2592L14.8257 13.694C15.1039 13.5336 15.3438 13.3243 15.5372 13.0806Z" fill="#59BC49"/>
<path fill-rule="evenodd" clip-rule="evenodd" d="M7.40446 19.4359L2.39156 16.5274C1.1034 15.7801 0.310547 14.4034 0.310547 12.9141V7.08586C0.310547 5.59659 1.1034 4.21995 2.39156 3.47257L7.40446 0.564122C8.70086 -0.188041 10.3009 -0.18804 11.5973 0.564122L16.6102 3.47257C17.8983 4.21995 18.6912 5.59659 18.6912 7.08586V12.9141C18.6912 14.4034 17.8983 15.7801 16.6102 16.5274L11.5973 19.4359C10.3009 20.188 8.70086 20.188 7.40446 19.4359ZM10.7587 2.00944L15.7716 4.91788C16.5445 5.36631 17.0202 6.1923 17.0202 7.08586V12.9141C17.0202 13.8077 16.5445 14.6337 15.7716 15.0821L10.7587 17.9906C9.98087 18.4419 9.02086 18.4419 8.24302 17.9906L3.23012 15.0821C2.45723 14.6337 1.98151 13.8077 1.98151 12.9141V7.08586C1.98151 6.1923 2.45723 5.36631 3.23012 4.91788L8.24302 2.00944C9.02086 1.55814 9.98087 1.55814 10.7587 2.00944Z" fill="#0C3F8B"/>
</svg>
