<svg width="343" height="108" viewBox="0 0 343 108" fill="none" xmlns="http://www.w3.org/2000/svg">
<path d="M216.168 63.002C216.168 63.8145 216.024 64.6862 215.736 65.6172C215.465 66.5482 215.008 67.4115 214.365 68.207C213.739 69.0026 212.918 69.6712 211.902 70.2129C210.887 70.7376 209.643 71 208.17 71H183.109C182.635 71 182.195 70.9154 181.789 70.7461C181.383 70.5768 181.027 70.3483 180.723 70.0605C180.435 69.7559 180.206 69.4004 180.037 68.9941C179.868 68.5879 179.783 68.1478 179.783 67.6738V37.916C179.783 37.459 179.868 37.0273 180.037 36.6211C180.206 36.2148 180.435 35.8594 180.723 35.5547C181.027 35.25 181.383 35.013 181.789 34.8438C182.195 34.6745 182.635 34.5898 183.109 34.5898H205.199C206.012 34.5898 206.883 34.7337 207.814 35.0215C208.745 35.3092 209.609 35.7747 210.404 36.418C211.217 37.0443 211.885 37.8652 212.41 38.8809C212.952 39.8965 213.223 41.1406 213.223 42.6133V43.8574C213.223 45.0254 213.028 46.2865 212.639 47.6406C212.249 48.9779 211.623 50.2474 210.76 51.4492C211.505 51.9062 212.199 52.4564 212.842 53.0996C213.502 53.7428 214.077 54.4876 214.568 55.334C215.059 56.1803 215.449 57.1367 215.736 58.2031C216.024 59.2695 216.168 60.446 216.168 61.7324V63.002ZM209.566 61.7324C209.566 60.8691 209.431 60.099 209.16 59.4219C208.889 58.7279 208.508 58.1354 208.018 57.6445C207.527 57.1536 206.934 56.7812 206.24 56.5273C205.546 56.2565 204.768 56.1211 203.904 56.1211H189.025V49.4688H200.934C201.797 49.4688 202.576 49.3418 203.27 49.0879C203.964 48.8171 204.556 48.4362 205.047 47.9453C205.538 47.4544 205.91 46.8704 206.164 46.1934C206.435 45.4993 206.57 44.7207 206.57 43.8574V42.6133C206.57 41.6654 206.113 41.1914 205.199 41.1914H186.385V64.3984H208.17C208.288 64.3984 208.432 64.39 208.602 64.373C208.771 64.3561 208.923 64.3053 209.059 64.2207C209.194 64.1361 209.312 63.9922 209.414 63.7891C209.516 63.5859 209.566 63.3066 209.566 62.9512V61.7324Z" fill="#FF6600"/>
<path d="M242.615 50.1543H227.761C226.864 50.1543 226.187 50.3828 225.73 50.8398C225.273 51.2799 225.045 51.9316 225.045 52.7949V71H218.443V52.7949C218.443 51.6608 218.587 50.6452 218.875 49.748C219.162 48.8509 219.543 48.0638 220.017 47.3867C220.508 46.6927 221.067 46.1087 221.693 45.6348C222.319 45.1439 222.971 44.7461 223.648 44.4414C224.342 44.1367 225.036 43.9167 225.73 43.7812C226.441 43.6289 227.101 43.5527 227.711 43.5527H242.615V50.1543Z" fill="#FF6600"/>
<path d="M251.085 37.916H244.484V31.9492H251.085V37.916ZM251.085 71H244.484V43.5527H251.085V71Z" fill="#FF6600"/>
<path d="M286.19 43.5527L274.333 56.502L287.688 71H278.598L269.813 61.4277L261.028 71H251.913L265.243 56.4512L253.436 43.5527H262.475L269.762 51.5L277.1 43.5527H286.19Z" fill="#FF6600"/>
<path d="M123.996 71H114.627L99.7734 56.1211H95.127V49.4688H99.7734L114.627 34.5898H123.996L105.283 52.7949L123.996 71ZM92.4863 71H85.8848V34.5898H92.4863V71Z" fill="#42536D"/>
<path d="M136.402 71H129.775V41.1914H123.808V34.5898H136.402V71Z" fill="#42536D"/>
<path d="M173.97 71H140.53V58.7871C140.53 58.1608 140.598 57.5007 140.734 56.8066C140.886 56.0957 141.114 55.3932 141.419 54.6992C141.724 54.0052 142.113 53.3451 142.587 52.7188C143.078 52.0924 143.662 51.5423 144.339 51.0684C145.033 50.5775 145.829 50.1882 146.726 49.9004C147.623 49.6126 148.639 49.4688 149.773 49.4688H164.652C165.549 49.4688 166.209 49.2487 166.632 48.8086C167.072 48.3516 167.292 47.6914 167.292 46.8281V43.9082C167.292 43.0111 167.072 42.334 166.632 41.877C166.192 41.4199 165.549 41.1914 164.702 41.1914H143.501V34.5898H164.702C165.82 34.5898 166.827 34.7337 167.724 35.0215C168.621 35.3092 169.408 35.6986 170.085 36.1895C170.779 36.6634 171.372 37.2135 171.863 37.8398C172.353 38.4661 172.751 39.1263 173.056 39.8203C173.377 40.4974 173.606 41.1914 173.741 41.9023C173.894 42.5964 173.97 43.248 173.97 43.8574V46.8281C173.97 48.5378 173.657 49.985 173.03 51.1699C172.421 52.3379 171.651 53.2943 170.72 54.0391C169.789 54.7669 168.782 55.3001 167.698 55.6387C166.632 55.9603 165.633 56.1211 164.702 56.1211H149.773C149.231 56.1211 148.799 56.1973 148.478 56.3496C148.156 56.502 147.902 56.7051 147.716 56.959C147.547 57.2129 147.42 57.5007 147.335 57.8223C147.251 58.1439 147.183 58.4655 147.132 58.7871V64.3984H173.97V71Z" fill="#42536D"/>
<path d="M295.283 68.1855C295.283 68.5723 295.204 68.9375 295.047 69.2812C294.904 69.6107 294.703 69.9043 294.445 70.1621C294.202 70.4056 293.908 70.599 293.564 70.7422C293.235 70.8854 292.884 70.957 292.512 70.957C292.125 70.957 291.76 70.8854 291.416 70.7422C291.087 70.599 290.793 70.4056 290.535 70.1621C290.292 69.9043 290.098 69.6107 289.955 69.2812C289.812 68.9375 289.74 68.5723 289.74 68.1855C289.74 67.8132 289.812 67.4622 289.955 67.1328C290.098 66.7891 290.292 66.4954 290.535 66.252C290.793 65.9941 291.087 65.7936 291.416 65.6504C291.76 65.4928 292.125 65.4141 292.512 65.4141C292.884 65.4141 293.235 65.4928 293.564 65.6504C293.908 65.7936 294.202 65.9941 294.445 66.252C294.703 66.4954 294.904 66.7891 295.047 67.1328C295.204 67.4622 295.283 67.8132 295.283 68.1855Z" fill="#91A5C4"/>
<path d="M323.621 63.3086C323.621 64.082 323.485 64.9199 323.213 65.8223C322.941 66.7103 322.497 67.541 321.881 68.3145C321.279 69.0736 320.484 69.7109 319.496 70.2266C318.522 70.7422 317.333 71 315.93 71H305.854C305.08 71 304.242 70.8639 303.34 70.5918C302.452 70.3197 301.621 69.8828 300.848 69.2812C300.089 68.6654 299.451 67.8704 298.936 66.8965C298.42 65.9082 298.162 64.7122 298.162 63.3086C298.162 62.5352 298.298 61.6973 298.57 60.7949C298.842 59.8926 299.279 59.0618 299.881 58.3027C300.497 57.5293 301.292 56.8848 302.266 56.3691C303.254 55.8535 304.45 55.5957 305.854 55.5957H315.93V60.9238H305.854C305.094 60.9238 304.507 61.1602 304.092 61.6328C303.676 62.0911 303.469 62.6641 303.469 63.3516C303.469 64.082 303.705 64.6549 304.178 65.0703C304.665 65.4714 305.238 65.6719 305.896 65.6719H315.93C316.689 65.6719 317.276 65.4427 317.691 64.9844C318.107 64.526 318.314 63.9531 318.314 63.2656V55.4668C318.314 54.7363 318.085 54.1562 317.627 53.7266C317.183 53.2969 316.617 53.082 315.93 53.082H303.662V47.7754H315.93C316.703 47.7754 317.534 47.9115 318.422 48.1836C319.324 48.4557 320.155 48.8997 320.914 49.5156C321.688 50.1172 322.332 50.9121 322.848 51.9004C323.363 52.8743 323.621 54.0632 323.621 55.4668V63.3086Z" fill="#91A5C4"/>
<path d="M334.062 43.0059H328.477V37.957H334.062V43.0059ZM334.062 71H328.477V47.7754H334.062V71Z" fill="#91A5C4"/>
<path d="M7 47.6646L18.4567 56.0283H25.5925L37.7441 47.6646" stroke="#727276" stroke-width="5" stroke-miterlimit="10" stroke-linecap="round" stroke-linejoin="round"/>
<path d="M7 58.1176L18.4567 67.0498H24.1673" stroke="#727276" stroke-width="5" stroke-miterlimit="10" stroke-linecap="round" stroke-linejoin="round"/>
<path d="M37.7441 75.1685L51.0904 67.6188V60.4672" stroke="#727276" stroke-width="5" stroke-miterlimit="10" stroke-linecap="round" stroke-linejoin="round"/>
<path d="M60.3904 74.2778V51.385L48.5089 43.6925" stroke="#727276" stroke-width="5" stroke-miterlimit="10" stroke-linecap="round" stroke-linejoin="round"/>
<path d="M37.7441 32.8645L21.0996 43.2607" stroke="#727276" stroke-width="5" stroke-miterlimit="10" stroke-linecap="round" stroke-linejoin="round"/>
<path d="M37.7441 16.9999V32.6313" stroke="#727276" stroke-width="5" stroke-miterlimit="10" stroke-linecap="round" stroke-linejoin="round"/>
<path d="M37.7441 58.1174V88L68.4874 70.25V34.75L58.636 29.0623V37.1355" stroke="#FF6600" stroke-width="5" stroke-miterlimit="10" stroke-linecap="round" stroke-linejoin="round"/>
<path d="M16.1794 77.8623L7 70.2503V34.7503L37.7441 17.0003L47.526 22.6485" stroke="#727276" stroke-width="5" stroke-miterlimit="10" stroke-linecap="round" stroke-linejoin="round"/>
<mask id="mask0_3001_27257" style="mask-type:luminance" maskUnits="userSpaceOnUse" x="34" y="54" width="8" height="8">
<path d="M41.2003 58.1172C41.2003 60.0265 39.6526 61.5742 37.7443 61.5742C35.834 61.5742 34.2863 60.0265 34.2863 58.1172C34.2863 56.2079 35.834 54.6602 37.7443 54.6602C39.6526 54.6602 41.2003 56.2079 41.2003 58.1172Z" fill="white"/>
</mask>
<g mask="url(#mask0_3001_27257)">
<path d="M41.2003 58.1172C41.2003 60.0265 39.6526 61.5742 37.7443 61.5742C35.834 61.5742 34.2863 60.0265 34.2863 58.1172C34.2863 56.2079 35.834 54.6602 37.7443 54.6602C39.6526 54.6602 41.2003 56.2079 41.2003 58.1172Z" fill="#C55103"/>
</g>
<mask id="mask1_3001_27257" style="mask-type:luminance" maskUnits="userSpaceOnUse" x="17" y="39" width="8" height="8">
<path d="M24.5383 43.2605C24.5383 45.1592 22.9984 46.7002 21.0997 46.7002C19.1989 46.7002 17.6589 45.1592 17.6589 43.2605C17.6589 41.3607 19.1989 39.8208 21.0997 39.8208C22.9984 39.8208 24.5383 41.3607 24.5383 43.2605Z" fill="white"/>
</mask>
<g mask="url(#mask1_3001_27257)">
<path d="M24.6892 43.1851C24.6892 45.1254 23.1155 46.7002 21.1751 46.7002C19.2326 46.7002 17.6589 45.1254 17.6589 43.1851C17.6589 41.2437 19.2326 39.6699 21.1751 39.6699C23.1155 39.6699 24.6892 41.2437 24.6892 43.1851Z" fill="#727276"/>
</g>
<mask id="mask2_3001_27257" style="mask-type:luminance" maskUnits="userSpaceOnUse" x="33" y="28" width="9" height="9">
<path d="M41.6792 32.864C41.6792 35.0377 39.9171 36.7998 37.7445 36.7998C35.5696 36.7998 33.8075 35.0377 33.8075 32.864C33.8075 30.6902 35.5696 28.9281 37.7445 28.9281C39.9171 28.9281 41.6792 30.6902 41.6792 32.864Z" fill="white"/>
</mask>
<g mask="url(#mask2_3001_27257)">
<path d="M41.8518 32.7776C41.8518 34.9991 40.0511 36.7998 37.8309 36.7998C35.6082 36.7998 33.8075 34.9991 33.8075 32.7776C33.8075 30.5562 35.6082 28.7555 37.8309 28.7555C40.0511 28.7555 41.8518 30.5562 41.8518 32.7776Z" fill="#727276"/>
</g>
<mask id="mask3_3001_27257" style="mask-type:luminance" maskUnits="userSpaceOnUse" x="44" y="39" width="8" height="8">
<path d="M51.8845 43.0424C51.8845 44.9987 50.2987 46.5845 48.3414 46.5845C46.3862 46.5845 44.8004 44.9987 44.8004 43.0424C44.8004 41.0872 46.3862 39.5004 48.3414 39.5004C50.2987 39.5004 51.8845 41.0872 51.8845 43.0424Z" fill="white"/>
</mask>
<g mask="url(#mask3_3001_27257)">
<path d="M52.0398 42.9648C52.0398 44.9639 50.4193 46.5845 48.419 46.5845C46.421 46.5845 44.8004 44.9639 44.8004 42.9648C44.8004 40.9667 46.421 39.3451 48.419 39.3451C50.4193 39.3451 52.0398 40.9667 52.0398 42.9648Z" fill="#727276"/>
</g>
<mask id="mask4_3001_27257" style="mask-type:luminance" maskUnits="userSpaceOnUse" x="34" y="43" width="8" height="8">
<path d="M41.2003 47.4312C41.2003 49.3395 39.6526 50.8872 37.7443 50.8872C35.834 50.8872 34.2863 49.3395 34.2863 47.4312C34.2863 45.5209 35.834 43.9731 37.7443 43.9731C39.6526 43.9731 41.2003 45.5209 41.2003 47.4312Z" fill="white"/>
</mask>
<g mask="url(#mask4_3001_27257)">
<path d="M41.3519 47.3554C41.3519 49.3056 39.7703 50.8872 37.8202 50.8872C35.8679 50.8872 34.2863 49.3056 34.2863 47.3554C34.2863 45.4032 35.8679 43.8215 37.8202 43.8215C39.7703 43.8215 41.3519 45.4032 41.3519 47.3554Z" fill="#727276"/>
</g>
<mask id="mask5_3001_27257" style="mask-type:luminance" maskUnits="userSpaceOnUse" x="44" y="19" width="9" height="9">
<path d="M52.8879 23.4215C52.8879 25.8399 50.9275 27.8003 48.5091 27.8003C46.0906 27.8003 44.1302 25.8399 44.1302 23.4215C44.1302 21.003 46.0906 19.0427 48.5091 19.0427C50.9275 19.0427 52.8879 21.003 52.8879 23.4215Z" fill="white"/>
</mask>
<g mask="url(#mask5_3001_27257)">
<path d="M53.08 23.3254C53.08 25.7969 51.0766 27.8003 48.6051 27.8003C46.1336 27.8003 44.1302 25.7969 44.1302 23.3254C44.1302 20.854 46.1336 18.8506 48.6051 18.8506C51.0766 18.8506 53.08 20.854 53.08 23.3254Z" fill="#727276"/>
</g>
<mask id="mask6_3001_27257" style="mask-type:luminance" maskUnits="userSpaceOnUse" x="12" y="74" width="9" height="9">
<path d="M20.5001 78.5738C20.5001 80.7738 18.7165 82.5562 16.519 82.5562C14.3202 82.5562 12.5378 80.7738 12.5378 78.5738C12.5378 76.3762 14.3202 74.5939 16.519 74.5939C18.7165 74.5939 20.5001 76.3762 20.5001 78.5738Z" fill="white"/>
</mask>
<g mask="url(#mask6_3001_27257)">
<path d="M20.6746 78.4865C20.6746 80.7347 18.852 82.5562 16.6062 82.5562C14.3593 82.5562 12.5378 80.7347 12.5378 78.4865C12.5378 76.2407 14.3593 74.4193 16.6062 74.4193C18.852 74.4193 20.6746 76.2407 20.6746 78.4865Z" fill="#727276"/>
</g>
<mask id="mask7_3001_27257" style="mask-type:luminance" maskUnits="userSpaceOnUse" x="20" y="63" width="9" height="9">
<path d="M28.1193 67.0493C28.1193 69.2315 26.3503 71.0005 24.1669 71.0005C21.9858 71.0005 20.2168 69.2315 20.2168 67.0493C20.2168 64.867 21.9858 63.098 24.1669 63.098C26.3503 63.098 28.1193 64.867 28.1193 67.0493Z" fill="white"/>
</mask>
<g mask="url(#mask7_3001_27257)">
<path d="M28.2926 66.9626C28.2926 69.1927 26.4848 71.0005 24.2535 71.0005C22.0246 71.0005 20.2168 69.1927 20.2168 66.9626C20.2168 64.7325 22.0246 62.9247 24.2535 62.9247C26.4848 62.9247 28.2926 64.7325 28.2926 66.9626Z" fill="#727276"/>
</g>
<mask id="mask8_3001_27257" style="mask-type:luminance" maskUnits="userSpaceOnUse" x="47" y="56" width="8" height="8">
<path d="M54.4227 59.9317C54.4227 61.7717 52.9312 63.2632 51.0902 63.2632C49.2503 63.2632 47.7588 61.7717 47.7588 59.9317C47.7588 58.0918 49.2503 56.6003 51.0902 56.6003C52.9312 56.6003 54.4227 58.0918 54.4227 59.9317Z" fill="white"/>
</mask>
<g mask="url(#mask8_3001_27257)">
<path d="M54.5688 59.8587C54.5688 61.739 53.0446 63.2632 51.1633 63.2632C49.283 63.2632 47.7588 61.739 47.7588 59.8587C47.7588 57.9784 49.283 56.4542 51.1633 56.4542C53.0446 56.4542 54.5688 57.9784 54.5688 59.8587Z" fill="#727276"/>
</g>
</svg>
