<svg width="64" height="64" viewBox="0 0 64 64" fill="none" xmlns="http://www.w3.org/2000/svg">
<g clip-path="url(#clip0_21015_62959)">
<path d="M40.5333 45.8669C40.5245 44.1991 40.8906 42.5506 41.6045 41.0433C42.3185 39.536 43.362 38.2084 44.6581 37.1586C47.938 34.5355 50.3219 30.9582 51.4804 26.9213C52.6388 22.8844 52.5145 18.5873 51.1246 14.6241C49.7348 10.661 47.148 7.22746 43.7219 4.79833C40.2959 2.36921 36.1998 1.06445 31.9999 1.06445C27.8001 1.06445 23.704 2.36921 20.278 4.79833C16.8519 7.22746 14.2651 10.661 12.8752 14.6241C11.4854 18.5873 11.3611 22.8844 12.5195 26.9213C13.6779 30.9582 16.0619 34.5355 19.3418 37.1586C20.6379 38.2084 21.6814 39.536 22.3954 41.0433C23.1093 42.5506 23.4754 44.1991 23.4666 45.8669H40.5333Z" fill="#C6D8FB"/>
<path d="M31.9999 1.06641C31.4602 1.06641 30.9332 1.10587 30.3999 1.14747C34.4496 1.46524 38.3102 2.99355 41.4801 5.53384C44.65 8.07414 46.9827 11.509 48.1752 15.3922C49.3677 19.2755 49.3648 23.4276 48.1669 27.3091C46.969 31.1907 44.6315 34.6223 41.458 37.1581C40.162 38.2079 39.1184 39.5355 38.4045 41.0428C37.6905 42.5501 37.3244 44.1986 37.3332 45.8664H40.5332C40.5244 44.1986 40.8905 42.5501 41.6045 41.0428C42.3184 39.5355 43.362 38.2079 44.658 37.1581C47.937 34.5348 50.3201 30.9576 51.4779 26.9212C52.6358 22.8847 52.5112 18.5883 51.1214 14.6257C49.7317 10.6631 47.1453 7.23004 43.7199 4.80104C40.2945 2.37204 36.1991 1.06703 31.9999 1.06641Z" fill="#A4C3FD"/>
<path d="M40.5333 45.8672H23.4666C22.2884 45.8672 21.3333 46.8223 21.3333 48.0005C21.3333 49.1787 22.2884 50.1339 23.4666 50.1339H40.5333C41.7115 50.1339 42.6666 49.1787 42.6666 48.0005C42.6666 46.8223 41.7115 45.8672 40.5333 45.8672Z" fill="#E8EDFC"/>
<path d="M40.5333 45.8672H37.3333C37.899 45.8672 38.4417 46.0919 38.8417 46.492C39.2418 46.8921 39.4666 47.4347 39.4666 48.0005C39.4666 48.5663 39.2418 49.1089 38.8417 49.509C38.4417 49.9091 37.899 50.1339 37.3333 50.1339H40.5333C41.099 50.1339 41.6417 49.9091 42.0417 49.509C42.4418 49.1089 42.6666 48.5663 42.6666 48.0005C42.6666 47.4347 42.4418 46.8921 42.0417 46.492C41.6417 46.0919 41.099 45.8672 40.5333 45.8672Z" fill="#CAD9FC"/>
<path d="M40.5333 50.1328H23.4666C22.2884 50.1328 21.3333 51.0879 21.3333 52.2661C21.3333 53.4444 22.2884 54.3995 23.4666 54.3995H40.5333C41.7115 54.3995 42.6666 53.4444 42.6666 52.2661C42.6666 51.0879 41.7115 50.1328 40.5333 50.1328Z" fill="#E8EDFC"/>
<path d="M40.5333 50.1328H37.3333C37.899 50.1328 38.4417 50.3576 38.8417 50.7576C39.2418 51.1577 39.4666 51.7004 39.4666 52.2661C39.4666 52.8319 39.2418 53.3746 38.8417 53.7746C38.4417 54.1747 37.899 54.3995 37.3333 54.3995H40.5333C41.099 54.3995 41.6417 54.1747 42.0417 53.7746C42.4418 53.3746 42.6666 52.8319 42.6666 52.2661C42.6666 51.7004 42.4418 51.1577 42.0417 50.7576C41.6417 50.3576 41.099 50.1328 40.5333 50.1328Z" fill="#CAD9FC"/>
<path d="M40.5333 54.4004H23.4666C22.2884 54.4004 21.3333 55.3555 21.3333 56.5337C21.3333 57.7119 22.2884 58.6671 23.4666 58.6671H40.5333C41.7115 58.6671 42.6666 57.7119 42.6666 56.5337C42.6666 55.3555 41.7115 54.4004 40.5333 54.4004Z" fill="#E8EDFC"/>
<path d="M40.5333 54.4004H37.3333C37.899 54.4004 38.4417 54.6252 38.8417 55.0252C39.2418 55.4253 39.4666 55.9679 39.4666 56.5337C39.4666 57.0995 39.2418 57.6421 38.8417 58.0422C38.4417 58.4423 37.899 58.6671 37.3333 58.6671H40.5333C41.099 58.6671 41.6417 58.4423 42.0417 58.0422C42.4418 57.6421 42.6666 57.0995 42.6666 56.5337C42.6666 55.9679 42.4418 55.4253 42.0417 55.0252C41.6417 54.6252 41.099 54.4004 40.5333 54.4004Z" fill="#CAD9FC"/>
<path d="M39.4667 58.666C38.5067 61.1332 35.5285 62.9327 32 62.9327C28.4715 62.9327 25.4933 61.1332 24.5333 58.666H39.4667Z" fill="#E8EDFC"/>
<path d="M36.2666 58.666C35.7232 59.7979 34.8985 60.7715 33.8713 61.4937C32.8442 62.2159 31.6489 62.6625 30.3999 62.7908C30.9285 62.8812 31.4636 62.9287 31.9999 62.9327C35.5284 62.9327 38.5066 61.1332 39.4666 58.666H36.2666Z" fill="#CAD9FC"/>
<path d="M36.2666 19.2009H27.7333C27.732 18.79 27.8712 18.3911 28.128 18.0703L31.168 14.2729C31.2664 14.146 31.3925 14.0433 31.5367 13.9726C31.6809 13.902 31.8394 13.8652 32 13.8652C32.1605 13.8652 32.319 13.902 32.4632 13.9726C32.6074 14.0433 32.7336 14.146 32.832 14.2729L35.872 18.0703C36.1287 18.3911 36.2679 18.79 36.2666 19.2009Z" fill="#E8EDFC"/>
<path d="M35.8719 18.0703L32.8319 14.2729C32.7335 14.146 32.6074 14.0433 32.4632 13.9726C32.319 13.902 32.1605 13.8652 31.9999 13.8652C31.8393 13.8652 31.6809 13.902 31.5366 13.9726C31.3924 14.0433 31.2663 14.146 31.1679 14.2729L30.3999 15.2329L32.6719 18.0713C32.9284 18.3919 33.0676 18.7904 33.0666 19.2009H36.2666C36.2679 18.79 36.1286 18.3911 35.8719 18.0703Z" fill="#CAD9FC"/>
<path d="M27.7333 19.2012H31.9999V41.6012H27.7333V19.2012Z" fill="#E8EDFC"/>
<path d="M32 19.2012H36.2667V41.6012H32V19.2012Z" fill="#E8EDFC"/>
<path d="M32 19.2012H36.2667V41.6012H32V19.2012Z" fill="#E8EDFC"/>
<path d="M27.7333 41.6016H36.2666V45.8682H27.7333V41.6016Z" fill="#E8EDFC"/>
<path d="M33.0667 41.5996H36.2667V45.8663H33.0667V41.5996Z" fill="#CAD9FC"/>
<path d="M26.6667 45.7495H23.4667C23.4575 44.1019 23.0824 42.4769 22.3685 40.9919C21.6546 39.5069 20.6197 38.1991 19.3387 37.1629C15.9525 34.4555 13.5243 30.733 12.4113 26.5427C11.2982 22.3525 11.5591 17.9158 13.1555 13.8848C14.7518 9.85391 17.5995 6.44158 21.2796 4.14962C24.9598 1.85766 29.2783 0.807023 33.6 1.15221C29.5506 1.47045 25.6904 2.99892 22.5208 5.53911C19.3511 8.0793 17.0185 11.5138 15.8258 15.3967C14.6331 19.2796 14.6355 23.4314 15.8326 27.3129C17.0297 31.1944 19.3662 34.6263 22.5387 37.1629C23.8197 38.1991 24.8546 39.5069 25.5685 40.9919C26.2824 42.4769 26.6575 44.1019 26.6667 45.7495Z" fill="white"/>
<path d="M14.4789 29.1793L12.5322 30.0529C11.3068 27.3093 10.6712 24.3389 10.6666 21.334H12.8C12.8046 24.0378 13.3766 26.7105 14.4789 29.1793Z" fill="white"/>
<path d="M12.2005 26.6411C11.9176 26.6424 11.6458 26.5313 11.4449 26.3321C11.2439 26.133 11.1303 25.8622 11.129 25.5793C11.1278 25.2964 11.2389 25.0246 11.4381 24.8236C11.6372 24.6227 11.908 24.5091 12.1909 24.5078H12.2005C12.4834 24.5078 12.7547 24.6202 12.9548 24.8202C13.1548 25.0203 13.2672 25.2916 13.2672 25.5745C13.2672 25.8574 13.1548 26.1287 12.9548 26.3287C12.7547 26.5288 12.4834 26.6411 12.2005 26.6411Z" fill="#428DFF"/>
<path d="M45.3248 37.9915C48.1427 35.7377 50.3429 32.806 51.7196 29.4706C53.0963 26.1351 53.6045 22.505 53.1965 18.9197C52.7886 15.3345 51.478 11.9113 49.3872 8.97033C47.2964 6.02941 44.4938 3.66686 41.2416 2.10371C37.9894 0.540551 34.3938 -0.172133 30.7912 0.0323242C27.1886 0.236781 23.6967 1.3517 20.6422 3.27278C17.5878 5.19385 15.0705 7.85832 13.3258 11.0169C11.5812 14.1755 10.6663 17.725 10.6666 21.3334C10.6666 21.6163 10.779 21.8876 10.979 22.0877C11.1791 22.2877 11.4504 22.4001 11.7333 22.4001C12.0162 22.4001 12.2875 22.2877 12.4875 22.0877C12.6876 21.8876 12.8 21.6163 12.8 21.3334C12.7995 18.0858 13.6228 14.8911 15.1929 12.0482C16.763 9.20533 19.0285 6.80718 21.7776 5.07809C24.5267 3.349 27.6694 2.3455 30.9118 2.16144C34.1543 1.97739 37.3904 2.61881 40.3175 4.02569C43.2445 5.43258 45.7669 7.55895 47.6486 10.2059C49.5304 12.8528 50.7099 15.9338 51.0769 19.1607C51.444 22.3875 50.9865 25.6547 49.7473 28.6566C48.5082 31.6585 46.5278 34.2971 43.9914 36.3254C42.708 37.3583 41.6496 38.6431 40.8815 40.1006C40.1134 41.5581 39.6518 43.1574 39.5253 44.8001H37.3333V19.2001C37.3328 18.5467 37.1101 17.9129 36.7018 17.4027L33.6661 13.6054C33.4595 13.366 33.2038 13.1739 32.9162 13.0422C32.6287 12.9105 32.3162 12.8424 32 12.8424C31.6837 12.8424 31.3712 12.9105 31.0837 13.0422C30.7962 13.1739 30.5404 13.366 30.3338 13.6054L27.2981 17.4027C26.8898 17.9129 26.6671 18.5467 26.6666 19.2001V44.8001H24.4746C24.3481 43.1574 23.8865 41.5581 23.1184 40.1006C22.3503 38.6431 21.292 37.3583 20.0085 36.3254C17.6269 34.4132 15.732 31.9641 14.4789 29.1787C14.3593 28.9295 14.15 28.7347 13.8928 28.6333C13.6357 28.5318 13.3498 28.5312 13.0922 28.6315C12.9585 28.6835 12.8369 28.7624 12.7351 28.8635C12.6333 28.9646 12.5534 29.0856 12.5005 29.219C12.4477 29.3524 12.4229 29.4953 12.4278 29.6387C12.4327 29.782 12.4672 29.9229 12.529 30.0523C13.9206 33.1464 16.0254 35.8667 18.6709 37.9905C19.7334 38.846 20.6086 39.911 21.2421 41.1191C21.8755 42.3273 22.2537 43.6529 22.353 45.0134C21.8635 45.192 21.4255 45.4885 21.0778 45.8766C20.7301 46.2647 20.4833 46.7325 20.3593 47.2386C20.2353 47.7447 20.2379 48.2736 20.3668 48.7785C20.4958 49.2834 20.7471 49.7487 21.0986 50.1334C20.5636 50.715 20.2666 51.4765 20.2666 52.2667C20.2666 53.057 20.5636 53.8185 21.0986 54.4001C20.6815 54.8573 20.4066 55.4262 20.3075 56.0371C20.2084 56.648 20.2894 57.2746 20.5405 57.8402C20.7917 58.4059 21.2021 58.8862 21.7218 59.2224C22.2414 59.5586 22.8477 59.7361 23.4666 59.7334H23.8805C25.2586 62.3062 28.401 64.0001 32 64.0001C35.5989 64.0001 38.7413 62.3062 40.1194 59.7334H40.5333C41.1522 59.7361 41.7585 59.5586 42.2781 59.2224C42.7978 58.8862 43.2082 58.4059 43.4594 57.8402C43.7106 57.2746 43.7915 56.648 43.6924 56.0371C43.5933 55.4262 43.3184 54.8573 42.9013 54.4001C43.4364 53.8185 43.7333 53.057 43.7333 52.2667C43.7333 51.4765 43.4364 50.715 42.9013 50.1334C43.2528 49.7487 43.5042 49.2834 43.6331 48.7785C43.7621 48.2736 43.7646 47.7447 43.6406 47.2386C43.5166 46.7325 43.2699 46.2647 42.9221 45.8766C42.5744 45.4885 42.1364 45.192 41.6469 45.0134C41.7459 43.6534 42.1234 42.3282 42.7561 41.1203C43.3888 39.9123 44.2631 38.8474 45.3248 37.9915ZM41.6 48.0001C41.6 48.283 41.4876 48.5543 41.2875 48.7543C41.0875 48.9544 40.8162 49.0667 40.5333 49.0667H23.4666C23.1837 49.0667 22.9124 48.9544 22.7124 48.7543C22.5123 48.5543 22.4 48.283 22.4 48.0001C22.4 47.7172 22.5123 47.4459 22.7124 47.2458C22.9124 47.0458 23.1837 46.9334 23.4666 46.9334H40.5333C40.8162 46.9334 41.0875 47.0458 41.2875 47.2458C41.4876 47.4459 41.6 47.7172 41.6 48.0001ZM41.6 52.2667C41.6 52.5496 41.4876 52.821 41.2875 53.021C41.0875 53.221 40.8162 53.3334 40.5333 53.3334H23.4666C23.1837 53.3334 22.9124 53.221 22.7124 53.021C22.5123 52.821 22.4 52.5496 22.4 52.2667C22.4 51.9838 22.5123 51.7125 22.7124 51.5125C22.9124 51.3125 23.1837 51.2001 23.4666 51.2001H40.5333C40.8162 51.2001 41.0875 51.3125 41.2875 51.5125C41.4876 51.7125 41.6 51.9838 41.6 52.2667ZM28.8 40.5334V20.2721H30.9333V40.5334H28.8ZM33.0666 20.2721H35.2V40.5334H33.0666V20.2721ZM32 14.9387L34.56 18.1387H32.0256C32.017 18.1387 32.0096 18.1387 32 18.1387C31.9904 18.1387 31.9829 18.1387 31.9744 18.1387H29.44L32 14.9387ZM28.8 42.6667H35.2V44.8001H28.8V42.6667ZM32 61.8667C30.9823 61.8951 29.9691 61.7211 29.0191 61.3549C28.0692 60.9887 27.2014 60.4375 26.4661 59.7334H37.5338C36.7985 60.4375 35.9307 60.9887 34.9808 61.3549C34.0308 61.7211 33.0176 61.8951 32 61.8667ZM40.5333 57.6001H23.4666C23.1837 57.6001 22.9124 57.4877 22.7124 57.2877C22.5123 57.0876 22.4 56.8163 22.4 56.5334C22.4 56.2505 22.5123 55.9792 22.7124 55.7792C22.9124 55.5791 23.1837 55.4667 23.4666 55.4667H40.5333C40.8162 55.4667 41.0875 55.5791 41.2875 55.7792C41.4876 55.9792 41.6 56.2505 41.6 56.5334C41.6 56.8163 41.4876 57.0876 41.2875 57.2877C41.0875 57.4877 40.8162 57.6001 40.5333 57.6001Z" fill="#428DFF"/>
<path d="M62.9333 20.2676H56.5333C56.2504 20.2676 55.9791 20.38 55.7791 20.58C55.5791 20.78 55.4667 21.0513 55.4667 21.3342C55.4667 21.6171 55.5791 21.8885 55.7791 22.0885C55.9791 22.2885 56.2504 22.4009 56.5333 22.4009H62.9333C63.2162 22.4009 63.4876 22.2885 63.6876 22.0885C63.8876 21.8885 64 21.6171 64 21.3342C64 21.0513 63.8876 20.78 63.6876 20.58C63.4876 20.38 63.2162 20.2676 62.9333 20.2676Z" fill="#428DFF"/>
<path d="M53.6022 34.1428L59.2225 37.2041C59.4708 37.3396 59.7629 37.3709 60.0343 37.2911C60.3058 37.2113 60.5344 37.0269 60.6699 36.7785C60.8054 36.5301 60.8367 36.2381 60.7569 35.9666C60.6771 35.6952 60.4927 35.4666 60.2443 35.3311L54.623 32.2687C54.3745 32.1333 54.0823 32.1022 53.8109 32.1822C53.5394 32.2622 53.3109 32.4468 53.1755 32.6953C53.0402 32.9439 53.0091 33.236 53.0891 33.5074C53.1691 33.7789 53.3537 34.0074 53.6022 34.1428Z" fill="#428DFF"/>
<path d="M60.6699 5.88882C60.6029 5.76573 60.5123 5.65704 60.4033 5.56897C60.2943 5.4809 60.169 5.41518 60.0346 5.37555C59.9002 5.33593 59.7593 5.32318 59.6199 5.33804C59.4806 5.3529 59.3455 5.39508 59.2225 5.46216L53.6022 8.52349C53.3537 8.65886 53.1691 8.8874 53.0891 9.15886C53.0091 9.43031 53.0402 9.72243 53.1755 9.97096C53.3109 10.2195 53.5394 10.4041 53.8109 10.4841C54.0823 10.5641 54.3745 10.533 54.623 10.3976L60.2443 7.33522C60.4925 7.19975 60.6767 6.97131 60.7565 6.7001C60.8363 6.42889 60.8051 6.1371 60.6699 5.88882Z" fill="#428DFF"/>
<path d="M0 21.3342C0 21.6171 0.112381 21.8885 0.312419 22.0885C0.512458 22.2885 0.783769 22.4009 1.06667 22.4009H7.46667C7.74956 22.4009 8.02087 22.2885 8.22091 22.0885C8.42095 21.8885 8.53333 21.6171 8.53333 21.3342C8.53333 21.0513 8.42095 20.78 8.22091 20.58C8.02087 20.38 7.74956 20.2676 7.46667 20.2676H1.06667C0.783769 20.2676 0.512458 20.38 0.312419 20.58C0.112381 20.78 0 21.0513 0 21.3342Z" fill="#428DFF"/>
<path d="M9.37707 32.2687L3.75574 35.3311C3.50735 35.4666 3.32297 35.6952 3.24316 35.9666C3.16334 36.2381 3.19463 36.5301 3.33014 36.7785C3.46565 37.0269 3.69427 37.2113 3.96573 37.2911C4.23718 37.3709 4.52922 37.3396 4.7776 37.2041L10.3979 34.1428C10.6464 34.0074 10.831 33.7789 10.911 33.5074C10.991 33.236 10.9599 32.9439 10.8245 32.6953C10.6892 32.4468 10.4606 32.2622 10.1892 32.1822C9.91772 32.1022 9.6256 32.1333 9.37707 32.2687Z" fill="#428DFF"/>
<path d="M3.33012 5.89078C3.19498 6.13918 3.16402 6.43108 3.24403 6.7023C3.32403 6.97353 3.50847 7.20188 3.75678 7.33718L9.37812 10.3996C9.50117 10.4666 9.63623 10.5087 9.77557 10.5236C9.91491 10.5384 10.0558 10.5256 10.1902 10.486C10.3246 10.4464 10.4499 10.3807 10.5589 10.2927C10.668 10.2046 10.7586 10.096 10.8256 9.97291C10.8926 9.84985 10.9347 9.7148 10.9496 9.57546C10.9644 9.43612 10.9517 9.29522 10.912 9.16081C10.8724 9.0264 10.8067 8.90111 10.7187 8.79209C10.6306 8.68308 10.522 8.59247 10.3989 8.52544L4.77758 5.46411C4.65454 5.39703 4.51948 5.35486 4.38013 5.34C4.24078 5.32514 4.09986 5.33788 3.96544 5.37751C3.83102 5.41713 3.70572 5.48286 3.59671 5.57092C3.4877 5.65899 3.39711 5.76768 3.33012 5.89078Z" fill="#428DFF"/>
</g>
<defs>
<clipPath id="clip0_21015_62959">
<rect width="64" height="64" fill="white"/>
</clipPath>
</defs>
</svg>
