<svg width="72" height="78" viewBox="0 0 72 78" fill="none" xmlns="http://www.w3.org/2000/svg">
<g clip-path="url(#clip0_348_12160)">
<path d="M5.30104 18.2915H2.39069C1.1143 18.2915 0.266134 17.6907 0.0603303 16.6659C-0.147552 15.5787 0.32434 14.743 1.48848 14.2149C4.19095 12.9822 6.9059 11.7391 9.63123 10.5375C10.1343 10.3151 10.3172 10.0469 10.3048 9.49808C10.2674 7.86205 10.2902 6.22602 10.2923 4.58999C10.2923 3.16807 10.6249 2.82507 12.0115 2.82299C14.2428 2.82299 16.4726 2.82299 18.7011 2.82299C20.0274 2.82299 20.4078 3.21173 20.4162 4.5401V5.60237C20.7405 5.47349 20.9899 5.3945 21.2311 5.27809C24.4179 3.84162 27.6089 2.41554 30.7832 0.95413C31.058 0.814787 31.3618 0.742187 31.6699 0.742188C31.9779 0.742187 32.2817 0.814787 32.5565 0.95413C42.2715 5.35985 51.9914 9.75657 61.7161 14.1443C61.9032 14.2295 62.0924 14.3189 62.2712 14.4228C62.6632 14.6331 62.9748 14.967 63.1575 15.3727C63.3402 15.7783 63.3838 16.2329 63.2815 16.6659C63.1961 17.1169 62.9583 17.5249 62.6077 17.8212C62.2572 18.1176 61.8154 18.2844 61.3565 18.2936C60.2505 18.3289 59.1405 18.2936 57.9909 18.2936V22.472C58.8078 22.7547 59.6269 23 60.4169 23.3202C68.0149 26.4093 72.7339 34.2215 71.919 42.3393C71.5232 46.3344 69.8461 50.0944 67.1382 53.0583C64.4302 56.0221 60.8365 58.0309 56.8932 58.7849C52.4155 59.6164 48.1913 58.8556 44.2124 56.6375C43.7663 56.3917 43.2665 56.2596 42.7573 56.2529C29.378 56.2321 15.9987 56.2266 2.61936 56.2363C0.981248 56.2363 0.688139 55.939 0.688139 54.2738C0.688139 52.5068 0.688139 50.7398 0.688139 48.9749C0.688139 47.8461 1.1143 47.42 2.23478 47.4054C3.24093 47.3909 4.24708 47.4054 5.31352 47.4054L5.30104 18.2915ZM13.4542 47.3618V46.3556C13.4542 40.8994 13.4542 35.4432 13.4542 29.987C13.4542 28.6066 13.8263 28.2324 15.2108 28.2324C19.489 28.2324 23.7672 28.2324 28.0454 28.2324C29.5339 28.2324 29.8852 28.5817 29.8852 30.0597V47.341H36.184C34.4129 42.6116 34.496 37.9551 36.3524 33.2715H35.1342C33.81 33.2715 33.4462 32.8994 33.4441 31.5461C33.4441 28.6108 33.4441 25.6748 33.4441 22.7381C33.4441 21.4513 33.8225 21.0875 35.1238 21.0875C39.1942 21.0875 43.2666 21.1062 47.3369 21.073C48.3389 21.073 49.1621 21.1832 49.3367 22.2413L55.4422 21.9024C55.4422 20.4223 55.4422 18.8715 55.4422 17.329C55.4422 16.2605 55.8975 15.8198 56.9618 15.8073C57.6312 15.8073 58.2985 15.8073 58.9679 15.8073C58.8952 15.6348 58.8307 15.5994 58.76 15.5579C49.8904 11.5388 41.0166 7.53153 32.1386 3.53604C31.7893 3.41575 31.4073 3.43284 31.0701 3.58384C23.0847 7.17189 15.1069 10.7752 7.13665 14.3937C6.20949 14.8095 5.28441 15.2377 4.35933 15.6597C4.89775 15.7819 5.44998 15.8322 6.00161 15.8094C7.5337 15.8094 7.84968 16.1295 7.84968 17.6803C7.84968 27.2429 7.84968 36.8055 7.84968 46.3681V47.368L13.4542 47.3618ZM27.3636 30.7707H15.9903V47.3326H27.3636V30.7707ZM53.4279 24.4531C49.1731 24.4663 45.0969 26.1646 42.0915 29.1763C39.086 32.188 37.3962 36.2677 37.3918 40.5224C37.3918 49.3637 44.597 56.6042 53.4154 56.6167C55.5287 56.6139 57.6208 56.1947 59.572 55.3828C61.5232 54.5709 63.2952 53.3823 64.7867 51.885C66.2782 50.3877 67.4599 48.6111 68.2642 46.6568C69.0686 44.7025 69.4797 42.6088 69.4743 40.4954C69.4732 36.2414 67.7829 32.162 64.7751 29.1538C61.7673 26.1456 57.6881 24.4548 53.4341 24.4531H53.4279ZM40.2356 53.6835C39.4041 52.5921 38.5996 51.6046 37.8907 50.5652C37.5623 50.0809 37.2505 49.8792 36.6538 49.8792C25.7899 49.9 14.9253 49.9056 4.05999 49.8959C3.78559 49.8959 3.51119 49.9208 3.22847 49.9333V53.6835H40.2356ZM35.9969 23.6091V30.7083C37.5456 30.8809 37.5436 30.8788 38.3834 29.7167C40.0765 27.3476 42.3024 25.4093 44.8818 24.0582C45.0897 23.9459 45.2976 23.8253 45.7133 23.6091H35.9969ZM17.8758 5.35917H12.8368V9.06362L16.7865 7.27167C17.9652 6.74573 17.9652 6.74575 17.8758 5.36333V5.35917Z" fill="#98A2B3"/>
<path d="M66.778 63.2679V64.324C66.778 68.2959 66.778 72.2685 66.778 76.2418C66.7916 76.5768 66.7473 76.9115 66.647 77.2314C66.5656 77.4826 66.3976 77.6966 66.1729 77.8352C65.9482 77.9739 65.6815 78.028 65.4205 77.9881C65.1445 77.9772 64.8816 77.8675 64.6798 77.679C64.4779 77.4905 64.3505 77.2357 64.3208 76.9611C64.2906 76.7031 64.2822 76.443 64.2958 76.1836C64.2958 72.2353 64.2958 68.2855 64.2958 64.3343V63.5028L64.1482 63.4176C63.9404 63.6837 63.7325 63.9581 63.508 64.2159C62.9841 64.8208 62.2794 64.9268 61.7202 64.4944C61.161 64.062 61.0529 63.3469 61.5435 62.7004C62.5122 61.4157 63.4955 60.1435 64.5079 58.8941C65.1191 58.1374 65.9402 58.1416 66.5555 58.8941C67.5679 60.1414 68.5533 61.4157 69.522 62.6983C69.6307 62.8282 69.7118 62.9789 69.7604 63.1411C69.809 63.3034 69.824 63.4738 69.8045 63.6421C69.7851 63.8103 69.7316 63.9729 69.6473 64.1198C69.5629 64.2667 69.4496 64.3948 69.3141 64.4965C68.7715 64.9123 68.1001 64.8104 67.5866 64.2408C67.36 64.0038 67.1563 63.7336 66.778 63.2679Z" fill="#98A2B3"/>
<path d="M54.6834 66.9102V73.2693C54.6834 74.3586 54.6834 75.4479 54.6834 76.5393C54.6834 77.456 54.1949 78.009 53.4361 77.9944C52.6773 77.9799 52.1992 77.4269 52.1888 76.5081C52.1784 73.5499 52.1888 70.5918 52.1888 67.6336V66.6857C51.8125 67.1347 51.5859 67.4361 51.3282 67.7063C50.8085 68.2531 50.1245 68.303 49.5924 67.856C49.3483 67.6548 49.1923 67.3664 49.1573 67.052C49.1224 66.7377 49.2113 66.4221 49.4053 66.1722C50.4176 64.8251 51.4467 63.4905 52.5235 62.1871C52.6316 62.0457 52.7708 61.9311 52.9303 61.8523C53.0899 61.7734 53.2654 61.7324 53.4434 61.7324C53.6213 61.7324 53.7969 61.7734 53.9564 61.8523C54.116 61.9311 54.2552 62.0457 54.3633 62.1871C55.4505 63.5051 56.5003 64.8584 57.521 66.2304C57.6175 66.3547 57.6876 66.4974 57.7272 66.6497C57.7668 66.802 57.775 66.9608 57.7513 67.1164C57.7275 67.2719 57.6724 67.4211 57.5892 67.5547C57.506 67.6883 57.3965 67.8035 57.2674 67.8934C57.025 68.096 56.7122 68.194 56.3976 68.166C56.083 68.1379 55.7924 67.986 55.5898 67.7438C55.3237 67.4673 55.0971 67.1534 54.8518 66.8561L54.6834 66.9102Z" fill="#98A2B3"/>
<path d="M39.9571 70.2729C39.7305 70.5515 39.5143 70.8425 39.269 71.1044C38.7576 71.6491 38.0612 71.7052 37.5331 71.2645C37.4091 71.1698 37.3052 71.0514 37.2275 70.9161C37.1497 70.7808 37.0997 70.6314 37.0804 70.4766C37.061 70.3218 37.0727 70.1646 37.1147 70.0143C37.1568 69.8641 37.2284 69.7237 37.3253 69.6014C38.3356 68.2543 39.3667 66.9218 40.4331 65.6184C40.545 65.4726 40.6891 65.3546 40.8542 65.2738C41.0193 65.1929 41.2008 65.1514 41.3847 65.1524C41.5685 65.1534 41.7496 65.1969 41.9138 65.2796C42.0779 65.3622 42.2208 65.4817 42.3311 65.6288C43.394 66.9343 44.4279 68.2634 45.4327 69.616C45.6194 69.8707 45.6996 70.1882 45.6561 70.501C45.6127 70.8138 45.449 71.0974 45.1998 71.2915C44.9567 71.4913 44.6453 71.5885 44.3318 71.5625C44.0182 71.5365 43.727 71.3893 43.5202 71.1522C43.2561 70.882 43.0296 70.5743 42.6886 70.1669C42.6637 70.5494 42.6346 70.7905 42.6346 71.0358C42.6346 72.8527 42.6346 74.6675 42.6346 76.4823C42.6346 77.4386 42.1149 78.0269 41.3561 78.0124C40.5973 77.9978 40.1566 77.4428 40.1525 76.5073C40.1525 74.6925 40.1525 72.8756 40.1525 71.0608V70.3103L39.9571 70.2729Z" fill="#98A2B3"/>
<path d="M53.4089 54.9977C49.5751 54.978 45.9053 53.4399 43.2029 50.7204C40.5006 48.0009 38.9858 44.3215 38.9902 40.4876C38.9965 38.5826 39.3789 36.6976 40.1154 34.9408C40.852 33.184 41.9282 31.5899 43.2823 30.25C44.6365 28.9102 46.2419 27.8509 48.0064 27.133C49.771 26.4152 51.6599 26.0528 53.5649 26.0668C61.5247 26.1084 67.9295 32.6255 67.8921 40.6456C67.8625 44.4655 66.3229 48.1187 63.6094 50.8076C60.896 53.4965 57.229 55.0028 53.4089 54.9977ZM53.4526 52.5032C55.0255 52.501 56.5825 52.1888 58.0346 51.5844C59.4867 50.9801 60.8054 50.0954 61.9154 48.981C63.0253 47.8666 63.9048 46.5443 64.5033 45.0898C65.1019 43.6353 65.4079 42.0771 65.4038 40.5042C65.4021 37.3412 64.1465 34.3079 61.912 32.0692C59.6776 29.8305 56.6468 28.5691 53.4838 28.5614C50.3066 28.5537 47.2564 29.8081 45.0039 32.0489C42.7515 34.2896 41.4812 37.3333 41.4724 40.5104C41.474 43.6884 42.7363 46.736 44.9824 48.9844C47.2284 51.2327 50.2746 52.4982 53.4526 52.5032Z" fill="#98A2B3"/>
<path d="M54.7083 48.2144C54.7083 48.4722 54.6938 48.6801 54.6792 48.8859C54.6231 49.6218 54.1949 50.0833 53.5338 50.1228C52.8332 50.1644 52.2158 49.707 52.2325 48.9815C52.2491 48.256 51.9186 48.0959 51.3469 47.9047C49.7275 47.3621 48.5945 46.2874 48.081 44.6202C47.842 43.8448 48.1164 43.1837 48.7567 42.9384C48.9194 42.8665 49.0961 42.8318 49.2739 42.837C49.4518 42.8422 49.6262 42.8871 49.7844 42.9684C49.9427 43.0497 50.0807 43.1654 50.1885 43.307C50.2962 43.4485 50.371 43.6124 50.4072 43.7865C51.008 46.1356 54.6293 46.2105 55.9743 44.9839C56.1504 44.8173 56.2837 44.6108 56.3631 44.3817C56.4424 44.1527 56.4654 43.9079 56.4301 43.6681C56.3949 43.4283 56.3023 43.2005 56.1604 43.004C56.0185 42.8075 55.8313 42.6481 55.6147 42.5393C54.8559 42.1235 53.9724 41.9509 53.1388 41.6869C52.4237 41.4624 51.6836 41.3294 50.9914 41.0321C49.4822 40.3731 48.5176 39.2568 48.4303 37.5335C48.3367 35.7124 49.1558 34.3882 50.7004 33.4985C51.163 33.2625 51.6392 33.0543 52.1264 32.8748C52.3343 31.3677 52.6607 30.8978 53.4777 30.9165C54.2947 30.9353 54.6169 31.4259 54.725 32.8021C55.3486 33.1014 56.0637 33.2906 56.5689 33.725C57.2635 34.3342 57.8689 35.0382 58.3671 35.8163C58.4727 35.9594 58.5448 36.1243 58.5782 36.2989C58.6117 36.4735 58.6055 36.6534 58.5603 36.8253C58.515 36.9973 58.4317 37.1568 58.3166 37.2923C58.2015 37.4278 58.0575 37.5358 57.8952 37.6083C57.2341 37.9409 56.6021 37.6894 56.1656 36.9202C55.3008 35.3923 53.671 34.8414 52.1202 35.571C51.3843 35.914 50.9082 36.4421 50.9166 37.311C50.9249 38.18 51.4758 38.5978 52.1639 38.8244C53.0453 39.1154 53.9745 39.2568 54.8663 39.5063C56.5481 39.974 58.0261 40.7411 58.6747 42.5101C59.5063 44.7968 58.3712 46.9713 55.8953 47.861C55.5274 47.9962 55.149 48.0855 54.7083 48.2144Z" fill="#98A2B3"/>
</g>
<defs>
<clipPath id="clip0_348_12160">
<rect width="72" height="77.2677" fill="white" transform="translate(0 0.732422)"/>
</clipPath>
</defs>
</svg>
