<svg width="20" height="20" viewBox="0 0 20 20" fill="none" xmlns="http://www.w3.org/2000/svg">
<g clip-path="url(#clip0_19224_47646)">
<path d="M15.8332 8.33203V9.9987C15.8332 11.5458 15.2186 13.0295 14.1246 14.1235C13.0307 15.2174 11.5469 15.832 9.99984 15.832M9.99984 15.832C8.45274 15.832 6.96901 15.2174 5.87505 14.1235C4.78109 13.0295 4.1665 11.5458 4.1665 9.9987V8.33203M9.99984 15.832V19.1654M6.6665 19.1654H13.3332M9.99984 0.832031C9.3368 0.832031 8.70091 1.09542 8.23207 1.56426C7.76323 2.03311 7.49984 2.66899 7.49984 3.33203V9.9987C7.49984 10.6617 7.76323 11.2976 8.23207 11.7665C8.70091 12.2353 9.3368 12.4987 9.99984 12.4987C10.6629 12.4987 11.2988 12.2353 11.7676 11.7665C12.2364 11.2976 12.4998 10.6617 12.4998 9.9987V3.33203C12.4998 2.66899 12.2364 2.03311 11.7676 1.56426C11.2988 1.09542 10.6629 0.832031 9.99984 0.832031Z" stroke="#98A2B3" stroke-width="1.67" stroke-linecap="round" stroke-linejoin="round"/>
</g>
<defs>
<clipPath id="clip0_19224_47646">
<rect width="20" height="20" fill="white"/>
</clipPath>
</defs>
</svg>
