<svg width="17" height="16" viewBox="0 0 17 16" fill="none" xmlns="http://www.w3.org/2000/svg">
<path d="M8.33301 11C9.99001 11 11.333 9.657 11.333 8V3C11.333 1.343 9.99001 0 8.33301 0C6.67601 0 5.33301 1.343 5.33301 3V8C5.33301 9.657 6.67601 11 8.33301 11Z" fill="#101828"/>
<path d="M13.333 8V6H12.333V7.844C12.333 9.764 11.051 11.532 9.16901 11.915C6.59901 12.438 4.33301 10.479 4.33301 8V6H3.33301V8C3.33301 10.414 5.05401 12.434 7.33301 12.899V15H5.33301V16H11.333V15H9.33301V12.899C11.612 12.434 13.333 10.414 13.333 8Z" fill="#101828"/>
</svg>
