<svg width="65" height="64" viewBox="0 0 65 64" fill="none" xmlns="http://www.w3.org/2000/svg">
<g clip-path="url(#clip0_21015_63908)">
<path d="M30.5332 3.19976V23.6264C26.3238 24.2812 22.649 26.8344 20.5669 30.551C18.4848 34.2675 18.2266 38.7347 19.8665 42.6664H3.8665C2.68976 42.6629 1.73668 41.7098 1.73317 40.5331V11.5518C1.73197 11.2462 1.7975 10.944 1.92517 10.6664H9.19984C10.3766 10.6629 11.3297 9.70984 11.3332 8.53309V1.25842C11.6108 1.13075 11.9129 1.06522 12.2185 1.06642H28.3998C29.5766 1.06994 30.5297 2.02301 30.5332 3.19976Z" fill="#E8EDFC"/>
<path d="M11.333 1.25781V8.53248C11.3295 9.70923 10.3765 10.6623 9.19972 10.6658H1.92505C2.03199 10.4316 2.18012 10.2184 2.36238 10.0365L10.7037 1.69515C10.8856 1.51288 11.0988 1.36475 11.333 1.25781Z" fill="#E8EDFC"/>
<path d="M63.5998 3.19976V40.5331C63.5963 41.7098 62.6432 42.6629 61.4665 42.6664H45.4665C47.1064 38.7347 46.8482 34.2675 44.7661 30.551C42.684 26.8344 39.0092 24.2812 34.7998 23.6264V11.5518C34.7986 11.2462 34.8641 10.944 34.9918 10.6664H42.2665C43.4432 10.6629 44.3963 9.70984 44.3998 8.53309V1.25842C44.6774 1.13075 44.9796 1.06522 45.2852 1.06642H61.4665C62.6432 1.06994 63.5963 2.02301 63.5998 3.19976Z" fill="#E8EDFC"/>
<path d="M61.4666 1.06641H58.2666C59.4434 1.06992 60.3964 2.02299 60.3999 3.19974V40.5331C60.3964 41.7098 59.4434 42.6629 58.2666 42.6664H61.4666C62.6434 42.6629 63.5964 41.7098 63.5999 40.5331V3.19974C63.5964 2.02299 62.6434 1.06992 61.4666 1.06641Z" fill="#CAD9FC"/>
<path d="M44.3999 1.25781V8.53248C44.3964 9.70923 43.4434 10.6623 42.2666 10.6658H34.9919C35.0989 10.4316 35.247 10.2184 35.4293 10.0365L43.7706 1.69515C43.9525 1.51288 44.1657 1.36475 44.3999 1.25781Z" fill="#E8EDFC"/>
<path d="M44.3466 44.8001C41.8011 48.7876 37.3973 51.2009 32.6666 51.2009C27.9359 51.2009 23.5321 48.7876 20.9866 44.8001H26.2666C28.623 44.8001 30.5332 42.8899 30.5332 40.5335V23.6268C31.9475 23.4135 33.3857 23.4135 34.7999 23.6268V40.5335C34.7999 42.8899 36.7102 44.8001 39.0666 44.8001H44.3466Z" fill="#A4C2F7"/>
<path d="M41.1464 44.8008C39.2118 47.8368 36.1697 49.9988 32.6664 50.8274C32.1392 50.9529 31.6049 51.0466 31.0664 51.108C31.5975 51.1696 32.1317 51.2006 32.6664 51.2008C37.3974 51.203 41.8021 48.7894 44.3464 44.8008H41.1464Z" fill="#7FACFA"/>
<path d="M30.5332 23.627V40.5336C30.5332 42.89 28.6229 44.8003 26.2665 44.8003H20.9865C20.5484 44.1251 20.1735 43.411 19.8665 42.667C18.2266 38.7353 18.4849 34.268 20.5669 30.5515C22.649 26.835 26.3238 24.2817 30.5332 23.627Z" fill="#E8EDFC"/>
<path d="M46.5331 37.3336C46.5329 39.1644 46.1704 40.977 45.4665 42.667C45.1595 43.411 44.7846 44.1251 44.3465 44.8003H39.0665C36.7101 44.8003 34.7998 42.89 34.7998 40.5336V23.627C41.555 24.6787 46.5356 30.497 46.5331 37.3336Z" fill="#E8EDFC"/>
<path d="M34.7998 23.627V24.539C38.1957 25.9521 40.8907 28.6571 42.2911 32.0582C43.6916 35.4594 43.6827 39.2777 42.2665 42.6723C41.9595 43.4163 41.5845 44.1304 41.1465 44.8056H44.3465C44.7848 44.1287 45.1598 43.4128 45.4665 42.667C47.1064 38.7353 46.8481 34.268 44.7661 30.5515C42.684 26.835 39.0092 24.2817 34.7998 23.627Z" fill="#CAD9FC"/>
<path d="M35.8666 50.8262V59.7328C35.8666 61.5001 34.4339 62.9328 32.6666 62.9328C30.8992 62.9328 29.4666 61.5001 29.4666 59.7328V50.8262C31.5708 51.324 33.7623 51.324 35.8666 50.8262Z" fill="#E8EDFC"/>
<path d="M4.93316 40.5326V11.5513C4.9327 10.9827 5.15925 10.4375 5.56249 10.0366C14.6217 0.97742 14.0286 1.49262 14.5332 1.25795C14.8606 1.10649 14.6878 1.06382 17.4004 1.05635C11.3396 1.04782 11.7598 1.06595 11.3332 1.25795C10.8286 1.48729 11.4217 0.97742 2.36249 10.0366C1.95925 10.4375 1.7327 10.9827 1.73315 11.5513V40.5326C1.73667 41.7094 2.68974 42.6624 3.86649 42.666H7.06649C5.88974 42.6624 4.93667 41.7094 4.93316 40.5326Z" fill="white"/>
<path d="M0.666504 32H2.79984V40.5333H0.666504V32Z" fill="white"/>
<path d="M1.73319 33.0667C2.32229 33.0667 2.79985 32.5891 2.79985 32V11.7334H9.19985C10.9672 11.7334 12.3999 10.3007 12.3999 8.53335V2.13335H28.3999C28.989 2.13335 29.4665 2.61091 29.4665 3.20002V19.2C29.4665 19.7891 29.9441 20.2667 30.5332 20.2667C31.1223 20.2667 31.5999 19.7891 31.5999 19.2V3.20002C31.5999 1.43271 30.1672 1.70313e-05 28.3999 1.70313e-05H12.2185C11.3657 -0.00276956 10.5473 0.336494 9.94652 0.941884L1.60839 9.28002C1.003 9.88076 0.663734 10.6991 0.666521 11.552V32C0.666521 32.5891 1.14408 33.0667 1.73319 33.0667ZM10.2665 3.64162V8.53335C10.2665 9.12245 9.78896 9.60002 9.19985 9.60002H4.30812L10.2665 3.64162Z" fill="#428DFF"/>
<path d="M1.73317 37.3326C2.32227 37.3326 2.79984 36.855 2.79984 36.2659C2.79984 35.6768 2.32227 35.1992 1.73317 35.1992C1.14407 35.1992 0.666504 35.6768 0.666504 36.2659C0.666504 36.855 1.14407 37.3326 1.73317 37.3326Z" fill="#428DFF"/>
<path d="M15.5998 41.6001H3.8665C3.2774 41.6001 2.79984 41.1226 2.79984 40.5335C2.79984 39.9444 2.32227 39.4668 1.73317 39.4668C1.14407 39.4668 0.666504 39.9444 0.666504 40.5335C0.666504 42.3008 2.09919 43.7335 3.8665 43.7335H15.5998C16.1889 43.7335 16.6665 43.2559 16.6665 42.6668C16.6665 42.0777 16.1889 41.6001 15.5998 41.6001Z" fill="#428DFF"/>
<path d="M25.1998 14.9336H7.06642C6.47732 14.9336 5.99976 15.4112 5.99976 16.0003C5.99976 16.5894 6.47732 17.0669 7.06642 17.0669H25.1998C25.7889 17.0669 26.2664 16.5894 26.2664 16.0003C26.2664 15.4112 25.7889 14.9336 25.1998 14.9336Z" fill="#428DFF"/>
<path d="M26.2664 21.3342C26.2664 20.7451 25.7889 20.2676 25.1998 20.2676H7.06642C6.47732 20.2676 5.99976 20.7451 5.99976 21.3342C5.99976 21.9233 6.47732 22.4009 7.06642 22.4009H25.1998C25.7889 22.4009 26.2664 21.9233 26.2664 21.3342Z" fill="#428DFF"/>
<path d="M19.0878 26.6663C19.0878 26.0772 18.6102 25.5996 18.0211 25.5996H7.06642C6.47732 25.5996 5.99976 26.0772 5.99976 26.6663C5.99976 27.2554 6.47732 27.7329 7.06642 27.7329H18.0211C18.6102 27.7329 19.0878 27.2554 19.0878 26.6663Z" fill="#428DFF"/>
<path d="M16.4104 32.0003C16.4104 31.4112 15.9329 30.9336 15.3438 30.9336H7.06642C6.47732 30.9336 5.99976 31.4112 5.99976 32.0003C5.99976 32.5894 6.47732 33.0669 7.06642 33.0669H15.3438C15.9329 33.0669 16.4104 32.5894 16.4104 32.0003Z" fill="#428DFF"/>
<path d="M14.5331 36.2676H7.06642C6.47732 36.2676 5.99976 36.7451 5.99976 37.3342C5.99976 37.9233 6.47732 38.4009 7.06642 38.4009H14.5331C15.1222 38.4009 15.5998 37.9233 15.5998 37.3342C15.5998 36.7451 15.1222 36.2676 14.5331 36.2676Z" fill="#428DFF"/>
<path d="M61.4665 1.70313e-05H45.2852C44.4323 -0.00276956 43.6139 0.336494 43.0132 0.941884L34.675 9.28002C34.0696 9.88076 33.7304 10.6991 33.7332 11.552V19.2C33.7332 19.7891 34.2107 20.2667 34.7998 20.2667C35.3889 20.2667 35.8665 19.7891 35.8665 19.2V11.7334H42.2665C44.0338 11.7334 45.4665 10.3007 45.4665 8.53335V2.13335H61.4665C62.0556 2.13335 62.5332 2.61091 62.5332 3.20002V40.5334C62.5332 41.1225 62.0556 41.6 61.4665 41.6H49.7332C49.1441 41.6 48.6665 42.0776 48.6665 42.6667C48.6665 43.2558 49.1441 43.7334 49.7332 43.7334H61.4665C63.2338 43.7334 64.6665 42.3007 64.6665 40.5334V3.20002C64.6665 1.43271 63.2338 1.70313e-05 61.4665 1.70313e-05ZM42.2665 9.60002H37.3748L43.3332 3.64162V8.53335C43.3332 9.12245 42.8556 9.60002 42.2665 9.60002Z" fill="#428DFF"/>
<path d="M40.1331 17.0669H58.2664C58.8555 17.0669 59.3331 16.5894 59.3331 16.0003C59.3331 15.4112 58.8555 14.9336 58.2664 14.9336H40.1331C39.544 14.9336 39.0664 15.4112 39.0664 16.0003C39.0664 16.5894 39.544 17.0669 40.1331 17.0669Z" fill="#428DFF"/>
<path d="M40.1331 22.4009H58.2664C58.8555 22.4009 59.3331 21.9233 59.3331 21.3342C59.3331 20.7451 58.8555 20.2676 58.2664 20.2676H40.1331C39.544 20.2676 39.0664 20.7451 39.0664 21.3342C39.0664 21.9233 39.544 22.4009 40.1331 22.4009Z" fill="#428DFF"/>
<path d="M58.2665 25.5996H47.3118C46.7227 25.5996 46.2451 26.0772 46.2451 26.6663C46.2451 27.2554 46.7227 27.7329 47.3118 27.7329H58.2665C58.8556 27.7329 59.3331 27.2554 59.3331 26.6663C59.3331 26.0772 58.8556 25.5996 58.2665 25.5996Z" fill="#428DFF"/>
<path d="M58.2666 30.9336H49.9893C49.4002 30.9336 48.9226 31.4112 48.9226 32.0003C48.9226 32.5894 49.4002 33.0669 49.9893 33.0669H58.2666C58.8557 33.0669 59.3333 32.5894 59.3333 32.0003C59.3333 31.4112 58.8557 30.9336 58.2666 30.9336Z" fill="#428DFF"/>
<path d="M58.2665 36.2676H50.7998C50.2107 36.2676 49.7332 36.7451 49.7332 37.3342C49.7332 37.9233 50.2107 38.4009 50.7998 38.4009H58.2665C58.8556 38.4009 59.3332 37.9233 59.3332 37.3342C59.3332 36.7451 58.8556 36.2676 58.2665 36.2676Z" fill="#428DFF"/>
<path d="M46.4532 31.6063L46.4425 31.5754C44.1186 26.0215 38.687 22.4062 32.6665 22.4062C26.646 22.4062 21.2144 26.0215 18.8905 31.5754L18.8798 31.6063C18.1221 33.4209 17.7324 35.3679 17.7332 37.3343C17.7332 37.6927 17.762 38.0447 17.7865 38.401V38.4106C18.239 44.5941 22.4613 49.8565 28.3998 51.6383V59.7343C28.3998 62.0907 30.3101 64.001 32.6665 64.001C35.0229 64.001 36.9332 62.0907 36.9332 59.7343V51.6383C42.8487 49.8631 47.0639 44.6333 47.5422 38.4756C47.5422 38.45 47.5572 38.4276 47.5572 38.401C47.5572 38.3743 47.5486 38.3722 47.5476 38.3562C47.571 38.017 47.5998 37.6788 47.5998 37.3343C47.6006 35.3679 47.2109 33.4209 46.4532 31.6063ZM43.7342 30.9343H40.1332C39.5441 30.9343 39.0665 31.4119 39.0665 32.001C39.0665 32.5901 39.5441 33.0676 40.1332 33.0676H44.7198C45.2109 34.4367 45.4634 35.8798 45.4665 37.3343H40.1332C39.5441 37.3343 39.0665 37.8119 39.0665 38.401C39.0665 38.9901 39.5441 39.4676 40.1332 39.4676H45.2734C45.021 40.9708 44.4996 42.4161 43.7342 43.7343H39.0665C37.2992 43.7343 35.8665 42.3016 35.8665 40.5343V24.961C39.1812 25.8222 42.014 27.9729 43.7342 30.9343ZM29.4665 24.961V40.5343C29.4665 42.3016 28.0338 43.7343 26.2665 43.7343H21.5988C20.8334 42.4161 20.312 40.9708 20.0596 39.4676H25.1998C25.7889 39.4676 26.2665 38.9901 26.2665 38.401C26.2665 37.8119 25.7889 37.3343 25.1998 37.3343H19.8665C19.8696 35.8798 20.1221 34.4367 20.6132 33.0676H25.1998C25.7889 33.0676 26.2665 32.5901 26.2665 32.001C26.2665 31.4119 25.7889 30.9343 25.1998 30.9343H21.5988C23.319 27.9729 26.1518 25.8222 29.4665 24.961ZM34.7998 59.7343C34.7998 60.9125 33.8447 61.8676 32.6665 61.8676C31.4883 61.8676 30.5332 60.9125 30.5332 59.7343V52.097C31.9463 52.3245 33.3867 52.3245 34.7998 52.097V59.7343ZM32.6665 50.1343C29.0324 50.1318 25.5718 48.5798 23.1529 45.8676H26.2665C29.2105 45.8641 31.5963 43.4784 31.5998 40.5343V24.5887C31.9529 24.5588 32.306 24.5343 32.6665 24.5343C33.027 24.5343 33.3801 24.5588 33.7332 24.5887V40.5343C33.7367 43.4784 36.1224 45.8641 39.0665 45.8676H42.1801C39.7612 48.5798 36.3006 50.1318 32.6665 50.1343Z" fill="#428DFF"/>
</g>
<defs>
<clipPath id="clip0_21015_63908">
<rect width="64" height="64" fill="white" transform="translate(0.666504)"/>
</clipPath>
</defs>
</svg>
