<svg width="72" height="72" viewBox="0 0 72 72" fill="none" xmlns="http://www.w3.org/2000/svg">
<g clip-path="url(#clip0_348_12109)">
<path d="M1.97781 71.9992C0.520803 71.492 -0.0419781 70.4829 0.00901725 69.0053C0.0800465 67.0381 -0.016476 65.0657 0.0818722 63.102C0.249428 59.7806 1.874 57.2428 4.75524 55.4464C4.91551 55.346 5.06849 55.2404 5.27612 55.1048C5.13588 54.9868 5.03935 54.8952 4.9319 54.816C1.91589 52.5688 0.755751 49.6506 1.52797 46.0315C2.25647 42.6589 5.63127 39.8129 9.19548 39.6773C10.0405 39.6439 10.3939 39.3744 10.7508 38.6207C12.2297 35.4929 14.8359 33.8656 18.3765 33.6156C18.7079 33.5927 18.9993 33.642 19.1742 33.2122C20.5875 29.7217 23.272 27.8778 27.1185 27.6154C27.5793 27.5837 27.7651 27.4234 27.9363 27.0201C29.3678 23.674 31.9649 21.7896 35.7167 21.654C39.3483 21.5219 42.1039 23.1351 43.6993 26.2646C44.2457 27.3442 44.8613 27.5837 45.9723 27.744C49.0884 28.1895 51.3377 29.8908 52.6162 32.6927C52.8931 33.3003 53.1426 33.5997 53.9221 33.6649C57.5191 33.9625 60.0579 35.7571 61.4366 39.0046C61.6333 39.4713 61.8792 39.6157 62.38 39.6439C67.2118 39.908 70.7178 43.4004 70.725 48.0462C70.725 50.672 69.5959 52.8452 67.485 54.5201C67.3029 54.668 67.1007 54.8019 66.9077 54.9445C66.8694 54.9727 66.8366 55.0062 66.7365 55.0907C67.1881 55.3901 67.6307 55.649 68.0369 55.9572C70.7214 57.9842 71.9926 60.6699 71.989 63.9438C71.989 65.631 71.9416 67.3199 72.0036 69.0053C72.0564 70.4758 71.4863 71.4867 70.033 71.9992H1.97781ZM34.726 69.5706C34.726 67.3587 34.8024 65.2277 34.7077 63.1038C34.5511 59.6238 31.6116 56.7638 27.9691 56.4115C24.5087 56.0857 21.0665 58.391 20.1686 61.6614C19.9981 62.27 19.9039 62.8962 19.8881 63.5265C19.8535 65.5306 19.8754 67.5348 19.8754 69.5618L34.726 69.5706ZM52.1427 69.5706V63.7308C52.1477 62.4632 51.814 61.216 51.1738 60.1099C50.3949 58.7623 49.1899 57.6915 47.7355 57.0548C46.2811 56.418 44.654 56.2487 43.0928 56.5718C39.9093 57.2498 37.4324 59.9901 37.2939 63.1267C37.2029 65.1837 37.2593 67.2442 37.2538 69.3047C37.2657 69.3983 37.2877 69.4903 37.3194 69.5794L52.1427 69.5706ZM2.56608 69.5548H17.3857C17.3857 67.4714 17.4221 65.4373 17.3857 63.4049C17.3074 59.7999 14.3715 56.7955 10.6233 56.4221C7.01178 56.0699 3.5004 58.5548 2.69358 62.0577C2.63235 62.2597 2.59388 62.4676 2.57884 62.6776C2.55516 64.9583 2.55879 67.2442 2.55879 69.5548H2.56608ZM54.7398 69.546H69.492C69.492 67.4661 69.492 65.432 69.492 63.3961C69.4754 62.2452 69.1544 61.1175 68.5596 60.1205C67.0261 57.4207 63.9536 56.0029 60.7081 56.5278C57.7558 57.005 55.0804 59.4847 54.7926 62.4099C54.5486 64.7487 54.7325 67.1262 54.7325 69.546H54.7398ZM62.0795 42.0214C60.4397 42.0214 58.8669 42.6503 57.706 43.7702C56.5452 44.8901 55.8911 46.4095 55.8872 47.9951C55.8872 51.4029 58.641 54.0323 62.176 54.0111C65.5508 53.99 68.3028 51.2444 68.2754 47.9247C68.2697 47.1436 68.1049 46.3712 67.7904 45.6518C67.4759 44.9323 67.0178 44.2798 66.4424 43.7316C65.867 43.1834 65.1855 42.7502 64.4369 42.4567C63.6883 42.1633 62.8873 42.0154 62.0795 42.0214ZM16.1145 48.0092C16.1166 47.2223 15.9579 46.4427 15.6475 45.7153C15.3371 44.9879 14.881 44.327 14.3056 43.7705C13.7302 43.2141 13.0467 42.7731 12.2944 42.4729C11.5421 42.1727 10.736 42.0193 9.92216 42.0214C9.1148 42.0156 8.31417 42.1636 7.56599 42.4571C6.81782 42.7506 6.13675 43.1837 5.56171 43.7317C4.98668 44.2798 4.52893 44.932 4.21462 45.6511C3.90031 46.3702 3.73559 47.1422 3.72987 47.9229C3.70801 51.2303 6.47452 53.9724 9.85842 53.9953C10.6779 54.0056 11.4912 53.858 12.2511 53.5613C13.011 53.2646 13.7022 52.8246 14.2845 52.2669C14.8667 51.7093 15.3284 51.0452 15.6426 50.3133C15.9568 49.5814 16.1172 48.7964 16.1145 48.0039V48.0092ZM21.1284 47.974C21.0665 51.181 23.7929 53.9231 27.1222 54.0006C30.5662 54.0816 33.4529 51.4275 33.5075 48.129C33.532 46.5426 32.9068 45.0112 31.7683 43.8687C30.6298 42.7262 29.0703 42.0653 27.43 42.0302C24.0151 41.9386 21.194 44.5962 21.1284 47.9687V47.974ZM44.7902 42.032C41.379 41.958 38.5634 44.6155 38.4814 47.9828C38.4049 51.1528 41.1914 53.9301 44.5043 54.0006C47.9083 54.0745 50.7731 51.4839 50.8551 48.2593C50.9425 44.8269 48.2871 42.1024 44.7902 42.0267V42.032ZM36.0482 47.0494C36.3195 45.3957 36.9115 43.971 37.9459 42.7276C38.9804 41.4842 40.3282 40.653 41.8252 40.0542C40.8108 37.4478 38.3539 35.8627 35.6639 36.023C33.1141 36.1762 30.7465 37.9233 30.2274 40.0489C34.1231 42.1552 34.1868 42.2327 36.05 47.0441L36.0482 47.0494ZM24.4467 40.0595C24.0249 38.8563 23.217 37.8147 22.1406 37.0862C21.0643 36.3576 19.7756 35.9803 18.4621 36.0089C15.8649 36.0987 13.4682 37.8123 12.8344 40.0595C16.191 41.3909 18.147 43.7966 18.6242 47.4562C19.1159 43.8072 21.0428 41.4068 24.4486 40.0542L24.4467 40.0595ZM59.1637 40.0595C58.488 37.77 56.0675 36.0635 53.4522 36.0089C52.1528 35.9956 50.8825 36.3803 49.8231 37.1079C48.7638 37.8356 47.9698 38.8688 47.5549 40.0595C50.9315 41.3927 52.8985 43.8107 53.383 47.4914C53.8401 43.7984 55.8071 41.3979 59.1655 40.0577L59.1637 40.0595ZM41.8179 28.0698C41.4059 26.8605 40.5997 25.8131 39.52 25.0843C38.4404 24.3556 37.1455 23.985 35.8296 24.028C33.2143 24.1002 30.8867 25.7574 30.1947 28.0786C32.7608 29.0807 34.6076 30.7854 35.5564 33.3443C35.6004 33.4165 35.6621 33.4769 35.7362 33.5203C35.8103 33.5636 35.8943 33.5885 35.9808 33.5927C36.075 33.5764 36.165 33.5424 36.2456 33.4926C36.3263 33.4427 36.3959 33.378 36.4507 33.3021C36.5871 33.0308 36.7087 32.7527 36.8149 32.4691C37.8567 30.3557 39.5669 28.9433 41.8198 28.068L41.8179 28.0698ZM21.5054 34.047C24.5651 35.5017 25.3865 36.3189 26.8381 39.2635C26.9164 39.4237 27.2187 39.6157 27.3535 39.584C27.4643 39.5412 27.565 39.4772 27.6495 39.3958C27.734 39.3144 27.8006 39.2172 27.8452 39.1102C28.6445 37.045 30.25 35.3654 32.3164 34.4327C32.5896 34.3059 32.8628 34.1633 33.1141 34.0329C32.6993 32.8632 31.9192 31.8467 30.8815 31.124C29.8437 30.4013 28.5995 30.0079 27.3207 29.9982C26.0375 30.0071 24.7888 30.4014 23.7474 31.1264C22.7059 31.8514 21.9231 32.8714 21.5072 34.0453L21.5054 34.047ZM38.8857 34.0276C38.9515 34.0794 39.0216 34.126 39.0952 34.1668C41.5375 35.1653 43.2841 36.8085 44.1947 39.2511C44.2449 39.3433 44.3175 39.4223 44.4064 39.4812C44.4953 39.5401 44.5976 39.5772 44.7046 39.5893C44.8091 39.5631 44.9059 39.5138 44.9875 39.4453C45.069 39.3769 45.133 39.2912 45.1745 39.1948C45.684 37.7927 46.5886 36.5563 47.7862 35.625C48.6131 34.998 49.5565 34.5137 50.458 33.9607C49.6475 31.6413 47.2617 29.9964 44.6628 29.9982C42.0638 30 39.678 31.666 38.8875 34.0294L38.8857 34.0276ZM57.4626 55.1101C55.7197 53.9671 54.5486 52.5547 53.8656 50.7566C53.8152 50.6646 53.7424 50.5857 53.6536 50.5269C53.5648 50.468 53.4626 50.4308 53.3556 50.4184C53.2516 50.4394 53.1534 50.4817 53.0676 50.5425C52.9818 50.6032 52.9105 50.681 52.8584 50.7706C52.6016 51.218 52.4796 51.7534 52.1646 52.1496C51.3322 53.1904 50.4271 54.1767 49.5183 55.221C51.121 56.1161 52.4496 57.4062 53.3684 58.9599C54.3369 57.3315 55.7569 55.9974 57.4681 55.1083L57.4626 55.1101ZM18.6314 58.9845C19.6113 57.278 20.9827 56.0611 22.6947 55.0924C21.0492 54.0612 19.7951 52.5407 19.1214 50.7601C19.0717 50.6676 18.9994 50.5881 18.9109 50.5286C18.8224 50.4691 18.7202 50.4313 18.6132 50.4184C18.5083 50.4396 18.4094 50.483 18.3238 50.5454C18.2382 50.6078 18.1679 50.6877 18.1178 50.7795C17.8592 51.225 17.739 51.7622 17.4221 52.1567C16.5916 53.1975 15.6846 54.1837 14.7777 55.2263C16.3866 56.1251 17.7188 57.4224 18.6369 58.9845H18.6314ZM39.9839 55.1629C39.2372 54.4584 38.4723 53.8931 37.915 53.1763C37.3577 52.4596 36.9861 51.5491 36.5017 50.7442C36.4468 50.6549 36.3721 50.5784 36.2829 50.5202C36.1938 50.462 36.0925 50.4237 35.9863 50.4079C35.8808 50.4295 35.7814 50.473 35.6949 50.5353C35.6085 50.5976 35.537 50.6773 35.4854 50.7689C35.2286 51.2162 35.1212 51.7551 34.7951 52.1514C33.9628 53.1922 33.054 54.1767 32.1434 55.221C33.6769 56.0294 34.9718 57.3132 36.0136 58.9458C36.9496 57.3539 38.324 56.0443 39.9839 55.1629Z" fill="#98A2B3"/>
<path d="M34.5547 4.23981C34.1249 4.67481 33.7097 5.12037 33.2598 5.53952C32.6679 6.08547 31.9394 6.1154 31.4385 5.65223C30.9031 5.15559 30.914 4.44939 31.5223 3.84532C32.6733 2.70529 33.839 1.57875 35.0191 0.465724C35.6675 -0.143625 36.3049 -0.157713 36.9424 0.439308C38.1566 1.58052 39.3568 2.73992 40.543 3.91753C41.0894 4.467 41.0894 5.19434 40.5722 5.66808C40.0549 6.14183 39.392 6.11717 38.8092 5.61173C38.5579 5.39335 38.3174 5.15912 38.0807 4.91784C37.8439 4.67657 37.6782 4.45291 37.4779 4.21339L37.2793 4.28736C37.2648 4.52159 37.2374 4.75758 37.2374 4.99181C37.2374 7.91997 37.2374 10.8493 37.2374 13.7798C37.2374 14.995 36.8404 15.5779 36.0099 15.592C35.1794 15.6061 34.7605 15.0108 34.7605 13.8168C34.7605 10.9109 34.7605 8.00509 34.7605 5.09924V4.33315L34.5547 4.23981Z" fill="#98A2B3"/>
<path d="M59.3477 17.3851C58.9307 17.8359 58.5373 18.3096 58.0892 18.7288C57.4736 19.3029 56.7215 19.3135 56.2206 18.8045C55.7198 18.2956 55.7653 17.6175 56.339 17.0434C57.4876 15.9045 58.6526 14.7786 59.834 13.6656C60.5061 13.0351 61.1399 13.0368 61.8137 13.6656C63.0121 14.7903 64.1935 15.9333 65.3579 17.0945C65.9334 17.6686 65.9261 18.3554 65.4071 18.8556C64.888 19.3558 64.1832 19.2994 63.5858 18.7658C63.125 18.3519 62.6752 17.924 62.2272 17.503C62.2126 17.4907 62.1816 17.4942 62.045 17.4714V18.2145C62.045 21.1662 62.045 24.1178 62.045 27.0695C62.0592 27.3267 62.0457 27.5846 62.005 27.8391C61.9618 28.0976 61.8259 28.3331 61.6211 28.5045C61.4163 28.6758 61.1556 28.7719 60.8849 28.776C60.6277 28.8083 60.3671 28.751 60.1496 28.6146C59.932 28.4781 59.7718 28.2713 59.6974 28.031C59.6035 27.7177 59.5605 27.3921 59.5699 27.066C59.5699 24.0914 59.5699 21.1169 59.5699 18.1406V17.5224L59.3477 17.3851Z" fill="#98A2B3"/>
<path d="M12.4317 17.5281C12.4317 20.69 12.4317 23.8506 12.4317 27.01C12.4426 27.2903 12.4213 27.5709 12.368 27.8466C12.315 28.1284 12.1547 28.3808 11.9187 28.554C11.6826 28.7271 11.3881 28.8084 11.0931 28.7817C10.4465 28.6972 10.0349 28.3432 9.96389 27.6898C9.945 27.4555 9.93892 27.2203 9.94568 26.9854C9.94568 24.0572 9.94568 21.1279 9.94568 18.1974V17.3168C9.3993 17.8452 8.97312 18.2396 8.55059 18.6341C7.85669 19.2805 7.10269 19.3386 6.57452 18.8102C6.04635 18.2819 6.1192 17.6144 6.79489 16.9523C7.88764 15.885 8.98406 14.8248 10.0841 13.7717C10.8763 13.0179 11.4774 13.0214 12.2696 13.7822C13.3757 14.8389 14.4721 15.8997 15.5588 16.9646C16.2145 17.6074 16.2782 18.3083 15.7628 18.8226C15.2474 19.3368 14.4879 19.2963 13.7867 18.6359C13.3788 18.2449 12.9999 17.8258 12.6084 17.419L12.4317 17.5281Z" fill="#98A2B3"/>
</g>
<defs>
<clipPath id="clip0_348_12109">
<rect width="72" height="72" fill="white"/>
</clipPath>
</defs>
</svg>
