<svg width="20" height="20" viewBox="0 0 20 20" fill="none" xmlns="http://www.w3.org/2000/svg">
<g clip-path="url(#clip0_1_2)">
<mask id="mask0_1_2" style="mask-type:luminance" maskUnits="userSpaceOnUse" x="0" y="0" width="20" height="20">
<path d="M20 0H0V20H20V0Z" fill="white"/>
</mask>
<g mask="url(#mask0_1_2)">
<path d="M4.99984 7.5013V1.66797H14.9998V7.5013M4.99984 15.0013H3.33317C2.89114 15.0013 2.46722 14.8257 2.15466 14.5131C1.8421 14.2006 1.6665 13.7767 1.6665 13.3346V9.16797C1.6665 8.72594 1.8421 8.30202 2.15466 7.98946C2.46722 7.6769 2.89114 7.5013 3.33317 7.5013H16.6665C17.1085 7.5013 17.5325 7.6769 17.845 7.98946C18.1576 8.30202 18.3332 8.72594 18.3332 9.16797V13.3346C18.3332 13.7767 18.1576 14.2006 17.845 14.5131C17.5325 14.8257 17.1085 15.0013 16.6665 15.0013H14.9998M4.99984 11.668H14.9998V18.3346H4.99984V11.668Z" stroke="#1B55AF" stroke-width="1.67" stroke-linecap="round" stroke-linejoin="round"/>
</g>
</g>
<defs>
<clipPath id="clip0_1_2">
<rect width="20" height="20" fill="white"/>
</clipPath>
</defs>
</svg>
