<svg width="65" height="64" viewBox="0 0 65 64" fill="none" xmlns="http://www.w3.org/2000/svg">
<g clip-path="url(#clip0_21015_62685)">
<path d="M63.5998 5.33307V9.59974H1.73315V5.33307C1.73315 2.97666 3.64341 1.06641 5.99982 1.06641H59.3332C61.6896 1.06641 63.5998 2.97666 63.5998 5.33307Z" fill="#E8EDFC"/>
<path d="M59.3331 1.06641H56.1331C58.4895 1.06641 60.3997 2.97666 60.3997 5.33307V9.59974H63.5997V5.33307C63.5997 2.97666 61.6895 1.06641 59.3331 1.06641Z" fill="#CAD9FC"/>
<path d="M63.5998 9.59961V58.6663C63.5998 61.0227 61.6896 62.9329 59.3332 62.9329H5.99982C3.64341 62.9329 1.73315 61.0227 1.73315 58.6663V9.59961H63.5998Z" fill="white"/>
<path d="M60.3997 9.59961V58.6663C60.3997 61.0227 58.4895 62.9329 56.1331 62.9329H59.3331C61.6895 62.9329 63.5997 61.0227 63.5997 58.6663V9.59961H60.3997Z" fill="#E8EDFC"/>
<path d="M7.06642 6.40091C7.65553 6.40091 8.13309 5.92335 8.13309 5.33424C8.13309 4.74514 7.65553 4.26758 7.06642 4.26758C6.47732 4.26758 5.99976 4.74514 5.99976 5.33424C5.99976 5.92335 6.47732 6.40091 7.06642 6.40091Z" fill="#E8EDFC"/>
<path d="M11.3333 6.40091C11.9224 6.40091 12.3999 5.92335 12.3999 5.33424C12.3999 4.74514 11.9224 4.26758 11.3333 4.26758C10.7442 4.26758 10.2666 4.74514 10.2666 5.33424C10.2666 5.92335 10.7442 6.40091 11.3333 6.40091Z" fill="#E8EDFC"/>
<path d="M15.5999 6.40091C16.189 6.40091 16.6665 5.92335 16.6665 5.33424C16.6665 4.74514 16.189 4.26758 15.5999 4.26758C15.0108 4.26758 14.5332 4.74514 14.5332 5.33424C14.5332 5.92335 15.0108 6.40091 15.5999 6.40091Z" fill="#E8EDFC"/>
<path d="M57.1997 6.40091H56.1331C55.544 6.40091 55.0664 5.92335 55.0664 5.33424C55.0664 4.74514 55.544 4.26758 56.1331 4.26758H57.1997C57.7888 4.26758 58.2664 4.74514 58.2664 5.33424C58.2664 5.92335 57.7888 6.40091 57.1997 6.40091Z" fill="#428DFF"/>
<path d="M51.8666 6.40091H45.4666C44.8775 6.40091 44.3999 5.92335 44.3999 5.33424C44.3999 4.74514 44.8775 4.26758 45.4666 4.26758H51.8666C52.4557 4.26758 52.9332 4.74514 52.9332 5.33424C52.9332 5.92335 52.4557 6.40091 51.8666 6.40091Z" fill="#428DFF"/>
<path d="M54 13.8672H11.3333C10.1551 13.8672 9.19995 14.8223 9.19995 16.0005V33.0672C9.19995 34.2454 10.1551 35.2005 11.3333 35.2005H54C55.1782 35.2005 56.1333 34.2454 56.1333 33.0672V16.0005C56.1333 14.8223 55.1782 13.8672 54 13.8672Z" fill="#A4C2F7"/>
<path d="M53.9998 13.8672H50.7998C51.978 13.8672 52.9331 14.8223 52.9331 16.0005V33.0672C52.9331 34.2454 51.978 35.2005 50.7998 35.2005H53.9998C55.178 35.2005 56.1331 34.2454 56.1331 33.0672V16.0005C56.1331 14.8223 55.178 13.8672 53.9998 13.8672Z" fill="#7FACFA"/>
<path d="M32.6666 30.9328C36.2012 30.9328 39.0666 28.0674 39.0666 24.5328C39.0666 20.9982 36.2012 18.1328 32.6666 18.1328C29.132 18.1328 26.2666 20.9982 26.2666 24.5328C26.2666 28.0674 29.132 30.9328 32.6666 30.9328Z" fill="#E8EDFC"/>
<path d="M32.6664 18.1328C32.1262 18.1359 31.5886 18.2076 31.0664 18.3462C33.8909 19.0729 35.8653 21.6195 35.8653 24.536C35.8653 27.4525 33.8909 29.9992 31.0664 30.7259C33.4698 31.3523 36.0186 30.5317 37.605 28.6207C39.1914 26.7096 39.5289 24.0533 38.4708 21.8063C37.4127 19.5593 35.1501 18.1273 32.6664 18.1328Z" fill="#CAD9FC"/>
<path d="M32.6666 43.7329V56.5329C32.6631 57.7097 31.71 58.6628 30.5333 58.6663H11.3333C10.1565 58.6628 9.20347 57.7097 9.19995 56.5329V43.7329C9.20347 42.5562 10.1565 41.6031 11.3333 41.5996H13.4666V53.3329C13.4666 53.922 13.9442 54.3996 14.5333 54.3996H27.3333C27.9224 54.3996 28.4 53.922 28.4 53.3329V41.5996H30.5333C31.71 41.6031 32.6631 42.5562 32.6666 43.7329Z" fill="#E8EDFC"/>
<path d="M30.5333 41.5996H28.3999V41.8972C29.0563 42.2762 29.4624 42.975 29.4666 43.7329V56.5329C29.4631 57.7097 28.51 58.6628 27.3333 58.6663H30.5333C31.71 58.6628 32.6631 57.7097 32.6666 56.5329V43.7329C32.6631 42.5562 31.71 41.6031 30.5333 41.5996Z" fill="#CAD9FC"/>
<path d="M20.9332 41.6001V52.2668C20.9297 51.09 19.9766 50.137 18.7999 50.1335H13.4666V40.5335C13.4666 39.9444 13.9441 39.4668 14.5332 39.4668H18.7999C19.9766 39.4703 20.9297 40.4234 20.9332 41.6001Z" fill="white"/>
<path d="M28.3998 40.5335V50.1335H23.0664C21.8897 50.137 20.9366 51.09 20.9331 52.2668V41.6001C20.9366 40.4234 21.8897 39.4703 23.0664 39.4668H27.3331C27.9222 39.4668 28.3998 39.9444 28.3998 40.5335Z" fill="white"/>
<path d="M27.3331 39.4668H24.1331C24.7222 39.4668 25.1997 39.9444 25.1997 40.5335V50.1335H28.3997V40.5335C28.3997 39.9444 27.9222 39.4668 27.3331 39.4668Z" fill="#E8EDFC"/>
<path d="M20.9332 52.2661V54.3995H14.5332C13.9441 54.3995 13.4666 53.9219 13.4666 53.3328V50.1328H18.7999C19.9766 50.1363 20.9297 51.0894 20.9332 52.2661Z" fill="#E8EDFC"/>
<path d="M28.3998 50.1328V53.3328C28.3998 53.9219 27.9222 54.3995 27.3331 54.3995H20.9331V52.2661C20.9366 51.0894 21.8897 50.1363 23.0664 50.1328H28.3998Z" fill="#E8EDFC"/>
<path d="M5.99982 62.9331H9.19982C6.84341 62.9331 4.93315 61.0228 4.93315 58.6664V5.33307C4.93315 2.97666 6.84341 1.06641 9.19982 1.06641H5.99982C3.64341 1.06641 1.73315 2.97666 1.73315 5.33307V58.6664C1.73315 61.0228 3.64341 62.9331 5.99982 62.9331Z" fill="white"/>
<path d="M0.666504 50.1328H2.79984V58.6661H0.666504V50.1328Z" fill="white"/>
<path d="M1.79174 55.4673C1.20264 55.4703 0.722686 54.9951 0.71974 54.406C0.716795 53.8169 1.19197 53.3369 1.78107 53.334H1.79174C2.38084 53.334 2.85841 53.8115 2.85841 54.4007C2.85841 54.9898 2.38084 55.4673 1.79174 55.4673Z" fill="#4590FF"/>
<path d="M59.3332 0H5.99984C3.05578 0.00352653 0.67003 2.38928 0.666504 5.33333V50.1333C0.666504 50.7224 1.14407 51.2 1.73317 51.2C2.32227 51.2 2.79984 50.7224 2.79984 50.1333V10.6667H62.5332V58.6667C62.5332 60.434 61.1005 61.8667 59.3332 61.8667H5.99984C4.23253 61.8667 2.79984 60.434 2.79984 58.6667C2.79984 58.0776 2.32227 57.6 1.73317 57.6C1.14407 57.6 0.666504 58.0776 0.666504 58.6667C0.67003 61.6107 3.05578 63.9965 5.99984 64H59.3332C62.2772 63.9965 64.663 61.6107 64.6665 58.6667V5.33333C64.663 2.38928 62.2772 0.00352653 59.3332 0ZM62.5332 8.53333H2.79984V5.33333C2.79984 3.56602 4.23253 2.13333 5.99984 2.13333H59.3332C61.1005 2.13333 62.5332 3.56602 62.5332 5.33333V8.53333Z" fill="#4590FF"/>
<path d="M57.1997 16.0008C57.1997 14.2335 55.767 12.8008 53.9997 12.8008H11.3331C9.56575 12.8008 8.13306 14.2335 8.13306 16.0008V33.0674C8.13306 34.8348 9.56575 36.2674 11.3331 36.2674H53.9997C55.767 36.2674 57.1997 34.8348 57.1997 33.0674V16.0008ZM55.0664 33.0674C55.0664 33.6566 54.5888 34.1341 53.9997 34.1341H11.3331C10.744 34.1341 10.2664 33.6566 10.2664 33.0674V16.0008C10.2664 15.4117 10.744 14.9341 11.3331 14.9341H53.9997C54.5888 14.9341 55.0664 15.4117 55.0664 16.0008V33.0674Z" fill="#4590FF"/>
<path d="M32.6666 17.0664C28.5429 17.0664 25.2 20.4093 25.2 24.5331C25.2 28.6568 28.5429 31.9997 32.6666 31.9997C36.7903 31.9997 40.1333 28.6568 40.1333 24.5331C40.1286 20.4113 36.7884 17.0711 32.6666 17.0664ZM32.6666 29.8664C29.7211 29.8664 27.3333 27.4786 27.3333 24.5331C27.3333 21.5876 29.7211 19.1997 32.6666 19.1997C35.6121 19.1997 38 21.5876 38 24.5331C37.9964 27.4771 35.6107 29.8629 32.6666 29.8664Z" fill="#4590FF"/>
<path d="M35.3919 23.6468L32.1919 21.5134C31.7017 21.1865 31.0394 21.3188 30.7124 21.8089C30.3855 22.299 30.5177 22.9614 31.0079 23.2884L32.8799 24.5342L31.0111 25.7801C30.694 25.9916 30.5139 26.3562 30.5385 26.7365C30.5631 27.1169 30.7888 27.4552 31.1305 27.624C31.4722 27.7928 31.878 27.7665 32.1951 27.555L35.3951 25.4217C35.6918 25.2239 35.87 24.8908 35.87 24.5342C35.87 24.1776 35.6918 23.8446 35.3951 23.6468H35.3919Z" fill="#4590FF"/>
<path d="M8.13306 56.5337C8.13306 58.301 9.56575 59.7337 11.3331 59.7337H30.5331C32.3004 59.7337 33.7331 58.301 33.7331 56.5337V43.7337C33.7331 41.9664 32.3004 40.5337 30.5331 40.5337H29.4664C29.4664 39.3555 28.5113 38.4004 27.3331 38.4004H23.0664C22.2787 38.3997 21.5187 38.6908 20.9331 39.2175C20.3474 38.6908 19.5874 38.3997 18.7997 38.4004H14.5331C13.3548 38.4004 12.3997 39.3555 12.3997 40.5337H11.3331C9.56575 40.5337 8.13306 41.9664 8.13306 43.7337V56.5337ZM21.9997 41.6004C21.9997 41.0113 22.4773 40.5337 23.0664 40.5337H27.3331V49.0671H23.0664C22.7022 49.0706 22.3413 49.137 21.9997 49.2633V41.6004ZM21.9997 52.2671C21.9997 51.678 22.4773 51.2004 23.0664 51.2004H27.3331V53.3337H21.9997V52.2671ZM14.5331 40.5337H18.7997C19.3888 40.5337 19.8664 41.0113 19.8664 41.6004V49.2633C19.5248 49.137 19.1639 49.0706 18.7997 49.0671H14.5331V40.5337ZM14.5331 51.2004H18.7997C19.3888 51.2004 19.8664 51.678 19.8664 52.2671V53.3337H14.5331V51.2004ZM10.2664 43.7337C10.2664 43.1446 10.744 42.6671 11.3331 42.6671H12.3997V53.3337C12.3997 54.5119 13.3548 55.4671 14.5331 55.4671H27.3331C28.5113 55.4671 29.4664 54.5119 29.4664 53.3337V42.6671H30.5331C31.1222 42.6671 31.5997 43.1446 31.5997 43.7337V56.5337C31.5997 57.1228 31.1222 57.6004 30.5331 57.6004H11.3331C10.744 57.6004 10.2664 57.1228 10.2664 56.5337V43.7337Z" fill="#4590FF"/>
<path d="M56.1331 42.666H39.0664C38.4773 42.666 37.9998 43.1436 37.9998 43.7327C37.9998 44.3218 38.4773 44.7993 39.0664 44.7993H56.1331C56.7222 44.7993 57.1998 44.3218 57.1998 43.7327C57.1998 43.1436 56.7222 42.666 56.1331 42.666Z" fill="#4590FF"/>
<path d="M39.0664 57.6001H48.6664C49.2555 57.6001 49.7331 57.1226 49.7331 56.5335C49.7331 55.9444 49.2555 55.4668 48.6664 55.4668H39.0664C38.4773 55.4668 37.9998 55.9444 37.9998 56.5335C37.9998 57.1226 38.4773 57.6001 39.0664 57.6001Z" fill="#4590FF"/>
<path d="M39.0664 49.0669H48.6664C49.2555 49.0669 49.7331 48.5894 49.7331 48.0003C49.7331 47.4112 49.2555 46.9336 48.6664 46.9336H39.0664C38.4773 46.9336 37.9998 47.4112 37.9998 48.0003C37.9998 48.5894 38.4773 49.0669 39.0664 49.0669Z" fill="#4590FF"/>
<path d="M39.0664 53.3326H41.1998C41.7889 53.3326 42.2664 52.855 42.2664 52.2659C42.2664 51.6768 41.7889 51.1992 41.1998 51.1992H39.0664C38.4773 51.1992 37.9998 51.6768 37.9998 52.2659C37.9998 52.855 38.4773 53.3326 39.0664 53.3326Z" fill="#4590FF"/>
<path d="M56.1331 46.9336H52.9331C52.344 46.9336 51.8665 47.4112 51.8665 48.0003C51.8665 48.5894 52.344 49.0669 52.9331 49.0669H56.1331C56.7222 49.0669 57.1998 48.5894 57.1998 48.0003C57.1998 47.4112 56.7222 46.9336 56.1331 46.9336Z" fill="#4590FF"/>
<path d="M57.1999 52.2659C57.1999 51.6768 56.7223 51.1992 56.1332 51.1992H45.4666C44.8775 51.1992 44.3999 51.6768 44.3999 52.2659C44.3999 52.855 44.8775 53.3326 45.4666 53.3326H56.1332C56.7223 53.3326 57.1999 52.855 57.1999 52.2659Z" fill="#4590FF"/>
</g>
<defs>
<clipPath id="clip0_21015_62685">
<rect width="64" height="64" fill="white" transform="translate(0.666504)"/>
</clipPath>
</defs>
</svg>
