<svg width="64" height="64" viewBox="0 0 64 64" fill="none" xmlns="http://www.w3.org/2000/svg">
<g id="rating 1" clip-path="url(#clip0_21015_63605)">
<g id="Page-1">
<g id="045---Rating">
<path id="Rectangle-path" d="M54.4 11.7324H9.60004C7.24363 11.7324 5.33337 13.6427 5.33337 15.9991V58.6658C5.33337 61.0222 7.24363 62.9324 9.60004 62.9324H54.4C56.7565 62.9324 58.6667 61.0222 58.6667 58.6658V15.9991C58.6667 13.6427 56.7565 11.7324 54.4 11.7324Z" fill="#CAD9FC"/>
<path id="Rectangle-path_2" d="M51.2 11.7324H9.60004C7.24363 11.7324 5.33337 13.6427 5.33337 15.9991V58.6658C5.33337 61.0222 7.24363 62.9324 9.60004 62.9324H51.2C53.5565 62.9324 55.4667 61.0222 55.4667 58.6658V15.9991C55.4667 13.6427 53.5565 11.7324 51.2 11.7324Z" fill="#E8EDFC"/>
<path id="Shape" d="M32.9655 30.8575L33.4063 31.7962C33.5574 32.1181 33.8591 32.3436 34.2108 32.3973L35.2813 32.5608C35.6765 32.6212 36.0047 32.8976 36.1316 33.2767C36.2586 33.6558 36.1628 34.0741 35.8836 34.3602L35.0426 35.2222C34.8062 35.4645 34.6988 35.8047 34.7534 36.1389L34.9425 37.2989C35.0082 37.702 34.8379 38.1072 34.504 38.3425C34.1701 38.5777 33.7312 38.6016 33.3737 38.4041L32.516 37.9299C32.1949 37.7524 31.8051 37.7524 31.4839 37.9299L30.6262 38.4041C30.2687 38.6016 29.8298 38.5777 29.4959 38.3425C29.162 38.1072 28.9918 37.702 29.0575 37.2989L29.2466 36.1389C29.3011 35.8047 29.1938 35.4645 28.9573 35.2222L28.1164 34.3602C27.8371 34.0741 27.7414 33.6558 27.8683 33.2767C27.9952 32.8976 28.3235 32.6212 28.7187 32.5608L29.7892 32.3973C30.1408 32.3436 30.4425 32.1181 30.5937 31.7962L31.0344 30.8575C31.2102 30.4832 31.5864 30.2441 32 30.2441C32.4135 30.2441 32.7898 30.4832 32.9655 30.8575Z" fill="#E8EDFC"/>
<path id="Shape_2" d="M18.0322 30.8575L18.4729 31.7962C18.6241 32.1181 18.9258 32.3436 19.2774 32.3973L20.3479 32.5608C20.7431 32.6212 21.0714 32.8976 21.1983 33.2767C21.3252 33.6558 21.2295 34.0741 20.9503 34.3602L20.1093 35.2222C19.8728 35.4645 19.7655 35.8047 19.82 36.1389L20.0091 37.2989C20.0748 37.702 19.9046 38.1072 19.5707 38.3425C19.2368 38.5777 18.7979 38.6016 18.4404 38.4041L17.5827 37.9299C17.2615 37.7524 16.8717 37.7524 16.5506 37.9299L15.6929 38.4041C15.3354 38.6016 14.8965 38.5777 14.5626 38.3425C14.2287 38.1072 14.0584 37.702 14.1241 37.2989L14.3132 36.1389C14.3678 35.8047 14.2604 35.4645 14.024 35.2222L13.183 34.3602C12.9038 34.0741 12.808 33.6558 12.935 33.2767C13.0619 32.8976 13.3901 32.6212 13.7854 32.5608L14.8559 32.3973C15.2075 32.3436 15.5092 32.1181 15.6603 31.7962L16.1011 30.8575C16.2768 30.4832 16.6531 30.2441 17.0666 30.2441C17.4802 30.2441 17.8564 30.4832 18.0322 30.8575Z" fill="#E8EDFC"/>
<path id="Shape_3" d="M47.8989 30.8575L48.3396 31.7962C48.4908 32.1181 48.7925 32.3436 49.1441 32.3973L50.2146 32.5608C50.6098 32.6212 50.9381 32.8976 51.065 33.2767C51.1919 33.6558 51.0962 34.0741 50.817 34.3602L49.976 35.2222C49.7395 35.4645 49.6322 35.8047 49.6867 36.1389L49.8758 37.2989C49.9415 37.702 49.7713 38.1072 49.4374 38.3425C49.1035 38.5777 48.6646 38.6016 48.3071 38.4041L47.4494 37.9299C47.1282 37.7524 46.7384 37.7524 46.4173 37.9299L45.5596 38.4041C45.2021 38.6016 44.7632 38.5777 44.4293 38.3425C44.0954 38.1072 43.9251 37.702 43.9908 37.2989L44.1799 36.1389C44.2345 35.8047 44.1271 35.4645 43.8907 35.2222L43.0497 34.3602C42.7705 34.0741 42.6747 33.6558 42.8017 33.2767C42.9286 32.8976 43.2568 32.6212 43.6521 32.5608L44.7226 32.3973C45.0742 32.3436 45.3759 32.1181 45.527 31.7962L45.9678 30.8575C46.1435 30.4832 46.5198 30.2441 46.9333 30.2441C47.3469 30.2441 47.7231 30.4832 47.8989 30.8575Z" fill="#E8EDFC"/>
<path id="Shape_4" d="M43.7333 12.8C43.7351 15.9125 42.4995 18.8979 40.2986 21.0987C38.0978 23.2995 35.1124 24.5351 32 24.5334C31.4644 24.5375 30.9293 24.4983 30.4 24.416C24.5939 23.6207 20.2667 18.6604 20.2667 12.8C20.2667 6.93969 24.5939 1.97939 30.4 1.18404C30.9293 1.10177 31.4644 1.06254 32 1.06671C35.1124 1.06495 38.0978 2.30057 40.2986 4.50138C42.4995 6.70219 43.7351 9.68763 43.7333 12.8Z" fill="#7FACFA"/>
<path id="Oval" d="M30.3999 24.4156C35.9964 24.4156 40.5333 19.2149 40.5333 12.7996C40.5333 6.38425 35.9964 1.18359 30.3999 1.18359C24.8034 1.18359 20.2666 6.38425 20.2666 12.7996C20.2666 19.2149 24.8034 24.4156 30.3999 24.4156Z" fill="#A4C2F7"/>
<path id="Oval_2" d="M32 16.0007C34.9455 16.0007 37.3333 13.6128 37.3333 10.6673C37.3333 7.7218 34.9455 5.33398 32 5.33398C29.0544 5.33398 26.6666 7.7218 26.6666 10.6673C26.6666 13.6128 29.0544 16.0007 32 16.0007Z" fill="#E8EDFC"/>
<path id="Shape_5" d="M40.9919 20.3413C38.7613 22.9987 35.4694 24.5334 31.9999 24.5334C28.5304 24.5334 25.2386 22.9987 23.0079 20.3413C24.4693 18.1867 27.1466 16 31.9999 16C36.8533 16 39.5306 18.1867 40.9919 20.3413Z" fill="#E8EDFC"/>
<path id="Shape_6" d="M8.53337 58.6658V15.9991C8.53306 14.8674 8.98249 13.782 9.78271 12.9818C10.5829 12.1815 11.6684 11.7321 12.8 11.7324H9.60004C8.46836 11.7321 7.38293 12.1815 6.58271 12.9818C5.78249 13.782 5.33306 14.8674 5.33337 15.9991V58.6658C5.33306 59.7974 5.78249 60.8829 6.58271 61.6831C7.38293 62.4833 8.46836 62.9327 9.60004 62.9324H12.8C11.6684 62.9327 10.5829 62.4833 9.78271 61.6831C8.98249 60.8829 8.53306 59.7974 8.53337 58.6658Z" fill="white"/>
<path id="Shape_7" d="M32 25.6C24.9307 25.6 19.2 19.8692 19.2 12.8C19.2 5.73076 24.9307 0 32 0C39.0692 0 44.8 5.73076 44.8 12.8C44.7921 19.866 39.0659 25.5921 32 25.6ZM32 2.13333C26.1089 2.13333 21.3333 6.90896 21.3333 12.8C21.3333 18.691 26.1089 23.4667 32 23.4667C37.891 23.4667 42.6666 18.691 42.6666 12.8C42.6599 6.91174 37.8882 2.14003 32 2.13333Z" fill="#428DFF"/>
<path id="Shape_8" d="M6.39994 16V29.8667V58.6667H4.2666V29.8667V16H6.39994Z" fill="white"/>
<g id="Group">
<path id="Shape_9" d="M5.33327 21.3333C5.92167 21.3316 6.39824 20.8551 6.39994 20.2667V16H4.2666V20.2667C4.2683 20.8551 4.74487 21.3316 5.33327 21.3333Z" fill="#428DFF"/>
<path id="Shape_10" d="M4.2666 58.6677H6.39994V28.801C6.39994 28.2119 5.92237 27.7344 5.33327 27.7344C4.74416 27.7344 4.2666 28.2119 4.2666 28.801V58.6677Z" fill="#428DFF"/>
<path id="Shape_11" d="M6.39998 24.5335C6.39576 24.2511 6.28531 23.9807 6.09065 23.7761L5.93065 23.6481C5.87118 23.6078 5.80661 23.5755 5.73865 23.5521C5.67821 23.5213 5.61349 23.4997 5.54665 23.4881C5.47611 23.4761 5.40483 23.469 5.33332 23.4668C5.0509 23.4707 4.78039 23.5812 4.57598 23.7761C4.31709 24.0255 4.20351 24.3898 4.27483 24.7421C4.34615 25.0944 4.5925 25.3858 4.92798 25.5148C5.05622 25.5695 5.19393 25.5984 5.33332 25.6001C5.61709 25.603 5.89008 25.4916 6.09074 25.2909C6.29141 25.0902 6.40286 24.8172 6.39998 24.5335Z" fill="#428DFF"/>
<path id="Shape_12" d="M5.33327 17.068C4.74416 17.068 4.2666 16.5904 4.2666 16.0013C4.27007 13.0572 6.65585 10.6714 9.59994 10.668H20.3199C20.909 10.668 21.3866 11.1455 21.3866 11.7346C21.3866 12.3237 20.909 12.8013 20.3199 12.8013H9.59994C7.83343 12.8032 6.40188 14.2348 6.39994 16.0013C6.39994 16.5904 5.92237 17.068 5.33327 17.068Z" fill="#428DFF"/>
<path id="Shape_13" d="M54.3999 64.0013H9.59994C6.65585 63.9978 4.27007 61.6121 4.2666 58.668C4.2666 58.0789 4.74416 57.6013 5.33327 57.6013C5.92237 57.6013 6.39994 58.0789 6.39994 58.668C6.40188 60.4345 7.83343 61.866 9.59994 61.868H54.3999C56.1664 61.866 57.598 60.4345 57.5999 58.668V16.0013C57.598 14.2348 56.1664 12.8032 54.3999 12.8013H43.6799C43.0908 12.8013 42.6133 12.3237 42.6133 11.7346C42.6133 11.1455 43.0908 10.668 43.6799 10.668H54.3999C57.344 10.6714 59.7298 13.0572 59.7333 16.0013V58.668C59.7298 61.6121 57.344 63.9978 54.3999 64.0013Z" fill="#428DFF"/>
<path id="Shape_14" d="M32 17.0676C28.4654 17.0676 25.6 14.2022 25.6 10.6676C25.6 7.13296 28.4654 4.26758 32 4.26758C35.5346 4.26758 38.4 7.13296 38.4 10.6676C38.3961 14.2006 35.533 17.0637 32 17.0676ZM32 6.40091C29.6436 6.40091 27.7333 8.31116 27.7333 10.6676C27.7333 13.024 29.6436 14.9342 32 14.9342C34.3564 14.9342 36.2666 13.024 36.2666 10.6676C36.2642 8.31219 34.3554 6.40338 32 6.40091Z" fill="#428DFF"/>
<path id="Shape_15" d="M40.9933 21.4083C40.6392 21.4089 40.308 21.2336 40.1093 20.9405C38.3662 18.3701 35.638 17.0669 32 17.0669C28.362 17.0669 25.6338 18.3701 23.8907 20.9408C23.5599 21.4284 22.8965 21.5555 22.4089 21.2247C21.9213 20.894 21.7942 20.2306 22.125 19.743C23.613 17.5492 26.5339 14.9336 32 14.9336C37.4661 14.9336 40.387 17.5492 41.875 19.743C42.0967 20.0697 42.1198 20.492 41.9351 20.841C41.7504 21.1899 41.3881 21.4079 40.9933 21.4083Z" fill="#428DFF"/>
<path id="Shape_16" d="M35.296 40.5347C35.1155 40.5349 34.9378 40.489 34.7799 40.4014L32 38.865L29.2199 40.401C28.8624 40.5985 28.4235 40.5746 28.0896 40.3394C27.7557 40.1042 27.5854 39.6989 27.6511 39.2958L28.1938 35.9678L25.9032 33.6198C25.6242 33.3336 25.5287 32.9155 25.6556 32.5365C25.7825 32.1576 26.1107 31.8813 26.5058 31.8209L29.6282 31.3438L31.0344 28.348C31.2101 27.9735 31.5864 27.7344 32 27.7344C32.4137 27.7344 32.79 27.9735 32.9657 28.348L34.3719 31.3438L37.4943 31.8209C37.8894 31.8813 38.2176 32.1576 38.3445 32.5365C38.4714 32.9155 38.3759 33.3336 38.0969 33.6198L35.8063 35.9678L36.349 39.2958C36.3995 39.6047 36.3118 39.9203 36.1091 40.1588C35.9064 40.3974 35.6091 40.5348 35.296 40.5347ZM32 36.5795C32.1806 36.5797 32.3581 36.6256 32.5162 36.7129L33.8902 37.4722L33.6141 35.7806C33.5594 35.4465 33.6667 35.1062 33.9032 34.8639L35.1198 33.617L33.487 33.3667C33.1352 33.3132 32.8334 33.0878 32.6823 32.7657L32 31.3118L31.3174 32.766C31.1663 33.0881 30.8644 33.3136 30.5127 33.367L28.8798 33.617L30.0965 34.8639C30.333 35.1062 30.4402 35.4465 30.3855 35.7806L30.1095 37.4722L31.4835 36.7129C31.6416 36.6255 31.8194 36.5797 32 36.5795Z" fill="#428DFF"/>
<path id="Shape_17" d="M20.3627 40.5347C20.1821 40.5349 20.0045 40.489 19.8465 40.4014L17.0667 38.865L14.2865 40.401C13.9291 40.5985 13.4901 40.5746 13.1562 40.3394C12.8223 40.1042 12.6521 39.6989 12.7178 39.2958L13.2604 35.9678L10.9698 33.6198C10.6909 33.3336 10.5953 32.9155 10.7222 32.5365C10.8492 32.1576 11.1773 31.8813 11.5724 31.8209L14.6949 31.3438L16.101 28.348C16.2767 27.9735 16.6531 27.7344 17.0667 27.7344C17.4803 27.7344 17.8567 27.9735 18.0324 28.348L19.4385 31.3438L22.561 31.8209C22.9561 31.8813 23.2842 32.1576 23.4111 32.5365C23.5381 32.9155 23.4425 33.3336 23.1636 33.6198L20.873 35.9678L21.4156 39.2958C21.4662 39.6047 21.3785 39.9203 21.1757 40.1588C20.973 40.3974 20.6757 40.5348 20.3627 40.5347ZM17.0667 36.5795C17.2472 36.5797 17.4248 36.6256 17.5829 36.7129L18.9568 37.4722L18.6808 35.7806C18.6261 35.4465 18.7334 35.1062 18.9698 34.8639L20.1865 33.617L18.5536 33.3667C18.2019 33.3132 17.9 33.0878 17.7489 32.7657L17.0667 31.3118L16.384 32.766C16.2329 33.0881 15.9311 33.3136 15.5793 33.367L13.9465 33.617L15.1631 34.8639C15.3996 35.1062 15.5069 35.4465 15.4522 35.7806L15.1761 37.4722L16.5501 36.7129C16.7083 36.6255 16.886 36.5797 17.0667 36.5795Z" fill="#428DFF"/>
<path id="Shape_18" d="M43.6373 40.5343C43.3244 40.5343 43.0273 40.3968 42.8247 40.1584C42.6221 39.92 42.5343 39.6046 42.5847 39.2958L43.1273 35.9678L40.8368 33.6198C40.5578 33.3336 40.4623 32.9155 40.5892 32.5365C40.7161 32.1576 41.0443 31.8813 41.4393 31.8209L44.5618 31.3438L45.968 28.348C46.1437 27.9735 46.52 27.7344 46.9336 27.7344C47.3473 27.7344 47.7236 27.9735 47.8993 28.348L49.3055 31.3438L52.4285 31.8209C52.8234 31.8815 53.1514 32.1578 53.2783 32.5367C53.4051 32.9157 53.3094 33.3337 53.0305 33.6198L50.7399 35.9678L51.2825 39.2958C51.3485 39.6991 51.1781 40.1047 50.844 40.34C50.5098 40.5753 50.0706 40.599 49.7131 40.401L46.9333 38.8645L44.1532 40.4005C43.9954 40.4882 43.8178 40.5343 43.6373 40.5343ZM43.8139 33.6165L45.0305 34.8635C45.267 35.1058 45.3743 35.446 45.3196 35.7802L45.0435 37.4718L46.4175 36.7124C46.7388 36.5354 47.1285 36.5354 47.4498 36.7124L48.8232 37.4718L48.5477 35.7802C48.493 35.446 48.6003 35.1058 48.8368 34.8635L50.0534 33.6165L48.4203 33.3663C48.0685 33.3128 47.7667 33.0873 47.6156 32.7652L46.9333 31.3114L46.2507 32.7656C46.0996 33.0877 45.7977 33.3131 45.446 33.3666L43.8139 33.6165Z" fill="#428DFF"/>
<path id="Shape_19" d="M24.5333 45.8677H11.7333C11.1442 45.8677 10.6666 45.3901 10.6666 44.801C10.6666 44.2119 11.1442 43.7344 11.7333 43.7344H24.5333C25.1224 43.7344 25.6 44.2119 25.6 44.801C25.6 45.3901 25.1224 45.8677 24.5333 45.8677Z" fill="#428DFF"/>
<path id="Shape_20" d="M52.2666 45.8677H28.7999C28.2108 45.8677 27.7333 45.3901 27.7333 44.801C27.7333 44.2119 28.2108 43.7344 28.7999 43.7344H52.2666C52.8557 43.7344 53.3333 44.2119 53.3333 44.801C53.3333 45.3901 52.8557 45.8677 52.2666 45.8677Z" fill="#428DFF"/>
<path id="Shape_21" d="M52.2666 50.1333H11.7333C11.1442 50.1333 10.6666 49.6558 10.6666 49.0667C10.6666 48.4776 11.1442 48 11.7333 48H52.2666C52.8557 48 53.3333 48.4776 53.3333 49.0667C53.3333 49.6558 52.8557 50.1333 52.2666 50.1333Z" fill="#428DFF"/>
<path id="Shape_22" d="M37.3333 54.4009H11.7333C11.1442 54.4009 10.6666 53.9233 10.6666 53.3342C10.6666 52.7451 11.1442 52.2676 11.7333 52.2676H37.3333C37.9224 52.2676 38.4 52.7451 38.4 53.3342C38.4 53.9233 37.9224 54.4009 37.3333 54.4009Z" fill="#428DFF"/>
<path id="Shape_23" d="M52.2667 54.4009H41.6C41.0109 54.4009 40.5333 53.9233 40.5333 53.3342C40.5333 52.7451 41.0109 52.2676 41.6 52.2676H52.2667C52.8558 52.2676 53.3333 52.7451 53.3333 53.3342C53.3333 53.9233 52.8558 54.4009 52.2667 54.4009Z" fill="#428DFF"/>
<path id="Shape_24" d="M52.2666 58.6685H11.7333C11.1442 58.6685 10.6666 58.1909 10.6666 57.6018C10.6666 57.0127 11.1442 56.5352 11.7333 56.5352H52.2666C52.8557 56.5352 53.3333 57.0127 53.3333 57.6018C53.3333 58.1909 52.8557 58.6685 52.2666 58.6685Z" fill="#428DFF"/>
</g>
</g>
</g>
</g>
<defs>
<clipPath id="clip0_21015_63605">
<rect width="64" height="64" fill="white"/>
</clipPath>
</defs>
</svg>
