<svg width="56" height="61" viewBox="0 0 56 61" fill="none" xmlns="http://www.w3.org/2000/svg">
<g id="Layer_1" clip-path="url(#clip0_348_12837)">
<path id="Vector" d="M31.4479 60.5006V33.35H33.3007V33.9935C33.3007 36.6487 33.3007 39.3045 33.3007 41.9608C33.3007 42.9753 33.8473 43.6219 34.6903 43.6203C35.5333 43.6188 36.0799 42.9738 36.0799 41.9561C36.0799 37.8751 36.0799 33.7936 36.0799 29.7116C36.0799 27.9252 34.9064 26.7526 33.1324 26.751C29.5514 26.751 25.9699 26.751 22.3878 26.751C20.6184 26.751 19.4435 27.9315 19.4404 29.7116C19.4404 33.7926 19.4404 37.8741 19.4404 41.9561C19.4404 42.9738 19.9823 43.6203 20.8299 43.6203C21.6776 43.6203 22.2195 42.9769 22.2195 41.9608C22.2195 39.1099 22.2195 36.2589 22.2195 33.361H24.0723V60.5006H22.2195V45.3989C21.4692 45.3989 20.7512 45.5053 20.078 45.377C19.3806 45.2359 18.7531 44.8538 18.3026 44.2959C17.8521 43.738 17.6064 43.0389 17.6077 42.3178C17.5876 38.003 17.5721 33.6882 17.6077 29.3734C17.6342 28.1959 18.1064 27.0739 18.9265 26.2398C19.7465 25.4056 20.8515 24.9233 22.0126 24.8926C25.8448 24.8457 29.6765 24.8457 33.5076 24.8926C34.6692 24.9214 35.7753 25.4028 36.5959 26.237C37.4165 27.0712 37.8886 28.1939 37.9141 29.3718C37.9589 33.6866 37.9512 38.0014 37.9141 42.3162C37.8987 44.4157 35.9255 45.892 33.9106 45.3942C33.7268 45.3488 33.5446 45.3002 33.3053 45.2376V60.5006H31.4479Z" fill="#123B7A"/>
<path id="Vector_2" d="M26.8252 60.4997V47.416H28.678V60.4997H26.8252Z" fill="#123B7A"/>
<path id="Vector_3" d="M50.8698 57.6596H49.0433V30.5434H50.8637V31.1572C50.8637 33.8719 50.8559 36.5867 50.8637 39.2983C50.8637 40.4114 51.8472 41.1081 52.7859 40.687C53.0405 40.5869 53.2581 40.4093 53.4088 40.1785C53.5595 39.9477 53.6359 39.6751 53.6274 39.3985C53.6274 35.1228 53.6505 30.8456 53.615 26.57C53.5953 25.8754 53.3123 25.2153 52.8248 24.7269C52.3374 24.2385 51.6831 23.9594 50.998 23.9476C47.2044 23.9194 43.4109 23.9163 39.6173 23.9617C39.0553 23.9617 38.4979 24.2873 37.8155 24.5002L36.7192 23.2478C37.4869 22.5108 38.5 22.0938 39.5571 22.0798C43.3892 22.0563 47.2214 22.0376 51.0536 22.0798C52.2152 22.1081 53.3216 22.5888 54.143 23.4223C54.9643 24.2558 55.4377 25.3779 55.4647 26.5559C55.5095 30.8707 55.5018 35.1855 55.4647 39.5002C55.4493 41.6013 53.4776 43.0792 51.4643 42.5829C51.2805 42.5375 51.0983 42.489 50.8606 42.4263L50.8698 57.6596Z" fill="#123B7A"/>
<path id="Vector_4" d="M18.7796 23.2396L17.566 24.6267C16.8481 24.0239 16.0344 23.9206 15.1667 23.9269C11.739 23.9456 8.31141 23.9269 4.88377 23.9269C2.99857 23.9269 1.86374 25.0776 1.8622 26.9892C1.8622 31.0712 1.8622 35.1522 1.8622 39.2321C1.8622 40.411 2.88123 41.139 3.8385 40.6553C4.41749 40.3641 4.63828 39.8584 4.63673 39.2134C4.62901 36.5393 4.63673 33.8637 4.63673 31.1881V30.5227H6.43856V57.6467H4.64754V42.4338C4.41131 42.4901 4.23375 42.5308 4.05774 42.5747C2.01814 43.0929 0.0325819 41.6071 0.0186861 39.4811C-0.0101349 35.1861 -0.0101349 30.8906 0.0186861 26.5946C0.0391349 25.407 0.512052 24.2734 1.33837 23.4314C2.1647 22.5894 3.2803 22.1044 4.45145 22.0779C8.26354 22.0356 12.0772 22.0544 15.8893 22.0779C16.967 22.0794 17.9165 22.4818 18.7796 23.2396Z" fill="#123B7A"/>
<path id="Vector_5" d="M25.8988 6.60611C26.0409 9.86098 23.8993 11.9291 21.764 12.499C20.9609 12.7079 20.1219 12.7327 19.3081 12.5714C18.4944 12.4102 17.7263 12.067 17.0597 11.5669C16.3932 11.0668 15.845 10.4224 15.455 9.68039C15.0651 8.93843 14.8431 8.11764 14.8053 7.27774C14.7358 5.51332 14.9458 3.85065 16.1501 2.4604C16.8805 1.59494 17.8539 0.975992 18.9403 0.686181C20.0267 0.39637 21.1744 0.449491 22.2303 0.838446C23.2967 1.22694 24.22 1.9375 24.8759 2.87441C25.5319 3.81132 25.8888 4.92956 25.8988 6.0785C25.9019 6.25541 25.8988 6.43076 25.8988 6.60611ZM24.046 6.6202C24.046 6.46364 24.046 6.30708 24.046 6.15052C24.0152 4.14186 22.5638 2.53399 20.6493 2.38212C19.7191 2.30349 18.7944 2.58702 18.063 3.17506C17.3317 3.76309 16.8486 4.6115 16.7121 5.54776C16.6269 6.16564 16.615 6.79164 16.6766 7.41239C16.7248 7.93717 16.8822 8.44564 17.1382 8.9043C17.3943 9.36295 17.7433 9.76138 18.1623 10.0733C18.5813 10.3853 19.0606 10.6037 19.5689 10.7142C20.0771 10.8246 20.6027 10.8247 21.1109 10.7142C22.9791 10.3119 24.0507 8.8183 24.0507 6.6202H24.046Z" fill="#123B7A"/>
<path id="Vector_6" d="M29.601 6.63189C29.4466 3.05449 31.9633 0.948761 34.2422 0.576148C37.4398 0.0516721 40.4799 2.44547 40.676 5.72697C40.7501 6.97945 40.7285 8.22254 40.1896 9.3983C39.6628 10.5616 38.7612 11.5084 37.6331 12.0829C36.505 12.6574 35.2176 12.8254 33.9828 12.5592C32.7608 12.2885 31.664 11.609 30.8687 10.6299C30.0735 9.65086 29.6259 8.42914 29.5979 7.16106C29.5979 6.96536 29.601 6.76966 29.601 6.63189ZM38.8433 6.6178C38.8433 6.46124 38.8433 6.30468 38.8433 6.14812C38.8124 4.14102 37.3595 2.53158 35.4465 2.38128C34.5169 2.30349 33.5929 2.5874 32.8622 3.17536C32.1315 3.76332 31.6489 4.61125 31.5125 5.54693C31.4273 6.16481 31.4154 6.7908 31.4769 7.41156C31.5255 7.93559 31.6829 8.44328 31.9386 8.90129C32.1944 9.3593 32.5428 9.75728 32.961 10.0691C33.3792 10.3809 33.8577 10.5995 34.3651 10.7106C34.8725 10.8216 35.3973 10.8226 35.9051 10.7134C37.7733 10.311 38.8433 8.81746 38.8433 6.6178Z" fill="#123B7A"/>
<path id="Vector_7" d="M4.63645 15.0778C4.48205 11.682 6.72546 9.63423 8.8577 9.10036C12.2282 8.2565 15.5894 10.7959 15.7238 14.3154C15.7763 15.6931 15.7083 17.0426 14.9996 18.281C14.3997 19.3492 13.4705 20.1882 12.3548 20.669C11.2391 21.1498 9.99853 21.2459 8.82372 20.9425C7.63938 20.6395 6.58688 19.9483 5.82971 18.9764C5.07253 18.0045 4.65306 16.8063 4.63645 15.5678C4.63336 15.3909 4.63645 15.2156 4.63645 15.0778ZM13.8772 15.0183C13.8772 14.8618 13.8772 14.6723 13.8772 14.4782C13.8549 13.5626 13.5043 12.6867 12.891 12.0144C12.2777 11.342 11.4437 10.9194 10.5453 10.8256C9.63664 10.7303 8.72577 10.9839 7.99255 11.5364C7.25934 12.0888 6.75708 12.9 6.58495 13.8097C6.47272 14.4819 6.44677 15.166 6.50775 15.845C6.64671 17.7425 8.26171 19.2235 10.1346 19.2486C12.0753 19.2736 14.0424 17.6798 13.8772 15.0183Z" fill="#123B7A"/>
<path id="Vector_8" d="M50.8634 15.0497C51.0024 18.2889 48.8732 20.3727 46.7224 20.9379C43.3164 21.846 39.9073 19.2784 39.7745 15.7104C39.7066 13.946 39.9181 12.2833 41.124 10.8946C41.8548 10.0298 42.8284 9.41159 43.9148 9.12262C45.0013 8.83364 46.1488 8.88762 47.2042 9.27734C48.2703 9.66708 49.193 10.3787 49.8481 11.3165C50.5032 12.2542 50.8591 13.373 50.868 14.5221C50.8649 14.6974 50.8619 14.8728 50.8634 15.0497ZM49.0106 15.0497C49.0106 14.8931 49.0106 14.7366 49.0106 14.58C48.9797 12.5745 47.5238 10.9651 45.6139 10.8226C44.6834 10.7436 43.7582 11.0272 43.0268 11.6156C42.2953 12.2041 41.8125 13.0531 41.6767 13.9898C41.5915 14.6082 41.5796 15.2347 41.6412 15.856C41.6891 16.3814 41.8464 16.8905 42.1027 17.3498C42.359 17.809 42.7084 18.2079 43.1279 18.5201C43.5474 18.8323 44.0275 19.0507 44.5364 19.1609C45.0453 19.2711 45.5715 19.2706 46.0801 19.1594C47.9437 18.7492 49.0137 17.2509 49.0137 15.0528L49.0106 15.0497Z" fill="#123B7A"/>
<path id="Vector_9" d="M33.2961 17.8719C33.2961 20.823 31.7644 23.0133 29.1999 23.7319C25.78 24.69 22.3369 22.1084 22.201 18.5122C22.1346 16.7681 22.3415 15.1242 23.518 13.7418C24.2489 12.8637 25.2284 12.2345 26.3237 11.9396C27.419 11.6448 28.5772 11.6984 29.6415 12.0932C30.7067 12.4849 31.6279 13.1983 32.2811 14.1372C32.9342 15.076 33.2879 16.1953 33.2945 17.3443C33.2976 17.5196 33.2961 17.6949 33.2961 17.8719ZM24.0522 17.8233C24.0522 17.9987 24.0522 18.174 24.0522 18.3494C24.0644 19.3356 24.4585 20.2774 25.1494 20.9716C25.8404 21.6658 26.7728 22.0566 27.7455 22.0598C28.7189 22.0599 29.6534 21.6716 30.3468 20.9787C31.0401 20.2859 31.4368 19.3442 31.451 18.3572C31.4587 17.9674 31.4634 17.5744 31.451 17.1877C31.4249 16.6459 31.2829 16.1164 31.0348 15.6359C30.7866 15.1553 30.4384 14.7353 30.0141 14.4049C29.5899 14.0745 29.0998 13.8417 28.578 13.7226C28.0561 13.6035 27.5149 13.601 26.992 13.7152C25.1176 14.1254 24.0507 15.6205 24.0522 17.8233Z" fill="#123B7A"/>
<path id="Vector_10" d="M13.9219 30.5254H15.699V57.6604H13.9219V30.5254Z" fill="#123B7A"/>
<path id="Vector_11" d="M39.8071 30.5273H41.5904V57.6404H39.8071V30.5273Z" fill="#123B7A"/>
<path id="Vector_12" d="M9.29639 44.5898H11.0781V57.6407H9.29639V44.5898Z" fill="#123B7A"/>
<path id="Vector_13" d="M44.4341 44.5879H46.2081V57.6591H44.4341V44.5879Z" fill="#123B7A"/>
</g>
<defs>
<clipPath id="clip0_348_12837">
<rect width="55.5" height="60" fill="white" transform="translate(0 0.5)"/>
</clipPath>
</defs>
</svg>
