<svg width="65" height="64" viewBox="0 0 65 64" fill="none" xmlns="http://www.w3.org/2000/svg">
<g clip-path="url(#clip0_21015_62813)">
<path d="M58.2665 29.866V59.7327C58.2665 61.5 56.8338 62.9327 55.0665 62.9327H4.93315C3.16584 62.9327 1.73315 61.5 1.73315 59.7327V55.466L4.98649 52.4153C5.63404 51.8112 6.00114 50.965 5.99982 50.0794V39.5193C6.00114 38.6337 5.63404 37.7875 4.98649 37.1834L1.73315 34.1327V29.866C1.73315 28.0987 3.16584 26.666 4.93315 26.666H12.3998V52.266H51.8665V26.666H55.0665C56.8338 26.666 58.2665 28.0987 58.2665 29.866Z" fill="#E8EDFC"/>
<path d="M9.19995 26.666H12.4V52.266H9.19995V26.666Z" fill="#CAD9FC"/>
<path d="M55.0665 26.666H51.8665C53.6338 26.666 55.0665 28.0987 55.0665 29.866V59.7327C55.0665 61.5 53.6338 62.9327 51.8665 62.9327H55.0665C56.8338 62.9327 58.2665 61.5 58.2665 59.7327V29.866C58.2665 28.0987 56.8338 26.666 55.0665 26.666Z" fill="#CAD9FC"/>
<path d="M63.5997 29.866V59.7327C63.5997 61.5 62.1671 62.9327 60.3997 62.9327H55.0664C56.8337 62.9327 58.2664 61.5 58.2664 59.7327V29.866C58.2664 28.0987 56.8337 26.666 55.0664 26.666H60.3997C62.1671 26.666 63.5997 28.0987 63.5997 29.866Z" fill="#A4C2F7"/>
<path d="M5.99982 39.5195V50.0795C6.00114 50.9651 5.63404 51.8113 4.98649 52.4155L1.73315 55.4661V34.1328L4.98649 37.1835C5.63404 37.7876 6.00114 38.6339 5.99982 39.5195Z" fill="#A4C2F7"/>
<path d="M51.8666 8.53307V52.2664H12.3999V3.19974C12.4034 2.02299 13.3565 1.06992 14.5332 1.06641H44.3999V6.04774C44.3988 6.70724 44.6603 7.34005 45.1266 7.80639C45.5929 8.27273 46.2257 8.53421 46.8852 8.53307H51.8666Z" fill="#E8EDFC"/>
<path d="M43.6853 8.53307L46.8853 8.53308C46.2258 8.53421 45.593 8.27273 45.1266 7.80639C44.6603 7.34005 44.3988 6.70724 44.4 6.04774V1.06641H41.2L41.2 6.04774C41.1988 6.70724 41.4603 7.34005 41.9266 7.80639C42.393 8.27273 43.0258 8.53421 43.6853 8.53307Z" fill="#CAD9FC"/>
<path d="M48.6665 8.5332H51.8665V52.2665H48.6665V8.5332Z" fill="#CAD9FC"/>
<path d="M51.8666 8.53308L46.8852 8.53307C46.2257 8.53421 45.5929 8.27273 45.1266 7.80639C44.6603 7.34005 44.3988 6.70724 44.3999 6.04774L44.3999 1.06641L51.8666 8.53308Z" fill="#A4C2F7"/>
<path d="M19.8665 15.9991C21.0447 15.9991 21.9998 15.044 21.9998 13.8658C21.9998 12.6875 21.0447 11.7324 19.8665 11.7324C18.6883 11.7324 17.7332 12.6875 17.7332 13.8658C17.7332 15.044 18.6883 15.9991 19.8665 15.9991Z" fill="#E8EDFC"/>
<path d="M19.8665 24.5342C21.0447 24.5342 21.9998 23.5791 21.9998 22.4009C21.9998 21.2227 21.0447 20.2676 19.8665 20.2676C18.6883 20.2676 17.7332 21.2227 17.7332 22.4009C17.7332 23.5791 18.6883 24.5342 19.8665 24.5342Z" fill="#E8EDFC"/>
<path d="M19.8665 33.0674C21.0447 33.0674 21.9998 32.1123 21.9998 30.9341C21.9998 29.7559 21.0447 28.8008 19.8665 28.8008C18.6883 28.8008 17.7332 29.7559 17.7332 30.9341C17.7332 32.1123 18.6883 33.0674 19.8665 33.0674Z" fill="#E8EDFC"/>
<path d="M4.93315 62.9327H8.13315C6.36584 62.9327 4.93315 61.5 4.93315 59.7327V29.866C4.93315 28.0987 6.36584 26.666 8.13315 26.666H4.93315C3.16584 26.666 1.73315 28.0987 1.73315 29.866V59.7327C1.73315 61.5 3.16584 62.9327 4.93315 62.9327Z" fill="white"/>
<path d="M11.3333 3.19922H13.4666V11.7326H11.3333V3.19922Z" fill="white"/>
<path d="M60.3998 25.6H52.9332V8.53333C52.9331 8.25046 52.8207 7.97919 52.6206 7.7792L45.154 0.312533C44.954 0.112481 44.6827 6.0416e-05 44.3998 0H14.5332C12.7659 0 11.3332 1.43269 11.3332 3.2C11.3332 3.7891 11.8107 4.26667 12.3998 4.26667C12.9889 4.26667 13.4665 3.7891 13.4665 3.2C13.4665 2.6109 13.9441 2.13333 14.5332 2.13333H43.3332V6.0448C43.3361 8.00706 44.9261 9.59706 46.8884 9.6H50.7998V51.2H13.4665V11.7333C13.4665 11.1442 12.9889 10.6667 12.3998 10.6667C11.8107 10.6667 11.3332 11.1442 11.3332 11.7333V25.6H4.93317C2.57676 25.6 0.666504 27.5103 0.666504 29.8667V59.7333C0.666504 62.0898 2.57676 64 4.93317 64H60.3998C62.7563 64 64.6665 62.0898 64.6665 59.7333V29.8667C64.6665 27.5103 62.7563 25.6 60.3998 25.6ZM46.8884 7.46667C46.1036 7.46549 45.4677 6.82959 45.4665 6.0448V3.6416L49.2916 7.46667H46.8884ZM2.79984 36.5952L4.25904 37.9627C4.68858 38.3668 4.93246 38.9302 4.93317 39.52V50.08C4.93318 50.6696 4.68916 51.233 4.25904 51.6363L2.79984 53.0037V36.5952ZM57.1998 59.7333C57.1998 60.9115 56.2447 61.8667 55.0665 61.8667H4.93317C3.75496 61.8667 2.79984 60.9115 2.79984 59.7333V55.9285L5.71717 53.1925C6.57664 52.3853 7.06485 51.2591 7.0665 50.08V39.52C7.06428 38.3409 6.57663 37.2148 5.71824 36.4064L2.79984 33.6715V29.8667C2.79984 28.6885 3.75496 27.7333 4.93317 27.7333H11.3332V51.2H10.2665C9.6774 51.2 9.19984 51.6776 9.19984 52.2667C9.19984 52.8558 9.6774 53.3333 10.2665 53.3333H53.9998C54.5889 53.3333 55.0665 52.8558 55.0665 52.2667C55.0665 51.6776 54.5889 51.2 53.9998 51.2H52.9332V27.7333H55.0665C56.2447 27.7333 57.1998 28.6885 57.1998 29.8667V59.7333ZM62.5332 59.7333C62.5332 60.9115 61.578 61.8667 60.3998 61.8667H58.7401C59.124 61.221 59.3288 60.4845 59.3332 59.7333V29.8667C59.3288 29.1155 59.124 28.379 58.7401 27.7333H60.3998C61.578 27.7333 62.5332 28.6885 62.5332 29.8667V59.7333Z" fill="#428DFF"/>
<path d="M12.4211 8.53372C13.0102 8.53372 13.4878 8.05616 13.4878 7.46706C13.4878 6.87795 13.0102 6.40039 12.4211 6.40039H12.4105C11.8214 6.40334 11.3462 6.88329 11.3491 7.47239C11.3521 8.06149 11.832 8.53667 12.4211 8.53372Z" fill="#428DFF"/>
<path d="M19.8665 17.066C21.6338 17.066 23.0665 15.6333 23.0665 13.866C23.0665 12.0987 21.6338 10.666 19.8665 10.666C18.0992 10.666 16.6665 12.0987 16.6665 13.866C16.6665 15.6333 18.0992 17.066 19.8665 17.066ZM19.8665 12.7993C20.4556 12.7993 20.9332 13.2769 20.9332 13.866C20.9332 14.4551 20.4556 14.9327 19.8665 14.9327C19.2774 14.9327 18.7998 14.4551 18.7998 13.866C18.7998 13.2769 19.2774 12.7993 19.8665 12.7993Z" fill="#428DFF"/>
<path d="M26.2666 14.9341H39.0666C39.6557 14.9341 40.1333 14.4566 40.1333 13.8674C40.1333 13.2783 39.6557 12.8008 39.0666 12.8008H26.2666C25.6775 12.8008 25.2 13.2783 25.2 13.8674C25.2 14.4566 25.6775 14.9341 26.2666 14.9341Z" fill="#428DFF"/>
<path d="M43.6456 15.6871C44.0622 16.1035 44.7374 16.1035 45.1539 15.6871L47.2872 13.5538C47.6915 13.1352 47.6857 12.47 47.2742 12.0585C46.8628 11.6471 46.1975 11.6413 45.779 12.0455L44.3998 13.4247L44.0872 13.1122C43.6687 12.7079 43.0034 12.7137 42.592 13.1252C42.1805 13.5366 42.1747 14.2019 42.579 14.6205L43.6456 15.6871Z" fill="#428DFF"/>
<path d="M19.8665 25.5992C21.6338 25.5992 23.0665 24.1665 23.0665 22.3992C23.0665 20.6319 21.6338 19.1992 19.8665 19.1992C18.0992 19.1992 16.6665 20.6319 16.6665 22.3992C16.6665 24.1665 18.0992 25.5992 19.8665 25.5992ZM19.8665 21.3326C20.4556 21.3326 20.9332 21.8101 20.9332 22.3992C20.9332 22.9883 20.4556 23.4659 19.8665 23.4659C19.2774 23.4659 18.7998 22.9883 18.7998 22.3992C18.7998 21.8101 19.2774 21.3326 19.8665 21.3326Z" fill="#428DFF"/>
<path d="M26.2666 23.4673H39.0666C39.6557 23.4673 40.1333 22.9898 40.1333 22.4007C40.1333 21.8115 39.6557 21.334 39.0666 21.334H26.2666C25.6775 21.334 25.2 21.8115 25.2 22.4007C25.2 22.9898 25.6775 23.4673 26.2666 23.4673Z" fill="#428DFF"/>
<path d="M42.579 23.1537L43.6456 24.2203C44.0622 24.6367 44.7374 24.6367 45.1539 24.2203L47.2872 22.087C47.6915 21.6685 47.6857 21.0032 47.2742 20.5917C46.8628 20.1803 46.1975 20.1745 45.779 20.5787L44.3998 21.9579L44.0872 21.6454C43.6687 21.2412 43.0034 21.2469 42.592 21.6584C42.1805 22.0698 42.1747 22.7351 42.579 23.1537Z" fill="#428DFF"/>
<path d="M19.8665 34.1324C21.6338 34.1324 23.0665 32.6997 23.0665 30.9324C23.0665 29.1651 21.6338 27.7324 19.8665 27.7324C18.0992 27.7324 16.6665 29.1651 16.6665 30.9324C16.6665 32.6997 18.0992 34.1324 19.8665 34.1324ZM19.8665 29.8658C20.4556 29.8658 20.9332 30.3433 20.9332 30.9324C20.9332 31.5215 20.4556 31.9991 19.8665 31.9991C19.2774 31.9991 18.7998 31.5215 18.7998 30.9324C18.7998 30.3433 19.2774 29.8658 19.8665 29.8658Z" fill="#428DFF"/>
<path d="M26.2666 32.0005H39.0666C39.6557 32.0005 40.1333 31.523 40.1333 30.9339C40.1333 30.3448 39.6557 29.8672 39.0666 29.8672H26.2666C25.6775 29.8672 25.2 30.3448 25.2 30.9339C25.2 31.523 25.6775 32.0005 26.2666 32.0005Z" fill="#428DFF"/>
<path d="M42.579 31.6869L43.6456 32.7535C44.0622 33.1699 44.7374 33.1699 45.1539 32.7535L47.2872 30.6202C47.6915 30.2017 47.6857 29.5364 47.2742 29.1249C46.8628 28.7135 46.1975 28.7077 45.779 29.1119L44.3998 30.4911L44.0872 30.1786C43.6687 29.7744 43.0034 29.7801 42.592 30.1916C42.1805 30.603 42.1747 31.2683 42.579 31.6869Z" fill="#428DFF"/>
<path d="M23.8772 41.451L23.0751 47.868C23.0168 48.4444 23.4292 48.9618 24.004 49.0337C24.5788 49.1055 25.1059 48.7055 25.1913 48.1326L25.4751 45.867H29.1913L29.4751 48.1326C29.5418 48.6662 29.9953 49.0668 30.5332 49.067C30.5778 49.0673 30.6223 49.0644 30.6665 49.0584C31.2508 48.9852 31.6653 48.4524 31.5924 47.868L30.7892 41.451C30.5722 39.7073 29.0903 38.3984 27.3332 38.3984C25.5761 38.3984 24.0942 39.7073 23.8772 41.451ZM25.9935 41.7155C26.0788 41.0406 26.6529 40.5345 27.3332 40.5345C28.0135 40.5345 28.5876 41.0406 28.6729 41.7155L28.9247 43.7336H25.7417L25.9935 41.7155Z" fill="#428DFF"/>
<path d="M35.8665 44.8004C36.4556 44.8004 36.9332 44.3228 36.9332 43.7337V42.6671H37.9998C38.5889 42.6671 39.0665 42.1895 39.0665 41.6004C39.0665 41.0113 38.5889 40.5337 37.9998 40.5337H36.9332V39.4671C36.9332 38.878 36.4556 38.4004 35.8665 38.4004C35.2774 38.4004 34.7998 38.878 34.7998 39.4671V40.5337H33.7332C33.1441 40.5337 32.6665 41.0113 32.6665 41.6004C32.6665 42.1895 33.1441 42.6671 33.7332 42.6671H34.7998V43.7337C34.7998 44.3228 35.2774 44.8004 35.8665 44.8004Z" fill="#428DFF"/>
</g>
<defs>
<clipPath id="clip0_21015_62813">
<rect width="64" height="64" fill="white" transform="translate(0.666504)"/>
</clipPath>
</defs>
</svg>
