<svg width="65" height="64" viewBox="0 0 65 64" fill="none" xmlns="http://www.w3.org/2000/svg">
<path d="M61.4665 52.2657V49.9009C61.4664 49.1158 61.1778 48.3581 60.6554 47.772C60.133 47.1859 59.4134 46.8123 58.6334 46.7222L39.9198 44.5622C38.2125 44.3691 36.4908 44.7707 35.0452 45.6993C35.827 44.1872 36.9701 42.8916 38.3732 41.9276C42.5065 39.1297 48.707 39.3505 56.8009 42.59C57.0637 42.6952 57.3576 42.6917 57.6178 42.5803C57.8781 42.4689 58.0834 42.2587 58.1886 41.9958C58.2939 41.733 58.2904 41.4392 58.179 41.1789C58.0676 40.9187 57.8573 40.7133 57.5945 40.6081C48.8009 37.0881 41.9316 36.9398 37.1774 40.1601C35.1697 41.5479 33.6037 43.4841 32.6665 45.7377C31.7287 43.4839 30.162 41.5476 28.1534 40.1601C23.3982 36.942 16.5268 37.0924 7.73637 40.6081C7.60624 40.6602 7.48765 40.7374 7.38736 40.8354C7.28708 40.9333 7.20707 41.0501 7.1519 41.1789C7.09672 41.3078 7.06748 41.4463 7.06582 41.5864C7.06416 41.7266 7.09013 41.8657 7.14224 41.9958C7.19435 42.126 7.27158 42.2446 7.36952 42.3449C7.46746 42.4451 7.58419 42.5251 7.71306 42.5803C7.84192 42.6355 7.98039 42.6647 8.12055 42.6664C8.26072 42.668 8.39984 42.6421 8.52997 42.59C16.6228 39.3505 22.8233 39.1276 26.9577 41.9276C28.3604 42.8919 29.5035 44.1874 30.2857 45.6993C28.8409 44.7705 27.1198 44.3688 25.4132 44.5622L6.69957 46.719C5.91909 46.8091 5.19902 47.1832 4.67656 47.77C4.1541 48.3568 3.86577 49.1152 3.8665 49.9009V52.2657C3.01781 52.2657 2.20388 52.6029 1.60376 53.203C1.00365 53.8031 0.666504 54.617 0.666504 55.4657L0.666504 57.599C0.666504 58.4477 1.00365 59.2617 1.60376 59.8618C2.20388 60.4619 3.01781 60.799 3.8665 60.799H27.4676C27.7056 61.7143 28.2403 62.5248 28.9879 63.1038C29.7356 63.6828 30.6542 63.9976 31.5998 63.999H33.7332C34.6788 63.9976 35.5974 63.6828 36.3451 63.1038C37.0928 62.5248 37.6274 61.7143 37.8654 60.799H61.4665C62.3152 60.799 63.1291 60.4619 63.7292 59.8618C64.3294 59.2617 64.6665 58.4477 64.6665 57.599V55.4657C64.6665 54.617 64.3294 53.8031 63.7292 53.203C63.1291 52.6029 62.3152 52.2657 61.4665 52.2657ZM35.5177 47.999C36.0794 47.4992 36.7403 47.1235 37.4572 46.8965C38.174 46.6695 38.9307 46.5963 39.6777 46.6817L58.3892 48.8417C58.649 48.8718 58.8888 48.9963 59.0628 49.1916C59.2369 49.3869 59.3331 49.6393 59.3332 49.9009V52.2657H37.9998C36.4238 52.2655 34.9036 52.8496 33.7332 53.9052V51.9852C33.7325 51.2324 33.8911 50.4881 34.1987 49.8011C34.5063 49.114 34.9558 48.4999 35.5177 47.999ZM5.99984 49.9009C5.99967 49.6391 6.09577 49.3864 6.26984 49.1909C6.44391 48.9954 6.6838 48.8707 6.94384 48.8406L25.6542 46.6817C26.4013 46.5954 27.1582 46.668 27.8752 46.8949C28.5923 47.1217 29.2532 47.4976 29.8147 47.998C30.3762 48.4983 30.8255 49.1117 31.1331 49.798C31.4408 50.4842 31.5998 51.2278 31.5998 51.9798V53.8998C30.4287 52.8462 28.9086 52.264 27.3332 52.2657H5.99984V49.9009ZM62.5332 57.599C62.5332 57.8819 62.4208 58.1533 62.2208 58.3533C62.0207 58.5533 61.7494 58.6657 61.4665 58.6657H36.9332C36.6503 58.6657 36.379 58.7781 36.1789 58.9781C35.9789 59.1782 35.8665 59.4495 35.8665 59.7324C35.8665 60.2982 35.6417 60.8408 35.2417 61.2409C34.8416 61.6409 34.299 61.8657 33.7332 61.8657H31.5998C31.034 61.8657 30.4914 61.6409 30.0913 61.2409C29.6913 60.8408 29.4665 60.2982 29.4665 59.7324C29.4665 59.4495 29.3541 59.1782 29.1541 58.9781C28.954 58.7781 28.6827 58.6657 28.3998 58.6657H3.8665C3.58361 58.6657 3.3123 58.5533 3.11226 58.3533C2.91222 58.1533 2.79984 57.8819 2.79984 57.599V55.4657C2.79984 55.1828 2.91222 54.9115 3.11226 54.7115C3.3123 54.5114 3.58361 54.399 3.8665 54.399H27.3332C28.4648 54.399 29.55 54.8486 30.3502 55.6487C31.1503 56.4489 31.5998 57.5341 31.5998 58.6657C31.5998 58.9486 31.7122 59.2199 31.9123 59.42C32.1123 59.62 32.3836 59.7324 32.6665 59.7324C32.9494 59.7324 33.2207 59.62 33.4208 59.42C33.6208 59.2199 33.7332 58.9486 33.7332 58.6657C33.7332 57.5341 34.1827 56.4489 34.9828 55.6487C35.783 54.8486 36.8682 54.399 37.9998 54.399H61.4665C61.7494 54.399 62.0207 54.5114 62.2208 54.7115C62.4208 54.9115 62.5332 55.1828 62.5332 55.4657V57.599Z" fill="#428DFF"/>
<path d="M20.5918 10.731C20.3089 10.7324 20.037 10.6214 19.836 10.4223C19.6349 10.2233 19.5212 9.95255 19.5198 9.66966C19.5184 9.38676 19.6294 9.11489 19.8284 8.91385C20.0275 8.71281 20.2982 8.59907 20.5811 8.59766H20.5918C20.8747 8.59766 21.146 8.71004 21.346 8.91008C21.5461 9.11011 21.6585 9.38143 21.6585 9.66432C21.6585 9.94722 21.5461 10.2185 21.346 10.4186C21.146 10.6186 20.8747 10.731 20.5918 10.731Z" fill="#428DFF"/>
<path d="M18.7998 13.8658C18.7998 21.4391 22.2473 23.7741 24.7646 25.4786C26.1395 26.4098 26.9406 27.0061 27.2179 27.965C26.6126 28.2031 26.0945 28.6207 25.7335 29.1619C25.3725 29.703 25.1858 30.3417 25.1984 30.9921C25.2111 31.6425 25.4225 32.2734 25.8043 32.8001C26.1861 33.3268 26.72 33.724 27.3342 33.9383V35.1991C27.3342 36.3307 27.7837 37.416 28.5839 38.2161C29.384 39.0163 30.4693 39.4658 31.6009 39.4658H33.7342C34.2945 39.4658 34.8493 39.3554 35.367 39.141C35.8846 38.9266 36.355 38.6123 36.7512 38.2161C37.1474 37.8199 37.4617 37.3496 37.6761 36.8319C37.8905 36.3143 38.0009 35.7594 38.0009 35.1991V33.9362C38.6151 33.722 39.1491 33.3249 39.531 32.7983C39.9129 32.2716 40.1244 31.6407 40.1372 30.9903C40.15 30.3399 39.9634 29.7012 39.6024 29.16C39.2415 28.6188 38.7236 28.201 38.1182 27.9629C38.3934 27.0029 39.1945 26.4077 40.5715 25.4765C43.0857 23.7741 46.5331 21.4391 46.5331 13.8658C46.5347 10.9833 45.6374 8.17199 43.9662 5.8234C42.2949 3.4748 39.9329 1.7058 37.2091 0.762706C34.4852 -0.180388 31.535 -0.25063 28.7693 0.561761C26.0037 1.37415 23.5601 3.02874 21.779 5.29513C21.6854 5.40585 21.6163 5.53507 21.576 5.67434C21.5358 5.81361 21.5254 5.95981 21.5456 6.10337C21.5657 6.24692 21.6159 6.38462 21.6929 6.50745C21.7699 6.63029 21.8719 6.73549 21.9923 6.8162C22.2187 6.96686 22.4924 7.02933 22.7617 6.99179C23.031 6.95424 23.2772 6.81929 23.4537 6.61247C24.9604 4.69375 27.0281 3.29282 29.3688 2.60488C31.7094 1.91693 34.2063 1.97624 36.5116 2.77454C38.8169 3.57284 40.8158 5.07036 42.2298 7.05845C43.6437 9.04654 44.4023 11.4262 44.3998 13.8658C44.3998 20.3085 41.7331 22.1165 39.3726 23.7122C37.8942 24.7127 36.3859 25.7495 35.9785 27.7325H33.7331V21.3325H34.7998C35.0827 21.3325 35.354 21.2201 35.5541 21.02C35.7541 20.82 35.8665 20.5487 35.8665 20.2658C35.8665 19.9829 35.7541 19.7116 35.5541 19.5116C35.354 19.3115 35.0827 19.1991 34.7998 19.1991H30.5331C30.2502 19.1991 29.9789 19.3115 29.7789 19.5116C29.5789 19.7116 29.4665 19.9829 29.4665 20.2658C29.4665 20.5487 29.5789 20.82 29.7789 21.02C29.9789 21.2201 30.2502 21.3325 30.5331 21.3325H31.5998V27.7325H29.3598C28.9555 25.7495 27.4398 24.7127 25.9657 23.7122C23.5998 22.1165 20.9331 20.3085 20.9331 13.8658C20.9331 13.5829 20.8208 13.3116 20.6207 13.1116C20.4207 12.9115 20.1494 12.7991 19.8665 12.7991C19.5836 12.7991 19.3123 12.9115 19.1122 13.1116C18.9122 13.3116 18.7998 13.5829 18.7998 13.8658ZM35.8665 35.1991C35.8665 35.7649 35.6417 36.3076 35.2416 36.7076C34.8416 37.1077 34.2989 37.3325 33.7331 37.3325H31.5998C31.034 37.3325 30.4914 37.1077 30.0913 36.7076C29.6912 36.3076 29.4665 35.7649 29.4665 35.1991V34.1325H35.8665V35.1991ZM36.9331 31.9991H28.3998C28.1169 31.9991 27.8456 31.8868 27.6456 31.6867C27.4455 31.4867 27.3331 31.2154 27.3331 30.9325C27.3331 30.6496 27.4455 30.3783 27.6456 30.1782C27.8456 29.9782 28.1169 29.8658 28.3998 29.8658H36.9331C37.216 29.8658 37.4873 29.9782 37.6874 30.1782C37.8874 30.3783 37.9998 30.6496 37.9998 30.9325C37.9998 31.2154 37.8874 31.4867 37.6874 31.6867C37.4873 31.8868 37.216 31.9991 36.9331 31.9991Z" fill="#428DFF"/>
<path d="M11.3333 13.8655C11.3333 14.1484 11.4456 14.4197 11.6457 14.6197C11.8457 14.8198 12.117 14.9322 12.3999 14.9322H15.5999C15.8828 14.9322 16.1541 14.8198 16.3542 14.6197C16.5542 14.4197 16.6666 14.1484 16.6666 13.8655C16.6666 13.5826 16.5542 13.3113 16.3542 13.1112C16.1541 12.9112 15.8828 12.7988 15.5999 12.7988H12.3999C12.117 12.7988 11.8457 12.9112 11.6457 13.1112C11.4456 13.3113 11.3333 13.5826 11.3333 13.8655Z" fill="#428DFF"/>
<path d="M17.3533 21.4753L14.58 23.0753C14.4577 23.1449 14.3504 23.2379 14.2642 23.3491C14.178 23.4602 14.1146 23.5874 14.0778 23.7231C14.0409 23.8589 14.0313 24.0006 14.0494 24.1401C14.0676 24.2796 14.1131 24.4141 14.1834 24.536C14.2538 24.6578 14.3475 24.7645 14.4593 24.8499C14.571 24.9354 14.6986 24.9979 14.8346 25.0338C14.9706 25.0698 15.1123 25.0785 15.2517 25.0594C15.3911 25.0404 15.5253 24.9939 15.6467 24.9228L18.42 23.3228C18.663 23.1803 18.8398 22.9476 18.9118 22.6752C18.9838 22.4029 18.9451 22.1132 18.8043 21.8693C18.6634 21.6253 18.4318 21.447 18.16 21.3732C17.8882 21.2994 17.5982 21.3361 17.3533 21.4753Z" fill="#428DFF"/>
<path d="M47.9797 21.4746C47.8583 21.4035 47.7241 21.357 47.5847 21.338C47.4453 21.3189 47.3036 21.3276 47.1676 21.3636C47.0316 21.3995 46.904 21.462 46.7923 21.5475C46.6805 21.6329 46.5868 21.7396 46.5165 21.8614C46.4461 21.9833 46.4006 22.1178 46.3824 22.2573C46.3643 22.3968 46.3739 22.5385 46.4108 22.6743C46.4477 22.81 46.511 22.9372 46.5972 23.0483C46.6834 23.1595 46.7907 23.2525 46.913 23.3221L49.6863 24.9221C49.9312 25.0613 50.2212 25.098 50.493 25.0242C50.7648 24.9504 50.9964 24.7721 51.1373 24.5281C51.2781 24.2842 51.3168 23.9945 51.2448 23.7221C51.1728 23.4498 50.996 23.2171 50.753 23.0746L47.9797 21.4746Z" fill="#428DFF"/>
<path d="M53.9998 13.8655C53.9998 13.5826 53.8875 13.3113 53.6874 13.1112C53.4874 12.9112 53.2161 12.7988 52.9332 12.7988H49.7332C49.4503 12.7988 49.179 12.9112 48.9789 13.1112C48.7789 13.3113 48.6665 13.5826 48.6665 13.8655C48.6665 14.1484 48.7789 14.4197 48.9789 14.6197C49.179 14.8198 49.4503 14.9322 49.7332 14.9322H52.9332C53.2161 14.9322 53.4874 14.8198 53.6874 14.6197C53.8875 14.4197 53.9998 14.1484 53.9998 13.8655Z" fill="#428DFF"/>
<path d="M49.6851 2.80932L46.9118 4.40932C46.7895 4.47885 46.6822 4.57188 46.596 4.68305C46.5098 4.79423 46.4464 4.92136 46.4096 5.05712C46.3727 5.19287 46.3631 5.33458 46.3812 5.47408C46.3993 5.61358 46.4449 5.74811 46.5152 5.86994C46.5856 5.99176 46.6793 6.09847 46.7911 6.18392C46.9028 6.26937 47.0303 6.33187 47.1663 6.36783C47.3023 6.40378 47.4441 6.41248 47.5835 6.39342C47.7229 6.37437 47.8571 6.32793 47.9784 6.25679L50.7518 4.65679C50.9948 4.51433 51.1716 4.28155 51.2435 4.00923C51.3155 3.73692 51.2769 3.44718 51.1361 3.20325C50.9952 2.95931 50.7636 2.78099 50.4918 2.70719C50.22 2.63339 49.93 2.6701 49.6851 2.80932Z" fill="#428DFF"/>
<path d="M18.4202 4.40932L15.6469 2.80932C15.402 2.6701 15.112 2.63339 14.8402 2.70719C14.5683 2.78099 14.3367 2.95931 14.1959 3.20325C14.0551 3.44718 14.0164 3.73692 14.0884 4.00923C14.1604 4.28155 14.3372 4.51433 14.5802 4.65679L17.3535 6.25679C17.4749 6.32793 17.6091 6.37437 17.7485 6.39342C17.8879 6.41248 18.0296 6.40378 18.1656 6.36783C18.3016 6.33187 18.4292 6.26937 18.5409 6.18392C18.6527 6.09847 18.7464 5.99176 18.8167 5.86994C18.8871 5.74811 18.9326 5.61358 18.9508 5.47408C18.9689 5.33458 18.9592 5.19287 18.9224 5.05712C18.8855 4.92136 18.8222 4.79423 18.736 4.68305C18.6498 4.57188 18.5425 4.47885 18.4202 4.40932Z" fill="#428DFF"/>
</svg>
