<svg width="65" height="64" viewBox="0 0 65 64" fill="none" xmlns="http://www.w3.org/2000/svg">
<g clip-path="url(#clip0_21015_63355)">
<path d="M35.5333 18.1348H29.1333C28.5442 18.1348 28.0667 18.6123 28.0667 19.2014V61.8681C28.0667 62.4572 28.5442 62.9348 29.1333 62.9348H35.5333C36.1224 62.9348 36.6 62.4572 36.6 61.8681V19.2014C36.6 18.6123 36.1224 18.1348 35.5333 18.1348Z" fill="#E8EDFC"/>
<path d="M35.5333 18.1348H32.3333C32.9224 18.1348 33.3999 18.6123 33.3999 19.2014V61.8681C33.3999 62.4572 32.9224 62.9348 32.3333 62.9348H35.5333C36.1224 62.9348 36.5999 62.4572 36.5999 61.8681V19.2014C36.5999 18.6123 36.1224 18.1348 35.5333 18.1348Z" fill="#CAD9FC"/>
<path d="M28.0666 19.2867V61.7081C28.0655 62.0778 27.873 62.4205 27.5579 62.6139C27.2428 62.8073 26.8501 62.8238 26.5199 62.6574L5.18659 51.9907C4.8238 51.8145 4.59529 51.4447 4.59992 51.0414V42.6681H7.26659C8.73935 42.6681 9.93326 41.4742 9.93326 40.0014C9.93326 38.5287 8.73935 37.3347 7.26659 37.3347H8.33326C9.80602 37.3347 10.9999 36.1408 10.9999 34.6681C10.9999 33.1953 9.80602 32.0014 8.33326 32.0014H10.4666C11.9393 32.0014 13.1333 30.8075 13.1333 29.3347C13.1333 27.862 11.9393 26.6681 10.4666 26.6681H8.33326C9.80602 26.6681 10.9999 25.4742 10.9999 24.0014C10.9999 22.5287 9.80602 21.3347 8.33326 21.3347H4.59992V8.62008C4.60104 8.25038 4.79351 7.90762 5.1086 7.71423C5.42368 7.52083 5.81644 7.50438 6.14659 7.67075L8.86659 9.03608L27.4799 18.3374C27.8407 18.5159 28.0684 18.8842 28.0666 19.2867Z" fill="#E8EDFC"/>
<path d="M27.4798 18.3372L8.86648 9.03588L6.14648 7.67054C5.83487 7.51688 5.46794 7.52461 5.16307 7.69127C4.85821 7.85792 4.65362 8.16262 4.61475 8.50788L5.66648 9.03588L24.2798 18.3372C24.6406 18.5157 24.8683 18.884 24.8665 19.2865V61.7079C24.8637 61.7465 24.8588 61.785 24.8515 61.8231L26.5198 62.6572C26.85 62.8236 27.2427 62.8071 27.5578 62.6137C27.8729 62.4203 28.0654 62.0776 28.0665 61.7079V19.2865C28.0683 18.884 27.8406 18.5157 27.4798 18.3372Z" fill="#CAD9FC"/>
<path d="M53.6665 24.0014C53.6643 24.7094 53.9445 25.389 54.4451 25.8895C54.9457 26.3901 55.6253 26.6704 56.3332 26.6681H54.1999C52.7271 26.6681 51.5332 27.862 51.5332 29.3347C51.5332 30.8075 52.7271 32.0014 54.1999 32.0014H56.3332C54.8604 32.0014 53.6665 33.1953 53.6665 34.6681C53.6665 36.1408 54.8604 37.3347 56.3332 37.3347H57.3999C55.9271 37.3347 54.7332 38.5287 54.7332 40.0014C54.7332 41.4742 55.9271 42.6681 57.3999 42.6681H60.0665V51.0414C60.0712 51.4447 59.8427 51.8145 59.4799 51.9907L38.1465 62.6574C37.8164 62.8238 37.4236 62.8073 37.1085 62.6139C36.7935 62.4205 36.601 62.0778 36.5999 61.7081V19.2867C36.5981 18.8842 36.8257 18.5159 37.1865 18.3374L55.7999 9.03608L58.5199 7.67075C58.85 7.50438 59.2428 7.52083 59.5579 7.71423C59.8729 7.90762 60.0654 8.25038 60.0665 8.62008V21.3347H56.3332C54.8604 21.3347 53.6665 22.5287 53.6665 24.0014Z" fill="#CAD9FC"/>
<path d="M55.5118 41.8887C54.7471 41.1259 54.5181 39.9772 54.9316 38.9795C55.3452 37.9818 56.3198 37.3321 57.3998 37.334H56.3331C54.8604 37.334 53.6665 36.1401 53.6665 34.6673C53.6665 33.1946 54.8604 32.0007 56.3331 32.0007H54.1998C52.7271 32.0007 51.5331 30.8067 51.5331 29.334C51.5331 27.8612 52.7271 26.6673 54.1998 26.6673H56.3331C54.8604 26.6673 53.6665 25.4734 53.6665 24.0007C53.6665 22.5279 54.8604 21.334 56.3331 21.334H53.1331C51.6604 21.334 50.4665 22.5279 50.4665 24.0007C50.4665 25.4734 51.6604 26.6673 53.1331 26.6673H50.9998C49.5271 26.6673 48.3331 27.8612 48.3331 29.334C48.3331 30.8067 49.5271 32.0007 50.9998 32.0007H53.1331C51.6604 32.0007 50.4665 33.1946 50.4665 34.6673C50.4665 36.1401 51.6604 37.334 53.1331 37.334H54.1998C52.7271 37.334 51.5331 38.5279 51.5331 40.0007C51.5331 41.4734 52.7271 42.6673 54.1998 42.6673H56.8665V51.0407C56.8711 51.444 56.6426 51.8137 56.2798 51.99L36.6147 61.8225C36.6507 62.1692 36.8551 62.4759 37.1612 62.6426C37.4672 62.8092 37.8358 62.8145 38.1465 62.6567L59.4798 51.99C59.8426 51.8137 60.0711 51.444 60.0665 51.0407V42.6673H57.3998C56.6921 42.6686 56.0129 42.3885 55.5118 41.8887Z" fill="#A4C2F7"/>
<path d="M58.5198 7.67075L56.8516 8.50808C56.8588 8.54508 56.8638 8.58248 56.8665 8.62008V21.3347H60.0665V8.62008C60.0654 8.25038 59.8729 7.90762 59.5578 7.71423C59.2427 7.52083 58.85 7.50438 58.5198 7.67075Z" fill="#A4C2F7"/>
<path d="M32.3334 15.4675V18.1342H29.1334C28.5443 18.1342 28.0667 18.6117 28.0667 19.2008V19.2862C28.0685 18.8836 27.8408 18.5153 27.48 18.3368L8.8667 9.03549V2.13416C8.86699 1.77657 9.04645 1.44291 9.34464 1.24555C9.64284 1.04818 10.0201 1.01337 10.3494 1.15283C32.3334 10.3688 32.3334 15.4675 32.3334 15.4675Z" fill="#E8EDFC"/>
<path d="M27.48 18.3374C27.8408 18.5159 28.0685 18.8843 28.0667 19.2868V19.2014C28.0667 18.6123 28.5443 18.1348 29.1334 18.1348H27.0747L27.48 18.3374Z" fill="#CAD9FC"/>
<path d="M10.3493 1.15342C10.0587 1.03149 9.72917 1.04425 9.44893 1.18828C9.16869 1.33231 8.96646 1.59287 8.89648 1.90008C29.1269 10.6425 29.1333 15.4681 29.1333 15.4681V18.1348H32.3333V15.4681C32.3333 15.4681 32.3333 10.3694 10.3493 1.15342Z" fill="#CAD9FC"/>
<path d="M55.7999 2.13416V9.03549L37.1866 18.3368C36.8258 18.5153 36.5981 18.8836 36.5999 19.2862V19.2008C36.5999 18.6117 36.1224 18.1342 35.5333 18.1342H32.3333V15.4675C32.3333 15.4675 32.3333 10.3688 54.3173 1.15283C54.6465 1.01337 55.0238 1.04818 55.322 1.24555C55.6202 1.44291 55.7996 1.77657 55.7999 2.13416Z" fill="#E8EDFC"/>
<path d="M54.3172 1.15283C53.7166 1.40456 53.1438 1.65203 52.57 1.89949C52.5886 1.97637 52.5986 2.05507 52.5998 2.13416V9.03549L34.3918 18.1342H35.5332C36.1223 18.1342 36.5998 18.6117 36.5998 19.2008V19.2862C36.5981 18.8836 36.8257 18.5153 37.1865 18.3368L55.7998 9.03549V2.13416C55.7996 1.77657 55.6201 1.44291 55.3219 1.24555C55.0237 1.04818 54.6465 1.01337 54.3172 1.15283Z" fill="#CAD9FC"/>
<path d="M10.4666 32.0007H8.33324C9.806 32.0007 10.9999 33.1946 10.9999 34.6673C10.9999 36.1401 9.806 37.334 8.33324 37.334H7.26657C8.73933 37.334 9.93324 38.5279 9.93324 40.0007C9.93324 41.4734 8.73933 42.6673 7.26657 42.6673H3.53324C2.35649 42.6638 1.40342 41.7107 1.3999 40.534V39.4673C1.40342 38.2906 2.35649 37.3375 3.53324 37.334C2.35649 37.3305 1.40342 36.3774 1.3999 35.2007V34.134C1.40342 32.9572 2.35649 32.0042 3.53324 32.0007C2.35649 31.9971 1.40342 31.0441 1.3999 29.8673V28.8007C1.40342 27.6239 2.35649 26.6708 3.53324 26.6673C2.35649 26.6638 1.40342 25.7107 1.3999 24.534V23.4673C1.40342 22.2906 2.35649 21.3375 3.53324 21.334H8.33324C9.806 21.334 10.9999 22.5279 10.9999 24.0007C10.9999 25.4734 9.806 26.6673 8.33324 26.6673H10.4666C11.9393 26.6673 13.1332 27.8612 13.1332 29.334C13.1332 30.8067 11.9393 32.0007 10.4666 32.0007Z" fill="#E8EDFC"/>
<path d="M12.3547 31.222C13.1193 30.4592 13.3484 29.3106 12.9348 28.3128C12.5213 27.3151 11.5467 26.6654 10.4667 26.6673H8.33332C9.80608 26.6673 11 25.4734 11 24.0007C11 22.5279 9.80608 21.334 8.33332 21.334H5.13332C6.60608 21.334 7.79998 22.5279 7.79998 24.0007C7.79998 25.4734 6.60608 26.6673 5.13332 26.6673H7.26665C8.73941 26.6673 9.93332 27.8612 9.93332 29.334C9.93332 30.8067 8.73941 32.0007 7.26665 32.0007H5.13332C6.60608 32.0007 7.79998 33.1946 7.79998 34.6673C7.79998 36.1401 6.60608 37.334 5.13332 37.334H4.06665C5.53941 37.334 6.73332 38.5279 6.73332 40.0007C6.73332 41.4734 5.53941 42.6673 4.06665 42.6673H7.26665C8.73941 42.6673 9.93332 41.4734 9.93332 40.0007C9.93332 38.5279 8.73941 37.334 7.26665 37.334H8.33332C9.80608 37.334 11 36.1401 11 34.6673C11 33.1946 9.80608 32.0007 8.33332 32.0007H10.4667C11.1744 32.0019 11.8536 31.7218 12.3547 31.222Z" fill="#CAD9FC"/>
<path d="M61.1332 26.6673C62.31 26.6708 63.263 27.6239 63.2665 28.8007V29.8673C63.263 31.0441 62.31 31.9971 61.1332 32.0007C62.31 32.0042 63.263 32.9572 63.2665 34.134V35.2007C63.263 36.3774 62.31 37.3305 61.1332 37.334C62.31 37.3375 63.263 38.2906 63.2665 39.4673V40.534C63.263 41.7107 62.31 42.6638 61.1332 42.6673H57.3999C55.9271 42.6673 54.7332 41.4734 54.7332 40.0007C54.7332 38.5279 55.9271 37.334 57.3999 37.334H56.3332C54.8604 37.334 53.6665 36.1401 53.6665 34.6673C53.6665 33.1946 54.8604 32.0007 56.3332 32.0007H54.1999C52.7271 32.0007 51.5332 30.8067 51.5332 29.334C51.5332 27.8612 52.7271 26.6673 54.1999 26.6673H56.3332C54.8604 26.6673 53.6665 25.4734 53.6665 24.0007C53.6665 22.5279 54.8604 21.334 56.3332 21.334H61.1332C62.31 21.3375 63.263 22.2906 63.2665 23.4673V24.534C63.263 25.7107 62.31 26.6638 61.1332 26.6673Z" fill="#E8EDFC"/>
<path d="M63.2667 24.534V23.4673C63.2632 22.2906 62.3101 21.3375 61.1333 21.334H57.9333C59.1101 21.3375 60.0632 22.2906 60.0667 23.4673V24.534C60.0632 25.7107 59.1101 26.6638 57.9333 26.6673C59.1101 26.6708 60.0632 27.6239 60.0667 28.8007V29.8673C60.0632 31.0441 59.1101 31.9971 57.9333 32.0007C59.1101 32.0042 60.0632 32.9572 60.0667 34.134V35.2007C60.0632 36.3774 59.1101 37.3305 57.9333 37.334C59.1101 37.3375 60.0632 38.2906 60.0667 39.4673V40.534C60.0632 41.7107 59.1101 42.6638 57.9333 42.6673H61.1333C62.3101 42.6638 63.2632 41.7107 63.2667 40.534V39.4673C63.2632 38.2906 62.3101 37.3375 61.1333 37.334C62.3101 37.3305 63.2632 36.3774 63.2667 35.2007V34.134C63.2632 32.9572 62.3101 32.0042 61.1333 32.0007C62.3101 31.9971 63.2632 31.0441 63.2667 29.8673V28.8007C63.2632 27.6239 62.3101 26.6708 61.1333 26.6673C62.3101 26.6638 63.2632 25.7107 63.2667 24.534Z" fill="#CAD9FC"/>
<path d="M8.86646 7.56241C8.90379 7.56241 8.94112 7.56241 8.97845 7.56987C9.01579 7.57734 9.04672 7.56987 9.08512 7.57841C9.17677 7.59736 9.26565 7.62782 9.34966 7.66907L12.0665 9.03441V2.13307C12.0736 2.05553 12.0904 1.9792 12.1166 1.90587C11.5417 1.65734 10.9571 1.40667 10.3491 1.15174C10.268 1.11798 10.1831 1.09399 10.0963 1.08027H10.0099C9.95633 1.07139 9.90211 1.06675 9.84779 1.06641C9.81259 1.06641 9.77739 1.07707 9.74112 1.08347C9.69788 1.09077 9.65513 1.10075 9.61312 1.11334C9.57442 1.12559 9.53664 1.14056 9.50005 1.15814C9.46595 1.1727 9.43281 1.18945 9.40086 1.20827C9.36114 1.2309 9.32301 1.2562 9.28672 1.28401C9.26326 1.30321 9.23979 1.32241 9.21739 1.34267C9.17932 1.37562 9.14367 1.41127 9.11072 1.44934C9.09579 1.46747 9.08299 1.48667 9.06912 1.50694C9.03445 1.55275 9.0041 1.60167 8.97845 1.65307C8.97099 1.66801 8.96565 1.68507 8.95925 1.70001C8.89836 1.83628 8.86675 1.98381 8.86646 2.13307V7.56241Z" fill="white"/>
<path d="M8.38657 51.9885C8.02378 51.8123 7.79527 51.4425 7.7999 51.0392V42.6659H6.73324C5.55649 42.6624 4.60342 41.7093 4.5999 40.5325V39.4659C4.60342 38.2891 5.55649 37.3361 6.73324 37.3325C5.55649 37.329 4.60342 36.376 4.5999 35.1992V34.1325C4.60342 32.9558 5.55649 32.0027 6.73324 31.9992C5.55649 31.9957 4.60342 31.0426 4.5999 29.8659V28.7992C4.60342 27.6225 5.55649 26.6694 6.73324 26.6659C5.55649 26.6624 4.60342 25.7093 4.5999 24.5325V23.4659C4.60342 22.2891 5.55649 21.3361 6.73324 21.3325H7.7999V8.61787C7.8055 8.58186 7.81334 8.54624 7.82337 8.5112L6.14657 7.66854C6.06189 7.62712 5.97228 7.59665 5.8799 7.57787C5.8447 7.57147 5.81057 7.57254 5.77324 7.56934C5.72062 7.56158 5.66748 7.55801 5.6143 7.55867C5.56506 7.56276 5.51621 7.5706 5.46817 7.58214C5.43404 7.58854 5.3999 7.59067 5.36684 7.60027C5.30528 7.61962 5.24565 7.64462 5.1887 7.67494L5.14284 7.6952C5.07575 7.73375 5.01283 7.77915 4.9551 7.83067L4.94657 7.83707C4.72429 8.03551 4.59802 8.31991 4.5999 8.61787V21.3325H3.53324C2.35649 21.3361 1.40342 22.2891 1.3999 23.4659V24.5325C1.40342 25.7093 2.35649 26.6624 3.53324 26.6659C2.35649 26.6694 1.40342 27.6225 1.3999 28.7992V29.8659C1.40342 31.0426 2.35649 31.9957 3.53324 31.9992C2.35649 32.0027 1.40342 32.9558 1.3999 34.1325V35.1992C1.40342 36.376 2.35649 37.329 3.53324 37.3325C2.35649 37.3361 1.40342 38.2891 1.3999 39.4659V40.5325C1.40342 41.7093 2.35649 42.6624 3.53324 42.6659H4.5999V51.0392C4.59527 51.4425 4.82378 51.8123 5.18657 51.9885L24.8516 61.8211" fill="white"/>
<path d="M4.68774 52.9355L5.64134 51.0283L13.2701 54.8427L12.3165 56.7499L4.68774 52.9355Z" fill="white"/>
<path d="M9.02338 54.9654C8.43428 54.968 7.95457 54.4926 7.95192 53.9035C7.94926 53.3144 8.42468 52.8347 9.01378 52.832H9.02338C9.61249 52.832 10.09 53.3096 10.09 53.8987C10.09 54.4878 9.61249 54.9654 9.02338 54.9654Z" fill="#428DFF"/>
<path d="M61.1333 20.2673V8.61934C61.1355 7.88435 60.7558 7.20095 60.1306 6.81454C59.498 6.4201 58.7053 6.38451 58.0399 6.72068L56.8666 7.30414V2.13401C56.8661 1.41958 56.5081 0.752821 55.9128 0.357817C55.3175 -0.0371871 54.564 -0.107989 53.9055 0.169208C39.4917 6.21187 34.2362 10.5788 32.3333 13.1004C30.4303 10.5788 25.177 6.21188 10.7663 0.171342C10.1077 -0.10805 9.35279 -0.0386597 8.7561 0.356131C8.15941 0.750921 7.80035 1.41854 7.79992 2.13401V7.30414L6.61912 6.71321C5.95825 6.38343 5.17383 6.41895 4.54547 6.80709C3.9171 7.19522 3.5342 7.88077 3.53325 8.61934V20.2673C1.76594 20.2673 0.333252 21.7 0.333252 23.4673V24.534C0.336029 25.3238 0.63261 26.0842 1.16525 26.6673C0.63261 27.2505 0.336029 28.0109 0.333252 28.8007V29.8673C0.336029 30.6571 0.63261 31.4176 1.16525 32.0007C0.63261 32.5838 0.336029 33.3442 0.333252 34.134V35.2007C0.336029 35.9904 0.63261 36.7509 1.16525 37.334C0.63261 37.9171 0.336029 38.6776 0.333252 39.4673V40.534C0.333252 42.3013 1.76594 43.734 3.53325 43.734V51.0407C3.5286 51.8582 3.9948 52.6054 4.73112 52.9607C4.8758 53.0296 5.03381 53.066 5.19405 53.0673C5.60772 53.0707 5.98602 52.8346 6.16472 52.4615C6.29037 52.2075 6.30836 51.9136 6.21462 51.6463C6.12087 51.3789 5.92331 51.1606 5.66659 51.0407V43.734H7.26659C8.66698 43.7389 9.95148 42.957 10.5903 41.7108C11.2292 40.4646 11.1142 38.9652 10.2927 37.8311C11.9954 36.8032 12.5701 34.6064 11.5887 32.8764C13.141 32.3951 14.1991 30.9592 14.1991 29.334C14.1991 27.7088 13.141 26.273 11.5887 25.7916C11.8976 25.245 12.0621 24.6286 12.0666 24.0007C12.0666 23.0105 11.6733 22.0609 10.9731 21.3608C10.273 20.6607 9.32339 20.2673 8.33325 20.2673H5.66659V8.62361L8.42819 10.0028L8.46445 10.0209L26.9999 19.286V61.7052L13.2965 54.8519C12.7695 54.5868 12.1274 54.7991 11.8623 55.326C11.5972 55.853 11.8095 56.495 12.3365 56.7601L26.0399 63.6103C26.3373 63.7617 26.6662 63.841 26.9999 63.8417C27.3165 63.8353 27.6276 63.7572 27.9098 63.6135C28.2679 63.8657 28.6952 64.0009 29.1333 64.0007H35.5333C35.9698 64.0001 36.3955 63.8648 36.7525 63.6135C37.3388 63.9186 38.0371 63.9186 38.6234 63.6135L59.9354 52.9575C60.6707 52.6027 61.1367 51.857 61.1333 51.0407V43.734C62.9006 43.734 64.3333 42.3013 64.3333 40.534V39.4673C64.3305 38.6776 64.0339 37.9171 63.5013 37.334C64.0339 36.7509 64.3305 35.9904 64.3333 35.2007V34.134C64.3305 33.3442 64.0339 32.5838 63.5013 32.0007C64.0339 31.4176 64.3305 30.6571 64.3333 29.8673V28.8007C64.3305 28.0109 64.0339 27.2505 63.5013 26.6673C64.0339 26.0842 64.3305 25.3238 64.3333 24.534V23.4673C64.3333 21.7 62.9006 20.2673 61.1333 20.2673ZM9.93325 34.6673C9.93325 35.551 9.21691 36.2673 8.33325 36.2673H3.53325C2.94415 36.2673 2.46659 35.7898 2.46659 35.2007V34.134C2.46659 33.5449 2.94415 33.0673 3.53325 33.0673H8.33325C9.21691 33.0673 9.93325 33.7837 9.93325 34.6673ZM7.26659 41.6007H3.53325C2.94415 41.6007 2.46659 41.1231 2.46659 40.534V39.4673C2.46659 38.8782 2.94415 38.4007 3.53325 38.4007H7.26659C8.15024 38.4007 8.86659 39.117 8.86659 40.0007C8.86659 40.8843 8.15024 41.6007 7.26659 41.6007ZM12.0666 29.334C12.0666 30.2177 11.3502 30.934 10.4666 30.934H3.53325C2.94415 30.934 2.46659 30.4564 2.46659 29.8673V28.8007C2.46659 28.2116 2.94415 27.734 3.53325 27.734H10.4666C11.3502 27.734 12.0666 28.4504 12.0666 29.334ZM9.93325 24.0007C9.93325 24.8843 9.21691 25.6007 8.33325 25.6007H3.53325C2.94415 25.6007 2.46659 25.1231 2.46659 24.534V23.4673C2.46659 22.8782 2.94415 22.4007 3.53325 22.4007H8.33325C9.21691 22.4007 9.93325 23.117 9.93325 24.0007ZM62.1999 23.4673V24.534C62.1999 25.1231 61.7224 25.6007 61.1333 25.6007H56.3333C55.4496 25.6007 54.7333 24.8843 54.7333 24.0007C54.7333 23.117 55.4496 22.4007 56.3333 22.4007H61.1333C61.7224 22.4007 62.1999 22.8782 62.1999 23.4673ZM62.1999 28.8007V29.8673C62.1999 30.4564 61.7224 30.934 61.1333 30.934H54.1999C53.3163 30.934 52.5999 30.2177 52.5999 29.334C52.5999 28.4504 53.3163 27.734 54.1999 27.734H61.1333C61.7224 27.734 62.1999 28.2116 62.1999 28.8007ZM62.1999 34.134V35.2007C62.1999 35.7898 61.7224 36.2673 61.1333 36.2673H56.3333C55.4496 36.2673 54.7333 35.551 54.7333 34.6673C54.7333 33.7837 55.4496 33.0673 56.3333 33.0673H61.1333C61.7224 33.0673 62.1999 33.5449 62.1999 34.134ZM54.7333 2.13401V8.37081L36.7066 17.3873C36.6938 17.3937 36.6853 17.4044 36.6725 17.4108C36.3334 17.1897 35.938 17.0705 35.5333 17.0673H33.3999V15.5345C33.4842 15.1985 35.0351 10.3921 54.7333 2.13401ZM9.93325 8.37081V2.13401C30.1882 10.6257 31.2549 15.4673 31.2666 15.4673V17.0673H29.1333C28.7279 17.0683 28.3314 17.1856 27.9909 17.4055C27.9781 17.3991 27.9695 17.3884 27.9567 17.382L9.93325 8.37081ZM29.1333 61.8673V19.2007H35.5333V19.286V61.8673H29.1333ZM58.9999 51.0364L37.6666 61.7031V19.2892L56.1946 10.0273C56.2149 10.0188 56.2319 10.0081 56.2511 9.99854L58.9999 8.61934V20.2673H56.3333C54.2714 20.2673 52.5999 21.9388 52.5999 24.0007C52.6044 24.6286 52.7689 25.245 53.0778 25.7916C51.5255 26.273 50.4674 27.7088 50.4674 29.334C50.4674 30.9592 51.5255 32.3951 53.0778 32.8764C52.0964 34.6064 52.6711 36.8032 54.3738 37.8311C53.5523 38.9652 53.4373 40.4646 54.0762 41.7108C54.715 42.957 55.9995 43.7389 57.3999 43.734H58.9999V51.0364ZM62.1999 40.534C62.1999 41.1231 61.7224 41.6007 61.1333 41.6007H57.3999C56.5163 41.6007 55.7999 40.8843 55.7999 40.0007C55.7999 39.117 56.5163 38.4007 57.3999 38.4007H61.1333C61.7224 38.4007 62.1999 38.8782 62.1999 39.4673V40.534Z" fill="#428DFF"/>
</g>
<defs>
<clipPath id="clip0_21015_63355">
<rect width="64" height="64" fill="white" transform="translate(0.333252)"/>
</clipPath>
</defs>
</svg>
