<svg width="65" height="64" viewBox="0 0 65 64" fill="none" xmlns="http://www.w3.org/2000/svg">
<g clip-path="url(#clip0_21015_63282)">
<path d="M35.8665 4.26641C35.8665 6.03372 34.4338 7.46641 32.6665 7.46641H17.7332C15.9659 7.46641 14.5332 6.03372 14.5332 4.26641C14.5332 2.4991 15.9659 1.06641 17.7332 1.06641H32.6665C33.5152 1.06641 34.3292 1.40355 34.9293 2.00366C35.5294 2.60378 35.8665 3.41771 35.8665 4.26641Z" fill="#E8EDFC"/>
<path d="M32.6666 1.06641H29.4666C31.2339 1.06641 32.6666 2.4991 32.6666 4.26641C32.6666 6.03372 31.2339 7.46641 29.4666 7.46641H32.6666C34.4339 7.46641 35.8666 6.03372 35.8666 4.26641C35.8666 2.4991 34.4339 1.06641 32.6666 1.06641Z" fill="#CAD9FC"/>
<path d="M63.5997 4.26641C63.5997 6.03372 62.167 7.46641 60.3997 7.46641H43.3331C41.5657 7.46641 40.1331 6.03372 40.1331 4.26641C40.1331 2.4991 41.5657 1.06641 43.3331 1.06641H60.3997C61.2484 1.06641 62.0623 1.40355 62.6625 2.00366C63.2626 2.60378 63.5997 3.41771 63.5997 4.26641Z" fill="#E8EDFC"/>
<path d="M60.3997 1.06641H57.1997C58.967 1.06641 60.3997 2.4991 60.3997 4.26641C60.3997 6.03372 58.967 7.46641 57.1997 7.46641H60.3997C62.167 7.46641 63.5997 6.03372 63.5997 4.26641C63.5997 2.4991 62.167 1.06641 60.3997 1.06641Z" fill="#CAD9FC"/>
<path d="M44.8585 59.2535C42.477 61.6379 39.2364 62.9642 35.8665 62.9335H14.5545C9.74579 62.9354 5.34173 60.2421 3.15262 55.9606C0.963505 51.6791 1.35872 46.5319 4.1758 42.6348L15.9198 27.0508C17.0969 25.4126 17.731 23.4467 17.7331 21.4295V7.4668H32.6665V21.4295C32.6686 23.4467 33.3027 25.4126 34.4798 27.0508L43.3331 38.7735V54.4001C43.3315 56.1361 43.864 57.8305 44.8585 59.2535Z" fill="#E8EDFC"/>
<path d="M43.3332 54.4001V38.7735L34.4799 27.0508C33.3028 25.4126 32.6687 23.4467 32.6666 21.4295V7.4668H29.4666V21.4295C29.4687 23.4467 30.1028 25.4126 31.2799 27.0508L40.1332 38.7735V54.4001C40.1316 56.1361 40.6641 57.8305 41.6586 59.2535C39.2771 61.6379 36.0365 62.9642 32.6666 62.9335H35.8666C39.2365 62.9642 42.4771 61.6379 44.8586 59.2535C43.8641 57.8305 43.3316 56.1361 43.3332 54.4001Z" fill="#CAD9FC"/>
<path d="M43.3332 54.2389C41.8674 56.9942 38.9872 58.7018 35.8665 58.6656H14.5545C11.3506 58.6663 8.41626 56.8722 6.95649 54.0202C5.49673 51.1681 5.75754 47.7387 7.63184 45.1402L10.1172 41.7056C10.5243 41.124 11.1999 40.7902 11.9092 40.8202C14.4478 40.9482 16.6132 41.8549 21.9998 44.7989C27.6275 47.8276 34.4299 47.69 39.9305 44.4362C40.877 43.8944 42.0801 44.1571 42.7145 45.0442C42.9468 45.3466 43.1538 45.6677 43.3332 46.0042V54.2389Z" fill="#CAD9FC"/>
<path d="M42.7145 45.0452C42.0801 44.1581 40.877 43.8954 39.9305 44.4372C39.7257 44.5535 39.5038 44.6687 39.2905 44.7829C39.3735 44.8638 39.4495 44.9516 39.5177 45.0452C39.75 45.3476 39.957 45.6687 40.1364 46.0053V54.2399C38.6701 56.9962 35.7883 58.704 32.6665 58.6666H35.8665C38.9872 58.7028 41.8674 56.9952 43.3332 54.2399V46.0053C43.1538 45.6687 42.9468 45.3476 42.7145 45.0452Z" fill="#A4C2F7"/>
<path d="M29.4664 41.5992C31.2337 41.5992 32.6664 40.1665 32.6664 38.3992C32.6664 36.6319 31.2337 35.1992 29.4664 35.1992C27.699 35.1992 26.2664 36.6319 26.2664 38.3992C26.2664 40.1665 27.699 41.5992 29.4664 41.5992Z" fill="#CAD9FC"/>
<path d="M24.1331 30.9327C25.3113 30.9327 26.2664 29.9776 26.2664 28.7993C26.2664 27.6211 25.3113 26.666 24.1331 26.666C22.9549 26.666 21.9998 27.6211 21.9998 28.7993C21.9998 29.9776 22.9549 30.9327 24.1331 30.9327Z" fill="#CAD9FC"/>
<path d="M20.9331 36.2661C21.5222 36.2661 21.9998 35.7886 21.9998 35.1995C21.9998 34.6104 21.5222 34.1328 20.9331 34.1328C20.344 34.1328 19.8665 34.6104 19.8665 35.1995C19.8665 35.7886 20.344 36.2661 20.9331 36.2661Z" fill="black"/>
<path d="M27.333 22.399C27.9221 22.399 28.3997 21.9214 28.3997 21.3323C28.3997 20.7432 27.9221 20.2656 27.333 20.2656C26.7439 20.2656 26.2664 20.7432 26.2664 21.3323C26.2664 21.9214 26.7439 22.399 27.333 22.399Z" fill="black"/>
<path d="M56.1331 20.2661C56.7222 20.2661 57.1997 19.7886 57.1997 19.1995C57.1997 18.6104 56.7222 18.1328 56.1331 18.1328C55.544 18.1328 55.0664 18.6104 55.0664 19.1995C55.0664 19.7886 55.544 20.2661 56.1331 20.2661Z" fill="black"/>
<path d="M60.3999 7.4668V54.4001C60.3999 59.113 56.5794 62.9335 51.8666 62.9335C47.1538 62.9335 43.3333 59.113 43.3333 54.4001V7.4668H60.3999Z" fill="#E8EDFC"/>
<path d="M57.1998 7.4668V54.4001C57.1985 58.4831 54.3051 61.9931 50.2974 62.7735C52.7934 63.2664 55.3788 62.6103 57.3377 60.9867C59.2966 59.3631 60.421 56.9443 60.3998 54.4001V7.4668H57.1998Z" fill="#CAD9FC"/>
<path d="M51.8665 58.6661C49.5101 58.6661 47.5999 56.7559 47.5999 54.3995V34.1328H56.1332V54.3995C56.1332 56.7559 54.2229 58.6661 51.8665 58.6661Z" fill="#CAD9FC"/>
<path d="M52.933 34.1328V54.3995C52.9295 56.1349 51.8752 57.6954 50.2664 58.3461C51.58 58.8838 53.0753 58.731 54.2531 57.9387C55.4309 57.1464 56.136 55.8189 56.133 54.3995L56.133 34.1328H52.933Z" fill="#A4C2F7"/>
<path d="M52.9332 29.8668C54.7005 29.8668 56.1332 28.4341 56.1332 26.6668C56.1332 24.8995 54.7005 23.4668 52.9332 23.4668C51.1658 23.4668 49.7332 24.8995 49.7332 26.6668C49.7332 28.4341 51.1658 29.8668 52.9332 29.8668Z" fill="#CAD9FC"/>
<path d="M49.7332 17.0655C50.9114 17.0655 51.8665 16.1104 51.8665 14.9322C51.8665 13.754 50.9114 12.7988 49.7332 12.7988C48.555 12.7988 47.5999 13.754 47.5999 14.9322C47.5999 16.1104 48.555 17.0655 49.7332 17.0655Z" fill="#CAD9FC"/>
<path d="M14.5545 62.9331H17.7545C12.9458 62.935 8.54173 60.2417 6.35262 55.9602C4.16351 51.6787 4.55872 46.5315 7.3758 42.6344L19.1198 27.0504C20.2969 25.4122 20.931 23.4463 20.9331 21.4291V7.46641C19.1658 7.46641 17.7331 6.03372 17.7331 4.26641C17.7331 2.4991 19.1658 1.06641 20.9331 1.06641H17.7331C15.9658 1.06641 14.5331 2.4991 14.5331 4.26641C14.5331 6.03372 15.9658 7.46641 17.7331 7.46641V21.4291C17.731 23.4463 17.0969 25.4122 15.9198 27.0504L4.1758 42.6344C1.35872 46.5315 0.963505 51.6787 3.15262 55.9602C5.34173 60.2417 9.74579 62.935 14.5545 62.9331Z" fill="white"/>
<path d="M3.33887 42L8.47593 35.1819L10.1805 36.4661L5.0434 43.2843L3.33887 42Z" fill="white"/>
<path d="M60.3999 3.3526e-06H43.3332C41.1873 -0.00266842 39.3747 1.59186 39.1038 3.72058C38.8329 5.8493 40.1884 7.84699 42.2665 8.38187V35.5915L35.346 26.4277C34.3022 24.9696 33.7385 23.2226 33.7332 21.4293V8.38187C35.8114 7.84699 37.1668 5.8493 36.8959 3.72058C36.625 1.59186 34.8124 -0.00266842 32.6665 3.3526e-06H17.7332C15.5873 -0.00266842 13.7747 1.59186 13.5038 3.72058C13.2329 5.8493 14.5884 7.84699 16.6665 8.38187V21.4293C16.6613 23.2217 16.098 24.968 15.0548 26.4256L8.45961 35.1723C8.10614 35.6436 8.20166 36.3121 8.67294 36.6656C9.14422 37.0191 9.81281 36.9236 10.1663 36.4523L16.7796 27.6832L15.9263 27.0432L16.7903 27.6651C18.0912 25.8455 18.7936 23.6661 18.7999 21.4293V8.53334H31.5999V21.4293C31.6068 23.6773 32.3153 25.8669 33.6265 27.6928L42.2665 39.1307V43.3632C41.3422 42.9594 40.2817 43.0139 39.4036 43.5104C34.2207 46.5698 27.8173 46.7041 22.5108 43.8645C17.1913 40.9568 14.7988 39.8987 11.9743 39.7568C10.9007 39.7056 9.87504 40.205 9.25321 41.0816L6.76787 44.5163C4.65461 47.4385 4.35844 51.299 6.00122 54.5093C7.644 57.7197 10.9482 59.7378 14.5545 59.7333H35.8665C38.3997 59.7538 40.8346 58.7543 42.6228 56.96C42.8223 57.6937 43.1087 58.401 43.4761 59.0667C41.3602 60.8871 38.6577 61.8815 35.8665 61.8667H14.5545C10.1465 61.8687 6.10921 59.4 4.10231 55.4753C2.09541 51.5506 2.45756 46.8322 5.03987 43.2597C5.263 42.9507 5.30429 42.5461 5.1482 42.1983C4.99211 41.8505 4.66235 41.6125 4.28313 41.5738C3.90392 41.5351 3.53286 41.7016 3.30974 42.0107C0.258287 46.2327 -0.169459 51.8088 2.20233 56.4468C4.57411 61.0849 9.34523 64.0023 14.5545 64H35.8665C39.1078 64.016 42.2497 62.8822 44.7337 60.8C47.3843 63.765 51.5904 64.7854 55.305 63.3646C59.0196 61.9438 61.4711 58.377 61.4665 54.4V8.38187C63.5447 7.84699 64.9001 5.8493 64.6292 3.72058C64.3583 1.59186 62.5458 -0.00266842 60.3999 3.3526e-06ZM17.7332 6.4C16.555 6.4 15.5999 5.44488 15.5999 4.26667C15.5999 3.08846 16.555 2.13334 17.7332 2.13334H32.6665C33.8447 2.13334 34.7999 3.08846 34.7999 4.26667C34.7999 5.44488 33.8447 6.4 32.6665 6.4H17.7332ZM35.8665 57.6H14.5545C11.7514 57.6004 9.18425 56.0308 7.90697 53.5357C6.62969 51.0405 6.85752 48.0401 8.49694 45.7664L10.9823 42.3307C11.1849 42.0511 11.5096 41.886 11.8548 41.8869C14.1215 42.0011 16.1023 42.7925 21.4889 45.7365C27.4405 48.936 34.6306 48.7961 40.4532 45.3675C40.9405 45.0864 41.5622 45.2321 41.874 45.7003C42.0175 45.8893 42.1486 46.0874 42.2665 46.2933V53.9349C40.9514 56.2225 38.5051 57.6234 35.8665 57.6ZM59.3332 54.4C59.3332 58.5237 55.9903 61.8667 51.8665 61.8667C47.7428 61.8667 44.3999 58.5237 44.3999 54.4V8.53334H59.3332V54.4ZM60.3999 6.4H43.3332C42.155 6.4 41.1999 5.44488 41.1999 4.26667C41.1999 3.08846 42.155 2.13334 43.3332 2.13334H60.3999C61.5781 2.13334 62.5332 3.08846 62.5332 4.26667C62.5332 5.44488 61.5781 6.4 60.3999 6.4Z" fill="#428DFF"/>
<path d="M6.76464 40.2935C6.38356 40.2954 6.03041 40.0938 5.83821 39.7648C5.64602 39.4357 5.64399 39.0291 5.83288 38.6981C6.02177 38.3671 6.37289 38.1621 6.75397 38.1602H6.76464C7.35374 38.1602 7.83131 38.6377 7.83131 39.2268C7.83131 39.8159 7.35374 40.2935 6.76464 40.2935Z" fill="#428DFF"/>
<path d="M25.2 38.3995C25.2 40.7559 27.1102 42.6661 29.4666 42.6661C31.823 42.6661 33.7333 40.7559 33.7333 38.3995C33.7333 36.0431 31.823 34.1328 29.4666 34.1328C27.1102 34.1328 25.2 36.0431 25.2 38.3995ZM29.4666 36.2661C30.6448 36.2661 31.6 37.2213 31.6 38.3995C31.6 39.5777 30.6448 40.5328 29.4666 40.5328C28.2884 40.5328 27.3333 39.5777 27.3333 38.3995C27.3333 37.2213 28.2884 36.2661 29.4666 36.2661Z" fill="#428DFF"/>
<path d="M20.9331 28.7996C20.9331 30.5669 22.3658 31.9996 24.1331 31.9996C25.9004 31.9996 27.3331 30.5669 27.3331 28.7996C27.3331 27.0323 25.9004 25.5996 24.1331 25.5996C22.3658 25.5996 20.9331 27.0323 20.9331 28.7996ZM25.1998 28.7996C25.1998 29.3887 24.7222 29.8663 24.1331 29.8663C23.544 29.8663 23.0664 29.3887 23.0664 28.7996C23.0664 28.2105 23.544 27.7329 24.1331 27.7329C24.7222 27.7329 25.1998 28.2105 25.1998 28.7996Z" fill="#428DFF"/>
<path d="M20.9331 36.2661C21.5222 36.2661 21.9998 35.7886 21.9998 35.1995C21.9998 34.6104 21.5222 34.1328 20.9331 34.1328C20.344 34.1328 19.8665 34.6104 19.8665 35.1995C19.8665 35.7886 20.344 36.2661 20.9331 36.2661Z" fill="#428DFF"/>
<path d="M27.3333 22.4009C27.9224 22.4009 28.3999 21.9233 28.3999 21.3342C28.3999 20.7451 27.9224 20.2676 27.3333 20.2676C26.7442 20.2676 26.2666 20.7451 26.2666 21.3342C26.2666 21.9233 26.7442 22.4009 27.3333 22.4009Z" fill="#428DFF"/>
<path d="M56.1333 20.2661C56.7224 20.2661 57.2 19.7886 57.2 19.1995C57.2 18.6104 56.7224 18.1328 56.1333 18.1328C55.5442 18.1328 55.0667 18.6104 55.0667 19.1995C55.0667 19.7886 55.5442 20.2661 56.1333 20.2661Z" fill="#428DFF"/>
<path d="M51.8665 59.7331C54.8106 59.7295 57.1963 57.3438 57.1999 54.3997V34.1331C57.1999 33.544 56.7223 33.0664 56.1332 33.0664H47.5999C47.0108 33.0664 46.5332 33.544 46.5332 34.1331V54.3997C46.5367 57.3438 48.9225 59.7295 51.8665 59.7331ZM48.6665 35.1997H55.0665V54.3997C55.0665 56.1671 53.6338 57.5997 51.8665 57.5997C50.0992 57.5997 48.6665 56.1671 48.6665 54.3997V35.1997Z" fill="#428DFF"/>
<path d="M52.9332 22.4004C50.5768 22.4004 48.6665 24.3106 48.6665 26.6671C48.6665 29.0235 50.5768 30.9337 52.9332 30.9337C55.2896 30.9337 57.1998 29.0235 57.1998 26.6671C57.1998 24.3106 55.2896 22.4004 52.9332 22.4004ZM52.9332 28.8004C51.755 28.8004 50.7998 27.8453 50.7998 26.6671C50.7998 25.4888 51.755 24.5337 52.9332 24.5337C54.1114 24.5337 55.0665 25.4888 55.0665 26.6671C55.0665 27.8453 54.1114 28.8004 52.9332 28.8004Z" fill="#428DFF"/>
<path d="M49.7332 18.1324C51.5005 18.1324 52.9332 16.6997 52.9332 14.9324C52.9332 13.1651 51.5005 11.7324 49.7332 11.7324C47.9659 11.7324 46.5332 13.1651 46.5332 14.9324C46.5332 16.6997 47.9659 18.1324 49.7332 18.1324ZM49.7332 13.8658C50.3223 13.8658 50.7999 14.3433 50.7999 14.9324C50.7999 15.5215 50.3223 15.9991 49.7332 15.9991C49.1441 15.9991 48.6665 15.5215 48.6665 14.9324C48.6665 14.3433 49.1441 13.8658 49.7332 13.8658Z" fill="#428DFF"/>
</g>
<defs>
<clipPath id="clip0_21015_63282">
<rect width="64" height="64" fill="white" transform="translate(0.666504)"/>
</clipPath>
</defs>
</svg>
