<svg width="65" height="64" viewBox="0 0 65 64" fill="none" xmlns="http://www.w3.org/2000/svg">
<g id="fi_1491468" clip-path="url(#clip0_21015_62349)">
<g id="Page-1">
<g id="001---Thinking">
<path id="Shape" d="M49.393 39.5634C48.0504 42.629 47.5471 45.9965 47.9346 49.3208C48.1708 51.4844 48.5991 53.6226 49.2146 55.7103C49.545 56.7915 49.9625 57.8441 50.4631 58.8578C51.084 59.8116 51.6447 60.8032 52.1418 61.827L25.8074 61.9004V61.8899C25.7235 61.5752 24.1392 55.406 20.6349 53.8217C19.9844 54.0526 19.292 54.2834 18.589 54.5247C16.2587 55.333 13.8878 56.0194 11.4861 56.5811C10.8244 56.7392 10.1275 56.6418 9.5346 56.3083C8.85973 55.8931 8.35693 55.2488 8.1182 54.4932C7.84338 53.7459 7.74291 52.9456 7.82443 52.1535C8.06613 51.3447 8.14809 50.4966 8.06575 49.6565C7.79296 48.5968 6.78575 48.3345 5.97788 47.768C5.33788 47.3063 6.50247 45.827 6.50247 45.827C6.50247 45.827 5.26443 44.9142 4.82378 44.5155C4.36214 44.1378 5.01263 43.4873 5.58968 42.2598C5.82778 41.7268 5.89734 41.1337 5.78902 40.5601C5.5687 39.4375 3.85853 39.0073 3.02968 38.3883C2.63099 38.0945 1.99099 37.6539 1.91755 37.1188C1.80214 36.3739 2.68345 35.3247 3.11362 34.8001C4.94396 32.4413 6.51292 29.8909 7.79296 27.1936C7.96094 26.9088 8.06143 26.5894 8.08673 26.2598C8.06575 24.7595 5.89394 24.1404 5.6946 22.6821C5.66336 22.2541 5.73908 21.825 5.91493 21.4336C6.51996 20.1475 7.0387 18.8226 7.46771 17.4677C7.72595 16.2247 8.05879 14.9984 8.46443 13.7955C9.34427 11.3821 10.7001 9.16998 12.4513 7.2906C15.0218 4.57323 18.8198 3.23028 22.408 2.51683C25.599 1.81917 28.8349 1.34588 32.092 1.10044C32.1969 1.08995 32.3018 1.08995 32.4067 1.07946C39.1215 0.743718 44.4303 3.02044 49.6343 7.09126C52.4699 9.20674 54.5427 12.1851 55.5412 15.5791C56.302 18.3818 56.6588 21.2788 56.6008 24.1824C56.5807 27.0499 55.7436 29.8523 54.1877 32.2611C52.6244 34.7267 50.568 36.867 49.393 39.5634Z" fill="#A4C2F7"/>
<path id="Shape_2" d="M46.2454 39.5645C44.9028 42.6302 44.3995 45.9977 44.7871 49.3219C45.0232 51.4855 45.4516 53.6238 46.0671 55.7114C46.3974 56.7926 46.815 57.8452 47.3156 58.8589C47.9365 59.8127 48.4971 60.8044 48.9943 61.8281L28.8185 61.8806L25.8074 61.8911C25.7339 61.6078 24.4644 56.6766 21.7051 54.4839C21.3766 54.2208 21.0172 53.9988 20.6349 53.8229C20.6035 53.8334 20.5825 53.8439 20.551 53.8544C19.9215 54.0747 19.2605 54.295 18.589 54.5258C18.5785 54.5153 18.5575 54.5048 18.5471 54.4943C18.2278 54.221 17.8709 53.9949 17.4874 53.8229C15.7143 54.4419 13.6684 55.1239 11.8008 55.6799C11.0035 55.9212 10.2375 56.1311 9.5346 56.3094C8.85973 55.8942 8.35693 55.2499 8.1182 54.4943C7.84338 53.747 7.74291 52.9468 7.82443 52.1547C8.06613 51.3459 8.14809 50.4977 8.06575 49.6576C7.79296 48.598 6.78575 48.3357 5.97788 47.7691C5.33788 47.3075 6.50247 45.8281 6.50247 45.8281C6.50247 45.8281 5.26443 44.9153 4.82378 44.5166C4.36214 44.1389 5.01263 43.4884 5.58968 42.2609C5.82778 41.7279 5.89734 41.1349 5.78902 40.5612C5.5687 39.4386 3.85853 39.0084 3.02968 38.3894C2.63099 38.0957 1.99099 37.655 1.91755 37.1199C1.80214 36.375 2.68345 35.3258 3.11362 34.8012C4.94396 32.4424 6.51292 29.892 7.79296 27.1947C7.96094 26.91 8.06143 26.5905 8.08673 26.2609C8.06575 24.7606 5.89394 24.1416 5.6946 22.6832C5.66336 22.2552 5.73908 21.8261 5.91493 21.4347C6.51996 20.1486 7.0387 18.8237 7.46771 17.4688C7.72595 16.2258 8.05879 14.9996 8.46443 13.7966C9.34427 11.3832 10.7001 9.1711 12.4513 7.29173C15.0218 4.57435 18.8198 3.2314 22.408 2.51796C25.599 1.8203 28.8349 1.34701 32.092 1.10156C32.5641 1.13304 33.0257 1.17501 33.4769 1.23796C38.2765 1.93151 42.7845 3.96013 46.4867 7.09238C49.3224 9.20786 51.3951 12.1863 52.3936 15.5803C53.1545 18.383 53.5113 21.28 53.4533 24.1835C53.4332 27.0511 52.5961 29.8534 51.0402 32.2622C49.4769 34.7278 47.4205 36.8681 46.2454 39.5645Z" fill="white"/>
<path id="Shape_3" d="M46.2455 39.5648C44.9029 42.6305 44.3996 45.998 44.7871 49.3222C45.0233 51.4858 45.4517 53.6241 46.0671 55.7117C46.3975 56.7929 46.8151 57.8456 47.3157 58.8593C47.9366 59.813 48.4972 60.8047 48.9944 61.8284L28.8186 61.8809C28.7137 61.4822 27.1189 55.397 23.6462 53.8232C23.0271 54.0435 22.3766 54.2639 21.7052 54.4842C21.6722 54.5026 21.6369 54.5167 21.6003 54.5261C21.2847 54.253 20.9313 54.0269 20.5511 53.8547C20.5301 53.8442 20.5196 53.8337 20.4986 53.8232C19.8796 54.0435 19.2186 54.2639 18.5471 54.4947C16.5012 55.1766 14.3085 55.8691 12.5458 56.3097C12.2607 56.1479 12.0081 55.9344 11.8009 55.6802C11.5022 55.3324 11.2742 54.9297 11.1294 54.4947C10.8546 53.7473 10.7541 52.9471 10.8357 52.155C11.0774 51.3462 11.1593 50.4981 11.077 49.658C10.8042 48.5983 9.79698 48.336 8.98911 47.7694C8.34911 47.3078 9.5137 45.8284 9.5137 45.8284C9.5137 45.8284 8.27566 44.9157 7.83501 44.517C7.37337 44.1393 8.02386 43.4888 8.60091 42.2612C8.83901 41.7282 8.90857 41.1352 8.80025 40.5616C8.57993 39.4389 6.86976 39.0088 6.04091 38.3898C5.64222 38.096 5.00222 37.6553 4.92878 37.1202C4.81337 36.3753 5.69468 35.3261 6.12485 34.8016C7.95519 32.4428 9.52415 29.8923 10.8042 27.195C10.9722 26.9103 11.0727 26.5908 11.098 26.2612C11.077 24.7609 8.90517 24.1419 8.70583 22.6835C8.67459 22.2555 8.75031 21.8265 8.92616 21.435C9.53119 20.149 10.0499 18.8241 10.4789 17.4691C10.7372 16.2262 11.07 14.9999 11.4757 13.797C12.3555 11.3835 13.7113 9.17142 15.4626 7.29205C18.033 4.57467 21.8311 3.23172 25.4193 2.51828C28.0796 1.94379 30.7696 1.51648 33.477 1.23828C38.2766 1.93184 42.7846 3.96046 46.4868 7.09271C49.3225 9.20818 51.3952 12.1866 52.3937 15.5806C53.1545 18.3833 53.5114 21.2803 53.4534 24.1839C53.4333 27.0514 52.5962 29.8538 51.0403 32.2625C49.477 34.7281 47.4206 36.8684 46.2455 39.5648Z" fill="#E8EDFC"/>
<path id="Shape_4" d="M62.7595 12.6528V14.6252C62.7625 15.0265 62.4812 15.3739 62.088 15.4541L59.0873 16.0521C58.8835 16.8176 58.5764 17.5518 58.1745 18.2344L59.8847 20.7839C60.0972 21.121 60.0494 21.5602 59.7693 21.8436L58.3739 23.239C58.0904 23.5191 57.6513 23.567 57.3142 23.3544L54.7647 21.6443C54.6388 21.7177 54.5024 21.7911 54.366 21.8646C53.7994 22.1618 53.2011 22.3941 52.5824 22.557L52.404 23.4803L49.7706 24.0049C49.5679 24.7597 49.2866 25.4911 48.9313 26.1872C48.6342 26.1052 48.4102 25.8607 48.3542 25.5577L47.7562 22.557C46.9907 22.3532 46.2565 22.0462 45.5739 21.6443L43.0244 23.3544C42.6873 23.567 42.2482 23.5191 41.9647 23.239L40.5693 21.8436C40.2892 21.5602 40.2413 21.121 40.4539 20.7839L42.164 18.2344C41.7621 17.5518 41.4551 16.8176 41.2513 16.0521L38.2506 15.4541C37.8574 15.3739 37.576 15.0265 37.5791 14.6252V12.6528C37.576 12.2515 37.8574 11.9042 38.2506 11.8239L41.2513 11.2259C41.3714 10.7599 41.5366 10.3066 41.7444 9.87246C41.8631 9.58597 42.0034 9.3089 42.164 9.04361L41.1988 7.60623L40.4539 6.4941C40.2552 6.17479 40.2849 5.76387 40.5273 5.47639L40.5693 5.43443L41.9647 4.03902C42.2482 3.7589 42.6873 3.71107 43.0244 3.92361L45.5739 5.63377C46.2565 5.23188 46.9907 4.92479 47.7562 4.72098L48.3542 1.72033C48.4345 1.32715 48.7818 1.04576 49.1831 1.04885H51.1555C51.5568 1.04576 51.9041 1.32715 51.9844 1.72033L52.5824 4.72098C53.3479 4.92479 54.0821 5.23188 54.7647 5.63377L57.3142 3.92361C57.6513 3.71107 58.0904 3.7589 58.3739 4.03902L59.7693 5.43443C60.0494 5.71788 60.0972 6.15699 59.8847 6.4941L58.1745 9.04361C58.5764 9.72624 58.8835 10.4604 59.0873 11.2259L62.088 11.8239C62.4812 11.9042 62.7625 12.2515 62.7595 12.6528Z" fill="#A4C2F7"/>
<path id="Shape_5" d="M62.7596 12.6523V14.6247C62.7626 15.026 62.4813 15.3734 62.0881 15.4536L59.0874 16.0516C58.8836 16.8171 58.5765 17.5513 58.1746 18.2339L59.8848 20.7834C60.0973 21.1205 60.0495 21.5597 59.7694 21.8431L58.374 23.2385C58.0905 23.5186 57.6514 23.5665 57.3143 23.3539L55.9923 22.4726L56.6219 21.8431C56.902 21.5597 56.9498 21.1205 56.7373 20.7834L55.0271 18.2339C55.429 17.5513 55.7361 16.8171 55.9399 16.0516L58.9405 15.4536C59.3337 15.3734 59.6151 15.026 59.612 14.6247V12.6523C59.6151 12.251 59.3337 11.9037 58.9405 11.8234L55.9399 11.2254C55.7361 10.4599 55.429 9.72574 55.0271 9.04311L56.7373 6.4936C56.9498 6.15649 56.902 5.71738 56.6219 5.43393L55.9923 4.80442L57.3143 3.92311C57.6514 3.71058 58.0905 3.7584 58.374 4.03852L59.7694 5.43393C60.0495 5.71738 60.0973 6.15649 59.8848 6.4936L58.1746 9.04311C58.5765 9.72574 58.8836 10.4599 59.0874 11.2254L62.0881 11.8234C62.4813 11.9037 62.7626 12.251 62.7596 12.6523Z" fill="#7FACFA"/>
<path id="Shape_6" d="M55.4153 13.6385C55.4153 16.5357 53.0666 18.8844 50.1694 18.8844C49.6365 18.8827 49.1065 18.805 48.5956 18.6536C46.4092 17.9611 44.9233 15.9319 44.9233 13.6385C44.9233 11.345 46.4092 9.31586 48.5956 8.6234C49.1065 8.47193 49.6365 8.39421 50.1694 8.39258C53.0666 8.39258 55.4153 10.7412 55.4153 13.6385Z" fill="#A4C2F7"/>
<path id="Oval" d="M48.5957 18.6532C50.6238 18.6532 52.2678 16.4079 52.2678 13.6381C52.2678 10.8684 50.6238 8.62305 48.5957 8.62305C46.5677 8.62305 44.9236 10.8684 44.9236 13.6381C44.9236 16.4079 46.5677 18.6532 48.5957 18.6532Z" fill="white"/>
<path id="Shape_7" d="M54.366 19.7458V22.2219C54.3661 22.7205 54.0153 23.1503 53.5267 23.2501L52.4041 23.4809L49.7706 24.0055C49.5679 24.7602 49.2866 25.4917 48.9313 26.1878C48.8369 26.3766 48.7424 26.555 48.6375 26.7333L50.7673 29.9124C51.0423 30.3293 50.9853 30.8823 50.6309 31.2343L48.8788 32.9864C48.5268 33.3408 47.9738 33.3978 47.5569 33.1228L44.3778 30.993C43.5218 31.488 42.6048 31.8689 41.65 32.1261L40.8946 35.8822C40.7948 36.3708 40.365 36.7216 39.8664 36.7215H37.3903C36.8917 36.7216 36.4618 36.3708 36.3621 35.8822L35.6067 32.1261C34.6519 31.8689 33.7348 31.488 32.8788 30.993L29.6998 33.1228C29.2829 33.3978 28.7299 33.3408 28.3778 32.9864L26.6257 31.2343C26.2714 30.8823 26.2143 30.3293 26.4893 29.9124L28.6191 26.7333C28.1242 25.8773 27.7433 24.9602 27.486 24.0055L23.73 23.2501C23.2414 23.1503 22.8905 22.7205 22.8906 22.2219V19.7458C22.8905 19.2472 23.2414 18.8173 23.73 18.7176L27.486 17.9622C27.7433 17.0074 28.1242 16.0903 28.6191 15.2343L26.4893 12.0553C26.2143 11.6384 26.2714 11.0854 26.6257 10.7333L28.3778 8.98121C28.7299 8.62687 29.2829 8.56982 29.6998 8.84481L32.8788 10.9746C33.7348 10.4797 34.6519 10.0988 35.6067 9.84153L36.3621 6.08547C36.4618 5.5969 36.8917 5.24602 37.3903 5.24612H39.8664C40.3663 5.2423 40.7982 5.59487 40.8946 6.08547L41.1988 7.60678L41.65 9.84153L41.7444 9.87301C42.6663 10.1244 43.5516 10.4947 44.3778 10.9746L47.5569 8.84481C47.9738 8.56982 48.5268 8.62687 48.8788 8.98121L50.6309 10.7333C50.9853 11.0854 51.0423 11.6384 50.7673 12.0553L48.6375 15.2343C49.1325 16.0903 49.5134 17.0074 49.7706 17.9622L53.5267 18.7176C54.0153 18.8173 54.3661 19.2472 54.366 19.7458Z" fill="#A4C2F7"/>
<path id="Shape_8" d="M54.3661 19.7443V22.2203C54.3662 22.719 54.0153 23.1488 53.5267 23.2485L52.4041 23.4793L50.5051 23.8571L49.7706 24.0039C49.5679 24.7587 49.2866 25.4901 48.9313 26.1862C48.8369 26.3751 48.7424 26.5534 48.6375 26.7318L50.7674 29.9108C51.0424 30.3278 50.9853 30.8808 50.631 31.2328L48.8788 32.9849C48.5268 33.3393 47.9738 33.3963 47.5569 33.1213L46.3818 32.3344L47.4834 31.2328C47.8378 30.8808 47.8948 30.3278 47.6198 29.9108L45.49 26.7318C45.5949 26.5534 45.6893 26.3751 45.7838 26.1862C46.1391 25.4901 46.4204 24.7587 46.6231 24.0039L49.2565 23.4793L50.3792 23.2485C50.8677 23.1488 51.2186 22.719 51.2185 22.2203V19.7443C51.2186 19.2456 50.8677 18.8158 50.3792 18.7161L46.6231 17.9607C46.3659 17.0059 45.985 16.0888 45.49 15.2328L47.6198 12.0538C47.8948 11.6368 47.8378 11.0838 47.4834 10.7318L46.3818 9.63017L47.5569 8.84328C47.9738 8.56829 48.5268 8.62534 48.8788 8.97968L50.631 10.7318C50.9853 11.0838 51.0424 11.6368 50.7674 12.0538L48.6375 15.2328C49.1325 16.0888 49.5134 17.0059 49.7706 17.9607L53.5267 18.7161C54.0153 18.8158 54.3662 19.2456 54.3661 19.7443Z" fill="#7FACFA"/>
<path id="Oval_2" d="M38.6283 27.2777C42.105 27.2777 44.9234 24.4593 44.9234 20.9826C44.9234 17.5059 42.105 14.6875 38.6283 14.6875C35.1517 14.6875 32.3333 17.5059 32.3333 20.9826C32.3333 24.4593 35.1517 27.2777 38.6283 27.2777Z" fill="white"/>
<path id="Shape_9" d="M4.93408 21.0613C5.37474 19.9166 5.90562 18.9199 6.23611 17.9484C6.31795 17.7081 6.3893 17.4658 6.44595 17.2349L6.6369 16.4019C6.767 15.8406 6.90654 15.2709 7.07126 14.698C7.74607 12.3905 8.82375 10.2206 10.2545 8.28858C10.6983 7.68935 11.1773 7.1169 11.6887 6.57422L13.2142 8.01369C12.7597 8.49735 12.3337 9.00706 11.9384 9.54025C10.658 11.2712 9.69269 13.2143 9.08674 15.2803C8.93671 15.8049 8.80661 16.3347 8.67861 16.8803L8.48975 17.7092C8.41211 18.0313 8.32189 18.3387 8.22011 18.6314C7.81093 19.8138 7.26641 20.8347 6.895 21.8104L4.93408 21.0613Z" fill="white"/>
<path id="Shape_10" d="M7.6871 16.5109C7.12595 16.3832 6.56591 16.7285 6.42809 17.2873C6.00362 18.5746 5.5037 19.8358 4.93091 21.0644L6.89183 21.8114C7.50328 20.5044 8.02898 19.1589 8.4656 17.7836C8.53273 17.5115 8.48821 17.2238 8.34197 16.9848C8.19573 16.7457 7.95992 16.5751 7.6871 16.5109Z" fill="#428DFF"/>
<path id="Shape_11" d="M13.2141 8.01174L11.6886 6.57227C11.1771 7.11563 10.6982 7.68878 10.2544 8.28872C10.0327 8.58529 9.82074 8.88816 9.6186 9.19731C9.45701 9.43215 9.40005 9.72349 9.4613 10.0019C9.52255 10.2803 9.69652 10.5208 9.94174 10.6662C10.4273 10.9498 11.0493 10.8128 11.3707 10.3514C11.5519 10.0716 11.7411 9.80129 11.9383 9.5404C12.3335 9.00649 12.7595 8.49607 13.2141 8.01174Z" fill="#428DFF"/>
<path id="Shape_12" d="M7.60099 13.1144C7.49761 13.3858 7.50401 13.6869 7.61883 13.9537L7.72375 14.1279C7.76633 14.1848 7.81645 14.2356 7.87273 14.279C7.91981 14.3262 7.97397 14.3659 8.03326 14.3965C8.09588 14.429 8.16074 14.4571 8.22735 14.4804C8.49197 14.5585 8.77571 14.5399 9.02788 14.4279C9.14602 14.3691 9.25263 14.2895 9.34263 14.1929C9.61816 13.8981 9.69646 13.4697 9.54303 13.0965C9.48615 12.9724 9.40804 12.8591 9.31221 12.7618C9.21761 12.6624 9.10514 12.5816 8.98066 12.5237C8.72474 12.4123 8.43523 12.4063 8.17489 12.5069C7.91242 12.6278 7.7068 12.8454 7.60099 13.1144Z" fill="#428DFF"/>
<path id="Shape_13" d="M10.8398 57.7052C9.10837 57.6739 7.60136 56.5133 7.12885 54.8473C6.79168 53.9457 6.67024 52.9777 6.77423 52.0208C6.81305 51.7417 6.87285 51.47 6.93475 51.1972C7.06717 50.7875 7.10659 50.3535 7.05016 49.9266C6.96623 49.6003 6.72492 49.4367 6.1059 49.0873C5.8562 48.9446 5.60334 48.7988 5.37147 48.6309C5.03349 48.3875 4.81072 48.0156 4.75561 47.6027C4.71558 47.0752 4.83473 46.5478 5.09764 46.0887C4.73987 45.8149 4.34852 45.5064 4.1219 45.3018C3.15246 44.5087 3.79456 43.3724 4.17961 42.6946C4.3202 42.4449 4.48492 42.1564 4.64125 41.8207C4.78573 41.488 4.82703 41.1195 4.7598 40.7631C4.70629 40.4903 3.94669 40.1021 3.49239 39.8702C3.11281 39.6905 2.74858 39.4799 2.40334 39.2407C1.64928 38.8143 1.09924 38.1016 0.877836 37.2641C0.711016 36.1834 1.50734 35.1038 2.268 34.1774C4.06367 31.8638 5.60307 29.3623 6.85921 26.7167C6.93936 26.5738 6.99938 26.4206 7.03757 26.2613C7.03757 25.9717 6.69449 25.6402 6.18039 25.1691C5.40681 24.5984 4.86247 23.7702 4.64544 22.8336C4.59401 22.2319 4.69204 21.6268 4.93082 21.0721C5.05485 20.7128 5.36349 20.4487 5.73762 20.3817C6.11175 20.3147 6.49286 20.4553 6.73386 20.7492C6.97487 21.0431 7.03807 21.4443 6.89908 21.7981C6.79418 22.0371 6.7351 22.2937 6.72492 22.5546C6.77003 22.8693 7.17187 23.2313 7.59679 23.6216C8.46479 24.2324 9.02605 25.1889 9.13593 26.2445C9.11539 26.744 8.97505 27.2312 8.72675 27.6651C7.41307 30.4302 5.8033 33.0447 3.9257 35.4626C3.12728 36.4384 2.95626 36.8266 2.95626 36.9829C3.15023 37.1716 3.36093 37.3422 3.58577 37.4928C3.85962 37.6838 4.14878 37.8519 4.45029 37.9953C5.34525 38.4528 6.57174 39.0802 6.82249 40.3602C6.97338 41.1526 6.87591 41.9723 6.54341 42.7072C6.36085 43.0965 6.172 43.4322 6.00728 43.7218C5.95587 43.812 5.90236 43.9127 5.84885 44.004C6.28426 44.3544 6.8781 44.7993 7.12885 44.9839C7.3574 45.153 7.50755 45.4076 7.54493 45.6894C7.58231 45.9713 7.50372 46.2562 7.32715 46.479C7.17092 46.6819 7.03525 46.8998 6.92216 47.1295L7.15298 47.2575C8.07679 47.6571 8.7821 48.4374 9.08662 49.3968C9.24106 50.1467 9.20499 50.9233 8.9817 51.6557C8.93344 51.8655 8.88413 52.0848 8.8537 52.2999C8.79861 52.9312 8.88721 53.5668 9.11285 54.159C9.34697 55.1254 10.2969 55.7392 11.2742 55.5555C14.3297 54.8203 17.3402 53.9095 20.2908 52.8276C20.8384 52.6373 21.4366 52.9269 21.6269 53.4744C21.8173 54.022 21.5277 54.6202 20.9801 54.8106C17.9436 55.9237 14.8442 56.8573 11.698 57.6066C11.416 57.6684 11.1285 57.7015 10.8398 57.7052Z" fill="#428DFF"/>
<path id="Shape_14" d="M12.4514 8.34057C12.0324 8.34072 11.6534 8.09147 11.4875 7.70662C11.3217 7.32176 11.4008 6.87513 11.6887 6.57061C14.0346 4.09139 17.4728 2.42844 22.2035 1.48838C25.546 0.755698 28.9376 0.268974 32.3512 0.032116C33.567 -0.0307692 34.7858 -0.00657632 35.9982 0.104509C36.5776 0.158398 37.0037 0.671817 36.9498 1.25126C36.8959 1.83071 36.3825 2.25676 35.803 2.20287C34.6924 2.09796 33.5755 2.07411 32.4614 2.13153C29.1502 2.36272 25.8603 2.83541 22.618 3.54582C18.3835 4.38516 15.2213 5.88969 13.2131 8.01218C13.0151 8.22163 12.7397 8.34038 12.4514 8.34057Z" fill="#428DFF"/>
<path id="Shape_15" d="M11.5869 18.3258C11.3106 18.2648 11.0707 18.0948 10.9216 17.8544C10.7724 17.614 10.7267 17.3236 10.7947 17.049C10.9596 16.3201 11.1663 15.6012 11.4137 14.8961C12.1431 12.8766 13.2737 11.0258 14.7375 9.455C16.4414 7.65881 19.2354 6.35782 23.0429 5.60031C23.6113 5.48761 24.1635 5.85706 24.2762 6.42549C24.3889 6.99393 24.0194 7.5461 23.451 7.65881C20.0789 8.32923 17.6606 9.41933 16.262 10.8966C14.9942 12.2606 14.0146 13.8664 13.382 15.6179C13.1631 16.2488 12.9799 16.8916 12.8333 17.5431C12.7012 18.1006 12.1463 18.449 11.5869 18.3258Z" fill="#A4C2F7"/>
<path id="Shape_16" d="M25.8074 62.9511C25.3243 62.951 24.9037 62.6209 24.7887 62.1516C24.3806 60.4929 22.7638 55.9363 20.2027 54.779C19.8103 54.6016 19.5661 54.2024 19.5869 53.7722C19.6078 53.3421 19.8894 52.9683 20.2971 52.8297C21.3883 52.4593 22.3766 52.1131 23.1562 51.8413C23.8906 51.5864 24.4351 51.3944 24.7205 51.3031C29.0819 49.914 29.9664 48.3423 29.9412 47.269C29.9347 46.9902 30.0395 46.7203 30.2325 46.5189C30.4254 46.3175 30.6906 46.2012 30.9694 46.1957C31.2489 46.184 31.5212 46.2865 31.7236 46.4797C31.9261 46.6728 32.0413 46.9399 32.0427 47.2197C32.1046 49.8238 29.8573 51.8697 25.3647 53.305C25.0898 53.3931 24.5579 53.5788 23.8528 53.8295L22.9086 54.1579C24.6395 56.0747 25.9031 58.3661 26.6006 60.8528L50.3981 60.7867L50.3278 60.6817C50.0256 60.2464 49.7539 59.7907 49.5147 59.3178C48.9925 58.2577 48.5571 57.157 48.2127 56.0265C47.5759 53.8793 47.1342 51.679 46.8928 49.4524C46.4791 45.9424 47.0101 42.3855 48.4309 39.1494C49.2686 37.3981 50.3046 35.7489 51.5187 34.234C52.1272 33.4135 52.7567 32.5658 53.3023 31.7044C54.1831 30.3375 54.8219 28.8291 55.1908 27.2454C55.3291 26.6893 55.8879 26.3471 56.4461 26.4766C57.0043 26.6061 57.3553 27.1595 57.2346 27.7196C56.8128 29.5343 56.0817 31.2627 55.0733 32.8291C54.4868 33.7535 53.8342 34.6337 53.2036 35.4836C52.0857 36.8718 51.1297 38.3829 50.3541 39.9877C49.0831 42.8813 48.6071 46.0616 48.9754 49.2006C49.2028 51.3025 49.6182 53.3798 50.2166 55.4075C50.5306 56.4334 50.9267 57.4323 51.4011 58.3945C51.6018 58.7872 51.829 59.1658 52.081 59.5276C52.5266 60.1392 52.8844 60.8102 53.1438 61.5211C53.244 61.8395 53.1866 62.1865 52.9895 62.4557C52.7923 62.725 52.4788 62.8844 52.145 62.885L25.8106 62.9585L25.8074 62.9511Z" fill="#428DFF"/>
<path id="Shape_17" d="M39.8665 37.771H37.3904C36.3901 37.7715 35.5285 37.0658 35.3319 36.085L34.7024 32.9501C34.0956 32.7508 33.5049 32.5052 32.9356 32.2156L30.2843 33.994C29.4459 34.5488 28.3323 34.4332 27.6257 33.7181L25.884 31.9764C25.1795 31.2739 25.0651 30.1732 25.6102 29.3409L27.3938 26.677C27.1042 26.1077 26.8587 25.517 26.6594 24.9102L23.5202 24.2807C22.5423 24.0811 21.8404 23.2203 21.8416 22.2222V19.7461C21.8411 18.7458 22.5468 17.8842 23.5276 17.6876L26.6625 17.0581C26.8618 16.4513 27.1073 15.8606 27.397 15.2913L25.6186 12.64C25.0609 11.8018 25.1772 10.6857 25.8956 9.98035L27.6362 8.23976C28.3387 7.5352 29.4394 7.42084 30.2717 7.96592L32.9356 9.74953C33.5049 9.45991 34.0956 9.21438 34.7024 9.0151L35.3319 5.87596C35.5315 4.89805 36.3923 4.19607 37.3904 4.19727H39.8665C40.8668 4.19677 41.7284 4.90247 41.925 5.8833L42.5545 9.01825C43.1613 9.21753 43.752 9.46306 44.3213 9.75268L46.9726 7.97432C47.8108 7.41665 48.9269 7.53289 49.6322 8.2513L51.3728 9.99189C52.0774 10.6944 52.1918 11.7951 51.6467 12.6274L49.8631 15.2913C50.1527 15.8606 50.3982 16.4513 50.5975 17.0581L53.7366 17.6876C54.7145 17.8872 55.4165 18.748 55.4153 19.7461V22.2222C55.4158 23.2225 54.7101 24.0841 53.7293 24.2807L50.5943 24.9102C50.3951 25.517 50.1495 26.1077 49.8599 26.677L51.6383 29.3283C52.1959 30.1665 52.0797 31.2826 51.3613 31.988L49.6207 33.7285C48.9182 34.4331 47.8175 34.5475 46.9852 34.0024L44.3213 32.2188C43.752 32.5084 43.1613 32.7539 42.5545 32.9532L41.925 36.0924C41.7253 37.0703 40.8645 37.7722 39.8665 37.771ZM32.8789 29.9442C33.0632 29.9445 33.2441 29.9933 33.4035 30.0858C34.1811 30.5347 35.0138 30.8803 35.8806 31.114C36.2645 31.2179 36.5566 31.5299 36.635 31.9198L37.3904 35.6727H39.8665L40.6208 31.9198C40.6993 31.5299 40.9914 31.2179 41.3752 31.114C42.2421 30.8803 43.0748 30.5347 43.8523 30.0858C44.1988 29.8848 44.6295 29.8987 44.9623 30.1215L48.1403 32.2513L49.8893 30.4929L47.7657 27.3181C47.5429 26.9852 47.5291 26.5545 47.7301 26.208C48.1789 25.4305 48.5246 24.5978 48.7583 23.7309C48.8622 23.3471 49.1742 23.055 49.564 22.9765L53.317 22.2222V19.7451L49.564 18.9907C49.1742 18.9123 48.8622 18.6202 48.7583 18.2363C48.5246 17.3695 48.1789 16.5368 47.7301 15.7592C47.5291 15.4128 47.5429 14.9821 47.7657 14.6492L49.8956 11.4712L48.1372 9.7233L44.9623 11.8468C44.6295 12.0696 44.1988 12.0835 43.8523 11.8825C43.0748 11.4336 42.2421 11.088 41.3752 10.8543C40.9914 10.7504 40.6993 10.4384 40.6208 10.0485L39.8665 6.29563H37.3904L36.635 10.0485C36.5566 10.4384 36.2645 10.7504 35.8806 10.8543C35.0138 11.088 34.1811 11.4336 33.4035 11.8825C33.057 12.0835 32.6264 12.0696 32.2935 11.8468L29.1155 9.717L27.3665 11.4754L29.4901 14.6503C29.7129 14.9831 29.7267 15.4138 29.5257 15.7603C29.0769 16.5378 28.7312 17.3705 28.4976 18.2374C28.3936 18.6212 28.0816 18.9133 27.6918 18.9918L23.9399 19.7461V22.2222L27.6928 22.9765C28.0827 23.055 28.3947 23.3471 28.4986 23.7309C28.7323 24.5978 29.0779 25.4305 29.5268 26.208C29.7278 26.5545 29.7139 26.9852 29.4911 27.3181L27.3613 30.496L29.1197 32.245L32.2945 30.1215C32.4676 30.0061 32.6709 29.9444 32.8789 29.9442Z" fill="#428DFF"/>
<path id="Shape_18" d="M57.776 24.5382C57.4154 24.5378 57.0623 24.4356 56.7572 24.2434L54.7061 22.8721C54.1942 23.048 53.6326 22.8055 53.4094 22.3125C53.1863 21.8194 53.3748 21.2375 53.8447 20.9689L54.2864 20.715C54.6256 20.541 55.0325 20.5647 55.3492 20.7769L57.7477 22.3864L58.9122 21.2218L57.3039 18.8192C57.0783 18.4828 57.0665 18.0467 57.2734 17.6986C57.6269 17.098 57.8969 16.4521 58.076 15.7786C58.18 15.3938 58.493 15.1011 58.8839 15.0232L61.7167 14.4598V12.8189L58.8892 12.2555C58.4982 12.1776 58.1852 11.8849 58.0813 11.5001C57.9022 10.8266 57.6321 10.1807 57.2787 9.58008C57.0701 9.233 57.0799 8.79691 57.3039 8.45955L58.9133 6.06113L57.7487 4.89654L55.3492 6.50493C55.0129 6.73047 54.5768 6.74231 54.2287 6.53536C53.6281 6.18189 52.9822 5.91187 52.3087 5.73274C51.9239 5.62881 51.6312 5.31579 51.5533 4.92487L50.9899 2.09837H49.349L48.7856 4.93116C48.7077 5.32209 48.415 5.6351 48.0301 5.73903C47.3567 5.91816 46.7107 6.18818 46.1101 6.54165C45.7609 6.74673 45.3247 6.73244 44.9896 6.50493L42.5912 4.89654L41.3217 6.16605C40.909 6.58326 40.2388 6.5949 39.8119 6.19228C39.6113 6.00487 39.495 5.7443 39.4895 5.46982C39.4839 5.19535 39.5896 4.9303 39.7825 4.73496L41.2199 3.29759C41.8478 2.66884 42.8278 2.55985 43.5785 3.03529L45.6307 4.40657C46.025 4.20948 46.4324 4.03947 46.8498 3.89772L47.3251 1.51293C47.5043 0.629965 48.2822 -0.00346824 49.1832 1.42892e-05H51.1557C52.0612 -0.00268747 52.8412 0.637791 53.0148 1.52657L53.489 3.90087C53.9063 4.0427 54.3136 4.21235 54.7082 4.40867L56.7299 3.05313C57.4831 2.56067 58.4782 2.66262 59.1158 3.29759L60.5112 4.693C61.1407 5.3205 61.2497 6.30109 60.7735 7.05156L59.4022 9.1006C59.5993 9.49496 59.7693 9.90229 59.9111 10.3198L62.2959 10.795C63.1788 10.9742 63.8123 11.7522 63.8088 12.6531V14.6256C63.812 15.5315 63.1714 16.3121 62.2822 16.4858L59.9079 16.959C59.7661 17.3762 59.5964 17.7835 59.4001 18.1781L60.7557 20.1999C61.2477 20.9531 61.1458 21.9479 60.5112 22.5857L59.1158 23.9811C58.7612 24.3378 58.279 24.5384 57.776 24.5382Z" fill="#428DFF"/>
<path id="Shape_19" d="M38.6284 28.3272C34.5723 28.3272 31.2842 25.0391 31.2842 20.9829C31.2842 16.9268 34.5723 13.6387 38.6284 13.6387C42.6846 13.6387 45.9727 16.9268 45.9727 20.9829C45.9681 25.0371 42.6826 28.3226 38.6284 28.3272ZM38.6284 15.737C35.7312 15.737 33.3825 18.0857 33.3825 20.9829C33.3825 23.8802 35.7312 26.2288 38.6284 26.2288C41.5257 26.2288 43.8743 23.8802 43.8743 20.9829C43.8709 18.0871 41.5242 15.7405 38.6284 15.737Z" fill="#7FACFA"/>
<path id="Oval_3" d="M38.6283 22.032C39.2077 22.032 39.6775 21.5622 39.6775 20.9828C39.6775 20.4033 39.2077 19.9336 38.6283 19.9336C38.0488 19.9336 37.5791 20.4033 37.5791 20.9828C37.5791 21.5622 38.0488 22.032 38.6283 22.032Z" fill="#7FACFA"/>
<path id="Shape_20" d="M52.3832 19.5038C51.885 19.5041 51.4553 19.1541 51.3548 18.6661C51.2544 18.1781 51.511 17.6868 51.9688 17.4904C53.7942 16.7004 54.8144 14.7376 54.412 12.7897C54.0095 10.8418 52.2949 9.44395 50.3059 9.44214C49.8269 9.43906 49.3513 9.52259 48.9021 9.6887C48.369 9.85924 47.7958 9.58128 47.5997 9.05705C47.4036 8.53282 47.6535 7.94694 48.1676 7.72568C48.8516 7.47087 49.576 7.3415 50.3059 7.34378C53.2903 7.34734 55.8621 9.44605 56.4641 12.3692C57.066 15.2923 55.5327 18.2364 52.7924 19.4188C52.6631 19.4743 52.5239 19.5032 52.3832 19.5038Z" fill="#428DFF"/>
<path id="Oval_4" d="M10.3006 23.0808C10.8801 23.0808 11.3498 22.611 11.3498 22.0316C11.3498 21.4522 10.8801 20.9824 10.3006 20.9824C9.7212 20.9824 9.25146 21.4522 9.25146 22.0316C9.25146 22.611 9.7212 23.0808 10.3006 23.0808Z" fill="#A4C2F7"/>
</g>
</g>
</g>
<defs>
<clipPath id="clip0_21015_62349">
<rect width="64" height="64" fill="white" transform="translate(0.333252)"/>
</clipPath>
</defs>
</svg>
