<svg width="64" height="64" viewBox="0 0 64 64" fill="none" xmlns="http://www.w3.org/2000/svg">
<g clip-path="url(#clip0_21015_63846)">
<path d="M41.6 29.3335V10.6668C41.6 8.89949 40.1673 7.4668 38.4 7.4668H4.26665C2.49934 7.4668 1.06665 8.89949 1.06665 10.6668V55.4668C1.06665 57.2341 2.49934 58.6668 4.26665 58.6668H41.6V29.3335Z" fill="#A4C2F7"/>
<path d="M38.4 7.4668H35.2C36.9673 7.4668 38.4 8.89949 38.4 10.6668V58.6668H41.6V10.6668C41.6 8.89949 40.1673 7.4668 38.4 7.4668Z" fill="#7FACFA"/>
<path d="M37.3334 31.0818V12.7991C37.3334 12.21 36.8558 11.7324 36.2667 11.7324H6.40004C5.81094 11.7324 5.33337 12.21 5.33337 12.7991V53.3324C5.33337 53.9215 5.81094 54.3991 6.40004 54.3991H37.3334V31.0818Z" fill="#E8EDFC"/>
<path d="M36.2667 11.7324H33.0667C33.6558 11.7324 34.1333 12.21 34.1333 12.7991V54.3991H37.3333V12.7991C37.3333 12.21 36.8558 11.7324 36.2667 11.7324Z" fill="#CAD9FC"/>
<path d="M9.59998 9.59974V11.7331C9.59998 12.3222 10.0775 12.7997 10.6666 12.7997H32C32.5891 12.7997 33.0666 12.3222 33.0666 11.7331V9.59974C33.0666 7.83243 31.634 6.39974 29.8666 6.39974H25.6V5.33307C25.6 2.97666 23.6897 1.06641 21.3333 1.06641C18.9769 1.06641 17.0666 2.97666 17.0666 5.33307V6.39974H12.8C11.0327 6.39974 9.59998 7.83243 9.59998 9.59974Z" fill="#E8EDFC"/>
<path d="M29.8666 6.40039H26.6666C28.4339 6.40039 29.8666 7.83308 29.8666 9.60039V11.7337C29.8666 12.3228 29.3891 12.8004 28.8 12.8004H32C32.5891 12.8004 33.0666 12.3228 33.0666 11.7337V9.60039C33.0666 7.83308 31.6339 6.40039 29.8666 6.40039Z" fill="#CAD9FC"/>
<path d="M22.3999 5.33317V6.39983H25.6L25.5999 5.33317C25.6039 3.91329 24.8991 2.58508 23.721 1.79254C22.5429 0.999991 21.0469 0.847674 19.7333 1.3865C21.3421 2.03729 22.3964 3.59771 22.3999 5.33317Z" fill="#CAD9FC"/>
<path d="M45.8666 62.9322C55.2923 62.9322 62.9333 55.2912 62.9333 45.8655C62.9333 36.4398 55.2923 28.7988 45.8666 28.7988C36.4409 28.7988 28.7999 36.4398 28.7999 45.8655C28.7999 55.2912 36.4409 62.9322 45.8666 62.9322Z" fill="#A4C2F7"/>
<path d="M45.8666 28.7988C45.3269 28.7988 44.7935 28.8308 44.2666 28.8799C53.0325 29.7027 59.7325 37.0611 59.7325 45.8655C59.7325 54.6699 53.0325 62.0283 44.2666 62.8511C44.7935 62.9002 45.3269 62.9322 45.8666 62.9322C55.2923 62.9322 62.9333 55.2912 62.9333 45.8655C62.9333 36.4398 55.2923 28.7988 45.8666 28.7988Z" fill="#7FACFA"/>
<path d="M45.8667 58.6664C52.9359 58.6664 58.6667 52.9357 58.6667 45.8664C58.6667 38.7972 52.9359 33.0664 45.8667 33.0664C38.7974 33.0664 33.0667 38.7972 33.0667 45.8664C33.0667 52.9357 38.7974 58.6664 45.8667 58.6664Z" fill="#E8EDFC"/>
<path d="M45.8666 33.0669C45.3316 33.0689 44.7972 33.1045 44.2666 33.1735C50.6646 33.9751 55.4651 39.4146 55.4651 45.8626C55.4651 52.3107 50.6646 57.7501 44.2666 58.5517C49.0147 59.1917 53.7227 57.1266 56.4676 53.1998C59.2124 49.273 59.5346 44.142 57.3024 39.9028C55.0702 35.6635 50.6575 33.0257 45.8666 33.0669Z" fill="#CAD9FC"/>
<path d="M45.8667 54.4007C50.5795 54.4007 54.4 50.5801 54.4 45.8673C54.4 41.1545 50.5795 37.334 45.8667 37.334C41.1539 37.334 37.3334 41.1545 37.3334 45.8673C37.3334 50.5801 41.1539 54.4007 45.8667 54.4007Z" fill="#A4C2F7"/>
<path d="M45.8666 37.334C45.3295 37.3353 44.7938 37.3875 44.2666 37.4897C48.2791 38.267 51.1771 41.7802 51.1771 45.8673C51.1771 49.9545 48.2791 53.4677 44.2666 54.2449C47.454 54.8623 50.7157 53.6175 52.6812 51.0334C54.6467 48.4492 54.9755 44.9736 53.5295 42.0668C52.0835 39.1599 49.1133 37.3254 45.8666 37.334Z" fill="#7FACFA"/>
<path d="M45.8666 50.1329C48.2231 50.1329 50.1333 48.2227 50.1333 45.8663C50.1333 43.5099 48.2231 41.5996 45.8666 41.5996C43.5102 41.5996 41.6 43.5099 41.6 45.8663C41.6 48.2227 43.5102 50.1329 45.8666 50.1329Z" fill="#E8EDFC"/>
<path d="M45.8666 41.5997C45.3176 41.6015 44.7741 41.7101 44.2666 41.9197C45.875 42.57 46.9279 44.1314 46.9279 45.8663C46.9279 47.6013 45.875 49.1627 44.2666 49.813C45.8638 50.469 47.699 50.0977 48.9156 48.8723C50.1321 47.6469 50.4901 45.8091 49.8225 44.2166C49.1549 42.6242 47.5933 41.5911 45.8666 41.5997Z" fill="#CAD9FC"/>
<path d="M4.26665 58.6668H7.46665C5.69934 58.6668 4.26665 57.2341 4.26665 55.4668V10.6668C4.26665 8.89949 5.69934 7.4668 7.46665 7.4668H4.26665C2.49934 7.4668 1.06665 8.89949 1.06665 10.6668V55.4668C1.06665 57.2341 2.49934 58.6668 4.26665 58.6668Z" fill="white"/>
<path d="M0 10.666H2.13333V19.1993H0V10.666Z" fill="white"/>
<path d="M21.3334 6.40091C21.9225 6.40091 22.4001 5.92335 22.4001 5.33424C22.4001 4.74514 21.9225 4.26758 21.3334 4.26758C20.7443 4.26758 20.2667 4.74514 20.2667 5.33424C20.2667 5.92335 20.7443 6.40091 21.3334 6.40091Z" fill="#428DFF"/>
<path d="M1.06667 16.0005C1.65577 16.0005 2.13333 15.523 2.13333 14.9339C2.13333 14.3448 1.65577 13.8672 1.06667 13.8672C0.477563 13.8672 0 14.3448 0 14.9339C0 15.523 0.477563 16.0005 1.06667 16.0005Z" fill="#428DFF"/>
<path d="M63.6875 28.0459C63.2709 27.6295 62.5957 27.6295 62.1792 28.0459L61.792 28.432C61.6155 27.9471 61.1159 27.6594 60.6079 27.7502C60.0999 27.841 59.7309 28.284 59.7333 28.8V30.4917L57.8933 32.3317C53.7632 28.6076 48.1346 27.0186 42.6667 28.0331V10.6667C42.6667 8.31025 40.7564 6.4 38.4 6.4H32.6592C31.8892 5.71645 30.8963 5.3372 29.8667 5.33333H26.6667C26.6667 2.38781 24.2789 0 21.3333 0C18.3878 0 16 2.38781 16 5.33333H12.8C11.7704 5.3372 10.7775 5.71645 10.0075 6.4H4.26667C1.91025 6.4 0 8.31025 0 10.6667C0 11.2558 0.477563 11.7333 1.06667 11.7333C1.65577 11.7333 2.13333 11.2558 2.13333 10.6667C2.13333 9.48846 3.08846 8.53333 4.26667 8.53333H8.6848C8.58875 8.88092 8.53784 9.23942 8.53333 9.6V10.6667H6.4C5.22179 10.6667 4.26667 11.6218 4.26667 12.8V53.3333C4.26667 54.5115 5.22179 55.4667 6.4 55.4667H30.5067C30.9725 56.2146 31.4923 56.9277 32.0619 57.6H4.26667C3.08846 57.6 2.13333 56.6449 2.13333 55.4667V19.2C2.13333 18.6109 1.65577 18.1333 1.06667 18.1333C0.477563 18.1333 0 18.6109 0 19.2V55.4667C0 57.8231 1.91025 59.7333 4.26667 59.7333H34.2059C34.5728 60.0416 34.9525 60.3296 35.3472 60.608L34.2805 62.3861C34.0731 62.7136 34.0596 63.1278 34.2454 63.4681C34.4311 63.8083 34.7868 64.021 35.1745 64.0236C35.5621 64.0262 35.9207 63.8183 36.1109 63.4805L37.1413 61.7568C42.5707 64.7477 49.1541 64.7477 54.5835 61.7568L55.6139 63.4805C55.9234 63.9691 56.5659 64.122 57.0623 63.8252C57.5587 63.5284 57.7282 62.89 57.4443 62.3861L56.3776 60.608C60.5739 57.6335 63.3023 53.0104 63.8781 47.8991C64.4539 42.7878 62.8224 37.6736 59.3931 33.84L61.2416 32H62.9333C63.4421 31.9901 63.873 31.6221 63.9625 31.1211C64.052 30.6202 63.7752 30.1258 63.3013 29.9403L63.6875 29.5541C64.1039 29.1376 64.1039 28.4624 63.6875 28.0459ZM40.5333 10.6667V28.5365C39.8053 28.7654 39.0927 29.0408 38.4 29.3611V12.8C38.4 11.6218 37.4449 10.6667 36.2667 10.6667H34.1333V9.6C34.1288 9.23942 34.0779 8.88092 33.9819 8.53333H38.4C39.5782 8.53333 40.5333 9.48846 40.5333 10.6667ZM16 7.46667V8.53333C16 9.12244 16.4776 9.6 17.0667 9.6C17.6558 9.6 18.1333 9.12244 18.1333 8.53333V5.33333C18.1333 3.56602 19.566 2.13333 21.3333 2.13333C23.1006 2.13333 24.5333 3.56602 24.5333 5.33333V8.53333C24.5333 9.12244 25.0109 9.6 25.6 9.6C26.1891 9.6 26.6667 9.12244 26.6667 8.53333V7.46667H29.8667C31.0449 7.46667 32 8.42179 32 9.6V11.7333H10.6667V9.6C10.6667 8.42179 11.6218 7.46667 12.8 7.46667H16ZM6.4 53.3333V12.8H8.82987C9.20791 13.4579 9.90792 13.8644 10.6667 13.8667H32C32.7588 13.8644 33.4588 13.4579 33.8368 12.8H36.2667V30.5067C28.5475 35.2929 25.5894 45.0709 29.3611 53.3333H6.4ZM61.8667 45.8667C61.8927 53.4313 56.6349 59.9879 49.2453 61.6059C41.8557 63.2238 34.3391 59.4642 31.2018 52.5808C28.0644 45.6974 30.1574 37.5578 36.2261 33.0416C42.2948 28.5255 50.6926 28.8581 56.3851 33.84L54.8768 35.3483C49.2024 30.4844 40.6986 30.9745 35.6205 36.458C30.5425 41.9416 30.7059 50.458 35.9906 55.7427C41.2753 61.0274 49.7917 61.1908 55.2753 56.1128C60.7589 51.0348 61.249 42.5309 56.3851 36.8565L57.8933 35.3483C60.4534 38.2542 61.8661 41.9939 61.8667 45.8667ZM53.3333 45.8667C53.3462 49.3454 50.9643 52.3759 47.581 53.1852C44.1978 53.9946 40.7023 52.3702 39.1394 49.2623C37.5766 46.1544 38.3571 42.3797 41.0244 40.1465C43.6917 37.9133 47.5448 37.8085 50.3296 39.8933L48.8032 41.4197C46.5127 39.9037 43.4462 40.3688 41.7082 42.4959C39.9703 44.6231 40.1259 47.7207 42.0682 49.663C44.0105 51.6053 47.1082 51.7609 49.2353 50.023C51.3624 48.285 51.8275 45.2185 50.3115 42.928L51.84 41.4037C52.8091 42.6898 53.3333 44.2564 53.3333 45.8667ZM49.0667 45.8667C49.0667 47.634 47.634 49.0667 45.8667 49.0667C44.0994 49.0667 42.6667 47.634 42.6667 45.8667C42.6667 44.0994 44.0994 42.6667 45.8667 42.6667C46.3419 42.6685 46.8105 42.7779 47.2373 42.9867L45.1125 45.1115C44.8352 45.3793 44.724 45.7759 44.8217 46.1488C44.9193 46.5217 45.2105 46.813 45.5835 46.9106C45.9564 47.0082 46.353 46.897 46.6208 46.6197L48.7467 44.496C48.9554 44.9229 49.0648 45.3915 49.0667 45.8667ZM51.8517 38.3733C47.8619 35.1839 42.0754 35.6669 38.6695 39.4737C35.2636 43.2804 35.4247 49.0848 39.0366 52.6967C42.6485 56.3086 48.4529 56.4698 52.2596 53.0639C56.0664 49.658 56.5494 43.8715 53.36 39.8816L54.8779 38.3637C58.8988 43.191 58.4117 50.3272 53.772 54.5633C49.1323 58.7994 41.9814 58.6369 37.5389 54.1944C33.0965 49.7519 32.934 42.601 37.1701 37.9613C41.4061 33.3217 48.5423 32.8345 53.3696 36.8555L51.8517 38.3733Z" fill="#428DFF"/>
<path d="M12.9793 17.5418L11.5681 19.6602L11.4209 19.513C11.0023 19.1088 10.337 19.1146 9.92558 19.526C9.51413 19.9375 9.50835 20.6028 9.91259 21.0213L10.9793 22.088C11.1792 22.288 11.4505 22.4005 11.7334 22.4005H11.8401C12.1578 22.369 12.4447 22.1968 12.6219 21.9312L14.7553 18.7312C15.0822 18.241 14.9499 17.5787 14.4598 17.2517C13.9697 16.9248 13.3073 17.057 12.9803 17.5472L12.9793 17.5418Z" fill="#428DFF"/>
<path d="M18.1333 21.3326H32C32.5891 21.3326 33.0667 20.855 33.0667 20.2659C33.0667 19.6768 32.5891 19.1992 32 19.1992H18.1333C17.5442 19.1992 17.0667 19.6768 17.0667 20.2659C17.0667 20.855 17.5442 21.3326 18.1333 21.3326Z" fill="#428DFF"/>
<path d="M12.9793 26.075L11.5681 28.1934L11.4209 28.0462C11.0023 27.642 10.337 27.6478 9.92558 28.0592C9.51413 28.4707 9.50835 29.136 9.91259 29.5545L10.9793 30.6212C11.1792 30.8212 11.4505 30.9337 11.7334 30.9337H11.8401C12.1578 30.9022 12.4447 30.73 12.6219 30.4644L14.7553 27.2644C15.0822 26.7742 14.9499 26.1119 14.4598 25.7849C13.9697 25.458 13.3073 25.5902 12.9803 26.0804L12.9793 26.075Z" fill="#428DFF"/>
<path d="M18.1333 29.8658H32C32.5891 29.8658 33.0667 29.3882 33.0667 28.7991C33.0667 28.21 32.5891 27.7324 32 27.7324H18.1333C17.5442 27.7324 17.0667 28.21 17.0667 28.7991C17.0667 29.3882 17.5442 29.8658 18.1333 29.8658Z" fill="#428DFF"/>
<path d="M24.5333 44.8008H18.1333C17.5442 44.8008 17.0667 45.2783 17.0667 45.8674C17.0667 46.4566 17.5442 46.9341 18.1333 46.9341H24.5333C25.1224 46.9341 25.6 46.4566 25.6 45.8674C25.6 45.2783 25.1224 44.8008 24.5333 44.8008Z" fill="#428DFF"/>
<path d="M12.9793 34.6077L11.5681 36.7261L11.4209 36.5789C11.0023 36.1747 10.337 36.1805 9.92558 36.5919C9.51413 37.0034 9.50835 37.6687 9.91259 38.0872L10.9793 39.1539C11.1792 39.3539 11.4505 39.4663 11.7334 39.4664C11.7686 39.4664 11.8027 39.4664 11.8401 39.4611C12.1578 39.4295 12.4447 39.2573 12.6219 38.9917L14.7553 35.7917C15.0822 35.3016 14.9499 34.6392 14.4598 34.3123C13.9697 33.9853 13.3062 34.1176 12.9793 34.6077Z" fill="#428DFF"/>
<path d="M12.9793 43.1409L11.5681 45.2593L11.4209 45.1121C11.0023 44.7079 10.337 44.7137 9.92558 45.1251C9.51413 45.5366 9.50835 46.2019 9.91259 46.6204L10.9793 47.6871C11.1792 47.8871 11.4505 47.9995 11.7334 47.9996C11.7686 47.9996 11.8027 47.9996 11.8401 47.9943C12.1578 47.9627 12.4447 47.7905 12.6219 47.5249L14.7553 44.3249C15.0822 43.8348 14.9499 43.1724 14.4598 42.8455C13.9697 42.5185 13.3062 42.6508 12.9793 43.1409Z" fill="#428DFF"/>
<path d="M26.3147 36.2676H18.1333C17.5442 36.2676 17.0667 36.7451 17.0667 37.3342C17.0667 37.9233 17.5442 38.4009 18.1333 38.4009H26.3147C26.9038 38.4009 27.3813 37.9233 27.3813 37.3342C27.3813 36.7451 26.9038 36.2676 26.3147 36.2676Z" fill="#428DFF"/>
</g>
<defs>
<clipPath id="clip0_21015_63846">
<rect width="64" height="64" fill="white"/>
</clipPath>
</defs>
</svg>
