<svg width="20" height="20" viewBox="0 0 20 20" fill="none" xmlns="http://www.w3.org/2000/svg">
<g clip-path="url(#clip0_19593_53992)">
<path d="M9.37507 11.8751C12.6543 11.8751 15.3126 9.2168 15.3126 5.93757C15.3126 2.65834 12.6543 0 9.37507 0C6.09584 0 3.4375 2.65834 3.4375 5.93757C3.4375 9.2168 6.09584 11.8751 9.37507 11.8751Z" fill="#036C70"/>
<path d="M14.9218 16.2499C17.7264 16.2499 19.9999 13.9764 19.9999 11.1718C19.9999 8.36728 17.7264 6.09375 14.9218 6.09375C12.1173 6.09375 9.84375 8.36728 9.84375 11.1718C9.84375 13.9764 12.1173 16.2499 14.9218 16.2499Z" fill="#1A9BA1"/>
<path d="M9.99993 19.9999C12.2435 19.9999 14.0624 18.181 14.0624 15.9374C14.0624 13.6938 12.2435 11.875 9.99993 11.875C7.75631 11.875 5.9375 13.6938 5.9375 15.9374C5.9375 18.181 7.75631 19.9999 9.99993 19.9999Z" fill="#37C6D0"/>
<path d="M10.4168 4.375H3.64555C3.50755 4.88311 3.43759 5.40728 3.4375 5.93379C3.4375 9.21308 6.09579 11.8736 9.37507 11.875C9.54817 11.875 9.71947 11.8669 9.88942 11.8525L9.89257 11.8762C7.69178 11.9342 5.93739 13.7356 5.93739 15.9372C5.93739 16.0424 5.94129 16.1466 5.94939 16.25H10.4168C10.8763 16.2486 11.2487 15.8763 11.2499 15.4167V5.2081C11.2486 4.74865 10.8763 4.3762 10.4167 4.375H10.4168Z" fill="black" fill-opacity="0.102"/>
<path d="M9.79267 5H3.51145C3.46285 5.30855 3.4375 5.62175 3.4375 5.9345C3.4375 9.21408 6.09639 11.8743 9.37597 11.8751C9.54907 11.8751 9.72037 11.867 9.89032 11.8526L9.89347 11.8763C7.69178 11.9358 5.93814 13.7381 5.93814 15.9405C5.93814 16.2552 5.97489 16.5688 6.04689 16.8751H9.79267C10.2521 16.8738 10.6244 16.5015 10.6258 16.042V5.8334C10.6244 5.37395 10.2521 5.00165 9.79252 5.0003L9.79267 5Z" fill="black" fill-opacity="0.2"/>
<path d="M9.79267 5H3.51145C3.46285 5.30855 3.4375 5.62175 3.4375 5.9345C3.4375 9.21408 6.09639 11.8743 9.37597 11.8751C9.54907 11.8751 9.72037 11.867 9.89032 11.8526L9.89347 11.8763C7.81328 11.931 6.10914 13.5503 5.94954 15.6249L9.79282 15.625C10.2523 15.6237 10.6246 15.2514 10.6259 14.792V5.83325C10.6246 5.3738 10.2523 5.0015 9.79267 5.00015V5Z" fill="black" fill-opacity="0.2"/>
<path d="M9.16777 5H3.51145C3.46285 5.30855 3.4375 5.62175 3.4375 5.9345C3.4375 9.21408 6.09639 11.8743 9.37597 11.8751C9.54907 11.8751 9.72037 11.867 9.89032 11.8526L9.89347 11.8763C7.81328 11.931 6.10914 13.5503 5.94954 15.6249L9.16777 15.625C9.62722 15.6237 9.99952 15.2514 10.0009 14.792V5.83325C9.99952 5.3738 9.62722 5.0015 9.16777 5.00015V5Z" fill="black" fill-opacity="0.2"/>
<path d="M0.833096 5H9.1669C9.62695 5 10 5.37305 10 5.8331V14.1668C10 14.6268 9.62695 14.9999 9.1669 14.9999H0.833096C0.373048 14.9999 0 14.6268 0 14.1668V5.8331C0 5.37305 0.373048 5 0.833096 5Z" fill="#03787C"/>
<path d="M3.54336 9.88983C3.33278 9.75018 3.15703 9.56412 3.02961 9.34593C2.91157 9.12938 2.84973 8.88667 2.84976 8.64003C2.84976 8.62758 2.85006 8.61468 2.85036 8.60238C2.85006 8.58784 2.84961 8.57269 2.84961 8.55799C2.84961 8.22214 2.96796 7.89664 3.18336 7.63924C3.41976 7.36984 3.72666 7.16974 4.0685 7.06174C4.4453 6.93739 4.841 6.87394 5.2382 6.87394H5.27795C5.33345 6.87274 5.3906 6.87109 5.4467 6.87109C5.92984 6.87109 6.41179 6.94804 6.87094 7.09714V8.22214C6.64804 8.08714 6.40444 7.98739 6.15034 7.92769C5.8769 7.86063 5.59639 7.82669 5.31485 7.82659H5.3072C5.00774 7.81577 4.71022 7.87871 4.4408 8.00989C4.2332 8.09944 4.09835 8.30404 4.09775 8.53039V8.53519C4.09775 8.67063 4.14995 8.80113 4.2434 8.89908C4.35585 9.01553 4.48863 9.11044 4.6352 9.17913C4.79945 9.26073 5.0444 9.36918 5.3702 9.50418C5.40635 9.51558 5.44175 9.52968 5.4758 9.54603C5.79736 9.67184 6.10759 9.8249 6.40309 10.0035C6.62681 10.1415 6.81456 10.3305 6.95089 10.5552C7.08139 10.7919 7.15009 11.0579 7.15009 11.3282C7.15009 11.3478 7.14949 11.3682 7.14904 11.3877C7.16499 11.7482 7.05471 12.103 6.83719 12.3909C6.61999 12.6554 6.32974 12.8504 6.00289 12.9509C5.63646 13.0659 5.25462 13.1244 4.87055 13.1244C4.8521 13.1244 4.83215 13.124 4.8143 13.124C4.8068 13.1241 4.79675 13.1241 4.78925 13.1241C4.4372 13.1241 4.08455 13.0943 3.7379 13.0353C3.43746 12.9881 3.14241 12.9023 2.86281 12.7827V11.594C3.13086 11.7851 3.43071 11.9283 3.74795 12.0158C4.06295 12.1143 4.3919 12.167 4.72175 12.1721C4.757 12.1743 4.79285 12.1755 4.82825 12.1755C5.09855 12.1755 5.36555 12.1098 5.60495 11.9847C5.69518 11.9328 5.77015 11.858 5.82229 11.7679C5.87443 11.6778 5.9019 11.5755 5.90194 11.4714C5.90194 11.466 5.90194 11.4606 5.90164 11.4554V11.4507C5.90164 11.3006 5.84179 11.1564 5.73545 11.0504C5.60114 10.9189 5.44586 10.8107 5.276 10.7303C5.08055 10.6319 4.7918 10.5027 4.40975 10.3428C4.1072 10.2218 3.81575 10.0683 3.54336 9.88953V9.88968V9.88983Z" fill="white"/>
</g>
<defs>
<clipPath id="clip0_19593_53992">
<rect width="20" height="20" fill="white"/>
</clipPath>
</defs>
</svg>
