<svg width="65" height="64" viewBox="0 0 65 64" fill="none" xmlns="http://www.w3.org/2000/svg">
<g clip-path="url(#clip0_21015_62883)">
<path d="M63.2667 5.22641V37.333H12.0667V5.22641C11.9082 3.10766 13.481 1.25453 15.5973 1.06641H59.7359C61.8523 1.25453 63.425 3.10766 63.2667 5.22641Z" fill="#A4C2F7"/>
<path d="M60.0667 5.22641V37.333H12.0667V5.22641C11.9082 3.10766 13.481 1.25453 15.5973 1.06641H56.5359C58.6523 1.25453 60.225 3.10766 60.0667 5.22641Z" fill="url(#paint0_linear_21015_62883)"/>
<path d="M24.8666 27.7333H48.3332C49.51 27.7298 50.4631 26.7768 50.4666 25.6V10.6666C50.4631 9.48983 49.5101 8.5367 48.3332 8.5332H26.9998C25.8231 8.5367 24.87 9.4897 24.8665 10.6666L24.8666 27.7333Z" fill="#A4C2F7"/>
<path d="M24.8666 27.7333H45.4C46.5006 27.6518 47.332 26.7017 47.2666 25.6V10.6666C47.3319 9.56483 46.5006 8.61483 45.4 8.5332H26.7333C25.6326 8.6147 24.8013 9.56483 24.8666 10.6666V27.7333Z" fill="#E3E7F2"/>
<path d="M35.5332 13.8672V22.4006L41.9332 18.1339L35.5332 13.8672Z" fill="white"/>
<path d="M48.3333 40.5332H24.8667V51.1998H48.3333V40.5332Z" fill="#A4C2F7"/>
<path d="M45.1332 40.5332H23.7998V51.1998H45.1332V40.5332Z" fill="#D4E1F4"/>
<path d="M63.2667 35.1992V39.5726C63.425 41.6913 61.8523 43.5445 59.736 43.7326H12.0667V35.1992H63.2667Z" fill="#A4C2F7"/>
<path d="M60.0667 35.1992V39.5726C60.2252 41.6913 58.6523 43.5445 56.536 43.7326H12.0667V35.1992H60.0667Z" fill="#D4E1F4"/>
<path d="M54.7333 50.1334V52.2668H24.8667V48H52.6001C53.7768 48.0035 54.73 48.9565 54.7333 50.1334Z" fill="#A4C2F7"/>
<path d="M51.5333 50.1334V52.2668H24.8667V48H49.4001C50.5768 48.0035 51.53 48.9565 51.5333 50.1334Z" fill="#D4E1F4"/>
<path d="M3.53328 22.4004H24.8667C26.0449 22.4004 27 23.3555 27 24.5338V60.8004C27 61.9786 26.0449 62.9338 24.8667 62.9338H3.53328C2.35503 62.9338 1.3999 61.9786 1.3999 60.8004V24.5338C1.3999 23.3555 2.35503 22.4004 3.53328 22.4004Z" fill="#A4C2F7"/>
<path d="M3.53328 22.4004H21.6667C22.8449 22.4004 23.8 23.3555 23.8 24.5338V60.8004C23.8 61.9786 22.8449 62.9338 21.6667 62.9338H3.53328C2.35503 62.9338 1.3999 61.9786 1.3999 60.8004V24.5338C1.3999 23.3555 2.35503 22.4004 3.53328 22.4004Z" fill="#D4E1F4"/>
<path d="M20.5999 26.667H7.79988C6.62163 26.667 5.6665 25.7119 5.6665 24.5336V22.4004H22.7333V24.5338C22.7333 25.7119 21.7781 26.667 20.5999 26.667Z" fill="#A4C2F7"/>
<path d="M26.9998 30.9336H23.7998V57.6002H26.9998V30.9336Z" fill="#A4C2F7"/>
<path d="M23.7999 30.9336H1.3999V57.6002H23.7999V30.9336Z" fill="#E3E7F2"/>
<path d="M21.3998 45.663L21.3144 45.8656L20.3652 47.999L19.0318 50.9964C18.6879 51.767 17.9237 52.2639 17.0798 52.2658H10.9998C10.1508 52.2669 9.33618 51.9301 8.73581 51.3298C8.13543 50.7294 7.79868 49.9148 7.79981 49.0658V38.399C7.79981 37.2208 8.75493 36.2656 9.93318 36.2656C11.1114 36.2656 12.0666 37.2208 12.0666 38.399V42.6656H19.4479C20.1703 42.6641 20.8442 43.0286 21.2384 43.6339C21.6324 44.2393 21.6933 45.003 21.3998 45.663Z" fill="#D4E1F4"/>
<path d="M15.2667 5.22641C15.1082 3.10766 16.681 1.25453 18.7973 1.06641H15.5973C13.4809 1.25453 11.9082 3.10766 12.0667 5.22641V22.3998H15.2667V5.22641Z" fill="white"/>
<path d="M3.53328 62.9338H6.73328C5.55653 62.9303 4.6034 61.9771 4.5999 60.8004V24.5338C4.6034 23.357 5.5564 22.4039 6.73328 22.4004H3.53328C2.35653 22.4038 1.4034 23.3569 1.3999 24.5338V60.8004C1.4034 61.9771 2.35653 62.9303 3.53328 62.9338Z" fill="white"/>
<path d="M10.9998 22.3999V8.53331V5.22656H13.1331V8.53331V22.3999H10.9998Z" fill="white"/>
<path d="M11.6614 14.8494C11.7219 14.8802 11.7867 14.9015 11.8535 14.9129C11.9239 14.9249 11.9952 14.932 12.0665 14.9343C12.3489 14.9304 12.6194 14.8199 12.8239 14.6249C13.0827 14.3757 13.1963 14.0114 13.125 13.6592C13.0538 13.3069 12.8077 13.0155 12.4723 12.8863C12.3439 12.8315 12.206 12.8025 12.0665 12.8008C11.6353 12.8025 11.247 13.0628 11.0817 13.461C10.9163 13.8594 11.0059 14.318 11.3092 14.6248L11.469 14.7529C11.5287 14.7935 11.5933 14.8259 11.6614 14.8494Z" fill="#428DFF"/>
<path d="M59.7359 0H15.5974C13.0625 0 11 2.34475 11 5.2265V9.6C11 10.1891 11.4776 10.6666 12.0666 10.6666C12.6558 10.6666 13.1333 10.1891 13.1333 9.6V5.22662C12.9818 3.6985 14.074 2.32725 15.5974 2.13325H59.7359C61.2593 2.32713 62.3515 3.69837 62.1999 5.2265V34.1333H28.0666V28.8H48.3333C50.0998 28.7981 51.5314 27.3665 51.5333 25.6V10.6666C51.5314 8.90013 50.0998 7.4685 48.3333 7.46663H26.9999C25.2334 7.4685 23.8018 8.90013 23.7999 10.6666V21.3333H13.1333V18.1332C13.1333 17.5441 12.6556 17.0666 12.0666 17.0666C11.4775 17.0666 11 17.5442 11 18.1332V21.3333H3.53325C1.76675 21.3351 0.335127 22.7668 0.333252 24.5333V60.8C0.335127 62.5665 1.76675 63.9981 3.53325 64H24.8666C26.6331 63.9981 28.0648 62.5665 28.0666 60.8V53.3334H54.7333C55.3224 53.3334 55.7999 52.8559 55.7999 52.2668V50.1334C55.798 48.3669 54.3664 46.9353 52.5999 46.9334H49.3999V44.8H59.7359C62.2708 44.8 64.3333 42.4553 64.3333 39.5735V5.2265C64.3333 2.34475 62.2708 0 59.7359 0ZM2.46663 32H25.9333V56.5334H2.46663V32ZM26.9999 9.6H48.3333C48.922 9.60075 49.3991 10.0779 49.3999 10.6666V25.6C49.3991 26.1888 48.922 26.6659 48.3333 26.6666H28.0666V24.5333C28.0625 23.1816 27.2081 21.9789 25.9333 21.5298V10.6666C25.934 10.0779 26.4111 9.60075 26.9999 9.6ZM21.6666 23.4666V24.5333C21.6659 25.122 21.1888 25.5991 20.6 25.5999H7.8C7.21125 25.5991 6.73413 25.122 6.73338 24.5333V23.4666H21.6666ZM3.53325 23.4666H4.59988V24.5333C4.60175 26.2998 6.03338 27.7314 7.79988 27.7332H20.5999C22.3664 27.7314 23.798 26.2998 23.7999 24.5333V23.4666H24.8665C25.4553 23.4674 25.9324 23.9445 25.9331 24.5333V29.8666H2.46663V24.5333C2.46738 23.9445 2.9445 23.4674 3.53325 23.4666ZM24.8666 61.8666H3.53325C2.9445 61.8659 2.46738 61.3887 2.46663 60.8V58.6666H25.9333V60.8C25.9325 61.3887 25.4554 61.8659 24.8666 61.8666ZM53.6666 50.1334V51.2H28.0666V49.0666H52.6C53.1888 49.0674 53.6659 49.5445 53.6666 50.1334ZM47.2666 46.9334H28.0666V44.8H47.2666V46.9334ZM59.7359 42.6666H28.0666V36.2666H62.2V39.5734C62.3515 41.1016 61.2593 42.4728 59.7359 42.6666Z" fill="#428DFF"/>
<path d="M35.0302 23.3414C35.3771 23.5269 35.7977 23.5064 36.1249 23.2882L42.5249 19.0216C42.8217 18.8237 42.9999 18.4907 42.9999 18.1341C42.9999 17.7775 42.8217 17.4445 42.5249 17.2466L36.1249 12.98C35.7977 12.7617 35.3768 12.7414 35.0299 12.927C34.6831 13.1126 34.4666 13.4741 34.4666 13.8675V22.4007C34.4668 22.7941 34.6834 23.1556 35.0302 23.3414ZM36.5999 15.8606L40.0103 18.1341L36.5999 20.4076V15.8606Z" fill="#428DFF"/>
<path d="M22.1337 43.0555C21.5448 42.1456 20.5342 41.5971 19.4503 41.5992H13.1332V38.3992C13.1332 36.632 11.7004 35.1992 9.93315 35.1992C8.1659 35.1992 6.73315 36.632 6.73315 38.3992V49.0658C6.7359 51.4211 8.64453 53.3298 10.9998 53.3325H17.08C18.3443 53.332 19.49 52.5876 20.004 51.4325L22.3743 46.0991C22.8168 45.1097 22.7262 43.9632 22.1337 43.0555ZM18.0545 50.5665C17.8832 50.9513 17.5013 51.1992 17.08 51.1993H10.9998C9.82203 51.1982 8.86765 50.2437 8.8664 49.066V38.3992C8.8664 37.8101 9.34403 37.3326 9.93303 37.3326C10.5222 37.3326 10.9997 37.8101 10.9997 38.3992V42.6658C10.9997 43.255 11.4773 43.7325 12.0663 43.7325H19.4502C19.8113 43.7326 20.1478 43.9153 20.3445 44.218C20.5413 44.5207 20.5717 44.9023 20.4252 45.2325L20.1437 45.8658H15.2663C14.6772 45.8658 14.1997 46.3435 14.1997 46.9325C14.1997 47.5216 14.6773 47.9991 15.2663 47.9991H19.1954L18.0545 50.5665Z" fill="#428DFF"/>
</g>
<defs>
<linearGradient id="paint0_linear_21015_62883" x1="15.5545" y1="-0.193182" x2="43.2731" y2="48.4049" gradientUnits="userSpaceOnUse">
<stop stop-color="#D3DFF2"/>
<stop offset="0.1717" stop-color="#D3DFF2"/>
<stop offset="0.2" stop-color="#D3DFF2"/>
<stop offset="0.2002" stop-color="#DAE2F2"/>
<stop offset="0.2007" stop-color="#EBEAF2"/>
<stop offset="0.2014" stop-color="#F6EFF2"/>
<stop offset="0.2023" stop-color="#FDF2F2"/>
<stop offset="0.205" stop-color="#FFF3F2"/>
<stop offset="0.2522" stop-color="#FFF3F2"/>
<stop offset="0.26" stop-color="#D3DFF2"/>
<stop offset="0.3974" stop-color="#D3DFF2"/>
<stop offset="0.42" stop-color="#D3DFF2"/>
<stop offset="0.4202" stop-color="#DAE2F2"/>
<stop offset="0.4207" stop-color="#EBEAF2"/>
<stop offset="0.4214" stop-color="#F6EFF2"/>
<stop offset="0.4223" stop-color="#FDF2F2"/>
<stop offset="0.425" stop-color="#FFF3F2"/>
<stop offset="0.4894" stop-color="#FFF3F2"/>
<stop offset="0.5" stop-color="#F8F0F2"/>
<stop offset="0.5001" stop-color="#E7E8F2"/>
<stop offset="0.5003" stop-color="#DCE3F2"/>
<stop offset="0.5005" stop-color="#D5E0F2"/>
<stop offset="0.501" stop-color="#D3DFF2"/>
<stop offset="0.7062" stop-color="#D3DFF2"/>
<stop offset="0.74" stop-color="#D3DFF2"/>
<stop offset="0.741" stop-color="#FFF3F2"/>
<stop offset="0.8346" stop-color="#FFF3F2"/>
<stop offset="0.85" stop-color="#FFF3F2"/>
<stop offset="0.851" stop-color="#D3DFF2"/>
</linearGradient>
<clipPath id="clip0_21015_62883">
<rect width="64" height="64" fill="white" transform="translate(0.333252)"/>
</clipPath>
</defs>
</svg>
