<svg width="10" height="21" viewBox="0 0 10 21" fill="none" xmlns="http://www.w3.org/2000/svg">
<g id="students 1" clip-path="url(#clip0_298_12224)">
<g id="Group">
<g id="Group_2">
<path id="Vector" d="M5.96792 4.10441C6.93612 4.10441 7.721 3.31852 7.721 2.34908C7.721 1.37964 6.93612 0.59375 5.96792 0.59375C4.99972 0.59375 4.21484 1.37964 4.21484 2.34908C4.21484 3.31852 4.99972 4.10441 5.96792 4.10441Z" fill="white"/>
</g>
</g>
<g id="Group_3">
<g id="Group_4">
<path id="Vector_2" d="M9.53243 19.3494L8.89181 14.6374C8.88231 14.5676 8.86535 14.4991 8.84113 14.433L7.92616 11.9353V9.86421C7.28731 10.173 6.52384 9.90752 6.21119 9.27249L4.94804 6.69888L6.73408 8.8339C7.11016 9.28344 7.82683 9.17184 8.05129 8.63324L9.28624 5.66946C9.45204 5.27156 9.2643 4.81446 8.86695 4.64841C8.46961 4.48235 8.01301 4.67042 7.84721 5.06824L7.10598 6.84711L6.14329 5.69638L6.68154 6.09178L7.26474 4.69793H4.63007C4.06558 4.69793 3.59362 5.09355 3.47491 5.62294V5.49365C3.47491 4.76368 2.88391 4.17188 2.15488 4.17188C1.42589 4.17188 0.834808 4.76363 0.834808 5.49365V7.26182H0.462738C0.209332 7.26182 0.00390625 7.46751 0.00390625 7.72124V9.19145C0.00390625 9.44518 0.209332 9.65087 0.462738 9.65087H0.834808C0.834808 10.5579 1.53514 11.1716 2.31612 11.1716H3.44584V11.9674H3.44685L3.32038 14.9928L1.62651 19.1094C1.42146 19.6077 1.65866 20.178 2.15632 20.3834C2.65406 20.5887 3.22366 20.351 3.42862 19.8529L5.18799 15.5772C5.23128 15.472 5.25589 15.3599 5.26061 15.2462C5.4059 11.7703 5.39662 12.0063 5.39662 11.9674H5.86178L6.97474 15.0057L7.60106 19.6127C7.67373 20.1473 8.16556 20.5207 8.69811 20.448C9.23155 20.3752 9.60502 19.8834 9.53243 19.3494Z" fill="white"/>
</g>
</g>
</g>
<defs>
<clipPath id="clip0_298_12224">
<rect width="9.60894" height="20" fill="white" transform="translate(0 0.5)"/>
</clipPath>
</defs>
</svg>
