<svg width="16" height="33" viewBox="0 0 16 33" fill="none" xmlns="http://www.w3.org/2000/svg">
<g id="students 1" clip-path="url(#clip0_298_13584)">
<g id="Group">
<g id="Group_2">
<path id="Vector" d="M9.67407 6.26745C11.2232 6.26745 12.479 5.01003 12.479 3.45892C12.479 1.90781 11.2232 0.650391 9.67407 0.650391C8.12495 0.650391 6.86914 1.90781 6.86914 3.45892C6.86914 5.01003 8.12495 6.26745 9.67407 6.26745Z" fill="#1B55AF"/>
</g>
</g>
<g id="Group_3">
<g id="Group_4">
<path id="Vector_2" d="M15.3775 30.661L14.3525 23.1218C14.3373 23.0102 14.3101 22.9005 14.2714 22.7947L12.8074 18.7984V15.4847C11.7853 15.9787 10.5637 15.554 10.0635 14.5379L8.04246 10.4202L10.9001 13.8362C11.5018 14.5554 12.6485 14.3769 13.0076 13.5151L14.9836 8.77309C15.2489 8.13645 14.9485 7.4051 14.3127 7.13941C13.677 6.87372 12.9464 7.17463 12.6811 7.81113L11.4952 10.6573L9.95485 8.81616L10.8161 9.44881L11.7492 7.21864H7.5337C6.63051 7.21864 5.87538 7.85163 5.68545 8.69866V8.49179C5.68545 7.32383 4.73985 6.37695 3.5734 6.37695C2.40701 6.37695 1.46128 7.32377 1.46128 8.49179V11.3209H0.865966C0.460517 11.3209 0.131836 11.65 0.131836 12.0559V14.4083C0.131836 14.8142 0.460517 15.1433 0.865966 15.1433H1.46128C1.46128 16.5946 2.58182 17.5765 3.83138 17.5765H5.63893V18.8497H5.64055L5.43819 23.6904L2.728 30.277C2.39992 31.0743 2.77944 31.9868 3.57569 32.3153C4.37207 32.6438 5.28344 32.2636 5.61138 31.4665L8.42637 24.6254C8.49564 24.4571 8.535 24.2778 8.54257 24.0959C8.77503 18.5344 8.76018 18.9121 8.76018 18.8498H9.50444L11.2852 23.711L12.2873 31.0823C12.4036 31.9376 13.1905 32.5351 14.0426 32.4188C14.8961 32.3023 15.4936 31.5153 15.3775 30.661Z" fill="#1B55AF"/>
</g>
</g>
</g>
<defs>
<clipPath id="clip0_298_13584">
<rect width="15.3743" height="32" fill="white" transform="translate(0.125977 0.5)"/>
</clipPath>
</defs>
</svg>
