<svg width="16" height="33" viewBox="0 0 16 33" fill="none" xmlns="http://www.w3.org/2000/svg">
<g id="students 1" clip-path="url(#clip0_298_12094)">
<g id="Group">
<g id="Group_2">
<path id="Vector" d="M10.0481 6.26745C11.5972 6.26745 12.853 5.01003 12.853 3.45892C12.853 1.90781 11.5972 0.650391 10.0481 0.650391C8.49897 0.650391 7.24316 1.90781 7.24316 3.45892C7.24316 5.01003 8.49897 6.26745 10.0481 6.26745Z" fill="#BACCE7"/>
</g>
</g>
<g id="Group_3">
<g id="Group_4">
<path id="Vector_2" d="M15.7515 30.661L14.7265 23.1218C14.7113 23.0102 14.6842 22.9005 14.6454 22.7947L13.1815 18.7984V15.4847C12.1593 15.9787 10.9378 15.554 10.4375 14.5379L8.41648 10.4202L11.2741 13.8362C11.8759 14.5554 13.0225 14.3769 13.3817 13.5151L15.3576 8.77309C15.6229 8.13645 15.3225 7.4051 14.6867 7.13941C14.051 6.87372 13.3204 7.17463 13.0551 7.81113L11.8692 10.6573L10.3289 8.81616L11.1901 9.44881L12.1232 7.21864H7.90773C7.00453 7.21864 6.2494 7.85163 6.05947 8.69866V8.49179C6.05947 7.32383 5.11387 6.37695 3.94742 6.37695C2.78104 6.37695 1.8353 7.32377 1.8353 8.49179V11.3209H1.23999C0.83454 11.3209 0.505859 11.65 0.505859 12.0559V14.4083C0.505859 14.8142 0.83454 15.1433 1.23999 15.1433H1.8353C1.8353 16.5946 2.95584 17.5765 4.20541 17.5765H6.01295V18.8497H6.01457L5.81222 23.6904L3.10202 30.277C2.77395 31.0743 3.15347 31.9868 3.94972 32.3153C4.7461 32.6438 5.65746 32.2636 5.9854 31.4665L8.80039 24.6254C8.86966 24.4571 8.90903 24.2778 8.91659 24.0959C9.14906 18.5344 9.1342 18.9121 9.1342 18.8498H9.87846L11.6592 23.711L12.6613 31.0823C12.7776 31.9376 13.5645 32.5351 14.4166 32.4188C15.2701 32.3023 15.8676 31.5153 15.7515 30.661Z" fill="#BACCE7"/>
</g>
</g>
</g>
<defs>
<clipPath id="clip0_298_12094">
<rect width="15.3743" height="32" fill="white" transform="translate(0.5 0.5)"/>
</clipPath>
</defs>
</svg>
