<svg width="64" height="64" viewBox="0 0 64 64" fill="none" xmlns="http://www.w3.org/2000/svg">
<g clip-path="url(#clip0_21015_63326)">
<path d="M62.9014 49.8331C62.394 55.4909 57.616 59.8041 51.936 59.7318H3.20001C2.63405 59.7348 2.09117 59.5076 1.69601 59.1024C1.29083 58.7073 1.06367 58.1644 1.06668 57.5984C1.07019 56.4217 2.02326 55.4686 3.20001 55.4651H52C55.6547 55.4899 58.6385 52.5491 58.6667 48.8944C58.567 45.4298 55.7327 42.6712 52.2667 42.6651H34.1334V38.3984H52.2667C55.2283 38.3996 58.0562 39.6321 60.0731 41.8008C62.0901 43.9695 63.1146 46.8791 62.9014 49.8331Z" fill="#A4C2F7"/>
<path d="M59.808 41.5238C57.8101 39.5202 55.0961 38.3954 52.2666 38.3984H49.0666C52.0283 38.3996 54.8561 39.6321 56.8731 41.8008C58.89 43.9695 59.9145 46.8792 59.7013 49.8331C59.194 55.4909 54.416 59.8041 48.736 59.7318H51.936C57.616 59.8041 62.394 55.4909 62.9013 49.8331C63.1325 46.7446 62.0025 43.7092 59.808 41.5238Z" fill="#7FACFA"/>
<path d="M21.3333 38.3984V42.6651L3.20001 42.6651C2.63405 42.6681 2.09117 42.441 1.69601 42.0358C1.29083 41.6406 1.06367 41.0977 1.06668 40.5318C1.07019 39.355 2.02326 38.402 3.20001 38.3984H21.3333Z" fill="#A4C2F7"/>
<path d="M58.6667 48.8953C58.6385 52.55 55.6548 55.4909 52 55.466H5.10938C5.98539 53.4473 6.42521 51.2664 6.40004 49.066C6.42521 46.8656 5.98539 44.6847 5.10938 42.666H21.3334V50.1327C21.3345 50.5024 21.527 50.8451 21.8421 51.0385C22.1571 51.2319 22.5499 51.2484 22.88 51.082L27.2534 48.8953C27.556 48.7461 27.9108 48.7461 28.2134 48.8953L32.5867 51.082C32.9169 51.2484 33.3096 51.2319 33.6247 51.0385C33.9398 50.8451 34.1323 50.5024 34.1334 50.1327V42.666H52.2667C55.7328 42.6721 58.567 45.4307 58.6667 48.8953Z" fill="#E8EDFC"/>
<path d="M61.8666 22.399C61.8631 23.5757 60.9101 24.5288 59.7333 24.5323H18.6666C16.0157 24.5323 13.8666 26.6813 13.8666 29.3323C13.8666 31.9833 16.0157 34.1323 18.6666 34.1323H21.3333V38.399H18.6666C13.6593 38.399 9.59998 34.3397 9.59998 29.3323C9.59998 24.3249 13.6593 20.2656 18.6666 20.2656H59.7333C60.9101 20.2691 61.8631 21.2222 61.8666 22.399Z" fill="#A4C2F7"/>
<path d="M59.7333 20.2656H56.5333C57.7115 20.2656 58.6667 21.2208 58.6667 22.399C58.6667 23.5772 57.7115 24.5323 56.5333 24.5323H59.7333C60.9115 24.5323 61.8667 23.5772 61.8667 22.399C61.8667 21.2208 60.9115 20.2656 59.7333 20.2656Z" fill="#7FACFA"/>
<path d="M61.8666 36.2661C61.8631 37.4429 60.9101 38.396 59.7333 38.3995H34.1333V34.1328H59.7333C60.9101 34.1363 61.8631 35.0894 61.8666 36.2661Z" fill="#A4C2F7"/>
<path d="M59.7333 34.1328H56.5333C57.7115 34.1328 58.6667 35.0879 58.6667 36.2661C58.6667 37.4444 57.7115 38.3995 56.5333 38.3995H59.7333C60.9115 38.3995 61.8667 37.4444 61.8667 36.2661C61.8667 35.0879 60.9115 34.1328 59.7333 34.1328Z" fill="#7FACFA"/>
<path d="M58.6667 34.1332H34.1334V30.9332C34.1334 30.3441 33.6558 29.8665 33.0667 29.8665H22.4C21.8109 29.8665 21.3334 30.3441 21.3334 30.9332V34.1332H18.6667C16.0157 34.1332 13.8667 31.9842 13.8667 29.3332C13.8667 26.6822 16.0157 24.5332 18.6667 24.5332H58.6667C57.4934 24.5332 56.5334 26.6772 56.5334 29.3332C56.5334 31.9892 57.4934 34.1332 58.6667 34.1332Z" fill="#E8EDFC"/>
<path d="M56.5334 29.3332C56.5334 26.6772 57.4934 24.5332 58.6667 24.5332H55.4667C54.2934 24.5332 53.3334 26.6772 53.3334 29.3332C53.3334 31.9892 54.2934 34.1332 55.4667 34.1332H58.6667C57.4934 34.1332 56.5334 31.9892 56.5334 29.3332Z" fill="#CAD9FC"/>
<path d="M34.1334 30.9319V50.1319C34.1323 50.5016 33.9398 50.8444 33.6247 51.0378C33.3096 51.2311 32.9169 51.2476 32.5867 51.0812L28.2134 48.8946C27.9108 48.7453 27.556 48.7453 27.2534 48.8946L22.88 51.0812C22.5499 51.2476 22.1571 51.2311 21.842 51.0378C21.527 50.8444 21.3345 50.5016 21.3334 50.1319V30.9319C21.3334 30.3428 21.8109 29.8652 22.4 29.8652H33.0667C33.6558 29.8652 34.1334 30.3428 34.1334 30.9319Z" fill="#E8EDFC"/>
<path d="M49.0666 12.2656C49.0666 16.6839 45.4849 20.2656 41.0666 20.2656H11.7333C10.5551 20.2656 9.59998 19.3105 9.59998 18.1323C9.59998 16.9541 10.5551 15.999 11.7333 15.999H41.0666C43.1285 15.999 44.8 14.3275 44.8 12.2656C44.8 10.2038 43.1285 8.53229 41.0666 8.53229H11.7333C10.5551 8.53229 9.59998 7.57717 9.59998 6.39896C9.59998 5.22075 10.5551 4.26562 11.7333 4.26562H41.0666C45.4849 4.26562 49.0666 7.84735 49.0666 12.2656Z" fill="#A4C2F7"/>
<path d="M41.0667 4.26562H37.8667C42.285 4.26562 45.8667 7.84735 45.8667 12.2656C45.8667 16.6839 42.285 20.2656 37.8667 20.2656H41.0667C45.485 20.2656 49.0667 16.6839 49.0667 12.2656C49.0667 7.84735 45.485 4.26562 41.0667 4.26562Z" fill="#7FACFA"/>
<path d="M44.8001 12.2665C44.8001 14.3284 43.1286 15.9999 41.0667 15.9999H12.2667C13.1521 15.9999 13.8667 14.3252 13.8667 12.2665C13.8667 10.2079 13.1521 8.5332 12.2667 8.5332H41.0667C43.1286 8.5332 44.8001 10.2047 44.8001 12.2665Z" fill="#E8EDFC"/>
<path d="M12.2666 15.999H11.7333C10.5551 15.999 9.59998 16.9541 9.59998 18.1323C9.59998 19.3105 10.5551 20.2656 11.7333 20.2656H14.9333C13.7551 20.2656 12.8 19.3105 12.8 18.1323C12.8 16.9541 13.7551 15.999 14.9333 15.999H15.4666C16.352 15.999 17.0666 14.3243 17.0666 12.2656C17.0666 10.207 16.352 8.53229 15.4666 8.53229H14.9333C13.7551 8.53229 12.8 7.57717 12.8 6.39896C12.8 5.22075 13.7551 4.26562 14.9333 4.26562H11.7333C10.5551 4.26562 9.59998 5.22075 9.59998 6.39896C9.59998 7.57717 10.5551 8.53229 11.7333 8.53229H12.2666C13.152 8.53229 13.8666 10.207 13.8666 12.2656C13.8666 14.3243 13.152 15.999 12.2666 15.999Z" fill="white"/>
<path d="M12.8 29.3323C12.8035 24.3264 16.8607 20.2692 21.8666 20.2656H18.6666C13.6593 20.2656 9.59998 24.3249 9.59998 29.3323C9.59998 34.3397 13.6593 38.399 18.6666 38.399H21.8666C16.8607 38.3954 12.8035 34.3382 12.8 29.3323Z" fill="white"/>
<path d="M4.26665 57.5984C4.27016 56.4217 5.22324 55.4686 6.39998 55.4651H8.30932C10.0305 51.372 10.0305 46.7582 8.30932 42.6651H6.39998C5.83402 42.6681 5.29114 42.441 4.89598 42.0358C4.28962 41.4258 4.10885 40.5114 4.43749 39.7166C4.76614 38.9218 5.53992 38.402 6.39998 38.3984H3.19998C2.33992 38.402 1.56614 38.9218 1.23749 39.7166C0.908849 40.5114 1.08962 41.4258 1.69598 42.0358C2.09114 42.441 2.63402 42.6681 3.19998 42.6651H5.10932C6.83045 46.7582 6.83045 51.372 5.10932 55.4651H3.19998C2.02178 55.4651 1.06665 56.4202 1.06665 57.5984C1.06665 58.7766 2.02178 59.7318 3.19998 59.7318H6.39998C5.22299 59.7288 4.26958 58.7754 4.26665 57.5984Z" fill="white"/>
<path d="M13.9659 35.7918L12.7093 37.5144C10.0948 35.6067 8.54428 32.5685 8.53333 29.332H10.6667C10.6765 31.8874 11.9014 34.2857 13.9659 35.7918Z" fill="white"/>
<path d="M58.9974 39.4659H59.7334C61.5007 39.4659 62.9334 38.0332 62.9334 36.2659C62.9334 34.4986 61.5007 33.0659 59.7334 33.0659H58.6849C58.382 32.9592 57.6001 31.6675 57.6001 29.3326C57.6001 26.9976 58.3884 25.6931 58.6668 25.5992H59.7334C61.5007 25.5992 62.9334 24.1665 62.9334 22.3992C62.9334 20.6319 61.5007 19.1992 59.7334 19.1992H46.8972C49.8152 16.75 50.8894 12.7369 49.585 9.15746C48.2807 5.578 44.8765 3.19687 41.0668 3.19922H11.7334C9.96613 3.19922 8.53344 4.63191 8.53344 6.39922C8.53344 8.16653 9.96613 9.59922 11.7334 9.59922H12.1601C12.6538 10.3965 12.8782 11.3314 12.8001 12.2659C12.8782 13.2004 12.6538 14.1353 12.1601 14.9326H11.7334C9.96613 14.9326 8.53344 16.3652 8.53344 18.1326C8.53344 19.8999 9.96613 21.3326 11.7334 21.3326H12.4705C9.98972 23.2453 8.53565 26.2 8.53344 29.3326C8.53344 29.9217 9.011 30.3992 9.6001 30.3992C10.1892 30.3992 10.6668 29.9217 10.6668 29.3326C10.6715 24.9162 14.2504 21.3373 18.6668 21.3326H59.7334C60.3225 21.3326 60.8001 21.8101 60.8001 22.3992C60.8001 22.9883 60.3225 23.4659 59.7334 23.4659H18.6668C15.4267 23.4659 12.8001 26.0925 12.8001 29.3326C12.8001 32.5726 15.4267 35.1992 18.6668 35.1992H20.2668V37.3326H18.6668C16.9768 37.3264 15.3319 36.7874 13.966 35.7923C13.5022 35.4916 12.8891 35.5696 12.5153 35.9768C12.1657 36.3649 12.1764 36.9574 12.5398 37.3326H3.2001C1.43279 37.3326 0.00010295 38.7652 0.00010295 40.5326C-0.00675923 41.3774 0.329688 42.1889 0.93237 42.7811C1.52749 43.3934 2.34627 43.7369 3.2001 43.7326H4.37344C5.01888 45.4361 5.34433 47.2442 5.33344 49.0659C5.34433 50.8876 5.01888 52.6957 4.37344 54.3992H3.2001C1.43279 54.3992 0.00010295 55.8319 0.00010295 57.5992C-0.00675923 58.4441 0.329688 59.2556 0.93237 59.8478C1.52749 60.46 2.34627 60.8036 3.2001 60.7992H51.9361C58.1782 60.8791 63.4247 56.1298 63.9649 49.9107C64.213 46.5142 62.9709 43.1779 60.5622 40.7704C60.0791 40.2914 59.5555 39.855 58.9974 39.4659ZM14.5302 9.59922H41.0668C42.5395 9.59922 43.7334 10.7931 43.7334 12.2659C43.7334 13.7386 42.5395 14.9326 41.0668 14.9326H14.5302C14.8098 14.0718 14.946 13.1709 14.9334 12.2659C14.946 11.3609 14.8098 10.46 14.5302 9.59922ZM18.6668 19.1992H11.7334C11.1443 19.1992 10.6668 18.7217 10.6668 18.1326C10.6668 17.5435 11.1443 17.0659 11.7334 17.0659H41.0668C43.7177 17.0659 45.8668 14.9169 45.8668 12.2659C45.8668 9.61492 43.7177 7.46589 41.0668 7.46589H11.7334C11.1443 7.46589 10.6668 6.98832 10.6668 6.39922C10.6668 5.81012 11.1443 5.33255 11.7334 5.33255H41.0668C44.8959 5.33255 48.0001 8.43671 48.0001 12.2659C48.0001 16.0951 44.8959 19.1992 41.0668 19.1992H18.6668ZM60.8001 36.2659C60.8001 36.855 60.3225 37.3326 59.7334 37.3326H35.2001V35.1992H59.7334C60.3225 35.1992 60.8001 35.6768 60.8001 36.2659ZM33.0668 50.1326L28.6934 47.9416C28.092 47.6429 27.3855 47.6429 26.7841 47.9416L22.4001 50.1326V30.9326H33.0668V38.3907V38.3992V38.4078V42.6531V42.6659V42.6787V50.1326ZM18.6668 33.0659C16.6049 33.0659 14.9334 31.3944 14.9334 29.3326C14.9334 27.2707 16.6049 25.5992 18.6668 25.5992H56.1494C55.2392 28.0049 55.2392 30.6602 56.1494 33.0659H35.2001V30.9326C35.2001 29.7543 34.245 28.7992 33.0668 28.7992H22.4001C21.2219 28.7992 20.2668 29.7543 20.2668 30.9326V33.0659H18.6668ZM2.43957 41.2728C2.24175 41.0775 2.13134 40.8105 2.13344 40.5326C2.13344 39.9435 2.611 39.4659 3.2001 39.4659H20.2668V41.5992L3.2001 41.5992C2.91243 41.5999 2.63723 41.4818 2.43957 41.2728ZM6.6593 43.7326H20.2668V50.1326C20.2661 50.8735 20.6498 51.5617 21.2805 51.9506C21.9112 52.3394 22.6984 52.3732 23.3601 52.0398L27.7334 49.8499L32.1121 52.0398C32.7736 52.3718 33.5601 52.3362 34.1889 51.9459C34.8194 51.5594 35.2027 50.8721 35.2001 50.1326V43.7326H52.2668C55.1534 43.7382 57.5143 46.0344 57.6001 48.9198C57.6235 50.3221 57.0756 51.6736 56.0822 52.6638C55.0085 53.7651 53.5382 54.3902 52.0001 54.3992H6.6593C7.20373 52.6741 7.47615 50.8748 7.46677 49.0659C7.47615 47.257 7.20373 45.4576 6.6593 43.7326ZM61.8369 49.7614C61.3773 54.8641 57.0588 58.748 51.9361 58.6659H3.2001C2.91243 58.6666 2.63723 58.5485 2.43957 58.3395C2.24175 58.1442 2.13134 57.8772 2.13344 57.5992C2.13344 57.0101 2.611 56.5326 3.2001 56.5326H52.0001C54.1126 56.5221 56.1328 55.6653 57.6086 54.1539C59.0053 52.7534 59.7724 50.845 59.7334 48.8675C59.6181 44.8248 56.311 41.6056 52.2668 41.5992H35.2001V39.4659H52.2668C54.9329 39.4672 57.4783 40.5771 59.2935 42.5299C61.1087 44.4826 62.03 47.1023 61.8369 49.7614Z" fill="#428DFF"/>
<path d="M10.6005 34.5298C10.0114 34.5325 9.53171 34.0571 9.52906 33.468C9.52641 32.8788 10.0018 32.3991 10.5909 32.3965H10.6005C11.1896 32.3965 11.6672 32.874 11.6672 33.4632C11.6672 34.0523 11.1896 34.5298 10.6005 34.5298Z" fill="#428DFF"/>
</g>
<defs>
<clipPath id="clip0_21015_63326">
<rect width="64" height="64" fill="white"/>
</clipPath>
</defs>
</svg>
