<svg width="65" height="64" viewBox="0 0 65 64" fill="none" xmlns="http://www.w3.org/2000/svg">
<g clip-path="url(#clip0_21015_63576)">
<path d="M63.5998 5.33307V39.4664C63.5998 41.8228 61.6895 43.7331 59.3331 43.7331H32.6665V35.1997C32.6665 28.1305 26.9357 22.3997 19.8665 22.3997V5.33307C19.8665 2.97666 21.7767 1.06641 24.1331 1.06641H59.3331C61.6895 1.06641 63.5998 2.97666 63.5998 5.33307Z" fill="#E8EDFC"/>
<path d="M59.3331 1.06641H56.1331C58.4895 1.06641 60.3997 2.97666 60.3997 5.33307V39.4664C60.3997 41.8228 58.4895 43.7331 56.1331 43.7331H59.3331C61.6895 43.7331 63.5997 41.8228 63.5997 39.4664V5.33307C63.5997 2.97666 61.6895 1.06641 59.3331 1.06641Z" fill="#CAD9FC"/>
<path d="M59.3331 7.46732V37.334C59.3295 38.5107 58.3765 39.4638 57.1997 39.4673H32.6664V35.2007C32.6695 29.7762 29.2489 24.9403 24.1331 23.1367V7.46732C24.1366 6.29057 25.0896 5.3375 26.2664 5.33398H57.1997C58.3765 5.3375 59.3295 6.29057 59.3331 7.46732Z" fill="#A4C2F7"/>
<path d="M25.1999 49.9519V54.3999C25.1999 54.3999 24.3145 57.5999 19.8665 57.5999C15.4185 57.5999 14.5332 54.3999 14.5332 54.3999V49.9199C16.3465 51.9253 18.4052 53.3333 19.8665 53.3333C21.3279 53.3333 23.3865 51.9359 25.1999 49.9519Z" fill="#E8EDFC"/>
<path d="M37.9998 58.3897V60.8004C37.9963 61.9771 37.0433 62.9302 35.8665 62.9337H3.8665C2.68975 62.9302 1.73668 61.9771 1.73317 60.8004V58.3897C1.73009 57.3684 2.21829 56.4079 3.04517 55.8084C3.51153 55.4608 4.06565 55.2502 4.64517 55.2004L14.5332 54.4004C14.5332 54.4004 15.4185 57.6004 19.8665 57.6004C24.3145 57.6004 25.1998 54.4004 25.1998 54.4004L35.0878 55.2004C35.6674 55.2502 36.2215 55.4608 36.6878 55.8084C37.5147 56.4079 38.0029 57.3684 37.9998 58.3897Z" fill="#E8EDFC"/>
<path d="M36.6877 55.8084C36.2214 55.4608 35.6673 55.2502 35.0877 55.2004L25.1997 54.4004C25.1997 54.4004 25.1709 54.4985 25.1069 54.6521L31.8877 55.2004C32.4673 55.2502 33.0214 55.4608 33.4877 55.8084C34.3146 56.4079 34.8028 57.3684 34.7997 58.3897V60.8004C34.7962 61.9771 33.8431 62.9302 32.6664 62.9337H35.8664C37.0431 62.9302 37.9962 61.9771 37.9997 60.8004V58.3897C38.0028 57.3684 37.5146 56.4079 36.6877 55.8084Z" fill="#CAD9FC"/>
<path d="M32.6664 35.2004L32.6664 40.5338C31.5385 40.5145 30.4172 40.3569 29.3278 40.0644C25.4626 38.8904 22.1209 36.4189 19.8664 33.0671C17.6296 36.3905 14.3258 38.8514 10.5011 40.0431C9.38088 40.348 8.22719 40.5128 7.06641 40.5338L7.06642 35.2004C7.06188 31.8043 8.40899 28.5459 10.8104 26.1444C13.2119 23.743 16.4703 22.3959 19.8664 22.4004C21.3205 22.3975 22.7641 22.6465 24.1331 23.1364C29.2489 24.9401 32.6695 29.7759 32.6664 35.2004Z" fill="#A4C2F7"/>
<path d="M24.1333 23.1364C22.7642 22.6465 21.3207 22.3975 19.8666 22.4004C19.3316 22.4026 18.7972 22.4382 18.2666 22.5071C19.1758 22.6164 20.0702 22.8261 20.9333 23.1322C26.0506 24.9363 29.4715 29.7744 29.4666 35.2004V40.0932C30.5123 40.3653 31.5863 40.5131 32.6666 40.5338L32.6666 35.2004C32.6697 29.7759 29.2491 24.9401 24.1333 23.1364Z" fill="#7FACFA"/>
<path d="M14.5331 49.9203V54.4003L4.64515 55.2003C4.06563 55.2501 3.51151 55.4607 3.04515 55.8083C2.88183 55.3569 2.7988 54.8804 2.79981 54.4003C2.79981 52.0439 4.71007 50.1336 7.06648 50.1336V40.5336C8.22725 40.5127 9.38094 40.3479 10.5011 40.043C10.5331 40.6403 10.5545 41.2376 10.5545 41.5896C10.5865 44.3096 12.3891 47.5416 14.5331 49.9203Z" fill="#A4C2F7"/>
<path d="M29.3279 40.0637C29.2959 40.6504 29.2746 41.2371 29.2746 41.5891C29.2319 44.3197 27.3972 47.5624 25.1999 49.9517C23.3866 51.9357 21.3172 53.3331 19.8666 53.3331C18.4159 53.3331 16.3466 51.9251 14.5332 49.9197C12.3892 47.5411 10.5866 44.3091 10.5546 41.5891C10.5546 41.2371 10.5332 40.6397 10.5012 40.0424C14.326 38.8507 17.6297 36.3898 19.8666 33.0664C22.121 36.4183 25.4628 38.8897 29.3279 40.0637Z" fill="#E8EDFC"/>
<path d="M36.9333 54.4005C36.9343 54.8805 36.8513 55.357 36.688 55.8085C36.2216 55.4608 35.6675 55.2503 35.088 55.2005L25.2 54.4005V49.9525C27.3973 47.5631 29.232 44.3205 29.2746 41.5898C29.2746 41.2378 29.296 40.6511 29.328 40.0645C30.4174 40.357 31.5387 40.5146 32.6666 40.5338V50.1338C35.023 50.1338 36.9333 52.044 36.9333 54.4005Z" fill="#A4C2F7"/>
<path d="M32.6665 50.1338V40.5338C31.5386 40.5146 30.4173 40.357 29.3278 40.0645C29.3193 40.2181 29.3118 40.3717 29.3054 40.521C29.3609 40.521 29.4121 40.5327 29.4665 40.5338V50.1338C31.8229 50.1338 33.7332 52.044 33.7332 54.4005C33.7322 54.6303 33.7122 54.8597 33.6734 55.0863L35.0878 55.2005C35.6673 55.2503 36.2215 55.4608 36.6878 55.8085C36.8511 55.357 36.9342 54.8805 36.9332 54.4005C36.9332 52.044 35.0229 50.1338 32.6665 50.1338Z" fill="#7FACFA"/>
<path d="M44.3999 39.4659V36.2659C44.3999 35.6768 44.8775 35.1992 45.4666 35.1992H51.8666C52.4557 35.1992 52.9332 35.6768 52.9332 36.2659V39.4659H44.3999Z" fill="white"/>
<path d="M4.93317 60.7997V58.3891C4.93009 57.3677 5.41829 56.4072 6.24517 55.8077C6.08185 55.3563 5.99882 54.8798 5.99984 54.3997C5.99984 52.0433 7.91009 50.1331 10.2665 50.1331V35.1997C10.2506 28.7443 15.0594 23.2944 21.4665 22.5064C21.3396 22.4904 21.2148 22.4691 21.0868 22.4573C21.2158 22.4691 21.3417 22.4893 21.4686 22.5053C21.6649 22.4805 21.8626 22.4609 22.0617 22.4467C22.3902 22.4211 22.7252 22.3997 23.0665 22.3997V5.33307C23.0665 2.97666 24.9768 1.06641 27.3332 1.06641H24.1332C21.7768 1.06641 19.8665 2.97666 19.8665 5.33307V22.3997C19.5252 22.3997 19.1902 22.4211 18.8574 22.4509C18.6583 22.4659 18.4599 22.4858 18.2622 22.5107C11.8584 23.3005 7.05251 28.7474 7.0665 35.1997V50.1331C4.71009 50.1331 2.79984 52.0433 2.79984 54.3997C2.79882 54.8798 2.88185 55.3563 3.04517 55.8077C2.21829 56.4072 1.73009 57.3677 1.73317 58.3891V60.7997C1.73668 61.9765 2.68975 62.9296 3.8665 62.9331H7.0665C5.88975 62.9296 4.93668 61.9765 4.93317 60.7997Z" fill="white"/>
<path d="M8.97896 26.6289L10.6536 27.9462C9.02815 30.0153 8.14097 32.5684 8.13309 35.1996H5.99976C6.00875 32.0903 7.05745 29.0734 8.97896 26.6289Z" fill="white"/>
<path d="M59.3332 0H24.1332C21.1891 0.00352653 18.8034 2.38928 18.7998 5.33333V21.3952C14.9407 21.6979 11.3821 23.5945 8.97905 26.6293C8.78979 26.8533 8.7049 27.1472 8.74562 27.4376C8.78634 27.7279 8.94883 27.9872 9.19238 28.1504C9.66083 28.4622 10.2884 28.3747 10.6537 27.9467C13.7424 24.0134 18.9859 22.4723 23.7117 24.1087C28.4374 25.7452 31.6049 30.199 31.5998 35.2V39.392C24.7444 38.6997 20.8126 32.5653 20.7721 32.5024C20.5773 32.1898 20.2349 31.9999 19.8665 32C19.4983 32.0005 19.1564 32.1908 18.962 32.5035C18.9214 32.5675 15.0153 38.7008 8.13425 39.392V35.2C8.13425 34.6109 7.65668 34.1333 7.06758 34.1333C6.47848 34.1333 6.00091 34.6109 6.00091 35.2V49.1733C3.51898 49.6832 1.73648 51.8662 1.73318 54.4C1.73606 54.7503 1.7743 55.0995 1.84731 55.4421C1.08751 56.2345 0.664285 57.2905 0.666513 58.3883V60.8C0.666513 62.5673 2.0992 64 3.86651 64H35.8665C37.6338 64 39.0665 62.5673 39.0665 60.8V58.3883C39.0686 57.2908 38.6454 56.2353 37.8857 55.4432C37.9587 55.1002 37.997 54.7507 37.9999 54.4C37.9967 51.8666 36.2147 49.6837 33.7332 49.1733V44.8H59.3332C62.2772 44.7965 64.663 42.4107 64.6665 39.4667V5.33333C64.663 2.38928 62.2772 0.00352653 59.3332 0ZM19.8665 34.88C22.0268 37.6281 24.9259 39.7032 28.2238 40.8619C28.2132 41.1445 28.2078 41.3952 28.2078 41.5755C28.1406 46.0533 22.3678 52.2667 19.8665 52.2667C18.7241 52.2667 16.9599 51.0336 15.3545 49.2651C15.3198 49.2176 15.2809 49.1733 15.2382 49.1328C13.3182 46.9728 11.6532 44.0619 11.6212 41.5893C11.6212 41.3973 11.6148 41.1307 11.6041 40.8331C14.863 39.6646 17.7266 37.6014 19.8665 34.88ZM24.1332 52.4053V54.2187C23.9358 54.7083 22.9897 56.5333 19.8665 56.5333C16.7433 56.5333 15.7897 54.6923 15.5998 54.2219V52.4523C16.7616 53.5643 18.2653 54.2508 19.8665 54.4C21.4657 54.2094 22.9614 53.5102 24.1332 52.4053ZM6.03718 51.3845C6.11975 51.89 6.55439 52.2625 7.06651 52.2667C7.65562 52.2667 8.13318 51.7891 8.13318 51.2V41.5435C8.59505 41.504 9.04731 41.4496 9.48465 41.3728V41.6032C9.51985 44.1355 11.2265 47.5989 13.4665 50.2869V53.4155L4.54705 54.1397C4.32189 54.1632 4.09895 54.2045 3.88038 54.2635C3.9379 52.9513 4.79402 51.8085 6.03718 51.3845ZM36.9332 58.3883V60.8C36.9332 61.3891 36.4556 61.8667 35.8665 61.8667H3.86651C3.27741 61.8667 2.79985 61.3891 2.79985 60.8V58.3883C2.7938 57.2864 3.63303 56.3637 4.73051 56.2656L13.8686 55.5189C14.5044 56.6944 16.1257 58.6667 19.8665 58.6667C23.6073 58.6667 25.2286 56.6944 25.8644 55.5243L34.9929 56.2645C36.0939 56.3595 36.9378 57.2832 36.9332 58.3883ZM35.8526 54.2645C35.6309 54.205 35.4047 54.1629 35.1764 54.1387L26.2665 53.4155V50.3349C28.5065 47.7867 30.2985 44.4587 30.3412 41.5883C30.3412 41.5296 30.3412 41.4571 30.3412 41.3856C30.7497 41.4549 31.1689 41.5061 31.5977 41.5424V51.2C31.5977 51.7891 32.0753 52.2667 32.6644 52.2667C33.1765 52.2625 33.6111 51.89 33.6937 51.3845C34.9379 51.8082 35.7949 52.9515 35.8526 54.2645ZM25.1999 22.4V7.46667C25.1999 6.87756 25.6774 6.4 26.2665 6.4H57.1999C57.789 6.4 58.2665 6.87756 58.2665 7.46667V37.3333C58.2665 37.9224 57.789 38.4 57.1999 38.4H53.9999V36.2667C53.9999 35.0885 53.0447 34.1333 51.8665 34.1333H45.4665C44.2883 34.1333 43.3332 35.0885 43.3332 36.2667V38.4H33.7332V35.2C33.728 29.6036 30.3638 24.5572 25.1999 22.4ZM51.8665 36.2667V38.4H45.4665V36.2667H51.8665ZM62.5332 39.4667C62.5332 41.234 61.1005 42.6667 59.3332 42.6667H33.7332V40.5333H57.1999C58.9672 40.5333 60.3999 39.1006 60.3999 37.3333V7.46667C60.3999 5.69936 58.9672 4.26667 57.1999 4.26667H26.2665C24.4992 4.26667 23.0665 5.69936 23.0665 7.46667V21.7205C22.3652 21.554 21.6519 21.4427 20.9332 21.3877V5.33333C20.9332 3.56602 22.3659 2.13333 24.1332 2.13333H59.3332C61.1005 2.13333 62.5332 3.56602 62.5332 5.33333V39.4667Z" fill="#4590FF"/>
<path d="M7.79174 32.0669C7.41066 32.0688 7.0575 31.8673 6.86531 31.5382C6.67312 31.2091 6.67109 30.8025 6.85998 30.4715C7.04887 30.1406 7.39999 29.9355 7.78107 29.9336H7.79174C8.38084 29.9336 8.85841 30.4112 8.85841 31.0003C8.85841 31.5894 8.38084 32.0669 7.79174 32.0669Z" fill="#4590FF"/>
<path d="M35.8665 19.1991C35.8637 18.4094 35.5672 17.6489 35.0345 17.0658C35.8868 16.1315 36.1058 14.7815 35.5926 13.6256C35.0794 12.4698 33.9312 11.7269 32.6665 11.7325C31.5232 11.7344 30.4671 12.3437 29.8932 13.3325C29.6199 13.8402 29.7996 14.4731 30.2989 14.7615C30.7981 15.05 31.4362 14.8894 31.7396 14.3991C31.9982 13.9512 32.5409 13.7533 33.0272 13.9298C33.5134 14.1062 33.803 14.606 33.7142 15.1156C33.6254 15.6252 33.1838 15.9976 32.6665 15.9991C32.0774 15.9991 31.5998 16.4767 31.5998 17.0658C31.5998 17.6549 32.0774 18.1325 32.6665 18.1325C33.184 18.133 33.6265 18.5049 33.716 19.0146C33.8056 19.5243 33.5163 20.0247 33.03 20.2016C32.5436 20.3784 32.0005 20.1806 31.7417 19.7325C31.4384 19.2421 30.8003 19.0816 30.301 19.37C29.8018 19.6584 29.6221 20.2914 29.8953 20.7991C30.6195 22.0533 32.0958 22.6648 33.4947 22.2899C34.8937 21.9151 35.8664 20.6474 35.8665 19.1991Z" fill="#4590FF"/>
<path d="M39.0664 18.1341H41.1998V20.2674C41.1998 20.8566 41.6773 21.3341 42.2664 21.3341C42.8555 21.3341 43.3331 20.8566 43.3331 20.2674V18.1341H45.4664C46.0555 18.1341 46.5331 17.6566 46.5331 17.0674C46.5331 16.4783 46.0555 16.0008 45.4664 16.0008H43.3331V13.8674C43.3331 13.2783 42.8555 12.8008 42.2664 12.8008C41.6773 12.8008 41.1998 13.2783 41.1998 13.8674V16.0008H39.0664C38.4773 16.0008 37.9998 16.4783 37.9998 17.0674C37.9998 17.6566 38.4773 18.1341 39.0664 18.1341Z" fill="#4590FF"/>
<path d="M49.7332 20.2658C49.1441 20.2658 48.6665 20.7433 48.6665 21.3324C48.6665 21.9215 49.1441 22.3991 49.7332 22.3991H53.9998C54.5889 22.3991 55.0665 21.9215 55.0665 21.3324C55.0665 20.7433 54.5889 20.2658 53.9998 20.2658H52.9332V12.7991C52.9332 12.21 52.4556 11.7324 51.8665 11.7324H49.7332C49.1441 11.7324 48.6665 12.21 48.6665 12.7991C48.6665 13.3882 49.1441 13.8658 49.7332 13.8658H50.7998V20.2658H49.7332Z" fill="#4590FF"/>
</g>
<defs>
<clipPath id="clip0_21015_63576">
<rect width="64" height="64" fill="white" transform="translate(0.666504)"/>
</clipPath>
</defs>
</svg>
