<svg width="65" height="64" viewBox="0 0 65 64" fill="none" xmlns="http://www.w3.org/2000/svg">
<g clip-path="url(#clip0_21015_62997)">
<path d="M22.6691 36.2656C22.4807 37.8289 21.8559 39.3075 20.8665 40.5323C18.7223 43.208 15.1857 44.3418 11.8855 43.4115C8.58529 42.4812 6.16151 39.6672 5.73047 36.2656H22.6691Z" fill="#E8EDFC"/>
<path d="M19.4691 36.2656C19.2806 37.8289 18.6559 39.3075 17.6664 40.5323C16.386 42.1238 14.5774 43.2035 12.5688 43.5755C13.1063 43.6793 13.6524 43.7318 14.1998 43.7323C16.7931 43.7353 19.2467 42.5576 20.8664 40.5323C21.8559 39.3075 22.4806 37.8289 22.6691 36.2656H19.4691Z" fill="#CAD9FC"/>
<path d="M22.7332 31.9999H5.6665C5.6665 31.9999 6.76517 26.3465 12.0665 25.6745V25.5999C12.0665 25.0108 12.5441 24.5332 13.1332 24.5332H15.2665C15.8556 24.5332 16.3332 25.0108 16.3332 25.5999V25.6745C17.5068 25.8126 18.6243 26.2537 19.5758 26.9545C21.1642 28.2347 22.2762 30.0117 22.7332 31.9999Z" fill="#E8EDFC"/>
<path d="M19.5759 26.9545C18.6243 26.2537 17.5068 25.8126 16.3332 25.6745V25.5999C16.3332 25.0108 15.8556 24.5332 15.2665 24.5332H13.1332C12.9437 24.538 12.7592 24.5948 12.5999 24.6975C12.9251 24.8824 13.128 25.2258 13.1332 25.5999V25.6745C14.3068 25.8126 15.4243 26.2537 16.3759 26.9545C17.9642 28.2347 19.0762 30.0117 19.5332 31.9999H22.7332C22.2762 30.0117 21.1642 28.2347 19.5759 26.9545Z" fill="#CAD9FC"/>
<path d="M8.86657 43.7324H19.5332C23.657 43.7324 26.9999 47.0754 26.9999 51.1991V60.7991C26.9999 61.9773 26.0448 62.9324 24.8666 62.9324H3.53324C2.35503 62.9324 1.3999 61.9773 1.3999 60.7991V51.1991C1.3999 47.0754 4.74284 43.7324 8.86657 43.7324Z" fill="#E8EDFC"/>
<path d="M19.5333 43.7324H16.3333C20.457 43.7324 23.7999 47.0754 23.7999 51.1991V60.7991C23.7999 61.9773 22.8448 62.9324 21.6666 62.9324H24.8666C26.0448 62.9324 26.9999 61.9773 26.9999 60.7991V51.1991C26.9999 47.0754 23.657 43.7324 19.5333 43.7324Z" fill="#CAD9FC"/>
<path d="M23.7999 32H4.59987C4.01077 32 3.5332 32.4776 3.5332 33.0667V35.2C3.5332 35.7891 4.01077 36.2667 4.59987 36.2667H23.7999C24.389 36.2667 24.8665 35.7891 24.8665 35.2V33.0667C24.8665 32.4776 24.389 32 23.7999 32Z" fill="#E8EDFC"/>
<path d="M6.73317 50.1328H21.6665C22.2556 50.1328 22.7332 50.6104 22.7332 51.1995V62.9328H5.6665V51.1995C5.6665 50.6104 6.14407 50.1328 6.73317 50.1328Z" fill="#E8EDFC"/>
<path d="M21.6666 50.1328H18.4666C19.0557 50.1328 19.5332 50.6104 19.5332 51.1995V62.9328H22.7332V51.1995C22.7332 50.6104 22.2557 50.1328 21.6666 50.1328Z" fill="#CAD9FC"/>
<path d="M40.8004 12.7988C40.2657 17.0683 36.636 20.2718 32.3332 20.2718C28.0303 20.2718 24.4006 17.0683 23.866 12.7988H40.8004Z" fill="#E8EDFC"/>
<path d="M37.6004 12.7988C37.1368 16.4672 34.3649 19.4205 30.7332 20.1151C33.0483 20.5553 35.4424 20.0192 37.3488 18.6338C39.2551 17.2484 40.5042 15.1368 40.8004 12.7988H37.6004Z" fill="#CAD9FC"/>
<path d="M40.8665 8.53307H23.7998C23.7998 8.53307 24.8985 2.87974 30.1998 2.20774V2.13307C30.1998 1.54397 30.6774 1.06641 31.2665 1.06641H33.3998C33.9889 1.06641 34.4665 1.54397 34.4665 2.13307V2.20774C39.7678 2.87974 40.8665 8.53307 40.8665 8.53307Z" fill="#E8EDFC"/>
<path d="M34.4665 2.20774V2.13307C34.4665 1.54397 33.9889 1.06641 33.3998 1.06641H31.2665C31.077 1.07123 30.8925 1.12805 30.7332 1.23067C31.0584 1.41562 31.2613 1.75898 31.2665 2.13307V2.20774C36.5678 2.87974 37.6665 8.53307 37.6665 8.53307H40.8665C40.8665 8.53307 39.7678 2.87974 34.4665 2.20774Z" fill="#CAD9FC"/>
<path d="M39.7999 33.0656V35.199C39.7999 35.7881 40.2775 36.2656 40.8666 36.2656H41.9973C42.1857 37.8289 42.8105 39.3075 43.7999 40.5323H20.8666C21.8561 39.3075 22.4808 37.8289 22.6693 36.2656H23.7999C24.389 36.2656 24.8666 35.7881 24.8666 35.199V33.0656C24.8666 32.4765 24.389 31.999 23.7999 31.999H22.7333C22.2763 30.0108 21.1643 28.2338 19.5759 26.9536C19.9745 23.1529 23.1784 20.2666 26.9999 20.2656H37.6666C41.4867 20.2602 44.6926 23.1436 45.0906 26.943C43.5029 28.2282 42.3913 30.0082 41.9333 31.999H40.8666C40.2775 31.999 39.7999 32.4765 39.7999 33.0656Z" fill="#E8EDFC"/>
<path d="M41.9332 8.5332H22.7332C22.1441 8.5332 21.6665 9.01077 21.6665 9.59987V11.7332C21.6665 12.3223 22.1441 12.7999 22.7332 12.7999H41.9332C42.5223 12.7999 42.9998 12.3223 42.9998 11.7332V9.59987C42.9998 9.01077 42.5223 8.5332 41.9332 8.5332Z" fill="#E8EDFC"/>
<path d="M58.936 36.2656C58.5049 39.6672 56.0812 42.4812 52.781 43.4115C49.4808 44.3418 45.9441 43.208 43.8 40.5323C42.8105 39.3075 42.1858 37.8289 41.9973 36.2656H58.936Z" fill="#E8EDFC"/>
<path d="M55.7359 36.2656C55.275 39.9237 52.5168 42.8721 48.8975 43.5755C49.4146 43.6755 49.9398 43.728 50.4665 43.7323C54.768 43.7338 58.3982 40.5334 58.9359 36.2656H55.7359Z" fill="#CAD9FC"/>
<path d="M59 31.9999H41.9333C42.3914 30.0091 43.5029 28.2291 45.0907 26.9439C46.0455 26.251 47.1618 25.814 48.3334 25.6745V25.5999C48.3334 25.0108 48.8109 24.5332 49.4 24.5332H51.5333C52.1225 24.5332 52.6 25.0108 52.6 25.5999V25.6745C57.9014 26.3465 59 31.9999 59 31.9999Z" fill="#E8EDFC"/>
<path d="M52.5998 25.6745V25.5999C52.5998 25.0108 52.1222 24.5332 51.5331 24.5332H49.3998C49.2103 24.538 49.0258 24.5948 48.8665 24.6975C49.1917 24.8824 49.3946 25.2258 49.3998 25.5999V25.6745C54.7011 26.3465 55.7998 31.9999 55.7998 31.9999H58.9998C58.9998 31.9999 57.9011 26.3465 52.5998 25.6745Z" fill="#CAD9FC"/>
<path d="M45.1332 43.7324H55.7998C57.7801 43.7324 59.6793 44.5191 61.0796 45.9194C62.4798 47.3196 63.2665 49.2188 63.2665 51.1991V60.7991C63.2665 61.9773 62.3114 62.9324 61.1332 62.9324H39.7998C38.6216 62.9324 37.6665 61.9773 37.6665 60.7991V51.1991C37.6665 47.0754 41.0094 43.7324 45.1332 43.7324Z" fill="#E8EDFC"/>
<path d="M55.7999 43.7324H52.5999C56.7236 43.7324 60.0665 47.0754 60.0665 51.1991V60.7991C60.0665 61.9773 59.1114 62.9324 57.9332 62.9324H61.1332C62.3114 62.9324 63.2665 61.9773 63.2665 60.7991V51.1991C63.2665 49.2188 62.4799 47.3196 61.0796 45.9194C59.6793 44.5191 57.7801 43.7324 55.7999 43.7324Z" fill="#CAD9FC"/>
<path d="M60.0665 32H40.8665C40.2774 32 39.7998 32.4776 39.7998 33.0667V35.2C39.7998 35.7891 40.2774 36.2667 40.8665 36.2667H60.0665C60.6556 36.2667 61.1331 35.7891 61.1331 35.2V33.0667C61.1331 32.4776 60.6556 32 60.0665 32Z" fill="#E8EDFC"/>
<path d="M43 50.1328H57.9333C58.5225 50.1328 59 50.6104 59 51.1995V62.9328H41.9333V51.1995C41.9333 50.6104 42.4109 50.1328 43 50.1328Z" fill="#E8EDFC"/>
<path d="M57.9332 50.1328H54.7332C55.3223 50.1328 55.7998 50.6104 55.7998 51.1995V62.9328H58.9998V51.1995C58.9998 50.6104 58.5223 50.1328 57.9332 50.1328Z" fill="#CAD9FC"/>
<path d="M10.9998 43.7324V50.1325H6.73315V44.0418C7.42526 43.8347 8.14406 43.7304 8.86649 43.7325L10.9998 43.7324Z" fill="#CAD9FC"/>
<path d="M21.6666 44.0418V50.1325H17.3999V43.7324L19.5332 43.7325C20.2557 43.7304 20.9745 43.8347 21.6666 44.0418Z" fill="#CAD9FC"/>
<path d="M47.2664 43.7324V50.1325H42.9998V44.0418C43.6919 43.8347 44.4107 43.7304 45.1331 43.7325L47.2664 43.7324Z" fill="#CAD9FC"/>
<path d="M57.9332 44.0418V50.1325H53.6665V43.7324L55.7998 43.7325C56.5223 43.7304 57.2411 43.8347 57.9332 44.0418Z" fill="#CAD9FC"/>
<path d="M43.7998 40.5327H20.8665C21.8559 39.3079 22.4806 37.8293 22.6691 36.266H23.7998C24.3889 36.266 24.8665 35.7885 24.8665 35.1993V33.066C24.8665 32.4769 24.3889 31.9993 23.7998 31.9993V27.7327C23.7998 27.1436 24.2774 26.666 24.8665 26.666H39.7998C40.3889 26.666 40.8665 27.1436 40.8665 27.7327V31.9993C40.2774 31.9993 39.7998 32.4769 39.7998 33.066V35.1993C39.7998 35.7885 40.2774 36.266 40.8665 36.266H41.9971C42.1856 37.8293 42.8103 39.3079 43.7998 40.5327Z" fill="#E8EDFC"/>
<path d="M29.1331 20.2656V26.6656H24.8665V20.575C25.5589 20.3694 26.2775 20.2652 26.9998 20.2656L29.1331 20.2656Z" fill="#CAD9FC"/>
<path d="M39.7999 20.575V26.6656H35.5332V20.2656L37.6665 20.2656C38.3889 20.2652 39.1074 20.3694 39.7999 20.575Z" fill="#CAD9FC"/>
<path d="M22.776 26.9536C23.0903 23.9548 25.1774 21.4394 28.0667 20.5771H28.0848C28.3873 20.4898 28.6952 20.4221 29.0064 20.3744C29.0811 20.3616 29.1557 20.352 29.2304 20.3424C29.5516 20.2957 29.8755 20.2701 30.2 20.2656H27C26.6756 20.2679 26.3517 20.2915 26.0304 20.336C25.9557 20.3456 25.8811 20.3552 25.8064 20.368C25.4952 20.4157 25.1873 20.4834 24.8848 20.5707H24.8667C22.4106 21.3073 20.5036 23.2517 19.8149 25.7216C20.8861 25.8903 21.9014 26.3127 22.776 26.9536Z" fill="white"/>
<path d="M25.9332 8.53307H26.9998C26.9998 8.53307 28.0985 2.87974 33.3998 2.20774V2.13307C33.4028 1.75947 33.6066 1.41635 33.9332 1.23494C33.7743 1.13081 33.5897 1.0725 33.3998 1.06641H31.2665C31.1568 1.06836 31.0483 1.09041 30.9465 1.13147C30.5063 1.2674 30.2044 1.67234 30.1998 2.13307V2.20774C24.8985 2.87974 23.7998 8.53307 23.7998 8.53307H22.7332C22.1441 8.53307 21.6665 9.01064 21.6665 9.59974V11.7331C21.6665 12.3222 22.1441 12.7997 22.7332 12.7997H23.866C24.3295 16.4681 27.1014 19.4214 30.7332 20.116C30.9856 20.1637 31.2423 20.1992 31.5033 20.2227H31.5225C31.7892 20.2483 32.0558 20.2611 32.3332 20.2611C32.87 20.261 33.4057 20.2107 33.9332 20.1107C30.3031 19.4167 27.5316 16.4661 27.066 12.7997H25.9332C25.3441 12.7997 24.8665 12.3222 24.8665 11.7331V9.59974C24.8665 9.01064 25.3441 8.53307 25.9332 8.53307Z" fill="white"/>
<path d="M3.53324 62.9324H6.73324C5.55503 62.9324 4.5999 61.9773 4.5999 60.7991V51.1991C4.60094 47.8979 6.76966 44.9892 9.93324 44.046C9.9695 44.0354 10.009 44.0311 10.0452 44.0215C10.3008 43.9502 10.5601 43.8925 10.8218 43.8487C10.9146 43.8327 11.0074 43.8178 11.1012 43.806C11.4211 43.761 11.7436 43.7364 12.0666 43.7324H8.86657C8.54364 43.735 8.22121 43.7581 7.90124 43.8018C7.80737 43.8135 7.71457 43.8284 7.62177 43.8444C7.36005 43.8883 7.10084 43.9459 6.84524 44.0172C6.80897 44.0268 6.7695 44.0311 6.73324 44.0418C3.56815 44.9854 1.39906 47.8963 1.3999 51.1991V60.7991C1.3999 61.3649 1.62466 61.9075 2.02474 62.3076C2.42482 62.7077 2.96744 62.9324 3.53324 62.9324Z" fill="white"/>
<path d="M8.93054 36.2665H7.79987C7.21077 36.2665 6.7332 35.789 6.7332 35.1999V33.0665C6.7332 32.4774 7.21077 31.9999 7.79987 31.9999H8.86654C8.86654 31.9999 9.9652 26.3465 15.2665 25.6745V25.5999C15.2717 25.2258 15.4747 24.8824 15.7999 24.6975C15.6405 24.5948 15.456 24.538 15.2665 24.5332H13.1332C13.0234 24.535 12.915 24.5571 12.8132 24.5983C12.7385 24.623 12.6669 24.6562 12.5999 24.6975C12.2747 24.8824 12.0717 25.2258 12.0665 25.5999V25.6745C6.7652 26.3465 5.66654 31.9999 5.66654 31.9999H4.59987C4.01077 31.9999 3.5332 32.4774 3.5332 33.0665V35.1999C3.5332 35.789 4.01077 36.2665 4.59987 36.2665H5.73054C6.22933 40.2213 9.3996 43.3039 13.3668 43.6916H13.3732C13.6452 43.7183 13.9215 43.7321 14.1999 43.7321C14.7281 43.7281 15.2547 43.6752 15.7732 43.5743C12.1529 42.8728 9.39283 39.9251 8.93054 36.2665Z" fill="white"/>
<path d="M0.333252 52.2676H2.46659V60.8009H0.333252V52.2676Z" fill="white"/>
<path d="M1.39992 57.6001C1.98902 57.6001 2.46659 57.1226 2.46659 56.5335C2.46659 55.9444 1.98902 55.4668 1.39992 55.4668C0.810815 55.4668 0.333252 55.9444 0.333252 56.5335C0.333252 57.1226 0.810815 57.6001 1.39992 57.6001Z" fill="#428DFF"/>
<path d="M56.4399 42.6997C58.1463 41.3481 59.3409 39.4552 59.8266 37.3333H60.0666C61.2448 37.3333 62.1999 36.3782 62.1999 35.2V33.0667C62.1999 31.8885 61.2448 30.9333 60.0666 30.9333H59.8223C58.952 27.8984 56.5438 25.5486 53.4885 24.7531C53.1511 23.9731 52.383 23.4678 51.5333 23.4667H49.3999C48.5501 23.4678 47.7821 23.9731 47.4447 24.7531C46.8937 24.8724 46.3572 25.0512 45.8447 25.2864C44.8413 21.8947 41.8399 19.4807 38.3119 19.2277C40.0153 17.8767 41.2079 15.9859 41.6933 13.8667H41.9333C43.1115 13.8667 44.0666 12.9115 44.0666 11.7333V9.6C44.0666 8.42179 43.1115 7.46667 41.9333 7.46667H41.689C40.8187 4.43176 38.4105 2.08198 35.3551 1.2864C35.0178 0.506462 34.2497 0.00112084 33.3999 0H31.2666C30.4168 0.00112084 29.6487 0.506462 29.3114 1.2864C26.256 2.08198 23.8479 4.43176 22.9775 7.46667H22.7333C21.555 7.46667 20.5999 8.42179 20.5999 9.6V11.7333C20.5999 12.9115 21.555 13.8667 22.7333 13.8667H22.9733C23.4582 15.9867 24.6508 17.8783 26.3546 19.2299C22.8267 19.4828 19.8252 21.8962 18.8207 25.2875C18.3081 25.0528 17.7716 24.874 17.2207 24.7541C16.8838 23.9741 16.1162 23.4684 15.2666 23.4667H13.1333C12.2835 23.4678 11.5154 23.9731 11.1781 24.7531C8.1227 25.5486 5.71452 27.8984 4.84419 30.9333H4.59992C3.42171 30.9333 2.46659 31.8885 2.46659 33.0667V35.2C2.46659 36.3782 3.42171 37.3333 4.59992 37.3333H4.83992C5.32564 39.4552 6.52024 41.3481 8.22659 42.6997C3.77806 43.0343 0.337974 46.7389 0.333252 51.2V52.2667C0.333252 52.8558 0.810815 53.3333 1.39992 53.3333C1.98902 53.3333 2.46659 52.8558 2.46659 52.2667V51.2C2.46969 48.9166 3.68911 46.8078 5.66659 45.6661V49.3632C5.00872 49.7412 4.60221 50.4413 4.59992 51.2V61.8667H3.53325C2.94415 61.8667 2.46659 61.3891 2.46659 60.8C2.46659 60.2109 1.98902 59.7333 1.39992 59.7333C0.810815 59.7333 0.333252 60.2109 0.333252 60.8C0.333252 62.5673 1.76594 64 3.53325 64H24.8666C26.6339 64 28.0666 62.5673 28.0666 60.8V51.2C28.0619 46.7389 24.6218 43.0343 20.1733 42.6997C20.5943 42.3664 20.9868 41.9986 21.3466 41.6H43.3199C43.6798 41.9986 44.0722 42.3664 44.4933 42.6997C40.0447 43.0343 36.6046 46.7389 36.5999 51.2V60.8C36.5999 62.5673 38.0326 64 39.7999 64H61.1333C62.9006 64 64.3333 62.5673 64.3333 60.8V51.2C64.3285 46.7389 60.8884 43.0343 56.4399 42.6997ZM56.8666 49.0667H54.7333V44.8H55.7999C56.1575 44.8021 56.5143 44.8343 56.8666 44.896V49.0667ZM48.3333 49.0667V44.8H52.5999V49.0667H48.3333ZM44.0666 44.896C44.4188 44.8343 44.7756 44.8021 45.1333 44.8H46.1999V49.0667H44.0666V44.896ZM50.4666 42.6667C47.1665 42.6625 44.2594 40.495 43.3135 37.3333H57.6197C56.6737 40.495 53.7667 42.6625 50.4666 42.6667ZM60.0666 35.2H40.8666V33.0667H60.0666V35.2ZM30.1999 25.6V21.3333H34.4666V25.6H30.1999ZM25.9333 21.4325C26.2855 21.3702 26.6422 21.337 26.9999 21.3333H28.0666V25.6H25.9333V21.4325ZM36.5999 21.3333H37.6666C38.0243 21.337 38.381 21.3702 38.7333 21.4325V25.6H36.5999V21.3333ZM49.3999 25.6H51.5333V27.7333C51.5333 28.3224 52.0108 28.8 52.5999 28.8C53.189 28.8 53.6666 28.3224 53.6666 27.7333V27.0197C55.4658 27.7007 56.8814 29.1284 57.5471 30.9333H43.3946C44.0655 29.1352 45.4753 27.711 47.2666 27.0219V27.7333C47.2666 28.3224 47.7442 28.8 48.3333 28.8C48.9224 28.8 49.3999 28.3224 49.3999 27.7333V25.6ZM43.9258 26.5419C43.1245 27.2586 42.4507 28.1062 41.9333 29.0485V27.7333C41.931 26.9746 41.5245 26.2746 40.8666 25.8965V22.1984C42.475 23.1264 43.5938 24.7149 43.9258 26.5419ZM29.1333 3.5552V4.26667C29.1333 4.85577 29.6108 5.33333 30.1999 5.33333C30.789 5.33333 31.2666 4.85577 31.2666 4.26667V2.13333H33.3999V4.26667C33.3999 4.85577 33.8775 5.33333 34.4666 5.33333C35.0557 5.33333 35.5333 4.85577 35.5333 4.26667V3.55307C37.3325 4.23407 38.7481 5.66172 39.4138 7.46667H25.2613C25.9322 5.6685 27.342 4.24434 29.1333 3.5552ZM22.7333 9.6H41.9333V11.7333H22.7333V9.6ZM25.1802 13.8667H39.4863C38.5403 17.0271 35.6323 19.1921 32.3333 19.1921C29.0342 19.1921 26.1262 17.0271 25.1802 13.8667ZM23.7999 22.1984V25.8965C23.1421 26.2746 22.7355 26.9746 22.7333 27.7333V29.0485C22.2158 28.1056 21.5416 27.2576 20.7397 26.5408C21.0729 24.7143 22.1919 23.1265 23.7999 22.1984ZM10.9999 27.0219V27.7333C10.9999 28.3224 11.4775 28.8 12.0666 28.8C12.6557 28.8 13.1333 28.3224 13.1333 27.7333V25.6H15.2666V27.7333C15.2666 28.3224 15.7441 28.8 16.3333 28.8C16.9224 28.8 17.3999 28.3224 17.3999 27.7333V27.0197C19.1992 27.7007 20.6147 29.1284 21.2805 30.9333H7.12792C7.79886 29.1352 9.20864 27.711 10.9999 27.0219ZM4.59992 33.0667H23.7999V35.2H4.59992V33.0667ZM7.04685 37.3333H21.353C20.4069 40.4938 17.4989 42.6588 14.1999 42.6588C10.9009 42.6588 7.9929 40.4938 7.04685 37.3333ZM20.5999 49.0667H18.4666V44.8H19.5333C19.8909 44.8021 20.2477 44.8343 20.5999 44.896V49.0667ZM16.3333 49.0667H12.0666V44.8H16.3333V49.0667ZM8.86659 44.8H9.93325V49.0667H7.79992V44.896C8.15217 44.8343 8.50897 44.8021 8.86659 44.8ZM6.73325 61.8667V51.2H21.6666V61.8667H6.73325ZM25.9333 51.2V60.8C25.9333 61.3891 25.4557 61.8667 24.8666 61.8667H23.7999V51.2C23.7976 50.4413 23.3911 49.7412 22.7333 49.3632V45.6661C24.7107 46.8078 25.9301 48.9166 25.9333 51.2ZM22.793 39.4667C23.1329 38.7887 23.3904 38.0725 23.5599 37.3333H23.7999C24.9781 37.3333 25.9333 36.3782 25.9333 35.2V33.0667C25.931 32.3079 25.5245 31.6079 24.8666 31.2299V27.7333H39.7999V31.2299C39.1421 31.6079 38.7355 32.3079 38.7333 33.0667V35.2C38.7333 36.3782 39.6884 37.3333 40.8666 37.3333H41.1066C41.2761 38.0725 41.5336 38.7887 41.8735 39.4667H22.793ZM38.7333 60.8V51.2C38.7364 48.9166 39.9558 46.8078 41.9333 45.6661V49.3632C41.2754 49.7412 40.8689 50.4413 40.8666 51.2V61.8667H39.7999C39.2108 61.8667 38.7333 61.3891 38.7333 60.8ZM42.9999 61.8667V51.2H57.9333V61.8667H42.9999ZM62.1999 60.8C62.1999 61.3891 61.7224 61.8667 61.1333 61.8667H60.0666V51.2C60.0643 50.4413 59.6578 49.7412 58.9999 49.3632V45.6661C60.9774 46.8078 62.1968 48.9166 62.1999 51.2V60.8Z" fill="#428DFF"/>
</g>
<defs>
<clipPath id="clip0_21015_62997">
<rect width="64" height="64" fill="white" transform="translate(0.333252)"/>
</clipPath>
</defs>
</svg>
