<svg width="64" height="64" viewBox="0 0 64 64" fill="none" xmlns="http://www.w3.org/2000/svg">
<g clip-path="url(#clip0_21015_62412)">
<path d="M62.9333 16V58.6667C62.9333 61.0231 61.0231 62.9333 58.6667 62.9333H5.33332C2.9769 62.9333 1.06665 61.0231 1.06665 58.6667V16H62.9333Z" fill="#E8EDFC"/>
<path d="M59.7333 16V58.6667C59.7333 61.0231 57.8231 62.9333 55.4667 62.9333H58.6667C61.0231 62.9333 62.9333 61.0231 62.9333 58.6667V16H59.7333Z" fill="#CAD9FC"/>
<path d="M62.9333 11.734V16.0007H1.06665V5.33398H27.7333C28.9101 5.3375 29.8631 6.29057 29.8667 7.46732V9.60065C29.8702 10.7774 30.8232 11.7305 32 11.734H62.9333Z" fill="#E8EDFC"/>
<path d="M59.7333 11.7324H62.9333V15.9991H59.7333V11.7324Z" fill="#CAD9FC"/>
<path d="M62.9333 5.33307V11.7331H32C30.8232 11.7296 29.8702 10.7765 29.8667 9.59974V7.46641C29.8631 6.28966 28.9101 5.33659 27.7333 5.33307H1.06665C1.06665 2.97666 2.9769 1.06641 5.33332 1.06641H58.6667C61.0231 1.06641 62.9333 2.97666 62.9333 5.33307Z" fill="#A4C2F7"/>
<path d="M58.6667 1.06641H55.4667C57.8231 1.06641 59.7333 2.97666 59.7333 5.33307V11.7331H62.9333V5.33307C62.9333 2.97666 61.0231 1.06641 58.6667 1.06641Z" fill="#7FACFA"/>
<path d="M26.6666 21.334V36.2673H13.8666C12.0993 36.2673 10.6666 34.8346 10.6666 33.0673L5.91998 29.8993C5.55501 29.6528 5.3363 29.2411 5.3363 28.8007C5.3363 28.3602 5.55501 27.9485 5.91998 27.702L10.6666 24.534C10.6666 22.7667 12.0993 21.334 13.8666 21.334H26.6666Z" fill="#A4C2F7"/>
<path d="M53.3333 24.534V33.0673C53.3333 34.8346 51.9006 36.2673 50.1333 36.2673H26.6666V21.334H50.1333C51.9006 21.334 53.3333 22.7667 53.3333 24.534Z" fill="#CAD9FC"/>
<path d="M25.6 41.5996V56.5329H13.8666C12.0993 56.5329 10.6666 55.1003 10.6666 53.3329V44.7996C10.6666 43.0323 12.0993 41.5996 13.8666 41.5996H25.6Z" fill="#A4C2F7"/>
<path d="M58.08 50.1649L53.3333 53.3329C53.3333 55.1003 51.9006 56.5329 50.1333 56.5329H25.6V41.5996H50.1333C51.9006 41.5996 53.3333 43.0323 53.3333 44.7996L58.08 47.9676C58.4449 48.2142 58.6637 48.6258 58.6637 49.0663C58.6637 49.5067 58.4449 49.9184 58.08 50.1649Z" fill="#CAD9FC"/>
<path d="M5.33332 62.9331H8.53332C6.1769 62.9331 4.26665 61.0228 4.26665 58.6664V5.33307C4.26665 2.97666 6.1769 1.06641 8.53332 1.06641H5.33332C2.9769 1.06641 1.06665 2.97666 1.06665 5.33307V58.6664C1.06665 61.0228 2.9769 62.9331 5.33332 62.9331Z" fill="white"/>
<path d="M0 50.1328H2.13333V58.6661H0V50.1328Z" fill="white"/>
<path d="M1.06667 55.4673C1.65577 55.4673 2.13333 54.9898 2.13333 54.4007C2.13333 53.8115 1.65577 53.334 1.06667 53.334C0.477563 53.334 0 53.8115 0 54.4007C0 54.9898 0.477563 55.4673 1.06667 55.4673Z" fill="#428DFF"/>
<path d="M58.6667 0H5.33333C2.38928 0.00352653 0.00352653 2.38928 0 5.33333V50.1333C0 50.7224 0.477563 51.2 1.06667 51.2C1.65577 51.2 2.13333 50.7224 2.13333 50.1333V17.0667H61.8667V58.6667C61.8667 60.434 60.434 61.8667 58.6667 61.8667H5.33333C3.56602 61.8667 2.13333 60.434 2.13333 58.6667C2.13333 58.0776 1.65577 57.6 1.06667 57.6C0.477563 57.6 0 58.0776 0 58.6667C0.00352653 61.6107 2.38928 63.9965 5.33333 64H58.6667C61.6107 63.9965 63.9965 61.6107 64 58.6667V5.33333C63.9965 2.38928 61.6107 0.00352653 58.6667 0ZM5.33333 2.13333H58.6667C60.434 2.13333 61.8667 3.56602 61.8667 5.33333V10.6667H32C31.4109 10.6667 30.9333 10.1891 30.9333 9.6V7.46667C30.9333 5.69936 29.5006 4.26667 27.7333 4.26667H2.3296C2.78 2.99269 3.9821 2.13893 5.33333 2.13333ZM2.13333 14.9333V6.4H27.7333C28.3224 6.4 28.8 6.87756 28.8 7.46667V9.6C28.8 11.3673 30.2327 12.8 32 12.8H61.8667V14.9333H2.13333Z" fill="#428DFF"/>
<path d="M18.1334 9.59961H6.40004C5.81094 9.59961 5.33337 10.0772 5.33337 10.6663C5.33337 11.2554 5.81094 11.7329 6.40004 11.7329H18.1334C18.7225 11.7329 19.2 11.2554 19.2 10.6663C19.2 10.0772 18.7225 9.59961 18.1334 9.59961Z" fill="#428DFF"/>
<path d="M26.3541 8.84551C25.9376 8.4291 25.2624 8.4291 24.8458 8.84551L24.5333 9.15804L24.2208 8.84551C23.8022 8.44127 23.137 8.44705 22.7255 8.8585C22.3141 9.26995 22.3083 9.93524 22.7125 10.3538L23.025 10.6663L22.7125 10.9788C22.4352 11.2467 22.324 11.6432 22.4216 12.0162C22.5192 12.3891 22.8105 12.6804 23.1834 12.778C23.5564 12.8756 23.953 12.7644 24.2208 12.4871L24.5333 12.1746L24.8458 12.4871C25.2644 12.8913 25.9297 12.8856 26.3411 12.4741C26.7526 12.0627 26.7583 11.3974 26.3541 10.9788L26.0416 10.6663L26.3541 10.3538C26.7705 9.93724 26.7705 9.26204 26.3541 8.84551Z" fill="#428DFF"/>
<path d="M56.5333 7.46732C57.1224 7.46732 57.6 6.98975 57.6 6.40065C57.6 5.81155 57.1224 5.33398 56.5333 5.33398C55.9442 5.33398 55.4667 5.81155 55.4667 6.40065C55.4667 6.98975 55.9442 7.46732 56.5333 7.46732Z" fill="#428DFF"/>
<path d="M52.2666 7.46732C52.8557 7.46732 53.3333 6.98975 53.3333 6.40065C53.3333 5.81155 52.8557 5.33398 52.2666 5.33398C51.6775 5.33398 51.2 5.81155 51.2 6.40065C51.2 6.98975 51.6775 7.46732 52.2666 7.46732Z" fill="#428DFF"/>
<path d="M48 7.46732C48.5891 7.46732 49.0667 6.98975 49.0667 6.40065C49.0667 5.81155 48.5891 5.33398 48 5.33398C47.4109 5.33398 46.9333 5.81155 46.9333 6.40065C46.9333 6.98975 47.4109 7.46732 48 7.46732Z" fill="#428DFF"/>
<path d="M22.0875 31.2457L21.1787 30.3369C21.2765 30.0111 21.3285 29.6733 21.3334 29.3332V28.2665C21.3334 26.2047 19.6619 24.5332 17.6 24.5332C15.5382 24.5332 13.8667 26.2047 13.8667 28.2665V29.3332C13.8667 30.3233 14.26 31.2729 14.9602 31.9731C15.6603 32.6732 16.6099 33.0665 17.6 33.0665C18.48 33.0629 19.3298 32.7456 19.9968 32.1716L20.5792 32.754C20.9978 33.1582 21.6631 33.1525 22.0745 32.741C22.486 32.3296 22.4917 31.6643 22.0875 31.2457ZM17.6 30.9332C16.7164 30.9332 16 30.2169 16 29.3332V28.2665C16 27.3829 16.7164 26.6665 17.6 26.6665C18.4837 26.6665 19.2 27.3829 19.2 28.2665V28.7999C18.7687 28.8 18.3798 29.0598 18.2148 29.4584C18.0497 29.8569 18.1409 30.3156 18.4459 30.6207L18.4886 30.6633C18.2256 30.8392 17.9164 30.9331 17.6 30.9332Z" fill="#428DFF"/>
<path d="M50.1334 20.2676H13.8667C11.7427 20.27 9.94281 21.8322 9.64164 23.9348L5.32271 26.8169C4.66151 27.2611 4.26489 28.0054 4.26489 28.802C4.26489 29.5985 4.66151 30.3428 5.32271 30.787L9.63631 33.667C9.93776 35.7717 11.7406 37.3345 13.8667 37.3342H50.1334C52.4898 37.3342 54.4 35.424 54.4 33.0676V24.5342C54.4 22.1778 52.4898 20.2676 50.1334 20.2676ZM11.7334 33.0676V30.9342C11.7334 30.3451 11.2558 29.8676 10.6667 29.8676C10.0776 29.8676 9.60004 30.3451 9.60004 30.9342V31.0729L6.51204 29.0142C6.44043 28.9672 6.3981 28.8866 6.40004 28.8009C6.39631 28.7161 6.43665 28.6355 6.50671 28.5876L9.60004 26.5289V26.6676C9.60004 27.2567 10.0776 27.7342 10.6667 27.7342C11.2558 27.7342 11.7334 27.2567 11.7334 26.6676V24.5342C11.7334 23.356 12.6885 22.4009 13.8667 22.4009H25.6V35.2009H13.8667C12.6885 35.2009 11.7334 34.2458 11.7334 33.0676ZM52.2667 33.0676C52.2667 34.2458 51.3116 35.2009 50.1334 35.2009H27.7334V22.4009H50.1334C51.3116 22.4009 52.2667 23.356 52.2667 24.5342V33.0676Z" fill="#428DFF"/>
<path d="M17.6 44.8008C15.5382 44.8008 13.8667 46.4723 13.8667 48.5341V52.2674C13.8667 52.8566 14.3443 53.3341 14.9334 53.3341C15.5225 53.3341 16 52.8566 16 52.2674V51.2008H19.2V52.2674C19.2 52.8566 19.6776 53.3341 20.2667 53.3341C20.8558 53.3341 21.3334 52.8566 21.3334 52.2674V48.5341C21.3334 46.4723 19.6619 44.8008 17.6 44.8008ZM16 49.0674V48.5341C16 47.6505 16.7164 46.9341 17.6 46.9341C18.4837 46.9341 19.2 47.6505 19.2 48.5341V49.0674H16Z" fill="#428DFF"/>
<path d="M50.1333 40.5332H13.8666C11.5102 40.5332 9.59998 42.4435 9.59998 44.7999V53.3332C9.59998 55.6896 11.5102 57.5999 13.8666 57.5999H50.1333C52.2574 57.5975 54.0572 56.0353 54.3584 53.9327L58.6752 51.0527C59.3364 50.6084 59.733 49.8642 59.733 49.0676C59.733 48.271 59.3364 47.5268 58.6752 47.0825L54.3616 44.2025C54.0612 42.0979 52.2593 40.5342 50.1333 40.5332ZM11.7333 53.3332V44.7999C11.7333 43.6217 12.6884 42.6665 13.8666 42.6665H24.5333V55.4665H13.8666C12.6884 55.4665 11.7333 54.5114 11.7333 53.3332ZM57.6 49.0665C57.6037 49.1513 57.5634 49.232 57.4933 49.2799L54.4 51.3385V51.1999C54.4 50.6108 53.9224 50.1332 53.3333 50.1332C52.7442 50.1332 52.2666 50.6108 52.2666 51.1999V53.3332C52.2666 54.5114 51.3115 55.4665 50.1333 55.4665H26.6666V42.6665H50.1333C51.3115 42.6665 52.2666 43.6217 52.2666 44.7999V46.9332C52.2666 47.5223 52.7442 47.9999 53.3333 47.9999C53.9224 47.9999 54.4 47.5223 54.4 46.9332V46.7945L57.4933 48.8532C57.5629 48.9015 57.6031 48.9819 57.6 49.0665Z" fill="#428DFF"/>
<path d="M30.9334 27.7329H38.4C38.9891 27.7329 39.4667 27.2554 39.4667 26.6663C39.4667 26.0772 38.9891 25.5996 38.4 25.5996H30.9334C30.3443 25.5996 29.8667 26.0772 29.8667 26.6663C29.8667 27.2554 30.3443 27.7329 30.9334 27.7329Z" fill="#428DFF"/>
<path d="M48 29.8672H30.9334C30.3443 29.8672 29.8667 30.3448 29.8667 30.9339C29.8667 31.523 30.3443 32.0005 30.9334 32.0005H48C48.5891 32.0005 49.0667 31.523 49.0667 30.9339C49.0667 30.3448 48.5891 29.8672 48 29.8672Z" fill="#428DFF"/>
<path d="M30.9334 48.0005H38.4C38.9891 48.0005 39.4667 47.523 39.4667 46.9339C39.4667 46.3448 38.9891 45.8672 38.4 45.8672H30.9334C30.3443 45.8672 29.8667 46.3448 29.8667 46.9339C29.8667 47.523 30.3443 48.0005 30.9334 48.0005Z" fill="#428DFF"/>
<path d="M48 50.1328H30.9334C30.3443 50.1328 29.8667 50.6104 29.8667 51.1995C29.8667 51.7886 30.3443 52.2661 30.9334 52.2661H48C48.5891 52.2661 49.0667 51.7886 49.0667 51.1995C49.0667 50.6104 48.5891 50.1328 48 50.1328Z" fill="#428DFF"/>
</g>
<defs>
<clipPath id="clip0_21015_62412">
<rect width="64" height="64" fill="white"/>
</clipPath>
</defs>
</svg>
