<svg width="64" height="64" viewBox="0 0 64 64" fill="none" xmlns="http://www.w3.org/2000/svg">
<g clip-path="url(#clip0_21015_62519)">
<path d="M47.9999 56.5335V58.6668C47.9964 59.8435 47.0434 60.7966 45.8666 60.8001H13.8666C12.6899 60.7966 11.7368 59.8435 11.7333 58.6668V9.60013C11.7368 8.42338 12.6899 7.47031 13.8666 7.4668H15.9999V54.4001C16.0035 55.5769 16.9565 56.53 18.1333 56.5335H47.9999Z" fill="#C6D8FB"/>
<path d="M52.2667 12.7992V54.3992C52.2632 55.576 51.3101 56.529 50.1333 56.5326H18.1333C16.9566 56.529 16.0035 55.576 16 54.3992V5.33255C16.0035 4.1558 16.9566 3.20273 18.1333 3.19922H42.6667V11.1992C42.6667 12.0829 43.383 12.7992 44.2667 12.7992H52.2667Z" fill="#E8EDFC"/>
<path d="M49.0667 12.7988V54.3988C49.0632 55.5756 48.1101 56.5286 46.9333 56.5322H50.1333C51.3101 56.5286 52.2632 55.5756 52.2667 54.3988V12.7988H49.0667Z" fill="#CAD9FC"/>
<path d="M52.2666 12.7992H44.2666C43.383 12.7992 42.6666 12.0829 42.6666 11.1992V3.19922L52.2666 12.7992Z" fill="#CAD9FC"/>
<path d="M4.26665 22.4C6.03396 22.4 7.46665 20.9673 7.46665 19.2C7.46665 17.4327 6.03396 16 4.26665 16C2.49934 16 1.06665 17.4327 1.06665 19.2C1.06665 20.9673 2.49934 22.4 4.26665 22.4Z" fill="#A4C2F7"/>
<path d="M4.26665 50.1324C6.03396 50.1324 7.46665 48.6997 7.46665 46.9324C7.46665 45.1651 6.03396 43.7324 4.26665 43.7324C2.49934 43.7324 1.06665 45.1651 1.06665 46.9324C1.06665 48.6997 2.49934 50.1324 4.26665 50.1324Z" fill="#A4C2F7"/>
<path d="M59.7333 34.1324C61.5006 34.1324 62.9333 32.6997 62.9333 30.9324C62.9333 29.1651 61.5006 27.7324 59.7333 27.7324C57.966 27.7324 56.5333 29.1651 56.5333 30.9324C56.5333 32.6997 57.966 34.1324 59.7333 34.1324Z" fill="#A4C2F7"/>
<path d="M13.8666 60.7992H17.0666C15.8899 60.7957 14.9368 59.8426 14.9333 58.6659V9.59922C14.9368 8.42247 15.8899 7.4694 17.0666 7.46589H19.1999V5.33255C19.2035 4.1558 20.1565 3.20273 21.3333 3.19922H18.1333C16.9565 3.20273 16.0035 4.1558 15.9999 5.33255V7.46589H13.8666C12.6899 7.4694 11.7368 8.42247 11.7333 9.59922V58.6659C11.7368 59.8426 12.6899 60.7957 13.8666 60.7992Z" fill="white"/>
<path d="M10.6666 9.59961H12.8V18.1329H10.6666V9.59961Z" fill="white"/>
<path d="M11.7333 14.9322C12.3224 14.9322 12.8 14.4546 12.8 13.8655C12.8 13.2764 12.3224 12.7988 11.7333 12.7988C11.1442 12.7988 10.6666 13.2764 10.6666 13.8655C10.6666 14.4546 11.1442 14.9322 11.7333 14.9322Z" fill="#428DFF"/>
<path d="M21.3333 11.7329H23.4666C24.0557 11.7329 24.5333 11.2554 24.5333 10.6663C24.5333 10.0772 24.0557 9.59961 23.4666 9.59961H21.3333C20.7442 9.59961 20.2666 10.0772 20.2666 10.6663C20.2666 11.2554 20.7442 11.7329 21.3333 11.7329Z" fill="#428DFF"/>
<path d="M27.7333 11.7329H38.4C38.9891 11.7329 39.4666 11.2554 39.4666 10.6663C39.4666 10.0772 38.9891 9.59961 38.4 9.59961H27.7333C27.1442 9.59961 26.6666 10.0772 26.6666 10.6663C26.6666 11.2554 27.1442 11.7329 27.7333 11.7329Z" fill="#428DFF"/>
<path d="M39.4666 14.9319C39.4666 14.3428 38.989 13.8652 38.3999 13.8652H21.3333C20.7442 13.8652 20.2666 14.3428 20.2666 14.9319C20.2666 15.521 20.7442 15.9986 21.3333 15.9986H38.3999C38.989 15.9986 39.4666 15.521 39.4666 14.9319Z" fill="#428DFF"/>
<path d="M21.3333 27.7329H23.4666C24.0557 27.7329 24.5333 27.2554 24.5333 26.6663C24.5333 26.0772 24.0557 25.5996 23.4666 25.5996H21.3333C20.7442 25.5996 20.2666 26.0772 20.2666 26.6663C20.2666 27.2554 20.7442 27.7329 21.3333 27.7329Z" fill="#428DFF"/>
<path d="M27.7333 27.7329H40.5333C41.1224 27.7329 41.6 27.2554 41.6 26.6663C41.6 26.0772 41.1224 25.5996 40.5333 25.5996H27.7333C27.1442 25.5996 26.6666 26.0772 26.6666 26.6663C26.6666 27.2554 27.1442 27.7329 27.7333 27.7329Z" fill="#428DFF"/>
<path d="M20.2666 35.1995C20.2666 35.7886 20.7442 36.2661 21.3333 36.2661H31.9999C32.589 36.2661 33.0666 35.7886 33.0666 35.1995C33.0666 34.6104 32.589 34.1328 31.9999 34.1328H21.3333C20.7442 34.1328 20.2666 34.6104 20.2666 35.1995Z" fill="#428DFF"/>
<path d="M44.7999 27.7329H46.9333C47.5224 27.7329 47.9999 27.2554 47.9999 26.6663C47.9999 26.0772 47.5224 25.5996 46.9333 25.5996H44.7999C44.2108 25.5996 43.7333 26.0772 43.7333 26.6663C43.7333 27.2554 44.2108 27.7329 44.7999 27.7329Z" fill="#428DFF"/>
<path d="M23.4666 41.5996H21.3333C20.7442 41.5996 20.2666 42.0772 20.2666 42.6663C20.2666 43.2554 20.7442 43.7329 21.3333 43.7329H23.4666C24.0557 43.7329 24.5333 43.2554 24.5333 42.6663C24.5333 42.0772 24.0557 41.5996 23.4666 41.5996Z" fill="#428DFF"/>
<path d="M26.6666 42.6663C26.6666 43.2554 27.1442 43.7329 27.7333 43.7329H40.5333C41.1224 43.7329 41.6 43.2554 41.6 42.6663C41.6 42.0772 41.1224 41.5996 40.5333 41.5996H27.7333C27.1442 41.5996 26.6666 42.0772 26.6666 42.6663Z" fill="#428DFF"/>
<path d="M31.9999 50.1328H21.3333C20.7442 50.1328 20.2666 50.6104 20.2666 51.1995C20.2666 51.7886 20.7442 52.2661 21.3333 52.2661H31.9999C32.589 52.2661 33.0666 51.7886 33.0666 51.1995C33.0666 50.6104 32.589 50.1328 31.9999 50.1328Z" fill="#428DFF"/>
<path d="M44.7999 43.7329H46.9333C47.5224 43.7329 47.9999 43.2554 47.9999 42.6663C47.9999 42.0772 47.5224 41.5996 46.9333 41.5996H44.7999C44.2108 41.5996 43.7333 42.0772 43.7333 42.6663C43.7333 43.2554 44.2108 43.7329 44.7999 43.7329Z" fill="#428DFF"/>
<path d="M59.7333 26.6661C57.7937 26.6734 56.103 27.9881 55.6181 29.8661H53.3333V12.7995C53.3333 12.5166 53.2208 12.2453 53.0208 12.0453L43.4208 2.44535C43.2208 2.24529 42.9495 2.13287 42.6667 2.13281H18.1333C16.366 2.13281 14.9333 3.5655 14.9333 5.33281V6.39948H13.8667C12.0993 6.39948 10.6667 7.83217 10.6667 9.59948C10.6667 10.1886 11.1442 10.6661 11.7333 10.6661C12.3224 10.6661 12.8 10.1886 12.8 9.59948C12.8 9.01038 13.2776 8.53281 13.8667 8.53281H14.9333V18.1328H12.8C12.8 17.5437 12.3224 17.0661 11.7333 17.0661C11.1442 17.0661 10.6667 17.5437 10.6667 18.1328H8.38186C7.84472 16.0525 5.84449 14.6961 3.71306 14.9668C1.58163 15.2375 -0.0159912 17.0509 -0.0159912 19.1995C-0.0159912 21.348 1.58163 23.1614 3.71306 23.4321C5.84449 23.7029 7.84472 22.3465 8.38186 20.2661H10.6667V45.8661H8.38186C7.84472 43.7858 5.84449 42.4294 3.71306 42.7002C1.58163 42.9709 -0.0159912 44.7843 -0.0159912 46.9328C-0.0159912 49.0814 1.58163 50.8947 3.71306 51.1655C5.84449 51.4362 7.84472 50.0798 8.38186 47.9995H10.6667V58.6661C10.6667 60.4335 12.0993 61.8661 13.8667 61.8661H45.8667C47.634 61.8661 49.0667 60.4335 49.0667 58.6661V57.5995H50.1333C51.9006 57.5995 53.3333 56.1668 53.3333 54.3995V31.9995H55.6181C56.1762 34.1409 58.2813 35.4982 60.4622 35.1228C62.6431 34.7474 64.1731 32.7644 63.9831 30.5596C63.7931 28.3548 61.9463 26.6629 59.7333 26.6661ZM4.26666 21.3328C3.08845 21.3328 2.13332 20.3777 2.13332 19.1995C2.13332 18.0213 3.08845 17.0661 4.26666 17.0661C5.44487 17.0661 6.39999 18.0213 6.39999 19.1995C6.39999 20.3777 5.44487 21.3328 4.26666 21.3328ZM4.26666 49.0661C3.08845 49.0661 2.13332 48.111 2.13332 46.9328C2.13332 45.7546 3.08845 44.7995 4.26666 44.7995C5.44487 44.7995 6.39999 45.7546 6.39999 46.9328C6.39999 48.111 5.44487 49.0661 4.26666 49.0661ZM43.7333 5.77441L49.6917 11.7328H44.2667C43.9721 11.7328 43.7333 11.494 43.7333 11.1995V5.77441ZM12.8 20.2661H14.9333V45.8661H12.8V20.2661ZM46.9333 58.6661C46.9333 59.2553 46.4558 59.7328 45.8667 59.7328H13.8667C13.2776 59.7328 12.8 59.2553 12.8 58.6661V47.9995H14.9333V54.3995C14.9333 56.1668 16.366 57.5995 18.1333 57.5995H46.9333V58.6661ZM51.2 54.3995C51.2 54.9886 50.7224 55.4661 50.1333 55.4661H18.1333C17.5442 55.4661 17.0667 54.9886 17.0667 54.3995V47.9995H46.9333C47.5224 47.9995 48 47.5219 48 46.9328C48 46.3437 47.5224 45.8661 46.9333 45.8661H17.0667V20.2661H30.9333C31.5224 20.2661 32 19.7886 32 19.1995C32 18.6104 31.5224 18.1328 30.9333 18.1328H17.0667V5.33281C17.0667 4.74371 17.5442 4.26615 18.1333 4.26615H41.6V11.1995C41.6 12.6722 42.7939 13.8661 44.2667 13.8661H51.2V29.8661H21.3333C20.7442 29.8661 20.2667 30.3437 20.2667 30.9328C20.2667 31.5219 20.7442 31.9995 21.3333 31.9995H51.2V54.3995ZM59.7333 33.0661C58.5551 33.0661 57.6 32.111 57.6 30.9328C57.6 29.7546 58.5551 28.7995 59.7333 28.7995C60.9115 28.7995 61.8667 29.7546 61.8667 30.9328C61.8667 32.111 60.9115 33.0661 59.7333 33.0661Z" fill="#428DFF"/>
</g>
<defs>
<clipPath id="clip0_21015_62519">
<rect width="64" height="64" fill="white"/>
</clipPath>
</defs>
</svg>
