<svg width="65" height="64" viewBox="0 0 65 64" fill="none" xmlns="http://www.w3.org/2000/svg">
<g clip-path="url(#clip0_21015_62486)">
<path d="M49.7331 15.9997V5.33307C49.7331 2.97666 47.8229 1.06641 45.4665 1.06641H8.13314L2.7998 25.5997V58.6664C2.7998 61.0228 4.71006 62.9331 7.06647 62.9331H45.4665C47.8229 62.9331 49.7331 61.0228 49.7331 58.6664V15.9997Z" fill="#E8EDFC"/>
<path d="M45.4666 1.06641H42.2666C44.623 1.06641 46.5333 2.97666 46.5333 5.33307V58.6664C46.5333 61.0228 44.623 62.9331 42.2666 62.9331H45.4666C47.823 62.9331 49.7333 61.0228 49.7333 58.6664V5.33307C49.7333 2.97666 47.823 1.06641 45.4666 1.06641Z" fill="#CAD9FC"/>
<path d="M8.13314 1.06641L15.9635 7.47387C16.9347 8.26876 17.5066 9.45088 17.5271 10.7057C17.5477 11.9605 17.0148 13.1607 16.0702 13.9869L2.7998 25.5997L8.13314 1.06641Z" fill="#A4C2F7"/>
<path d="M24.5461 47.5826C29.1238 52.1606 36.0085 53.5302 41.9898 51.0528C47.9711 48.5753 51.8711 42.7388 51.8711 36.2647C51.8711 29.7906 47.9711 23.954 41.9898 21.4766C36.0085 18.9992 29.1238 20.3688 24.5461 24.9468C18.3092 31.2032 18.3092 41.3262 24.5461 47.5826Z" fill="#E8EDFC"/>
<path d="M24.5459 24.947C27.9437 21.5518 32.6877 19.8638 37.4665 20.3497C29.295 21.1626 23.0672 28.0321 23.057 36.2439C23.0468 44.4556 29.2576 51.3406 37.427 52.1737C30.7001 52.845 24.278 49.2129 21.3869 43.102C18.4958 36.9911 19.7606 29.7222 24.5459 24.947Z" fill="#CAD9FC"/>
<path d="M35.8664 47.9933C41.4643 47.9883 46.2792 44.0296 47.3661 38.5382C48.4531 33.0467 45.5093 27.5523 40.3353 25.4152C35.1613 23.2782 29.1983 25.0938 26.0932 29.7517C22.9881 34.4095 23.606 40.6122 27.5688 44.5661C29.7692 46.7658 32.755 47.999 35.8664 47.9933Z" fill="#A4C2F7"/>
<path d="M27.5603 27.9658C29.7604 25.7595 32.7508 24.5238 35.8665 24.5333C36.4019 24.5373 36.9365 24.5776 37.4665 24.6538C31.648 25.4389 27.3092 30.4098 27.3178 36.281C27.3265 42.1522 31.6798 47.1103 37.5006 47.8783C36.9592 47.9542 36.4132 47.9927 35.8665 47.9935C31.1207 47.9951 26.8412 45.1377 25.0238 40.7537C23.2063 36.3697 24.2087 31.3225 27.5635 27.9658H27.5603Z" fill="#7FACFA"/>
<path d="M44.6846 49.6173L48.6846 53.6067L53.2083 49.084L49.2179 45.084C48.0296 46.8867 46.4873 48.429 44.6846 49.6173Z" fill="#A4C2F7"/>
<path d="M47.1817 47.5811C47.9429 46.8194 48.6251 45.9828 49.218 45.084L51.0132 46.8824C50.7999 47.116 50.6068 47.356 50.3828 47.5811C49.6214 48.3425 48.7848 49.0247 47.8857 49.6173L50.2836 52.0088L48.6836 53.6088L44.6836 49.6195C45.5831 49.0262 46.4201 48.3433 47.1817 47.5811Z" fill="#7FACFA"/>
<path d="M48.6847 55.1238L55.4698 61.9078C56.7238 63.1545 58.7492 63.1545 60.0031 61.9078L61.5071 60.4028C62.7538 59.1488 62.7538 57.1234 61.5071 55.8694L54.7231 49.0854C54.3039 48.6694 53.6277 48.6694 53.2085 49.0854L48.6847 53.6081C48.2698 54.0281 48.2698 54.7038 48.6847 55.1238Z" fill="#E8EDFC"/>
<path d="M48.6846 53.6081L53.2083 49.0854C53.6276 48.6694 54.3038 48.6694 54.723 49.0854L55.5646 49.9281L51.8846 53.6081C51.4697 54.0281 51.4697 54.7038 51.8846 55.1238L58.6697 61.9078C58.8685 62.1002 59.0915 62.2659 59.3331 62.4006C58.08 63.1278 56.495 62.925 55.4654 61.9057L48.6803 55.1217C48.268 54.7007 48.2699 54.0267 48.6846 53.6081Z" fill="#CAD9FC"/>
<path d="M11.3331 1.06641H8.13314L2.7998 25.5997V58.6664C2.7998 61.0228 4.71006 62.9331 7.06647 62.9331H10.2665C7.91006 62.9331 5.9998 61.0228 5.9998 58.6664V25.5997L11.3331 1.06641Z" fill="white"/>
<path d="M1.73315 50.1328H3.86649V58.6661H1.73315V50.1328Z" fill="white"/>
<path d="M2.79982 55.4673C3.38892 55.4673 3.86649 54.9898 3.86649 54.4007C3.86649 53.8115 3.38892 53.334 2.79982 53.334C2.21072 53.334 1.73315 53.8115 1.73315 54.4007C1.73315 54.9898 2.21072 55.4673 2.79982 55.4673Z" fill="#428DFF"/>
<path d="M1.75449 25.6H1.73315V50.1333C1.73315 50.7224 2.21072 51.2 2.79982 51.2C3.38892 51.2 3.86649 50.7224 3.86649 50.1333V26.0843L16.7732 14.7893C17.9539 13.7563 18.62 12.2559 18.5941 10.6872C18.5682 9.11859 17.853 7.64092 16.6388 6.64747L11.1198 2.13333H45.4665C47.2338 2.13333 48.6665 3.56602 48.6665 5.33333V20.2667C48.6665 20.8558 49.1441 21.3333 49.7332 21.3333C50.3223 21.3333 50.7998 20.8558 50.7998 20.2667V5.33333C50.7963 2.38928 48.4105 0.00352653 45.4665 0H8.13315C7.63162 2.6176e-05 7.19785 0.349443 7.09102 0.839467L1.75769 25.3728C1.7481 25.4482 1.74702 25.5244 1.75449 25.6ZM8.80515 2.9952L15.2884 8.29973C16.0163 8.89575 16.445 9.78188 16.4607 10.7225C16.4763 11.6632 16.0772 12.5631 15.3694 13.1829L4.52889 22.6699L8.80515 2.9952Z" fill="#428DFF"/>
<path d="M7.06649 63.9996H45.4665C46.8818 64.0037 48.24 63.4413 49.2382 62.438C49.6425 62.0195 49.6367 61.3542 49.2252 60.9427C48.8138 60.5313 48.1485 60.5255 47.73 60.9297C47.1307 61.5315 46.3157 61.8687 45.4665 61.8663H7.06649C5.29918 61.8663 3.86649 60.4336 3.86649 58.6663C3.86649 58.0772 3.38892 57.5996 2.79982 57.5996C2.21072 57.5996 1.73315 58.0772 1.73315 58.6663C1.73668 61.6103 4.12243 63.9961 7.06649 63.9996Z" fill="#428DFF"/>
<path d="M8.13309 27.7327C8.13309 27.1436 7.65553 26.666 7.06642 26.666C6.47732 26.666 5.99976 27.1436 5.99976 27.7327V29.866C5.99976 30.4551 6.47732 30.9327 7.06642 30.9327C7.65553 30.9327 8.13309 30.4551 8.13309 29.866V27.7327Z" fill="#428DFF"/>
<path d="M7.06642 33.0664C6.47732 33.0664 5.99976 33.544 5.99976 34.1331V53.3331C5.99976 53.9222 6.47732 54.3997 7.06642 54.3997C7.65553 54.3997 8.13309 53.9222 8.13309 53.3331V34.1331C8.13309 33.544 7.65553 33.0664 7.06642 33.0664Z" fill="#428DFF"/>
<path d="M24.1331 9.60013C24.7222 9.60013 25.1998 9.12257 25.1998 8.53346C25.1998 7.94436 24.7222 7.4668 24.1331 7.4668H21.9998C21.4107 7.4668 20.9331 7.94436 20.9331 8.53346C20.9331 9.12257 21.4107 9.60013 21.9998 9.60013H24.1331Z" fill="#428DFF"/>
<path d="M43.3333 7.4668H28.3999C27.8108 7.4668 27.3333 7.94436 27.3333 8.53346C27.3333 9.12257 27.8108 9.60013 28.3999 9.60013H43.3333C43.9224 9.60013 44.3999 9.12257 44.3999 8.53346C44.3999 7.94436 43.9224 7.4668 43.3333 7.4668Z" fill="#428DFF"/>
<path d="M19.8665 14.9339C19.8665 15.523 20.344 16.0005 20.9331 16.0005H25.1998C25.7889 16.0005 26.2665 15.523 26.2665 14.9339C26.2665 14.3448 25.7889 13.8672 25.1998 13.8672H20.9331C20.344 13.8672 19.8665 14.3448 19.8665 14.9339Z" fill="#428DFF"/>
<path d="M43.3332 13.8672H29.4666C28.8775 13.8672 28.3999 14.3448 28.3999 14.9339C28.3999 15.523 28.8775 16.0005 29.4666 16.0005H43.3332C43.9223 16.0005 44.3999 15.523 44.3999 14.9339C44.3999 14.3448 43.9223 13.8672 43.3332 13.8672Z" fill="#428DFF"/>
<path d="M45.0024 27.3061C43.144 25.441 40.7522 24.199 38.1576 23.7519C37.7787 23.6785 37.3897 23.8155 37.1404 24.11C36.8911 24.4046 36.8204 24.8109 36.9554 25.1724C37.0905 25.534 37.4103 25.7943 37.7917 25.8533C42.9879 26.7705 46.7278 31.3562 46.5815 36.6307C46.4351 41.9052 42.4467 46.2764 37.2076 46.9041C31.9686 47.5319 27.0604 44.2267 25.6721 39.136C24.2838 34.0454 26.8345 28.706 31.6669 26.5871C32.1878 26.3404 32.4184 25.7245 32.1877 25.1963C31.9571 24.6681 31.3486 24.4187 30.8136 24.633C25.6711 26.8857 22.5969 32.2266 23.2317 37.8048C23.8666 43.383 28.0624 47.8965 33.5795 48.936C39.0967 49.9756 44.6473 47.2986 47.2687 42.3339C49.8901 37.3692 48.9703 31.2758 45.0002 27.3061H45.0024Z" fill="#428DFF"/>
<path d="M53.5093 47.875L50.6399 45.0046C55.0105 37.5938 53.1882 28.0892 46.3867 22.8205C39.5851 17.5517 29.9267 18.1629 23.8436 24.2471C17.7605 30.3313 17.151 39.9898 22.4209 46.7904C27.6909 53.591 37.1958 55.4116 44.6058 51.0398L47.4751 53.908C47.2766 54.641 47.4844 55.4242 48.0202 55.9624L54.8074 62.7496C55.6076 63.5498 56.6928 63.9994 57.8245 63.9994C58.9561 63.9994 60.0414 63.5498 60.8415 62.7496L62.3498 61.2414C64.0154 59.5752 64.0154 56.8744 62.3498 55.2083L55.5615 48.42C55.0237 47.8852 54.2416 47.6775 53.5093 47.875ZM25.3919 46.915C19.5605 41.083 19.5609 31.628 25.3926 25.7964C31.2244 19.9648 40.6794 19.9648 46.5112 25.7964C52.343 31.628 52.3433 41.083 46.5119 46.915C40.6747 52.7363 31.2268 52.7344 25.3919 46.9107V46.915ZM48.0202 48.4243C48.5215 47.9163 48.9903 47.3773 49.4239 46.8104L51.7909 49.1784L50.2826 50.6867L48.7733 52.1907L46.4053 49.8238C46.9722 49.3899 47.5116 48.921 48.0202 48.42V48.4243ZM61.4666 58.2248C61.4681 58.7909 61.243 59.334 60.8415 59.7331L59.3333 61.2414C58.489 62.0477 57.1599 62.0477 56.3157 61.2414L49.5285 54.4531L54.0533 49.9283L60.8415 56.7166C61.243 57.1156 61.4681 57.6587 61.4666 58.2248Z" fill="#428DFF"/>
</g>
<defs>
<clipPath id="clip0_21015_62486">
<rect width="64" height="64" fill="white" transform="translate(0.666504)"/>
</clipPath>
</defs>
</svg>
