<svg width="65" height="64" viewBox="0 0 65 64" fill="none" xmlns="http://www.w3.org/2000/svg">
<g clip-path="url(#clip0_21015_62451)">
<path d="M25.9332 35.1992H61.1332C62.31 35.1957 63.2631 34.2426 63.2666 33.0659V5.33255C63.2631 4.1558 62.31 3.20273 61.1332 3.19922H3.53324C2.35649 3.20273 1.40342 4.1558 1.3999 5.33255V33.0659C1.3999 34.2441 2.35503 35.1992 3.53324 35.1992H25.9332Z" fill="#E8EDFC"/>
<path d="M61.1333 3.19922H57.9333C59.1101 3.20273 60.0632 4.1558 60.0667 5.33255V33.0659C60.0632 34.2426 59.1101 35.1957 57.9333 35.1992H61.1333C62.3101 35.1957 63.2632 34.2426 63.2667 33.0659V5.33255C63.2632 4.1558 62.3101 3.20273 61.1333 3.19922Z" fill="#CAD9FC"/>
<path d="M8.86657 33.0664H3.53324C2.35503 33.0664 1.3999 34.0215 1.3999 35.1997V58.6664C1.3999 59.8446 2.35503 60.7997 3.53324 60.7997H8.86657C10.0448 60.7997 10.9999 59.8446 10.9999 58.6664V35.1997C10.9999 34.0215 10.0448 33.0664 8.86657 33.0664Z" fill="#CAD9FC"/>
<path d="M8.8665 33.0664H5.6665C6.84325 33.0699 7.79632 34.023 7.79984 35.1997V58.6664C7.79632 59.8432 6.84325 60.7962 5.6665 60.7997H8.8665C10.0433 60.7962 10.9963 59.8432 10.9998 58.6664V35.1997C10.9963 34.023 10.0433 33.0699 8.8665 33.0664Z" fill="#A4C2F7"/>
<path d="M61.8587 45.4072L41.8693 57.5779C40.6994 58.2898 39.3562 58.6662 37.9867 58.6659H11V35.1992H13.9867C16.1963 35.2023 18.3396 35.9543 20.0667 37.3326C21.7938 38.7108 23.9371 39.4628 26.1467 39.4659H31.7253C33.6653 39.4725 35.451 40.5244 36.3973 42.2179C37.307 43.7378 37.065 45.6819 35.8107 46.9326H38.3173C38.7781 46.9328 39.2358 46.8571 39.672 46.7086L59.416 40.1272C60.611 39.7349 61.9233 40.1465 62.68 41.1512V41.1619C63.1759 41.8202 63.3697 42.6579 63.2131 43.4671C63.0565 44.2764 62.5644 44.9814 61.8587 45.4072Z" fill="#E8EDFC"/>
<path d="M33.1971 42.2188C34.1068 43.7388 33.8649 45.6828 32.6105 46.9335H35.1171C35.3706 46.9319 35.6234 46.9073 35.8723 46.8599C37.0712 45.607 37.286 43.7078 36.3971 42.2188C35.4509 40.5253 33.6651 39.4734 31.7251 39.4668H28.5251C30.4651 39.4734 32.2509 40.5253 33.1971 42.2188Z" fill="#CAD9FC"/>
<path d="M62.68 41.162V41.1513C61.9232 40.1466 60.611 39.7349 59.416 40.1273L58.617 40.394C58.952 40.5867 59.2453 40.8442 59.48 41.1513V41.162C59.9759 41.8203 60.1696 42.658 60.0131 43.4672C59.8565 44.2764 59.3643 44.9814 58.6586 45.4073L38.6693 57.578C37.4993 58.2898 36.1561 58.6662 34.7866 58.666H37.9866C39.3561 58.6662 40.6993 58.2898 41.8693 57.578L61.8586 45.4073C62.5643 44.9814 63.0565 44.2764 63.2131 43.4672C63.3696 42.658 63.1759 41.8203 62.68 41.162Z" fill="#CAD9FC"/>
<path d="M16.8667 37.3326C18.5938 38.7108 20.7371 39.4628 22.9467 39.4659H26.1467C23.9371 39.4628 21.7938 38.7108 20.0667 37.3326C18.3396 35.9543 16.1963 35.2023 13.9867 35.1992H11V35.2088C13.1351 35.2564 15.1958 36.0024 16.8667 37.3326Z" fill="#CAD9FC"/>
<path d="M27.5333 9.04427V13.3536C27.5336 13.7074 27.3585 14.0384 27.0657 14.2372C26.7729 14.4359 26.4007 14.4765 26.072 14.3456L25.0586 13.9403C24.9332 13.8899 24.7991 13.8645 24.664 13.8656H19.5333V26.4949C19.5345 26.6072 19.5525 26.7186 19.5866 26.8256L20.1306 28.4576C20.2407 28.7836 20.1868 29.1427 19.9858 29.422C19.7848 29.7013 19.4614 29.8665 19.1173 29.8656H14.616C14.2718 29.8665 13.9484 29.7013 13.7474 29.422C13.5464 29.1427 13.4925 28.7836 13.6026 28.4576L14.1466 26.8256C14.1807 26.7186 14.1987 26.6072 14.2 26.4949V13.8656H9.06928C8.93412 13.8645 8.80004 13.8899 8.67462 13.9403L7.66128 14.3456C7.33255 14.4765 6.96029 14.4359 6.66753 14.2372C6.37476 14.0384 6.19961 13.7074 6.19995 13.3536V9.04427C6.19961 8.69042 6.37476 8.35944 6.66753 8.1607C6.96029 7.96196 7.33255 7.92134 7.66128 8.05227L8.67462 8.4576C8.80004 8.508 8.93412 8.53337 9.06928 8.53227H24.664C24.7991 8.53337 24.9332 8.508 25.0586 8.4576L26.072 8.05227C26.4007 7.92134 26.7729 7.96196 27.0657 8.1607C27.3585 8.35944 27.5336 8.69042 27.5333 9.04427Z" fill="#A4C2F7"/>
<path d="M3.53324 60.7992H6.73324C5.55649 60.7957 4.60342 59.8426 4.5999 58.6659V35.1992C4.60178 34.8236 4.70416 34.4553 4.89644 34.1326C4.70474 33.8096 4.6024 33.4415 4.5999 33.0659V5.33255C4.60342 4.1558 5.55649 3.20273 6.73324 3.19922H3.53324C2.35649 3.20273 1.40342 4.1558 1.3999 5.33255V33.0659C1.4024 33.4415 1.50474 33.8096 1.69644 34.1326C1.50416 34.4553 1.40178 34.8236 1.3999 35.1992V58.6659C1.40342 59.8426 2.35649 60.7957 3.53324 60.7992Z" fill="white"/>
<path d="M42.8718 46.7083L61.8169 40.3936C61.0926 39.9622 60.2172 39.865 59.4158 40.1269L39.6718 46.7083C39.476 46.7731 39.2756 46.8234 39.0724 46.8587C39.05 46.8821 39.034 46.9088 39.0105 46.9323H41.5172C41.978 46.9325 42.4356 46.8568 42.8718 46.7083Z" fill="white"/>
<path d="M0.333252 50.1328H2.46659V58.6661H0.333252V50.1328Z" fill="white"/>
<path d="M1.42113 55.4654C0.832031 55.4683 0.35208 54.9931 0.349135 54.404C0.346189 53.8149 0.821364 53.335 1.41047 53.332H1.42113C2.01024 53.332 2.4878 53.8096 2.4878 54.3987C2.4878 54.9878 2.01024 55.4654 1.42113 55.4654Z" fill="#428DFF"/>
<path d="M3.53325 61.8667H8.86659C10.2178 61.8611 11.4199 61.0073 11.8703 59.7333H37.9866C39.5521 59.7337 41.0876 59.3035 42.425 58.4896L62.4133 46.3211C63.359 45.7507 64.025 44.8127 64.2518 43.7318C64.4786 42.6508 64.2457 41.5243 63.609 40.6219C63.5871 40.5846 63.5625 40.5489 63.5354 40.5152C62.5031 39.1442 60.7119 38.5834 59.0821 39.1211L39.3274 45.7003C39.002 45.8106 38.6608 45.8668 38.3173 45.8667H37.7093C38.21 44.4933 38.0724 42.9682 37.3338 41.7067C36.2038 39.6685 34.0579 38.4028 31.7274 38.4H26.1466C24.1788 38.3976 22.27 37.7279 20.7322 36.5003C18.8159 34.9714 16.438 34.1371 13.9866 34.1333H11.8703C11.4199 32.8594 10.2178 32.0056 8.86659 32H3.53325C1.76594 32 0.333252 33.4327 0.333252 35.2V50.1333C0.333252 50.7224 0.810815 51.2 1.39992 51.2C1.98902 51.2 2.46659 50.7224 2.46659 50.1333V35.2C2.46659 34.6109 2.94415 34.1333 3.53325 34.1333H8.86659C9.45569 34.1333 9.93325 34.6109 9.93325 35.2V58.6667C9.93325 59.2558 9.45569 59.7333 8.86659 59.7333H3.53325C2.94415 59.7333 2.46659 59.2558 2.46659 58.6667C2.46659 58.0776 1.98902 57.6 1.39992 57.6C0.810815 57.6 0.333252 58.0776 0.333252 58.6667C0.333252 60.434 1.76594 61.8667 3.53325 61.8667ZM19.3999 38.1664C21.3165 39.6955 23.6948 40.5299 26.1466 40.5333H31.7263C33.2198 40.5526 34.6016 41.3277 35.3967 42.592C35.4192 42.6513 35.4471 42.7084 35.4799 42.7627C36.062 43.7338 35.9987 44.9605 35.3199 45.8667H28.8346C26.729 45.868 24.6707 46.491 22.9178 47.6576L22.1381 48.1803C21.6485 48.509 21.5181 49.1723 21.8469 49.6619C22.1756 50.1514 22.8389 50.2818 23.3285 49.9531L24.1007 49.4325C25.5031 48.4992 27.15 48.0008 28.8346 48H38.3173C38.8926 48.0006 39.4641 47.9065 40.009 47.7216L59.7466 41.1413C60.4782 40.8989 61.2837 41.1316 61.7733 41.7269C61.7893 41.7536 61.8063 41.7781 61.8245 41.8037C62.1402 42.2213 62.2635 42.7534 62.1636 43.2673C62.0636 43.7811 61.7499 44.2283 61.3007 44.4971L41.3157 56.6677C40.3123 57.2776 39.1607 57.6001 37.9866 57.6H12.0666V36.2667H13.9866C15.954 36.2693 17.8623 36.939 19.3999 38.1664Z" fill="#428DFF"/>
<path d="M24.6618 14.9331L25.6816 15.3417C26.3391 15.6019 27.0828 15.5194 27.6673 15.1214C28.2519 14.7234 28.6012 14.0616 28.6 13.3545V9.04512C28.6002 8.33725 28.2493 7.67535 27.6633 7.27826C27.0773 6.88118 26.3325 6.80063 25.6752 7.06325L24.664 7.46645H9.07144L8.0517 7.05792C7.39418 6.79769 6.65044 6.88019 6.06593 7.27819C5.48142 7.6762 5.13212 8.33797 5.1333 9.04512V13.3545C5.13304 14.0623 5.48392 14.7242 6.06993 15.1213C6.65594 15.5184 7.40075 15.5989 8.0581 15.3363L9.0693 14.9331H13.1333V26.4894L12.5914 28.115C12.3705 28.7669 12.4777 29.4854 12.8793 30.0445C13.2809 30.6035 13.9276 30.9344 14.616 30.9331H19.1173C19.8045 30.9344 20.4502 30.6047 20.852 30.0472C21.2538 29.4898 21.3625 28.7729 21.144 28.1214L20.6 26.4958V14.9331H24.6618ZM19.5333 12.7998C18.9442 12.7998 18.4666 13.2773 18.4666 13.8665V26.4958C18.468 26.7225 18.504 26.9477 18.5733 27.1635L19.1173 28.7998H14.616L15.1706 27.1305C15.2339 26.9248 15.2662 26.7109 15.2666 26.4958V13.8665C15.2666 13.2773 14.7891 12.7998 14.2 12.7998H9.0693C8.79814 12.7983 8.52929 12.8498 8.27784 12.9513L7.26664 13.3545V9.04299L8.2693 9.44405C8.52324 9.54773 8.79502 9.60064 9.0693 9.59979H24.664C24.9351 9.60126 25.204 9.54981 25.4554 9.44832L26.4666 9.03872V9.04512V13.3566L25.465 12.9555C25.2107 12.8519 24.9386 12.799 24.664 12.7998H19.5333Z" fill="#428DFF"/>
<path d="M32.3333 9.60013H36.5999C37.189 9.60013 37.6666 9.12257 37.6666 8.53346C37.6666 7.94436 37.189 7.4668 36.5999 7.4668H32.3333C31.7442 7.4668 31.2666 7.94436 31.2666 8.53346C31.2666 9.12257 31.7442 9.60013 32.3333 9.60013Z" fill="#428DFF"/>
<path d="M57.9331 7.4668H40.8665C40.2774 7.4668 39.7998 7.94436 39.7998 8.53346C39.7998 9.12257 40.2774 9.60013 40.8665 9.60013H57.9331C58.5222 9.60013 58.9998 9.12257 58.9998 8.53346C58.9998 7.94436 58.5222 7.4668 57.9331 7.4668Z" fill="#428DFF"/>
<path d="M57.9332 12.7988H53.6665C53.0774 12.7988 52.5999 13.2764 52.5999 13.8655C52.5999 14.4546 53.0774 14.9322 53.6665 14.9322H57.9332C58.5223 14.9322 58.9999 14.4546 58.9999 13.8655C58.9999 13.2764 58.5223 12.7988 57.9332 12.7988Z" fill="#428DFF"/>
<path d="M32.3333 14.9322H49.3999C49.989 14.9322 50.4666 14.4546 50.4666 13.8655C50.4666 13.2764 49.989 12.7988 49.3999 12.7988H32.3333C31.7442 12.7988 31.2666 13.2764 31.2666 13.8655C31.2666 14.4546 31.7442 14.9322 32.3333 14.9322Z" fill="#428DFF"/>
<path d="M32.3333 20.2661H36.5999C37.189 20.2661 37.6666 19.7886 37.6666 19.1995C37.6666 18.6104 37.189 18.1328 36.5999 18.1328H32.3333C31.7442 18.1328 31.2666 18.6104 31.2666 19.1995C31.2666 19.7886 31.7442 20.2661 32.3333 20.2661Z" fill="#428DFF"/>
<path d="M57.9331 18.1328H40.8665C40.2774 18.1328 39.7998 18.6104 39.7998 19.1995C39.7998 19.7886 40.2774 20.2661 40.8665 20.2661H57.9331C58.5222 20.2661 58.9998 19.7886 58.9998 19.1995C58.9998 18.6104 58.5222 18.1328 57.9331 18.1328Z" fill="#428DFF"/>
<path d="M57.9332 23.4668H53.6665C53.0774 23.4668 52.5999 23.9444 52.5999 24.5335C52.5999 25.1226 53.0774 25.6001 53.6665 25.6001H57.9332C58.5223 25.6001 58.9999 25.1226 58.9999 24.5335C58.9999 23.9444 58.5223 23.4668 57.9332 23.4668Z" fill="#428DFF"/>
<path d="M32.3333 25.6001H49.3999C49.989 25.6001 50.4666 25.1226 50.4666 24.5335C50.4666 23.9444 49.989 23.4668 49.3999 23.4668H32.3333C31.7442 23.4668 31.2666 23.9444 31.2666 24.5335C31.2666 25.1226 31.7442 25.6001 32.3333 25.6001Z" fill="#428DFF"/>
<path d="M32.3333 30.9322H36.5999C37.189 30.9322 37.6666 30.4546 37.6666 29.8655C37.6666 29.2764 37.189 28.7988 36.5999 28.7988H32.3333C31.7442 28.7988 31.2666 29.2764 31.2666 29.8655C31.2666 30.4546 31.7442 30.9322 32.3333 30.9322Z" fill="#428DFF"/>
<path d="M57.9331 28.7988H40.8665C40.2774 28.7988 39.7998 29.2764 39.7998 29.8655C39.7998 30.4546 40.2774 30.9322 40.8665 30.9322H57.9331C58.5222 30.9322 58.9998 30.4546 58.9998 29.8655C58.9998 29.2764 58.5222 28.7988 57.9331 28.7988Z" fill="#428DFF"/>
<path d="M61.1333 2.13281H3.53325C1.76594 2.13281 0.333252 3.5655 0.333252 5.33281V29.1728C0.333252 29.7619 0.810815 30.2395 1.39992 30.2395C1.98902 30.2395 2.46659 29.7619 2.46659 29.1728V5.33281C2.46659 4.74371 2.94415 4.26615 3.53325 4.26615H61.1333C61.7224 4.26615 62.1999 4.74371 62.1999 5.33281V33.0661C62.1999 33.6553 61.7224 34.1328 61.1333 34.1328H25.9333C25.3441 34.1328 24.8666 34.6104 24.8666 35.1995C24.8666 35.7886 25.3441 36.2661 25.9333 36.2661H61.1333C62.9006 36.2661 64.3333 34.8335 64.3333 33.0661V5.33281C64.3333 3.5655 62.9006 2.13281 61.1333 2.13281Z" fill="#428DFF"/>
</g>
<defs>
<clipPath id="clip0_21015_62451">
<rect width="64" height="64" fill="white" transform="translate(0.333252)"/>
</clipPath>
</defs>
</svg>
