<svg width="20" height="20" viewBox="0 0 20 20" fill="none" xmlns="http://www.w3.org/2000/svg">
<path d="M14.1662 1.66827H16.3912C16.8628 1.65993 17.3211 1.82505 17.679 2.13229C18.037 2.43952 18.2696 2.86749 18.3329 3.33494V9.16827C18.2696 9.63572 18.037 10.0637 17.679 10.3709C17.3211 10.6782 16.8628 10.8433 16.3912 10.8349H14.1662M8.33287 12.5016V15.8349C8.33287 16.498 8.59626 17.1339 9.0651 17.6027C9.53394 18.0715 10.1698 18.3349 10.8329 18.3349L14.1662 10.8349V1.66827H4.7662C4.36426 1.66373 3.97422 1.8046 3.66795 2.06493C3.36168 2.32526 3.15981 2.68751 3.09954 3.08494L1.94954 10.5849C1.91328 10.8238 1.92939 11.0677 1.99675 11.2997C2.06412 11.5318 2.18112 11.7464 2.33965 11.9287C2.49819 12.111 2.69447 12.2567 2.91489 12.3556C3.13532 12.4545 3.37461 12.5043 3.6162 12.5016H8.33287Z" stroke="#98A2B3" stroke-width="1.67" stroke-linecap="round" stroke-linejoin="round"/>
</svg>
