<svg width="20" height="20" viewBox="0 0 20 20" fill="none" xmlns="http://www.w3.org/2000/svg">
<path d="M5.83366 18.3346H3.33366C2.89163 18.3346 2.46771 18.159 2.15515 17.8465C1.84259 17.5339 1.66699 17.11 1.66699 16.668V10.8346C1.66699 10.3926 1.84259 9.96868 2.15515 9.65612C2.46771 9.34356 2.89163 9.16797 3.33366 9.16797H5.83366M11.667 7.5013V4.16797C11.667 3.50493 11.4036 2.86904 10.9348 2.4002C10.4659 1.93136 9.83003 1.66797 9.16699 1.66797L5.83366 9.16797V18.3346H15.2337C15.6356 18.3392 16.0256 18.1983 16.3319 17.938C16.6382 17.6776 16.8401 17.3154 16.9003 16.918L18.0503 9.41797C18.0866 9.1791 18.0705 8.9352 18.0031 8.70318C17.9357 8.47115 17.8187 8.25655 17.6602 8.07423C17.5017 7.89191 17.3054 7.74624 17.085 7.64732C16.8645 7.54839 16.6252 7.49857 16.3837 7.5013H11.667Z" stroke="#98A2B3" stroke-width="1.67" stroke-linecap="round" stroke-linejoin="round"/>
</svg>
