<svg width="24" height="25" viewBox="0 0 24 25" fill="none" xmlns="http://www.w3.org/2000/svg">
<g id="3669416_g_translate_ic_icon 1" clip-path="url(#clip0_2834_70714)">
<path id="Vector" d="M20 5.5H10.88L10 2.5H4C2.9 2.5 2 3.4 2 4.5V17.5C2 18.6 2.9 19.5 4 19.5H11L12 22.5H20C21.1 22.5 22 21.6 22 20.5V7.5C22 6.4 21.1 5.5 20 5.5ZM7.165 15.085C4.91 15.085 3.08 13.25 3.08 11C3.08 8.75 4.915 6.915 7.165 6.915C8.205 6.915 9.15 7.285 9.9 7.98L9.965 8.045L8.745 9.225L8.685 9.17C8.4 8.9 7.905 8.585 7.165 8.585C5.855 8.585 4.79 9.67 4.79 11.005C4.79 12.34 5.855 13.425 7.165 13.425C8.535 13.425 9.13 12.55 9.29 11.965H7.08V10.415H11.03L11.045 10.485C11.085 10.695 11.1 10.88 11.1 11.09C11.095 13.445 9.48 15.085 7.165 15.085ZM13.2 13.385C13.535 13.985 13.94 14.56 14.39 15.085L13.855 15.615L13.2 13.385ZM13.97 12.615H12.98L12.675 11.575H16.67C16.67 11.575 16.33 12.89 15.11 14.31C14.575 13.695 14.205 13.095 13.97 12.615ZM21 20.5C21 21.05 20.55 21.5 20 21.5H13L15 19.5L14.185 16.735L15.105 15.815L17.79 18.5L18.52 17.77L15.815 15.085C16.715 14.05 17.415 12.835 17.73 11.58H19V10.54H15.365V9.5H14.325V10.54H12.365L11.175 6.5H20C20.55 6.5 21 6.95 21 7.5V20.5Z" fill="#1B55AF"/>
</g>
<defs>
<clipPath id="clip0_2834_70714">
<rect width="24" height="24" fill="white" transform="translate(0 0.5)"/>
</clipPath>
</defs>
</svg>
