<svg width="14" height="39" viewBox="0 0 14 39" fill="none" xmlns="http://www.w3.org/2000/svg">
<g clip-path="url(#clip0_354_11994)">
<path d="M5.69998 8.51843L0.376244 16.2949C0.130212 16.654 0 17.0159 0 17.3166C0 17.8981 0.466678 18.2578 1.24784 18.2578H12.754C13.5342 18.2578 14 17.8986 14 17.3185C14 17.0172 13.8697 16.6612 13.623 16.3012L8.29934 8.52115C7.95642 8.02082 7.49495 7.74373 6.99938 7.74373C6.50414 7.74362 6.04279 8.01753 5.69998 8.51843Z" fill="#58AB65"/>
</g>
<g clip-path="url(#clip1_354_11994)">
<path d="M5.69998 30.4816L0.376244 22.7051C0.130212 22.346 0 21.9841 0 21.6834C0 21.1019 0.466678 20.7422 1.24784 20.7422H12.754C13.5342 20.7422 14 21.1014 14 21.6815C14 21.9828 13.8697 22.3388 13.623 22.6988L8.29934 30.4788C7.95642 30.9792 7.49495 31.2563 6.99938 31.2563C6.50414 31.2564 6.04279 30.9825 5.69998 30.4816Z" fill="#C6CED6"/>
</g>
<defs>
<clipPath id="clip0_354_11994">
<rect width="12" height="14" fill="white" transform="matrix(0 -1 1 0 0 19)"/>
</clipPath>
<clipPath id="clip1_354_11994">
<rect width="12" height="14" fill="white" transform="matrix(0 1 1 0 0 20)"/>
</clipPath>
</defs>
</svg>
