<svg width="20" height="20" viewBox="0 0 20 20" fill="none" xmlns="http://www.w3.org/2000/svg">
<g clip-path="url(#clip0_20086_55625)">
<path d="M13.3335 13.3352L10.0002 10.0019M10.0002 10.0019L6.66688 13.3352M10.0002 10.0019V17.5019M16.9919 15.3269C17.8047 14.8838 18.4467 14.1826 18.8168 13.334C19.1868 12.4855 19.2637 11.5379 19.0354 10.6408C18.807 9.74365 18.2865 8.94812 17.5558 8.37973C16.8251 7.81134 15.9259 7.50247 15.0002 7.50186H13.9502C13.698 6.52623 13.2278 5.62047 12.5752 4.85269C11.9225 4.0849 11.1042 3.47507 10.182 3.06903C9.25967 2.663 8.25734 2.47132 7.25031 2.50843C6.24328 2.54553 5.25777 2.81044 4.36786 3.28325C3.47795 3.75605 2.7068 4.42444 2.1124 5.23818C1.51799 6.05191 1.11579 6.98981 0.936028 7.98135C0.756269 8.9729 0.803632 9.9923 1.07456 10.9629C1.34548 11.9335 1.83291 12.8301 2.50021 13.5852" stroke="#344054" stroke-width="1.67" stroke-linecap="round" stroke-linejoin="round"/>
</g>
<defs>
<clipPath id="clip0_20086_55625">
<rect width="20" height="20" fill="white"/>
</clipPath>
</defs>
</svg>
