<svg width="65" height="64" viewBox="0 0 65 64" fill="none" xmlns="http://www.w3.org/2000/svg">
<g clip-path="url(#clip0_21015_62589)">
<path d="M48.6664 3.19974V43.7331C48.6664 44.9113 47.7113 45.8664 46.5331 45.8664C4.93307 45.8664 7.81307 45.8664 7.06641 45.9624V1.16241C7.81307 1.06641 4.80507 1.06641 46.5331 1.06641C47.7113 1.06641 48.6664 2.02153 48.6664 3.19974Z" fill="#E8EDFC"/>
<path d="M48.6666 3.19974V43.7331C48.6666 44.9113 47.7115 45.8664 46.5333 45.8664H43.3333C44.5115 45.8664 45.4666 44.9113 45.4666 43.7331V3.19974C45.4666 2.02153 44.5115 1.06641 43.3333 1.06641H46.5333C47.7115 1.06641 48.6666 2.02153 48.6666 3.19974Z" fill="#CAD9FC"/>
<path d="M63.5999 43.7324V47.9991H43.1946C43.5196 47.2473 43.9236 46.5321 44.3999 45.8658H46.5332C47.7115 45.8658 48.6666 44.9106 48.6666 43.7324H63.5999Z" fill="#E8EDFC"/>
<path d="M48.6666 52.2656V56.5323C48.6666 57.7105 47.7115 58.6656 46.5333 58.6656H44.3999C43.0365 56.8081 42.2904 54.5697 42.2666 52.2656H48.6666Z" fill="#7FACFA"/>
<path d="M63.5998 40.5335V43.7335H48.6665V39.4668H62.5332C63.1223 39.4668 63.5998 39.9444 63.5998 40.5335Z" fill="#7FACFA"/>
<path d="M60.3998 40.5335V43.7335H48.6665V39.4668H59.3332C59.9223 39.4668 60.3998 39.9444 60.3998 40.5335Z" fill="#A4C2F7"/>
<path d="M52.9331 5.33398H58.2664V18.134H52.9331V5.33398Z" fill="#CAD9FC"/>
<path d="M48.6665 5.33398H52.9332V18.134H48.6665V5.33398Z" fill="#E8EDFC"/>
<path d="M63.5999 6.40065V17.0673C63.5999 17.6564 63.1224 18.134 62.5333 18.134H58.2666V5.33398H62.5333C63.1224 5.33398 63.5999 5.81155 63.5999 6.40065Z" fill="#A4C2F7"/>
<path d="M63.5998 23.4671V34.1337C63.6365 34.684 63.2219 35.1605 62.6718 35.2004H48.6665V22.4004H62.6718C63.2219 22.4402 63.6365 22.9168 63.5998 23.4671Z" fill="#CAD9FC"/>
<path d="M60.3998 23.4671V34.1337C60.4369 34.6763 60.0347 35.1496 59.4932 35.2004H48.6665V22.4004H59.4932C60.0347 22.4512 60.4369 22.9244 60.3998 23.4671Z" fill="#E8EDFC"/>
<path d="M56.1331 30.9327C57.3113 30.9327 58.2664 29.9776 58.2664 28.7993C58.2664 27.6211 57.3113 26.666 56.1331 26.666C54.9549 26.666 53.9998 27.6211 53.9998 28.7993C53.9998 29.9776 54.9549 30.9327 56.1331 30.9327Z" fill="#A4C2F7"/>
<path d="M7.06649 1.16211V45.9621C3.98958 46.4822 1.73632 49.1456 1.73315 52.2661V7.46611C1.73632 4.34555 3.98958 1.6822 7.06649 1.16211Z" fill="#E8EDFC"/>
<path d="M44.3999 58.6668C5.99987 58.6668 8.13321 58.6668 7.52521 58.6028C4.5478 58.2876 2.18681 55.9504 1.84158 52.9763C1.49635 50.0022 3.25917 47.1863 6.08521 46.1975C7.45054 45.7281 5.99987 45.8668 44.3999 45.8668C41.5554 49.6594 41.5554 54.8742 44.3999 58.6668Z" fill="#7FACFA"/>
<path d="M41.1999 58.6659C5.69054 58.6659 8.13321 58.6659 7.52521 58.6019C4.5478 58.2867 2.18681 55.9495 1.84158 52.9754C1.49635 50.0013 3.25917 47.1854 6.08521 46.1966C7.53587 45.6952 6.93854 45.8659 41.1999 45.8659C38.3554 49.6585 38.3554 54.8733 41.1999 58.6659Z" fill="#A4C2F7"/>
<path d="M41.1358 25.334C40.0818 27.8217 38.3526 29.9647 36.1438 31.5207C33.6643 30.7078 31.012 30.5752 28.4638 31.1367C26.8023 31.5808 25.2774 32.4312 24.0265 33.6113C22.6745 33.2398 21.3843 32.672 20.1971 31.926C20.4158 31.228 20.5833 30.515 20.6985 29.7927C20.7387 28.7181 20.642 27.6428 20.4105 26.5927C20.1651 24.3953 21.6798 22.6887 21.8611 20.566C22.0638 18.262 19.1091 18.518 17.4345 17.8353C15.9213 17.0998 14.8793 15.6529 14.6611 13.9847C15.2741 12.5767 16.1097 11.2765 17.1358 10.134C19.3344 10.1578 21.5274 9.90697 23.6638 9.38732C25.9422 8.96351 27.8677 7.44867 28.8158 5.33398C30.7079 5.45683 32.5568 5.95351 34.2558 6.79532C33.0644 8.21748 31.5349 9.31777 29.8078 9.99532C26.1065 11.7127 26.0638 15.542 30.2771 16.47C32.2291 16.9073 33.9785 17.9953 33.9891 20.1927C33.9998 22.39 32.4745 24.246 32.4425 26.0807C32.4263 26.7212 32.7107 27.3323 33.2113 27.7323C33.7118 28.1323 34.3706 28.275 34.9918 28.118C37.2318 27.83 38.3091 25.9527 41.1358 25.334Z" fill="#E8EDFC"/>
<path d="M20.4104 26.5915C20.6344 28.6288 21.1144 28.8955 20.1971 31.9248C14.1759 28.136 11.8239 20.518 14.6611 13.9941C14.8792 15.6624 15.9213 17.1093 17.4344 17.8448C19.1091 18.5275 22.0638 18.2715 21.8611 20.5755C21.6798 22.6875 20.1651 24.3941 20.4104 26.5915Z" fill="#CAD9FC"/>
<path d="M28.8157 5.33318C27.8676 7.44787 25.9422 8.9627 23.6637 9.38652C21.5273 9.90617 19.3343 10.157 17.1357 10.1332C20.0796 6.81634 24.3903 5.04485 28.8157 5.33318Z" fill="#CAD9FC"/>
<path d="M36.1437 31.5084C32.627 33.9961 28.1813 34.7788 24.0264 33.6417C25.2773 32.4616 26.8022 31.6111 28.4637 31.167C31.0089 30.6006 33.6588 30.7183 36.1437 31.5084Z" fill="#CAD9FC"/>
<path d="M42.2665 19.7339C42.2668 21.6573 41.8824 23.5613 41.1358 25.3339C39.9077 25.6483 38.7498 26.1911 37.7225 26.9339C34.8212 29.0672 32.3892 28.1179 32.3892 26.1019C32.3892 24.2566 33.9358 22.4859 33.9358 20.2139C33.9358 17.9419 32.1758 16.9286 30.2238 16.4912C26.0105 15.5632 26.0425 11.7339 29.7545 10.0166C30.939 9.5252 32.0457 8.86404 33.0398 8.05389C33.4686 7.68666 33.8615 7.27949 34.2132 6.83789C39.114 9.27476 42.2277 14.2608 42.2665 19.7339Z" fill="#CAD9FC"/>
<path d="M19.8666 52.2656V61.8656C19.8655 62.2353 19.673 62.5781 19.3579 62.7715C19.0428 62.9649 18.6501 62.9813 18.3199 62.815L16.0799 61.7483C15.778 61.5962 15.4218 61.5962 15.1199 61.7483L12.8799 62.815C12.5678 62.9749 12.197 62.9712 11.8881 62.8051C11.5793 62.6389 11.3718 62.3315 11.3333 61.983C11.3333 61.8763 11.3333 61.023 11.3333 52.2656H19.8666Z" fill="#E8EDFC"/>
<path d="M16.6665 52.2656V61.983L18.3305 62.815C18.6597 62.9763 19.0488 62.9572 19.3607 62.7645C19.6726 62.5717 19.8636 62.2323 19.8665 61.8656V52.2656H16.6665Z" fill="#CAD9FC"/>
<path d="M63.5999 48V51.2C63.5999 51.7891 63.1224 52.2667 62.5333 52.2667H42.2666C42.2663 50.7943 42.5828 49.3392 43.1946 48H63.5999Z" fill="#CAD9FC"/>
<path d="M60.3999 48V51.2C60.3999 51.7891 59.9224 52.2667 59.3333 52.2667H42.2666C42.2663 50.7943 42.5828 49.3392 43.1946 48H60.3999Z" fill="#E8EDFC"/>
<path d="M60.3999 43.7324H63.5999V47.9991H60.3999V43.7324Z" fill="#CAD9FC"/>
<path d="M7.06644 1.16291C3.98953 1.683 1.73627 4.34636 1.73311 7.46691V52.1389C1.68471 55.4736 4.20516 58.2864 7.52511 58.6029C8.79091 58.7222 10.064 58.7436 11.3331 58.6669L10.7251 58.6029C7.86085 58.3244 5.53467 56.1685 5.03977 53.3336C4.93311 52.5016 4.93311 56.1389 4.93311 7.46691C4.93311 3.93229 7.79849 1.06691 11.3331 1.06691C9.91049 0.991674 8.48423 1.02376 7.06644 1.16291Z" fill="white"/>
<path d="M0.666504 7.4668H2.79984V16.0001H0.666504V7.4668Z" fill="white"/>
<path d="M0.666504 52.2667C0.666504 56.3904 4.00944 59.7333 8.13317 59.7333H10.2665V61.8667C10.2669 62.6049 10.6489 63.2905 11.2765 63.6792C11.9041 64.0679 12.6881 64.1045 13.3492 63.776L15.5998 62.6453L17.8505 63.776C18.5116 64.1045 19.2956 64.0679 19.9232 63.6792C20.5508 63.2905 20.9328 62.6049 20.9332 61.8667V59.7333H46.5332C48.3005 59.7333 49.7332 58.3006 49.7332 56.5333V53.3333H62.5332C63.7114 53.3333 64.6665 52.3782 64.6665 51.2V40.5333C64.6665 39.3551 63.7114 38.4 62.5332 38.4H49.7332V36.2667H62.5332C63.7114 36.2667 64.6665 35.3115 64.6665 34.1333V23.4667C64.6665 22.2885 63.7114 21.3333 62.5332 21.3333H49.7332V19.2H62.5332C63.7114 19.2 64.6665 18.2449 64.6665 17.0667V6.4C64.6665 5.22179 63.7114 4.26667 62.5332 4.26667H49.7332V3.2C49.7332 1.43269 48.3005 0 46.5332 0H8.13317C4.00944 0 0.666504 3.34294 0.666504 7.46667C0.666504 7.84775 0.869809 8.19989 1.19984 8.39043C1.52987 8.58097 1.93648 8.58097 2.2665 8.39043C2.59653 8.19989 2.79984 7.84775 2.79984 7.46667C2.80093 5.34701 4.05714 3.4292 5.99984 2.58133V45.1093C4.7813 45.4644 3.67767 46.134 2.79984 47.0507V16C2.79984 15.4109 2.32227 14.9333 1.73317 14.9333C1.14407 14.9333 0.666504 15.4109 0.666504 16V52.2667ZM59.3332 6.4H62.5332V17.0667H59.3332V6.4ZM53.9998 6.4H57.1998V17.0667H53.9998V6.4ZM49.7332 6.4H51.8665V17.0667H49.7332V6.4ZM49.7332 23.4667H62.5332V34.1333H49.7332V23.4667ZM16.5492 60.8C15.9512 60.5028 15.2485 60.5028 14.6505 60.8L12.3998 61.8667V53.3333H18.7998V61.8667L16.5492 60.8ZM47.5998 56.5333C47.5998 57.1224 47.1223 57.6 46.5332 57.6H44.9758C44.13 56.3174 43.5899 54.8576 43.3972 53.3333H47.5998V56.5333ZM62.5332 51.2H43.3972C43.4858 50.4717 43.6575 49.7559 43.9092 49.0667H62.5332V51.2ZM49.7332 40.5333H62.5332V42.6667H49.7332V40.5333ZM49.5412 44.8H62.5332V46.9333H46.5332C47.886 46.9295 49.0902 46.0754 49.5412 44.8ZM8.13317 2.13333H46.5332C47.1223 2.13333 47.5998 2.6109 47.5998 3.2V43.7333C47.5998 44.3224 47.1223 44.8 46.5332 44.8H8.13317V2.13333ZM4.36784 48.4907C5.36736 47.4937 6.72141 46.9336 8.13317 46.9333H42.5118C40.7629 50.2738 40.7629 54.2595 42.5118 57.6H20.9332V53.3333H25.1998C25.7889 53.3333 26.2665 52.8558 26.2665 52.2667C26.2665 51.6776 25.7889 51.2 25.1998 51.2H7.0665C6.4774 51.2 5.99984 51.6776 5.99984 52.2667C5.99984 52.8558 6.4774 53.3333 7.0665 53.3333H10.2665V57.6H8.13317C5.97502 57.5995 4.02986 56.2985 3.20544 54.304C2.38102 52.3095 2.83987 50.0148 4.36784 48.4907Z" fill="#428DFF"/>
<path d="M1.73317 12.7993C2.32227 12.7993 2.79984 12.3218 2.79984 11.7327C2.79984 11.1436 2.32227 10.666 1.73317 10.666C1.14407 10.666 0.666504 11.1436 0.666504 11.7327C0.666504 12.3218 1.14407 12.7993 1.73317 12.7993Z" fill="#428DFF"/>
<path d="M56.1331 25.5996C54.3658 25.5996 52.9331 27.0323 52.9331 28.7996C52.9331 30.5669 54.3658 31.9996 56.1331 31.9996C57.9004 31.9996 59.3331 30.5669 59.3331 28.7996C59.3331 27.0323 57.9004 25.5996 56.1331 25.5996ZM56.1331 29.8663C55.544 29.8663 55.0664 29.3887 55.0664 28.7996C55.0664 28.2105 55.544 27.7329 56.1331 27.7329C56.7222 27.7329 57.1998 28.2105 57.1998 28.7996C57.1998 29.3887 56.7222 29.8663 56.1331 29.8663Z" fill="#428DFF"/>
<path d="M34.7998 5.8995C28.6095 2.77504 21.0938 4.18205 16.4531 9.33417C16.3988 9.37997 16.352 9.43395 16.3144 9.49417C13.3137 12.8636 11.94 17.3786 12.5556 21.8483C13.1713 26.318 15.7145 30.2935 19.5144 32.7262H19.5891C24.4031 35.8372 30.544 36.0265 35.5405 33.218C40.537 30.4094 43.5674 25.0649 43.412 19.3353C43.2566 13.6056 39.9411 8.43315 34.7998 5.8995ZM26.8958 6.45417C25.1998 8.19284 22.6504 8.6515 20.1011 8.91817C22.0789 7.49266 24.4115 6.64008 26.8424 6.45417H26.8958ZM20.1331 22.7848C19.1518 25.2702 19.2051 25.9848 19.5037 27.7235C19.7141 28.5133 19.7141 29.3444 19.5037 30.1342C15.6099 27.0054 13.7973 21.9588 14.8104 17.0675C17.0398 20.1608 20.9331 18.8595 20.7944 20.5022C20.6815 21.2902 20.4589 22.0585 20.1331 22.7848ZM26.6398 33.0035C28.6461 31.9602 30.9337 31.5864 33.1677 31.9368C31.1173 32.84 28.871 33.207 26.6398 33.0035ZM35.8664 30.3368C33.3591 29.617 30.7115 29.5364 28.1651 30.1022C26.5352 30.5307 25.0247 31.3261 23.7491 32.4275C22.934 32.1625 22.1449 31.8233 21.3918 31.4142C21.8216 30.1047 21.8807 28.7018 21.5624 27.3608C21.3278 25.9955 21.2531 25.6435 22.0744 23.5528C22.4855 22.6307 22.7586 21.6531 22.8851 20.6515C23.0098 19.4056 22.2907 18.2288 21.1251 17.7715C18.9171 16.8008 16.6558 17.6328 15.7918 14.1128C16.2781 13.063 16.8984 12.0806 17.6371 11.1902C19.7541 11.1798 21.8626 10.9221 23.9197 10.4222C26.2452 9.96792 28.2646 8.53886 29.4664 6.49684C30.4819 6.62374 31.4801 6.86344 32.4424 7.2115C31.5115 7.97249 30.4726 8.5908 29.3598 9.04617C27.7266 9.70559 26.5008 11.0975 26.0531 12.8008C25.5944 15.3395 27.8024 17.0675 30.0318 17.5262C35.5571 18.7528 31.4291 23.1368 31.3651 26.0595C31.3306 26.9136 31.6585 27.7425 32.268 28.3418C32.8774 28.9411 33.7117 29.255 34.5651 29.2062C36.0262 29.0972 37.4187 28.5424 38.5544 27.6168C37.7939 28.648 36.8886 29.5641 35.8664 30.3368ZM34.7998 27.0728C34.4256 27.1408 34.04 27.0521 33.7331 26.8275C32.6664 25.8888 35.0344 23.1262 35.0344 20.2142C35.0344 17.8248 33.3704 16.0862 30.4904 15.4568C30.3837 15.4568 27.8451 14.8488 28.1331 13.1848C28.4797 12.1701 29.2624 11.3639 30.2664 10.9875C31.8626 10.3484 33.3137 9.39435 34.5331 8.18217C40.2225 11.4243 42.6994 18.3297 40.3678 24.4488C37.6371 25.2595 36.6131 26.8488 34.7998 27.0728Z" fill="#428DFF"/>
<path d="M36.9332 37.334H18.7998C18.2107 37.334 17.7332 37.8115 17.7332 38.4007C17.7332 38.9898 18.2107 39.4673 18.7998 39.4673H36.9332C37.5223 39.4673 37.9998 38.9898 37.9998 38.4007C37.9998 37.8115 37.5223 37.334 36.9332 37.334Z" fill="#428DFF"/>
</g>
<defs>
<clipPath id="clip0_21015_62589">
<rect width="64" height="64" fill="white" transform="translate(0.666504)"/>
</clipPath>
</defs>
</svg>
