<svg width="65" height="64" viewBox="0 0 65 64" fill="none" xmlns="http://www.w3.org/2000/svg">
<g clip-path="url(#clip0_21015_63691)">
<path d="M63.5997 49.0664V59.7331C63.5997 60.5818 63.2625 61.3957 62.6624 61.9958C62.0623 62.5959 61.2484 62.9331 60.3997 62.9331H59.333V52.2664H60.3997C61.2484 52.2664 62.0623 51.9293 62.6624 51.3291C63.2625 50.729 63.5997 49.9151 63.5997 49.0664Z" fill="#A4C2F7"/>
<path d="M59.333 52.2676V62.9342H34.7996C33.3852 62.9342 32.0286 62.3723 31.0284 61.3721C30.0282 60.372 29.4663 59.0154 29.4663 57.6009C29.4663 56.1864 30.0282 54.8299 31.0284 53.8297C32.0286 52.8295 33.3852 52.2676 34.7996 52.2676H59.333Z" fill="#C6D8FB"/>
<path d="M63.5998 24.534V49.0673C63.5998 49.916 63.2626 50.7299 62.6625 51.3301C62.0624 51.9302 61.2485 52.2673 60.3998 52.2673H35.8665V38.71C39.6893 37.6054 43.0743 35.3398 45.5529 32.2267C48.0315 29.1137 49.4811 25.3071 49.7011 21.334H60.3998C61.2485 21.334 62.0624 21.6711 62.6625 22.2712C63.2626 22.8714 63.5998 23.6853 63.5998 24.534Z" fill="#E8EDFC"/>
<path d="M60.3997 21.334H57.1997C58.0484 21.334 58.8623 21.6711 59.4624 22.2712C60.0626 22.8714 60.3997 23.6853 60.3997 24.534V49.0673C60.3997 49.916 60.0626 50.7299 59.4624 51.3301C58.8623 51.9302 58.0484 52.2673 57.1997 52.2673H60.3997C61.2484 52.2673 62.0623 51.9302 62.6624 51.3301C63.2626 50.7299 63.5997 49.916 63.5997 49.0673V24.534C63.5997 23.6853 63.2626 22.8714 62.6624 22.2712C62.0623 21.6711 61.2484 21.334 60.3997 21.334Z" fill="#CAD9FC"/>
<path d="M35.8663 38.709V52.2663H34.7996C33.3852 52.2663 32.0286 52.8282 31.0284 53.8284C30.0282 54.8286 29.4663 56.1852 29.4663 57.5997V39.4343C29.8183 39.4557 30.181 39.4663 30.533 39.4663C32.3376 39.4668 34.1332 39.2118 35.8663 38.709Z" fill="#C6D8FB"/>
<path d="M49.733 20.2668C49.733 20.6188 49.7223 20.9815 49.701 21.3335C49.4284 26.233 47.2902 30.8422 43.7255 34.2145C40.1607 37.5868 35.4401 39.4662 30.533 39.4668C30.181 39.4668 29.8183 39.4561 29.4663 39.4348C25.7201 39.2264 22.117 37.9248 19.1023 35.691C16.0876 33.4572 13.7935 30.3891 12.5035 26.8658C11.2135 23.3425 10.9841 19.5184 11.8436 15.8661C12.7031 12.2138 14.614 8.89338 17.3399 6.31518C20.0659 3.73699 23.4875 2.014 27.182 1.35915C30.8765 0.704299 34.6819 1.14628 38.1279 2.63048C41.574 4.11468 44.5096 6.57605 46.5721 9.71041C48.6346 12.8448 49.7335 16.5147 49.733 20.2668Z" fill="#E8EDFC"/>
<path d="M30.5331 1.06641C29.9934 1.06641 29.4664 1.10374 28.9331 1.14747C33.7298 1.54662 38.2014 3.73363 41.4613 7.2749C44.7213 10.8162 46.5315 15.4531 46.5331 20.2664C46.5331 20.6184 46.5224 20.9811 46.5011 21.3331C46.2505 25.9505 44.3386 30.3215 41.1181 33.6398C37.8976 36.9582 33.5857 38.9999 28.9779 39.3885C29.1411 39.4013 29.2979 39.4259 29.4664 39.4344C29.8184 39.4557 30.1811 39.4664 30.5331 39.4664C35.4402 39.4658 40.1608 37.5864 43.7255 34.2141C47.2903 30.8418 49.4285 26.2326 49.7011 21.3331C49.7224 20.9811 49.7331 20.6184 49.7331 20.2664C49.7331 15.1743 47.7103 10.2907 44.1096 6.68996C40.5089 3.08926 35.6253 1.06641 30.5331 1.06641Z" fill="#CAD9FC"/>
<path d="M30.5332 35.2007C38.7806 35.2007 45.4665 28.5148 45.4665 20.2673C45.4665 12.0199 38.7806 5.33398 30.5332 5.33398C22.2857 5.33398 15.5999 12.0199 15.5999 20.2673C15.5999 28.5148 22.2857 35.2007 30.5332 35.2007Z" fill="#C6D8FB"/>
<path d="M30.5331 5.334C29.9986 5.3349 29.4645 5.36445 28.9331 5.42254C32.5907 5.8226 35.9719 7.5589 38.4281 10.2984C40.8844 13.038 42.2428 16.5879 42.2428 20.2673C42.2428 23.9468 40.8844 27.4967 38.4281 30.2362C35.9719 32.9758 32.5907 34.7121 28.9331 35.1121C30.9516 35.3329 32.9939 35.1397 34.9352 34.5443C36.8765 33.949 38.6759 32.9639 40.2236 31.6495C41.7713 30.3351 43.0346 28.7188 43.9364 26.8995C44.8382 25.0802 45.3595 23.0961 45.4684 21.0685C45.5774 19.0409 45.2717 17.0124 44.57 15.107C43.8684 13.2015 42.7855 11.4592 41.3876 9.98651C39.9897 8.51379 38.3061 7.34164 36.4398 6.54169C34.5735 5.74174 32.5636 5.33081 30.5331 5.334Z" fill="#A4C3FD"/>
<path d="M18.5436 35.2639L15.4503 38.3679L12.4316 35.3492L15.5356 32.2559C16.4232 33.3674 17.4321 34.3763 18.5436 35.2639Z" fill="#A4C2F7"/>
<path d="M16.1971 40.63L9.01842 47.8194C8.21782 48.62 7.13197 49.0698 5.99975 49.0698C4.86753 49.0698 3.78169 48.62 2.98109 47.8194C2.18049 47.0188 1.73071 45.9329 1.73071 44.8007C1.73071 43.6685 2.18049 42.5826 2.98109 41.782L10.1704 34.6034C10.2678 34.5021 10.3845 34.4216 10.5138 34.3666C10.643 34.3116 10.782 34.2832 10.9224 34.2832C11.0629 34.2832 11.2019 34.3116 11.3311 34.3666C11.4603 34.4216 11.5771 34.5021 11.6744 34.6034L16.1971 39.126C16.2983 39.2234 16.3789 39.3402 16.4339 39.4694C16.4889 39.5986 16.5173 39.7376 16.5173 39.878C16.5173 40.0185 16.4889 40.1575 16.4339 40.2867C16.3789 40.4159 16.2983 40.5327 16.1971 40.63Z" fill="#E8EDFC"/>
<path d="M21.7438 35.2637C18.7426 32.8655 16.5303 29.6218 15.3932 25.9523C14.256 22.2827 14.2464 18.3564 15.3655 14.6813C16.4847 11.0063 18.6811 7.75172 21.6705 5.33885C24.6599 2.92597 28.3047 1.46586 32.1332 1.14747C31.5998 1.10374 31.0729 1.06641 30.5331 1.06641C25.5404 1.07697 20.7482 3.03196 17.1728 6.51673C13.5973 10.0015 11.52 14.742 11.3812 19.7328C11.2425 24.7236 13.0532 29.5722 16.4295 33.2502C19.8058 36.9283 24.4821 39.1465 29.4665 39.4344C29.8185 39.4557 30.1811 39.4664 30.5331 39.4664C31.0889 39.4664 31.6361 39.4344 32.1779 39.3885C28.3657 39.0877 24.7313 37.6509 21.7438 35.2637Z" fill="white"/>
<path d="M6.18112 47.8194C5.38202 47.018 4.93329 45.9324 4.93329 44.8007C4.93329 43.669 5.38202 42.5834 6.18112 41.782L12.5214 35.4503L11.6744 34.6034C11.5771 34.5021 11.4603 34.4216 11.3311 34.3666C11.2019 34.3116 11.0629 34.2832 10.9224 34.2832C10.782 34.2832 10.643 34.3116 10.5138 34.3666C10.3846 34.4216 10.2678 34.5021 10.1704 34.6034L2.98112 41.782C2.28302 42.4776 1.8472 43.3933 1.74766 44.3737C1.64812 45.354 1.89101 46.3387 2.43507 47.1603C2.97914 47.9819 3.79083 48.5899 4.73229 48.8809C5.67376 49.172 6.68695 49.1282 7.59978 48.757C7.06847 48.5434 6.58589 48.2244 6.18112 47.8194Z" fill="white"/>
<path d="M12.2527 11.5586L14.1727 12.477C13.0124 14.9104 12.4069 17.571 12.3999 20.2669H10.2666C10.2758 17.2529 10.9541 14.2785 12.2527 11.5586Z" fill="white"/>
<path d="M60.3999 20.2665H50.7999C50.8041 16.6404 49.8342 13.0798 47.9917 9.95683C46.1492 6.83382 43.5016 4.26304 40.3258 2.51318C37.1499 0.763323 33.5623 -0.101375 29.938 0.00946121C26.3136 0.120297 22.7856 1.2026 19.7226 3.14325C18.1088 4.15457 16.6507 5.3953 15.3941 6.82645C14.1188 8.24088 13.0601 9.83653 12.2527 11.5614C12.1851 11.6878 12.1449 11.827 12.1346 11.9699C12.1244 12.1129 12.1444 12.2564 12.1933 12.3912C12.2422 12.5259 12.3189 12.6488 12.4185 12.7519C12.518 12.8551 12.6382 12.9361 12.7711 12.9896C13.0273 13.0924 13.3124 13.0972 13.5719 13.0031C13.8314 12.9091 14.0472 12.7228 14.1781 12.4798C14.898 10.9349 15.8447 9.50616 16.9866 8.24085C18.1105 6.95992 19.4157 5.85022 20.8607 4.94698C24.2614 2.8043 28.278 1.8531 32.2785 2.24305C36.2789 2.633 40.0362 4.34197 42.9591 7.10106C45.882 9.86014 47.8045 13.5127 48.4243 17.4841C49.0441 21.4554 48.3258 25.5201 46.3826 29.0386C44.4394 32.5571 41.3815 35.3296 37.69 36.9199C33.9986 38.5103 29.8832 38.8281 25.9914 37.8235C22.0995 36.8189 18.6521 34.5488 16.1917 31.3704C13.7312 28.1921 12.3973 24.2859 12.3999 20.2665C12.3999 19.9836 12.2876 19.7122 12.0875 19.5122C11.8875 19.3122 11.6162 19.1998 11.3333 19.1998C11.0504 19.1998 10.7791 19.3122 10.579 19.5122C10.379 19.7122 10.2666 19.9836 10.2666 20.2665C10.2677 24.5328 11.6239 28.6885 14.1397 32.1342L12.433 33.8409C12.033 33.4412 11.4907 33.2168 10.9253 33.2168C10.3598 33.2168 9.81755 33.4412 9.41753 33.8409L2.2282 41.0291C1.23538 42.0309 0.679834 43.3853 0.68312 44.7957C0.686406 46.2061 1.24826 47.5578 2.24574 48.555C3.24321 49.5522 4.59508 50.1137 6.00552 50.1166C7.41596 50.1195 8.77012 49.5635 9.77167 48.5704L16.9567 41.3864C17.3567 40.9864 17.5813 40.4439 17.5813 39.8782C17.5813 39.3125 17.3567 38.77 16.9567 38.3699L18.6634 36.6632C21.5225 38.7491 24.8808 40.0445 28.3999 40.419V57.5998C28.4016 59.2966 29.0765 60.9235 30.2763 62.1234C31.4762 63.3233 33.1031 63.9981 34.7999 63.9998H60.3999C61.5315 63.9998 62.6168 63.5503 63.4169 62.7501C64.2171 61.95 64.6666 60.8647 64.6666 59.7331V24.5331C64.6666 23.4015 64.2171 22.3163 63.4169 21.5161C62.6168 20.716 61.5315 20.2665 60.3999 20.2665ZM50.6858 22.3998H60.3999C60.9657 22.3998 61.5084 22.6245 61.9084 23.0246C62.3085 23.4247 62.5333 23.9673 62.5333 24.5331V49.0664C62.5333 49.6322 62.3085 50.1749 61.9084 50.5749C61.5084 50.975 60.9657 51.1998 60.3999 51.1998H36.9333V39.4814C40.6201 38.2491 43.8757 35.9845 46.3135 32.9566C48.7513 29.9287 50.2688 26.2647 50.6858 22.3998ZM8.2634 47.0622C7.9663 47.3594 7.61356 47.5952 7.22532 47.7562C6.83708 47.9171 6.42095 48 6.00069 48.0001C5.58042 48.0002 5.16425 47.9175 4.77594 47.7567C4.38763 47.596 4.03478 47.3604 3.73753 47.0633C3.44029 46.7661 3.20448 46.4134 3.04356 46.0252C2.88264 45.6369 2.79976 45.2208 2.79966 44.8005C2.79946 43.9518 3.13644 43.1377 3.73647 42.5374L10.9226 35.3512L11.6746 36.0979L14.6922 39.1144L15.4463 39.8686L8.2634 47.0622ZM15.4485 36.8606L13.9402 35.3512L15.4933 33.8003C15.9686 34.3283 16.4714 34.8311 16.9994 35.3064L15.4485 36.8606ZM34.7999 40.0723V51.1998C33.2232 51.2001 31.7027 51.7859 30.5333 52.8435V40.5331C31.9678 40.5312 33.3981 40.3767 34.7999 40.0723ZM30.5333 57.5998C30.5333 56.4682 30.9828 55.3829 31.7829 54.5828C32.5831 53.7826 33.6683 53.3331 34.7999 53.3331H58.2666V56.5331H43.3333C43.0504 56.5331 42.7791 56.6455 42.579 56.8455C42.379 57.0456 42.2666 57.3169 42.2666 57.5998C42.2666 57.8827 42.379 58.154 42.579 58.354C42.7791 58.5541 43.0504 58.6665 43.3333 58.6665H58.2666V61.8665H34.7999C33.6683 61.8665 32.5831 61.4169 31.7829 60.6168C30.9828 59.8166 30.5333 58.7314 30.5333 57.5998ZM60.3999 61.8665V53.3331C61.1511 53.3287 61.8876 53.124 62.5333 52.7401V59.7331C62.5333 60.2989 62.3085 60.8415 61.9084 61.2416C61.5084 61.6417 60.9657 61.8665 60.3999 61.8665Z" fill="#428DFF"/>
<path d="M39.0665 56.5332H34.7998C34.5169 56.5332 34.2456 56.6456 34.0456 56.8456C33.8455 57.0457 33.7332 57.317 33.7332 57.5999C33.7332 57.8828 33.8455 58.1541 34.0456 58.3541C34.2456 58.5542 34.5169 58.6665 34.7998 58.6665H39.0665C39.3494 58.6665 39.6207 58.5542 39.8207 58.3541C40.0208 58.1541 40.1332 57.8828 40.1332 57.5999C40.1332 57.317 40.0208 57.0457 39.8207 56.8456C39.6207 56.6456 39.3494 56.5332 39.0665 56.5332Z" fill="#428DFF"/>
<path d="M51.8667 30.9322H57.2C57.4829 30.9322 57.7543 30.8198 57.9543 30.6197C58.1543 30.4197 58.2667 30.1484 58.2667 29.8655C58.2667 29.5826 58.1543 29.3113 57.9543 29.1112C57.7543 28.9112 57.4829 28.7988 57.2 28.7988H51.8667C51.5838 28.7988 51.3125 28.9112 51.1125 29.1112C50.9124 29.3113 50.8 29.5826 50.8 29.8655C50.8 30.1484 50.9124 30.4197 51.1125 30.6197C51.3125 30.8198 51.5838 30.9322 51.8667 30.9322Z" fill="#428DFF"/>
<path d="M47.5999 37.3326H49.7332C50.0161 37.3326 50.2874 37.2202 50.4875 37.0201C50.6875 36.8201 50.7999 36.5488 50.7999 36.2659C50.7999 35.983 50.6875 35.7117 50.4875 35.5116C50.2874 35.3116 50.0161 35.1992 49.7332 35.1992H47.5999C47.317 35.1992 47.0457 35.3116 46.8456 35.5116C46.6456 35.7117 46.5332 35.983 46.5332 36.2659C46.5332 36.5488 46.6456 36.8201 46.8456 37.0201C47.0457 37.2202 47.317 37.3326 47.5999 37.3326Z" fill="#428DFF"/>
<path d="M57.2 35.1992H54C53.7171 35.1992 53.4458 35.3116 53.2458 35.5116C53.0457 35.7117 52.9333 35.983 52.9333 36.2659C52.9333 36.5488 53.0457 36.8201 53.2458 37.0201C53.4458 37.2202 53.7171 37.3326 54 37.3326H57.2C57.4829 37.3326 57.7542 37.2202 57.9543 37.0201C58.1543 36.8201 58.2667 36.5488 58.2667 36.2659C58.2667 35.983 58.1543 35.7117 57.9543 35.5116C57.7542 35.3116 57.4829 35.1992 57.2 35.1992Z" fill="#428DFF"/>
<path d="M11.8345 17.0962C11.5516 17.0978 11.2797 16.9869 11.0785 16.788C10.8774 16.589 10.7635 16.3183 10.762 16.0354C10.7604 15.7525 10.8713 15.4806 11.0702 15.2795C11.2692 15.0783 11.5399 14.9644 11.8228 14.9629H11.8345C12.1174 14.9629 12.3887 15.0753 12.5888 15.2753C12.7888 15.4753 12.9012 15.7467 12.9012 16.0296C12.9012 16.3125 12.7888 16.5838 12.5888 16.7838C12.3887 16.9838 12.1174 17.0962 11.8345 17.0962Z" fill="#428DFF"/>
<path d="M30.5332 36.2656C33.6977 36.2656 36.7911 35.3272 39.4223 33.5691C42.0535 31.811 44.1043 29.3122 45.3153 26.3886C46.5263 23.4649 46.8431 20.2479 46.2258 17.1442C45.6084 14.0405 44.0846 11.1896 41.8469 8.95192C39.6093 6.71428 36.7583 5.19043 33.6546 4.57307C30.551 3.9557 27.3339 4.27256 24.4103 5.48356C21.4867 6.69456 18.9878 8.74532 17.2297 11.3765C15.4716 14.0077 14.5332 17.1011 14.5332 20.2656C14.538 24.5076 16.2253 28.5745 19.2248 31.574C22.2243 34.5736 26.2912 36.2608 30.5332 36.2656ZM30.5332 6.39897C33.2758 6.39897 35.9567 7.21223 38.2371 8.73592C40.5175 10.2596 42.2948 12.4253 43.3443 14.9591C44.3939 17.4929 44.6685 20.281 44.1334 22.9709C43.5984 25.6608 42.2777 28.1316 40.3384 30.0708C38.3991 32.0101 35.9283 33.3308 33.2385 33.8659C30.5486 34.4009 27.7605 34.1263 25.2267 33.0768C22.6929 32.0272 20.5272 30.2499 19.0035 27.9695C17.4798 25.6892 16.6665 23.0082 16.6665 20.2656C16.6708 16.5893 18.1331 13.0647 20.7327 10.4651C23.3323 7.86551 26.8568 6.4032 30.5332 6.39897Z" fill="#428DFF"/>
<path d="M22 24.5336V22.4003H26.2667V24.5336C26.2667 24.8165 26.3791 25.0878 26.5791 25.2878C26.7792 25.4879 27.0505 25.6003 27.3334 25.6003C27.6163 25.6003 27.8876 25.4879 28.0876 25.2878C28.2877 25.0878 28.4 24.8165 28.4 24.5336V19.2003C28.4 18.0687 27.9505 16.9834 27.1504 16.1833C26.3502 15.3831 25.265 14.9336 24.1334 14.9336C23.0018 14.9336 21.9165 15.3831 21.1164 16.1833C20.3162 16.9834 19.8667 18.0687 19.8667 19.2003V24.5336C19.8667 24.8165 19.9791 25.0878 20.1791 25.2878C20.3792 25.4879 20.6505 25.6003 20.9334 25.6003C21.2163 25.6003 21.4876 25.4879 21.6876 25.2878C21.8877 25.0878 22 24.8165 22 24.5336ZM24.1334 17.0669C24.6992 17.0669 25.2418 17.2917 25.6419 17.6918C26.0419 18.0918 26.2667 18.6345 26.2667 19.2003V20.2669H22V19.2003C22 18.6345 22.2248 18.0918 22.6249 17.6918C23.0249 17.2917 23.5676 17.0669 24.1334 17.0669Z" fill="#428DFF"/>
<path d="M34.7998 17.0669H38.2132L33.8996 23.9683C33.7988 24.1294 33.743 24.3146 33.7378 24.5045C33.7326 24.6945 33.7783 24.8824 33.8701 25.0488C33.9619 25.2152 34.0965 25.3541 34.2599 25.451C34.4234 25.548 34.6098 25.5995 34.7998 25.6003H40.1332C40.4161 25.6003 40.6874 25.4879 40.8874 25.2878C41.0874 25.0878 41.1998 24.8165 41.1998 24.5336C41.1998 24.2507 41.0874 23.9794 40.8874 23.7793C40.6874 23.5793 40.4161 23.4669 40.1332 23.4669H36.7198L41.0334 16.5656C41.1341 16.4044 41.19 16.2193 41.1952 16.0293C41.2003 15.8393 41.1547 15.6514 41.0629 15.485C40.9711 15.3186 40.8365 15.1798 40.673 15.0828C40.5096 14.9859 40.3232 14.9344 40.1332 14.9336H34.7998C34.5169 14.9336 34.2456 15.046 34.0456 15.246C33.8455 15.4461 33.7332 15.7174 33.7332 16.0003C33.7332 16.2832 33.8455 16.5545 34.0456 16.7545C34.2456 16.9545 34.5169 17.0669 34.7998 17.0669Z" fill="#428DFF"/>
<path d="M30.5332 21.3326H32.6666C32.9495 21.3326 33.2208 21.2202 33.4208 21.0201C33.6208 20.8201 33.7332 20.5488 33.7332 20.2659C33.7332 19.983 33.6208 19.7117 33.4208 19.5116C33.2208 19.3116 32.9495 19.1992 32.6666 19.1992H30.5332C30.2503 19.1992 29.979 19.3116 29.779 19.5116C29.5789 19.7117 29.4666 19.983 29.4666 20.2659C29.4666 20.5488 29.5789 20.8201 29.779 21.0201C29.979 21.2202 30.2503 21.3326 30.5332 21.3326Z" fill="#428DFF"/>
</g>
<defs>
<clipPath id="clip0_21015_63691">
<rect width="64" height="64" fill="white" transform="translate(0.666504)"/>
</clipPath>
</defs>
</svg>
