<svg width="57" height="56" viewBox="0 0 57 56" fill="none" xmlns="http://www.w3.org/2000/svg">
<g id="music 1">
<path id="Vector" d="M48.625 24.8237V17.5C48.6236 16.3401 48.1622 15.2281 47.3421 14.4079C46.5219 13.5878 45.4099 13.1264 44.25 13.125H27.2794C26.4528 13.1259 25.6389 12.9222 24.9102 12.5322C24.1815 12.1421 23.5606 11.5777 23.103 10.8894C22.4862 9.96185 21.6495 9.20125 20.6676 8.67533C19.6857 8.1494 18.5889 7.87446 17.475 7.875H5.75C4.5901 7.87639 3.47811 8.33777 2.65794 9.15794C1.83777 9.97811 1.37639 11.0901 1.375 12.25V40.25C1.37639 41.4099 1.83777 42.5219 2.65794 43.3421C3.47811 44.1622 4.5901 44.6236 5.75 44.625H34.8184C36.0888 45.8698 37.6153 46.8228 39.2916 47.4175C40.9679 48.0122 42.7537 48.2344 44.5246 48.0687C46.2955 47.9029 48.009 47.3531 49.5458 46.4575C51.0826 45.562 52.4057 44.3422 53.423 42.8832C54.4403 41.4242 55.1274 39.761 55.4364 38.0094C55.7454 36.2578 55.6688 34.4598 55.2121 32.7408C54.7554 31.0218 53.9295 29.4229 52.7919 28.0557C51.6543 26.6884 50.2323 25.5855 48.625 24.8237ZM5.75 9.625H17.475C18.3016 9.62409 19.1155 9.82776 19.8442 10.2178C20.5729 10.6079 21.1938 11.1723 21.6514 11.8606C22.2682 12.7882 23.1048 13.5487 24.0868 14.0747C25.0687 14.6006 26.1655 14.8755 27.2794 14.875H44.25C44.9462 14.875 45.6139 15.1516 46.1062 15.6438C46.5984 16.1361 46.875 16.8038 46.875 17.5V24.1412C44.9044 23.5362 42.8125 23.4414 40.7953 23.8656C38.778 24.2898 36.9015 25.2192 35.3415 26.5667C33.7816 27.9142 32.5892 29.6357 31.8762 31.5698C31.1632 33.5039 30.9529 35.5874 31.265 37.625H3.125V12.25C3.125 11.5538 3.40156 10.8861 3.89384 10.3938C4.38613 9.90156 5.05381 9.625 5.75 9.625ZM3.125 40.25V39.375H31.6413C32.0157 40.6247 32.5879 41.8063 33.3361 42.875H5.75C5.05381 42.875 4.38613 42.5984 3.89384 42.1062C3.40156 41.6139 3.125 40.9462 3.125 40.25ZM43.375 46.375C41.2983 46.375 39.2682 45.7592 37.5415 44.6054C35.8148 43.4517 34.469 41.8118 33.6743 39.8932C32.8795 37.9746 32.6716 35.8633 33.0768 33.8265C33.4819 31.7897 34.4819 29.9188 35.9504 28.4504C37.4188 26.9819 39.2898 25.9819 41.3266 25.5768C43.3634 25.1716 45.4746 25.3795 47.3932 26.1743C49.3118 26.969 50.9517 28.3148 52.1054 30.0415C53.2592 31.7682 53.875 33.7983 53.875 35.875C53.872 38.6588 52.7648 41.3278 50.7963 43.2963C48.8278 45.2648 46.1589 46.372 43.375 46.375Z" fill="#3696FB"/>
<path id="Vector_2" d="M5.75 27.125C5.98206 27.125 6.20462 27.0328 6.36872 26.8687C6.53281 26.7046 6.625 26.4821 6.625 26.25V17.5C6.625 17.2679 6.53281 17.0454 6.36872 16.8813C6.20462 16.7172 5.98206 16.625 5.75 16.625C5.51794 16.625 5.29538 16.7172 5.13128 16.8813C4.96719 17.0454 4.875 17.2679 4.875 17.5V26.25C4.875 26.4821 4.96719 26.7046 5.13128 26.8687C5.29538 27.0328 5.51794 27.125 5.75 27.125Z" fill="#3696FB"/>
<path id="Vector_3" d="M5.75 32.375C5.98206 32.375 6.20462 32.2828 6.36872 32.1187C6.53281 31.9546 6.625 31.7321 6.625 31.5V29.75C6.625 29.5179 6.53281 29.2954 6.36872 29.1313C6.20462 28.9672 5.98206 28.875 5.75 28.875C5.51794 28.875 5.29538 28.9672 5.13128 29.1313C4.96719 29.2954 4.875 29.5179 4.875 29.75V31.5C4.875 31.7321 4.96719 31.9546 5.13128 32.1187C5.29538 32.2828 5.51794 32.375 5.75 32.375Z" fill="#3696FB"/>
<path id="Vector_4" d="M48.2479 28.1557C48.1317 28.0751 47.9977 28.0238 47.8573 28.0063C47.717 27.9887 47.5745 28.0055 47.442 28.0551L40.442 30.6801C40.2753 30.7428 40.1317 30.8549 40.0303 31.0014C39.929 31.1479 39.8748 31.3218 39.875 31.5V37.786C39.5948 37.6823 39.2988 37.6279 39 37.625C38.4808 37.625 37.9733 37.7789 37.5416 38.0674C37.11 38.3558 36.7735 38.7658 36.5748 39.2454C36.3761 39.7251 36.3242 40.2529 36.4254 40.7621C36.5267 41.2713 36.7767 41.739 37.1438 42.1061C37.511 42.4732 37.9787 42.7233 38.4879 42.8245C38.9971 42.9258 39.5249 42.8738 40.0045 42.6752C40.4842 42.4765 40.8942 42.14 41.1826 41.7083C41.471 41.2767 41.625 40.7692 41.625 40.25V35.6064L46.875 33.6376V36.036C46.5948 35.9323 46.2988 35.8779 46 35.875C45.4808 35.875 44.9733 36.0289 44.5416 36.3174C44.11 36.6058 43.7735 37.0158 43.5748 37.4954C43.3761 37.9751 43.3242 38.5029 43.4254 39.0121C43.5267 39.5213 43.7767 39.989 44.1438 40.3561C44.511 40.7232 44.9787 40.9733 45.4879 41.0745C45.9971 41.1758 46.5249 41.1238 47.0045 40.9252C47.4842 40.7265 47.8942 40.39 48.1826 39.9583C48.471 39.5267 48.625 39.0192 48.625 38.5V28.875C48.625 28.7335 48.5906 28.5942 48.5249 28.4689C48.4593 28.3437 48.3642 28.2362 48.2479 28.1557ZM39 41.125C38.8269 41.125 38.6578 41.0737 38.5139 40.9775C38.37 40.8814 38.2578 40.7447 38.1916 40.5848C38.1254 40.4249 38.1081 40.249 38.1418 40.0793C38.1756 39.9095 38.2589 39.7536 38.3813 39.6313C38.5037 39.5089 38.6596 39.4256 38.8293 39.3918C38.999 39.358 39.175 39.3754 39.3348 39.4416C39.4947 39.5078 39.6314 39.62 39.7275 39.7639C39.8237 39.9077 39.875 40.0769 39.875 40.25C39.875 40.482 39.7828 40.7046 39.6187 40.8687C39.4546 41.0328 39.2321 41.125 39 41.125ZM41.625 33.7373V32.1064L46.875 30.1376V31.7686L41.625 33.7373ZM46 39.375C45.8269 39.375 45.6578 39.3237 45.5139 39.2275C45.37 39.1314 45.2578 38.9947 45.1916 38.8348C45.1254 38.6749 45.1081 38.499 45.1418 38.3293C45.1756 38.1595 45.2589 38.0036 45.3813 37.8813C45.5037 37.7589 45.6596 37.6756 45.8293 37.6418C45.999 37.608 46.175 37.6254 46.3348 37.6916C46.4947 37.7578 46.6314 37.87 46.7275 38.0139C46.8237 38.1577 46.875 38.3269 46.875 38.5C46.875 38.732 46.7828 38.9546 46.6187 39.1187C46.4546 39.2828 46.2321 39.375 46 39.375Z" fill="#3696FB"/>
</g>
</svg>
