<svg width="57" height="56" viewBox="0 0 57 56" fill="none" xmlns="http://www.w3.org/2000/svg">
<g clip-path="url(#clip0_3230_34296)">
<path d="M27.1826 16.0199C27.1826 15.8168 27.2632 15.6221 27.4068 15.4785C27.5504 15.3349 27.7451 15.2542 27.9482 15.2542H38.0741C38.2772 15.2542 38.4719 15.3349 38.6155 15.4785C38.7591 15.6221 38.8397 15.8168 38.8397 16.0199C38.8397 16.2229 38.7591 16.4177 38.6155 16.5613C38.4719 16.7048 38.2772 16.7855 38.0741 16.7855H27.9482C27.7451 16.7855 27.5504 16.7048 27.4068 16.5613C27.2632 16.4177 27.1826 16.2229 27.1826 16.0199ZM27.9482 20.5125H43.9403C44.1434 20.5125 44.3381 20.4318 44.4817 20.2882C44.6253 20.1446 44.706 19.9499 44.706 19.7468C44.706 19.5438 44.6253 19.349 44.4817 19.2054C44.3381 19.0619 44.1434 18.9812 43.9403 18.9812H27.9484C27.7453 18.9812 27.5506 19.0619 27.407 19.2054C27.2634 19.349 27.1828 19.5438 27.1828 19.7468C27.1828 19.9499 27.2634 20.1446 27.407 20.2882C27.5506 20.4318 27.7453 20.5125 27.9484 20.5125H27.9482ZM43.9401 22.7043H27.9484C27.7453 22.7043 27.5506 22.785 27.407 22.9286C27.2634 23.0722 27.1828 23.2669 27.1828 23.47C27.1828 23.673 27.2634 23.8677 27.407 24.0113C27.5506 24.1549 27.7453 24.2356 27.9484 24.2356H43.9403C44.1434 24.2356 44.3381 24.1549 44.4817 24.0113C44.6253 23.8677 44.706 23.673 44.706 23.47C44.706 23.2669 44.6253 23.0722 44.4817 22.9286C44.3381 22.785 44.1434 22.7043 43.9403 22.7043H43.9401ZM43.9401 26.4279H27.9484C27.7453 26.4279 27.5506 26.5086 27.407 26.6521C27.2634 26.7957 27.1828 26.9905 27.1828 27.1935C27.1828 27.3966 27.2634 27.5913 27.407 27.7349C27.5506 27.8785 27.7453 27.9591 27.9484 27.9591H43.9403C44.1434 27.9591 44.3381 27.8785 44.4817 27.7349C44.6253 27.5913 44.706 27.3966 44.706 27.1935C44.706 26.9905 44.6253 26.7957 44.4817 26.6521C44.3381 26.5086 44.1434 26.4279 43.9403 26.4279H43.9401ZM51.93 42.1027V49.1968C51.9287 50.3139 51.4844 51.3849 50.6945 52.1748C49.9046 52.9647 48.8336 53.4091 47.7165 53.4104H15.7638C14.6467 53.4091 13.5757 52.9647 12.7858 52.1748C11.9959 51.3849 11.5516 50.3139 11.5503 49.1968V30.8241L1.01349 21.7116C0.937398 21.6459 0.875012 21.5658 0.829895 21.4759C0.784777 21.386 0.757812 21.2881 0.750539 21.1878C0.743267 21.0875 0.75583 20.9867 0.78751 20.8912C0.81919 20.7958 0.869368 20.7075 0.935175 20.6315L16.31 2.85375C16.3758 2.77766 16.4559 2.71528 16.5458 2.67017C16.6357 2.62506 16.7337 2.59811 16.834 2.59086C16.9343 2.58361 17.0351 2.59619 17.1305 2.6279C17.226 2.65961 17.3143 2.70982 17.3903 2.77565L22.8983 7.54058L32.8208 3.01748C32.9123 2.97575 33.0112 2.95245 33.1117 2.94892C33.2122 2.94539 33.3124 2.9617 33.4066 2.99691C33.5008 3.03213 33.5872 3.08556 33.6607 3.15415C33.7343 3.22275 33.7936 3.30516 33.8353 3.39669L36.8431 9.99572H41.5871C41.7902 9.9958 41.985 10.0765 42.1286 10.22L48.2365 16.3279C48.3801 16.4715 48.4607 16.6663 48.4608 16.8694V28.0202C50.2464 27.7732 52.0602 28.1964 53.5521 29.2082C55.0439 30.2199 56.1082 31.7484 56.5393 33.4987C56.9705 35.2489 56.738 37.0969 55.8868 38.6858C55.0356 40.2747 53.6259 41.492 51.93 42.1027ZM46.929 28.4033V17.6352H42.9577C42.3914 17.6346 41.8484 17.4093 41.4479 17.0088C41.0474 16.6083 40.8222 16.0654 40.8215 15.499V11.5274H24.9597V26.9193L27.8389 29.7341C28.4914 30.3725 29.0062 30.8242 29.6907 30.8242H43.6628C44.5013 29.7252 45.6337 28.8859 46.929 28.4033ZM42.3529 15.499C42.353 15.6593 42.4168 15.813 42.5301 15.9263C42.6434 16.0396 42.7971 16.1034 42.9574 16.1035H45.8459L42.3529 12.6109V15.499ZM32.7593 4.72887L23.128 9.11919C23.0992 9.13471 23.0693 9.14834 23.0387 9.15998L12.7692 13.8412L17.6483 24.546H21.1678C22.12 24.546 22.849 24.9794 23.4279 25.4604V10.7616C23.4279 10.5585 23.5086 10.3638 23.6522 10.2202C23.7958 10.0766 23.9905 9.99594 24.1936 9.99594H35.1595L32.7593 4.72887ZM11.5503 28.7992V28.1421C11.5519 27.1882 11.9317 26.2738 12.6065 25.5996C13.2814 24.9254 14.1961 24.5464 15.15 24.5458H15.9653L11.0583 13.7797C11.0166 13.6882 10.9933 13.5893 10.9897 13.4888C10.9862 13.3883 11.0025 13.2881 11.0378 13.1939C11.073 13.0997 11.1264 13.0134 11.195 12.9399C11.2636 12.8663 11.346 12.807 11.4375 12.7653L21.3655 8.23948L16.9675 4.43487L2.59461 21.0546L11.5503 28.7992ZM50.3984 42.472C49.3699 42.6076 48.3243 42.5218 47.3316 42.2204C46.3389 41.919 45.4222 41.4089 44.6427 40.7243C43.8633 40.0397 43.2391 39.1964 42.8121 38.251C42.3851 37.3055 42.1651 36.2797 42.1668 35.2423C42.166 34.2495 42.3692 33.267 42.7637 32.3559H29.6905C28.3284 32.3559 27.4265 31.4734 26.7678 30.8291L23.6783 27.8085C23.6643 27.7957 23.6507 27.7826 23.6377 27.7688L23.0229 27.1673C22.3472 26.5092 21.8526 26.0771 21.1679 26.0771H15.15C14.6021 26.0773 14.0767 26.2949 13.689 26.682C13.3013 27.0691 13.083 27.5942 13.082 28.1421V49.1968C13.0828 49.9078 13.3656 50.5895 13.8684 51.0923C14.3711 51.5951 15.0528 51.8779 15.7638 51.8787H47.7165C48.4275 51.8779 49.1092 51.5951 49.612 51.0923C50.1148 50.5895 50.3976 49.9078 50.3984 49.1968V42.472ZM55.2195 35.2423C55.2195 34.103 54.8817 32.9892 54.2487 32.0419C53.6158 31.0946 52.7161 30.3562 51.6635 29.9202C50.6109 29.4841 49.4526 29.3701 48.3352 29.5923C47.2177 29.8146 46.1913 30.3632 45.3857 31.1688C44.58 31.9745 44.0314 33.0009 43.8091 34.1183C43.5868 35.2358 43.7009 36.394 44.1369 37.4466C44.5729 38.4993 45.3112 39.3989 46.2585 40.0319C47.2059 40.6649 48.3196 41.0028 49.459 41.0028C50.9862 41.001 52.4504 40.3936 53.5303 39.3137C54.6103 38.2337 55.2178 36.7696 55.2195 35.2423ZM53.3582 32.3476C53.2871 32.2765 53.2027 32.2201 53.1098 32.1816C53.0169 32.1431 52.9173 32.1233 52.8168 32.1233C52.7162 32.1233 52.6167 32.1431 52.5238 32.1816C52.4309 32.2201 52.3465 32.2765 52.2754 32.3476L48.1104 36.5126L46.6428 35.045C46.4992 34.9014 46.3044 34.8207 46.1014 34.8207C45.8983 34.8207 45.7035 34.9014 45.56 35.045C45.4164 35.1886 45.3357 35.3833 45.3357 35.5864C45.3357 35.7895 45.4164 35.9842 45.56 36.1278L47.5691 38.1368C47.6402 38.2079 47.7246 38.2643 47.8175 38.3028C47.9104 38.3413 48.0099 38.3611 48.1105 38.3611C48.211 38.3611 48.3106 38.3413 48.4035 38.3028C48.4964 38.2643 48.5808 38.2079 48.6519 38.1368L53.3582 33.4304C53.4293 33.3593 53.4857 33.2749 53.5242 33.182C53.5626 33.0891 53.5824 32.9895 53.5824 32.889C53.5824 32.7885 53.5626 32.6889 53.5242 32.596C53.4857 32.5031 53.4293 32.4187 53.3582 32.3476ZM46.2997 47.0982H17.1806C16.9776 47.0982 16.7828 47.1789 16.6393 47.3225C16.4957 47.4661 16.415 47.6608 16.415 47.8639C16.415 48.0669 16.4957 48.2617 16.6393 48.4052C16.7828 48.5488 16.9776 48.6295 17.1806 48.6295H46.2997C46.5027 48.6295 46.6975 48.5488 46.841 48.4052C46.9846 48.2617 47.0653 48.0669 47.0653 47.8639C47.0653 47.6608 46.9846 47.4661 46.841 47.3225C46.6975 47.1789 46.5027 47.0982 46.2997 47.0982ZM17.1806 43.3999H24.6496C24.8527 43.3999 25.0474 43.3193 25.191 43.1757C25.3346 43.0321 25.4153 42.8374 25.4153 42.6343C25.4153 42.4313 25.3346 42.2365 25.191 42.0929C25.0474 41.9493 24.8527 41.8687 24.6496 41.8687H17.1806C16.9776 41.8687 16.7828 41.9493 16.6393 42.0929C16.4957 42.2365 16.415 42.4313 16.415 42.6343C16.415 42.8374 16.4957 43.0321 16.6393 43.1757C16.7828 43.3193 16.9776 43.3999 17.1806 43.3999Z" fill="#3696FB"/>
</g>
<defs>
<clipPath id="clip0_3230_34296">
<rect width="56" height="56" fill="white" transform="translate(0.75)"/>
</clipPath>
</defs>
</svg>
