<svg width="56" height="56" viewBox="0 0 56 56" fill="none" xmlns="http://www.w3.org/2000/svg">
<rect x="4" y="4" width="48" height="48" rx="24" fill="#E0F2FE"/>
<rect x="4" y="4" width="48" height="48" rx="24" stroke="#EFF8FF" stroke-width="8"/>
<path d="M33 18.9998C33.2626 18.7372 33.5744 18.5288 33.9176 18.3867C34.2608 18.2445 34.6286 18.1714 35 18.1714C35.3714 18.1714 35.7392 18.2445 36.0824 18.3867C36.4256 18.5288 36.7374 18.7372 37 18.9998C37.2626 19.2625 37.471 19.5743 37.6131 19.9174C37.7553 20.2606 37.8284 20.6284 37.8284 20.9998C37.8284 21.3712 37.7553 21.739 37.6131 22.0822C37.471 22.4254 37.2626 22.7372 37 22.9998L23.5 36.4998L18 37.9998L19.5 32.4998L33 18.9998Z" stroke="#2E90FA" stroke-width="2" stroke-linecap="round" stroke-linejoin="round"/>
</svg>
