<svg width="68" height="60" viewBox="0 0 68 60" fill="none" xmlns="http://www.w3.org/2000/svg">
<g id="285658_blue_folder_icon 1" clip-path="url(#clip0_3205_35104)">
<g id="Group">
<path id="Vector" d="M33.9999 11.834C33.9999 14.9201 31.4889 17.4451 28.3888 17.4451H14.361H5.94436C2.84535 17.4451 0.333252 19.9701 0.333252 23.0562V45.5006V53.9173C0.333252 57.0034 2.84543 59.5284 5.94436 59.5284H62.0555C65.1556 59.5284 67.6666 57.0034 67.6666 53.9173V45.5006V17.4451C67.6666 14.359 65.1556 11.834 62.0555 11.834H33.9999Z" fill="#E57200"/>
<path id="Vector_2" d="M5.94436 0.611328C2.84535 0.611328 0.333252 3.12342 0.333252 6.22244V20.2502H28.3888V23.0558H67.6666V9.028C67.6666 5.92898 65.1556 3.41688 62.0555 3.41688H33.2116C32.2408 1.74225 30.4649 0.611328 28.3888 0.611328H5.94436Z" fill="#FFBF80"/>
<path id="Vector_3" d="M33.9999 9.02832C33.9999 12.1144 31.4889 14.6394 28.3888 14.6394H14.361H5.94436C2.84535 14.6394 0.333252 17.1644 0.333252 20.2505V42.695V51.1117C0.333252 54.1978 2.84543 56.7228 5.94436 56.7228H62.0555C65.1556 56.7228 67.6666 54.1978 67.6666 51.1117V42.695V14.6394C67.6666 11.5533 65.1556 9.02832 62.0555 9.02832H33.9999Z" fill="#FFA54D"/>
</g>
</g>
<defs>
<clipPath id="clip0_3205_35104">
<rect width="68" height="60" fill="white"/>
</clipPath>
</defs>
</svg>
