<svg width="56" height="56" viewBox="0 0 56 56" fill="none" xmlns="http://www.w3.org/2000/svg">
<g clip-path="url(#clip0_3241_34856)">
<path d="M14.1381 37.8221H20.8916C21.3439 37.8221 21.7104 37.4556 21.7104 37.0034C21.7104 36.5511 21.3439 36.1846 20.8916 36.1846H14.1381C13.6859 36.1846 13.3193 36.5511 13.3193 37.0034C13.3193 37.4556 13.6859 37.8221 14.1381 37.8221Z" fill="#3696FB"/>
<path d="M23.5717 39.4316H12.8281C12.3758 39.4316 12.0093 39.7982 12.0093 40.2504C12.0093 40.7027 12.3758 41.0692 12.8281 41.0692H23.5717C24.024 41.0692 24.3905 40.7027 24.3905 40.2504C24.3905 39.7982 24.024 39.4316 23.5717 39.4316Z" fill="#3696FB"/>
<path d="M53.541 30.0307H50.1236L52.3483 17.0705C52.3562 17.0248 52.3601 16.9784 52.3601 16.932C52.3601 15.4186 51.1289 14.1874 49.6155 14.1874H43.6562V12.5096C43.6562 10.9961 42.4249 9.76491 40.9115 9.76491H31.0297L29.6452 6.27213C29.3012 5.40479 28.4761 4.84424 27.5431 4.84424H5.76275C4.51598 4.84424 3.50153 5.85858 3.50153 7.10557V9.14125C3.50153 9.48513 3.22164 9.76502 2.87777 9.76502H2.74466C1.23123 9.76491 0 10.9961 0 12.5096V42.0514C0 44.2813 1.8142 46.0955 4.04403 46.0955H31.4738V48.6973C31.4738 50.0531 32.5768 51.1562 33.9327 51.1562H53.541C54.8968 51.1562 56 50.0532 56 48.6973V32.4895C56 31.1337 54.897 30.0307 53.541 30.0307ZM27.5431 6.48169C27.8005 6.48169 28.0282 6.63635 28.123 6.87566L29.2683 9.76502H19.8695C19.6121 9.76502 19.3845 9.61025 19.2897 9.37116L18.1444 6.48169H27.5431ZM54.3624 48.6972C54.3624 49.1502 53.994 49.5186 53.541 49.5186H33.9327C33.4797 49.5186 33.1113 49.1501 33.1113 48.6972V45.5766L37.5259 41.8096C37.8482 41.5342 38.3269 41.5434 38.6389 41.8303L45.0461 47.7245C45.2035 47.8693 45.4021 47.9407 45.6003 47.9407C45.8213 47.9407 46.0416 47.8518 46.2031 47.6764C46.5092 47.3435 46.4875 46.8256 46.1548 46.5194L44.7463 45.2236L48.7472 41.8096C49.0697 41.5342 49.5484 41.5434 49.8602 41.8303L54.3625 45.9721L54.3624 48.6972ZM54.3624 43.7471L50.9688 40.6252C50.048 39.778 48.6358 39.7518 47.6841 40.5639L43.5322 44.1068L39.7474 40.6251C38.8265 39.7778 37.4145 39.7517 36.4628 40.5638L33.1112 43.4238V39.7571C33.1112 39.3048 32.7447 38.9383 32.2924 38.9383C31.8402 38.9383 31.4736 39.3048 31.4736 39.7571V44.4577H7.23231C7.42361 44.1826 7.59281 43.8737 7.7385 43.5324C7.9088 43.134 8.03327 42.706 8.11923 42.2239L12.6312 16.8017C12.6958 16.2447 13.1685 15.8247 13.7307 15.8247H36.228C36.6802 15.8247 37.0467 15.4582 37.0467 15.0059C37.0467 14.5537 36.6802 14.1872 36.228 14.1872H13.7307C12.3372 14.1872 11.1651 15.2299 11.0047 16.6125L6.50716 41.9364C6.44328 42.2949 6.35337 42.6065 6.23263 42.8893C5.77555 43.9595 5.08025 44.4579 4.04425 44.4579H4.04392C2.71698 44.4579 1.63745 43.3784 1.63745 42.0514V12.5096C1.63745 11.8991 2.13412 11.4025 2.74455 11.4025H2.87766C4.12453 11.4025 5.13898 10.3881 5.13898 9.14114V7.10546C5.13898 6.76158 5.41877 6.48169 5.76264 6.48169H15.9591C16.2165 6.48169 16.4442 6.63635 16.5389 6.87566L17.7673 9.97458C18.1112 10.8419 18.9364 11.4025 19.8694 11.4025H40.9115C41.5219 11.4025 42.0186 11.8991 42.0186 12.5096V14.1874H40.0623C39.61 14.1874 39.2435 14.5539 39.2435 15.0062C39.2435 15.4584 39.61 15.8249 40.0623 15.8249H49.6155C50.2058 15.8249 50.6895 16.2892 50.721 16.8718L48.4622 30.0308H33.9327C32.5769 30.0308 31.4738 31.1338 31.4738 32.4896V35.9463C31.4738 36.3986 31.8403 36.7651 32.2925 36.7651C32.7448 36.7651 33.1113 36.3986 33.1113 35.9463V32.4896C33.1113 32.0367 33.4798 31.6682 33.9327 31.6682H53.541C53.9941 31.6682 54.3624 32.0367 54.3624 32.4896V43.7471Z" fill="#3696FB"/>
<path d="M49.5991 32.5991C47.9862 32.5991 46.6741 33.9113 46.6741 35.5241C46.6741 37.1371 47.9862 38.4493 49.5991 38.4493C51.2119 38.4493 52.5242 37.137 52.5242 35.5241C52.5242 33.9113 51.212 32.5991 49.5991 32.5991ZM49.5991 36.8118C48.8891 36.8118 48.3116 36.2342 48.3116 35.5241C48.3116 34.8143 48.8892 34.2367 49.5991 34.2367C50.3092 34.2367 50.8868 34.8143 50.8868 35.5241C50.8868 36.2342 50.3092 36.8118 49.5991 36.8118Z" fill="#3696FB"/>
</g>
<defs>
<clipPath id="clip0_3241_34856">
<rect width="56" height="56" fill="white"/>
</clipPath>
</defs>
</svg>
