<svg width="65" height="75" viewBox="0 0 65 75" fill="none" xmlns="http://www.w3.org/2000/svg">
<g clip-path="url(#clip0_11_47)">
<path d="M57.2856 72.5H17.2856C13.6958 72.5 10.7856 69.5899 10.7856 66V8C10.7856 4.41015 13.6958 1.5 17.2856 1.5H41.3349L63.7856 23.7503V66C63.7856 69.5899 60.8755 72.5 57.2856 72.5Z" fill="white" stroke="#C8D2E1" stroke-width="3"/>
<path d="M40.8569 1.85714V18.1429C40.8569 21.4566 43.5432 24.1429 46.8569 24.1429H63.1426" stroke="#C8D2E1" stroke-width="3" stroke-linecap="round"/>
</g>
<rect y="38" width="34" height="26" rx="4" fill="#1570EF"/>
<path d="M13.287 48.6172C13.2124 48.358 13.1077 48.1289 12.9727 47.93C12.8378 47.7276 12.6726 47.5572 12.4773 47.4187C12.2856 47.2766 12.0654 47.1683 11.8168 47.0938C11.5718 47.0192 11.3001 46.9819 11.0018 46.9819C10.4443 46.9819 9.95425 47.1204 9.53167 47.3974C9.11263 47.6744 8.78593 48.0774 8.55155 48.6065C8.31718 49.1321 8.19999 49.7749 8.19999 50.5348C8.19999 51.2947 8.3154 51.9411 8.54623 52.4737C8.77705 53.0064 9.10376 53.413 9.52634 53.6935C9.94893 53.9705 10.4479 54.109 11.0231 54.109C11.5452 54.109 11.9908 54.0167 12.3601 53.832C12.733 53.6438 13.0171 53.3793 13.2124 53.0384C13.4113 52.6974 13.5107 52.2944 13.5107 51.8292L13.9795 51.8984H11.167V50.1619H15.732V51.5362C15.732 52.495 15.5295 53.3189 15.1247 54.0078C14.7199 54.6932 14.1623 55.2223 13.4521 55.5952C12.7419 55.9645 11.9287 56.1491 11.0125 56.1491C9.98976 56.1491 9.09133 55.9237 8.31718 55.4727C7.54303 55.0181 6.93934 54.3736 6.5061 53.5391C6.07641 52.701 5.86157 51.7067 5.86157 50.5561C5.86157 49.6719 5.98941 48.8835 6.24509 48.1911C6.50432 47.495 6.86654 46.9055 7.33174 46.4226C7.79694 45.9396 8.33849 45.5721 8.95638 45.32C9.57428 45.0678 10.2437 44.9418 10.9646 44.9418C11.5824 44.9418 12.1577 45.0323 12.6904 45.2134C13.2231 45.391 13.6954 45.6431 14.1073 45.9698C14.5228 46.2965 14.8619 46.6854 15.1247 47.1364C15.3875 47.5838 15.5562 48.0774 15.6307 48.6172H13.287ZM19.4709 45.0909V56H17.1645V45.0909H19.4709ZM21.0686 56V45.0909H28.2916V46.9925H23.375V49.592H27.8122V51.4936H23.375V56H21.0686Z" fill="white"/>
<defs>
<clipPath id="clip0_11_47">
<rect width="55.7143" height="74.2857" fill="white" transform="translate(9.28564)"/>
</clipPath>
</defs>
</svg>
