<svg width="65" height="75" viewBox="0 0 65 75" fill="none" xmlns="http://www.w3.org/2000/svg">
<g clip-path="url(#clip0_11_53)">
<path d="M57.2856 72.5H17.2856C13.6958 72.5 10.7856 69.5899 10.7856 66V8C10.7856 4.41015 13.6958 1.5 17.2856 1.5H41.3349L63.7856 23.7503V66C63.7856 69.5899 60.8755 72.5 57.2856 72.5Z" fill="white" stroke="#C8D2E1" stroke-width="3"/>
<path d="M40.8572 1.85714V18.1429C40.8572 21.4566 43.5435 24.1429 46.8572 24.1429H63.1429" stroke="#C8D2E1" stroke-width="3" stroke-linecap="round"/>
</g>
<rect y="38" width="42" height="26" rx="4" fill="#1570EF"/>
<path d="M15.709 48.9102H13.3759C13.3332 48.6083 13.2462 48.3402 13.1149 48.1058C12.9835 47.8679 12.8148 47.6655 12.6088 47.4986C12.4029 47.3317 12.1649 47.2038 11.895 47.1151C11.6287 47.0263 11.3393 46.9819 11.0268 46.9819C10.4622 46.9819 9.97032 47.1222 9.55129 47.4027C9.13225 47.6797 8.80732 48.0845 8.5765 48.6172C8.34568 49.1463 8.23026 49.7891 8.23026 50.5455C8.23026 51.3232 8.34568 51.9766 8.5765 52.5057C8.81088 53.0348 9.13758 53.4343 9.55661 53.7042C9.97565 53.9741 10.4604 54.109 11.0108 54.109C11.3198 54.109 11.6056 54.0682 11.8684 53.9865C12.1347 53.9048 12.3709 53.7859 12.5769 53.6296C12.7828 53.4698 12.9533 53.2763 13.0882 53.049C13.2267 52.8217 13.3226 52.5625 13.3759 52.2713L15.709 52.282C15.6486 52.7827 15.4977 53.2656 15.2562 53.7308C15.0183 54.1925 14.6969 54.6062 14.2921 54.9719C13.8908 55.3342 13.4114 55.6218 12.8538 55.8349C12.2999 56.0444 11.6731 56.1491 10.9735 56.1491C10.0005 56.1491 9.13048 55.929 8.36343 55.4886C7.59994 55.0483 6.99624 54.4109 6.55235 53.5763C6.11201 52.7418 5.89184 51.7315 5.89184 50.5455C5.89184 49.3558 6.11556 48.3438 6.56301 47.5092C7.01045 46.6747 7.61769 46.0391 8.38474 45.6023C9.15178 45.1619 10.0147 44.9418 10.9735 44.9418C11.6056 44.9418 12.1916 45.0305 12.7313 45.2081C13.2747 45.3857 13.7558 45.6449 14.1749 45.9858C14.5939 46.3232 14.9348 46.7369 15.1976 47.2269C15.4639 47.717 15.6344 48.2781 15.709 48.9102ZM22.9809 48.2283C22.9383 47.7987 22.7554 47.4648 22.4322 47.2269C22.1091 46.989 21.6705 46.87 21.1165 46.87C20.7401 46.87 20.4223 46.9233 20.163 47.0298C19.9038 47.1328 19.7049 47.2766 19.5665 47.4613C19.4315 47.646 19.364 47.8555 19.364 48.0898C19.3569 48.2852 19.3978 48.4556 19.4866 48.6012C19.5789 48.7468 19.7049 48.8729 19.8647 48.9794C20.0245 49.0824 20.2092 49.1729 20.4187 49.2511C20.6282 49.3256 20.852 49.3896 21.0899 49.4428L22.07 49.6772C22.5459 49.7837 22.9826 49.9258 23.3804 50.1033C23.7781 50.2809 24.1226 50.4993 24.4138 50.7585C24.7049 51.0178 24.9304 51.3232 25.0902 51.6747C25.2536 52.0263 25.337 52.4293 25.3406 52.8839C25.337 53.5515 25.1666 54.1303 24.8292 54.6204C24.4954 55.1069 24.0125 55.4851 23.3804 55.755C22.7518 56.0213 21.9937 56.1545 21.1059 56.1545C20.2252 56.1545 19.4581 56.0195 18.8047 55.7496C18.1549 55.4798 17.6471 55.0803 17.2813 54.5511C16.9191 54.0185 16.7291 53.3597 16.7113 52.5749H18.9432C18.9681 52.9407 19.0728 53.2461 19.2575 53.4911C19.4457 53.7326 19.6961 53.9155 20.0086 54.0398C20.3246 54.1605 20.6815 54.2209 21.0792 54.2209C21.4699 54.2209 21.809 54.1641 22.0966 54.0504C22.3878 53.9368 22.6133 53.7788 22.7731 53.5763C22.9329 53.3739 23.0128 53.1413 23.0128 52.8786C23.0128 52.6335 22.94 52.4276 22.7944 52.2607C22.6524 52.0937 22.4429 51.9517 22.1659 51.8345C21.8924 51.7173 21.5569 51.6108 21.1591 51.5149L19.9713 51.2166C19.0515 50.9929 18.3253 50.6431 17.7927 50.1673C17.26 49.6914 16.9954 49.0504 16.999 48.2443C16.9954 47.5838 17.1712 47.0067 17.5263 46.5131C17.885 46.0195 18.3768 45.6342 19.0018 45.3572C19.6268 45.0803 20.337 44.9418 21.1325 44.9418C21.9422 44.9418 22.6488 45.0803 23.2525 45.3572C23.8598 45.6342 24.3321 46.0195 24.6694 46.5131C25.0068 47.0067 25.1808 47.5785 25.1915 48.2283H22.9809ZM28.5629 45.0909L31.1996 53.3793H31.3008L33.9429 45.0909H36.4997L32.739 56H29.7667L26.0007 45.0909H28.5629Z" fill="white"/>
<defs>
<clipPath id="clip0_11_53">
<rect width="55.7143" height="74.2857" fill="white" transform="translate(9.28564)"/>
</clipPath>
</defs>
</svg>
