<svg width="65" height="75" viewBox="0 0 65 75" fill="none" xmlns="http://www.w3.org/2000/svg">
<g clip-path="url(#clip0_11_65)">
<path d="M57.2856 72.5H17.2856C13.6958 72.5 10.7856 69.5899 10.7856 66V8C10.7856 4.41015 13.6958 1.5 17.2856 1.5H41.3349L63.7856 23.7503V66C63.7856 69.5899 60.8755 72.5 57.2856 72.5Z" fill="white" stroke="#C8D2E1" stroke-width="3"/>
<path d="M40.8569 1.85714V18.1429C40.8569 21.4566 43.5432 24.1429 46.8569 24.1429H63.1426" stroke="#C8D2E1" stroke-width="3" stroke-linecap="round"/>
</g>
<rect y="38" width="39" height="26" rx="4" fill="#1570EF"/>
<path d="M8.37955 45.0909L10.5795 48.8089H10.6647L12.8753 45.0909H15.48L12.1509 50.5455L15.5546 56H12.9019L10.6647 52.2766H10.5795L8.34226 56H5.70021L9.11463 50.5455L5.76413 45.0909H8.37955ZM16.6396 56V45.0909H18.946V54.0984H23.6229V56H16.6396ZM30.7683 48.2283C30.7257 47.7987 30.5428 47.4648 30.2196 47.2269C29.8965 46.989 29.4579 46.87 28.9039 46.87C28.5275 46.87 28.2097 46.9233 27.9504 47.0298C27.6912 47.1328 27.4923 47.2766 27.3539 47.4613C27.2189 47.646 27.1514 47.8555 27.1514 48.0898C27.1443 48.2852 27.1852 48.4556 27.274 48.6012C27.3663 48.7468 27.4923 48.8729 27.6521 48.9794C27.812 49.0824 27.9966 49.1729 28.2061 49.2511C28.4156 49.3256 28.6394 49.3896 28.8773 49.4428L29.8574 49.6772C30.3333 49.7837 30.77 49.9258 31.1678 50.1033C31.5655 50.2809 31.91 50.4993 32.2012 50.7585C32.4923 51.0178 32.7178 51.3232 32.8776 51.6747C33.041 52.0263 33.1245 52.4293 33.128 52.8839C33.1245 53.5515 32.954 54.1303 32.6166 54.6204C32.2828 55.1069 31.7999 55.4851 31.1678 55.755C30.5392 56.0213 29.7811 56.1545 28.8933 56.1545C28.0126 56.1545 27.2455 56.0195 26.5921 55.7496C25.9423 55.4798 25.4345 55.0803 25.0687 54.5511C24.7065 54.0185 24.5165 53.3597 24.4987 52.5749H26.7306C26.7555 52.9407 26.8602 53.2461 27.0449 53.4911C27.2331 53.7326 27.4835 53.9155 27.796 54.0398C28.112 54.1605 28.4689 54.2209 28.8666 54.2209C29.2573 54.2209 29.5964 54.1641 29.884 54.0504C30.1752 53.9368 30.4007 53.7788 30.5605 53.5763C30.7203 53.3739 30.8002 53.1413 30.8002 52.8786C30.8002 52.6335 30.7274 52.4276 30.5818 52.2607C30.4398 52.0937 30.2303 51.9517 29.9533 51.8345C29.6798 51.7173 29.3443 51.6108 28.9465 51.5149L27.7587 51.2166C26.8389 50.9929 26.1127 50.6431 25.5801 50.1673C25.0474 49.6914 24.7828 49.0504 24.7864 48.2443C24.7828 47.5838 24.9586 47.0067 25.3137 46.5131C25.6724 46.0195 26.1642 45.6342 26.7892 45.3572C27.4142 45.0803 28.1245 44.9418 28.9199 44.9418C29.7296 44.9418 30.4362 45.0803 31.0399 45.3572C31.6472 45.6342 32.1195 46.0195 32.4568 46.5131C32.7942 47.0067 32.9682 47.5785 32.9789 48.2283H30.7683Z" fill="white"/>
<defs>
<clipPath id="clip0_11_65">
<rect width="55.7143" height="74.2857" fill="white" transform="translate(9.28564)"/>
</clipPath>
</defs>
</svg>
