<svg width="65" height="75" viewBox="0 0 65 75" fill="none" xmlns="http://www.w3.org/2000/svg">
<g clip-path="url(#clip0_11_89)">
<path d="M57.2856 72.5H17.2856C13.6958 72.5 10.7856 69.5899 10.7856 66V8C10.7856 4.41015 13.6958 1.5 17.2856 1.5H41.3349L63.7856 23.7503V66C63.7856 69.5899 60.8755 72.5 57.2856 72.5Z" fill="white" stroke="#C8D2E1" stroke-width="3"/>
<path d="M40.8572 1.85715V18.1429C40.8572 21.4566 43.5435 24.1429 46.8572 24.1429H63.1429" stroke="#C8D2E1" stroke-width="3" stroke-linecap="round"/>
</g>
<rect y="38" width="53" height="26" rx="4" fill="#1570EF"/>
<path d="M6.17452 56V45.0909H8.48098V49.592H13.1632V45.0909H15.4643V56H13.1632V51.4936H8.48098V56H6.17452ZM16.6504 46.9925V45.0909H25.61V46.9925H22.2701V56H19.9903V46.9925H16.6504ZM26.7855 45.0909H29.6299L32.6342 52.4205H32.762L35.7663 45.0909H38.6107V56H36.3735V48.8995H36.283L33.4598 55.9467H31.9364L29.1132 48.8729H29.0227V56H26.7855V45.0909ZM40.211 56V45.0909H42.5175V54.0984H47.1944V56H40.211Z" fill="white"/>
<defs>
<clipPath id="clip0_11_89">
<rect width="55.7143" height="74.2857" fill="white" transform="translate(9.28564)"/>
</clipPath>
</defs>
</svg>
