<svg width="65" height="75" viewBox="0 0 65 75" fill="none" xmlns="http://www.w3.org/2000/svg">
<g clip-path="url(#clip0_11_59)">
<path d="M57.2856 72.5H17.2856C13.6958 72.5 10.7856 69.5899 10.7856 66V8C10.7856 4.41015 13.6958 1.5 17.2856 1.5H41.3349L63.7856 23.7503V66C63.7856 69.5899 60.8755 72.5 57.2856 72.5Z" fill="white" stroke="#C8D2E1" stroke-width="3"/>
<path d="M40.8572 1.85714V18.1429C40.8572 21.4566 43.5435 24.1429 46.8572 24.1429H63.1429" stroke="#C8D2E1" stroke-width="3" stroke-linecap="round"/>
</g>
<rect y="38" width="44" height="26" rx="4" fill="#1570EF"/>
<path d="M10.1524 56H6.28526V45.0909H10.1844C11.2817 45.0909 12.2263 45.3093 13.0182 45.7461C13.8101 46.1793 14.4191 46.8026 14.8453 47.6158C15.275 48.429 15.4898 49.402 15.4898 50.5348C15.4898 51.6712 15.275 52.6477 14.8453 53.4645C14.4191 54.2812 13.8066 54.908 13.0076 55.3448C12.2121 55.7816 11.2604 56 10.1524 56ZM8.59173 54.0238H10.0566C10.7384 54.0238 11.3119 53.9031 11.7771 53.6616C12.2458 53.4165 12.5974 53.0384 12.8318 52.527C13.0697 52.0121 13.1887 51.348 13.1887 50.5348C13.1887 49.7287 13.0697 49.07 12.8318 48.5586C12.5974 48.0472 12.2476 47.6708 11.7824 47.4293C11.3172 47.1879 10.7437 47.0671 10.0619 47.0671H8.59173V54.0238ZM26.9232 50.5455C26.9232 51.7351 26.6977 52.7472 26.2467 53.5817C25.7993 54.4162 25.1885 55.0536 24.4143 55.494C23.6437 55.9308 22.7773 56.1491 21.8149 56.1491C20.8454 56.1491 19.9754 55.929 19.2048 55.4886C18.4342 55.0483 17.8252 54.4109 17.3778 53.5763C16.9303 52.7418 16.7066 51.7315 16.7066 50.5455C16.7066 49.3558 16.9303 48.3438 17.3778 47.5092C17.8252 46.6747 18.4342 46.0391 19.2048 45.6023C19.9754 45.1619 20.8454 44.9418 21.8149 44.9418C22.7773 44.9418 23.6437 45.1619 24.4143 45.6023C25.1885 46.0391 25.7993 46.6747 26.2467 47.5092C26.6977 48.3438 26.9232 49.3558 26.9232 50.5455ZM24.5848 50.5455C24.5848 49.7749 24.4694 49.125 24.2385 48.5959C24.0113 48.0668 23.6899 47.6655 23.2744 47.392C22.8589 47.1186 22.3724 46.9819 21.8149 46.9819C21.2574 46.9819 20.7709 47.1186 20.3554 47.392C19.9399 47.6655 19.6167 48.0668 19.3859 48.5959C19.1586 49.125 19.045 49.7749 19.045 50.5455C19.045 51.3161 19.1586 51.9659 19.3859 52.495C19.6167 53.0241 19.9399 53.4254 20.3554 53.6989C20.7709 53.9723 21.2574 54.109 21.8149 54.109C22.3724 54.109 22.8589 53.9723 23.2744 53.6989C23.6899 53.4254 24.0113 53.0241 24.2385 52.495C24.4694 51.9659 24.5848 51.3161 24.5848 50.5455ZM37.9571 48.9102H35.624C35.5814 48.6083 35.4944 48.3402 35.363 48.1058C35.2316 47.8679 35.0629 47.6655 34.857 47.4986C34.651 47.3317 34.4131 47.2038 34.1432 47.1151C33.8768 47.0263 33.5874 46.9819 33.2749 46.9819C32.7103 46.9819 32.2185 47.1222 31.7994 47.4027C31.3804 47.6797 31.0555 48.0845 30.8246 48.6172C30.5938 49.1463 30.4784 49.7891 30.4784 50.5455C30.4784 51.3232 30.5938 51.9766 30.8246 52.5057C31.059 53.0348 31.3857 53.4343 31.8048 53.7042C32.2238 53.9741 32.7085 54.109 33.2589 54.109C33.5679 54.109 33.8538 54.0682 34.1165 53.9865C34.3829 53.9048 34.619 53.7859 34.825 53.6296C35.031 53.4698 35.2014 53.2763 35.3364 53.049C35.4749 52.8217 35.5707 52.5625 35.624 52.2713L37.9571 52.282C37.8967 52.7827 37.7458 53.2656 37.5043 53.7308C37.2664 54.1925 36.945 54.6062 36.5402 54.9719C36.1389 55.3342 35.6595 55.6218 35.102 55.8349C34.548 56.0444 33.9212 56.1491 33.2217 56.1491C32.2486 56.1491 31.3786 55.929 30.6116 55.4886C29.8481 55.0483 29.2444 54.4109 28.8005 53.5763C28.3602 52.7418 28.14 51.7315 28.14 50.5455C28.14 49.3558 28.3637 48.3438 28.8111 47.5092C29.2586 46.6747 29.8658 46.0391 30.6329 45.6023C31.3999 45.1619 32.2629 44.9418 33.2217 44.9418C33.8538 44.9418 34.4397 45.0305 34.9795 45.2081C35.5228 45.3857 36.004 45.6449 36.423 45.9858C36.842 46.3232 37.183 46.7369 37.4457 47.2269C37.7121 47.717 37.8825 48.2781 37.9571 48.9102Z" fill="white"/>
<defs>
<clipPath id="clip0_11_59">
<rect width="55.7143" height="74.2857" fill="white" transform="translate(9.28564)"/>
</clipPath>
</defs>
</svg>
