<svg width="65" height="75" viewBox="0 0 65 75" fill="none" xmlns="http://www.w3.org/2000/svg">
<g clip-path="url(#clip0_11_101)">
<path d="M57.2856 72.5H17.2856C13.6958 72.5 10.7856 69.5899 10.7856 66V8C10.7856 4.41015 13.6958 1.5 17.2856 1.5H41.3349L63.7856 23.7503V66C63.7856 69.5899 60.8755 72.5 57.2856 72.5Z" fill="white" stroke="#C8D2E1" stroke-width="3"/>
<path d="M40.8569 1.85715V18.1429C40.8569 21.4566 43.5432 24.1429 46.8569 24.1429H63.1426" stroke="#C8D2E1" stroke-width="3" stroke-linecap="round"/>
</g>
<rect y="38" width="35" height="26" rx="4" fill="#1570EF"/>
<path d="M7.98688 56H5.51529L9.28127 45.0909H12.2536L16.0142 56H13.5426L10.81 47.5838H10.7248L7.98688 56ZM7.8324 51.712H13.6705V53.5124H7.8324V51.712ZM17.6358 45.0909L20.2725 53.3793H20.3738L23.0158 45.0909H25.5726L21.812 56H18.8397L15.0737 45.0909H17.6358ZM28.8921 45.0909V56H26.5857V45.0909H28.8921Z" fill="white"/>
<defs>
<clipPath id="clip0_11_101">
<rect width="55.7143" height="74.2857" fill="white" transform="translate(9.28564)"/>
</clipPath>
</defs>
</svg>
