<svg width="65" height="75" viewBox="0 0 65 75" fill="none" xmlns="http://www.w3.org/2000/svg">
<g clip-path="url(#clip0_11_95)">
<path d="M57.2856 72.5H17.2856C13.6958 72.5 10.7856 69.5899 10.7856 66V8C10.7856 4.41015 13.6958 1.5 17.2856 1.5H41.3349L63.7856 23.7503V66C63.7856 69.5899 60.8755 72.5 57.2856 72.5Z" fill="white" stroke="#C8D2E1" stroke-width="3"/>
<path d="M40.8572 1.85715V18.1429C40.8572 21.4566 43.5435 24.1429 46.8572 24.1429H63.1429" stroke="#C8D2E1" stroke-width="3" stroke-linecap="round"/>
</g>
<rect y="38" width="42" height="26" rx="4" fill="#1570EF"/>
<path d="M12.2433 48.2283C12.2007 47.7987 12.0178 47.4648 11.6946 47.2269C11.3715 46.989 10.9329 46.87 10.3789 46.87C10.0025 46.87 9.68468 46.9233 9.42544 47.0298C9.16621 47.1328 8.96735 47.2766 8.82885 47.4613C8.69391 47.646 8.62644 47.8555 8.62644 48.0898C8.61934 48.2852 8.66017 48.4556 8.74895 48.6012C8.84128 48.7468 8.96735 48.8729 9.12715 48.9794C9.28695 49.0824 9.47161 49.1729 9.68113 49.2511C9.89064 49.3256 10.1144 49.3896 10.3523 49.4428L11.3324 49.6772C11.8083 49.7837 12.245 49.9258 12.6428 50.1033C13.0405 50.2809 13.385 50.4993 13.6762 50.7585C13.9673 51.0178 14.1928 51.3232 14.3526 51.6747C14.516 52.0263 14.5995 52.4293 14.603 52.8839C14.5995 53.5515 14.429 54.1303 14.0916 54.6204C13.7578 55.1069 13.2749 55.4851 12.6428 55.755C12.0142 56.0213 11.2561 56.1545 10.3683 56.1545C9.48759 56.1545 8.72054 56.0195 8.06713 55.7496C7.41728 55.4798 6.90946 55.0803 6.5437 54.5511C6.18148 54.0185 5.9915 53.3597 5.97374 52.5749H8.20563C8.23049 52.9407 8.33525 53.2461 8.5199 53.4911C8.70811 53.7326 8.95847 53.9155 9.27097 54.0398C9.58702 54.1605 9.94391 54.2209 10.3416 54.2209C10.7323 54.2209 11.0714 54.1641 11.359 54.0504C11.6502 53.9368 11.8757 53.7788 12.0355 53.5763C12.1953 53.3739 12.2752 53.1413 12.2752 52.8786C12.2752 52.6335 12.2024 52.4276 12.0568 52.2607C11.9148 52.0937 11.7053 51.9517 11.4283 51.8345C11.1548 51.7173 10.8193 51.6108 10.4215 51.5149L9.23368 51.2166C8.31394 50.9929 7.58773 50.6431 7.05506 50.1673C6.52239 49.6914 6.25783 49.0504 6.26138 48.2443C6.25783 47.5838 6.43361 47.0067 6.78873 46.5131C7.14739 46.0195 7.63922 45.6342 8.26422 45.3572C8.88922 45.0803 9.59945 44.9418 10.3949 44.9418C11.2046 44.9418 11.9112 45.0803 12.5149 45.3572C13.1222 45.6342 13.5945 46.0195 13.9318 46.5131C14.2692 47.0067 14.4432 47.5785 14.4539 48.2283H12.2433ZM17.8253 45.0909L20.462 53.3793H20.5632L23.2053 45.0909H25.7621L22.0014 56H19.0291L15.2631 45.0909H17.8253ZM33.3935 48.6172C33.319 48.358 33.2142 48.1289 33.0793 47.93C32.9443 47.7276 32.7792 47.5572 32.5839 47.4187C32.3921 47.2766 32.1719 47.1683 31.9234 47.0938C31.6783 47.0192 31.4067 46.9819 31.1084 46.9819C30.5509 46.9819 30.0608 47.1204 29.6382 47.3974C29.2192 47.6744 28.8925 48.0774 28.6581 48.6065C28.4237 49.1321 28.3065 49.7749 28.3065 50.5348C28.3065 51.2947 28.4219 51.9411 28.6528 52.4737C28.8836 53.0064 29.2103 53.413 29.6329 53.6935C30.0555 53.9705 30.5544 54.109 31.1297 54.109C31.6517 54.109 32.0974 54.0167 32.4667 53.832C32.8396 53.6438 33.1237 53.3793 33.319 53.0384C33.5178 52.6974 33.6173 52.2944 33.6173 51.8292L34.086 51.8984H31.2735V50.1619H35.8385V51.5362C35.8385 52.495 35.6361 53.3189 35.2313 54.0078C34.8264 54.6932 34.2689 55.2223 33.5587 55.5952C32.8484 55.9645 32.0352 56.1491 31.119 56.1491C30.0963 56.1491 29.1979 55.9237 28.4237 55.4727C27.6496 55.0181 27.0459 54.3736 26.6126 53.5391C26.183 52.701 25.9681 51.7067 25.9681 50.5561C25.9681 49.6719 26.096 48.8835 26.3516 48.1911C26.6109 47.495 26.9731 46.9055 27.4383 46.4226C27.9035 45.9396 28.445 45.5721 29.0629 45.32C29.6808 45.0678 30.3502 44.9418 31.0711 44.9418C31.689 44.9418 32.2643 45.0323 32.7969 45.2134C33.3296 45.391 33.8019 45.6431 34.2139 45.9698C34.6293 46.2965 34.9685 46.6854 35.2313 47.1364C35.494 47.5838 35.6627 48.0774 35.7373 48.6172H33.3935Z" fill="white"/>
<defs>
<clipPath id="clip0_11_95">
<rect width="55.7143" height="74.2857" fill="white" transform="translate(9.28564)"/>
</clipPath>
</defs>
</svg>
