<svg width="65" height="75" viewBox="0 0 65 75" fill="none" xmlns="http://www.w3.org/2000/svg">
<g clip-path="url(#clip0_11_23)">
<path d="M57.2856 72.5H17.2856C13.6958 72.5 10.7856 69.5899 10.7856 66V8C10.7856 4.41015 13.6958 1.5 17.2856 1.5H41.3349L63.7856 23.7503V66C63.7856 69.5899 60.8755 72.5 57.2856 72.5Z" fill="white" stroke="#C8D2E1" stroke-width="3"/>
<path d="M40.8572 1.85715V18.1429C40.8572 21.4566 43.5435 24.1429 46.8572 24.1429H63.1429" stroke="#C8D2E1" stroke-width="3" stroke-linecap="round"/>
</g>
<rect y="38" width="42" height="26" rx="4" fill="#1570EF"/>
<path d="M6.17149 56V45.0909H10.4755C11.3029 45.0909 12.0078 45.2489 12.5902 45.565C13.1726 45.8775 13.6165 46.3125 13.9218 46.87C14.2308 47.424 14.3853 48.0632 14.3853 48.7876C14.3853 49.5121 14.229 50.1513 13.9165 50.7053C13.604 51.2592 13.1513 51.6907 12.5582 51.9996C11.9687 52.3086 11.2549 52.4631 10.4169 52.4631H7.67362V50.6147H10.044C10.4879 50.6147 10.8537 50.5384 11.1413 50.3857C11.4325 50.2294 11.6491 50.0146 11.7912 49.7411C11.9368 49.4641 12.0096 49.1463 12.0096 48.7876C12.0096 48.4254 11.9368 48.1094 11.7912 47.8395C11.6491 47.5661 11.4325 47.3548 11.1413 47.2056C10.8501 47.0529 10.4808 46.9766 10.0334 46.9766H8.47796V56H6.17149ZM24.7081 45.0909V56H22.7159L17.9698 49.1339H17.8899V56H15.5834V45.0909H17.6076L22.3164 51.9517H22.4122V45.0909H24.7081ZM33.5473 48.6172C33.4728 48.358 33.368 48.1289 33.2331 47.93C33.0981 47.7276 32.933 47.5572 32.7377 47.4187C32.5459 47.2766 32.3258 47.1683 32.0772 47.0938C31.8321 47.0192 31.5605 46.9819 31.2622 46.9819C30.7047 46.9819 30.2146 47.1204 29.792 47.3974C29.373 47.6744 29.0463 48.0774 28.8119 48.6065C28.5775 49.1321 28.4603 49.7749 28.4603 50.5348C28.4603 51.2947 28.5758 51.9411 28.8066 52.4737C29.0374 53.0064 29.3641 53.413 29.7867 53.6935C30.2093 53.9705 30.7082 54.109 31.2835 54.109C31.8055 54.109 32.2512 54.0167 32.6205 53.832C32.9934 53.6438 33.2775 53.3793 33.4728 53.0384C33.6716 52.6974 33.7711 52.2944 33.7711 51.8292L34.2398 51.8984H31.4273V50.1619H35.9923V51.5362C35.9923 52.495 35.7899 53.3189 35.3851 54.0078C34.9802 54.6932 34.4227 55.2223 33.7125 55.5952C33.0022 55.9645 32.189 56.1491 31.2728 56.1491C30.2501 56.1491 29.3517 55.9237 28.5775 55.4727C27.8034 55.0181 27.1997 54.3736 26.7665 53.5391C26.3368 52.701 26.1219 51.7067 26.1219 50.5561C26.1219 49.6719 26.2498 48.8835 26.5054 48.1911C26.7647 47.495 27.1269 46.9055 27.5921 46.4226C28.0573 45.9396 28.5988 45.5721 29.2167 45.32C29.8346 45.0678 30.504 44.9418 31.2249 44.9418C31.8428 44.9418 32.4181 45.0323 32.9508 45.2134C33.4834 45.391 33.9557 45.6431 34.3677 45.9698C34.7831 46.2965 35.1223 46.6854 35.3851 47.1364C35.6478 47.5838 35.8165 48.0774 35.8911 48.6172H33.5473Z" fill="white"/>
<defs>
<clipPath id="clip0_11_23">
<rect width="55.7143" height="74.2857" fill="white" transform="translate(9.28564)"/>
</clipPath>
</defs>
</svg>
