<svg width="65" height="75" viewBox="0 0 65 75" fill="none" xmlns="http://www.w3.org/2000/svg">
<g clip-path="url(#clip0_11_71)">
<path d="M57.2856 72.5H17.2856C13.6958 72.5 10.7856 69.5899 10.7856 66V8C10.7856 4.41015 13.6958 1.5 17.2856 1.5H41.3349L63.7856 23.7503V66C63.7856 69.5899 60.8755 72.5 57.2856 72.5Z" fill="white" stroke="#C8D2E1" stroke-width="3"/>
<path d="M40.8572 1.85715V18.1429C40.8572 21.4566 43.5435 24.1429 46.8572 24.1429H63.1429" stroke="#C8D2E1" stroke-width="3" stroke-linecap="round"/>
</g>
<rect y="38" width="43" height="26" rx="4" fill="#1570EF"/>
<path d="M6.08555 45.0909H8.93002L11.9343 52.4205H12.0621L15.0664 45.0909H17.9108V56H15.6736V48.8995H15.5831L12.7599 55.9467H11.2365L8.41332 48.8729H8.32277V56H6.08555V45.0909ZM19.5111 56V45.0909H23.8151C24.6425 45.0909 25.3474 45.2489 25.9298 45.565C26.5122 45.8775 26.9561 46.3125 27.2615 46.87C27.5704 47.424 27.7249 48.0632 27.7249 48.7876C27.7249 49.5121 27.5687 50.1513 27.2562 50.7053C26.9437 51.2592 26.4909 51.6907 25.8979 51.9996C25.3084 52.3086 24.5946 52.4631 23.7565 52.4631H21.0133V50.6147H23.3837C23.8275 50.6147 24.1933 50.5384 24.481 50.3857C24.7721 50.2294 24.9888 50.0146 25.1308 49.7411C25.2764 49.4641 25.3492 49.1463 25.3492 48.7876C25.3492 48.4254 25.2764 48.1094 25.1308 47.8395C24.9888 47.5661 24.7721 47.3548 24.481 47.2056C24.1898 47.0529 23.8204 46.9766 23.373 46.9766H21.8176V56H19.5111ZM32.8914 56.1491C32.096 56.1491 31.3875 56.0124 30.7661 55.739C30.1482 55.462 29.6599 55.082 29.3013 54.5991C28.9461 54.1126 28.7633 53.5515 28.7526 52.9158H31.075C31.0892 53.1822 31.1763 53.4165 31.3361 53.619C31.4994 53.8178 31.716 53.9723 31.9859 54.0824C32.2558 54.1925 32.5594 54.2475 32.8968 54.2475C33.2483 54.2475 33.5591 54.1854 33.8289 54.0611C34.0988 53.9368 34.3101 53.7646 34.4628 53.5444C34.6155 53.3242 34.6919 53.0703 34.6919 52.7827C34.6919 52.4915 34.6102 52.234 34.4468 52.0103C34.287 51.783 34.0562 51.6055 33.7544 51.4776C33.4561 51.3498 33.101 51.2859 32.689 51.2859H31.6716V49.592H32.689C33.037 49.592 33.3442 49.5316 33.6106 49.4109C33.8804 49.2901 34.09 49.1232 34.2391 48.9102C34.3883 48.6935 34.4628 48.4414 34.4628 48.1538C34.4628 47.8803 34.3971 47.6406 34.2657 47.4347C34.1379 47.2251 33.9568 47.0618 33.7224 46.9446C33.4916 46.8274 33.2217 46.7688 32.9128 46.7688C32.6003 46.7688 32.3144 46.8256 32.0552 46.9393C31.7959 47.0494 31.5882 47.2074 31.4319 47.4134C31.2757 47.6193 31.1922 47.8608 31.1816 48.1378H28.971C28.9816 47.5092 29.161 46.9553 29.509 46.4759C29.857 45.9964 30.3258 45.6218 30.9152 45.3519C31.5083 45.0785 32.1777 44.9418 32.9234 44.9418C33.6763 44.9418 34.335 45.0785 34.8996 45.3519C35.4642 45.6254 35.9028 45.9947 36.2153 46.4599C36.5314 46.9215 36.6876 47.44 36.6841 48.0153C36.6876 48.6261 36.4976 49.1357 36.1141 49.544C35.7341 49.9524 35.2388 50.2116 34.628 50.3217V50.407C35.4305 50.5099 36.0413 50.7887 36.4603 51.2433C36.8829 51.6942 37.0924 52.2589 37.0889 52.9371C37.0924 53.5586 36.9131 54.1108 36.5509 54.5938C36.1922 55.0767 35.6968 55.4567 35.0647 55.7337C34.4326 56.0107 33.7082 56.1491 32.8914 56.1491Z" fill="white"/>
<defs>
<clipPath id="clip0_11_71">
<rect width="55.7143" height="74.2857" fill="white" transform="translate(9.28564)"/>
</clipPath>
</defs>
</svg>
