<svg width="65" height="75" viewBox="0 0 65 75" fill="none" xmlns="http://www.w3.org/2000/svg">
<g clip-path="url(#clip0_11_29)">
<path d="M57.2856 72.5H17.2856C13.6958 72.5 10.7856 69.5899 10.7856 66V8C10.7856 4.41015 13.6958 1.5 17.2856 1.5H41.3349L63.7856 23.7503V66C63.7856 69.5899 60.8755 72.5 57.2856 72.5Z" fill="white" stroke="#C8D2E1" stroke-width="3"/>
<path d="M40.8569 1.85715V18.1429C40.8569 21.4566 43.5432 24.1429 46.8569 24.1429H63.1426" stroke="#C8D2E1" stroke-width="3" stroke-linecap="round"/>
</g>
<rect y="38" width="39" height="26" rx="4" fill="#1570EF"/>
<path d="M6.04845 56V45.0909H10.3524C11.1798 45.0909 11.8847 45.2489 12.4671 45.565C13.0495 45.8775 13.4934 46.3125 13.7988 46.87C14.1078 47.424 14.2622 48.0632 14.2622 48.7876C14.2622 49.5121 14.106 50.1513 13.7935 50.7053C13.481 51.2592 13.0282 51.6907 12.4352 51.9996C11.8457 52.3086 11.1319 52.4631 10.2938 52.4631H7.55058V50.6147H9.92096C10.3649 50.6147 10.7306 50.5384 11.0183 50.3857C11.3095 50.2294 11.5261 50.0146 11.6681 49.7411C11.8137 49.4641 11.8865 49.1463 11.8865 48.7876C11.8865 48.4254 11.8137 48.1094 11.6681 47.8395C11.5261 47.5661 11.3095 47.3548 11.0183 47.2056C10.7271 47.0529 10.3578 46.9766 9.91031 46.9766H8.35491V56H6.04845ZM19.3275 56H15.4604V45.0909H19.3595C20.4568 45.0909 21.4014 45.3093 22.1933 45.7461C22.9852 46.1793 23.5942 46.8026 24.0204 47.6158C24.4501 48.429 24.6649 49.402 24.6649 50.5348C24.6649 51.6712 24.4501 52.6477 24.0204 53.4645C23.5942 54.2812 22.9817 54.908 22.1827 55.3448C21.3872 55.7816 20.4355 56 19.3275 56ZM17.7668 54.0238H19.2317C19.9135 54.0238 20.487 53.9031 20.9522 53.6616C21.4209 53.4165 21.7725 53.0384 22.0069 52.527C22.2448 52.0121 22.3638 51.348 22.3638 50.5348C22.3638 49.7287 22.2448 49.07 22.0069 48.5586C21.7725 48.0472 21.4227 47.6708 20.9575 47.4293C20.4923 47.1879 19.9188 47.0671 19.237 47.0671H17.7668V54.0238ZM26.0734 56V45.0909H33.2965V46.9925H28.3799V49.592H32.8171V51.4936H28.3799V56H26.0734Z" fill="white"/>
<defs>
<clipPath id="clip0_11_29">
<rect width="55.7143" height="74.2857" fill="white" transform="translate(9.28564)"/>
</clipPath>
</defs>
</svg>
