<svg width="65" height="75" viewBox="0 0 65 75" fill="none" xmlns="http://www.w3.org/2000/svg">
<g clip-path="url(#clip0_11_77)">
<path d="M57.2856 72.5H17.2856C13.6958 72.5 10.7856 69.5899 10.7856 66V8C10.7856 4.41015 13.6958 1.5 17.2856 1.5H41.3349L63.7856 23.7503V66C63.7856 69.5899 60.8755 72.5 57.2856 72.5Z" fill="white" stroke="#C8D2E1" stroke-width="3"/>
<path d="M40.8569 1.85715V18.1429C40.8569 21.4566 43.5432 24.1429 46.8569 24.1429H63.1426" stroke="#C8D2E1" stroke-width="3" stroke-linecap="round"/>
</g>
<rect y="38" width="43" height="26" rx="4" fill="#1570EF"/>
<path d="M8.4313 45.0909L10.6312 48.8089H10.7165L12.927 45.0909H15.5318L12.2026 50.5455L15.6064 56H12.9537L10.7165 52.2766H10.6312L8.39402 56H5.75197L9.16639 50.5455L5.81589 45.0909H8.4313ZM16.6913 45.0909H19.5358L22.54 52.4205H22.6679L25.6721 45.0909H28.5166V56H26.2794V48.8995H26.1888L23.3657 55.9467H21.8422L19.0191 48.8729H18.9285V56H16.6913V45.0909ZM30.1169 56V45.0909H32.4234V54.0984H37.1002V56H30.1169Z" fill="white"/>
<defs>
<clipPath id="clip0_11_77">
<rect width="55.7143" height="74.2857" fill="white" transform="translate(9.28564)"/>
</clipPath>
</defs>
</svg>
