<svg width="65" height="75" viewBox="0 0 65 75" fill="none" xmlns="http://www.w3.org/2000/svg">
<g clip-path="url(#clip0_10_8)">
<path d="M57.2856 72.5H17.2856C13.6958 72.5 10.7856 69.5899 10.7856 66V8C10.7856 4.41015 13.6958 1.5 17.2856 1.5H41.3349L63.7856 23.7503V66C63.7856 69.5899 60.8755 72.5 57.2856 72.5Z" fill="white" stroke="#C8D2E1" stroke-width="3"/>
<path d="M40.8572 1.85715V18.1429C40.8572 21.4566 43.5435 24.1429 46.8572 24.1429H63.1429" stroke="#C8D2E1" stroke-width="3" stroke-linecap="round"/>
</g>
<rect y="38" width="40" height="26" rx="4" fill="#1570EF"/>
<path d="M10.7772 45.0909H13.057V52.6974C13.057 53.4006 12.899 54.0114 12.5829 54.5298C12.2704 55.0483 11.8354 55.4478 11.2779 55.7283C10.7204 56.0089 10.0723 56.1491 9.33365 56.1491C8.67669 56.1491 8.0801 56.0337 7.54387 55.8029C7.0112 55.5685 6.58862 55.2134 6.27612 54.7376C5.96362 54.2582 5.80914 53.6562 5.8127 52.9318H8.10851C8.11561 53.2195 8.1742 53.4663 8.28429 53.6722C8.39792 53.8746 8.5524 54.0309 8.74771 54.141C8.94657 54.2475 9.18095 54.3008 9.45083 54.3008C9.73493 54.3008 9.97463 54.2404 10.1699 54.1197C10.3688 53.9954 10.5197 53.8143 10.6227 53.5763C10.7257 53.3384 10.7772 53.0455 10.7772 52.6974V45.0909ZM14.664 56V45.0909H18.968C19.7954 45.0909 20.5003 45.2489 21.0827 45.565C21.665 45.8775 22.1089 46.3125 22.4143 46.87C22.7233 47.424 22.8778 48.0632 22.8778 48.7876C22.8778 49.5121 22.7215 50.1513 22.409 50.7053C22.0965 51.2592 21.6437 51.6907 21.0507 51.9996C20.4612 52.3086 19.7474 52.4631 18.9094 52.4631H16.1661V50.6147H18.5365C18.9804 50.6147 19.3461 50.5384 19.6338 50.3857C19.925 50.2294 20.1416 50.0146 20.2836 49.7411C20.4292 49.4641 20.502 49.1463 20.502 48.7876C20.502 48.4254 20.4292 48.1094 20.2836 47.8395C20.1416 47.5661 19.925 47.3548 19.6338 47.2056C19.3426 47.0529 18.9733 46.9766 18.5258 46.9766H16.9704V56H14.664ZM31.3096 48.6172C31.235 48.358 31.1302 48.1289 30.9953 47.93C30.8603 47.7276 30.6952 47.5572 30.4999 47.4187C30.3081 47.2766 30.088 47.1683 29.8394 47.0938C29.5944 47.0192 29.3227 46.9819 29.0244 46.9819C28.4669 46.9819 27.9768 47.1204 27.5542 47.3974C27.1352 47.6744 26.8085 48.0774 26.5741 48.6065C26.3397 49.1321 26.2226 49.7749 26.2226 50.5348C26.2226 51.2947 26.338 51.9411 26.5688 52.4737C26.7996 53.0064 27.1263 53.413 27.5489 53.6935C27.9715 53.9705 28.4704 54.109 29.0457 54.109C29.5677 54.109 30.0134 54.0167 30.3827 53.832C30.7556 53.6438 31.0397 53.3793 31.235 53.0384C31.4338 52.6974 31.5333 52.2944 31.5333 51.8292L32.002 51.8984H29.1895V50.1619H33.7545V51.5362C33.7545 52.495 33.5521 53.3189 33.1473 54.0078C32.7424 54.6932 32.1849 55.2223 31.4747 55.5952C30.7645 55.9645 29.9512 56.1491 29.0351 56.1491C28.0123 56.1491 27.1139 55.9237 26.3397 55.4727C25.5656 55.0181 24.9619 54.3736 24.5287 53.5391C24.099 52.701 23.8841 51.7067 23.8841 50.5561C23.8841 49.6719 24.012 48.8835 24.2676 48.1911C24.5269 47.495 24.8891 46.9055 25.3543 46.4226C25.8195 45.9396 26.361 45.5721 26.9789 45.32C27.5968 45.0678 28.2662 44.9418 28.9871 44.9418C29.605 44.9418 30.1803 45.0323 30.713 45.2134C31.2456 45.391 31.7179 45.6431 32.1299 45.9698C32.5453 46.2965 32.8845 46.6854 33.1473 47.1364C33.4101 47.5838 33.5787 48.0774 33.6533 48.6172H31.3096Z" fill="white"/>
<defs>
<clipPath id="clip0_10_8">
<rect width="55.7143" height="74.2857" fill="white" transform="translate(9.28564)"/>
</clipPath>
</defs>
</svg>
