<svg width="65" height="75" viewBox="0 0 65 75" fill="none" xmlns="http://www.w3.org/2000/svg">
<g clip-path="url(#clip0_11_35)">
<path d="M57.2856 72.5H17.2856C13.6958 72.5 10.7856 69.5899 10.7856 66V8C10.7856 4.41015 13.6958 1.5 17.2856 1.5H41.3349L63.7856 23.7503V66C63.7856 69.5899 60.8755 72.5 57.2856 72.5Z" fill="white" stroke="#C8D2E1" stroke-width="3"/>
<path d="M40.8572 1.85714V18.1429C40.8572 21.4566 43.5435 24.1429 46.8572 24.1429H63.1429" stroke="#C8D2E1" stroke-width="3" stroke-linecap="round"/>
</g>
<rect y="38" width="41" height="26" rx="4" fill="#1570EF"/>
<path d="M5.95181 46.9925V45.0909H14.9113V46.9925H11.5715V56H9.29166V46.9925H5.95181ZM18.2495 45.0909L20.4494 48.8089H20.5346L22.7452 45.0909H25.35L22.0208 50.5455L25.4245 56H22.7718L20.5346 52.2766H20.4494L18.2122 56H15.5701L18.9846 50.5455L15.6341 45.0909H18.2495ZM26.094 46.9925V45.0909H35.0535V46.9925H31.7137V56H29.4338V46.9925H26.094Z" fill="white"/>
<defs>
<clipPath id="clip0_11_35">
<rect width="55.7143" height="74.2857" fill="white" transform="translate(9.28564)"/>
</clipPath>
</defs>
</svg>
