<svg width="65" height="75" viewBox="0 0 65 75" fill="none" xmlns="http://www.w3.org/2000/svg">
<g clip-path="url(#clip0_11_74)">
<path d="M57.2856 72.5H17.2856C13.6958 72.5 10.7856 69.5899 10.7856 66V8C10.7856 4.41015 13.6958 1.5 17.2856 1.5H41.3349L63.7856 23.7503V66C63.7856 69.5899 60.8755 72.5 57.2856 72.5Z" fill="white" stroke="#C8D2E1" stroke-width="3"/>
<path d="M40.8572 1.85715V18.1429C40.8572 21.4566 43.5435 24.1429 46.8572 24.1429H63.1429" stroke="#C8D2E1" stroke-width="3" stroke-linecap="round"/>
</g>
<rect y="38" width="44" height="26" rx="4" fill="#1570EF"/>
<path d="M6.44639 45.0909H9.29086L12.2951 52.4205H12.423L15.4272 45.0909H18.2717V56H16.0345V48.8995H15.9439L13.1208 55.9467H11.5973L8.77416 48.8729H8.68361V56H6.44639V45.0909ZM19.872 56V45.0909H24.176C25.0034 45.0909 25.7083 45.2489 26.2907 45.565C26.873 45.8775 27.3169 46.3125 27.6223 46.87C27.9313 47.424 28.0858 48.0632 28.0858 48.7876C28.0858 49.5121 27.9295 50.1513 27.617 50.7053C27.3045 51.2592 26.8517 51.6907 26.2587 51.9996C25.6692 52.3086 24.9554 52.4631 24.1174 52.4631H21.3741V50.6147H23.7445C24.1884 50.6147 24.5542 50.5384 24.8418 50.3857C25.133 50.2294 25.3496 50.0146 25.4917 49.7411C25.6373 49.4641 25.71 49.1463 25.71 48.7876C25.71 48.4254 25.6373 48.1094 25.4917 47.8395C25.3496 47.5661 25.133 47.3548 24.8418 47.2056C24.5506 47.0529 24.1813 46.9766 23.7338 46.9766H22.1784V56H19.872ZM29.0548 54.0824V52.266L33.6092 45.0909H35.1752V47.6051H34.2484L31.3773 52.1488V52.234H37.8492V54.0824H29.0548ZM34.291 56V53.5284L34.3336 52.7241V45.0909H36.4963V56H34.291Z" fill="white"/>
<defs>
<clipPath id="clip0_11_74">
<rect width="55.7143" height="74.2857" fill="white" transform="translate(9.28564)"/>
</clipPath>
</defs>
</svg>
