<svg width="57" height="56" viewBox="0 0 57 56" fill="none" xmlns="http://www.w3.org/2000/svg">
<g id="video-folder 1" clip-path="url(#clip0_3230_34290)">
<path id="Vector" d="M53.45 10.2667H49.7167V7.46667C49.7167 6.72406 49.4217 6.01187 48.8966 5.48677C48.3715 4.96167 47.6593 4.66667 46.9167 4.66667H15.8553C15.6381 4.66718 15.4275 4.59193 15.2599 4.45387L10.7033 0.644934C10.1994 0.227656 9.56558 -0.000464358 8.91133 7.09694e-07H3.05C2.30739 7.09694e-07 1.5952 0.295 1.0701 0.820102C0.544999 1.3452 0.25 2.05739 0.25 2.8L0.25 39.2C0.25 40.1901 0.643332 41.1397 1.34347 41.8399C2.0436 42.54 2.99319 42.9333 3.98333 42.9333H11.45V53.2C11.45 53.9426 11.745 54.6548 12.2701 55.1799C12.7952 55.705 13.5074 56 14.25 56H49.7167C50.4593 56 51.1715 55.705 51.6966 55.1799C52.2217 54.6548 52.5167 53.9426 52.5167 53.2V42.9333C53.5068 42.9333 54.4564 42.54 55.1565 41.8399C55.8567 41.1397 56.25 40.1901 56.25 39.2V13.0667C56.25 12.3241 55.955 11.6119 55.4299 11.0868C54.9048 10.5617 54.1926 10.2667 53.45 10.2667ZM5.85 13.0667V39.2C5.85 39.6951 5.65333 40.1699 5.30327 40.5199C4.9532 40.87 4.4784 41.0667 3.98333 41.0667C3.48826 41.0667 3.01347 40.87 2.6634 40.5199C2.31333 40.1699 2.11667 39.6951 2.11667 39.2V2.8C2.11667 2.55247 2.215 2.31507 2.39003 2.14003C2.56507 1.965 2.80246 1.86667 3.05 1.86667H8.91133C9.12854 1.86615 9.33912 1.94141 9.5068 2.07947L14.0633 5.8884C14.5672 6.30568 15.2011 6.5338 15.8553 6.53333H46.9167C47.1642 6.53333 47.4016 6.63167 47.5766 6.8067C47.7517 6.98174 47.85 7.21913 47.85 7.46667V10.2667H8.65C7.90739 10.2667 7.1952 10.5617 6.6701 11.0868C6.145 11.6119 5.85 12.3241 5.85 13.0667ZM50.65 44.8H13.3167V27.0667C13.3167 26.8191 13.415 26.5817 13.59 26.4067C13.7651 26.2317 14.0025 26.1333 14.25 26.1333H49.7167C49.9642 26.1333 50.2016 26.2317 50.3766 26.4067C50.5517 26.5817 50.65 26.8191 50.65 27.0667V44.8ZM49.7167 54.1333H14.25C14.0025 54.1333 13.7651 54.035 13.59 53.86C13.415 53.6849 13.3167 53.4475 13.3167 53.2V46.6667H50.65V53.2C50.65 53.4475 50.5517 53.6849 50.3766 53.86C50.2016 54.035 49.9642 54.1333 49.7167 54.1333ZM54.3833 39.2C54.3833 39.6951 54.1867 40.1699 53.8366 40.5199C53.4865 40.87 53.0117 41.0667 52.5167 41.0667V27.0667C52.5167 26.3241 52.2217 25.6119 51.6966 25.0868C51.1715 24.5617 50.4593 24.2667 49.7167 24.2667H14.25C13.5074 24.2667 12.7952 24.5617 12.2701 25.0868C11.745 25.6119 11.45 26.3241 11.45 27.0667V41.0667H7.21733C7.54578 40.4995 7.71807 39.8554 7.71667 39.2V13.0667C7.71667 12.8191 7.815 12.5817 7.99003 12.4067C8.16507 12.2317 8.40246 12.1333 8.65 12.1333H53.45C53.6975 12.1333 53.9349 12.2317 54.11 12.4067C54.285 12.5817 54.3833 12.8191 54.3833 13.0667V39.2Z" fill="#3696FB"/>
<path id="Vector_2" d="M38.1769 33.179L30.6169 28.4283C30.1952 28.1637 29.7104 28.0168 29.2127 28.003C28.715 27.9892 28.2228 28.109 27.7871 28.3499C27.3607 28.5802 27.005 28.9219 26.7577 29.3386C26.5105 29.7553 26.3811 30.2314 26.3833 30.7159V40.2172C26.3813 40.7019 26.5109 41.1781 26.7585 41.5949C27.0061 42.0116 27.3623 42.3532 27.7889 42.5832C28.2246 42.8242 28.7169 42.944 29.2146 42.9303C29.7122 42.9165 30.1971 42.7696 30.6188 42.5048L38.1788 37.7542C38.5677 37.5126 38.8886 37.1759 39.1112 36.7757C39.3337 36.3756 39.4505 35.9253 39.4505 35.4675C39.4505 35.0097 39.3337 34.5594 39.1112 34.1593C38.8886 33.7591 38.5677 33.4224 38.1788 33.1808L38.1769 33.179ZM29.6257 40.9256C29.4871 41.0143 29.3269 41.0634 29.1624 41.0677C28.998 41.0719 28.8354 41.0312 28.6924 40.9499C28.5588 40.8797 28.447 40.7744 28.369 40.6452C28.2911 40.5161 28.2499 40.3681 28.25 40.2172V30.7159C28.2501 30.5652 28.2913 30.4174 28.3693 30.2884C28.4472 30.1594 28.559 30.0542 28.6924 29.9842C28.8355 29.9031 28.998 29.8626 29.1624 29.8669C29.3268 29.8711 29.487 29.9201 29.6257 30.0084L37.1857 34.7591C37.3077 34.8326 37.4085 34.9363 37.4786 35.0603C37.5486 35.1842 37.5854 35.3242 37.5854 35.4666C37.5854 35.6089 37.5486 35.7489 37.4786 35.8728C37.4085 35.9968 37.3077 36.1005 37.1857 36.174L29.6257 40.9256Z" fill="#3696FB"/>
<path id="Vector_3" d="M16.1167 48.5332C15.8691 48.5332 15.6317 48.6315 15.4567 48.8066C15.2817 48.9816 15.1833 49.219 15.1833 49.4665V51.3332C15.1833 51.5807 15.2817 51.8181 15.4567 51.9932C15.6317 52.1682 15.8691 52.2665 16.1167 52.2665C16.3642 52.2665 16.6016 52.1682 16.7767 51.9932C16.9517 51.8181 17.05 51.5807 17.05 51.3332V49.4665C17.05 49.219 16.9517 48.9816 16.7767 48.8066C16.6016 48.6315 16.3642 48.5332 16.1167 48.5332Z" fill="#3696FB"/>
<path id="Vector_4" d="M19.8501 48.5332C19.6025 48.5332 19.3651 48.6315 19.1901 48.8066C19.0151 48.9816 18.9167 49.219 18.9167 49.4665V51.3332C18.9167 51.5807 19.0151 51.8181 19.1901 51.9932C19.3651 52.1682 19.6025 52.2665 19.8501 52.2665C20.0976 52.2665 20.335 52.1682 20.51 51.9932C20.6851 51.8181 20.7834 51.5807 20.7834 51.3332V49.4665C20.7834 49.219 20.6851 48.9816 20.51 48.8066C20.335 48.6315 20.0976 48.5332 19.8501 48.5332Z" fill="#3696FB"/>
<path id="Vector_5" d="M47.8499 49.4665H31.0499C31.0499 49.219 30.9516 48.9816 30.7766 48.8066C30.6015 48.6315 30.3641 48.5332 30.1166 48.5332C29.8691 48.5332 29.6317 48.6315 29.4566 48.8066C29.2816 48.9816 29.1833 49.219 29.1833 49.4665H24.5166C24.269 49.4665 24.0317 49.5649 23.8566 49.7399C23.6816 49.9149 23.5833 50.1523 23.5833 50.3999C23.5833 50.6474 23.6816 50.8848 23.8566 51.0598C24.0317 51.2349 24.269 51.3332 24.5166 51.3332H29.1833C29.1833 51.5807 29.2816 51.8181 29.4566 51.9932C29.6317 52.1682 29.8691 52.2665 30.1166 52.2665C30.3641 52.2665 30.6015 52.1682 30.7766 51.9932C30.9516 51.8181 31.0499 51.5807 31.0499 51.3332H47.8499C48.0975 51.3332 48.3349 51.2349 48.5099 51.0598C48.6849 50.8848 48.7833 50.6474 48.7833 50.3999C48.7833 50.1523 48.6849 49.9149 48.5099 49.7399C48.3349 49.5649 48.0975 49.4665 47.8499 49.4665Z" fill="#3696FB"/>
</g>
<defs>
<clipPath id="clip0_3230_34290">
<rect width="56" height="56" fill="white" transform="translate(0.25)"/>
</clipPath>
</defs>
</svg>
