<svg width="19" height="45" viewBox="0 0 19 45" fill="none" xmlns="http://www.w3.org/2000/svg">
<path fill-rule="evenodd" clip-rule="evenodd" d="M0.463748 34.4603C1.08208 33.8466 2.08459 33.8466 2.70292 34.4603L9.5 41.2062L16.2971 34.4603C16.9154 33.8466 17.9179 33.8466 18.5363 34.4603C19.1546 35.0739 19.1546 36.0689 18.5363 36.6826L10.6196 44.5397C10.0013 45.1534 8.99874 45.1534 8.38041 44.5397L0.463748 36.6826C-0.154583 36.0689 -0.154583 35.0739 0.463748 34.4603Z" fill="white"/>
<path opacity="0.75" fill-rule="evenodd" clip-rule="evenodd" d="M0.463748 17.4603C1.08208 16.8466 2.08459 16.8466 2.70292 17.4603L9.5 24.2062L16.2971 17.4603C16.9154 16.8466 17.9179 16.8466 18.5363 17.4603C19.1546 18.0739 19.1546 19.0689 18.5363 19.6826L10.6196 27.5397C10.0013 28.1534 8.99874 28.1534 8.38041 27.5397L0.463748 19.6826C-0.154583 19.0689 -0.154583 18.0739 0.463748 17.4603Z" fill="white"/>
<path opacity="0.5" fill-rule="evenodd" clip-rule="evenodd" d="M0.463748 0.460261C1.08208 -0.15342 2.08459 -0.15342 2.70292 0.460261L9.5 7.20624L16.2971 0.460261C16.9154 -0.15342 17.9179 -0.15342 18.5363 0.460261C19.1546 1.07394 19.1546 2.06892 18.5363 2.6826L10.6196 10.5397C10.0013 11.1534 8.99874 11.1534 8.38041 10.5397L0.463748 2.6826C-0.154583 2.06892 -0.154583 1.07394 0.463748 0.460261Z" fill="white"/>
</svg>
