<svg width="140" height="122" viewBox="0 0 140 122" fill="none" xmlns="http://www.w3.org/2000/svg">
<path d="M11.619 63.9052C13.223 63.9052 14.5237 62.6059 14.5237 61.0005C14.5237 59.3976 13.223 58.0957 11.619 58.0957C10.015 58.0957 8.71423 59.3976 8.71423 61.0005C8.71423 62.6059 10.015 63.9052 11.619 63.9052Z" fill="white"/>
<path d="M26.1428 14.5243C27.7468 14.5243 29.0475 13.225 29.0475 11.6196C29.0475 10.0168 27.7468 8.71484 26.1428 8.71484C24.5388 8.71484 23.238 10.0168 23.238 11.6196C23.238 13.225 24.5388 14.5243 26.1428 14.5243Z" fill="white"/>
<path d="M98.762 5.8095C100.366 5.8095 101.667 4.5102 101.667 2.90475C101.667 1.30191 100.366 0 98.762 0C97.1578 0 95.8573 1.30191 95.8573 2.90475C95.8573 4.5102 97.1578 5.8095 98.762 5.8095Z" fill="#8DAAD7"/>
<path d="M127.81 40.666C126.206 40.666 124.905 41.9679 124.905 43.5708C124.905 45.1762 126.206 46.4755 127.81 46.4755C129.414 46.4755 130.714 45.1762 130.714 43.5708C130.714 41.9679 129.414 40.666 127.81 40.666Z" fill="white"/>
<path d="M127.81 75.5234C126.206 75.5234 124.905 76.8253 124.905 78.4282C124.905 80.0336 126.206 81.3329 127.81 81.3329C129.414 81.3329 130.714 80.0336 130.714 78.4282C130.714 76.8253 129.414 75.5234 127.81 75.5234Z" fill="#8DAAD7"/>
<path d="M72.619 66.809C72.619 68.4145 73.9198 69.7138 75.5238 69.7138C77.1278 69.7138 78.4285 68.4145 78.4285 66.809C78.4285 65.2062 77.1278 63.9043 75.5238 63.9043C73.9198 63.9043 72.619 65.2062 72.619 66.809Z" fill="white"/>
<path d="M61 75.5239C61 77.1293 62.3007 78.4286 63.9047 78.4286C65.5087 78.4286 66.8095 77.1293 66.8095 75.5239C66.8095 73.921 65.5087 72.6191 63.9047 72.6191C62.3007 72.6191 61 73.921 61 75.5239Z" fill="#8DAAD7"/>
<circle cx="69.5" cy="26.5" r="22.5" fill="#8DAAD7"/>
<path d="M69.7143 52.2855C84.1288 52.2855 95.8573 40.5584 95.8573 26.1427C95.8573 11.7282 84.1288 0 69.7143 0C55.2983 0 43.5715 11.7282 43.5715 26.1427C43.5715 40.5584 55.2983 52.2855 69.7143 52.2855ZM69.7143 5.80921C80.9263 5.80921 90.0475 14.9321 90.0475 26.1424C90.0475 37.3559 80.9263 46.4757 69.7143 46.4757C58.5022 46.4757 49.381 37.3556 49.381 26.1424C49.381 14.9319 58.5022 5.80921 69.7143 5.80921Z" fill="white"/>
<path d="M62.5262 38.0437C63.6593 39.1754 65.4989 39.1769 66.6338 38.0437L83.065 21.611C84.1996 20.4764 84.1996 18.6383 83.065 17.5034C81.9305 16.3685 80.0923 16.3688 78.9574 17.5034L64.5798 31.881L60.4722 27.772C59.3376 26.6374 57.4966 26.6374 56.3632 27.772C55.2286 28.9066 55.2286 30.7461 56.3632 31.881L62.5262 38.0437Z" fill="white"/>
<path d="M17.4285 43.5711C22.2338 43.5711 26.1427 39.6619 26.1427 34.8568C26.1427 30.0518 22.2338 26.1426 17.4285 26.1426C12.6232 26.1426 8.71423 30.0515 8.71423 34.8568C8.71423 39.6621 12.6232 43.5711 17.4285 43.5711ZM17.4285 31.9518C19.0313 31.9518 20.3332 33.2551 20.3332 34.8565C20.3332 36.4594 19.0313 37.7613 17.4285 37.7613C15.8256 37.7613 14.5237 36.4594 14.5237 34.8565C14.5237 33.2551 15.8256 31.9518 17.4285 31.9518Z" fill="#8DAAD7"/>
<path d="M120.548 29.0481C126.153 29.0481 130.714 24.4868 130.714 18.8815C130.714 13.2762 126.153 8.71484 120.548 8.71484C114.942 8.71484 110.381 13.2762 110.381 18.8815C110.381 24.4868 114.942 29.0481 120.548 29.0481ZM120.548 14.5243C122.95 14.5243 124.905 16.4789 124.905 18.8815C124.905 21.284 122.95 23.2386 120.548 23.2386C118.145 23.2386 116.19 21.284 116.19 18.8815C116.19 16.4789 118.145 14.5243 120.548 14.5243Z" fill="white"/>
<path d="M136.524 116.191H132.711C136.494 101.128 128.236 85.8351 113.971 80.4625C117.606 77.4131 119.923 72.8433 119.923 67.7371C119.923 58.583 112.477 51.1367 103.323 51.1367C94.1705 51.1367 86.723 58.583 86.723 67.7371C86.723 72.843 89.0407 77.4131 92.6771 80.4625C85.3121 83.2339 79.3037 88.7994 75.9464 95.8571H63.4821C60.1248 88.7994 54.1169 83.2339 46.7513 80.4625C50.3881 77.4131 52.7058 72.8433 52.7058 67.7371C52.7058 58.583 45.2595 51.1367 36.1054 51.1367C26.9514 51.1367 19.5051 58.583 19.5051 67.7371C19.5051 72.843 21.8228 77.4131 25.4592 80.4625C11.1978 85.8322 2.93321 101.119 6.71752 116.191H2.90475C1.30075 116.191 0 117.492 0 119.095C0 120.701 1.30075 122 2.90475 122H136.524C138.128 122 139.428 120.701 139.428 119.095C139.428 117.492 138.128 116.191 136.524 116.191ZM103.323 89.2534L106.776 97.8854L103.323 101.457L99.871 97.8854L103.323 89.2534ZM92.5325 67.7371C92.5325 61.7884 97.3732 56.9462 103.323 56.9462C109.273 56.9462 114.114 61.7884 114.114 67.7371C114.114 73.6883 109.273 78.5273 103.323 78.5273C97.3732 78.5279 92.5325 73.6886 92.5325 67.7371ZM73.884 101.667C72.7238 106.438 72.7436 111.442 73.9351 116.191H65.4931C66.6857 111.436 66.7029 106.432 65.5442 101.667H73.884ZM36.1051 89.2534L39.5574 97.8854L36.1051 101.457L32.6529 97.8854L36.1051 89.2534ZM25.3143 67.7371C25.3143 61.7884 30.1553 56.9462 36.1051 56.9462C42.0549 56.9462 46.8957 61.7884 46.8957 67.7371C46.8957 73.6883 42.0549 78.5273 36.1051 78.5273C30.1553 78.5273 25.3143 73.6886 25.3143 67.7371ZM52.7055 116.191V108.824C52.7055 107.221 51.4047 105.919 49.8007 105.919C48.1953 105.919 46.896 107.221 46.896 108.824V116.191H25.3146V108.824C25.3146 107.221 24.0138 105.919 22.4098 105.919C20.8058 105.919 19.5051 107.221 19.5051 108.824V116.191H12.751C11.9992 113.813 11.6193 111.343 11.6193 108.824C11.6193 96.8444 20.2682 86.8535 31.6493 84.7516L26.5601 97.4741C26.136 98.5349 26.3742 99.7491 27.1701 100.572L34.0181 107.655C35.1585 108.835 37.0533 108.838 38.1937 107.655L45.0413 100.572C45.8369 99.7491 46.0754 98.5349 45.6513 97.4741L40.5622 84.7516C47.4197 86.0195 53.2847 90.1498 56.8619 95.8571H55.1911C53.5871 95.8571 52.2863 97.159 52.2863 98.7618C52.2863 100.367 53.5871 101.667 55.1911 101.667H59.5226C60.9666 106.387 60.9509 111.476 59.4587 116.191H52.7055ZM119.924 116.191V108.824C119.924 107.221 118.623 105.919 117.019 105.919C115.415 105.919 114.114 107.221 114.114 108.824V116.191H92.5325V108.824C92.5325 107.221 91.2317 105.919 89.6277 105.919C88.024 105.919 86.723 107.221 86.723 108.824V116.191H79.9703C78.5264 111.626 78.4157 106.534 79.9064 101.667H84.238C85.8417 101.667 87.1427 100.367 87.1427 98.7618C87.1427 97.159 85.8417 95.8571 84.238 95.8571H82.5657C86.1455 90.1498 92.009 86.0195 98.8669 84.7516L93.7786 97.4741C93.3531 98.5349 93.5913 99.7491 94.3875 100.572L101.235 107.655C102.376 108.835 104.269 108.838 105.412 107.655L112.26 100.572C113.054 99.7491 113.293 98.5349 112.869 97.4741L107.779 84.7516C119.16 86.8535 127.809 96.8444 127.809 108.824C127.809 111.343 127.429 113.814 126.676 116.191H119.924Z" fill="white"/>
</svg>
