<svg width="442" height="81" viewBox="0 0 442 81" fill="none" xmlns="http://www.w3.org/2000/svg">
<path d="M98.344 31C98.0213 31 97.75 30.89 97.53 30.67C97.31 30.45 97.2 30.1787 97.2 29.856V14.962C97.2 14.6247 97.31 14.3533 97.53 14.148C97.75 13.928 98.0213 13.818 98.344 13.818H108.288C108.625 13.818 108.897 13.9207 109.102 14.126C109.307 14.3167 109.41 14.5733 109.41 14.896C109.41 15.204 109.307 15.4533 109.102 15.644C108.897 15.8347 108.625 15.93 108.288 15.93H99.488V21.276H105.802C106.139 21.276 106.411 21.3787 106.616 21.584C106.821 21.7747 106.924 22.024 106.924 22.332C106.924 22.64 106.821 22.8967 106.616 23.102C106.411 23.2927 106.139 23.388 105.802 23.388H99.488V28.888H108.288C108.625 28.888 108.897 28.9833 109.102 29.174C109.307 29.3647 109.41 29.614 109.41 29.922C109.41 30.2447 109.307 30.5087 109.102 30.714C108.897 30.9047 108.625 31 108.288 31H98.344ZM112.868 31C112.546 31 112.274 30.89 112.054 30.67C111.834 30.45 111.724 30.1787 111.724 29.856V14.962C111.724 14.6247 111.834 14.3533 112.054 14.148C112.274 13.928 112.546 13.818 112.868 13.818C113.308 13.818 113.646 14.0233 113.88 14.434L120.766 28.228H120.062L126.772 14.434C127.007 14.0233 127.344 13.818 127.784 13.818C128.107 13.818 128.378 13.928 128.598 14.148C128.818 14.3533 128.928 14.6247 128.928 14.962V29.856C128.928 30.1787 128.811 30.45 128.576 30.67C128.356 30.89 128.092 31 127.784 31C127.462 31 127.19 30.89 126.97 30.67C126.75 30.45 126.64 30.1787 126.64 29.856V18.13L127.08 18.02L121.316 29.768C121.067 30.1493 120.737 30.34 120.326 30.34C119.842 30.34 119.49 30.1127 119.27 29.658L113.572 18.24L114.012 18.13V29.856C114.012 30.1787 113.902 30.45 113.682 30.67C113.462 30.89 113.191 31 112.868 31ZM137.914 31.22C136.975 31.22 136.08 31.0733 135.23 30.78C134.379 30.4867 133.638 30.076 133.008 29.548C132.377 29.02 131.915 28.4113 131.622 27.722C131.475 27.414 131.475 27.128 131.622 26.864C131.783 26.6 132.047 26.4313 132.414 26.358C132.678 26.2993 132.934 26.3433 133.184 26.49C133.448 26.622 133.646 26.8273 133.778 27.106C133.954 27.4727 134.24 27.81 134.636 28.118C135.046 28.426 135.538 28.6753 136.11 28.866C136.682 29.0567 137.283 29.152 137.914 29.152C138.618 29.152 139.263 29.042 139.85 28.822C140.451 28.602 140.935 28.2867 141.302 27.876C141.668 27.4507 141.852 26.93 141.852 26.314C141.852 25.5367 141.544 24.84 140.928 24.224C140.326 23.608 139.329 23.2267 137.936 23.08C136.117 22.904 134.687 22.3687 133.646 21.474C132.604 20.5793 132.084 19.472 132.084 18.152C132.084 17.184 132.355 16.3627 132.898 15.688C133.44 15.0133 134.174 14.5 135.098 14.148C136.036 13.796 137.078 13.62 138.222 13.62C139.116 13.62 139.894 13.7447 140.554 13.994C141.228 14.2433 141.815 14.588 142.314 15.028C142.812 15.468 143.245 15.9887 143.612 16.59C143.817 16.9127 143.898 17.2207 143.854 17.514C143.824 17.7927 143.685 18.0127 143.436 18.174C143.157 18.35 142.856 18.3867 142.534 18.284C142.211 18.1813 141.969 17.9907 141.808 17.712C141.573 17.2867 141.287 16.9273 140.95 16.634C140.612 16.3407 140.216 16.1133 139.762 15.952C139.307 15.776 138.772 15.688 138.156 15.688C137.07 15.6733 136.161 15.8787 135.428 16.304C134.694 16.7147 134.328 17.3527 134.328 18.218C134.328 18.658 134.438 19.0833 134.658 19.494C134.892 19.89 135.31 20.2347 135.912 20.528C136.528 20.8213 137.408 21.0267 138.552 21.144C140.297 21.32 141.654 21.8553 142.622 22.75C143.604 23.63 144.096 24.796 144.096 26.248C144.096 27.084 143.92 27.81 143.568 28.426C143.23 29.042 142.768 29.5627 142.182 29.988C141.61 30.3987 140.95 30.7067 140.202 30.912C139.468 31.1173 138.706 31.22 137.914 31.22ZM156.953 31C155.853 31 154.878 30.7727 154.027 30.318C153.177 29.8487 152.509 29.218 152.025 28.426C151.541 27.6193 151.299 26.7173 151.299 25.72C151.299 25.3827 151.395 25.1113 151.585 24.906C151.791 24.686 152.033 24.576 152.311 24.576C152.605 24.576 152.847 24.686 153.037 24.906C153.228 25.1113 153.323 25.3827 153.323 25.72C153.323 26.3213 153.477 26.8787 153.785 27.392C154.093 27.8907 154.511 28.294 155.039 28.602C155.567 28.8953 156.161 29.042 156.821 29.042C157.789 29.042 158.567 28.778 159.153 28.25C159.755 27.7073 160.055 26.952 160.055 25.984C160.055 25.368 159.923 24.818 159.659 24.334C159.395 23.8353 159.036 23.4393 158.581 23.146C158.127 22.8527 157.613 22.706 157.041 22.706C156.719 22.706 156.447 22.596 156.227 22.376C156.022 22.156 155.919 21.8847 155.919 21.562C155.919 21.2393 156.022 20.9753 156.227 20.77C156.447 20.55 156.719 20.44 157.041 20.44C157.452 20.44 157.848 20.3373 158.229 20.132C158.611 19.912 158.926 19.626 159.175 19.274C159.425 18.9073 159.549 18.4967 159.549 18.042C159.549 17.3967 159.315 16.854 158.845 16.414C158.376 15.974 157.775 15.754 157.041 15.754C156.484 15.754 155.971 15.864 155.501 16.084C155.047 16.304 154.68 16.5973 154.401 16.964C154.137 17.3307 154.005 17.7413 154.005 18.196C154.005 18.5333 153.91 18.8193 153.719 19.054C153.529 19.274 153.287 19.384 152.993 19.384C152.715 19.384 152.473 19.2813 152.267 19.076C152.077 18.856 151.981 18.5847 151.981 18.262C151.981 17.4113 152.201 16.6487 152.641 15.974C153.081 15.2993 153.683 14.7713 154.445 14.39C155.208 13.994 156.059 13.796 156.997 13.796C157.863 13.796 158.64 13.9867 159.329 14.368C160.033 14.7347 160.583 15.2407 160.979 15.886C161.39 16.5167 161.595 17.2353 161.595 18.042C161.595 18.614 161.463 19.12 161.199 19.56C160.95 20 160.627 20.3813 160.231 20.704C159.835 21.012 159.417 21.2687 158.977 21.474C159.755 21.738 160.385 22.0973 160.869 22.552C161.353 22.992 161.705 23.5053 161.925 24.092C162.16 24.6787 162.277 25.3167 162.277 26.006C162.277 26.9593 162.035 27.8173 161.551 28.58C161.067 29.328 160.422 29.922 159.615 30.362C158.809 30.7873 157.921 31 156.953 31ZM169.001 31C167.989 31 167.087 30.78 166.295 30.34C165.518 29.8853 164.909 29.2693 164.469 28.492C164.029 27.7 163.809 26.798 163.809 25.786C163.809 24.7593 164.029 23.8573 164.469 23.08C164.909 22.288 165.518 21.672 166.295 21.232C167.087 20.7773 167.989 20.55 169.001 20.55C170.013 20.55 170.908 20.7773 171.685 21.232C172.463 21.672 173.071 22.288 173.511 23.08C173.951 23.8573 174.171 24.7593 174.171 25.786C174.171 26.798 173.951 27.7 173.511 28.492C173.071 29.2693 172.463 29.8853 171.685 30.34C170.908 30.78 170.013 31 169.001 31ZM168.979 29.02C169.581 29.02 170.109 28.888 170.563 28.624C171.033 28.3453 171.399 27.964 171.663 27.48C171.927 26.9813 172.059 26.4167 172.059 25.786C172.059 25.1407 171.927 24.576 171.663 24.092C171.399 23.608 171.033 23.2267 170.563 22.948C170.109 22.6693 169.581 22.53 168.979 22.53C168.378 22.53 167.843 22.6693 167.373 22.948C166.919 23.2267 166.559 23.608 166.295 24.092C166.046 24.576 165.921 25.1407 165.921 25.786C165.921 26.4167 166.046 26.9813 166.295 27.48C166.559 27.964 166.919 28.3453 167.373 28.624C167.843 28.888 168.378 29.02 168.979 29.02ZM164.535 22.97L169.639 14.456C169.903 14.0453 170.241 13.84 170.651 13.84C170.959 13.84 171.216 13.928 171.421 14.104C171.627 14.28 171.751 14.5 171.795 14.764C171.854 15.028 171.803 15.292 171.641 15.556L168.517 20.748L164.535 22.97ZM180.641 31C179.526 31 178.573 30.6627 177.781 29.988C177.003 29.2987 176.409 28.316 175.999 27.04C175.588 25.7493 175.383 24.202 175.383 22.398C175.383 20.594 175.588 19.054 175.999 17.778C176.409 16.4873 177.003 15.5047 177.781 14.83C178.573 14.1407 179.526 13.796 180.641 13.796C181.755 13.796 182.701 14.148 183.479 14.852C184.271 15.5413 184.872 16.5313 185.283 17.822C185.693 19.098 185.899 20.6233 185.899 22.398C185.899 24.1727 185.693 25.7053 185.283 26.996C184.872 28.272 184.271 29.262 183.479 29.966C182.701 30.6553 181.755 31 180.641 31ZM180.641 28.712C181.315 28.712 181.873 28.4407 182.313 27.898C182.753 27.3407 183.083 26.5853 183.303 25.632C183.523 24.6787 183.633 23.6007 183.633 22.398C183.633 21.1953 183.523 20.1173 183.303 19.164C183.083 18.2107 182.753 17.4553 182.313 16.898C181.873 16.3407 181.315 16.062 180.641 16.062C179.966 16.062 179.409 16.3407 178.969 16.898C178.529 17.4407 178.199 18.1887 177.979 19.142C177.759 20.0953 177.649 21.1807 177.649 22.398C177.649 23.6153 177.759 24.7007 177.979 25.654C178.199 26.6073 178.529 27.3553 178.969 27.898C179.423 28.4407 179.981 28.712 180.641 28.712ZM113 73.4C110.84 73.4 108.813 73 106.92 72.2C105.053 71.3733 103.413 70.24 102 68.8C100.613 67.3333 99.52 65.6267 98.72 63.68C97.9467 61.7333 97.56 59.6267 97.56 57.36C97.56 55.12 97.9467 53.04 98.72 51.12C99.52 49.1733 100.613 47.48 102 46.04C103.413 44.5733 105.053 43.4267 106.92 42.6C108.787 41.7733 110.813 41.36 113 41.36C115.053 41.36 116.813 41.6267 118.28 42.16C119.773 42.6933 121.267 43.5733 122.76 44.8C122.973 44.96 123.133 45.1333 123.24 45.32C123.373 45.48 123.453 45.6533 123.48 45.84C123.533 46 123.56 46.2 123.56 46.44C123.56 46.9467 123.373 47.3733 123 47.72C122.653 48.0667 122.213 48.2533 121.68 48.28C121.173 48.3067 120.693 48.1333 120.24 47.76C119.253 46.9067 118.227 46.2533 117.16 45.8C116.12 45.3467 114.733 45.12 113 45.12C111.427 45.12 109.947 45.44 108.56 46.08C107.173 46.72 105.947 47.6 104.88 48.72C103.84 49.84 103.027 51.1467 102.44 52.64C101.853 54.1067 101.56 55.68 101.56 57.36C101.56 59.0667 101.853 60.6667 102.44 62.16C103.027 63.6267 103.84 64.92 104.88 66.04C105.947 67.16 107.173 68.04 108.56 68.68C109.947 69.2933 111.427 69.6 113 69.6C114.36 69.6 115.64 69.3733 116.84 68.92C118.067 68.44 119.24 67.7867 120.36 66.96C120.84 66.6133 121.307 66.4667 121.76 66.52C122.24 66.5467 122.64 66.7333 122.96 67.08C123.28 67.4 123.44 67.8533 123.44 68.44C123.44 68.7067 123.387 68.9733 123.28 69.24C123.2 69.48 123.04 69.7067 122.8 69.92C121.387 71.0933 119.853 71.9733 118.2 72.56C116.547 73.12 114.813 73.4 113 73.4ZM123.44 68.44L119.44 67.64V60.48H113.92C113.333 60.48 112.84 60.3067 112.44 59.96C112.04 59.6133 111.84 59.1733 111.84 58.64C111.84 58.1067 112.04 57.6667 112.44 57.32C112.84 56.9733 113.333 56.8 113.92 56.8H121.4C122.013 56.8 122.507 57 122.88 57.4C123.253 57.7733 123.44 58.2667 123.44 58.88V68.44ZM136.772 73.16C134.559 73.16 132.586 72.6933 130.852 71.76C129.146 70.8 127.799 69.4933 126.812 67.84C125.852 66.16 125.372 64.24 125.372 62.08C125.372 59.8933 125.826 57.9733 126.732 56.32C127.666 54.64 128.946 53.3333 130.572 52.4C132.199 51.44 134.066 50.96 136.172 50.96C138.252 50.96 140.039 51.4267 141.532 52.36C143.026 53.2667 144.159 54.5333 144.932 56.16C145.732 57.76 146.132 59.6133 146.132 61.72C146.132 62.2267 145.959 62.6533 145.612 63C145.266 63.32 144.826 63.48 144.292 63.48H128.172V60.28H144.172L142.532 61.4C142.506 60.0667 142.239 58.88 141.732 57.84C141.226 56.7733 140.506 55.9333 139.572 55.32C138.639 54.7067 137.506 54.4 136.172 54.4C134.652 54.4 133.346 54.7333 132.252 55.4C131.186 56.0667 130.372 56.9867 129.812 58.16C129.252 59.3067 128.972 60.6133 128.972 62.08C128.972 63.5467 129.306 64.8533 129.972 66C130.639 67.1467 131.559 68.0533 132.732 68.72C133.906 69.3867 135.252 69.72 136.772 69.72C137.599 69.72 138.439 69.5733 139.292 69.28C140.172 68.96 140.879 68.6 141.412 68.2C141.812 67.9067 142.239 67.76 142.692 67.76C143.172 67.7333 143.586 67.8667 143.932 68.16C144.386 68.56 144.626 69 144.652 69.48C144.679 69.96 144.466 70.3733 144.012 70.72C143.106 71.44 141.972 72.0267 140.612 72.48C139.279 72.9333 137.999 73.16 136.772 73.16ZM168.216 73.04C167.629 73.04 167.136 72.8533 166.736 72.48C166.363 72.08 166.176 71.5867 166.176 71V61.16C166.176 59.64 165.896 58.4 165.336 57.44C164.776 56.48 164.016 55.7733 163.056 55.32C162.123 54.84 161.043 54.6 159.816 54.6C158.696 54.6 157.683 54.8267 156.776 55.28C155.869 55.7333 155.149 56.3467 154.616 57.12C154.083 57.8667 153.816 58.7333 153.816 59.72H151.296C151.296 58.04 151.696 56.5467 152.496 55.24C153.323 53.9067 154.443 52.8533 155.856 52.08C157.269 51.3067 158.856 50.92 160.616 50.92C162.456 50.92 164.096 51.32 165.536 52.12C167.003 52.8933 168.149 54.04 168.976 55.56C169.829 57.08 170.256 58.9467 170.256 61.16V71C170.256 71.5867 170.056 72.08 169.656 72.48C169.283 72.8533 168.803 73.04 168.216 73.04ZM151.776 73.04C151.189 73.04 150.696 72.8533 150.296 72.48C149.923 72.08 149.736 71.5867 149.736 71V53.16C149.736 52.5467 149.923 52.0533 150.296 51.68C150.696 51.3067 151.189 51.12 151.776 51.12C152.389 51.12 152.883 51.3067 153.256 51.68C153.629 52.0533 153.816 52.5467 153.816 53.16V71C153.816 71.5867 153.629 72.08 153.256 72.48C152.883 72.8533 152.389 73.04 151.776 73.04ZM184.68 73C183.934 73 183.36 72.68 182.96 72.04C182.56 71.4 182.52 70.72 182.84 70L194.08 43.16C194.48 42.2267 195.134 41.76 196.04 41.76C197 41.76 197.654 42.2267 198 43.16L209.28 70.08C209.574 70.8267 209.52 71.5067 209.12 72.12C208.747 72.7067 208.174 73 207.4 73C207 73 206.614 72.8933 206.24 72.68C205.894 72.44 205.64 72.12 205.48 71.72L195.56 47.08H196.68L186.6 71.72C186.414 72.1467 186.134 72.4667 185.76 72.68C185.414 72.8933 185.054 73 184.68 73ZM186.8 66.12L188.4 62.68H204.08L205.68 66.12H186.8ZM214.525 73C213.939 73 213.445 72.8 213.045 72.4C212.645 72 212.445 71.5067 212.445 70.92V43.84C212.445 43.2267 212.645 42.7333 213.045 42.36C213.445 41.96 213.939 41.76 214.525 41.76C215.139 41.76 215.632 41.96 216.005 42.36C216.405 42.7333 216.605 43.2267 216.605 43.84V70.92C216.605 71.5067 216.405 72 216.005 72.4C215.632 72.8 215.139 73 214.525 73ZM247.113 73.4C244.953 73.4 242.926 73 241.033 72.2C239.166 71.3733 237.526 70.24 236.113 68.8C234.726 67.3333 233.633 65.6267 232.833 63.68C232.059 61.7333 231.673 59.6267 231.673 57.36C231.673 55.12 232.059 53.04 232.833 51.12C233.633 49.1733 234.726 47.48 236.113 46.04C237.526 44.5733 239.166 43.4267 241.033 42.6C242.899 41.7733 244.926 41.36 247.113 41.36C249.166 41.36 250.926 41.6267 252.393 42.16C253.886 42.6933 255.379 43.5733 256.873 44.8C257.086 44.96 257.246 45.1333 257.353 45.32C257.486 45.48 257.566 45.6533 257.593 45.84C257.646 46 257.673 46.2 257.673 46.44C257.673 46.9467 257.486 47.3733 257.113 47.72C256.766 48.04 256.339 48.2267 255.833 48.28C255.326 48.3067 254.833 48.1333 254.353 47.76C253.366 46.9067 252.339 46.2533 251.273 45.8C250.233 45.3467 248.846 45.12 247.113 45.12C245.539 45.12 244.059 45.44 242.673 46.08C241.286 46.72 240.059 47.6 238.993 48.72C237.953 49.84 237.139 51.1467 236.553 52.64C235.966 54.1067 235.673 55.68 235.673 57.36C235.673 59.0667 235.966 60.6667 236.553 62.16C237.139 63.6267 237.953 64.92 238.993 66.04C240.059 67.16 241.286 68.04 242.673 68.68C244.059 69.2933 245.539 69.6 247.113 69.6C248.473 69.6 249.753 69.3733 250.953 68.92C252.179 68.44 253.353 67.7867 254.473 66.96C254.953 66.6133 255.419 66.4667 255.873 66.52C256.353 66.5467 256.753 66.7333 257.073 67.08C257.393 67.4 257.553 67.8533 257.553 68.44C257.553 68.7067 257.499 68.9733 257.393 69.24C257.286 69.48 257.126 69.7067 256.913 69.92C255.473 71.0667 253.926 71.9333 252.273 72.52C250.646 73.1067 248.926 73.4 247.113 73.4ZM267.406 73C266.233 73 265.193 72.68 264.286 72.04C263.38 71.4 262.673 70.5333 262.166 69.44C261.66 68.32 261.406 67.04 261.406 65.6V43.76C261.406 43.1733 261.593 42.6933 261.966 42.32C262.34 41.9467 262.82 41.76 263.406 41.76C263.993 41.76 264.473 41.9467 264.846 42.32C265.22 42.6933 265.406 43.1733 265.406 43.76V65.6C265.406 66.5867 265.593 67.4 265.966 68.04C266.34 68.68 266.82 69 267.406 69H268.406C268.94 69 269.366 69.1867 269.686 69.56C270.033 69.9333 270.206 70.4133 270.206 71C270.206 71.5867 269.953 72.0667 269.446 72.44C268.94 72.8133 268.286 73 267.486 73H267.406ZM280.508 73.16C278.561 73.16 276.814 72.68 275.268 71.72C273.721 70.7333 272.494 69.4133 271.588 67.76C270.708 66.08 270.268 64.1867 270.268 62.08C270.268 59.9733 270.748 58.08 271.708 56.4C272.694 54.72 274.014 53.4 275.668 52.44C277.348 51.4533 279.228 50.96 281.308 50.96C283.388 50.96 285.254 51.4533 286.908 52.44C288.561 53.4 289.868 54.72 290.828 56.4C291.814 58.08 292.308 59.9733 292.308 62.08H290.748C290.748 64.1867 290.294 66.08 289.388 67.76C288.508 69.4133 287.294 70.7333 285.748 71.72C284.201 72.68 282.454 73.16 280.508 73.16ZM281.308 69.56C282.668 69.56 283.881 69.24 284.948 68.6C286.014 67.9333 286.854 67.04 287.468 65.92C288.081 64.7733 288.388 63.4933 288.388 62.08C288.388 60.64 288.081 59.36 287.468 58.24C286.854 57.0933 286.014 56.2 284.948 55.56C283.881 54.8933 282.668 54.56 281.308 54.56C279.974 54.56 278.761 54.8933 277.668 55.56C276.601 56.2 275.748 57.0933 275.108 58.24C274.494 59.36 274.188 60.64 274.188 62.08C274.188 63.4933 274.494 64.7733 275.108 65.92C275.748 67.04 276.601 67.9333 277.668 68.6C278.761 69.24 279.974 69.56 281.308 69.56ZM290.268 73.04C289.681 73.04 289.188 72.8533 288.788 72.48C288.414 72.08 288.228 71.5867 288.228 71V64.88L288.988 60.64L292.308 62.08V71C292.308 71.5867 292.108 72.08 291.708 72.48C291.334 72.8533 290.854 73.04 290.268 73.04ZM304.74 73.16C302.873 73.16 301.14 72.88 299.54 72.32C297.966 71.7333 296.74 71 295.86 70.12C295.46 69.6933 295.286 69.2133 295.34 68.68C295.42 68.12 295.686 67.6667 296.14 67.32C296.673 66.8933 297.193 66.72 297.7 66.8C298.233 66.8533 298.686 67.08 299.06 67.48C299.513 67.9867 300.233 68.4667 301.22 68.92C302.233 69.3467 303.353 69.56 304.58 69.56C306.126 69.56 307.3 69.3067 308.1 68.8C308.926 68.2933 309.353 67.64 309.38 66.84C309.406 66.04 309.02 65.3467 308.22 64.76C307.446 64.1733 306.02 63.6933 303.94 63.32C301.246 62.7867 299.286 61.9867 298.06 60.92C296.86 59.8533 296.26 58.5467 296.26 57C296.26 55.64 296.66 54.52 297.46 53.64C298.26 52.7333 299.286 52.0667 300.54 51.64C301.793 51.1867 303.1 50.96 304.46 50.96C306.22 50.96 307.78 51.24 309.14 51.8C310.5 52.36 311.58 53.1333 312.38 54.12C312.753 54.5467 312.926 55 312.9 55.48C312.873 55.9333 312.646 56.32 312.22 56.64C311.793 56.9333 311.286 57.0267 310.7 56.92C310.113 56.8133 309.62 56.5733 309.22 56.2C308.553 55.56 307.833 55.12 307.06 54.88C306.286 54.64 305.393 54.52 304.38 54.52C303.206 54.52 302.206 54.72 301.38 55.12C300.58 55.52 300.18 56.1067 300.18 56.88C300.18 57.36 300.3 57.8 300.54 58.2C300.806 58.5733 301.313 58.92 302.06 59.24C302.806 59.5333 303.9 59.8267 305.34 60.12C307.34 60.52 308.913 61.0267 310.06 61.64C311.233 62.2533 312.073 62.9733 312.58 63.8C313.086 64.6 313.34 65.5333 313.34 66.6C313.34 67.8267 313.006 68.9333 312.34 69.92C311.7 70.9067 310.74 71.6933 309.46 72.28C308.206 72.8667 306.633 73.16 304.74 73.16ZM324.858 73.16C322.992 73.16 321.258 72.88 319.658 72.32C318.085 71.7333 316.858 71 315.978 70.12C315.578 69.6933 315.405 69.2133 315.458 68.68C315.538 68.12 315.805 67.6667 316.258 67.32C316.792 66.8933 317.312 66.72 317.818 66.8C318.352 66.8533 318.805 67.08 319.178 67.48C319.632 67.9867 320.352 68.4667 321.338 68.92C322.352 69.3467 323.472 69.56 324.698 69.56C326.245 69.56 327.418 69.3067 328.218 68.8C329.045 68.2933 329.472 67.64 329.498 66.84C329.525 66.04 329.138 65.3467 328.338 64.76C327.565 64.1733 326.138 63.6933 324.058 63.32C321.365 62.7867 319.405 61.9867 318.178 60.92C316.978 59.8533 316.378 58.5467 316.378 57C316.378 55.64 316.778 54.52 317.578 53.64C318.378 52.7333 319.405 52.0667 320.658 51.64C321.912 51.1867 323.218 50.96 324.578 50.96C326.338 50.96 327.898 51.24 329.258 51.8C330.618 52.36 331.698 53.1333 332.498 54.12C332.872 54.5467 333.045 55 333.018 55.48C332.992 55.9333 332.765 56.32 332.338 56.64C331.912 56.9333 331.405 57.0267 330.818 56.92C330.232 56.8133 329.738 56.5733 329.338 56.2C328.672 55.56 327.952 55.12 327.178 54.88C326.405 54.64 325.512 54.52 324.498 54.52C323.325 54.52 322.325 54.72 321.498 55.12C320.698 55.52 320.298 56.1067 320.298 56.88C320.298 57.36 320.418 57.8 320.658 58.2C320.925 58.5733 321.432 58.92 322.178 59.24C322.925 59.5333 324.018 59.8267 325.458 60.12C327.458 60.52 329.032 61.0267 330.178 61.64C331.352 62.2533 332.192 62.9733 332.698 63.8C333.205 64.6 333.458 65.5333 333.458 66.6C333.458 67.8267 333.125 68.9333 332.458 69.92C331.818 70.9067 330.858 71.6933 329.578 72.28C328.325 72.8667 326.752 73.16 324.858 73.16ZM338.977 59.32C338.977 57.72 339.364 56.2933 340.137 55.04C340.937 53.76 342.004 52.7467 343.337 52C344.671 51.2533 346.137 50.88 347.737 50.88C349.337 50.88 350.524 51.1467 351.297 51.68C352.097 52.1867 352.404 52.8 352.217 53.52C352.137 53.8933 351.977 54.1867 351.737 54.4C351.524 54.5867 351.271 54.7067 350.977 54.76C350.684 54.8133 350.364 54.8 350.017 54.72C348.311 54.3733 346.777 54.3467 345.417 54.64C344.057 54.9333 342.977 55.48 342.177 56.28C341.404 57.08 341.017 58.0933 341.017 59.32H338.977ZM339.017 73C338.377 73 337.884 72.84 337.537 72.52C337.191 72.1733 337.017 71.6667 337.017 71V53.12C337.017 52.48 337.191 51.9867 337.537 51.64C337.884 51.2933 338.377 51.12 339.017 51.12C339.684 51.12 340.177 51.2933 340.497 51.64C340.844 51.96 341.017 52.4533 341.017 53.12V71C341.017 71.64 340.844 72.1333 340.497 72.48C340.177 72.8267 339.684 73 339.017 73ZM363.189 73.16C361.029 73.16 359.122 72.6933 357.469 71.76C355.815 70.8 354.509 69.4933 353.549 67.84C352.615 66.16 352.149 64.24 352.149 62.08C352.149 59.8933 352.615 57.9733 353.549 56.32C354.509 54.64 355.815 53.3333 357.469 52.4C359.122 51.44 361.029 50.96 363.189 50.96C365.322 50.96 367.215 51.44 368.869 52.4C370.522 53.3333 371.815 54.64 372.749 56.32C373.709 57.9733 374.189 59.8933 374.189 62.08C374.189 64.24 373.722 66.16 372.789 67.84C371.855 69.4933 370.562 70.8 368.909 71.76C367.255 72.6933 365.349 73.16 363.189 73.16ZM363.189 69.56C364.575 69.56 365.802 69.24 366.869 68.6C367.935 67.96 368.762 67.08 369.349 65.96C369.962 64.84 370.269 63.5467 370.269 62.08C370.269 60.6133 369.962 59.32 369.349 58.2C368.762 57.0533 367.935 56.16 366.869 55.52C365.802 54.88 364.575 54.56 363.189 54.56C361.802 54.56 360.575 54.88 359.509 55.52C358.442 56.16 357.602 57.0533 356.989 58.2C356.375 59.32 356.069 60.6133 356.069 62.08C356.069 63.5467 356.375 64.84 356.989 65.96C357.602 67.08 358.442 67.96 359.509 68.6C360.575 69.24 361.802 69.56 363.189 69.56ZM388.581 73.16C386.421 73.16 384.514 72.6933 382.861 71.76C381.208 70.8 379.901 69.4933 378.941 67.84C378.008 66.16 377.541 64.24 377.541 62.08C377.541 59.8933 378.008 57.9733 378.941 56.32C379.901 54.64 381.208 53.3333 382.861 52.4C384.514 51.44 386.421 50.96 388.581 50.96C390.714 50.96 392.608 51.44 394.261 52.4C395.914 53.3333 397.208 54.64 398.141 56.32C399.101 57.9733 399.581 59.8933 399.581 62.08C399.581 64.24 399.114 66.16 398.181 67.84C397.248 69.4933 395.954 70.8 394.301 71.76C392.648 72.6933 390.741 73.16 388.581 73.16ZM388.581 69.56C389.968 69.56 391.194 69.24 392.261 68.6C393.328 67.96 394.154 67.08 394.741 65.96C395.354 64.84 395.661 63.5467 395.661 62.08C395.661 60.6133 395.354 59.32 394.741 58.2C394.154 57.0533 393.328 56.16 392.261 55.52C391.194 54.88 389.968 54.56 388.581 54.56C387.194 54.56 385.968 54.88 384.901 55.52C383.834 56.16 382.994 57.0533 382.381 58.2C381.768 59.32 381.461 60.6133 381.461 62.08C381.461 63.5467 381.768 64.84 382.381 65.96C382.994 67.08 383.834 67.96 384.901 68.6C385.968 69.24 387.194 69.56 388.581 69.56ZM432.773 73.04C432.186 73.04 431.693 72.8533 431.293 72.48C430.92 72.08 430.733 71.5867 430.733 71V59.56C430.733 57.88 430.32 56.64 429.493 55.84C428.666 55.0133 427.586 54.6 426.253 54.6C424.866 54.6 423.72 55.08 422.813 56.04C421.933 57 421.493 58.2267 421.493 59.72H418.173C418.173 57.9867 418.546 56.4667 419.293 55.16C420.04 53.8267 421.08 52.7867 422.413 52.04C423.773 51.2933 425.32 50.92 427.053 50.92C428.573 50.92 429.92 51.2533 431.093 51.92C432.266 52.5867 433.173 53.5733 433.813 54.88C434.48 56.16 434.813 57.72 434.813 59.56V71C434.813 71.5867 434.626 72.08 434.253 72.48C433.88 72.8533 433.386 73.04 432.773 73.04ZM406.093 73.04C405.506 73.04 405.013 72.8533 404.613 72.48C404.24 72.08 404.053 71.5867 404.053 71V53.2C404.053 52.5867 404.24 52.0933 404.613 51.72C405.013 51.3467 405.506 51.16 406.093 51.16C406.706 51.16 407.2 51.3467 407.573 51.72C407.946 52.0933 408.133 52.5867 408.133 53.2V71C408.133 71.5867 407.946 72.08 407.573 72.48C407.2 72.8533 406.706 73.04 406.093 73.04ZM419.453 73.04C418.866 73.04 418.373 72.8533 417.973 72.48C417.6 72.08 417.413 71.5867 417.413 71V59.56C417.413 57.88 417 56.64 416.173 55.84C415.346 55.0133 414.266 54.6 412.933 54.6C411.546 54.6 410.4 55.08 409.493 56.04C408.586 57 408.133 58.2267 408.133 59.72H405.613C405.613 57.9867 405.96 56.4667 406.653 55.16C407.346 53.8267 408.306 52.7867 409.533 52.04C410.76 51.2933 412.16 50.92 413.733 50.92C415.253 50.92 416.6 51.2533 417.773 51.92C418.946 52.5867 419.853 53.5733 420.493 54.88C421.16 56.16 421.493 57.72 421.493 59.56V71C421.493 71.5867 421.306 72.08 420.933 72.48C420.56 72.8533 420.066 73.04 419.453 73.04Z" fill="white"/>
<path fill-rule="evenodd" clip-rule="evenodd" d="M23.9645 60.7392C25.2251 61.4368 26.7715 60.5251 26.7715 59.0845V41.278C26.7715 39.2015 25.1377 37.5183 23.1223 37.5183H17.0323C15.0169 37.5183 13.3831 39.2015 13.3831 41.2779V53.7687C13.3831 54.4566 13.7566 55.0903 14.3586 55.4234L23.9645 60.7392Z" fill="#0C3F8B"/>
<path d="M42.022 62.558C42.6136 62.2219 42.979 61.594 42.979 60.9136V23.8405C42.979 21.764 41.3452 20.0808 39.3298 20.0808H33.2477C31.2323 20.0808 29.5985 21.764 29.5985 23.8405V63.3373C29.5985 63.6294 29.7554 63.8989 30.0093 64.0432V64.0432C32.9345 65.7052 36.4827 65.7052 39.4079 64.0432L42.022 62.558Z" fill="#F2B926"/>
<path d="M58.7085 53.2795C58.984 52.9659 59.1174 52.5562 59.1174 52.1388V31.3604C59.1174 29.2839 57.4836 27.6007 55.4682 27.6007H49.4666C47.4512 27.6007 45.8174 29.2839 45.8174 31.3603V58.1735C45.8174 59.6399 47.4139 60.5484 48.6746 59.7994L56.3553 55.2362C57.2471 54.7064 58.0375 54.0434 58.7085 53.2795Z" fill="#59BC49"/>
<path fill-rule="evenodd" clip-rule="evenodd" d="M27.5421 78.1908L8.07953 66.557C3.07825 63.5675 0 58.0609 0 52.1038V28.7907C0 22.8336 3.07825 17.327 8.07953 14.3375L27.5421 2.70375C32.5754 -0.304899 38.7874 -0.304896 43.8207 2.70376L63.2833 14.3375C68.2846 17.327 71.3628 22.8336 71.3628 28.7907V52.1038C71.3628 58.0609 68.2846 63.5675 63.2833 66.557L43.8207 78.1908C38.7874 81.1994 32.5754 81.1994 27.5421 78.1908ZM40.565 8.48502L60.0276 20.1188C63.0283 21.9125 64.8753 25.2165 64.8753 28.7907V52.1038C64.8753 55.6781 63.0283 58.982 60.0276 60.7757L40.565 72.4095C37.545 74.2147 33.8178 74.2147 30.7978 72.4095L11.3352 60.7757C8.33448 58.982 6.48753 55.6781 6.48753 52.1038V28.7907C6.48753 25.2165 8.33448 21.9125 11.3352 20.1188L30.7978 8.48502C33.8178 6.67983 37.545 6.67983 40.565 8.48502Z" fill="white"/>
</svg>
