<svg width="122" height="122" viewBox="0 0 122 122" fill="none" xmlns="http://www.w3.org/2000/svg">
<path d="M27.1547 78.5826C18.8707 78.2635 12.252 71.4503 12.252 63.086C12.252 54.7642 18.8073 47.9745 27.0353 47.5944C26.0781 45.1872 25.5478 42.5666 25.5478 39.8192C25.5478 28.194 34.9723 18.7695 46.5975 18.7695C55.9798 18.7695 63.926 24.9094 66.6428 33.3908C69.3247 31.1783 72.7616 29.8481 76.511 29.8481C86.0012 29.8481 93.3052 38.3156 91.8361 47.761C101.262 46.289 109.747 53.5846 109.747 63.086C109.747 71.6521 102.802 78.5965 94.2362 78.5965C94.2094 78.5967 27.1784 78.5826 27.1547 78.5826Z" fill="white"/>
<path d="M85.0481 102.762V109.2C85.0481 111.086 83.5184 112.616 81.6321 112.616H72.698C70.8117 112.616 69.2817 111.086 69.2817 109.2V102.762H85.0481Z" fill="#DAEEFF"/>
<path d="M85.0484 60.8498V67.2877H69.2822V66.7621V60.8498C69.2822 58.9633 70.8119 57.4336 72.6985 57.4336H81.6326C83.5187 57.4338 85.0484 58.9635 85.0484 60.8498Z" fill="#DAEEFF"/>
<path d="M85.0481 100.786V102.761H69.282V96.8487V79.1117V67.2871H85.0481V78.5932V84.0903V100.786Z" fill="white"/>
<path d="M69.2819 102.76V109.198C69.2819 111.084 67.7523 112.614 65.8659 112.614H58.9026C57.0163 112.614 55.4863 111.084 55.4863 109.198V108.147V102.76V96.8477H69.2817V102.76H69.2819Z" fill="#DAEEFF"/>
<path d="M69.2817 67.2872V79.1119H55.4863V66.7617C55.4863 64.8754 57.016 63.3457 58.9026 63.3457H65.866C67.7523 63.3457 69.282 64.8754 69.282 66.7617V67.2872H69.2817Z" fill="#DAEEFF"/>
<path d="M55.4863 79.1113H69.2817V96.8483H55.4863V79.1113Z" fill="white"/>
<path d="M55.4865 102.762V108.148C55.4865 110.617 53.4852 112.616 51.0194 112.616H40.2459C37.7777 112.616 35.7788 110.617 35.7788 108.148V102.762H55.4865Z" fill="#DAEEFF"/>
<path d="M55.4866 55.9886V65.3169H35.7789V55.9886C35.7789 53.5204 37.7779 51.5215 40.246 51.5215H51.0195C53.4854 51.5215 55.4866 53.5204 55.4866 55.9886Z" fill="#DAEEFF"/>
<path d="M55.4865 66.7616V79.1118V96.8487V102.761H35.7788V78.5839V65.3164H55.4865V66.7616Z" fill="white"/>
<path d="M22.875 90.3262C25.4652 90.3262 27.5674 92.426 27.5674 95.0185C27.5674 97.611 25.4652 99.7108 22.875 99.7108C20.2825 99.7108 18.1827 97.611 18.1827 95.0185C18.1827 92.426 20.2825 90.3262 22.875 90.3262Z" fill="white"/>
<path d="M102.644 30.4992C107.179 30.4992 110.856 26.8228 110.856 22.2877C110.856 17.7526 107.179 14.0762 102.644 14.0762C98.1092 14.0762 94.4327 17.7526 94.4327 22.2877C94.4327 26.8228 98.1092 30.4992 102.644 30.4992Z" fill="#DAEEFF"/>
<path d="M110.269 85.6345C111.241 85.6345 112.029 84.8467 112.029 83.8748C112.029 82.903 111.241 82.1152 110.269 82.1152C109.297 82.1152 108.51 82.903 108.51 83.8748C108.51 84.8467 109.297 85.6345 110.269 85.6345Z" fill="#1570EF"/>
<path d="M103.231 41.0583C104.203 41.0583 104.99 40.2705 104.99 39.2987C104.99 38.3269 104.203 37.5391 103.231 37.5391C102.259 37.5391 101.471 38.3269 101.471 39.2987C101.471 40.2705 102.259 41.0583 103.231 41.0583Z" fill="#1570EF"/>
<path d="M99.7116 100.297C100.683 100.297 101.471 99.5088 101.471 98.537C101.471 97.5652 100.683 96.7773 99.7116 96.7773C98.7398 96.7773 97.952 97.5652 97.952 98.537C97.952 99.5088 98.7398 100.297 99.7116 100.297Z" fill="#1570EF"/>
<path d="M79.7693 17.5954C80.7411 17.5954 81.5289 16.8076 81.5289 15.8358C81.5289 14.864 80.7411 14.0762 79.7693 14.0762C78.7975 14.0762 78.0096 14.864 78.0096 15.8358C78.0096 16.8076 78.7975 17.5954 79.7693 17.5954Z" fill="#1570EF"/>
<path d="M21.1154 112.615C22.0873 112.615 22.8751 111.827 22.8751 110.855C22.8751 109.884 22.0873 109.096 21.1154 109.096C20.1436 109.096 19.3558 109.884 19.3558 110.855C19.3558 111.827 20.1436 112.615 21.1154 112.615Z" fill="#1570EF"/>
<path d="M18.7693 11.7302C19.7411 11.7302 20.5289 10.9424 20.5289 9.97055C20.5289 8.99874 19.7411 8.21094 18.7693 8.21094C17.7974 8.21094 17.0096 8.99874 17.0096 9.97055C17.0096 10.9424 17.7974 11.7302 18.7693 11.7302Z" fill="#1570EF"/>
<path d="M14.077 84.4606C15.0488 84.4606 15.8366 83.6728 15.8366 82.701C15.8366 81.7292 15.0488 80.9414 14.077 80.9414C13.1052 80.9414 12.3174 81.7292 12.3174 82.701C12.3174 83.6728 13.1052 84.4606 14.077 84.4606Z" fill="#1570EF"/>
<path d="M11.7308 34.0192C12.7026 34.0192 13.4904 33.2314 13.4904 32.2596C13.4904 31.2878 12.7026 30.5 11.7308 30.5C10.759 30.5 9.97119 31.2878 9.97119 32.2596C9.97119 33.2314 10.759 34.0192 11.7308 34.0192Z" fill="#1570EF"/>
<path d="M51.0195 113.788H40.246C37.1359 113.788 34.6058 111.258 34.6058 108.148V55.9878C34.6058 52.8777 37.1359 50.3477 40.246 50.3477H51.0195C54.1296 50.3477 56.6597 52.8777 56.6597 55.9878V66.7611C56.6597 67.4091 56.1346 67.9342 55.4866 67.9342C54.8388 67.9342 54.3135 67.4091 54.3135 66.7611V55.9878C54.3135 54.1714 52.8359 52.6938 51.0195 52.6938H40.246C38.4298 52.6938 36.952 54.1714 36.952 55.9878V108.148C36.952 109.964 38.4298 111.442 40.246 111.442H51.0195C52.8359 111.442 54.3135 109.964 54.3135 108.148C54.3135 107.499 54.8388 106.974 55.4866 106.974C56.1346 106.974 56.6597 107.499 56.6597 108.148C56.6597 111.258 54.1296 113.788 51.0195 113.788Z" fill="#1570EF"/>
<path d="M65.8662 113.787H58.9028C56.3722 113.787 54.3135 111.729 54.3135 109.198V66.761C54.3135 64.2306 56.372 62.1719 58.9028 62.1719H65.8662C68.3965 62.1719 70.4552 64.2304 70.4552 66.761C70.4552 67.409 69.9302 67.934 69.2822 67.934C68.6344 67.934 68.1091 67.409 68.1091 66.761C68.1091 65.5241 67.1031 64.518 65.8662 64.518H58.9028C57.6661 64.518 56.6596 65.5241 56.6596 66.761V109.198C56.6596 110.435 57.6659 111.441 58.9028 111.441H65.8662C67.1028 111.441 68.1091 110.435 68.1091 109.198C68.1091 108.55 68.6344 108.025 69.2822 108.025C69.9302 108.025 70.4552 108.55 70.4552 109.198C70.4552 111.729 68.3965 113.787 65.8662 113.787Z" fill="#1570EF"/>
<path d="M81.6319 113.788H72.6977C70.1671 113.788 68.1084 111.729 68.1084 109.199V60.8491C68.1084 58.3185 70.1669 56.2598 72.6977 56.2598H81.6319C84.1622 56.2598 86.2209 58.3185 86.2209 60.8491V109.199C86.2209 111.729 84.1624 113.788 81.6319 113.788ZM72.6977 58.6062C71.461 58.6062 70.4546 59.6124 70.4546 60.8493V109.199C70.4546 110.436 71.4608 111.442 72.6977 111.442H81.6319C82.8685 111.442 83.8748 110.436 83.8748 109.199V60.8491C83.8748 59.6122 82.8688 58.6059 81.6319 58.6059H72.6977V58.6062Z" fill="#1570EF"/>
<path d="M55.4866 66.4887H35.7789C35.1311 66.4887 34.6058 65.9637 34.6058 65.3157C34.6058 64.6676 35.1311 64.1426 35.7789 64.1426H55.4866C56.1346 64.1426 56.6597 64.6676 56.6597 65.3157C56.6597 65.9637 56.1346 66.4887 55.4866 66.4887Z" fill="#1570EF"/>
<path d="M55.4866 103.934H35.7789C35.1311 103.934 34.6058 103.409 34.6058 102.761C34.6058 102.113 35.1311 101.588 35.7789 101.588H55.4866C56.1346 101.588 56.6597 102.113 56.6597 102.761C56.6597 103.409 56.1346 103.934 55.4866 103.934Z" fill="#1570EF"/>
<path d="M69.2819 80.2836H55.4866C54.8388 80.2836 54.3135 79.7586 54.3135 79.1106C54.3135 78.4626 54.8388 77.9375 55.4866 77.9375H69.2819C69.93 77.9375 70.455 78.4626 70.455 79.1106C70.455 79.7586 69.9297 80.2836 69.2819 80.2836Z" fill="#1570EF"/>
<path d="M85.0481 68.4594H69.282C68.6342 68.4594 68.1089 67.9344 68.1089 67.2864C68.1089 66.6384 68.6342 66.1133 69.282 66.1133H85.0481C85.6961 66.1133 86.2212 66.6384 86.2212 67.2864C86.2212 67.9341 85.6961 68.4594 85.0481 68.4594Z" fill="#1570EF"/>
<path d="M85.0481 103.934H69.282C68.6342 103.934 68.1089 103.409 68.1089 102.761C68.1089 102.113 68.6342 101.588 69.282 101.588H85.0481C85.6961 101.588 86.2212 102.113 86.2212 102.761C86.2212 103.409 85.6961 103.934 85.0481 103.934Z" fill="#1570EF"/>
<path d="M69.2819 98.0219H55.4866C54.8388 98.0219 54.3135 97.4969 54.3135 96.8489C54.3135 96.2009 54.8388 95.6758 55.4866 95.6758H69.2819C69.93 95.6758 70.455 96.2009 70.455 96.8489C70.455 97.4966 69.9297 98.0219 69.2819 98.0219Z" fill="#1570EF"/>
<path d="M41.6911 88.1689C41.0431 88.1689 40.5181 87.6438 40.5181 86.9958V73.2004C40.5181 72.5524 41.0431 72.0273 41.6911 72.0273C42.3389 72.0273 42.8642 72.5524 42.8642 73.2004V86.9958C42.8642 87.6436 42.3389 88.1689 41.6911 88.1689Z" fill="#1570EF"/>
<path d="M79.1361 75.0766H75.1946C74.5468 75.0766 74.0215 74.5516 74.0215 73.9035C74.0215 73.2555 74.5468 72.7305 75.1946 72.7305H79.1361C79.7841 72.7305 80.3092 73.2555 80.3092 73.9035C80.3092 74.5516 79.7839 75.0766 79.1361 75.0766Z" fill="#1570EF"/>
<path d="M79.1361 79.768H75.1946C74.5468 79.768 74.0215 79.243 74.0215 78.595C74.0215 77.9469 74.5468 77.4219 75.1946 77.4219H79.1361C79.7841 77.4219 80.3092 77.9469 80.3092 78.595C80.3092 79.243 79.7839 79.768 79.1361 79.768Z" fill="#1570EF"/>
<path d="M79.1361 84.4614H75.1946C74.5468 84.4614 74.0215 83.9363 74.0215 83.2883C74.0215 82.6403 74.5468 82.1152 75.1946 82.1152H79.1361C79.7841 82.1152 80.3092 82.6403 80.3092 83.2883C80.3092 83.9363 79.7839 84.4614 79.1361 84.4614Z" fill="#1570EF"/>
<path d="M19.8914 44.3704C19.3091 44.3704 18.8039 43.9371 18.7291 43.3442C18.5827 42.1866 18.5088 41.0004 18.5088 39.8186C18.5088 24.3307 31.109 11.7305 46.5967 11.7305C56.2302 11.7305 65.067 16.5504 70.2344 24.6238C70.5835 25.1695 70.4247 25.8949 69.8788 26.2442C69.333 26.5934 68.6076 26.4343 68.2583 25.8886C63.5244 18.4923 55.4264 14.0766 46.5967 14.0766C32.4025 14.0766 20.8547 25.6244 20.8547 39.8186C20.8547 40.9025 20.9225 41.9898 21.0565 43.05C21.1377 43.6928 20.6823 44.2796 20.0397 44.3608C19.9899 44.3671 19.9404 44.3704 19.8914 44.3704Z" fill="#1570EF"/>
<path d="M34.6842 40.8512C34.1023 40.8512 33.5972 40.4183 33.5219 39.8259C33.4628 39.3607 33.4327 38.879 33.4327 38.3945C33.4327 32.1007 38.552 26.9805 44.8447 26.9805C48.7571 26.9805 52.3477 28.9393 54.4496 32.2201C54.7992 32.7656 54.6403 33.491 54.0946 33.8406C53.5489 34.1902 52.8235 34.0311 52.4741 33.4856C50.8058 30.8814 47.9533 29.3266 44.8444 29.3266C39.8455 29.3266 35.7787 33.3944 35.7787 38.3945C35.7787 38.7804 35.8026 39.1624 35.849 39.53C35.9309 40.1729 35.476 40.7599 34.8334 40.8415C34.7834 40.8479 34.7334 40.8512 34.6842 40.8512Z" fill="#1570EF"/>
<path d="M94.2354 79.7688L85.0477 79.7664C84.3997 79.7662 83.8748 79.2409 83.8748 78.5931C83.8751 77.9454 84.4001 77.4203 85.0479 77.4203H85.0484L94.2359 77.4226C102.141 77.4226 108.573 70.9909 108.573 63.0853C108.573 55.1797 102.141 48.7479 94.2354 48.7479C93.4908 48.7479 92.744 48.8056 92.0164 48.9192C91.646 48.9776 91.2708 48.8547 91.006 48.59C90.7411 48.3254 90.6186 47.95 90.6763 47.58C90.7899 46.8492 90.8474 46.1017 90.8474 45.358C90.8474 37.4524 84.4158 31.0206 76.5102 31.0206C73.1876 31.0206 69.9483 32.1836 67.3889 34.2952C67.0886 34.5427 66.6848 34.6253 66.3117 34.5159C65.9385 34.4064 65.6436 34.1187 65.5248 33.748C62.88 25.49 55.2733 19.9419 46.5968 19.9419C35.6367 19.9419 26.7202 28.8584 26.7202 39.8185C26.7202 42.3467 27.1927 44.8167 28.1243 47.1601C28.2646 47.5124 28.2257 47.9108 28.0202 48.2297C27.8144 48.5483 27.4676 48.7479 27.0885 48.7655C19.4264 49.1196 13.4243 55.4094 13.4243 63.0853C13.4243 70.813 19.4633 77.1005 27.1772 77.4088L35.7789 77.4111C36.4267 77.4114 36.9517 77.9367 36.9515 78.5844C36.9513 79.2324 36.4262 79.7573 35.7784 79.7573H35.7782L27.1535 79.7549C27.1387 79.7549 27.1237 79.7547 27.1089 79.754C18.1199 79.4077 11.0781 72.0858 11.0781 63.0853C11.0781 54.6809 17.2624 47.7044 25.4213 46.566C24.7257 44.3876 24.374 42.1245 24.374 39.8185C24.374 27.5647 34.3431 17.5957 46.5968 17.5957C55.7524 17.5957 63.8431 23.1223 67.2096 31.5063C69.9462 29.6709 73.1925 28.6742 76.5102 28.6742C85.7095 28.6742 93.1935 36.1585 93.1935 45.3577C93.1935 45.7169 93.182 46.0771 93.159 46.4363C93.517 46.4133 93.8767 46.4018 94.2354 46.4018C103.435 46.4018 110.919 53.886 110.919 63.0853C110.919 72.2845 103.435 79.7688 94.2354 79.7688Z" fill="#1570EF"/>
<path d="M102.644 31.6716C97.4696 31.6716 93.2596 27.4616 93.2596 22.287C93.2596 17.1123 97.4696 12.9023 102.644 12.9023C107.819 12.9023 112.029 17.1123 112.029 22.287C112.029 27.4616 107.819 31.6716 102.644 31.6716ZM102.644 15.2485C98.7633 15.2485 95.6058 18.406 95.6058 22.287C95.6058 26.168 98.7633 29.3254 102.644 29.3254C106.525 29.3254 109.683 26.168 109.683 22.287C109.683 18.406 106.525 15.2485 102.644 15.2485Z" fill="#1570EF"/>
<path d="M22.875 100.883C19.6409 100.883 17.0096 98.2519 17.0096 95.0177C17.0096 91.7836 19.6409 89.1523 22.875 89.1523C26.1092 89.1523 28.7404 91.7836 28.7404 95.0177C28.7404 98.2519 26.1092 100.883 22.875 100.883ZM22.875 91.4985C20.9345 91.4985 19.3558 93.077 19.3558 95.0177C19.3558 96.9585 20.9345 98.537 22.875 98.537C24.8155 98.537 26.3943 96.9585 26.3943 95.0177C26.3943 93.077 24.8155 91.4985 22.875 91.4985Z" fill="#1570EF"/>
</svg>
