<svg width="123" height="122" viewBox="0 0 123 122" fill="none" xmlns="http://www.w3.org/2000/svg">
<path d="M27.9285 78.5826C19.6445 78.2635 13.0258 71.4503 13.0258 63.086C13.0258 54.7642 19.5811 47.9745 27.8091 47.5944C26.8519 45.1872 26.3216 42.5666 26.3216 39.8192C26.3216 28.194 35.7461 18.7695 47.3713 18.7695C56.7536 18.7695 64.6998 24.9094 67.4166 33.3908C70.0985 31.1783 73.5354 29.8481 77.2848 29.8481C86.775 29.8481 94.079 38.3156 92.6099 47.761C102.036 46.289 110.52 53.5846 110.52 63.086C110.52 71.6521 103.576 78.5965 95.01 78.5965C94.9832 78.5967 27.9522 78.5826 27.9285 78.5826Z" fill="white"/>
<path d="M85.8222 102.762V109.2C85.8222 111.086 84.2925 112.616 82.4062 112.616H73.472C71.5857 112.616 70.0558 111.086 70.0558 109.2V102.762H85.8222Z" fill="#FFBF80"/>
<path d="M85.8222 60.8498V67.2877H70.056V66.7621V60.8498C70.056 58.9633 71.5857 57.4336 73.4723 57.4336H82.4064C84.2925 57.4338 85.8222 58.9635 85.8222 60.8498Z" fill="#FFBF80"/>
<path d="M85.8222 100.786V102.761H70.056V96.8487V79.1117V67.2871H85.8222V78.5932V84.0903V100.786Z" fill="white"/>
<path d="M70.056 102.76V109.198C70.056 111.084 68.5263 112.614 66.64 112.614H59.6766C57.7903 112.614 56.2604 111.084 56.2604 109.198V108.147V102.76V96.8477H70.0558V102.76H70.056Z" fill="#FFBF80"/>
<path d="M70.056 67.2872V79.1119H56.2606V66.7617C56.2606 64.8754 57.7903 63.3457 59.6769 63.3457H66.6402C68.5266 63.3457 70.0562 64.8754 70.0562 66.7617V67.2872H70.056Z" fill="#FFBF80"/>
<path d="M56.2606 79.1113H70.056V96.8483H56.2606V79.1113Z" fill="white"/>
<path d="M56.2605 102.762V108.148C56.2605 110.617 54.2593 112.616 51.7935 112.616H41.0199C38.5518 112.616 36.5529 110.617 36.5529 108.148V102.762H56.2605Z" fill="#FFBF80"/>
<path d="M56.2607 55.9886V65.3169H36.553V55.9886C36.553 53.5204 38.5519 51.5215 41.0201 51.5215H51.7936C54.2594 51.5215 56.2607 53.5204 56.2607 55.9886Z" fill="#FFBF80"/>
<path d="M56.2607 66.7616V79.1118V96.8487V102.761H36.553V78.5839V65.3164H56.2607V66.7616Z" fill="white"/>
<path d="M23.6491 90.3262C26.2393 90.3262 28.3414 92.426 28.3414 95.0185C28.3414 97.611 26.2393 99.7108 23.6491 99.7108C21.0566 99.7108 18.9568 97.611 18.9568 95.0185C18.9568 92.426 21.0566 90.3262 23.6491 90.3262Z" fill="white"/>
<path d="M103.418 30.4992C107.953 30.4992 111.63 26.8228 111.63 22.2877C111.63 17.7526 107.953 14.0762 103.418 14.0762C98.8832 14.0762 95.2068 17.7526 95.2068 22.2877C95.2068 26.8228 98.8832 30.4992 103.418 30.4992Z" fill="#FFBF80"/>
<path d="M111.043 85.6345C112.015 85.6345 112.803 84.8467 112.803 83.8748C112.803 82.903 112.015 82.1152 111.043 82.1152C110.072 82.1152 109.284 82.903 109.284 83.8748C109.284 84.8467 110.072 85.6345 111.043 85.6345Z" fill="#E57200"/>
<path d="M104.005 41.0583C104.977 41.0583 105.764 40.2705 105.764 39.2987C105.764 38.3269 104.977 37.5391 104.005 37.5391C103.033 37.5391 102.245 38.3269 102.245 39.2987C102.245 40.2705 103.033 41.0583 104.005 41.0583Z" fill="#E57200"/>
<path d="M100.486 100.297C101.458 100.297 102.245 99.5088 102.245 98.537C102.245 97.5652 101.458 96.7773 100.486 96.7773C99.5139 96.7773 98.7261 97.5652 98.7261 98.537C98.7261 99.5088 99.5139 100.297 100.486 100.297Z" fill="#E57200"/>
<path d="M80.5433 17.5954C81.5151 17.5954 82.3029 16.8076 82.3029 15.8358C82.3029 14.864 81.5151 14.0762 80.5433 14.0762C79.5715 14.0762 78.7837 14.864 78.7837 15.8358C78.7837 16.8076 79.5715 17.5954 80.5433 17.5954Z" fill="#E57200"/>
<path d="M21.8895 112.615C22.8613 112.615 23.6491 111.827 23.6491 110.855C23.6491 109.884 22.8613 109.096 21.8895 109.096C20.9177 109.096 20.1299 109.884 20.1299 110.855C20.1299 111.827 20.9177 112.615 21.8895 112.615Z" fill="#E57200"/>
<path d="M19.5433 11.7302C20.5151 11.7302 21.3029 10.9424 21.3029 9.97055C21.3029 8.99874 20.5151 8.21094 19.5433 8.21094C18.5715 8.21094 17.7837 8.99874 17.7837 9.97055C17.7837 10.9424 18.5715 11.7302 19.5433 11.7302Z" fill="#E57200"/>
<path d="M14.851 84.4606C15.8229 84.4606 16.6107 83.6728 16.6107 82.701C16.6107 81.7292 15.8229 80.9414 14.851 80.9414C13.8792 80.9414 13.0914 81.7292 13.0914 82.701C13.0914 83.6728 13.8792 84.4606 14.851 84.4606Z" fill="#E57200"/>
<path d="M12.5049 34.0192C13.4767 34.0192 14.2645 33.2314 14.2645 32.2596C14.2645 31.2878 13.4767 30.5 12.5049 30.5C11.533 30.5 10.7452 31.2878 10.7452 32.2596C10.7452 33.2314 11.533 34.0192 12.5049 34.0192Z" fill="#E57200"/>
<path d="M51.7936 113.788H41.02C37.91 113.788 35.3799 111.258 35.3799 108.148V55.9878C35.3799 52.8777 37.91 50.3477 41.02 50.3477H51.7936C54.9036 50.3477 57.4337 52.8777 57.4337 55.9878V66.7611C57.4337 67.4091 56.9087 67.9342 56.2607 67.9342C55.6129 67.9342 55.0876 67.4091 55.0876 66.7611V55.9878C55.0876 54.1714 53.61 52.6938 51.7936 52.6938H41.02C39.2039 52.6938 37.726 54.1714 37.726 55.9878V108.148C37.726 109.964 39.2039 111.442 41.02 111.442H51.7936C53.61 111.442 55.0876 109.964 55.0876 108.148C55.0876 107.499 55.6129 106.974 56.2607 106.974C56.9087 106.974 57.4337 107.499 57.4337 108.148C57.4337 111.258 54.9036 113.788 51.7936 113.788Z" fill="#E57200"/>
<path d="M66.64 113.787H59.6766C57.146 113.787 55.0873 111.729 55.0873 109.198V66.761C55.0873 64.2306 57.1458 62.1719 59.6766 62.1719H66.64C69.1703 62.1719 71.229 64.2304 71.229 66.761C71.229 67.409 70.704 67.934 70.056 67.934C69.4082 67.934 68.8829 67.409 68.8829 66.761C68.8829 65.5241 67.8769 64.518 66.64 64.518H59.6766C58.4399 64.518 57.4334 65.5241 57.4334 66.761V109.198C57.4334 110.435 58.4397 111.441 59.6766 111.441H66.64C67.8766 111.441 68.8829 110.435 68.8829 109.198C68.8829 108.55 69.4082 108.025 70.056 108.025C70.704 108.025 71.229 108.55 71.229 109.198C71.229 111.729 69.1703 113.787 66.64 113.787Z" fill="#E57200"/>
<path d="M82.4062 113.788H73.472C70.9414 113.788 68.8827 111.729 68.8827 109.199V60.8491C68.8827 58.3185 70.9412 56.2598 73.472 56.2598H82.4062C84.9365 56.2598 86.9952 58.3185 86.9952 60.8491V109.199C86.9952 111.729 84.9367 113.788 82.4062 113.788ZM73.472 58.6062C72.2353 58.6062 71.2288 59.6124 71.2288 60.8493V109.199C71.2288 110.436 72.2351 111.442 73.472 111.442H82.4062C83.6428 111.442 84.6491 110.436 84.6491 109.199V60.8491C84.6491 59.6122 83.643 58.6059 82.4062 58.6059H73.472V58.6062Z" fill="#E57200"/>
<path d="M56.2607 66.4887H36.553C35.9052 66.4887 35.3799 65.9637 35.3799 65.3157C35.3799 64.6676 35.9052 64.1426 36.553 64.1426H56.2607C56.9087 64.1426 57.4337 64.6676 57.4337 65.3157C57.4337 65.9637 56.9087 66.4887 56.2607 66.4887Z" fill="#E57200"/>
<path d="M56.2607 103.934H36.553C35.9052 103.934 35.3799 103.409 35.3799 102.761C35.3799 102.113 35.9052 101.588 36.553 101.588H56.2607C56.9087 101.588 57.4337 102.113 57.4337 102.761C57.4337 103.409 56.9087 103.934 56.2607 103.934Z" fill="#E57200"/>
<path d="M70.056 80.2836H56.2606C55.6128 80.2836 55.0875 79.7586 55.0875 79.1106C55.0875 78.4626 55.6128 77.9375 56.2606 77.9375H70.056C70.704 77.9375 71.2291 78.4626 71.2291 79.1106C71.2291 79.7586 70.7038 80.2836 70.056 80.2836Z" fill="#E57200"/>
<path d="M85.8222 68.4594H70.056C69.4082 68.4594 68.8829 67.9344 68.8829 67.2864C68.8829 66.6384 69.4082 66.1133 70.056 66.1133H85.8222C86.4702 66.1133 86.9952 66.6384 86.9952 67.2864C86.9952 67.9341 86.4702 68.4594 85.8222 68.4594Z" fill="#E57200"/>
<path d="M85.8222 103.934H70.056C69.4082 103.934 68.8829 103.409 68.8829 102.761C68.8829 102.113 69.4082 101.588 70.056 101.588H85.8222C86.4702 101.588 86.9952 102.113 86.9952 102.761C86.9952 103.409 86.4702 103.934 85.8222 103.934Z" fill="#E57200"/>
<path d="M70.056 98.0219H56.2606C55.6128 98.0219 55.0875 97.4969 55.0875 96.8489C55.0875 96.2009 55.6128 95.6758 56.2606 95.6758H70.056C70.704 95.6758 71.2291 96.2009 71.2291 96.8489C71.2291 97.4966 70.7038 98.0219 70.056 98.0219Z" fill="#E57200"/>
<path d="M42.4652 88.1689C41.8172 88.1689 41.2921 87.6438 41.2921 86.9958V73.2004C41.2921 72.5524 41.8172 72.0273 42.4652 72.0273C43.113 72.0273 43.6383 72.5524 43.6383 73.2004V86.9958C43.6383 87.6436 43.113 88.1689 42.4652 88.1689Z" fill="#E57200"/>
<path d="M79.9099 75.0766H75.9684C75.3206 75.0766 74.7953 74.5516 74.7953 73.9035C74.7953 73.2555 75.3206 72.7305 75.9684 72.7305H79.9099C80.5579 72.7305 81.083 73.2555 81.083 73.9035C81.083 74.5516 80.5577 75.0766 79.9099 75.0766Z" fill="#E57200"/>
<path d="M79.9099 79.768H75.9684C75.3206 79.768 74.7953 79.243 74.7953 78.595C74.7953 77.9469 75.3206 77.4219 75.9684 77.4219H79.9099C80.5579 77.4219 81.083 77.9469 81.083 78.595C81.083 79.243 80.5577 79.768 79.9099 79.768Z" fill="#E57200"/>
<path d="M79.9099 84.4614H75.9684C75.3206 84.4614 74.7953 83.9363 74.7953 83.2883C74.7953 82.6403 75.3206 82.1152 75.9684 82.1152H79.9099C80.5579 82.1152 81.083 82.6403 81.083 83.2883C81.083 83.9363 80.5577 84.4614 79.9099 84.4614Z" fill="#E57200"/>
<path d="M20.6657 44.3704C20.0834 44.3704 19.5782 43.9371 19.5034 43.3442C19.357 42.1866 19.2831 41.0004 19.2831 39.8186C19.2831 24.3307 31.8833 11.7305 47.371 11.7305C57.0045 11.7305 65.8413 16.5504 71.0087 24.6238C71.3578 25.1695 71.199 25.8949 70.653 26.2442C70.1073 26.5934 69.3819 26.4343 69.0326 25.8886C64.2987 18.4923 56.2007 14.0766 47.371 14.0766C33.1768 14.0766 21.629 25.6244 21.629 39.8186C21.629 40.9025 21.6968 41.9898 21.8308 43.05C21.9119 43.6928 21.4566 44.2796 20.8139 44.3608C20.7642 44.3671 20.7147 44.3704 20.6657 44.3704Z" fill="#E57200"/>
<path d="M35.4582 40.8512C34.8764 40.8512 34.3713 40.4183 34.2959 39.8259C34.2368 39.3607 34.2068 38.879 34.2068 38.3945C34.2068 32.1007 39.3261 26.9805 45.6187 26.9805C49.5312 26.9805 53.1217 28.9393 55.2236 32.2201C55.5732 32.7656 55.4144 33.491 54.8687 33.8406C54.3229 34.1902 53.5975 34.0311 53.2482 33.4856C51.5798 30.8814 48.7274 29.3266 45.6185 29.3266C40.6195 29.3266 36.5527 33.3944 36.5527 38.3945C36.5527 38.7804 36.5766 39.1624 36.6231 39.53C36.705 40.1729 36.2501 40.7599 35.6074 40.8415C35.5575 40.8479 35.5075 40.8512 35.4582 40.8512Z" fill="#E57200"/>
<path d="M95.0097 79.7688L85.822 79.7664C85.1739 79.7662 84.6491 79.2409 84.6491 78.5931C84.6493 77.9454 85.1744 77.4203 85.8222 77.4203H85.8227L95.0102 77.4226C102.915 77.4226 109.347 70.9909 109.347 63.0853C109.347 55.1797 102.915 48.7479 95.0097 48.7479C94.2651 48.7479 93.5183 48.8056 92.7907 48.9192C92.4203 48.9776 92.0451 48.8547 91.7802 48.59C91.5154 48.3254 91.3929 47.95 91.4506 47.58C91.5642 46.8492 91.6216 46.1017 91.6216 45.358C91.6216 37.4524 85.1901 31.0206 77.2845 31.0206C73.9619 31.0206 70.7226 32.1836 68.1632 34.2952C67.8629 34.5427 67.4591 34.6253 67.086 34.5159C66.7128 34.4064 66.4179 34.1187 66.2991 33.748C63.6543 25.49 56.0476 19.9419 47.3711 19.9419C36.411 19.9419 27.4945 28.8584 27.4945 39.8185C27.4945 42.3467 27.967 44.8167 28.8986 47.1601C29.0389 47.5124 29 47.9108 28.7945 48.2297C28.5887 48.5483 28.2419 48.7479 27.8628 48.7655C20.2007 49.1196 14.1986 55.4094 14.1986 63.0853C14.1986 70.813 20.2376 77.1005 27.9515 77.4088L36.5532 77.4111C37.201 77.4114 37.726 77.9367 37.7258 78.5844C37.7256 79.2324 37.2005 79.7573 36.5527 79.7573H36.5525L27.9278 79.7549C27.913 79.7549 27.898 79.7547 27.8832 79.754C18.8942 79.4077 11.8524 72.0858 11.8524 63.0853C11.8524 54.6809 18.0366 47.7044 26.1956 46.566C25.5 44.3876 25.1483 42.1245 25.1483 39.8185C25.1483 27.5647 35.1173 17.5957 47.3711 17.5957C56.5267 17.5957 64.6174 23.1223 67.9839 31.5063C70.7205 29.6709 73.9668 28.6742 77.2845 28.6742C86.4838 28.6742 93.9678 36.1585 93.9678 45.3577C93.9678 45.7169 93.9563 46.0771 93.9333 46.4363C94.2913 46.4133 94.651 46.4018 95.0097 46.4018C104.209 46.4018 111.693 53.886 111.693 63.0853C111.693 72.2845 104.209 79.7688 95.0097 79.7688Z" fill="#E57200"/>
<path d="M103.418 31.6716C98.2436 31.6716 94.0337 27.4616 94.0337 22.287C94.0337 17.1123 98.2436 12.9023 103.418 12.9023C108.593 12.9023 112.803 17.1123 112.803 22.287C112.803 27.4616 108.593 31.6716 103.418 31.6716ZM103.418 15.2485C99.5373 15.2485 96.3798 18.406 96.3798 22.287C96.3798 26.168 99.5373 29.3254 103.418 29.3254C107.299 29.3254 110.457 26.168 110.457 22.287C110.457 18.406 107.299 15.2485 103.418 15.2485Z" fill="#E57200"/>
<path d="M23.6491 100.883C20.4149 100.883 17.7837 98.2519 17.7837 95.0177C17.7837 91.7836 20.4149 89.1523 23.6491 89.1523C26.8832 89.1523 29.5145 91.7836 29.5145 95.0177C29.5145 98.2519 26.8832 100.883 23.6491 100.883ZM23.6491 91.4985C21.7086 91.4985 20.1298 93.077 20.1298 95.0177C20.1298 96.9585 21.7086 98.537 23.6491 98.537C25.5896 98.537 27.1683 96.9585 27.1683 95.0177C27.1683 93.077 25.5896 91.4985 23.6491 91.4985Z" fill="#E57200"/>
</svg>
