<svg width="174" height="55" viewBox="0 0 174 55" fill="none" xmlns="http://www.w3.org/2000/svg">
<path fill-rule="evenodd" clip-rule="evenodd" d="M18.9597 42.5313V28.0837C18.9597 26.6562 17.8025 25.499 16.3749 25.499H12.0614C10.6338 25.499 9.47659 26.6562 9.47659 28.0837V37.4376L18.9597 42.5313Z" fill="white"/>
<path d="M30.4447 42.3143V16.0698C30.4447 14.6423 29.2875 13.4851 27.8599 13.4851H23.552C22.1244 13.4851 20.9672 14.6423 20.9672 16.0698V43.5488L21.2582 43.7092C23.3301 44.8519 25.8433 44.8519 27.9153 43.7092L30.4447 42.3143Z" fill="#F2B926"/>
<path d="M41.8732 35.9716V21.2439C41.8732 19.8164 40.7159 18.6591 39.2884 18.6591H35.0375C33.6099 18.6591 32.4527 19.8164 32.4527 21.2439V41.9628L39.9168 37.6585C40.6818 37.2174 41.3415 36.6419 41.8732 35.9716Z" fill="#59BC49"/>
<path fill-rule="evenodd" clip-rule="evenodd" d="M19.5083 53.4487L5.72278 45.4504C2.18035 43.3952 0 39.6094 0 35.5139V19.4861C0 15.3906 2.18035 11.6049 5.72278 9.54956L19.5083 1.55134C23.0734 -0.517113 27.4734 -0.517111 31.0385 1.55134L44.824 9.54956C48.3664 11.6048 50.5468 15.3906 50.5468 19.4861V35.5139C50.5468 39.6094 48.3664 43.3952 44.824 45.4504L31.0385 53.4487C27.4734 55.5171 23.0734 55.5171 19.5083 53.4487ZM28.7324 5.52596L42.5179 13.5242C44.6434 14.7574 45.9516 17.0288 45.9516 19.4861V35.5139C45.9516 37.9712 44.6434 40.2426 42.5179 41.4758L28.7324 49.474C26.5934 50.7151 23.9534 50.7151 21.8143 49.474L8.02883 41.4758C5.90337 40.2426 4.59516 37.9712 4.59516 35.5139V19.4861C4.59516 17.0288 5.90337 14.7574 8.02883 13.5242L21.8143 5.52596C23.9534 4.28489 26.5934 4.28489 28.7324 5.52596Z" fill="white"/>
<path d="M65.7978 16.3938L66.5864 16.5607H77.7633L77.9908 16.5C78.9513 16.5 79.5074 17.0763 79.659 18.2289C79.4467 19.2197 78.8755 19.7151 77.9453 19.7151H67.8603V26.5699H74.2905L75.1094 26.5092C75.8778 26.5092 76.3782 27.0299 76.6108 28.0712C76.6108 28.8093 76.176 29.3603 75.3065 29.7243L74.063 29.6636H67.8603V36.1241H78.2183C79.017 36.1241 79.5023 36.6903 79.6742 37.8226C79.381 38.7932 78.8805 39.2785 78.1728 39.2785H66.2073C65.2064 39.0965 64.7059 38.5809 64.7059 37.7316V18.0772C64.8576 17.0662 65.2215 16.5607 65.7978 16.5607V16.3938Z" fill="white"/>
<path d="M85.3376 25.5689V37.7923C85.3376 38.6112 84.8422 39.1066 83.8514 39.2785H83.7452C82.906 39.2785 82.3904 38.7578 82.1983 37.7165V18.335C82.3196 17.2128 82.7948 16.6517 83.6239 16.6517H83.8514C84.6905 16.6517 85.2516 17.2482 85.5347 18.4412L92.4957 34.0009C92.5867 33.6471 94.1133 30.0933 97.0756 23.3396L99.9267 17.1976C100.27 16.8336 100.645 16.6517 101.049 16.6517H101.276C102.105 16.6517 102.581 17.2128 102.702 18.335V37.7165C102.51 38.7578 101.994 39.2785 101.155 39.2785H101.049C100.058 39.1066 99.5628 38.6112 99.5628 37.7923V25.5538C95.8017 34.0666 93.8353 38.4596 93.6634 38.7325C93.2489 39.0965 92.8445 39.2785 92.4502 39.2785C91.5605 39.2785 90.8275 38.3787 90.2512 36.579L85.3376 25.5689Z" fill="white"/>
<path d="M111.656 16.5758C113.688 16.5758 115.392 17.511 116.767 19.3814L116.873 19.7606V20.17C116.873 20.9182 116.363 21.3782 115.341 21.5501C114.876 21.5501 114.245 21.1052 113.446 20.2155C112.89 19.8617 112.354 19.6847 111.838 19.6847H111.489C110.398 19.6847 109.569 20.2762 109.002 21.4591C108.881 21.722 108.82 21.9848 108.82 22.2477V22.7178C108.82 23.9715 109.579 24.8814 111.095 25.4476C112.42 25.4476 113.87 26.0846 115.448 27.3585C116.974 28.9053 117.738 30.6039 117.738 32.454C117.738 34.7289 116.762 36.5892 114.811 38.0349C113.618 38.864 112.298 39.2785 110.853 39.2785C108.507 39.2785 106.551 38.2472 104.983 36.1847L104.817 35.5326C105.009 34.4913 105.535 33.9706 106.394 33.9706C106.94 33.9706 107.562 34.4154 108.259 35.3051C109.098 35.8814 109.867 36.1696 110.564 36.1696H111.08C112.435 36.1696 113.532 35.3961 114.371 33.8493C114.502 33.3539 114.568 32.9848 114.568 32.7422V32.1659C114.568 30.8212 113.79 29.7243 112.233 28.875L109.275 28.0561C106.889 26.6811 105.696 24.8814 105.696 22.6572V22.2477C105.696 20.0437 106.864 18.3249 109.199 17.0915C110.079 16.7477 110.898 16.5758 111.656 16.5758Z" fill="white"/>
<path d="M135.1 16.6517C136.95 16.6517 138.543 17.4756 139.877 19.1236C140.626 20.1347 141 21.2518 141 22.4752V22.7027C141 24.4214 140.403 25.8015 139.21 26.8428C141.01 28.1471 141.91 29.9669 141.91 32.3024C141.91 34.7188 140.772 36.7206 138.497 38.3079C137.314 38.955 136.147 39.2785 134.994 39.2785H134.827C132.098 39.2785 129.974 37.8732 128.458 35.0625C128.094 34.0211 127.912 33.0859 127.912 32.2569C127.912 31.4683 128.448 30.9729 129.519 30.7707C130.389 30.7707 130.899 31.2914 131.051 32.3327C131.051 33.8088 131.825 34.9766 133.371 35.8359C133.917 36.0381 134.458 36.1392 134.994 36.1392C136.511 36.1392 137.663 35.3355 138.452 33.7279C138.624 33.2629 138.71 32.8635 138.71 32.5299V32.0749C138.71 30.6494 137.916 29.5423 136.329 28.7537L134.403 28.329C133.847 27.9044 133.569 27.4393 133.569 26.9338V26.8732C133.569 25.852 134.236 25.3415 135.57 25.3415C136.177 25.3415 136.824 24.9168 137.512 24.0676C137.774 23.5115 137.906 23.0009 137.906 22.5358C137.906 21.4844 137.38 20.6654 136.329 20.079C135.955 19.8869 135.53 19.7909 135.055 19.7909C133.842 19.7909 132.977 20.438 132.461 21.7321C132.32 23.0666 132.108 23.7339 131.825 23.7339C131.552 24.0372 131.203 24.1889 130.778 24.1889C129.747 23.9563 129.231 23.4812 129.231 22.7633V22.4752C129.231 20.3217 130.303 18.608 132.446 17.3341C133.265 16.9196 134.15 16.6921 135.1 16.6517Z" fill="white"/>
<path d="M146.542 32.0597V32.5905C146.542 33.9756 147.34 35.0726 148.938 35.8814C149.393 36.0129 149.858 36.0988 150.333 36.1392C152.042 36.1392 153.26 35.2394 153.988 33.4398L154.14 32.454V32.2569C154.14 30.4674 153.174 29.244 151.243 28.5869L150.242 28.4807C148.584 28.4807 147.381 29.3957 146.633 31.2256L146.542 32.0597ZM150.015 25.3415H150.591C152.835 25.3415 154.736 26.4586 156.293 28.693C156.991 29.9265 157.339 31.1296 157.339 32.3024C157.339 34.6176 156.283 36.5538 154.17 38.1108C152.967 38.8893 151.718 39.2785 150.424 39.2785H150.136C147.912 39.2785 145.996 38.1765 144.388 35.9724C143.691 34.7188 143.342 33.4954 143.342 32.3024C143.342 30.7353 143.903 29.2036 145.025 27.7073L151.243 17.0005C151.698 16.7275 152.092 16.591 152.426 16.591C153.184 16.591 153.68 17.1117 153.912 18.153C153.912 18.5777 153.432 19.5483 152.471 21.0648L150.015 25.3415Z" fill="white"/>
<path d="M165.93 16.5758C168.619 16.5758 170.672 18.0115 172.087 20.8828C172.835 23.1779 173.209 25.296 173.209 27.2371V28.5565C173.209 30.9527 172.714 33.3741 171.723 35.8208C170.227 38.1259 168.336 39.2785 166.051 39.2785H165.869C163.382 39.2785 161.431 37.9692 160.015 35.3506C159.146 33.1264 158.711 30.6696 158.711 27.9802V27.8134C158.711 24.9623 159.227 22.369 160.258 20.0335C161.785 17.7284 163.675 16.5758 165.93 16.5758ZM161.683 27.6466V28.2684C161.683 30.8263 162.138 32.9596 163.048 34.6682C163.867 35.6792 164.792 36.1847 165.824 36.1847H165.99C168.306 36.1847 169.666 34.3295 170.07 30.619C170.181 30.0023 170.257 29.0873 170.297 27.8741C170.297 25.7105 169.928 23.653 169.19 21.7017C168.341 20.347 167.274 19.6696 165.99 19.6696C164.423 19.6696 163.266 20.5441 162.518 22.2932C161.961 24.1434 161.683 25.9279 161.683 27.6466Z" fill="white"/>
</svg>
