<svg width="126" height="122" viewBox="0 0 126 122" fill="none" xmlns="http://www.w3.org/2000/svg">
<path d="M42.1532 61.7771C40.9549 62.9218 39.0133 62.9218 37.8136 61.7771C36.7305 60.741 34.9721 60.741 33.8873 61.7771C32.8029 62.8118 32.8029 64.4914 33.8873 65.5276C37.248 68.7378 42.7185 68.7391 46.0808 65.5276C47.1653 64.4919 47.1653 62.8123 46.0808 61.7771C44.9961 60.741 43.2377 60.741 42.1532 61.7771Z" fill="#1570EF"/>
<path d="M51.4749 73.9281C56.457 70.5058 59.7108 64.9227 59.7108 58.6249C59.7108 48.235 50.8622 39.7812 39.9839 39.7812C29.1056 39.7812 20.2556 48.235 20.2556 58.6249C20.2556 64.9227 23.5107 70.5052 28.4929 73.9281C13.8797 78.5447 3.30518 91.7146 3.30518 107.202C3.30518 111.731 4.20531 116.152 5.98143 120.341C6.40567 121.343 7.42381 121.999 8.55467 121.999H71.4134C72.544 121.999 73.5621 121.343 73.9869 120.341C75.7628 116.152 76.6632 111.731 76.6632 107.202C76.6626 91.7146 66.0881 78.5447 51.4749 73.9281ZM45.2142 94.4487L39.9839 99.6167L34.7536 94.4487L39.9839 81.9581L45.2142 94.4487ZM25.8086 58.6249C25.8086 51.1593 32.1681 45.0856 39.9839 45.0856C47.7997 45.0856 54.1578 51.159 54.1578 58.6249C54.1578 66.092 47.7997 72.1655 39.9839 72.1655C32.1684 72.1655 25.8086 66.092 25.8086 58.6249ZM69.4832 116.694H59.7111V107.202C59.7111 105.738 58.4692 104.55 56.9346 104.55C55.4014 104.55 54.1581 105.738 54.1581 107.202V116.694H25.8086V107.202C25.8086 105.738 24.5653 104.55 23.0321 104.55C21.4989 104.55 20.2556 105.738 20.2556 107.202V116.694H10.4852C9.40455 113.638 8.85842 110.454 8.85842 107.202C8.85842 92.1734 20.5921 79.7151 35.7678 77.7432L28.931 94.0731C28.5242 95.043 28.7519 96.1503 29.5127 96.9014L37.987 105.276C39.0785 106.354 40.8882 106.355 41.9796 105.276L50.4557 96.9014C51.2162 96.1503 51.4441 95.043 51.0373 94.0731L44.1992 77.7432C59.3765 79.7159 71.1099 92.1734 71.1099 107.202C71.1097 110.454 70.5632 113.638 69.4832 116.694Z" fill="#1570EF"/>
<path d="M124.863 40.7779L102.651 14.2563C101.54 12.9302 99.4258 12.9302 98.3155 14.2563L76.1034 40.7779C75.4365 41.5743 75.3063 42.666 75.7686 43.5842C76.2308 44.5023 77.2043 45.0877 78.2713 45.0877H86.6007V74.2615C86.6007 75.726 87.8443 76.9136 89.3775 76.9136H111.589C113.123 76.9136 114.366 75.726 114.366 74.2615V45.0879H122.695C123.762 45.0879 124.736 44.5026 125.198 43.5844C125.66 42.666 125.53 41.5743 124.863 40.7779ZM108.812 71.6096H92.1534V45.0879H108.812V71.6096ZM84.0475 39.7833L100.483 20.1589L116.918 39.7833C106.639 39.7833 94.3199 39.7833 84.0475 39.7833Z" fill="#1570EF"/>
<path d="M111.589 79.5645H89.3769C87.8434 79.5645 86.6001 80.7524 86.6001 82.2166V100.782C86.6001 102.246 87.8434 103.434 89.3769 103.434H111.589C113.122 103.434 114.365 102.246 114.365 100.782V82.2166C114.365 80.7524 113.122 79.5645 111.589 79.5645ZM108.812 98.1296H92.1533V84.8688H108.812V98.1296Z" fill="#1570EF"/>
<path d="M111.589 106.086H89.3769C87.8434 106.086 86.6001 107.274 86.6001 108.738V119.347C86.6001 120.812 87.8434 121.999 89.3769 121.999H111.589C113.122 121.999 114.365 120.812 114.365 119.347V108.738C114.365 107.274 113.122 106.086 111.589 106.086ZM108.812 116.695H92.1533V111.391H108.812V116.695Z" fill="#DAEEFF"/>
<path d="M8.85827 34.4782H56.0587C57.5919 34.4782 58.8352 33.2905 58.8352 31.826C58.8352 30.3615 57.5919 29.1738 56.0587 29.1738H8.85827C7.3251 29.1738 6.08179 30.3615 6.08179 31.826C6.08179 33.2905 7.3251 34.4782 8.85827 34.4782Z" fill="#DAEEFF"/>
<path d="M36.6234 26.5211H72.7177C74.2509 26.5211 75.4942 25.3335 75.4942 23.869C75.4942 22.4044 74.2509 21.2168 72.7177 21.2168H36.6234C35.0902 21.2168 33.8469 22.4044 33.8469 23.869C33.8469 25.3335 35.09 26.5211 36.6234 26.5211Z" fill="#1570EF"/>
<path d="M17.1877 53.0424C17.1877 48.655 13.4514 45.0859 8.85826 45.0859C4.26512 45.0859 0.528809 48.655 0.528809 53.0424C0.528809 57.4299 4.26512 60.9989 8.85826 60.9989C13.4514 60.9989 17.1877 57.4296 17.1877 53.0424ZM6.08177 53.0424C6.08177 51.579 7.32619 50.3903 8.85826 50.3903C10.3889 50.3903 11.6347 51.579 11.6347 53.0424C11.6347 54.5046 10.3889 55.6946 8.85826 55.6946C7.32619 55.6946 6.08177 54.5043 6.08177 53.0424Z" fill="#DAEEFF"/>
<path d="M74.1058 61C70.2787 61 67.1646 63.9747 67.1646 67.6304C67.1646 71.2861 70.2787 74.2608 74.1058 74.2608C77.9329 74.2608 81.047 71.2861 81.047 67.6304C81.047 63.9747 77.9329 61 74.1058 61ZM74.1058 68.9565C73.3397 68.9565 72.7175 68.3608 72.7175 67.6304C72.7175 66.8987 73.3397 66.3043 74.1058 66.3043C74.8718 66.3043 75.494 66.8987 75.494 67.6304C75.494 68.3608 74.8718 68.9565 74.1058 68.9565Z" fill="#DAEEFF"/>
<path d="M85.2118 18.5651C90.5699 18.5651 94.9298 14.4004 94.9298 9.28257C94.9298 4.16469 90.5699 0 85.2118 0C79.8541 0 75.4941 4.16469 75.4941 9.28257C75.4941 14.4004 79.8541 18.5651 85.2118 18.5651ZM85.2118 5.30432C87.5085 5.30432 89.3768 7.08896 89.3768 9.28257C89.3768 11.4764 87.5085 13.2608 85.2118 13.2608C82.9154 13.2608 81.0471 11.4762 81.0471 9.28257C81.0471 7.0887 82.9154 5.30432 85.2118 5.30432Z" fill="#DAEEFF"/>
<path d="M39.3998 7.95667C40.9332 7.95667 42.1763 6.76925 42.1763 5.30451C42.1763 3.83976 40.9332 2.65234 39.3998 2.65234C37.8664 2.65234 36.6233 3.83976 36.6233 5.30451C36.6233 6.76925 37.8664 7.95667 39.3998 7.95667Z" fill="#1570EF"/>
<path d="M28.2938 26.5211C29.8272 26.5211 31.0703 25.3337 31.0703 23.869C31.0703 22.4042 29.8272 21.2168 28.2938 21.2168C26.7604 21.2168 25.5173 22.4042 25.5173 23.869C25.5173 25.3337 26.7604 26.5211 28.2938 26.5211Z" fill="#1570EF"/>
<path d="M11.6346 18.566C13.168 18.566 14.4111 17.3786 14.4111 15.9139C14.4111 14.4491 13.168 13.2617 11.6346 13.2617C10.1012 13.2617 8.85815 14.4491 8.85815 15.9139C8.85815 17.3786 10.1012 18.566 11.6346 18.566Z" fill="#1570EF"/>
<path d="M69.941 53.0426C71.4744 53.0426 72.7175 51.8552 72.7175 50.3904C72.7175 48.9257 71.4744 47.7383 69.941 47.7383C68.4076 47.7383 67.1646 48.9257 67.1646 50.3904C67.1646 51.8552 68.4076 53.0426 69.941 53.0426Z" fill="#1570EF"/>
<path d="M119.918 95.4782C121.451 95.4782 122.695 94.2907 122.695 92.826C122.695 91.3612 121.451 90.1738 119.918 90.1738C118.385 90.1738 117.142 91.3612 117.142 92.826C117.142 94.2907 118.385 95.4782 119.918 95.4782Z" fill="#DAEEFF"/>
<path d="M117.141 15.9137C118.675 15.9137 119.918 14.7263 119.918 13.2615C119.918 11.7968 118.675 10.6094 117.141 10.6094C115.608 10.6094 114.365 11.7968 114.365 13.2615C114.365 14.7263 115.608 15.9137 117.141 15.9137Z" fill="#1570EF"/>
<path d="M6.08166 76.9137C7.61507 76.9137 8.85814 75.7263 8.85814 74.2615C8.85814 72.7968 7.61507 71.6094 6.08166 71.6094C4.54825 71.6094 3.30518 72.7968 3.30518 74.2615C3.30518 75.7263 4.54825 76.9137 6.08166 76.9137Z" fill="#1570EF"/>
</svg>
