<svg width="123" height="122" viewBox="0 0 118 122" fill="none" xmlns="http://www.w3.org/2000/svg">
<path d="M39.7912 61.7771C38.6715 62.9218 36.8573 62.9218 35.7363 61.7771C34.7242 60.741 33.0813 60.741 32.0677 61.7771C31.0543 62.8118 31.0543 64.4914 32.0677 65.5276C35.2078 68.7378 40.3194 68.7391 43.4611 65.5276C44.4744 64.4919 44.4744 62.8123 43.4611 61.7771C42.4475 60.741 40.8045 60.741 39.7912 61.7771Z" fill="#E57200"/>
<path d="M48.5012 73.9281C53.1565 70.5058 56.1967 64.9227 56.1967 58.6249C56.1967 48.235 47.9287 39.7812 37.7642 39.7812C27.5997 39.7812 19.3304 48.235 19.3304 58.6249C19.3304 64.9227 22.3719 70.5052 27.0271 73.9281C13.3728 78.5447 3.49213 91.7146 3.49213 107.202C3.49213 111.731 4.3332 116.152 5.99278 120.341C6.38919 121.343 7.34052 121.999 8.39718 121.999H67.1315C68.1879 121.999 69.1392 121.343 69.5361 120.341C71.1955 116.152 72.0368 111.731 72.0368 107.202C72.0363 91.7146 62.1556 78.5447 48.5012 73.9281ZM42.6513 94.4487L37.7642 99.6167L32.877 94.4487L37.7642 81.9581L42.6513 94.4487ZM24.519 58.6249C24.519 51.1593 30.4612 45.0856 37.7642 45.0856C45.0672 45.0856 51.0081 51.159 51.0081 58.6249C51.0081 66.092 45.0672 72.1655 37.7642 72.1655C30.4615 72.1655 24.519 66.092 24.519 58.6249ZM65.3279 116.694H56.197V107.202C56.197 105.738 55.0366 104.55 53.6027 104.55C52.1701 104.55 51.0084 105.738 51.0084 107.202V116.694H24.519V107.202C24.519 105.738 23.3572 104.55 21.9247 104.55C20.4921 104.55 19.3304 105.738 19.3304 107.202V116.694H10.201C9.1913 113.638 8.681 110.454 8.681 107.202C8.681 92.1734 19.6448 79.7151 33.8247 77.7432L27.4365 94.0731C27.0565 95.043 27.2692 96.1503 27.98 96.9014L35.8984 105.276C36.9182 106.354 38.6092 106.355 39.629 105.276L47.5489 96.9014C48.2595 96.1503 48.4725 95.043 48.0924 94.0731L41.7029 77.7432C55.8844 79.7159 66.8479 92.1734 66.8479 107.202C66.8477 110.454 66.3371 113.638 65.3279 116.694Z" fill="#E57200"/>
<path d="M117.073 40.7779L96.319 14.2563C95.2816 12.9302 93.3057 12.9302 92.2683 14.2563L71.5136 40.7779C70.8904 41.5743 70.7688 42.666 71.2007 43.5842C71.6327 44.5023 72.5422 45.0877 73.5392 45.0877H81.3221V74.2615C81.3221 75.726 82.4841 76.9136 83.9167 76.9136H104.671C106.104 76.9136 107.265 75.726 107.265 74.2615V45.0879H115.048C116.045 45.0879 116.955 44.5026 117.387 43.5844C117.818 42.666 117.697 41.5743 117.073 40.7779ZM102.076 71.6096H86.5105V45.0879H102.076V71.6096ZM78.9364 39.7833L94.2934 20.1589L109.65 39.7833C100.046 39.7833 88.5348 39.7833 78.9364 39.7833Z" fill="#E57200"/>
<path d="M104.671 79.5645H83.9162C82.4833 79.5645 81.3216 80.7524 81.3216 82.2166V100.782C81.3216 102.246 82.4833 103.434 83.9162 103.434H104.671C106.103 103.434 107.265 102.246 107.265 100.782V82.2166C107.265 80.7524 106.103 79.5645 104.671 79.5645ZM102.076 98.1296H86.5105V84.8688H102.076V98.1296Z" fill="#E57200"/>
<path d="M104.671 106.086H83.9162C82.4833 106.086 81.3216 107.274 81.3216 108.738V119.347C81.3216 120.812 82.4833 121.999 83.9162 121.999H104.671C106.103 121.999 107.265 120.812 107.265 119.347V108.738C107.265 107.274 106.103 106.086 104.671 106.086ZM102.076 116.695H86.5105V111.391H102.076V116.695Z" fill="#FFBF80"/>
<path d="M8.68091 34.4782H52.7844C54.2169 34.4782 55.3787 33.2905 55.3787 31.826C55.3787 30.3615 54.2169 29.1738 52.7844 29.1738H8.68091C7.24834 29.1738 6.08661 30.3615 6.08661 31.826C6.08661 33.2905 7.24834 34.4782 8.68091 34.4782Z" fill="#FFBF80"/>
<path d="M34.6241 26.5211H68.3501C69.7827 26.5211 70.9444 25.3335 70.9444 23.869C70.9444 22.4044 69.7827 21.2168 68.3501 21.2168H34.6241C33.1915 21.2168 32.0298 22.4044 32.0298 23.869C32.0298 25.3335 33.1913 26.5211 34.6241 26.5211Z" fill="#E57200"/>
<path d="M16.4637 53.0424C16.4637 48.655 12.9726 45.0859 8.6808 45.0859C4.38905 45.0859 0.897888 48.655 0.897888 53.0424C0.897888 57.4299 4.38905 60.9989 8.6808 60.9989C12.9726 60.9989 16.4637 57.4296 16.4637 53.0424ZM6.0865 53.0424C6.0865 51.579 7.24927 50.3903 8.6808 50.3903C10.111 50.3903 11.2751 51.579 11.2751 53.0424C11.2751 54.5046 10.111 55.6946 8.6808 55.6946C7.24927 55.6946 6.0865 54.5043 6.0865 53.0424Z" fill="#FFBF80"/>
<path d="M69.6472 61C66.0712 61 63.1615 63.9747 63.1615 67.6304C63.1615 71.2861 66.0712 74.2608 69.6472 74.2608C73.2232 74.2608 76.133 71.2861 76.133 67.6304C76.133 63.9747 73.2232 61 69.6472 61ZM69.6472 68.9565C68.9315 68.9565 68.3501 68.3608 68.3501 67.6304C68.3501 66.8987 68.9315 66.3043 69.6472 66.3043C70.363 66.3043 70.9444 66.8987 70.9444 67.6304C70.9444 68.3608 70.363 68.9565 69.6472 68.9565Z" fill="#FFBF80"/>
<path d="M80.0245 18.5651C85.031 18.5651 89.1048 14.4004 89.1048 9.28257C89.1048 4.16469 85.031 0 80.0245 0C75.0182 0 70.9444 4.16469 70.9444 9.28257C70.9444 14.4004 75.0182 18.5651 80.0245 18.5651ZM80.0245 5.30432C82.1705 5.30432 83.9162 7.08896 83.9162 9.28257C83.9162 11.4764 82.1705 13.2608 80.0245 13.2608C77.8787 13.2608 76.133 11.4762 76.133 9.28257C76.133 7.0887 77.8787 5.30432 80.0245 5.30432Z" fill="#FFBF80"/>
<path d="M37.2185 7.95667C38.6512 7.95667 39.8128 6.76925 39.8128 5.30451C39.8128 3.83976 38.6512 2.65234 37.2185 2.65234C35.7857 2.65234 34.6241 3.83976 34.6241 5.30451C34.6241 6.76925 35.7857 7.95667 37.2185 7.95667Z" fill="#E57200"/>
<path d="M26.8412 26.5211C28.274 26.5211 29.4355 25.3337 29.4355 23.869C29.4355 22.4042 28.274 21.2168 26.8412 21.2168C25.4084 21.2168 24.2469 22.4042 24.2469 23.869C24.2469 25.3337 25.4084 26.5211 26.8412 26.5211Z" fill="#E57200"/>
<path d="M11.2751 18.566C12.7079 18.566 13.8694 17.3786 13.8694 15.9139C13.8694 14.4491 12.7079 13.2617 11.2751 13.2617C9.8423 13.2617 8.68079 14.4491 8.68079 15.9139C8.68079 17.3786 9.8423 18.566 11.2751 18.566Z" fill="#E57200"/>
<path d="M65.7558 53.0426C67.1886 53.0426 68.3501 51.8552 68.3501 50.3904C68.3501 48.9257 67.1886 47.7383 65.7558 47.7383C64.323 47.7383 63.1615 48.9257 63.1615 50.3904C63.1615 51.8552 64.323 53.0426 65.7558 53.0426Z" fill="#E57200"/>
<path d="M112.454 95.4782C113.886 95.4782 115.048 94.2907 115.048 92.826C115.048 91.3612 113.886 90.1738 112.454 90.1738C111.021 90.1738 109.859 91.3612 109.859 92.826C109.859 94.2907 111.021 95.4782 112.454 95.4782Z" fill="#FFBF80"/>
<path d="M109.859 15.9137C111.292 15.9137 112.454 14.7263 112.454 13.2615C112.454 11.7968 111.292 10.6094 109.859 10.6094C108.426 10.6094 107.265 11.7968 107.265 13.2615C107.265 14.7263 108.426 15.9137 109.859 15.9137Z" fill="#E57200"/>
<path d="M6.08643 76.9137C7.51923 76.9137 8.68074 75.7263 8.68074 74.2615C8.68074 72.7968 7.51923 71.6094 6.08643 71.6094C4.65364 71.6094 3.49213 72.7968 3.49213 74.2615C3.49213 75.7263 4.65364 76.9137 6.08643 76.9137Z" fill="#E57200"/>
</svg>
