<svg width="125" height="122" viewBox="0 0 125 122" fill="none" xmlns="http://www.w3.org/2000/svg">
<path d="M56.5 3L16 16.5L56.5 31.5L96.5 16.5L56.5 3Z" fill="#8DAAD7"/>
<path d="M12.6983 19.7425L25.2134 23.9141V51.5111C25.2134 52.7257 26.0663 53.7922 27.2356 54.1211L56.1992 62.2544C56.6254 62.3745 57.1202 62.3916 57.5889 62.2747C57.8861 62.2037 79.6514 56.0807 86.6312 54.1211C87.8005 53.7922 88.6534 52.7259 88.6534 51.5111V23.9138L97.6001 20.9316V35.711C94.4446 36.8301 92.1779 39.8435 92.1779 43.3777C92.1779 47.8625 95.8265 51.5111 100.311 51.5111C104.796 51.5111 108.445 47.8625 108.445 43.3777C108.445 39.8435 106.178 36.8301 103.022 35.711V17.1702C103.022 15.9982 102.259 14.9617 101.168 14.5985C58.193 0.273483 71.0195 4.54891 57.7906 0.139283C57.2341 -0.0464278 56.6327 -0.0464278 56.0761 0.139283L12.6983 14.5985C11.5914 14.9672 10.8445 16.0036 10.8445 17.1702C10.8445 18.3374 11.5911 19.3733 12.6983 19.7425ZM30.6356 25.7517C33.591 26.7331 51.2864 32.6089 54.2223 33.5838V56.066L30.6356 49.4577V25.7517ZM83.2312 25.7517V49.4574L59.6445 56.0657V33.5836C62.5939 32.6043 80.2772 26.7326 83.2312 25.7517ZM100.311 46.0888C98.8163 46.0888 97.6001 44.8729 97.6001 43.3777C97.6001 41.8828 98.8163 40.6666 100.311 40.6666C101.806 40.6666 103.022 41.8828 103.022 43.3777C103.022 44.8729 101.806 46.0888 100.311 46.0888ZM56.9334 5.56883L91.7378 17.1702L56.9334 28.7716L22.1289 17.1702L56.9334 5.56883Z" fill="white"/>
<path d="M116.936 26H120.871V29.9355H116.936V26Z" fill="#8DAAD7"/>
<path d="M113 29.9355H116.935V33.871H113V29.9355Z" fill="#8DAAD7"/>
<path d="M116.936 33.8711H120.871V37.8066H116.936V33.8711Z" fill="#8DAAD7"/>
<path d="M120.871 29.9355H124.806V33.871H120.871V29.9355Z" fill="#8DAAD7"/>
<path d="M8.93555 49H12.871V52.9355H8.93555V49Z" fill="white"/>
<path d="M5 52.9355H8.93548V56.871H5V52.9355Z" fill="white"/>
<path d="M8.93555 56.8711H12.871V60.8066H8.93555V56.8711Z" fill="white"/>
<path d="M12.871 52.9355H16.8065V56.871H12.871V52.9355Z" fill="white"/>
<path d="M100.936 73H104.871V76.9355H100.936V73Z" fill="white"/>
<path d="M97 76.9355H100.935V80.871H97V76.9355Z" fill="white"/>
<path d="M100.936 80.8711H104.871V84.8066H100.936V80.8711Z" fill="white"/>
<path d="M104.871 76.9355H108.806V80.871H104.871V76.9355Z" fill="white"/>
<path d="M13.5556 78.6211C12.0582 78.6211 10.8445 79.8351 10.8445 81.3322V84.0433C10.8445 85.5404 12.0582 86.7544 13.5556 86.7544C15.0529 86.7544 16.2667 85.5404 16.2667 84.0433V81.3322C16.2667 79.8351 15.0529 78.6211 13.5556 78.6211Z" fill="white"/>
<path d="M43.3779 103.021C41.8805 103.021 40.6667 104.236 40.6667 105.733V108.444C40.6667 109.941 41.8805 111.155 43.3779 111.155C44.8752 111.155 46.089 109.941 46.089 108.444V105.733C46.089 104.236 44.8752 103.021 43.3779 103.021Z" fill="white"/>
<path d="M24.4001 78.6211C22.9027 78.6211 21.689 79.8351 21.689 81.3322V84.0433C21.689 85.5404 22.9027 86.7544 24.4001 86.7544C25.8974 86.7544 27.1112 85.5404 27.1112 84.0433V81.3322C27.1112 79.8351 25.8974 78.6211 24.4001 78.6211Z" fill="white"/>
<path d="M35.2444 78.6211C33.7471 78.6211 32.5333 79.8351 32.5333 81.3322V84.0433C32.5333 85.5404 33.7471 86.7544 35.2444 86.7544C36.7418 86.7544 37.9556 85.5404 37.9556 84.0433V81.3322C37.9556 79.8351 36.7418 78.6211 35.2444 78.6211Z" fill="#8DAAD7"/>
<path d="M110.478 92.1774H88.7881C89.2246 91.1333 89.4667 89.9889 89.4667 88.7885V76.5885C89.4667 71.7299 85.5142 67.7773 80.6556 67.7773H8.81112C3.9528 67.7773 0 71.7299 0 76.5885V88.7885C0 93.6471 3.9528 97.5996 8.81112 97.5996H30.5008C30.0643 98.6436 29.8222 99.788 29.8222 100.988V113.188C29.8222 118.047 33.775 122 38.6334 122H110.478C115.336 122 119.289 118.047 119.289 113.188V100.988C119.289 96.1299 115.336 92.1774 110.478 92.1774ZM84.0445 76.5885V88.7885C84.0445 90.6572 82.5244 92.1774 80.6556 92.1774H73.2V73.1996H80.6556C82.5244 73.1996 84.0445 74.72 84.0445 76.5885ZM67.7778 97.5996L65.0667 93.9849V84.044C65.0667 82.5469 63.8527 81.3329 62.3556 81.3329C60.8585 81.3329 59.6445 82.5469 59.6445 84.044V93.9849L56.9334 97.5996V73.1996H67.7778V97.5996ZM5.42222 88.7885V76.5885C5.42222 74.7197 6.94235 73.1996 8.81112 73.1996H51.5111V92.1774H8.81112C6.94235 92.1774 5.42222 90.6572 5.42222 88.7885ZM113.867 113.188C113.867 115.057 112.347 116.577 110.478 116.577H38.6334C36.7646 116.577 35.2445 115.057 35.2445 113.188V100.988C35.2445 99.1197 36.7646 97.5996 38.6334 97.5996H51.5111V105.733C51.5111 106.892 52.2507 107.934 53.365 108.305C54.4454 108.664 55.6776 108.311 56.3911 107.36L62.3556 99.4071C68.7714 107.95 68.3894 107.513 68.7568 107.818C70.5139 109.277 73.2 108.025 73.2 105.733V97.5996H110.478C112.347 97.5996 113.867 99.1197 113.867 100.988V113.188Z" fill="white"/>
<path d="M105.733 105.732H84.0445C82.5474 105.732 81.3334 106.946 81.3334 108.444C81.3334 109.941 82.5474 111.155 84.0445 111.155H105.733C107.23 111.155 108.444 109.941 108.444 108.444C108.444 106.946 107.231 105.732 105.733 105.732Z" fill="#8DAAD7"/>
</svg>
