<svg width="122" height="122" viewBox="0 0 122 122" fill="none" xmlns="http://www.w3.org/2000/svg">
<path d="M105.577 73.5509C105.577 78.2807 101.743 82.1143 97.0132 82.1143C92.6773 82.1143 28.9809 82.1143 24.9863 82.1143C20.2565 82.1143 16.4229 78.2807 16.4229 73.5509V25.8066H105.577V73.5509Z" fill="white"/>
<path d="M101.471 97.3652C103.09 97.3652 104.404 98.6791 104.404 100.298C104.404 101.917 103.09 103.231 101.471 103.231C99.8522 103.231 98.5383 101.917 98.5383 100.298C98.5383 98.6791 99.8522 97.3652 101.471 97.3652Z" fill="#DAEEFF"/>
<path d="M16.4228 96.1914C19.0153 96.1914 21.1151 98.2912 21.1151 100.884C21.1151 103.476 19.0153 105.576 16.4228 105.576C13.8303 105.576 11.7305 103.476 11.7305 100.884C11.7305 98.2912 13.8303 96.1914 16.4228 96.1914Z" fill="#DAEEFF"/>
<path d="M60.9999 114.962C64.8871 114.962 68.0384 111.81 68.0384 107.923C68.0384 104.036 64.8871 100.885 60.9999 100.885C57.1127 100.885 53.9614 104.036 53.9614 107.923C53.9614 111.81 57.1127 114.962 60.9999 114.962Z" fill="white"/>
<path d="M91.5 82.1152V87.1196C91.5 89.5382 89.5388 91.4998 87.1197 91.4998H61H34.8803C32.4614 91.4998 30.5 89.5385 30.5 87.1196V82.1152H91.5Z" fill="#DAEEFF"/>
<path d="M92.673 52.7891V72.7314H86.8076V55.1352V52.7891H92.673Z" fill="white"/>
<path d="M80.942 57.4805V72.7305H75.0767V59.8266V57.4805H80.942Z" fill="white"/>
<path d="M98.5382 50.4414V72.7299H92.6729V52.7876V50.4414H98.5382Z" fill="#DAEEFF"/>
<path d="M86.8078 55.1348V72.7309H80.9424V57.4809V55.1348H86.8078Z" fill="#DAEEFF"/>
<path d="M69.2114 59.8262H75.0768V72.73H69.2114V59.8262Z" fill="#DAEEFF"/>
<path d="M47.2315 58.631C52.4146 58.631 56.6164 54.4293 56.6164 49.2462C56.6164 44.0631 52.4146 39.8613 47.2315 39.8613C42.0484 39.8613 37.8467 44.0631 37.8467 49.2462C37.8467 54.4293 42.0484 58.631 47.2315 58.631Z" fill="white"/>
<path d="M58.5598 37.3571C65.2581 43.7433 65.3519 54.3526 58.8437 60.8609C53.5836 66.1209 45.6442 67.0617 39.4199 63.695L31.4711 71.6438C30.5561 72.5611 29.3549 73.0186 28.1536 73.0186C26.9524 73.0186 25.7512 72.5611 24.8362 71.6438C23.0038 69.8114 23.0038 66.8389 24.8362 65.0065L32.7849 57.0577C29.3502 50.709 30.3989 42.5773 35.9382 37.3242C42.247 31.3392 52.2674 31.3556 58.5598 37.3571ZM53.8675 55.8823C57.5322 52.2176 57.5322 46.2748 53.8675 42.6101C50.2028 38.9454 44.26 38.9454 40.5953 42.6101C36.9306 46.2748 36.9306 52.2176 40.5953 55.8823C44.26 59.547 50.2028 59.547 53.8675 55.8823Z" fill="#DAEEFF"/>
<path d="M110.856 35.1931C111.828 35.1931 112.615 34.4053 112.615 33.4334C112.615 32.4616 111.828 31.6738 110.856 31.6738C109.884 31.6738 109.096 32.4616 109.096 33.4334C109.096 34.4053 109.884 35.1931 110.856 35.1931Z" fill="#1570EF"/>
<path d="M108.51 87.9802C109.481 87.9802 110.269 87.1924 110.269 86.2206C110.269 85.2487 109.481 84.4609 108.51 84.4609C107.538 84.4609 106.75 85.2487 106.75 86.2206C106.75 87.1924 107.538 87.9802 108.51 87.9802Z" fill="#1570EF"/>
<path d="M86.221 10.5583C87.1929 10.5583 87.9807 9.77049 87.9807 8.79868C87.9807 7.82687 87.1929 7.03906 86.221 7.03906C85.2492 7.03906 84.4614 7.82687 84.4614 8.79868C84.4614 9.77049 85.2492 10.5583 86.221 10.5583Z" fill="#1570EF"/>
<path d="M82.702 106.75C83.6738 106.75 84.4616 105.962 84.4616 104.99C84.4616 104.018 83.6738 103.23 82.702 103.23C81.7302 103.23 80.9424 104.018 80.9424 104.99C80.9424 105.962 81.7302 106.75 82.702 106.75Z" fill="#1570EF"/>
<path d="M41.6444 107.924C42.6162 107.924 43.404 107.136 43.404 106.164C43.404 105.192 42.6162 104.404 41.6444 104.404C40.6726 104.404 39.8848 105.192 39.8848 106.164C39.8848 107.136 40.6726 107.924 41.6444 107.924Z" fill="#1570EF"/>
<path d="M32.2596 12.904C33.2314 12.904 34.0192 12.1162 34.0192 11.1444C34.0192 10.1726 33.2314 9.38477 32.2596 9.38477C31.2878 9.38477 30.5 10.1726 30.5 11.1444C30.5 12.1162 31.2878 12.904 32.2596 12.904Z" fill="#1570EF"/>
<path d="M11.1444 84.4606C12.1162 84.4606 12.904 83.6728 12.904 82.701C12.904 81.7292 12.1162 80.9414 11.1444 80.9414C10.1726 80.9414 9.38477 81.7292 9.38477 82.701C9.38477 83.6728 10.1726 84.4606 11.1444 84.4606Z" fill="#1570EF"/>
<path d="M16.423 26.9808H14.0768C10.8426 26.9808 8.21143 24.3496 8.21143 21.1154C8.21143 19.5496 8.82166 18.0766 9.92975 16.9686C11.0381 15.8602 12.511 15.25 14.0768 15.25H53.9614C54.6092 15.25 55.1345 15.7753 55.1345 16.4231C55.1345 17.0708 54.6092 17.5962 53.9614 17.5962H14.0768C13.1374 17.5962 12.2538 17.9624 11.5887 18.6275C10.9238 19.2924 10.5576 20.176 10.5576 21.1154C10.5576 23.0559 12.1363 24.6346 14.0768 24.6346H16.423C17.0707 24.6346 17.596 25.1599 17.596 25.8077C17.596 26.4555 17.0707 26.9808 16.423 26.9808Z" fill="#1570EF"/>
<path d="M107.923 26.9808H105.577C104.929 26.9808 104.404 26.4555 104.404 25.8077C104.404 25.1599 104.929 24.6346 105.577 24.6346H107.923C108.862 24.6346 109.746 24.2684 110.411 23.6032C111.076 22.9383 111.442 22.0548 111.442 21.1154C111.442 19.1749 109.863 17.5962 107.923 17.5962H68.0383C67.3903 17.5962 66.8652 17.0708 66.8652 16.4231C66.8652 15.7753 67.3903 15.25 68.0383 15.25H107.923C111.157 15.25 113.788 17.8812 113.788 21.1154C113.788 22.6812 113.178 24.1541 112.07 25.2622C110.961 26.3705 109.489 26.9808 107.923 26.9808Z" fill="#1570EF"/>
<path d="M97.0135 83.2886H91.5C90.852 83.2886 90.3269 82.7635 90.3269 82.1155C90.3269 81.4675 90.852 80.9425 91.5 80.9425H97.0135C101.088 80.9425 104.404 77.6271 104.404 73.5521V26.9809H17.5962V73.5521C17.5962 77.6271 20.9115 80.9425 24.9865 80.9425H30.5C31.1478 80.9425 31.6731 81.4675 31.6731 82.1155C31.6731 82.7635 31.1478 83.2886 30.5 83.2886H24.9865C19.6178 83.2886 15.25 78.9208 15.25 73.5521V25.8078C15.25 25.1601 15.7753 24.6348 16.4231 24.6348H105.577C106.225 24.6348 106.75 25.1601 106.75 25.8078V73.5521C106.75 78.9208 102.382 83.2886 97.0135 83.2886Z" fill="#1570EF"/>
<path d="M87.1194 92.6722H34.88C31.8178 92.6722 29.3267 90.181 29.3267 87.1188V82.1145C29.3267 81.4665 29.852 80.9414 30.4997 80.9414H91.4997C92.1477 80.9414 92.6728 81.4665 92.6728 82.1145V87.1188C92.6728 90.181 90.1816 92.6722 87.1194 92.6722ZM31.6728 83.2876V87.1188C31.6728 88.8874 33.1115 90.326 34.88 90.326H87.1194C88.8877 90.326 90.3266 88.8874 90.3266 87.1188V83.2876H31.6728Z" fill="#1570EF"/>
<path d="M68.0383 17.596H53.9614C53.3136 17.596 52.7883 17.0707 52.7883 16.4229V14.0768C52.7883 9.54893 56.472 5.86523 60.9999 5.86523C65.5277 5.86523 69.2114 9.54893 69.2114 14.0768V16.4229C69.2114 17.0707 68.6863 17.596 68.0383 17.596ZM55.1345 15.2498H66.8653V14.0768C66.8653 10.8426 64.234 8.21139 60.9999 8.21139C57.7657 8.21139 55.1345 10.8426 55.1345 14.0768V15.2498Z" fill="#1570EF"/>
<path d="M60.9997 102.057C60.3517 102.057 59.8267 101.532 59.8267 100.884V91.4992C59.8267 90.8512 60.3517 90.3262 60.9997 90.3262C61.6477 90.3262 62.1728 90.8512 62.1728 91.4992V100.884C62.1728 101.532 61.6477 102.057 60.9997 102.057Z" fill="#1570EF"/>
<path d="M60.9996 116.134C56.4718 116.134 52.7881 112.45 52.7881 107.922C52.7881 103.395 56.4718 99.7109 60.9996 99.7109C65.5275 99.7109 69.2112 103.395 69.2112 107.922C69.2112 112.45 65.5275 116.134 60.9996 116.134ZM60.9996 102.057C57.7655 102.057 55.1342 104.688 55.1342 107.922C55.1342 111.157 57.7655 113.788 60.9996 113.788C64.2338 113.788 66.865 111.157 66.865 107.922C66.865 104.688 64.2338 102.057 60.9996 102.057Z" fill="#1570EF"/>
<path d="M16.423 106.75C13.1888 106.75 10.5576 104.119 10.5576 100.885C10.5576 97.6507 13.1888 95.0195 16.423 95.0195C19.6572 95.0195 22.2884 97.6507 22.2884 100.885C22.2884 104.119 19.6572 106.75 16.423 106.75ZM16.423 97.3657C14.4825 97.3657 12.9038 98.9442 12.9038 100.885C12.9038 102.826 14.4825 104.404 16.423 104.404C18.3635 104.404 19.9422 102.826 19.9422 100.885C19.9422 98.9442 18.3635 97.3657 16.423 97.3657Z" fill="#1570EF"/>
<path d="M101.471 104.403C99.2072 104.403 97.3652 102.561 97.3652 100.297C97.3652 98.0334 99.2072 96.1914 101.471 96.1914C103.735 96.1914 105.577 98.0334 105.577 100.297C105.577 102.561 103.735 104.403 101.471 104.403ZM101.471 98.5376C100.501 98.5376 99.7114 99.3268 99.7114 100.297C99.7114 101.268 100.501 102.057 101.471 102.057C102.441 102.057 103.231 101.268 103.231 100.297C103.231 99.3268 102.441 98.5376 101.471 98.5376Z" fill="#1570EF"/>
<path d="M28.1537 74.1932C26.5846 74.1932 25.1117 73.5825 24.0057 72.4737C22.8991 71.3668 22.2891 69.8936 22.2891 68.3264C22.2891 66.7592 22.8991 65.286 24.0069 64.1784L31.3537 56.8319C28.0859 49.9942 29.58 41.7388 35.1314 36.4743C38.3945 33.3788 42.6912 31.6738 47.2303 31.6738C51.7891 31.6738 56.1004 33.3912 59.3698 36.5095C62.8323 39.8105 64.7704 44.2595 64.8274 49.0365C64.8844 53.8168 63.054 58.3111 59.6736 61.6917C56.3522 65.0131 51.9355 66.8422 47.2374 66.8422C47.2371 66.8422 47.2371 66.8422 47.2367 66.8422C44.6101 66.8422 42.005 66.2514 39.648 65.1276L32.301 72.4746C31.1958 73.5827 29.7226 74.1932 28.1537 74.1932ZM47.2301 34.0202C43.2944 34.0202 39.5708 35.4964 36.7456 38.1767C31.7481 42.9159 30.5435 50.451 33.8167 56.5011C34.0637 56.9574 33.9814 57.5219 33.6144 57.8888L25.6656 65.8373C25.001 66.502 24.635 67.386 24.635 68.3264C24.635 69.267 25.001 70.151 25.6656 70.8157C26.3294 71.481 27.2125 71.847 28.1535 71.847C29.0946 71.847 29.9779 71.481 30.6404 70.8166L38.5901 62.8669C38.9571 62.4999 39.5213 62.4176 39.9779 62.6646C42.1929 63.8626 44.703 64.4961 47.2364 64.4961C51.3082 64.4963 55.1357 62.9112 58.0142 60.0327C60.9438 57.1028 62.5303 53.2075 62.481 49.0645C62.4318 44.9247 60.7514 41.069 57.7502 38.2074C54.9191 35.5072 51.1831 34.0202 47.2301 34.0202Z" fill="#1570EF"/>
<path d="M47.2317 59.8051C44.4113 59.8051 41.76 58.7068 39.766 56.7128C35.6496 52.5963 35.6496 45.8982 39.766 41.7817C41.76 39.7877 44.4113 38.6895 47.2317 38.6895C50.052 38.6895 52.7034 39.7877 54.6974 41.7817C56.6914 43.7757 57.7896 46.4271 57.7896 49.2471C57.7896 52.0675 56.6914 54.7188 54.6974 56.7128C52.7034 58.7071 50.052 59.8051 47.2317 59.8051ZM47.2317 41.0358C45.038 41.0358 42.976 41.8901 41.4252 43.4409C38.2236 46.6424 38.2236 51.8523 41.4252 55.0539C42.976 56.6047 45.0382 57.4589 47.2317 57.4589C49.4253 57.4589 51.4873 56.6047 53.0384 55.0539C54.5892 53.5031 55.4434 51.441 55.4434 49.2474C55.4434 47.0537 54.5892 44.9917 53.0384 43.4409C51.4873 41.8898 49.4253 41.0358 47.2317 41.0358Z" fill="#1570EF"/>
<path d="M98.5385 73.9042C97.8904 73.9042 97.3654 73.3791 97.3654 72.7311V51.6157H93.8462V52.7888C93.8462 53.4365 93.3211 53.9618 92.6731 53.9618C92.0251 53.9618 91.5 53.4365 91.5 52.7888V50.4426C91.5 49.7948 92.0251 49.2695 92.6731 49.2695H98.5385C99.1865 49.2695 99.7115 49.7948 99.7115 50.4426V72.7311C99.7115 73.3791 99.1865 73.9042 98.5385 73.9042Z" fill="#1570EF"/>
<path d="M92.673 73.9037C92.025 73.9037 91.4999 73.3786 91.4999 72.7306V53.9614H87.9807V55.1345C87.9807 55.7822 87.4556 56.3075 86.8076 56.3075C86.1596 56.3075 85.6345 55.7822 85.6345 55.1345V52.7883C85.6345 52.1405 86.1596 51.6152 86.8076 51.6152H92.673C93.321 51.6152 93.8461 52.1405 93.8461 52.7883V72.7306C93.8461 73.3786 93.321 73.9037 92.673 73.9037Z" fill="#1570EF"/>
<path d="M86.8075 73.9032C86.1595 73.9032 85.6344 73.3782 85.6344 72.7302V56.3071H82.1152V57.4802C82.1152 58.1279 81.5901 58.6532 80.9421 58.6532C80.2941 58.6532 79.769 58.1279 79.769 57.4802V55.134C79.769 54.4862 80.2941 53.9609 80.9421 53.9609H86.8075C87.4555 53.9609 87.9806 54.4862 87.9806 55.134V72.7302C87.9806 73.3782 87.4555 73.9032 86.8075 73.9032Z" fill="#1570EF"/>
<path d="M80.9423 73.9028C80.2943 73.9028 79.7692 73.3777 79.7692 72.7297V58.6528H76.25V59.8259C76.25 60.4739 75.7249 60.9989 75.0769 60.9989C74.4289 60.9989 73.9038 60.4739 73.9038 59.8259V57.4797C73.9038 56.8319 74.4289 56.3066 75.0769 56.3066H80.9423C81.5903 56.3066 82.1153 56.8319 82.1153 57.4797V72.7297C82.1153 73.3777 81.5903 73.9028 80.9423 73.9028Z" fill="#1570EF"/>
<path d="M75.0765 73.9043C74.4285 73.9043 73.9035 73.3792 73.9035 72.7312V61.0005H70.3842V72.7312C70.3842 73.3792 69.8592 73.9043 69.2112 73.9043C68.5632 73.9043 68.0381 73.3792 68.0381 72.7312V59.8274C68.0381 59.1796 68.5632 58.6543 69.2112 58.6543H75.0765C75.7245 58.6543 76.2496 59.1796 76.2496 59.8274V72.7312C76.2496 73.3792 75.7245 73.9043 75.0765 73.9043Z" fill="#1570EF"/>
<path d="M105.577 73.9028H53.9612C53.3134 73.9028 52.7881 73.3777 52.7881 72.7297C52.7881 72.0817 53.3134 71.5566 53.9612 71.5566H105.577C106.225 71.5566 106.75 72.0817 106.75 72.7297C106.75 73.3777 106.225 73.9028 105.577 73.9028Z" fill="#1570EF"/>
<path d="M98.5383 32.8462H83.2883C82.6403 32.8462 82.1152 32.3208 82.1152 31.6731C82.1152 31.0253 82.6403 30.5 83.2883 30.5H98.5383C99.1863 30.5 99.7114 31.0253 99.7114 31.6731C99.7114 32.3208 99.1863 32.8462 98.5383 32.8462Z" fill="#1570EF"/>
<path d="M98.5383 37.5376H83.2883C82.6403 37.5376 82.1152 37.0123 82.1152 36.3645C82.1152 35.7167 82.6403 35.1914 83.2883 35.1914H98.5383C99.1863 35.1914 99.7114 35.7167 99.7114 36.3645C99.7114 37.0123 99.1863 37.5376 98.5383 37.5376Z" fill="#1570EF"/>
</svg>
