<svg width="123" height="122" viewBox="0 0 123 122" fill="none" xmlns="http://www.w3.org/2000/svg">
<path d="M106.077 73.5509C106.077 78.2807 102.243 82.1143 97.5135 82.1143C93.1776 82.1143 29.4811 82.1143 25.4866 82.1143C20.7567 82.1143 16.9231 78.2807 16.9231 73.5509V25.8066H106.077V73.5509Z" fill="white"/>
<path d="M101.971 97.3652C103.59 97.3652 104.904 98.6791 104.904 100.298C104.904 101.917 103.59 103.231 101.971 103.231C100.352 103.231 99.0385 101.917 99.0385 100.298C99.0385 98.6791 100.352 97.3652 101.971 97.3652Z" fill="#FFBF80"/>
<path d="M16.9231 96.1914C19.5156 96.1914 21.6155 98.2912 21.6155 100.884C21.6155 103.476 19.5156 105.576 16.9231 105.576C14.3306 105.576 12.2308 103.476 12.2308 100.884C12.2308 98.2912 14.3306 96.1914 16.9231 96.1914Z" fill="#FFBF80"/>
<path d="M61.5 114.962C65.3872 114.962 68.5385 111.81 68.5385 107.923C68.5385 104.036 65.3872 100.885 61.5 100.885C57.6128 100.885 54.4615 104.036 54.4615 107.923C54.4615 111.81 57.6128 114.962 61.5 114.962Z" fill="white"/>
<path d="M92 82.1152V87.1196C92 89.5382 90.0388 91.4998 87.6197 91.4998H61.5H35.3803C32.9614 91.4998 31 89.5385 31 87.1196V82.1152H92Z" fill="#FFBF80"/>
<path d="M93.1731 52.7891V72.7314H87.3077V55.1352V52.7891H93.1731Z" fill="white"/>
<path d="M81.4423 57.4805V72.7305H75.5769V59.8266V57.4805H81.4423Z" fill="white"/>
<path d="M99.0385 50.4414V72.7299H93.1731V52.7876V50.4414H99.0385Z" fill="#FFBF80"/>
<path d="M87.3076 55.1348V72.7309H81.4423V57.4809V55.1348H87.3076Z" fill="#FFBF80"/>
<path d="M69.7115 59.8262H75.577V72.73H69.7115V59.8262Z" fill="#FFBF80"/>
<path d="M47.7317 58.631C52.9148 58.631 57.1165 54.4293 57.1165 49.2462C57.1165 44.0631 52.9148 39.8613 47.7317 39.8613C42.5485 39.8613 38.3468 44.0631 38.3468 49.2462C38.3468 54.4293 42.5485 58.631 47.7317 58.631Z" fill="white"/>
<path d="M59.06 37.3571C65.7583 43.7433 65.8521 54.3526 59.3439 60.8609C54.0838 66.1209 46.1445 67.0617 39.9201 63.695L31.9713 71.6438C31.0563 72.5611 29.8551 73.0186 28.6539 73.0186C27.4526 73.0186 26.2514 72.5611 25.3364 71.6438C23.5041 69.8114 23.5041 66.8389 25.3364 65.0065L33.2852 57.0577C29.8504 50.709 30.8991 42.5773 36.4384 37.3242C42.7472 31.3392 52.7676 31.3556 59.06 37.3571ZM54.3677 55.8823C58.0324 52.2176 58.0324 46.2748 54.3677 42.6101C50.703 38.9454 44.7602 38.9454 41.0955 42.6101C37.4308 46.2748 37.4308 52.2176 41.0955 55.8823C44.7602 59.547 50.703 59.547 54.3677 55.8823Z" fill="#FFBF80"/>
<path d="M111.356 35.1931C112.328 35.1931 113.115 34.4053 113.115 33.4334C113.115 32.4616 112.328 31.6738 111.356 31.6738C110.384 31.6738 109.596 32.4616 109.596 33.4334C109.596 34.4053 110.384 35.1931 111.356 35.1931Z" fill="#E57200"/>
<path d="M109.01 87.9802C109.981 87.9802 110.769 87.1924 110.769 86.2206C110.769 85.2487 109.981 84.4609 109.01 84.4609C108.038 84.4609 107.25 85.2487 107.25 86.2206C107.25 87.1924 108.038 87.9802 109.01 87.9802Z" fill="#E57200"/>
<path d="M86.7212 10.5583C87.693 10.5583 88.4808 9.77049 88.4808 8.79868C88.4808 7.82687 87.693 7.03906 86.7212 7.03906C85.7494 7.03906 84.9615 7.82687 84.9615 8.79868C84.9615 9.77049 85.7494 10.5583 86.7212 10.5583Z" fill="#E57200"/>
<path d="M83.2019 106.75C84.1737 106.75 84.9615 105.962 84.9615 104.99C84.9615 104.018 84.1737 103.23 83.2019 103.23C82.2301 103.23 81.4423 104.018 81.4423 104.99C81.4423 105.962 82.2301 106.75 83.2019 106.75Z" fill="#E57200"/>
<path d="M42.1443 107.924C43.1161 107.924 43.9039 107.136 43.9039 106.164C43.9039 105.192 43.1161 104.404 42.1443 104.404C41.1725 104.404 40.3846 105.192 40.3846 106.164C40.3846 107.136 41.1725 107.924 42.1443 107.924Z" fill="#E57200"/>
<path d="M32.7596 12.904C33.7314 12.904 34.5192 12.1162 34.5192 11.1444C34.5192 10.1726 33.7314 9.38477 32.7596 9.38477C31.7878 9.38477 31 10.1726 31 11.1444C31 12.1162 31.7878 12.904 32.7596 12.904Z" fill="#E57200"/>
<path d="M11.6443 84.4606C12.6161 84.4606 13.4039 83.6728 13.4039 82.701C13.4039 81.7292 12.6161 80.9414 11.6443 80.9414C10.6725 80.9414 9.88464 81.7292 9.88464 82.701C9.88464 83.6728 10.6725 84.4606 11.6443 84.4606Z" fill="#E57200"/>
<path d="M16.9231 26.9808H14.5769C11.3428 26.9808 8.71155 24.3496 8.71155 21.1154C8.71155 19.5496 9.32178 18.0766 10.4299 16.9686C11.5382 15.8602 13.0111 15.25 14.5769 15.25H54.4616C55.1093 15.25 55.6346 15.7753 55.6346 16.4231C55.6346 17.0708 55.1093 17.5962 54.4616 17.5962H14.5769C13.6375 17.5962 12.754 17.9624 12.0888 18.6275C11.4239 19.2924 11.0577 20.176 11.0577 21.1154C11.0577 23.0559 12.6364 24.6346 14.5769 24.6346H16.9231C17.5709 24.6346 18.0962 25.1599 18.0962 25.8077C18.0962 26.4555 17.5709 26.9808 16.9231 26.9808Z" fill="#E57200"/>
<path d="M108.423 26.9808H106.077C105.429 26.9808 104.904 26.4555 104.904 25.8077C104.904 25.1599 105.429 24.6346 106.077 24.6346H108.423C109.362 24.6346 110.246 24.2684 110.911 23.6032C111.576 22.9383 111.942 22.0548 111.942 21.1154C111.942 19.1749 110.364 17.5962 108.423 17.5962H68.5384C67.8904 17.5962 67.3654 17.0708 67.3654 16.4231C67.3654 15.7753 67.8904 15.25 68.5384 15.25H108.423C111.657 15.25 114.288 17.8812 114.288 21.1154C114.288 22.6812 113.678 24.1541 112.57 25.2622C111.462 26.3705 109.989 26.9808 108.423 26.9808Z" fill="#E57200"/>
<path d="M97.5135 83.2886H92C91.352 83.2886 90.8269 82.7635 90.8269 82.1155C90.8269 81.4675 91.352 80.9425 92 80.9425H97.5135C101.588 80.9425 104.904 77.6271 104.904 73.5521V26.9809H18.0962V73.5521C18.0962 77.6271 21.4115 80.9425 25.4865 80.9425H31C31.6478 80.9425 32.1731 81.4675 32.1731 82.1155C32.1731 82.7635 31.6478 83.2886 31 83.2886H25.4865C20.1178 83.2886 15.75 78.9208 15.75 73.5521V25.8078C15.75 25.1601 16.2753 24.6348 16.9231 24.6348H106.077C106.725 24.6348 107.25 25.1601 107.25 25.8078V73.5521C107.25 78.9208 102.882 83.2886 97.5135 83.2886Z" fill="#E57200"/>
<path d="M87.6197 92.6722H35.3802C32.318 92.6722 29.8269 90.181 29.8269 87.1188V82.1145C29.8269 81.4665 30.3522 80.9414 31 80.9414H92C92.648 80.9414 93.173 81.4665 93.173 82.1145V87.1188C93.173 90.181 90.6819 92.6722 87.6197 92.6722ZM32.1731 83.2876V87.1188C32.1731 88.8874 33.6117 90.326 35.3802 90.326H87.6197C89.388 90.326 90.8269 88.8874 90.8269 87.1188V83.2876H32.1731Z" fill="#E57200"/>
<path d="M68.5385 17.596H54.4615C53.8138 17.596 53.2885 17.0707 53.2885 16.4229V14.0768C53.2885 9.54893 56.9721 5.86523 61.5 5.86523C66.0278 5.86523 69.7115 9.54893 69.7115 14.0768V16.4229C69.7115 17.0707 69.1865 17.596 68.5385 17.596ZM55.6346 15.2498H67.3654V14.0768C67.3654 10.8426 64.7342 8.21139 61.5 8.21139C58.2658 8.21139 55.6346 10.8426 55.6346 14.0768V15.2498Z" fill="#E57200"/>
<path d="M61.5 102.057C60.852 102.057 60.3269 101.532 60.3269 100.884V91.4992C60.3269 90.8512 60.852 90.3262 61.5 90.3262C62.148 90.3262 62.6731 90.8512 62.6731 91.4992V100.884C62.6731 101.532 62.148 102.057 61.5 102.057Z" fill="#E57200"/>
<path d="M61.5 116.134C56.9721 116.134 53.2885 112.45 53.2885 107.922C53.2885 103.395 56.9721 99.7109 61.5 99.7109C66.0278 99.7109 69.7115 103.395 69.7115 107.922C69.7115 112.45 66.0278 116.134 61.5 116.134ZM61.5 102.057C58.2658 102.057 55.6346 104.688 55.6346 107.922C55.6346 111.157 58.2658 113.788 61.5 113.788C64.7342 113.788 67.3654 111.157 67.3654 107.922C67.3654 104.688 64.7342 102.057 61.5 102.057Z" fill="#E57200"/>
<path d="M16.9231 106.75C13.689 106.75 11.0577 104.119 11.0577 100.885C11.0577 97.6507 13.689 95.0195 16.9231 95.0195C20.1573 95.0195 22.7885 97.6507 22.7885 100.885C22.7885 104.119 20.1573 106.75 16.9231 106.75ZM16.9231 97.3657C14.9826 97.3657 13.4039 98.9442 13.4039 100.885C13.4039 102.826 14.9826 104.404 16.9231 104.404C18.8636 104.404 20.4424 102.826 20.4424 100.885C20.4424 98.9442 18.8636 97.3657 16.9231 97.3657Z" fill="#E57200"/>
<path d="M101.971 104.403C99.7073 104.403 97.8654 102.561 97.8654 100.297C97.8654 98.0334 99.7073 96.1914 101.971 96.1914C104.235 96.1914 106.077 98.0334 106.077 100.297C106.077 102.561 104.235 104.403 101.971 104.403ZM101.971 98.5376C101.001 98.5376 100.212 99.3268 100.212 100.297C100.212 101.268 101.001 102.057 101.971 102.057C102.941 102.057 103.731 101.268 103.731 100.297C103.731 99.3268 102.941 98.5376 101.971 98.5376Z" fill="#E57200"/>
<path d="M28.6539 74.1932C27.0848 74.1932 25.6118 73.5825 24.5059 72.4737C23.3992 71.3668 22.7892 69.8936 22.7892 68.3264C22.7892 66.7592 23.3992 65.286 24.507 64.1784L31.8538 56.8319C28.5861 49.9942 30.0801 41.7388 35.6316 36.4743C38.8946 33.3788 43.1913 31.6738 47.7304 31.6738C52.2893 31.6738 56.6006 33.3912 59.8699 36.5095C63.3324 39.8105 65.2705 44.2595 65.3275 49.0365C65.3846 53.8168 63.5541 58.3111 60.1737 61.6917C56.8523 65.0131 52.4357 66.8422 47.7375 66.8422C47.7373 66.8422 47.7373 66.8422 47.7368 66.8422C45.1103 66.8422 42.5051 66.2514 40.1481 65.1276L32.8012 72.4746C31.6959 73.5827 30.2227 74.1932 28.6539 74.1932ZM47.7302 34.0202C43.7945 34.0202 40.071 35.4964 37.2457 38.1767C32.2482 42.9159 31.0437 50.451 34.3168 56.5011C34.5638 56.9574 34.4815 57.5219 34.1145 57.8888L26.1658 65.8373C25.5011 66.502 25.1351 67.386 25.1351 68.3264C25.1351 69.267 25.5011 70.151 26.1658 70.8157C26.8295 71.481 27.7126 71.847 28.6536 71.847C29.5947 71.847 30.478 71.481 31.1406 70.8166L39.0903 62.8669C39.4572 62.4999 40.0215 62.4176 40.478 62.6646C42.693 63.8626 45.2032 64.4961 47.7365 64.4961C51.8083 64.4963 55.6358 62.9112 58.5143 60.0327C61.444 57.1028 63.0304 53.2075 62.9812 49.0645C62.9319 44.9247 61.2516 41.069 58.2504 38.2074C55.4193 35.5072 51.6833 34.0202 47.7302 34.0202Z" fill="#E57200"/>
<path d="M47.7317 59.8051C44.9113 59.8051 42.26 58.7068 40.266 56.7128C36.1496 52.5963 36.1496 45.8982 40.266 41.7817C42.26 39.7877 44.9113 38.6895 47.7317 38.6895C50.552 38.6895 53.2034 39.7877 55.1974 41.7817C57.1914 43.7757 58.2896 46.4271 58.2896 49.2471C58.2896 52.0675 57.1914 54.7188 55.1974 56.7128C53.2034 58.7071 50.552 59.8051 47.7317 59.8051ZM47.7317 41.0358C45.538 41.0358 43.476 41.8901 41.9252 43.4409C38.7236 46.6424 38.7236 51.8523 41.9252 55.0539C43.476 56.6047 45.5382 57.4589 47.7317 57.4589C49.9253 57.4589 51.9873 56.6047 53.5384 55.0539C55.0892 53.5031 55.9434 51.441 55.9434 49.2474C55.9434 47.0537 55.0892 44.9917 53.5384 43.4409C51.9873 41.8898 49.9253 41.0358 47.7317 41.0358Z" fill="#E57200"/>
<path d="M99.0385 73.9042C98.3904 73.9042 97.8654 73.3791 97.8654 72.7311V51.6157H94.3462V52.7888C94.3462 53.4365 93.8211 53.9618 93.1731 53.9618C92.5251 53.9618 92 53.4365 92 52.7888V50.4426C92 49.7948 92.5251 49.2695 93.1731 49.2695H99.0385C99.6865 49.2695 100.212 49.7948 100.212 50.4426V72.7311C100.212 73.3791 99.6865 73.9042 99.0385 73.9042Z" fill="#E57200"/>
<path d="M93.1731 73.9037C92.5251 73.9037 92 73.3786 92 72.7306V53.9614H88.4808V55.1345C88.4808 55.7822 87.9557 56.3075 87.3077 56.3075C86.6597 56.3075 86.1346 55.7822 86.1346 55.1345V52.7883C86.1346 52.1405 86.6597 51.6152 87.3077 51.6152H93.1731C93.8211 51.6152 94.3462 52.1405 94.3462 52.7883V72.7306C94.3462 73.3786 93.8211 73.9037 93.1731 73.9037Z" fill="#E57200"/>
<path d="M87.3076 73.9032C86.6596 73.9032 86.1346 73.3782 86.1346 72.7302V56.3071H82.6153V57.4802C82.6153 58.1279 82.0903 58.6532 81.4422 58.6532C80.7942 58.6532 80.2692 58.1279 80.2692 57.4802V55.134C80.2692 54.4862 80.7942 53.9609 81.4422 53.9609H87.3076C87.9556 53.9609 88.4807 54.4862 88.4807 55.134V72.7302C88.4807 73.3782 87.9556 73.9032 87.3076 73.9032Z" fill="#E57200"/>
<path d="M81.4423 73.9028C80.7943 73.9028 80.2692 73.3777 80.2692 72.7297V58.6528H76.75V59.8259C76.75 60.4739 76.2249 60.9989 75.5769 60.9989C74.9289 60.9989 74.4038 60.4739 74.4038 59.8259V57.4797C74.4038 56.8319 74.9289 56.3066 75.5769 56.3066H81.4423C82.0903 56.3066 82.6153 56.8319 82.6153 57.4797V72.7297C82.6153 73.3777 82.0903 73.9028 81.4423 73.9028Z" fill="#E57200"/>
<path d="M75.5769 73.9043C74.9289 73.9043 74.4038 73.3792 74.4038 72.7312V61.0005H70.8846V72.7312C70.8846 73.3792 70.3595 73.9043 69.7115 73.9043C69.0635 73.9043 68.5385 73.3792 68.5385 72.7312V59.8274C68.5385 59.1796 69.0635 58.6543 69.7115 58.6543H75.5769C76.2249 58.6543 76.75 59.1796 76.75 59.8274V72.7312C76.75 73.3792 76.2249 73.9043 75.5769 73.9043Z" fill="#E57200"/>
<path d="M106.077 73.9028H54.4615C53.8138 73.9028 53.2885 73.3777 53.2885 72.7297C53.2885 72.0817 53.8138 71.5566 54.4615 71.5566H106.077C106.725 71.5566 107.25 72.0817 107.25 72.7297C107.25 73.3777 106.725 73.9028 106.077 73.9028Z" fill="#E57200"/>
<path d="M99.0384 32.8462H83.7884C83.1404 32.8462 82.6154 32.3208 82.6154 31.6731C82.6154 31.0253 83.1404 30.5 83.7884 30.5H99.0384C99.6864 30.5 100.212 31.0253 100.212 31.6731C100.212 32.3208 99.6864 32.8462 99.0384 32.8462Z" fill="#E57200"/>
<path d="M99.0384 37.5376H83.7884C83.1404 37.5376 82.6154 37.0123 82.6154 36.3645C82.6154 35.7167 83.1404 35.1914 83.7884 35.1914H99.0384C99.6864 35.1914 100.212 35.7167 100.212 36.3645C100.212 37.0123 99.6864 37.5376 99.0384 37.5376Z" fill="#E57200"/>
</svg>
