<svg width="123" height="122" viewBox="0 0 123 122" fill="none" xmlns="http://www.w3.org/2000/svg">
<path d="M106.389 28.1543V72.7312H17.2357V28.1543H106.389Z" fill="white"/>
<path d="M71.1385 46.9231C65.9864 46.9231 61.8126 51.0992 61.8126 56.249V19.9423C61.8126 14.6072 66.1365 10.2832 71.4693 10.2832H92.3126V46.9231H71.1385Z" fill="white"/>
<path d="M108.736 8.21094C110.678 8.21094 112.255 9.78755 112.255 11.7302C112.255 13.6728 110.678 15.2494 108.736 15.2494C106.791 15.2494 105.216 13.6728 105.216 11.7302C105.216 9.78755 106.791 8.21094 108.736 8.21094Z" fill="#FFBF80"/>
<path d="M13.7164 7.03906C16.3066 7.03906 18.4087 9.13887 18.4087 11.7314C18.4087 14.3239 16.3066 16.4237 13.7164 16.4237C11.1239 16.4237 9.02411 14.3239 9.02411 11.7314C9.02411 9.13887 11.1239 7.03906 13.7164 7.03906Z" fill="#FFBF80"/>
<path d="M25.4472 114.962C29.3345 114.962 32.4857 111.81 32.4857 107.923C32.4857 104.036 29.3345 100.885 25.4472 100.885C21.56 100.885 18.4088 104.036 18.4088 107.923C18.4088 111.81 21.56 114.962 25.4472 114.962Z" fill="#FFBF80"/>
<path d="M17.2357 72.7305H106.389V79.7689H17.2357V72.7305Z" fill="white"/>
<path d="M61.8126 56.2498C61.8126 51.1 65.9864 46.9238 71.1385 46.9238H92.3126V56.3084H61.8126V56.2498Z" fill="#FFBF80"/>
<path d="M61.8125 56.2498V56.3084H31.3125V46.9238H52.4865C57.6363 46.9238 61.8125 51.1 61.8125 56.2498Z" fill="#FFBF80"/>
<path d="M82.928 30.5001H71.1972L77.0626 24.6348L82.928 30.5001Z" fill="white"/>
<path d="M82.928 18.7695L77.0626 24.6349L71.1972 18.7695H82.928Z" fill="white"/>
<path d="M82.9279 18.7695V30.5003L77.0626 24.6349L82.9279 18.7695Z" fill="#FFBF80"/>
<path d="M77.0626 24.6349L71.1972 30.5003V18.7695L77.0626 24.6349Z" fill="#FFBF80"/>
<path d="M61.8126 19.9423V56.249C61.8126 51.0992 57.6364 46.9231 52.4866 46.9231H31.3126V28.1539V21.1154V10.2832H52.1534C57.4886 10.2832 61.8126 14.6072 61.8126 19.9423Z" fill="white"/>
<path d="M79.9953 109.096C81.6141 109.096 82.928 110.41 82.928 112.028C82.928 112.838 82.5995 113.572 82.0693 114.102C81.5367 114.633 80.8047 114.961 79.9953 114.961H43.6299C42.0087 114.961 40.6972 113.647 40.6972 112.028C40.6972 111.219 41.0257 110.485 41.5559 109.954C42.0861 109.424 42.8205 109.096 43.6299 109.096H53.6011H70.0241H79.9953Z" fill="white"/>
<path d="M79.4087 93.8457V95.1361C79.4087 97.6629 77.3605 99.7111 74.8337 99.7111H70.0241H53.601H48.7914C46.2646 99.7111 44.2164 97.6629 44.2164 95.1361V93.8457H79.4087Z" fill="white"/>
<path d="M106.976 103.23C107.948 103.23 108.736 102.442 108.736 101.471C108.736 100.499 107.948 99.7109 106.976 99.7109C106.004 99.7109 105.216 100.499 105.216 101.471C105.216 102.442 106.004 103.23 106.976 103.23Z" fill="#E57200"/>
<path d="M98.7644 10.5583C99.7362 10.5583 100.524 9.77049 100.524 8.79868C100.524 7.82687 99.7362 7.03906 98.7644 7.03906C97.7926 7.03906 97.0048 7.82687 97.0048 8.79868C97.0048 9.77049 97.7926 10.5583 98.7644 10.5583Z" fill="#E57200"/>
<path d="M91.726 107.924C92.6978 107.924 93.4856 107.136 93.4856 106.164C93.4856 105.192 92.6978 104.404 91.726 104.404C90.7542 104.404 89.9664 105.192 89.9664 106.164C89.9664 107.136 90.7542 107.924 91.726 107.924Z" fill="#E57200"/>
<path d="M63.4712 85.1484C63.8961 85.5732 64.1587 86.1598 64.1587 86.8071C64.1587 87.4544 63.8961 88.0412 63.4712 88.4658C63.0466 88.8905 62.46 89.1532 61.8125 89.1532C60.5151 89.1532 59.4664 88.1022 59.4664 86.8071C59.4664 86.1595 59.7291 85.573 60.1538 85.1484C60.5761 84.7237 61.1626 84.4609 61.8125 84.4609C62.46 84.4609 63.0466 84.7237 63.4712 85.1484Z" fill="#E57200"/>
<path d="M37.7645 100.884C38.7363 100.884 39.5241 100.097 39.5241 99.1249C39.5241 98.153 38.7363 97.3652 37.7645 97.3652C36.7927 97.3652 36.0049 98.153 36.0049 99.1249C36.0049 100.097 36.7927 100.884 37.7645 100.884Z" fill="#E57200"/>
<path d="M24.8606 16.4235C25.8324 16.4235 26.6202 15.6357 26.6202 14.6639C26.6202 13.6921 25.8324 12.9043 24.8606 12.9043C23.8888 12.9043 23.101 13.6921 23.101 14.6639C23.101 15.6357 23.8888 16.4235 24.8606 16.4235Z" fill="#E57200"/>
<path d="M11.9568 104.404C12.9286 104.404 13.7164 103.616 13.7164 102.644C13.7164 101.673 12.9286 100.885 11.9568 100.885C10.985 100.885 10.1972 101.673 10.1972 102.644C10.1972 103.616 10.985 104.404 11.9568 104.404Z" fill="#E57200"/>
<path d="M44.2164 95.0183H16.2174C12.251 95.0183 9.02411 91.7902 9.02411 87.8227V27.1371C9.02411 23.1692 12.251 19.9414 16.2174 19.9414H31.3126C31.9603 19.9414 32.4856 20.4667 32.4856 21.1145C32.4856 21.7623 31.9603 22.2876 31.3126 22.2876H16.2174C13.5444 22.2876 11.3703 24.4629 11.3703 27.1371V87.8227C11.3703 90.4966 13.5447 92.6722 16.2174 92.6722H44.2164C44.8642 92.6722 45.3895 93.1972 45.3895 93.8452C45.3895 94.4933 44.8642 95.0183 44.2164 95.0183Z" fill="#E57200"/>
<path d="M107.405 95.0183H79.4087C78.7607 95.0183 78.2357 94.4933 78.2357 93.8452C78.2357 93.1972 78.7607 92.6722 79.4087 92.6722H107.405C110.079 92.6722 112.255 90.4968 112.255 87.8227V27.1371C112.255 24.4631 110.079 22.2876 107.405 22.2876H92.3126C91.6646 22.2876 91.1395 21.7623 91.1395 21.1145C91.1395 20.4667 91.6646 19.9414 92.3126 19.9414H107.405C111.373 19.9414 114.601 23.1692 114.601 27.1371V87.8227C114.601 91.7902 111.373 95.0183 107.405 95.0183Z" fill="#E57200"/>
<path d="M106.389 80.942H17.2356C16.5879 80.942 16.0626 80.4169 16.0626 79.7689V28.1535C16.0626 27.5058 16.5879 26.9805 17.2356 26.9805H31.3126C31.9603 26.9805 32.4856 27.5058 32.4856 28.1535C32.4856 28.8013 31.9603 29.3266 31.3126 29.3266H18.4087V78.5958H105.216V29.3266H92.3126C91.6646 29.3266 91.1395 28.8013 91.1395 28.1535C91.1395 27.5058 91.6646 26.9805 92.3126 26.9805H106.389C107.037 26.9805 107.563 27.5058 107.563 28.1535V79.7689C107.563 80.4169 107.037 80.942 106.389 80.942Z" fill="#E57200"/>
<path d="M74.8337 100.885H70.0241C69.3761 100.885 68.851 100.36 68.851 99.7123C68.851 99.0643 69.3761 98.5392 70.0241 98.5392H74.8337C76.7094 98.5392 78.2356 97.013 78.2356 95.1373V95.02H45.3894V95.1373C45.3894 97.013 46.9156 98.5392 48.7914 98.5392H53.601C54.2487 98.5392 54.7741 99.0643 54.7741 99.7123C54.7741 100.36 54.2487 100.885 53.601 100.885H48.7914C45.6219 100.885 43.0433 98.3069 43.0433 95.1373V93.8469C43.0433 93.1989 43.5686 92.6738 44.2164 92.6738H79.4087C80.0567 92.6738 80.5818 93.1989 80.5818 93.8469V95.1373C80.5818 98.3069 78.0033 100.885 74.8337 100.885Z" fill="#E57200"/>
<path d="M70.0241 110.27C69.3761 110.27 68.851 109.745 68.851 109.097V100.885H54.7741V109.097C54.7741 109.745 54.2488 110.27 53.601 110.27C52.9532 110.27 52.4279 109.745 52.4279 109.097V99.7121C52.4279 99.0641 52.9532 98.5391 53.601 98.5391H70.0241C70.6721 98.5391 71.1972 99.0641 71.1972 99.7121V109.097C71.1972 109.745 70.6721 110.27 70.0241 110.27Z" fill="#E57200"/>
<path d="M79.9952 116.135H43.6298C41.366 116.135 39.524 114.293 39.524 112.03C39.524 110.933 39.951 109.902 40.7262 109.126C41.5019 108.351 42.533 107.924 43.6298 107.924H79.9952C82.259 107.924 84.101 109.766 84.101 112.03C84.101 113.127 83.674 114.158 82.8988 114.933C82.1192 115.709 81.0888 116.135 79.9952 116.135ZM43.6298 110.27C43.1596 110.27 42.7176 110.453 42.3852 110.785C42.0532 111.117 41.8702 111.559 41.8702 112.03C41.8702 113 42.6594 113.789 43.6298 113.789H79.9952C80.464 113.789 80.9067 113.606 81.2417 113.272C81.5721 112.942 81.7551 112.5 81.7551 112.03C81.7551 111.059 80.9658 110.27 79.9955 110.27H43.6298Z" fill="#E57200"/>
<path d="M25.4472 116.134C20.9194 116.134 17.2357 112.45 17.2357 107.922C17.2357 103.395 20.9194 99.7109 25.4472 99.7109C29.975 99.7109 33.6587 103.395 33.6587 107.922C33.6587 112.45 29.975 116.134 25.4472 116.134ZM25.4472 102.057C22.213 102.057 19.5818 104.688 19.5818 107.922C19.5818 111.157 22.213 113.788 25.4472 113.788C28.6814 113.788 31.3126 111.157 31.3126 107.922C31.3126 104.688 28.6814 102.057 25.4472 102.057Z" fill="#E57200"/>
<path d="M31.3125 48.0954C30.6648 48.0954 30.1395 47.5701 30.1395 46.9223V10.2825C30.1395 9.63468 30.6648 9.10938 31.3125 9.10938H52.1534C58.1263 9.10938 62.9856 13.9687 62.9856 19.9416C62.9856 20.5893 62.4605 21.1146 61.8125 21.1146C61.1645 21.1146 60.6395 20.5893 60.6395 19.9416C60.6395 15.2624 56.8326 11.4555 52.1534 11.4555H32.4856V46.9223C32.4856 47.5701 31.9603 48.0954 31.3125 48.0954Z" fill="#E57200"/>
<path d="M61.8125 57.4808H31.3125C30.6648 57.4808 30.1395 56.9555 30.1395 56.3077V46.9231C30.1395 46.2753 30.6648 45.75 31.3125 45.75H52.4866C58.2757 45.75 62.9856 50.4599 62.9856 56.249C62.9856 56.2589 62.9856 56.2685 62.9851 56.2784C62.9856 56.2882 62.9856 56.2978 62.9856 56.3077C62.9856 56.9555 62.4605 57.4808 61.8125 57.4808ZM32.4856 55.1346H60.5637C60.0187 51.1642 56.6043 48.0962 52.4866 48.0962H32.4856V55.1346Z" fill="#E57200"/>
<path d="M61.8125 57.4214C61.1645 57.4214 60.6395 56.8961 60.6395 56.2483V19.9416C60.6395 13.9687 65.4976 9.10938 71.4693 9.10938H92.3125C92.9605 9.10938 93.4856 9.63468 93.4856 10.2825V46.9223C93.4856 47.5701 92.9605 48.0954 92.3125 48.0954C91.6645 48.0954 91.1394 47.5701 91.1394 46.9223V11.4555H71.4693C66.7913 11.4555 62.9856 15.2624 62.9856 19.9416V56.2483C62.9856 56.8961 62.4605 57.4214 61.8125 57.4214Z" fill="#E57200"/>
<path d="M92.3125 57.4808H61.8125C61.1645 57.4808 60.6395 56.9555 60.6395 56.3077V56.249C60.6395 50.4599 65.3491 45.75 71.1385 45.75H92.3125C92.9605 45.75 93.4856 46.2753 93.4856 46.9231V56.3077C93.4856 56.9555 92.9605 57.4808 92.3125 57.4808ZM63.0614 55.1346H91.1394V48.0962H71.1385C67.0208 48.0962 63.6064 51.1642 63.0614 55.1346Z" fill="#E57200"/>
<path d="M55.9471 42.2309H37.1779C36.5301 42.2309 36.0048 41.7056 36.0048 41.0578C36.0048 40.4101 36.5301 39.8848 37.1779 39.8848H55.9471C56.5949 39.8848 57.1202 40.4101 57.1202 41.0578C57.1202 41.7056 56.5949 42.2309 55.9471 42.2309Z" fill="#E57200"/>
<path d="M55.9471 37.5376H37.1779C36.5301 37.5376 36.0048 37.0123 36.0048 36.3645C36.0048 35.7167 36.5301 35.1914 37.1779 35.1914H55.9471C56.5949 35.1914 57.1202 35.7167 57.1202 36.3645C57.1202 37.0123 56.5949 37.5376 55.9471 37.5376Z" fill="#E57200"/>
<path d="M55.9471 32.8461H37.1779C36.5301 32.8461 36.0048 32.3208 36.0048 31.6731C36.0048 31.0253 36.5301 30.5 37.1779 30.5H55.9471C56.5949 30.5 57.1202 31.0253 57.1202 31.6731C57.1202 32.3208 56.5949 32.8461 55.9471 32.8461Z" fill="#E57200"/>
<path d="M55.9471 28.1528H37.1779C36.5301 28.1528 36.0048 27.6275 36.0048 26.9797C36.0048 26.3319 36.5301 25.8066 37.1779 25.8066H55.9471C56.5949 25.8066 57.1202 26.3319 57.1202 26.9797C57.1202 27.6275 56.5949 28.1528 55.9471 28.1528Z" fill="#E57200"/>
<path d="M46.5626 23.4614H37.178C36.5302 23.4614 36.0049 22.9361 36.0049 22.2883C36.0049 21.6405 36.5302 21.1152 37.178 21.1152H46.5626C47.2103 21.1152 47.7356 21.6405 47.7356 22.2883C47.7356 22.9361 47.2103 23.4614 46.5626 23.4614Z" fill="#E57200"/>
<path d="M86.4471 42.2309H67.6779C67.0299 42.2309 66.5048 41.7056 66.5048 41.0578C66.5048 40.4101 67.0299 39.8848 67.6779 39.8848H86.4471C87.0951 39.8848 87.6202 40.4101 87.6202 41.0578C87.6202 41.7056 87.0951 42.2309 86.4471 42.2309Z" fill="#E57200"/>
<path d="M86.4471 37.5376H67.6779C67.0299 37.5376 66.5048 37.0123 66.5048 36.3645C66.5048 35.7167 67.0299 35.1914 67.6779 35.1914H86.4471C87.0951 35.1914 87.6202 35.7167 87.6202 36.3645C87.6202 37.0123 87.0951 37.5376 86.4471 37.5376Z" fill="#E57200"/>
<path d="M82.9279 31.6726H71.1972C70.5492 31.6726 70.0241 31.1473 70.0241 30.4996V18.7688C70.0241 18.121 70.5492 17.5957 71.1972 17.5957H82.9279C83.576 17.5957 84.101 18.121 84.101 18.7688V30.4996C84.101 31.1473 83.576 31.6726 82.9279 31.6726ZM72.3703 29.3265H81.7549V19.9419H72.3703V29.3265Z" fill="#E57200"/>
<path d="M71.1972 31.6724C70.8971 31.6724 70.5968 31.5579 70.3678 31.3289C69.9096 30.8707 69.9096 30.1279 70.3678 29.6699L82.0986 17.9392C82.5568 17.4812 83.2991 17.4812 83.7573 17.9392C84.2155 18.3974 84.2155 19.1402 83.7573 19.5981L72.0266 31.3289C71.7976 31.5579 71.4973 31.6724 71.1972 31.6724Z" fill="#E57200"/>
<path d="M82.9279 31.6724C82.6279 31.6724 82.3276 31.5579 82.0986 31.3289L70.3678 19.5981C69.9096 19.1399 69.9096 18.3971 70.3678 17.9392C70.826 17.4812 71.5683 17.4812 72.0266 17.9392L83.7573 29.6699C84.2155 30.1282 84.2155 30.8709 83.7573 31.3289C83.5283 31.5579 83.228 31.6724 82.9279 31.6724Z" fill="#E57200"/>
<path d="M106.389 73.9028H17.2356C16.5879 73.9028 16.0626 73.3777 16.0626 72.7297C16.0626 72.0817 16.5879 71.5566 17.2356 71.5566H106.389C107.037 71.5566 107.563 72.0817 107.563 72.7297C107.563 73.3777 107.037 73.9028 106.389 73.9028Z" fill="#E57200"/>
<path d="M108.736 16.4237C106.149 16.4237 104.043 14.3187 104.043 11.7314C104.043 9.14403 106.149 7.03906 108.736 7.03906C111.323 7.03906 113.428 9.14403 113.428 11.7314C113.428 14.3187 111.323 16.4237 108.736 16.4237ZM108.736 9.38522C107.442 9.38522 106.39 10.4377 106.39 11.7314C106.39 13.025 107.442 14.0775 108.736 14.0775C110.029 14.0775 111.082 13.025 111.082 11.7314C111.082 10.4377 110.029 9.38522 108.736 9.38522Z" fill="#E57200"/>
<path d="M13.7164 17.596C10.4822 17.596 7.85101 14.9648 7.85101 11.7306C7.85101 8.49644 10.4822 5.86523 13.7164 5.86523C16.9506 5.86523 19.5818 8.49644 19.5818 11.7306C19.5818 14.9648 16.9506 17.596 13.7164 17.596ZM13.7164 8.21139C11.7759 8.21139 10.1972 9.79011 10.1972 11.7306C10.1972 13.6711 11.7759 15.2498 13.7164 15.2498C15.6569 15.2498 17.2356 13.6711 17.2356 11.7306C17.2356 9.79011 15.6569 8.21139 13.7164 8.21139Z" fill="#E57200"/>
</svg>
