<svg width="122" height="122" viewBox="0 0 122 122" fill="none" xmlns="http://www.w3.org/2000/svg">
<path d="M106.164 28.1543V72.7312H17.0098V28.1543H106.164Z" fill="white"/>
<path d="M70.9124 46.9231C65.7602 46.9231 61.5864 51.0992 61.5864 56.249V19.9423C61.5864 14.6072 65.9104 10.2832 71.2432 10.2832H92.0864V46.9231H70.9124Z" fill="white"/>
<path d="M108.509 8.21094C110.452 8.21094 112.029 9.78755 112.029 11.7302C112.029 13.6728 110.452 15.2494 108.509 15.2494C106.565 15.2494 104.99 13.6728 104.99 11.7302C104.99 9.78755 106.565 8.21094 108.509 8.21094Z" fill="#DAEEFF"/>
<path d="M13.4907 7.03906C16.0808 7.03906 18.183 9.13887 18.183 11.7314C18.183 14.3239 16.0808 16.4237 13.4907 16.4237C10.8981 16.4237 8.79834 14.3239 8.79834 11.7314C8.79834 9.13887 10.8981 7.03906 13.4907 7.03906Z" fill="#DAEEFF"/>
<path d="M25.2211 114.962C29.1083 114.962 32.2595 111.81 32.2595 107.923C32.2595 104.036 29.1083 100.885 25.2211 100.885C21.3338 100.885 18.1826 104.036 18.1826 107.923C18.1826 111.81 21.3338 114.962 25.2211 114.962Z" fill="#DAEEFF"/>
<path d="M17.0098 72.7305H106.164V79.7689H17.0098V72.7305Z" fill="white"/>
<path d="M61.5864 56.2498C61.5864 51.1 65.7602 46.9238 70.9124 46.9238H92.0864V56.3084H61.5864V56.2498Z" fill="#DAEEFF"/>
<path d="M61.5864 56.2498V56.3084H31.0864V46.9238H52.2605C57.4103 46.9238 61.5864 51.1 61.5864 56.2498Z" fill="#DAEEFF"/>
<path d="M82.702 30.5001H70.9712L76.8366 24.6348L82.702 30.5001Z" fill="white"/>
<path d="M82.702 18.7695L76.8366 24.6349L70.9712 18.7695H82.702Z" fill="white"/>
<path d="M82.7018 18.7695V30.5003L76.8364 24.6349L82.7018 18.7695Z" fill="#DAEEFF"/>
<path d="M76.8366 24.6349L70.9712 30.5003V18.7695L76.8366 24.6349Z" fill="#DAEEFF"/>
<path d="M61.5864 19.9423V56.249C61.5864 51.0992 57.4103 46.9231 52.2605 46.9231H31.0864V28.1539V21.1154V10.2832H51.9273C57.2625 10.2832 61.5864 14.6072 61.5864 19.9423Z" fill="white"/>
<path d="M79.7693 109.096C81.3881 109.096 82.702 110.41 82.702 112.028C82.702 112.838 82.3735 113.572 81.8433 114.102C81.3107 114.633 80.5787 114.961 79.7693 114.961H43.4039C41.7827 114.961 40.4712 113.647 40.4712 112.028C40.4712 111.219 40.7997 110.485 41.3299 109.954C41.8601 109.424 42.5945 109.096 43.4039 109.096H53.375H69.7981H79.7693Z" fill="white"/>
<path d="M79.1826 93.8457V95.1361C79.1826 97.6629 77.1344 99.7111 74.6076 99.7111H69.7979H53.3749H48.5652C46.0384 99.7111 43.9902 97.6629 43.9902 95.1361V93.8457H79.1826Z" fill="white"/>
<path d="M106.75 103.23C107.722 103.23 108.509 102.442 108.509 101.471C108.509 100.499 107.722 99.7109 106.75 99.7109C105.778 99.7109 104.99 100.499 104.99 101.471C104.99 102.442 105.778 103.23 106.75 103.23Z" fill="#1570EF"/>
<path d="M98.5384 10.5583C99.5102 10.5583 100.298 9.77049 100.298 8.79868C100.298 7.82687 99.5102 7.03906 98.5384 7.03906C97.5666 7.03906 96.7788 7.82687 96.7788 8.79868C96.7788 9.77049 97.5666 10.5583 98.5384 10.5583Z" fill="#1570EF"/>
<path d="M91.4999 107.924C92.4717 107.924 93.2595 107.136 93.2595 106.164C93.2595 105.192 92.4717 104.404 91.4999 104.404C90.528 104.404 89.7402 105.192 89.7402 106.164C89.7402 107.136 90.528 107.924 91.4999 107.924Z" fill="#1570EF"/>
<path d="M63.2451 85.1484C63.67 85.5732 63.9325 86.1598 63.9325 86.8071C63.9325 87.4544 63.67 88.0412 63.2451 88.4658C62.8204 88.8905 62.2339 89.1532 61.5864 89.1532C60.289 89.1532 59.2402 88.1022 59.2402 86.8071C59.2402 86.1595 59.503 85.573 59.9277 85.1484C60.35 84.7237 60.9365 84.4609 61.5864 84.4609C62.2339 84.4609 62.8204 84.7237 63.2451 85.1484Z" fill="#1570EF"/>
<path d="M37.5384 100.884C38.5102 100.884 39.298 100.097 39.298 99.1249C39.298 98.153 38.5102 97.3652 37.5384 97.3652C36.5666 97.3652 35.7788 98.153 35.7788 99.1249C35.7788 100.097 36.5666 100.884 37.5384 100.884Z" fill="#1570EF"/>
<path d="M24.6346 16.4235C25.6064 16.4235 26.3942 15.6357 26.3942 14.6639C26.3942 13.6921 25.6064 12.9043 24.6346 12.9043C23.6628 12.9043 22.875 13.6921 22.875 14.6639C22.875 15.6357 23.6628 16.4235 24.6346 16.4235Z" fill="#1570EF"/>
<path d="M11.7308 104.404C12.7026 104.404 13.4904 103.616 13.4904 102.644C13.4904 101.673 12.7026 100.885 11.7308 100.885C10.759 100.885 9.97119 101.673 9.97119 102.644C9.97119 103.616 10.759 104.404 11.7308 104.404Z" fill="#1570EF"/>
<path d="M43.9907 95.0183H15.9916C12.0252 95.0183 8.79834 91.7902 8.79834 87.8227V27.1371C8.79834 23.1692 12.0252 19.9414 15.9916 19.9414H31.0868C31.7346 19.9414 32.2599 20.4667 32.2599 21.1145C32.2599 21.7623 31.7346 22.2876 31.0868 22.2876H15.9916C13.3187 22.2876 11.1445 24.4629 11.1445 27.1371V87.8227C11.1445 90.4966 13.3189 92.6722 15.9916 92.6722H43.9907C44.6384 92.6722 45.1637 93.1972 45.1637 93.8452C45.1637 94.4933 44.6384 95.0183 43.9907 95.0183Z" fill="#1570EF"/>
<path d="M107.179 95.0183H79.1828C78.5348 95.0183 78.0098 94.4933 78.0098 93.8452C78.0098 93.1972 78.5348 92.6722 79.1828 92.6722H107.179C109.853 92.6722 112.029 90.4968 112.029 87.8227V27.1371C112.029 24.4631 109.853 22.2876 107.179 22.2876H92.0867C91.4387 22.2876 90.9136 21.7623 90.9136 21.1145C90.9136 20.4667 91.4387 19.9414 92.0867 19.9414H107.179C111.147 19.9414 114.375 23.1692 114.375 27.1371V87.8227C114.375 91.7902 111.147 95.0183 107.179 95.0183Z" fill="#1570EF"/>
<path d="M106.163 80.942H17.0095C16.3617 80.942 15.8364 80.4169 15.8364 79.7689V28.1535C15.8364 27.5058 16.3617 26.9805 17.0095 26.9805H31.0864C31.7342 26.9805 32.2595 27.5058 32.2595 28.1535C32.2595 28.8013 31.7342 29.3266 31.0864 29.3266H18.1826V78.5958H104.99V29.3266H92.0864C91.4384 29.3266 90.9133 28.8013 90.9133 28.1535C90.9133 27.5058 91.4384 26.9805 92.0864 26.9805H106.163C106.811 26.9805 107.336 27.5058 107.336 28.1535V79.7689C107.336 80.4169 106.811 80.942 106.163 80.942Z" fill="#1570EF"/>
<path d="M74.6078 100.885H69.7982C69.1502 100.885 68.6251 100.36 68.6251 99.7123C68.6251 99.0643 69.1502 98.5392 69.7982 98.5392H74.6078C76.4835 98.5392 78.0097 97.013 78.0097 95.1373V95.02H45.1635V95.1373C45.1635 97.013 46.6897 98.5392 48.5655 98.5392H53.3751C54.0229 98.5392 54.5482 99.0643 54.5482 99.7123C54.5482 100.36 54.0229 100.885 53.3751 100.885H48.5655C45.396 100.885 42.8174 98.3069 42.8174 95.1373V93.8469C42.8174 93.1989 43.3427 92.6738 43.9905 92.6738H79.1828C79.8308 92.6738 80.3559 93.1989 80.3559 93.8469V95.1373C80.3559 98.3069 77.7774 100.885 74.6078 100.885Z" fill="#1570EF"/>
<path d="M69.7978 110.27C69.1498 110.27 68.6248 109.745 68.6248 109.097V100.885H54.5478V109.097C54.5478 109.745 54.0225 110.27 53.3747 110.27C52.727 110.27 52.2017 109.745 52.2017 109.097V99.7121C52.2017 99.0641 52.727 98.5391 53.3747 98.5391H69.7978C70.4458 98.5391 70.9709 99.0641 70.9709 99.7121V109.097C70.9709 109.745 70.4458 110.27 69.7978 110.27Z" fill="#1570EF"/>
<path d="M79.7693 116.135H43.4039C41.1401 116.135 39.2981 114.293 39.2981 112.03C39.2981 110.933 39.7251 109.902 40.5003 109.126C41.2759 108.351 42.307 107.924 43.4039 107.924H79.7693C82.0331 107.924 83.875 109.766 83.875 112.03C83.875 113.127 83.448 114.158 82.6729 114.933C81.8932 115.709 80.8628 116.135 79.7693 116.135ZM43.4039 110.27C42.9337 110.27 42.4917 110.453 42.1592 110.785C41.8273 111.117 41.6443 111.559 41.6443 112.03C41.6443 113 42.4335 113.789 43.4039 113.789H79.7693C80.238 113.789 80.6807 113.606 81.0158 113.272C81.3461 112.942 81.5291 112.5 81.5291 112.03C81.5291 111.059 80.7399 110.27 79.7695 110.27H43.4039Z" fill="#1570EF"/>
<path d="M25.2213 116.134C20.6935 116.134 17.0098 112.45 17.0098 107.922C17.0098 103.395 20.6935 99.7109 25.2213 99.7109C29.7491 99.7109 33.4328 103.395 33.4328 107.922C33.4328 112.45 29.7491 116.134 25.2213 116.134ZM25.2213 102.057C21.9871 102.057 19.3559 104.688 19.3559 107.922C19.3559 111.157 21.9871 113.788 25.2213 113.788C28.4555 113.788 31.0867 111.157 31.0867 107.922C31.0867 104.688 28.4555 102.057 25.2213 102.057Z" fill="#1570EF"/>
<path d="M31.0867 48.0954C30.4389 48.0954 29.9136 47.5701 29.9136 46.9223V10.2825C29.9136 9.63468 30.4389 9.10938 31.0867 9.10938H51.9275C57.9004 9.10938 62.7597 13.9687 62.7597 19.9416C62.7597 20.5893 62.2347 21.1146 61.5867 21.1146C60.9386 21.1146 60.4136 20.5893 60.4136 19.9416C60.4136 15.2624 56.6067 11.4555 51.9275 11.4555H32.2597V46.9223C32.2597 47.5701 31.7344 48.0954 31.0867 48.0954Z" fill="#1570EF"/>
<path d="M61.5867 57.4808H31.0867C30.4389 57.4808 29.9136 56.9555 29.9136 56.3077V46.9231C29.9136 46.2753 30.4389 45.75 31.0867 45.75H52.2607C58.0498 45.75 62.7597 50.4599 62.7597 56.249C62.7597 56.2589 62.7597 56.2685 62.7593 56.2784C62.7597 56.2882 62.7597 56.2978 62.7597 56.3077C62.7597 56.9555 62.2347 57.4808 61.5867 57.4808ZM32.2597 55.1346H60.3378C59.7928 51.1642 56.3784 48.0962 52.2607 48.0962H32.2597V55.1346Z" fill="#1570EF"/>
<path d="M61.5867 57.4214C60.9386 57.4214 60.4136 56.8961 60.4136 56.2483V19.9416C60.4136 13.9687 65.2718 9.10938 71.2434 9.10938H92.0866C92.7346 9.10938 93.2597 9.63468 93.2597 10.2825V46.9223C93.2597 47.5701 92.7346 48.0954 92.0866 48.0954C91.4386 48.0954 90.9136 47.5701 90.9136 46.9223V11.4555H71.2434C66.5654 11.4555 62.7597 15.2624 62.7597 19.9416V56.2483C62.7597 56.8961 62.2347 57.4214 61.5867 57.4214Z" fill="#1570EF"/>
<path d="M92.0866 57.4808H61.5867C60.9386 57.4808 60.4136 56.9555 60.4136 56.3077V56.249C60.4136 50.4599 65.1232 45.75 70.9126 45.75H92.0866C92.7346 45.75 93.2597 46.2753 93.2597 46.9231V56.3077C93.2597 56.9555 92.7346 57.4808 92.0866 57.4808ZM62.8355 55.1346H90.9136V48.0962H70.9126C66.7949 48.0962 63.3805 51.1642 62.8355 55.1346Z" fill="#1570EF"/>
<path d="M55.7211 42.2309H36.9519C36.3041 42.2309 35.7788 41.7056 35.7788 41.0578C35.7788 40.4101 36.3041 39.8848 36.9519 39.8848H55.7211C56.3689 39.8848 56.8942 40.4101 56.8942 41.0578C56.8942 41.7056 56.3689 42.2309 55.7211 42.2309Z" fill="#1570EF"/>
<path d="M55.7211 37.5376H36.9519C36.3041 37.5376 35.7788 37.0123 35.7788 36.3645C35.7788 35.7167 36.3041 35.1914 36.9519 35.1914H55.7211C56.3689 35.1914 56.8942 35.7167 56.8942 36.3645C56.8942 37.0123 56.3689 37.5376 55.7211 37.5376Z" fill="#1570EF"/>
<path d="M55.7211 32.8461H36.9519C36.3041 32.8461 35.7788 32.3208 35.7788 31.6731C35.7788 31.0253 36.3041 30.5 36.9519 30.5H55.7211C56.3689 30.5 56.8942 31.0253 56.8942 31.6731C56.8942 32.3208 56.3689 32.8461 55.7211 32.8461Z" fill="#1570EF"/>
<path d="M55.7211 28.1528H36.9519C36.3041 28.1528 35.7788 27.6275 35.7788 26.9797C35.7788 26.3319 36.3041 25.8066 36.9519 25.8066H55.7211C56.3689 25.8066 56.8942 26.3319 56.8942 26.9797C56.8942 27.6275 56.3689 28.1528 55.7211 28.1528Z" fill="#1570EF"/>
<path d="M46.3365 23.4614H36.9519C36.3041 23.4614 35.7788 22.9361 35.7788 22.2883C35.7788 21.6405 36.3041 21.1152 36.9519 21.1152H46.3365C46.9843 21.1152 47.5096 21.6405 47.5096 22.2883C47.5096 22.9361 46.9843 23.4614 46.3365 23.4614Z" fill="#1570EF"/>
<path d="M86.2211 42.2309H67.4519C66.8039 42.2309 66.2788 41.7056 66.2788 41.0578C66.2788 40.4101 66.8039 39.8848 67.4519 39.8848H86.2211C86.8691 39.8848 87.3942 40.4101 87.3942 41.0578C87.3942 41.7056 86.8691 42.2309 86.2211 42.2309Z" fill="#1570EF"/>
<path d="M86.2211 37.5376H67.4519C66.8039 37.5376 66.2788 37.0123 66.2788 36.3645C66.2788 35.7167 66.8039 35.1914 67.4519 35.1914H86.2211C86.8691 35.1914 87.3942 35.7167 87.3942 36.3645C87.3942 37.0123 86.8691 37.5376 86.2211 37.5376Z" fill="#1570EF"/>
<path d="M82.7022 31.6726H70.9714C70.3234 31.6726 69.7983 31.1473 69.7983 30.4996V18.7688C69.7983 18.121 70.3234 17.5957 70.9714 17.5957H82.7022C83.3502 17.5957 83.8753 18.121 83.8753 18.7688V30.4996C83.8753 31.1473 83.3502 31.6726 82.7022 31.6726ZM72.1445 29.3265H81.5291V19.9419H72.1445V29.3265Z" fill="#1570EF"/>
<path d="M70.9711 31.6724C70.671 31.6724 70.3707 31.5579 70.1417 31.3289C69.6835 30.8707 69.6835 30.1279 70.1417 29.6699L81.8725 17.9392C82.3307 17.4812 83.073 17.4812 83.5312 17.9392C83.9894 18.3974 83.9894 19.1402 83.5312 19.5981L71.8005 31.3289C71.5715 31.5579 71.2712 31.6724 70.9711 31.6724Z" fill="#1570EF"/>
<path d="M82.7019 31.6724C82.4018 31.6724 82.1015 31.5579 81.8725 31.3289L70.1417 19.5981C69.6835 19.1399 69.6835 18.3971 70.1417 17.9392C70.6 17.4812 71.3423 17.4812 71.8005 17.9392L83.5312 29.6699C83.9894 30.1282 83.9894 30.8709 83.5312 31.3289C83.3022 31.5579 83.0019 31.6724 82.7019 31.6724Z" fill="#1570EF"/>
<path d="M106.163 73.9028H17.0095C16.3617 73.9028 15.8364 73.3777 15.8364 72.7297C15.8364 72.0817 16.3617 71.5566 17.0095 71.5566H106.163C106.811 71.5566 107.336 72.0817 107.336 72.7297C107.336 73.3777 106.811 73.9028 106.163 73.9028Z" fill="#1570EF"/>
<path d="M108.51 16.4237C105.923 16.4237 103.817 14.3187 103.817 11.7314C103.817 9.14403 105.923 7.03906 108.51 7.03906C111.097 7.03906 113.202 9.14403 113.202 11.7314C113.202 14.3187 111.097 16.4237 108.51 16.4237ZM108.51 9.38522C107.216 9.38522 106.164 10.4377 106.164 11.7314C106.164 13.025 107.216 14.0775 108.51 14.0775C109.803 14.0775 110.856 13.025 110.856 11.7314C110.856 10.4377 109.803 9.38522 108.51 9.38522Z" fill="#1570EF"/>
<path d="M13.4904 17.596C10.2562 17.596 7.625 14.9648 7.625 11.7306C7.625 8.49644 10.2562 5.86523 13.4904 5.86523C16.7246 5.86523 19.3558 8.49644 19.3558 11.7306C19.3558 14.9648 16.7246 17.596 13.4904 17.596ZM13.4904 8.21139C11.5499 8.21139 9.97115 9.79011 9.97115 11.7306C9.97115 13.6711 11.5499 15.2498 13.4904 15.2498C15.4309 15.2498 17.0096 13.6711 17.0096 11.7306C17.0096 9.79011 15.4309 8.21139 13.4904 8.21139Z" fill="#1570EF"/>
</svg>
