<svg width="130" height="122" viewBox="0 0 130 122" fill="none" xmlns="http://www.w3.org/2000/svg">
<path d="M39.513 5.56641L7.79126 28.3838H72.3478L39.513 5.56641Z" fill="#8DAAD7"/>
<path d="M94.0522 44.5215L62.3304 67.3389H126.887L94.0522 44.5215Z" fill="#8DAAD7"/>
<path d="M128.814 66.7759L94.3357 42.9064C93.4271 42.2778 92.2248 42.2778 91.3162 42.9064L68.9565 58.3866V31.8264H74.2609H74.2662C75.731 31.8264 76.9183 30.639 76.9183 29.1742C76.9183 28.2226 76.4171 27.388 75.6641 26.9199L41.292 3.12377C40.3839 2.4952 39.1808 2.4952 38.2727 3.12377L3.79447 26.9933C2.84048 27.6537 2.42647 28.8573 2.77258 29.9648C3.11869 31.0724 4.14402 31.8264 5.30435 31.8264H10.6087V106.087H2.65217C1.18738 106.087 0 107.275 0 108.739V119.348C0 120.813 1.18738 122 2.65217 122H42.4348H84.8696H103.435H119.348C120.812 122 122 120.813 122 119.348V71.609H127.304C128.464 71.609 129.49 70.8547 129.836 69.7474C130.182 68.6404 129.768 67.4366 128.814 66.7759ZM92.8261 48.3131L103.49 55.696H92.8261C91.3616 55.696 90.1739 56.8833 90.1739 58.3481C90.1739 59.8129 91.3616 61.0003 92.8261 61.0003H111.152L118.814 66.3047H66.8382L92.8261 48.3131ZM21.4564 21.2177H39.7826C41.2474 21.2177 42.4348 20.0303 42.4348 18.5655C42.4348 17.1007 41.2474 15.9133 39.7826 15.9133H29.1182L39.7826 8.53049L65.7705 26.522H13.7945L21.4564 21.2177ZM5.30435 111.392H13.2609H39.7826V116.696H5.30435V111.392ZM87.5217 116.696V99.4568C87.5217 95.8008 90.4962 92.8264 94.1522 92.8264C97.8082 92.8264 100.783 95.8008 100.783 99.4568V116.696H87.5217ZM116.696 76.9133H95.4783C94.0137 76.9133 92.8261 78.1007 92.8261 79.5655C92.8261 81.0303 94.0137 82.2177 95.4783 82.2177H116.696V116.696H106.087V99.4568C106.087 92.876 100.733 87.522 94.1522 87.522C87.5713 87.522 82.2174 92.8763 82.2174 99.4568V116.696H45.087V108.739C45.087 107.275 43.8996 106.087 42.4348 106.087H15.913V82.2177H84.8696C86.3341 82.2177 87.5217 81.0303 87.5217 79.5655C87.5217 78.1007 86.3341 76.9133 84.8696 76.9133H15.913V31.8264H63.6522V62.0588L56.8382 66.7762C55.8845 67.4363 55.4705 68.6402 55.8163 69.7477C55.8596 69.8859 55.9134 70.0188 55.9768 70.1455C56.4208 71.0316 57.3326 71.609 58.3478 71.609H116.696V76.9133Z" fill="white"/>
<path d="M58.3478 61.0004V50.3917V39.783C58.3478 38.3182 57.1605 37.1309 55.6957 37.1309H45.087H34.4783H23.8696C22.4048 37.1309 21.2174 38.3182 21.2174 39.783V50.3917V61.0004C21.2174 62.4652 22.4048 63.6526 23.8696 63.6526H34.4783H45.087H55.6957C57.1602 63.6526 58.3478 62.4652 58.3478 61.0004ZM53.0435 47.7396H47.7391V42.4352H53.0435V47.7396ZM42.4348 47.7396H37.1305V42.4352H42.4348V47.7396ZM26.5218 42.4352H31.8261V47.7396H26.5218V42.4352ZM26.5218 53.0439H31.8261V58.3483H26.5218V53.0439ZM37.1305 53.0439H42.4348V58.3483H37.1305V53.0439ZM53.0435 58.3483H47.7391V53.0439H53.0435V58.3483Z" fill="white"/>
<path d="M55.6957 87.5215H23.8696C22.4048 87.5215 21.2174 88.7089 21.2174 90.1737V100.782C21.2174 102.247 22.4048 103.435 23.8696 103.435H55.6957C57.1605 103.435 58.3478 102.247 58.3478 100.782V90.1737C58.3478 88.7089 57.1602 87.5215 55.6957 87.5215ZM53.0435 98.1302H26.5218V92.8258H53.0435V98.1302Z" fill="white"/>
<path d="M88.8478 25.1968C88.8478 28.8529 91.8222 31.8273 95.4782 31.8273H100.916C101.532 34.85 104.211 37.1316 107.413 37.1316H120.674C124.33 37.1316 127.304 34.1572 127.304 30.5012C127.304 26.8452 124.33 23.8708 120.674 23.8708H119.215C118.599 20.8481 115.919 18.5664 112.717 18.5664H95.4782C91.8222 18.5664 88.8478 21.5408 88.8478 25.1968ZM95.4782 23.8708H112.717C113.449 23.8708 114.043 24.4656 114.043 25.1968C114.043 25.3409 114.017 25.4894 113.964 25.6374C113.677 26.4492 113.801 27.3501 114.298 28.0535C114.795 28.7569 115.603 29.1751 116.464 29.1751H120.674C121.405 29.1751 122 29.77 122 30.5012C122 31.2324 121.405 31.8273 120.674 31.8273H107.413C106.682 31.8273 106.087 31.2324 106.087 30.5012C106.087 30.3572 106.114 30.2087 106.166 30.0607C106.454 29.2488 106.329 28.3479 105.832 27.6445C105.335 26.9412 104.527 26.5229 103.666 26.5229H95.4782C94.747 26.5229 94.1521 25.928 94.1521 25.1968C94.1521 24.4656 94.747 23.8708 95.4782 23.8708Z" fill="white"/>
<path d="M83.5435 18.5652C88.6619 18.5652 92.8261 14.401 92.8261 9.28261C92.8261 4.16418 88.6619 0 83.5435 0C78.425 0 74.2609 4.16418 74.2609 9.28261C74.2609 14.401 78.425 18.5652 83.5435 18.5652ZM83.5435 5.30435C85.7371 5.30435 87.5217 7.089 87.5217 9.28261C87.5217 11.4762 85.7371 13.2609 83.5435 13.2609C81.3499 13.2609 79.5652 11.4762 79.5652 9.28261C79.5652 7.089 81.3499 5.30435 83.5435 5.30435Z" fill="#8DAAD7"/>
</svg>
