<svg width="122" height="122" viewBox="0 0 122 122" fill="none" xmlns="http://www.w3.org/2000/svg">
<g clip-path="url(#clip0_127_22487)">
<path d="M76.8245 29.5156H76.1712C75.1008 29.5156 74.019 29.604 72.9525 29.7789L66.9032 31.6371V35.4189L80.9704 39.6397C84.2997 40.637 86.5806 43.703 86.5806 47.1782V62.9672H35.4193V47.1782C35.4193 43.703 37.7003 40.637 41.0295 39.6397L55.0968 35.4189V31.6371L49.0475 29.777C47.981 29.604 46.8991 29.5156 45.8288 29.5156H45.1754C34.3701 29.5156 25.5806 38.3051 25.5806 49.1104C25.5806 54.7283 27.999 60.0848 32.2102 63.8012L61 89.2051L89.7878 63.8031C94.0029 60.0848 96.4193 54.7302 96.4193 49.1104C96.4193 38.3051 87.6298 29.5156 76.8245 29.5156Z" fill="#8DAAD7"/>
<path d="M122 35.4194C122 32.1651 119.351 29.5161 116.097 29.5161C115.259 29.5161 114.463 29.6968 113.742 30.0119L93.7646 8.60695C94.1903 7.7941 94.4516 6.88325 94.4516 5.90323C94.4516 2.64896 91.8026 0 88.5484 0C85.2941 0 82.6451 2.64896 82.6451 5.90323C82.6451 9.15749 85.2941 11.8065 88.5484 11.8065C89.3862 11.8065 90.1817 11.6258 90.9033 11.3107L110.881 32.7156C110.455 33.5285 110.194 34.4393 110.194 35.4194C110.194 37.3535 111.142 39.0599 112.584 40.1379L100.105 80.7034C96.968 80.8369 94.4516 83.4109 94.4516 86.5806C94.4516 89.8349 97.1005 92.4839 100.355 92.4839C100.652 92.4839 100.939 92.4387 101.224 92.3955L111.752 112.132C110.794 113.183 110.194 114.566 110.194 116.097C110.194 119.351 112.842 122 116.097 122C119.351 122 122 119.351 122 116.097C122 112.843 119.351 110.194 116.097 110.194C115.8 110.194 115.513 110.239 115.227 110.282L104.7 90.5459C105.658 89.4948 106.258 88.1112 106.258 86.5806C106.258 84.6465 105.31 82.9401 103.868 81.8621L116.347 41.2966C119.484 41.1631 122 38.5891 122 35.4194ZM118.064 35.4194C118.064 36.5032 117.182 37.3871 116.097 37.3871C115.011 37.3871 114.129 36.5032 114.129 35.4194C114.129 34.3356 115.011 33.4516 116.097 33.4516C117.182 33.4516 118.064 34.3356 118.064 35.4194ZM86.5806 5.90323C86.5806 4.81943 87.4626 3.93548 88.5484 3.93548C89.6341 3.93548 90.5161 4.81943 90.5161 5.90323C90.5161 6.98702 89.6341 7.87097 88.5484 7.87097C87.4626 7.87097 86.5806 6.98702 86.5806 5.90323ZM98.3871 86.5806C98.3871 85.4968 99.2691 84.6129 100.355 84.6129C101.441 84.6129 102.323 85.4968 102.323 86.5806C102.323 87.6644 101.441 88.5484 100.355 88.5484C99.2691 88.5484 98.3871 87.6644 98.3871 86.5806ZM118.064 116.097C118.064 117.181 117.182 118.065 116.097 118.065C115.011 118.065 114.129 117.181 114.129 116.097C114.129 115.013 115.011 114.129 116.097 114.129C117.182 114.129 118.064 115.013 118.064 116.097Z" fill="white"/>
<path d="M94.9945 69.705C100.902 64.4926 104.29 56.9877 104.29 49.1109C104.29 33.9676 91.9679 21.6452 76.8246 21.6452H76.1712C75.6495 21.6452 75.1268 21.6788 74.6013 21.7105C74.7031 21.0447 74.7742 20.3702 74.7742 19.6774V13.7742C74.7742 6.17898 68.5933 0 61 0C53.4067 0 47.2258 6.17898 47.2258 13.7742V19.6774C47.2258 20.3702 47.2931 21.0447 47.3911 21.7086C46.8694 21.6788 46.3486 21.6452 45.8288 21.6452H45.1754C30.0321 21.6452 17.7097 33.9676 17.7097 49.1109C17.7097 56.9877 21.0985 64.4926 27.0055 69.705L50.5906 90.5161H49.1936V94.4516H53.129V98.3871H49.1936V102.323H53.129V122H68.871V102.323H72.8065V98.3871H68.871V94.4516H72.8065V90.5161H71.4094L94.9945 69.705ZM51.1613 13.7742C51.1613 8.34945 55.5753 3.93548 61 3.93548C66.4247 3.93548 70.8387 8.34945 70.8387 13.7742V19.6774C70.8387 23.0873 69.091 25.9765 65.9174 27.8116L64.9355 28.3805V34.8765C64.4474 35.6298 63.0917 37.3871 61 37.3871C58.9083 37.3871 57.5526 35.6298 57.0645 34.8765V32.879C58.3117 33.2508 59.6347 33.4516 61 33.4516V29.5161C55.5753 29.5161 51.1613 25.1022 51.1613 19.6774V13.7742ZM72.8065 47.2258V61H49.1936V47.2258H45.2581V61H37.3871V47.1787C37.3871 44.5519 39.0772 42.2786 41.5945 41.5253L54.2647 37.7234C55.41 39.2107 57.6256 41.3226 61 41.3226C64.3744 41.3226 66.59 39.2107 67.7353 37.7234L80.4055 41.5253C82.9228 42.2786 84.6129 44.5519 84.6129 47.1787V61H76.7419V47.2258H72.8065ZM29.6065 66.7533C24.5478 62.2884 21.6452 55.8587 21.6452 49.1109C21.6452 36.1352 32.1997 25.5806 45.1754 25.5806H45.8288C46.7714 25.5806 47.7216 25.6575 48.668 25.7718C49.7028 27.8578 51.2343 29.6516 53.129 30.9766V33.9551L40.4627 37.7551C36.2697 39.0128 33.4516 42.7984 33.4516 47.1787V64.9355H88.5484V47.1787C88.5484 42.7984 85.7303 39.0128 81.5374 37.7551L68.871 33.9551V30.6018C70.7734 29.3057 72.2578 27.6608 73.2628 25.7795C74.2313 25.6594 75.2056 25.5806 76.1712 25.5806H76.8246C89.8003 25.5806 100.355 36.1352 100.355 49.1109C100.355 55.8587 97.4522 62.2884 92.3936 66.7533L65.4611 90.5161H56.537L29.6065 66.7533ZM64.9355 118.065H57.0645V102.323H64.9355V118.065ZM64.9355 98.3871H57.0645V94.4516H64.9355V98.3871Z" fill="white"/>
<path d="M20.7756 92.3955C21.061 92.4387 21.3483 92.4839 21.6452 92.4839C24.8994 92.4839 27.5484 89.8349 27.5484 86.5806C27.5484 83.4109 25.032 80.8369 21.895 80.7034L9.41595 40.1379C10.8581 39.0599 11.8065 37.3535 11.8065 35.4194C11.8065 34.4393 11.5451 33.5285 11.1195 32.7156L31.0967 11.3088C31.8202 11.6258 32.6138 11.8065 33.4516 11.8065C36.7059 11.8065 39.3548 9.15749 39.3548 5.90323C39.3548 2.64896 36.7059 0 33.4516 0C30.1973 0 27.5484 2.64896 27.5484 5.90323C27.5484 6.88325 27.8097 7.7941 28.2354 8.60695L8.25817 30.0119C7.53661 29.6968 6.74105 29.5161 5.90323 29.5161C2.64896 29.5161 0 32.1651 0 35.4194C0 38.5891 2.51637 41.1631 5.65341 41.2966L18.1324 81.8621C16.6903 82.9401 15.7419 84.6465 15.7419 86.5806C15.7419 88.1112 16.3424 89.4948 17.3004 90.544L6.77276 110.28C6.4874 110.239 6.20012 110.194 5.90323 110.194C2.64896 110.194 0 112.843 0 116.097C0 119.351 2.64896 122 5.90323 122C9.15749 122 11.8065 119.351 11.8065 116.097C11.8065 114.566 11.2059 113.183 10.248 112.133L20.7756 92.3955ZM23.6129 86.5806C23.6129 87.6644 22.7309 88.5484 21.6452 88.5484C20.5594 88.5484 19.6774 87.6644 19.6774 86.5806C19.6774 85.4968 20.5594 84.6129 21.6452 84.6129C22.7309 84.6129 23.6129 85.4968 23.6129 86.5806ZM33.4516 3.93548C34.5373 3.93548 35.4194 4.81943 35.4194 5.90323C35.4194 6.98702 34.5373 7.87097 33.4516 7.87097C32.3659 7.87097 31.4839 6.98702 31.4839 5.90323C31.4839 4.81943 32.3659 3.93548 33.4516 3.93548ZM3.93548 35.4194C3.93548 34.3356 4.81751 33.4516 5.90323 33.4516C6.98894 33.4516 7.87097 34.3356 7.87097 35.4194C7.87097 36.5032 6.98894 37.3871 5.90323 37.3871C4.81751 37.3871 3.93548 36.5032 3.93548 35.4194ZM5.90323 118.065C4.81751 118.065 3.93548 117.181 3.93548 116.097C3.93548 115.013 4.81751 114.129 5.90323 114.129C6.98894 114.129 7.87097 115.013 7.87097 116.097C7.87097 117.181 6.98894 118.065 5.90323 118.065Z" fill="white"/>
<path d="M23.6129 110.193H27.5484V114.129H23.6129V110.193Z" fill="white"/>
<path d="M19.6774 114.129H23.6129V118.064H19.6774V114.129Z" fill="white"/>
<path d="M23.6129 118.064H27.5484V122H23.6129V118.064Z" fill="white"/>
<path d="M27.5483 114.129H31.4838V118.064H27.5483V114.129Z" fill="white"/>
<path d="M86.5806 88.5488H90.5161V92.4843H86.5806V88.5488Z" fill="#8DAAD7"/>
<path d="M82.6451 92.4844H86.5806V96.4199H82.6451V92.4844Z" fill="#8DAAD7"/>
<path d="M86.5806 96.4199H90.5161V100.355H86.5806V96.4199Z" fill="#8DAAD7"/>
<path d="M90.5161 92.4844H94.4516V96.4199H90.5161V92.4844Z" fill="#8DAAD7"/>
<path d="M3.93542 68.8711H7.87091V72.8066H3.93542V68.8711Z" fill="white"/>
<path d="M0 72.8066H3.93548V76.7421H0V72.8066Z" fill="white"/>
<path d="M3.93542 76.7422H7.87091V80.6777H3.93542V76.7422Z" fill="white"/>
<path d="M7.87097 72.8066H11.8065V76.7421H7.87097V72.8066Z" fill="white"/>
<path d="M114.129 0H118.065V3.93548H114.129V0Z" fill="white"/>
<path d="M110.194 3.93555H114.129V7.87103H110.194V3.93555Z" fill="white"/>
<path d="M114.129 7.87109H118.065V11.8066H114.129V7.87109Z" fill="white"/>
<path d="M118.065 3.93555H122V7.87103H118.065V3.93555Z" fill="white"/>
<path d="M3.93549 0H7.87097V3.93548H3.93549V0Z" fill="#8DAAD7"/>
<path d="M0 3.93555H3.93548V7.87103H0V3.93555Z" fill="#8DAAD7"/>
<path d="M3.93555 7.87109H7.87103V11.8066H3.93555V7.87109Z" fill="#8DAAD7"/>
<path d="M7.87097 3.93555H11.8065V7.87103H7.87097V3.93555Z" fill="#8DAAD7"/>
</g>
<defs>
<clipPath id="clip0_127_22487">
<rect width="122" height="122" fill="white"/>
</clipPath>
</defs>
</svg>
