<svg width="125" height="122" viewBox="0 0 125 122" fill="none" xmlns="http://www.w3.org/2000/svg">
<path d="M40.385 63.6662C32.9495 58.213 29.5519 48.4562 31.99 39.568C34.4671 30.5366 42.6197 23.7539 52.0125 23.2218C61.2761 22.6969 70.144 28.0059 73.8008 36.5773C77.8283 46.0191 74.8386 57.2981 66.6196 63.4483C62.9345 66.2058 58.4306 67.7708 53.8292 67.8876C51.9393 67.9358 50.0095 69.2154 50.8208 71.3949C51.6383 73.5904 54.318 73.1249 56.1425 72.934C65.7789 71.9247 74.3656 65.6882 78.3599 56.8654C82.7585 47.1527 81.0448 35.3329 74.0086 27.3165C67.5694 19.9802 57.4426 16.622 47.8794 18.5233C35.1411 21.0556 26 32.6491 26 45.5407C26 51.4363 27.9454 57.2652 31.4491 62.0026C33.0372 64.1498 35.2649 66.898 37.717 68.0925C40.4742 69.4357 42.8581 65.4798 40.385 63.6662C41.5406 64.5136 34.6274 59.4438 40.385 63.6662Z" fill="white"/>
<path d="M67.8818 48.9613C67.8818 46.9964 65.6769 45.7256 63.9777 46.7209C62.1556 47.7883 62.7508 50.5302 62.0863 52.2808C60.6541 56.0535 56.8375 58.551 52.8048 58.3289C43.7605 57.831 40.9051 45.2 48.7451 40.7664C49.5616 40.3048 50.4495 39.9717 51.3674 39.7794C52.2906 39.5864 53.3354 39.7457 54.2165 39.4177C56.2273 38.6687 56.4707 35.8287 54.6207 34.745C52.9309 33.7551 49.9848 34.6565 48.2952 35.282C45.9801 36.139 43.9117 37.606 42.3176 39.4888C36.4799 46.3833 38.458 57.281 46.3078 61.6985C55.814 67.0477 67.8818 59.7881 67.8818 48.9613Z" fill="#8DAAD7"/>
<path d="M94.6034 63L72 79H118L94.6034 63Z" fill="#8DAAD7"/>
<path d="M121.859 116.811H118.338V83.2667H120.562C123.093 83.2667 124.112 79.8494 121.956 78.4805L101.371 63.9238C107.75 44.6665 100.253 23.0915 84.4991 10.7048C69.0771 -1.42033 47.1863 -3.45602 29.8088 5.67863C12.5729 14.7388 1.62698 33.8913 3.19694 53.4054C4.74434 72.641 18.9441 88.3338 31.8159 101.46C36.8836 106.629 42.1108 111.638 47.1736 116.811H28.4552V111.622C28.4552 108.276 23.2661 108.276 23.2661 111.622V116.811H20.6715V98.649C20.6715 95.3031 15.4824 95.3031 15.4824 98.649V116.811H12.8879V106.433C12.8879 103.087 7.69875 103.087 7.69875 106.433V116.811H2.50965C-0.836549 116.811 -0.836549 122 2.50965 122H72.9334H88.7783H102.4H115.744H121.859C125.205 122 125.205 116.811 121.859 116.811ZM94.6005 65.4919L112.399 78.0778H76.421L94.6005 65.4919ZM43.3861 105.688C36.1561 98.5354 28.8817 91.3658 22.5378 83.3969C16.698 76.0611 11.4391 67.8294 9.26431 58.6C5.44071 42.3731 12.6113 24.828 25.5457 14.6955C38.6378 4.43973 56.8004 2.30571 71.9456 9.16285C86.7286 15.8558 97.0962 30.3811 98.3696 46.5883C98.7466 51.3848 98.2676 56.1536 96.9182 60.7753L96.1139 60.2068C95.2336 59.5844 94.0245 59.5789 93.1392 60.192L66.6382 78.5392C64.5919 79.9558 65.6302 83.2669 68.1148 83.2669H70.3388V99.0006C64.76 104.664 58.7796 109.919 53.2446 115.626C50.1747 112.403 46.8599 109.124 43.3861 105.688C46.8599 109.124 26.9187 89.3971 43.3861 105.688ZM65.3352 111.089C66.9791 109.53 68.6539 107.94 70.3388 106.305V116.811H59.3825C61.2851 114.933 63.2764 113.042 65.3352 111.089C66.9791 109.53 63.2764 113.042 65.3352 111.089ZM91.3731 116.811V104.811C91.3731 99.3747 99.8054 99.3747 99.8054 104.811V116.811H91.3731ZM104.995 116.811V104.811C104.995 99.6915 100.709 95.4056 95.5893 95.4056C90.4697 95.4056 86.184 99.6915 86.184 104.811V116.811H75.5282V100.059V83.2667H113.149V116.811H104.995Z" fill="white"/>
<path d="M102.4 18.2185C107.343 18.2185 111.481 14.0807 111.481 9.13758C111.481 4.19444 107.343 0.0566406 102.4 0.0566406C97.4571 0.0566406 93.319 4.19444 93.319 9.13758C93.319 14.0807 97.4571 18.2185 102.4 18.2185ZM102.4 5.24575C107.418 5.24575 107.418 13.0294 102.4 13.0294C97.3821 13.0294 97.3821 5.24575 102.4 5.24575Z" fill="white"/>
<path d="M108.886 41.5688C108.886 45.8057 112.433 49.3525 116.67 49.3525C120.907 49.3525 124.454 45.8057 124.454 41.5688C124.454 37.3319 120.907 33.7852 116.67 33.7852C112.433 33.7852 108.886 37.3319 108.886 41.5688ZM116.67 38.9743C120.016 38.9743 120.016 44.1634 116.67 44.1634C113.325 44.1634 113.325 38.9743 116.67 38.9743Z" fill="#8DAAD7"/>
</svg>
