<svg width="120" height="120" viewBox="0 0 120 120" fill="none" xmlns="http://www.w3.org/2000/svg">
<g clip-path="url(#clip0_127_22519)">
<path d="M100.241 82.6369L98.7097 98.7096H83.2258L81.3177 78.6639C78.0251 78.2537 74.5398 77.9324 70.8465 77.7207L67.7419 110.322H52.2581L49.1535 77.7235C45.4621 77.9343 41.9767 78.2537 38.6823 78.6658L36.7742 98.7096H21.2903L19.7593 82.6369C6.77986 86.7886 0 92.853 0 98.7096C0 109.032 21.0295 120 60 120C98.9705 120 120 109.032 120 98.7096C120 92.853 113.22 86.7886 100.241 82.6369Z" fill="#8DAAD7"/>
<path d="M106.643 29.8393L98.7097 27.5731V24.1161C101.079 21.9887 102.581 18.9135 102.581 15.4839V11.6129C102.581 5.20823 97.3724 0 90.9677 0C84.5631 0 79.3548 5.20823 79.3548 11.6129V15.4839C79.3548 18.9116 80.8565 21.9868 83.2258 24.1161V27.5731L75.292 29.8393C71.9862 30.7816 69.6774 33.8436 69.6774 37.2836V39.7398L67.7419 39.186V35.729C70.1112 33.6016 71.6129 30.5264 71.6129 27.0968V23.2258C71.6129 16.8211 66.4047 11.6129 60 11.6129C53.5953 11.6129 48.3871 16.8211 48.3871 23.2258V27.0968C48.3871 30.5245 49.8888 33.5997 52.2581 35.729V39.186L50.3226 39.7398V37.2836C50.3226 33.8436 48.0138 30.7835 44.708 29.8393L36.7742 27.5731V24.1161C39.1435 21.9887 40.6452 18.9135 40.6452 15.4839V11.6129C40.6452 5.20823 35.4369 0 29.0322 0C22.6276 0 17.4193 5.20823 17.4193 11.6129V15.4839C17.4193 18.9116 18.921 21.9868 21.2903 24.1161V27.5731L13.3565 29.8393C10.0507 30.7816 7.74193 33.8436 7.74193 37.2836V60C7.74193 63.2009 10.3475 65.8064 13.5484 65.8064C14.4887 65.8064 15.3657 65.5607 16.152 65.1619L19.5306 100.645H38.5339L40.872 76.0953C41.8718 76.91 43.1288 77.4193 44.5161 77.4193C45.4565 77.4193 46.3335 77.1736 47.1198 76.7748L50.4984 112.258H69.5016L72.8802 76.7748C73.6665 77.1736 74.5435 77.4193 75.4839 77.4193C76.8712 77.4193 78.1281 76.91 79.128 76.0953L81.4661 100.645H100.469L103.848 65.1619C104.634 65.5607 105.511 65.8064 106.452 65.8064C109.653 65.8064 112.258 63.2009 112.258 60V37.2836C112.258 33.8436 109.949 30.7816 106.643 29.8393ZM83.2258 11.6129C83.2258 7.34312 86.698 3.87097 90.9677 3.87097C95.2375 3.87097 98.7097 7.34312 98.7097 11.6129V15.4839C98.7097 19.7537 95.2375 23.2258 90.9677 23.2258C86.698 23.2258 83.2258 19.7537 83.2258 15.4839V11.6129ZM90.9677 27.0968C92.3267 27.0968 93.6252 26.8492 94.8387 26.4192V28.4983C94.3586 29.2392 93.0251 30.9677 90.9677 30.9677C88.9066 30.9677 87.5712 29.2317 87.0968 28.5002V26.4192C88.3102 26.8492 89.6087 27.0968 90.9677 27.0968ZM52.2581 23.2258C52.2581 18.956 55.7302 15.4839 60 15.4839C64.2698 15.4839 67.7419 18.956 67.7419 23.2258V27.0968C67.7419 31.3666 64.2698 34.8387 60 34.8387C55.7302 34.8387 52.2581 31.3666 52.2581 27.0968V23.2258ZM60 38.7097C61.359 38.7097 62.6575 38.4621 63.871 38.0321V40.1112C63.3909 40.8521 62.0574 42.5806 60 42.5806C57.9426 42.5806 56.6091 40.8521 56.129 40.1112V38.0321C57.3425 38.4621 58.641 38.7097 60 38.7097ZM21.2903 11.6129C21.2903 7.34312 24.7625 3.87097 29.0322 3.87097C33.302 3.87097 36.7742 7.34312 36.7742 11.6129V15.4839C36.7742 19.7537 33.302 23.2258 29.0322 23.2258C24.7625 23.2258 21.2903 19.7537 21.2903 15.4839V11.6129ZM29.0322 27.0968C30.3912 27.0968 31.6898 26.8492 32.9032 26.4192V28.4983C32.4231 29.2392 31.0896 30.9677 29.0322 30.9677C26.9749 30.9677 25.6414 29.2392 25.1613 28.4983V26.4192C26.3747 26.8492 27.6733 27.0968 29.0322 27.0968ZM13.5484 61.9355C12.4805 61.9355 11.6129 61.066 11.6129 60V37.2836C11.6129 35.5645 12.7687 34.0335 14.4197 33.561L22.3932 31.2834C23.5178 32.7463 25.7009 34.8387 29.0322 34.8387C32.3636 34.8387 34.5467 32.7463 35.6694 31.2834L43.6429 33.561C45.2958 34.0335 46.4497 35.5645 46.4497 37.2836V40.8446L44.3224 41.4522C43.6977 41.6299 43.1222 41.9049 42.5787 42.2225V40.6452H38.7078V56.129H19.3548V40.6452H15.4839V60C15.4839 61.066 14.6163 61.9355 13.5484 61.9355ZM19.5467 60H27.0968V96.7742H23.05L19.5467 60ZM30.9677 96.7742V60H38.5178L35.0145 96.7742H30.9677ZM50.5144 71.6129H58.0645V108.387H54.0178L50.5144 71.6129ZM61.9355 108.387V71.6129H69.4856L65.9822 108.387H61.9355ZM77.4193 71.6129C77.4193 72.6789 76.5518 73.5484 75.4839 73.5484C74.4159 73.5484 73.5484 72.6789 73.5484 71.6129V52.2581H69.6774V67.7419H50.3226V52.2581H46.4516V71.6129C46.4516 72.6789 45.584 73.5484 44.5161 73.5484C43.4482 73.5484 42.5806 72.6789 42.5806 71.6129V48.8965C42.5806 47.1774 43.7364 45.6464 45.3875 45.1739L53.3609 42.8963C54.4856 44.3592 56.6687 46.4516 60 46.4516C63.3313 46.4516 65.5144 44.3592 66.6371 42.8963L74.6106 45.1739C76.2635 45.6464 77.4175 47.1774 77.4175 48.8965V71.6129H77.4193ZM81.4822 60H89.0322V96.7742H84.9855L81.4822 60ZM92.9032 96.7742V60H100.453L96.95 96.7742H92.9032ZM108.387 60C108.387 61.066 107.52 61.9355 106.452 61.9355C105.384 61.9355 104.516 61.066 104.516 60V40.6452H100.645V56.129H81.2903V40.6452H77.4193V42.2225C76.8759 41.9049 76.3004 41.6299 75.6757 41.4522L73.5484 40.8446V37.2836C73.5484 35.5645 74.7042 34.0335 76.3552 33.561L84.3287 31.2834C85.4533 32.7463 87.6364 34.8387 90.9677 34.8387C94.2991 34.8387 96.4822 32.7463 97.6049 31.2834L105.578 33.561C107.231 34.0335 108.385 35.5645 108.385 37.2836V60H108.387Z" fill="white"/>
</g>
<defs>
<clipPath id="clip0_127_22519">
<rect width="120" height="120" fill="white"/>
</clipPath>
</defs>
</svg>
